<?xml version="1.0" encoding="utf-8" standalone="no"?>
<!DOCTYPE svg PUBLIC "-//W3C//DTD SVG 1.1//EN"
  "http://www.w3.org/Graphics/SVG/1.1/DTD/svg11.dtd">
<svg xmlns:xlink="http://www.w3.org/1999/xlink" width="1080pt" height="360pt" viewBox="0 0 1080 360" xmlns="http://www.w3.org/2000/svg" version="1.1">
 <metadata>
  <rdf:RDF xmlns:dc="http://purl.org/dc/elements/1.1/" xmlns:cc="http://creativecommons.org/ns#" xmlns:rdf="http://www.w3.org/1999/02/22-rdf-syntax-ns#">
   <cc:Work>
    <dc:type rdf:resource="http://purl.org/dc/dcmitype/StillImage"/>
    <dc:date>2023-06-20T05:20:01.966705</dc:date>
    <dc:format>image/svg+xml</dc:format>
    <dc:creator>
     <cc:Agent>
      <dc:title>Matplotlib v3.7.1, https://matplotlib.org/</dc:title>
     </cc:Agent>
    </dc:creator>
   </cc:Work>
  </rdf:RDF>
 </metadata>
 <defs>
  <style type="text/css">*{stroke-linejoin: round; stroke-linecap: butt}</style>
 </defs>
 <g id="figure_1">
  <g id="patch_1">
   <path d="M 0 360 
L 1080 360 
L 1080 0 
L 0 0 
z
" style="fill: #ffffff"/>
  </g>
  <g id="axes_1">
   <g id="patch_2">
    <path d="M 79.52 298.84 
L 339.455 298.84 
L 339.455 46.08 
L 79.52 46.08 
z
" style="fill: #ffffff"/>
   </g>
   <g id="matplotlib.axis_1">
    <g id="xtick_1">
     <g id="line2d_1">
      <path d="M 79.52 298.84 
L 79.52 46.08 
" clip-path="url(#pe2a5071803)" style="fill: none; stroke: #b0b0b0; stroke-width: 0.8; stroke-linecap: square"/>
     </g>
     <g id="line2d_2">
      <defs>
       <path id="m4f13a070d8" d="M 0 0 
L 0 3.5 
" style="stroke: #000000; stroke-width: 0.8"/>
      </defs>
      <g>
       <use xlink:href="#m4f13a070d8" x="79.52" y="298.84" style="stroke: #000000; stroke-width: 0.8"/>
      </g>
     </g>
     <g id="text_1">
      <!-- 0 -->
      <g transform="translate(76.33875 313.438438) scale(0.1 -0.1)">
       <defs>
        <path id="DejaVuSans-30" d="M 2034 4250 
Q 1547 4250 1301 3770 
Q 1056 3291 1056 2328 
Q 1056 1369 1301 889 
Q 1547 409 2034 409 
Q 2525 409 2770 889 
Q 3016 1369 3016 2328 
Q 3016 3291 2770 3770 
Q 2525 4250 2034 4250 
z
M 2034 4750 
Q 2819 4750 3233 4129 
Q 3647 3509 3647 2328 
Q 3647 1150 3233 529 
Q 2819 -91 2034 -91 
Q 1250 -91 836 529 
Q 422 1150 422 2328 
Q 422 3509 836 4129 
Q 1250 4750 2034 4750 
z
" transform="scale(0.015625)"/>
       </defs>
       <use xlink:href="#DejaVuSans-30"/>
      </g>
     </g>
    </g>
    <g id="xtick_2">
     <g id="line2d_3">
      <path d="M 131.507 298.84 
L 131.507 46.08 
" clip-path="url(#pe2a5071803)" style="fill: none; stroke: #b0b0b0; stroke-width: 0.8; stroke-linecap: square"/>
     </g>
     <g id="line2d_4">
      <g>
       <use xlink:href="#m4f13a070d8" x="131.507" y="298.84" style="stroke: #000000; stroke-width: 0.8"/>
      </g>
     </g>
     <g id="text_2">
      <!-- 2 -->
      <g transform="translate(128.32575 313.438438) scale(0.1 -0.1)">
       <defs>
        <path id="DejaVuSans-32" d="M 1228 531 
L 3431 531 
L 3431 0 
L 469 0 
L 469 531 
Q 828 903 1448 1529 
Q 2069 2156 2228 2338 
Q 2531 2678 2651 2914 
Q 2772 3150 2772 3378 
Q 2772 3750 2511 3984 
Q 2250 4219 1831 4219 
Q 1534 4219 1204 4116 
Q 875 4013 500 3803 
L 500 4441 
Q 881 4594 1212 4672 
Q 1544 4750 1819 4750 
Q 2544 4750 2975 4387 
Q 3406 4025 3406 3419 
Q 3406 3131 3298 2873 
Q 3191 2616 2906 2266 
Q 2828 2175 2409 1742 
Q 1991 1309 1228 531 
z
" transform="scale(0.015625)"/>
       </defs>
       <use xlink:href="#DejaVuSans-32"/>
      </g>
     </g>
    </g>
    <g id="xtick_3">
     <g id="line2d_5">
      <path d="M 183.494 298.84 
L 183.494 46.08 
" clip-path="url(#pe2a5071803)" style="fill: none; stroke: #b0b0b0; stroke-width: 0.8; stroke-linecap: square"/>
     </g>
     <g id="line2d_6">
      <g>
       <use xlink:href="#m4f13a070d8" x="183.494" y="298.84" style="stroke: #000000; stroke-width: 0.8"/>
      </g>
     </g>
     <g id="text_3">
      <!-- 4 -->
      <g transform="translate(180.31275 313.438438) scale(0.1 -0.1)">
       <defs>
        <path id="DejaVuSans-34" d="M 2419 4116 
L 825 1625 
L 2419 1625 
L 2419 4116 
z
M 2253 4666 
L 3047 4666 
L 3047 1625 
L 3713 1625 
L 3713 1100 
L 3047 1100 
L 3047 0 
L 2419 0 
L 2419 1100 
L 313 1100 
L 313 1709 
L 2253 4666 
z
" transform="scale(0.015625)"/>
       </defs>
       <use xlink:href="#DejaVuSans-34"/>
      </g>
     </g>
    </g>
    <g id="xtick_4">
     <g id="line2d_7">
      <path d="M 235.481 298.84 
L 235.481 46.08 
" clip-path="url(#pe2a5071803)" style="fill: none; stroke: #b0b0b0; stroke-width: 0.8; stroke-linecap: square"/>
     </g>
     <g id="line2d_8">
      <g>
       <use xlink:href="#m4f13a070d8" x="235.481" y="298.84" style="stroke: #000000; stroke-width: 0.8"/>
      </g>
     </g>
     <g id="text_4">
      <!-- 6 -->
      <g transform="translate(232.29975 313.438438) scale(0.1 -0.1)">
       <defs>
        <path id="DejaVuSans-36" d="M 2113 2584 
Q 1688 2584 1439 2293 
Q 1191 2003 1191 1497 
Q 1191 994 1439 701 
Q 1688 409 2113 409 
Q 2538 409 2786 701 
Q 3034 994 3034 1497 
Q 3034 2003 2786 2293 
Q 2538 2584 2113 2584 
z
M 3366 4563 
L 3366 3988 
Q 3128 4100 2886 4159 
Q 2644 4219 2406 4219 
Q 1781 4219 1451 3797 
Q 1122 3375 1075 2522 
Q 1259 2794 1537 2939 
Q 1816 3084 2150 3084 
Q 2853 3084 3261 2657 
Q 3669 2231 3669 1497 
Q 3669 778 3244 343 
Q 2819 -91 2113 -91 
Q 1303 -91 875 529 
Q 447 1150 447 2328 
Q 447 3434 972 4092 
Q 1497 4750 2381 4750 
Q 2619 4750 2861 4703 
Q 3103 4656 3366 4563 
z
" transform="scale(0.015625)"/>
       </defs>
       <use xlink:href="#DejaVuSans-36"/>
      </g>
     </g>
    </g>
    <g id="xtick_5">
     <g id="line2d_9">
      <path d="M 287.468 298.84 
L 287.468 46.08 
" clip-path="url(#pe2a5071803)" style="fill: none; stroke: #b0b0b0; stroke-width: 0.8; stroke-linecap: square"/>
     </g>
     <g id="line2d_10">
      <g>
       <use xlink:href="#m4f13a070d8" x="287.468" y="298.84" style="stroke: #000000; stroke-width: 0.8"/>
      </g>
     </g>
     <g id="text_5">
      <!-- 8 -->
      <g transform="translate(284.28675 313.438438) scale(0.1 -0.1)">
       <defs>
        <path id="DejaVuSans-38" d="M 2034 2216 
Q 1584 2216 1326 1975 
Q 1069 1734 1069 1313 
Q 1069 891 1326 650 
Q 1584 409 2034 409 
Q 2484 409 2743 651 
Q 3003 894 3003 1313 
Q 3003 1734 2745 1975 
Q 2488 2216 2034 2216 
z
M 1403 2484 
Q 997 2584 770 2862 
Q 544 3141 544 3541 
Q 544 4100 942 4425 
Q 1341 4750 2034 4750 
Q 2731 4750 3128 4425 
Q 3525 4100 3525 3541 
Q 3525 3141 3298 2862 
Q 3072 2584 2669 2484 
Q 3125 2378 3379 2068 
Q 3634 1759 3634 1313 
Q 3634 634 3220 271 
Q 2806 -91 2034 -91 
Q 1263 -91 848 271 
Q 434 634 434 1313 
Q 434 1759 690 2068 
Q 947 2378 1403 2484 
z
M 1172 3481 
Q 1172 3119 1398 2916 
Q 1625 2713 2034 2713 
Q 2441 2713 2670 2916 
Q 2900 3119 2900 3481 
Q 2900 3844 2670 4047 
Q 2441 4250 2034 4250 
Q 1625 4250 1398 4047 
Q 1172 3844 1172 3481 
z
" transform="scale(0.015625)"/>
       </defs>
       <use xlink:href="#DejaVuSans-38"/>
      </g>
     </g>
    </g>
    <g id="xtick_6">
     <g id="line2d_11">
      <path d="M 339.455 298.84 
L 339.455 46.08 
" clip-path="url(#pe2a5071803)" style="fill: none; stroke: #b0b0b0; stroke-width: 0.8; stroke-linecap: square"/>
     </g>
     <g id="line2d_12">
      <g>
       <use xlink:href="#m4f13a070d8" x="339.455" y="298.84" style="stroke: #000000; stroke-width: 0.8"/>
      </g>
     </g>
     <g id="text_6">
      <!-- 10 -->
      <g transform="translate(333.0925 313.438438) scale(0.1 -0.1)">
       <defs>
        <path id="DejaVuSans-31" d="M 794 531 
L 1825 531 
L 1825 4091 
L 703 3866 
L 703 4441 
L 1819 4666 
L 2450 4666 
L 2450 531 
L 3481 531 
L 3481 0 
L 794 0 
L 794 531 
z
" transform="scale(0.015625)"/>
       </defs>
       <use xlink:href="#DejaVuSans-31"/>
       <use xlink:href="#DejaVuSans-30" x="63.623047"/>
      </g>
     </g>
    </g>
    <g id="text_7">
     <!-- T [s] -->
     <g transform="translate(198.338281 327.116562) scale(0.1 -0.1)">
      <defs>
       <path id="DejaVuSans-54" d="M -19 4666 
L 3928 4666 
L 3928 4134 
L 2272 4134 
L 2272 0 
L 1638 0 
L 1638 4134 
L -19 4134 
L -19 4666 
z
" transform="scale(0.015625)"/>
       <path id="DejaVuSans-20" transform="scale(0.015625)"/>
       <path id="DejaVuSans-5b" d="M 550 4863 
L 1875 4863 
L 1875 4416 
L 1125 4416 
L 1125 -397 
L 1875 -397 
L 1875 -844 
L 550 -844 
L 550 4863 
z
" transform="scale(0.015625)"/>
       <path id="DejaVuSans-73" d="M 2834 3397 
L 2834 2853 
Q 2591 2978 2328 3040 
Q 2066 3103 1784 3103 
Q 1356 3103 1142 2972 
Q 928 2841 928 2578 
Q 928 2378 1081 2264 
Q 1234 2150 1697 2047 
L 1894 2003 
Q 2506 1872 2764 1633 
Q 3022 1394 3022 966 
Q 3022 478 2636 193 
Q 2250 -91 1575 -91 
Q 1294 -91 989 -36 
Q 684 19 347 128 
L 347 722 
Q 666 556 975 473 
Q 1284 391 1588 391 
Q 1994 391 2212 530 
Q 2431 669 2431 922 
Q 2431 1156 2273 1281 
Q 2116 1406 1581 1522 
L 1381 1569 
Q 847 1681 609 1914 
Q 372 2147 372 2553 
Q 372 3047 722 3315 
Q 1072 3584 1716 3584 
Q 2034 3584 2315 3537 
Q 2597 3491 2834 3397 
z
" transform="scale(0.015625)"/>
       <path id="DejaVuSans-5d" d="M 1947 4863 
L 1947 -844 
L 622 -844 
L 622 -397 
L 1369 -397 
L 1369 4416 
L 622 4416 
L 622 4863 
L 1947 4863 
z
" transform="scale(0.015625)"/>
      </defs>
      <use xlink:href="#DejaVuSans-54"/>
      <use xlink:href="#DejaVuSans-20" x="61.083984"/>
      <use xlink:href="#DejaVuSans-5b" x="92.871094"/>
      <use xlink:href="#DejaVuSans-73" x="131.884766"/>
      <use xlink:href="#DejaVuSans-5d" x="183.984375"/>
     </g>
    </g>
   </g>
   <g id="matplotlib.axis_2">
    <g id="ytick_1">
     <g id="line2d_13">
      <path d="M 79.52 287.466371 
L 339.455 287.466371 
" clip-path="url(#pe2a5071803)" style="fill: none; stroke: #b0b0b0; stroke-width: 0.8; stroke-linecap: square"/>
     </g>
     <g id="line2d_14">
      <defs>
       <path id="m36830b83b1" d="M 0 0 
L -3.5 0 
" style="stroke: #000000; stroke-width: 0.8"/>
      </defs>
      <g>
       <use xlink:href="#m36830b83b1" x="79.52" y="287.466371" style="stroke: #000000; stroke-width: 0.8"/>
      </g>
     </g>
     <g id="text_8">
      <!-- 0.000 -->
      <g transform="translate(43.891875 291.26559) scale(0.1 -0.1)">
       <defs>
        <path id="DejaVuSans-2e" d="M 684 794 
L 1344 794 
L 1344 0 
L 684 0 
L 684 794 
z
" transform="scale(0.015625)"/>
       </defs>
       <use xlink:href="#DejaVuSans-30"/>
       <use xlink:href="#DejaVuSans-2e" x="63.623047"/>
       <use xlink:href="#DejaVuSans-30" x="95.410156"/>
       <use xlink:href="#DejaVuSans-30" x="159.033203"/>
       <use xlink:href="#DejaVuSans-30" x="222.65625"/>
      </g>
     </g>
    </g>
    <g id="ytick_2">
     <g id="line2d_15">
      <path d="M 79.52 246.948599 
L 339.455 246.948599 
" clip-path="url(#pe2a5071803)" style="fill: none; stroke: #b0b0b0; stroke-width: 0.8; stroke-linecap: square"/>
     </g>
     <g id="line2d_16">
      <g>
       <use xlink:href="#m36830b83b1" x="79.52" y="246.948599" style="stroke: #000000; stroke-width: 0.8"/>
      </g>
     </g>
     <g id="text_9">
      <!-- 0.005 -->
      <g transform="translate(43.891875 250.747818) scale(0.1 -0.1)">
       <defs>
        <path id="DejaVuSans-35" d="M 691 4666 
L 3169 4666 
L 3169 4134 
L 1269 4134 
L 1269 2991 
Q 1406 3038 1543 3061 
Q 1681 3084 1819 3084 
Q 2600 3084 3056 2656 
Q 3513 2228 3513 1497 
Q 3513 744 3044 326 
Q 2575 -91 1722 -91 
Q 1428 -91 1123 -41 
Q 819 9 494 109 
L 494 744 
Q 775 591 1075 516 
Q 1375 441 1709 441 
Q 2250 441 2565 725 
Q 2881 1009 2881 1497 
Q 2881 1984 2565 2268 
Q 2250 2553 1709 2553 
Q 1456 2553 1204 2497 
Q 953 2441 691 2322 
L 691 4666 
z
" transform="scale(0.015625)"/>
       </defs>
       <use xlink:href="#DejaVuSans-30"/>
       <use xlink:href="#DejaVuSans-2e" x="63.623047"/>
       <use xlink:href="#DejaVuSans-30" x="95.410156"/>
       <use xlink:href="#DejaVuSans-30" x="159.033203"/>
       <use xlink:href="#DejaVuSans-35" x="222.65625"/>
      </g>
     </g>
    </g>
    <g id="ytick_3">
     <g id="line2d_17">
      <path d="M 79.52 206.430828 
L 339.455 206.430828 
" clip-path="url(#pe2a5071803)" style="fill: none; stroke: #b0b0b0; stroke-width: 0.8; stroke-linecap: square"/>
     </g>
     <g id="line2d_18">
      <g>
       <use xlink:href="#m36830b83b1" x="79.52" y="206.430828" style="stroke: #000000; stroke-width: 0.8"/>
      </g>
     </g>
     <g id="text_10">
      <!-- 0.010 -->
      <g transform="translate(43.891875 210.230047) scale(0.1 -0.1)">
       <use xlink:href="#DejaVuSans-30"/>
       <use xlink:href="#DejaVuSans-2e" x="63.623047"/>
       <use xlink:href="#DejaVuSans-30" x="95.410156"/>
       <use xlink:href="#DejaVuSans-31" x="159.033203"/>
       <use xlink:href="#DejaVuSans-30" x="222.65625"/>
      </g>
     </g>
    </g>
    <g id="ytick_4">
     <g id="line2d_19">
      <path d="M 79.52 165.913056 
L 339.455 165.913056 
" clip-path="url(#pe2a5071803)" style="fill: none; stroke: #b0b0b0; stroke-width: 0.8; stroke-linecap: square"/>
     </g>
     <g id="line2d_20">
      <g>
       <use xlink:href="#m36830b83b1" x="79.52" y="165.913056" style="stroke: #000000; stroke-width: 0.8"/>
      </g>
     </g>
     <g id="text_11">
      <!-- 0.015 -->
      <g transform="translate(43.891875 169.712275) scale(0.1 -0.1)">
       <use xlink:href="#DejaVuSans-30"/>
       <use xlink:href="#DejaVuSans-2e" x="63.623047"/>
       <use xlink:href="#DejaVuSans-30" x="95.410156"/>
       <use xlink:href="#DejaVuSans-31" x="159.033203"/>
       <use xlink:href="#DejaVuSans-35" x="222.65625"/>
      </g>
     </g>
    </g>
    <g id="ytick_5">
     <g id="line2d_21">
      <path d="M 79.52 125.395285 
L 339.455 125.395285 
" clip-path="url(#pe2a5071803)" style="fill: none; stroke: #b0b0b0; stroke-width: 0.8; stroke-linecap: square"/>
     </g>
     <g id="line2d_22">
      <g>
       <use xlink:href="#m36830b83b1" x="79.52" y="125.395285" style="stroke: #000000; stroke-width: 0.8"/>
      </g>
     </g>
     <g id="text_12">
      <!-- 0.020 -->
      <g transform="translate(43.891875 129.194503) scale(0.1 -0.1)">
       <use xlink:href="#DejaVuSans-30"/>
       <use xlink:href="#DejaVuSans-2e" x="63.623047"/>
       <use xlink:href="#DejaVuSans-30" x="95.410156"/>
       <use xlink:href="#DejaVuSans-32" x="159.033203"/>
       <use xlink:href="#DejaVuSans-30" x="222.65625"/>
      </g>
     </g>
    </g>
    <g id="ytick_6">
     <g id="line2d_23">
      <path d="M 79.52 84.877513 
L 339.455 84.877513 
" clip-path="url(#pe2a5071803)" style="fill: none; stroke: #b0b0b0; stroke-width: 0.8; stroke-linecap: square"/>
     </g>
     <g id="line2d_24">
      <g>
       <use xlink:href="#m36830b83b1" x="79.52" y="84.877513" style="stroke: #000000; stroke-width: 0.8"/>
      </g>
     </g>
     <g id="text_13">
      <!-- 0.025 -->
      <g transform="translate(43.891875 88.676732) scale(0.1 -0.1)">
       <use xlink:href="#DejaVuSans-30"/>
       <use xlink:href="#DejaVuSans-2e" x="63.623047"/>
       <use xlink:href="#DejaVuSans-30" x="95.410156"/>
       <use xlink:href="#DejaVuSans-32" x="159.033203"/>
       <use xlink:href="#DejaVuSans-35" x="222.65625"/>
      </g>
     </g>
    </g>
    <g id="text_14">
     <!-- 5%-damped SD [m] -->
     <g transform="translate(37.812187 221.70375) rotate(-90) scale(0.1 -0.1)">
      <defs>
       <path id="DejaVuSans-25" d="M 4653 2053 
Q 4381 2053 4226 1822 
Q 4072 1591 4072 1178 
Q 4072 772 4226 539 
Q 4381 306 4653 306 
Q 4919 306 5073 539 
Q 5228 772 5228 1178 
Q 5228 1588 5073 1820 
Q 4919 2053 4653 2053 
z
M 4653 2450 
Q 5147 2450 5437 2106 
Q 5728 1763 5728 1178 
Q 5728 594 5436 251 
Q 5144 -91 4653 -91 
Q 4153 -91 3862 251 
Q 3572 594 3572 1178 
Q 3572 1766 3864 2108 
Q 4156 2450 4653 2450 
z
M 1428 4353 
Q 1159 4353 1004 4120 
Q 850 3888 850 3481 
Q 850 3069 1003 2837 
Q 1156 2606 1428 2606 
Q 1700 2606 1854 2837 
Q 2009 3069 2009 3481 
Q 2009 3884 1853 4118 
Q 1697 4353 1428 4353 
z
M 4250 4750 
L 4750 4750 
L 1831 -91 
L 1331 -91 
L 4250 4750 
z
M 1428 4750 
Q 1922 4750 2215 4408 
Q 2509 4066 2509 3481 
Q 2509 2891 2217 2550 
Q 1925 2209 1428 2209 
Q 931 2209 642 2551 
Q 353 2894 353 3481 
Q 353 4063 643 4406 
Q 934 4750 1428 4750 
z
" transform="scale(0.015625)"/>
       <path id="DejaVuSans-2d" d="M 313 2009 
L 1997 2009 
L 1997 1497 
L 313 1497 
L 313 2009 
z
" transform="scale(0.015625)"/>
       <path id="DejaVuSans-64" d="M 2906 2969 
L 2906 4863 
L 3481 4863 
L 3481 0 
L 2906 0 
L 2906 525 
Q 2725 213 2448 61 
Q 2172 -91 1784 -91 
Q 1150 -91 751 415 
Q 353 922 353 1747 
Q 353 2572 751 3078 
Q 1150 3584 1784 3584 
Q 2172 3584 2448 3432 
Q 2725 3281 2906 2969 
z
M 947 1747 
Q 947 1113 1208 752 
Q 1469 391 1925 391 
Q 2381 391 2643 752 
Q 2906 1113 2906 1747 
Q 2906 2381 2643 2742 
Q 2381 3103 1925 3103 
Q 1469 3103 1208 2742 
Q 947 2381 947 1747 
z
" transform="scale(0.015625)"/>
       <path id="DejaVuSans-61" d="M 2194 1759 
Q 1497 1759 1228 1600 
Q 959 1441 959 1056 
Q 959 750 1161 570 
Q 1363 391 1709 391 
Q 2188 391 2477 730 
Q 2766 1069 2766 1631 
L 2766 1759 
L 2194 1759 
z
M 3341 1997 
L 3341 0 
L 2766 0 
L 2766 531 
Q 2569 213 2275 61 
Q 1981 -91 1556 -91 
Q 1019 -91 701 211 
Q 384 513 384 1019 
Q 384 1609 779 1909 
Q 1175 2209 1959 2209 
L 2766 2209 
L 2766 2266 
Q 2766 2663 2505 2880 
Q 2244 3097 1772 3097 
Q 1472 3097 1187 3025 
Q 903 2953 641 2809 
L 641 3341 
Q 956 3463 1253 3523 
Q 1550 3584 1831 3584 
Q 2591 3584 2966 3190 
Q 3341 2797 3341 1997 
z
" transform="scale(0.015625)"/>
       <path id="DejaVuSans-6d" d="M 3328 2828 
Q 3544 3216 3844 3400 
Q 4144 3584 4550 3584 
Q 5097 3584 5394 3201 
Q 5691 2819 5691 2113 
L 5691 0 
L 5113 0 
L 5113 2094 
Q 5113 2597 4934 2840 
Q 4756 3084 4391 3084 
Q 3944 3084 3684 2787 
Q 3425 2491 3425 1978 
L 3425 0 
L 2847 0 
L 2847 2094 
Q 2847 2600 2669 2842 
Q 2491 3084 2119 3084 
Q 1678 3084 1418 2786 
Q 1159 2488 1159 1978 
L 1159 0 
L 581 0 
L 581 3500 
L 1159 3500 
L 1159 2956 
Q 1356 3278 1631 3431 
Q 1906 3584 2284 3584 
Q 2666 3584 2933 3390 
Q 3200 3197 3328 2828 
z
" transform="scale(0.015625)"/>
       <path id="DejaVuSans-70" d="M 1159 525 
L 1159 -1331 
L 581 -1331 
L 581 3500 
L 1159 3500 
L 1159 2969 
Q 1341 3281 1617 3432 
Q 1894 3584 2278 3584 
Q 2916 3584 3314 3078 
Q 3713 2572 3713 1747 
Q 3713 922 3314 415 
Q 2916 -91 2278 -91 
Q 1894 -91 1617 61 
Q 1341 213 1159 525 
z
M 3116 1747 
Q 3116 2381 2855 2742 
Q 2594 3103 2138 3103 
Q 1681 3103 1420 2742 
Q 1159 2381 1159 1747 
Q 1159 1113 1420 752 
Q 1681 391 2138 391 
Q 2594 391 2855 752 
Q 3116 1113 3116 1747 
z
" transform="scale(0.015625)"/>
       <path id="DejaVuSans-65" d="M 3597 1894 
L 3597 1613 
L 953 1613 
Q 991 1019 1311 708 
Q 1631 397 2203 397 
Q 2534 397 2845 478 
Q 3156 559 3463 722 
L 3463 178 
Q 3153 47 2828 -22 
Q 2503 -91 2169 -91 
Q 1331 -91 842 396 
Q 353 884 353 1716 
Q 353 2575 817 3079 
Q 1281 3584 2069 3584 
Q 2775 3584 3186 3129 
Q 3597 2675 3597 1894 
z
M 3022 2063 
Q 3016 2534 2758 2815 
Q 2500 3097 2075 3097 
Q 1594 3097 1305 2825 
Q 1016 2553 972 2059 
L 3022 2063 
z
" transform="scale(0.015625)"/>
       <path id="DejaVuSans-53" d="M 3425 4513 
L 3425 3897 
Q 3066 4069 2747 4153 
Q 2428 4238 2131 4238 
Q 1616 4238 1336 4038 
Q 1056 3838 1056 3469 
Q 1056 3159 1242 3001 
Q 1428 2844 1947 2747 
L 2328 2669 
Q 3034 2534 3370 2195 
Q 3706 1856 3706 1288 
Q 3706 609 3251 259 
Q 2797 -91 1919 -91 
Q 1588 -91 1214 -16 
Q 841 59 441 206 
L 441 856 
Q 825 641 1194 531 
Q 1563 422 1919 422 
Q 2459 422 2753 634 
Q 3047 847 3047 1241 
Q 3047 1584 2836 1778 
Q 2625 1972 2144 2069 
L 1759 2144 
Q 1053 2284 737 2584 
Q 422 2884 422 3419 
Q 422 4038 858 4394 
Q 1294 4750 2059 4750 
Q 2388 4750 2728 4690 
Q 3069 4631 3425 4513 
z
" transform="scale(0.015625)"/>
       <path id="DejaVuSans-44" d="M 1259 4147 
L 1259 519 
L 2022 519 
Q 2988 519 3436 956 
Q 3884 1394 3884 2338 
Q 3884 3275 3436 3711 
Q 2988 4147 2022 4147 
L 1259 4147 
z
M 628 4666 
L 1925 4666 
Q 3281 4666 3915 4102 
Q 4550 3538 4550 2338 
Q 4550 1131 3912 565 
Q 3275 0 1925 0 
L 628 0 
L 628 4666 
z
" transform="scale(0.015625)"/>
      </defs>
      <use xlink:href="#DejaVuSans-35"/>
      <use xlink:href="#DejaVuSans-25" x="63.623047"/>
      <use xlink:href="#DejaVuSans-2d" x="158.642578"/>
      <use xlink:href="#DejaVuSans-64" x="194.726562"/>
      <use xlink:href="#DejaVuSans-61" x="258.203125"/>
      <use xlink:href="#DejaVuSans-6d" x="319.482422"/>
      <use xlink:href="#DejaVuSans-70" x="416.894531"/>
      <use xlink:href="#DejaVuSans-65" x="480.371094"/>
      <use xlink:href="#DejaVuSans-64" x="541.894531"/>
      <use xlink:href="#DejaVuSans-20" x="605.371094"/>
      <use xlink:href="#DejaVuSans-53" x="637.158203"/>
      <use xlink:href="#DejaVuSans-44" x="700.634766"/>
      <use xlink:href="#DejaVuSans-20" x="777.636719"/>
      <use xlink:href="#DejaVuSans-5b" x="809.423828"/>
      <use xlink:href="#DejaVuSans-6d" x="848.4375"/>
      <use xlink:href="#DejaVuSans-5d" x="945.849609"/>
     </g>
    </g>
   </g>
   <g id="line2d_25">
    <path d="M 82.11935 287.004524 
L 85.596859 284.942152 
L 89.074368 283.222369 
L 92.551876 281.677678 
L 96.029385 280.132986 
L 99.506894 278.588294 
L 102.984403 277.043603 
L 106.461911 275.498911 
L 109.93942 273.954219 
L 113.416929 273.610954 
L 116.894438 273.610954 
L 120.371947 273.610954 
L 123.849455 273.610954 
L 127.326964 273.610954 
L 130.804473 273.610954 
L 134.281982 273.610954 
L 137.759491 273.610954 
L 141.236999 273.610954 
L 144.714508 273.610954 
L 148.192017 273.610954 
L 151.669526 273.610954 
L 155.147034 273.610954 
L 158.624543 273.610954 
L 162.102052 273.610954 
L 165.579561 273.610954 
L 169.05707 273.610954 
L 172.534578 273.610954 
L 176.012087 273.610954 
L 179.489596 273.610954 
L 182.967105 273.610954 
L 186.444614 273.610954 
L 189.922122 273.610954 
L 193.399631 273.610954 
L 196.87714 273.610954 
L 200.354649 273.610954 
L 203.832157 273.610954 
L 207.309666 273.610954 
L 210.787175 273.610954 
L 214.264684 273.610954 
L 217.742193 273.610954 
L 221.219701 273.610954 
L 224.69721 273.610954 
L 228.174719 273.610954 
L 231.652228 273.610954 
L 235.129736 273.610954 
L 238.607245 273.610954 
L 242.084754 273.610954 
L 245.562263 273.610954 
L 249.039772 273.610954 
L 252.51728 273.610954 
L 255.994789 273.610954 
L 259.472298 273.610954 
L 262.949807 273.610954 
L 266.427316 273.610954 
L 269.904824 273.610954 
L 273.382333 273.610954 
L 276.859842 273.610954 
L 280.337351 273.610954 
L 283.814859 273.610954 
L 287.292368 273.610954 
L 290.769877 273.610954 
L 294.247386 273.610954 
L 297.724895 273.610954 
L 301.202403 273.610954 
L 304.679912 273.610954 
L 308.157421 273.610954 
L 311.63493 273.610954 
L 315.112439 273.610954 
L 318.589947 273.610954 
L 322.067456 273.610954 
L 325.544965 273.610954 
L 329.022474 273.610954 
L 332.499982 273.610954 
L 335.977491 273.610954 
L 339.455 273.610954 
" clip-path="url(#pe2a5071803)" style="fill: none; stroke: #1f77b4; stroke-width: 1.5; stroke-linecap: square"/>
   </g>
   <g id="line2d_26">
    <path d="M 82.11935 287.350909 
L 85.596859 286.835316 
L 89.074368 286.405371 
L 92.551876 286.019198 
L 96.029385 285.633025 
L 99.506894 285.246852 
L 102.984403 284.860679 
L 106.461911 284.474506 
L 109.93942 284.088333 
L 113.416929 284.002517 
L 116.894438 284.002517 
L 120.371947 284.002517 
L 123.849455 284.002517 
L 127.326964 284.002517 
L 130.804473 284.002517 
L 134.281982 284.002517 
L 137.759491 284.002517 
L 141.236999 284.002517 
L 144.714508 284.002517 
L 148.192017 284.002517 
L 151.669526 284.002517 
L 155.147034 284.002517 
L 158.624543 284.002517 
L 162.102052 284.002517 
L 165.579561 284.002517 
L 169.05707 284.002517 
L 172.534578 284.002517 
L 176.012087 284.002517 
L 179.489596 284.002517 
L 182.967105 284.002517 
L 186.444614 284.002517 
L 189.922122 284.002517 
L 193.399631 284.002517 
L 196.87714 284.002517 
L 200.354649 284.002517 
L 203.832157 284.002517 
L 207.309666 284.002517 
L 210.787175 284.002517 
L 214.264684 284.002517 
L 217.742193 284.002517 
L 221.219701 284.002517 
L 224.69721 284.002517 
L 228.174719 284.002517 
L 231.652228 284.002517 
L 235.129736 284.002517 
L 238.607245 284.002517 
L 242.084754 284.002517 
L 245.562263 284.002517 
L 249.039772 284.002517 
L 252.51728 284.002517 
L 255.994789 284.002517 
L 259.472298 284.002517 
L 262.949807 284.002517 
L 266.427316 284.002517 
L 269.904824 284.002517 
L 273.382333 284.002517 
L 276.859842 284.002517 
L 280.337351 284.002517 
L 283.814859 284.002517 
L 287.292368 284.002517 
L 290.769877 284.002517 
L 294.247386 284.002517 
L 297.724895 284.002517 
L 301.202403 284.002517 
L 304.679912 284.002517 
L 308.157421 284.002517 
L 311.63493 284.002517 
L 315.112439 284.002517 
L 318.589947 284.002517 
L 322.067456 284.002517 
L 325.544965 284.002517 
L 329.022474 284.002517 
L 332.499982 284.002517 
L 335.977491 284.002517 
L 339.455 284.002517 
" clip-path="url(#pe2a5071803)" style="fill: none; stroke: #ff7f0e; stroke-width: 1.5; stroke-linecap: square"/>
   </g>
   <g id="line2d_27">
    <path d="M 82.11935 286.866996 
L 85.596859 284.190495 
L 89.074368 279.368459 
L 92.551876 275.94044 
L 96.029385 272.864787 
L 99.506894 269.789134 
L 102.984403 266.713481 
L 106.461911 263.637828 
L 109.93942 260.562176 
L 113.416929 257.486523 
L 116.894438 254.41087 
L 120.371947 251.335217 
L 123.849455 248.259564 
L 127.326964 245.183912 
L 130.804473 242.108259 
L 134.281982 239.032606 
L 137.759491 235.956953 
L 141.236999 232.8813 
L 144.714508 229.805648 
L 148.192017 226.729995 
L 151.669526 223.654342 
L 155.147034 220.578689 
L 158.624543 217.503036 
L 162.102052 214.427384 
L 165.579561 211.351731 
L 169.05707 208.276078 
L 172.534578 205.200425 
L 176.012087 202.124772 
L 179.489596 199.04912 
L 182.967105 195.973467 
L 186.444614 192.897814 
L 189.922122 189.822161 
L 193.399631 186.746509 
L 196.87714 183.670856 
L 200.354649 180.595203 
L 203.832157 177.51955 
L 207.309666 174.443897 
L 210.787175 171.368245 
L 214.264684 168.292592 
L 217.742193 165.216939 
L 221.219701 162.141286 
L 224.69721 159.065633 
L 228.174719 155.989981 
L 231.652228 152.914328 
L 235.129736 149.838675 
L 238.607245 146.763022 
L 242.084754 143.687369 
L 245.562263 140.611717 
L 249.039772 137.536064 
L 252.51728 134.460411 
L 255.994789 131.384758 
L 259.472298 128.309105 
L 262.949807 125.233453 
L 266.427316 122.1578 
L 269.904824 119.082147 
L 273.382333 116.006494 
L 276.859842 112.930841 
L 280.337351 109.855189 
L 283.814859 106.779536 
L 287.292368 103.703883 
L 290.769877 100.62823 
L 294.247386 97.552577 
L 297.724895 94.476925 
L 301.202403 91.401272 
L 304.679912 88.325619 
L 308.157421 85.249966 
L 311.63493 82.174313 
L 315.112439 79.098661 
L 318.589947 76.023008 
L 322.067456 72.947355 
L 325.544965 69.871702 
L 329.022474 66.796049 
L 332.499982 63.720397 
L 335.977491 60.644744 
L 339.455 57.569091 
" clip-path="url(#pe2a5071803)" style="fill: none; stroke: #2ca02c; stroke-width: 1.5; stroke-linecap: square"/>
   </g>
   <g id="patch_3">
    <path d="M 79.52 298.84 
L 79.52 46.08 
" style="fill: none; stroke: #000000; stroke-width: 0.8; stroke-linejoin: miter; stroke-linecap: square"/>
   </g>
   <g id="patch_4">
    <path d="M 339.455 298.84 
L 339.455 46.08 
" style="fill: none; stroke: #000000; stroke-width: 0.8; stroke-linejoin: miter; stroke-linecap: square"/>
   </g>
   <g id="patch_5">
    <path d="M 79.52 298.84 
L 339.455 298.84 
" style="fill: none; stroke: #000000; stroke-width: 0.8; stroke-linejoin: miter; stroke-linecap: square"/>
   </g>
   <g id="patch_6">
    <path d="M 79.52 46.08 
L 339.455 46.08 
" style="fill: none; stroke: #000000; stroke-width: 0.8; stroke-linejoin: miter; stroke-linecap: square"/>
   </g>
   <g id="text_15">
    <!-- Displacement Spectra of Georgia -->
    <g transform="translate(110.105 40.08) scale(0.12 -0.12)">
     <defs>
      <path id="DejaVuSans-69" d="M 603 3500 
L 1178 3500 
L 1178 0 
L 603 0 
L 603 3500 
z
M 603 4863 
L 1178 4863 
L 1178 4134 
L 603 4134 
L 603 4863 
z
" transform="scale(0.015625)"/>
      <path id="DejaVuSans-6c" d="M 603 4863 
L 1178 4863 
L 1178 0 
L 603 0 
L 603 4863 
z
" transform="scale(0.015625)"/>
      <path id="DejaVuSans-63" d="M 3122 3366 
L 3122 2828 
Q 2878 2963 2633 3030 
Q 2388 3097 2138 3097 
Q 1578 3097 1268 2742 
Q 959 2388 959 1747 
Q 959 1106 1268 751 
Q 1578 397 2138 397 
Q 2388 397 2633 464 
Q 2878 531 3122 666 
L 3122 134 
Q 2881 22 2623 -34 
Q 2366 -91 2075 -91 
Q 1284 -91 818 406 
Q 353 903 353 1747 
Q 353 2603 823 3093 
Q 1294 3584 2113 3584 
Q 2378 3584 2631 3529 
Q 2884 3475 3122 3366 
z
" transform="scale(0.015625)"/>
      <path id="DejaVuSans-6e" d="M 3513 2113 
L 3513 0 
L 2938 0 
L 2938 2094 
Q 2938 2591 2744 2837 
Q 2550 3084 2163 3084 
Q 1697 3084 1428 2787 
Q 1159 2491 1159 1978 
L 1159 0 
L 581 0 
L 581 3500 
L 1159 3500 
L 1159 2956 
Q 1366 3272 1645 3428 
Q 1925 3584 2291 3584 
Q 2894 3584 3203 3211 
Q 3513 2838 3513 2113 
z
" transform="scale(0.015625)"/>
      <path id="DejaVuSans-74" d="M 1172 4494 
L 1172 3500 
L 2356 3500 
L 2356 3053 
L 1172 3053 
L 1172 1153 
Q 1172 725 1289 603 
Q 1406 481 1766 481 
L 2356 481 
L 2356 0 
L 1766 0 
Q 1100 0 847 248 
Q 594 497 594 1153 
L 594 3053 
L 172 3053 
L 172 3500 
L 594 3500 
L 594 4494 
L 1172 4494 
z
" transform="scale(0.015625)"/>
      <path id="DejaVuSans-72" d="M 2631 2963 
Q 2534 3019 2420 3045 
Q 2306 3072 2169 3072 
Q 1681 3072 1420 2755 
Q 1159 2438 1159 1844 
L 1159 0 
L 581 0 
L 581 3500 
L 1159 3500 
L 1159 2956 
Q 1341 3275 1631 3429 
Q 1922 3584 2338 3584 
Q 2397 3584 2469 3576 
Q 2541 3569 2628 3553 
L 2631 2963 
z
" transform="scale(0.015625)"/>
      <path id="DejaVuSans-6f" d="M 1959 3097 
Q 1497 3097 1228 2736 
Q 959 2375 959 1747 
Q 959 1119 1226 758 
Q 1494 397 1959 397 
Q 2419 397 2687 759 
Q 2956 1122 2956 1747 
Q 2956 2369 2687 2733 
Q 2419 3097 1959 3097 
z
M 1959 3584 
Q 2709 3584 3137 3096 
Q 3566 2609 3566 1747 
Q 3566 888 3137 398 
Q 2709 -91 1959 -91 
Q 1206 -91 779 398 
Q 353 888 353 1747 
Q 353 2609 779 3096 
Q 1206 3584 1959 3584 
z
" transform="scale(0.015625)"/>
      <path id="DejaVuSans-66" d="M 2375 4863 
L 2375 4384 
L 1825 4384 
Q 1516 4384 1395 4259 
Q 1275 4134 1275 3809 
L 1275 3500 
L 2222 3500 
L 2222 3053 
L 1275 3053 
L 1275 0 
L 697 0 
L 697 3053 
L 147 3053 
L 147 3500 
L 697 3500 
L 697 3744 
Q 697 4328 969 4595 
Q 1241 4863 1831 4863 
L 2375 4863 
z
" transform="scale(0.015625)"/>
      <path id="DejaVuSans-47" d="M 3809 666 
L 3809 1919 
L 2778 1919 
L 2778 2438 
L 4434 2438 
L 4434 434 
Q 4069 175 3628 42 
Q 3188 -91 2688 -91 
Q 1594 -91 976 548 
Q 359 1188 359 2328 
Q 359 3472 976 4111 
Q 1594 4750 2688 4750 
Q 3144 4750 3555 4637 
Q 3966 4525 4313 4306 
L 4313 3634 
Q 3963 3931 3569 4081 
Q 3175 4231 2741 4231 
Q 1884 4231 1454 3753 
Q 1025 3275 1025 2328 
Q 1025 1384 1454 906 
Q 1884 428 2741 428 
Q 3075 428 3337 486 
Q 3600 544 3809 666 
z
" transform="scale(0.015625)"/>
      <path id="DejaVuSans-67" d="M 2906 1791 
Q 2906 2416 2648 2759 
Q 2391 3103 1925 3103 
Q 1463 3103 1205 2759 
Q 947 2416 947 1791 
Q 947 1169 1205 825 
Q 1463 481 1925 481 
Q 2391 481 2648 825 
Q 2906 1169 2906 1791 
z
M 3481 434 
Q 3481 -459 3084 -895 
Q 2688 -1331 1869 -1331 
Q 1566 -1331 1297 -1286 
Q 1028 -1241 775 -1147 
L 775 -588 
Q 1028 -725 1275 -790 
Q 1522 -856 1778 -856 
Q 2344 -856 2625 -561 
Q 2906 -266 2906 331 
L 2906 616 
Q 2728 306 2450 153 
Q 2172 0 1784 0 
Q 1141 0 747 490 
Q 353 981 353 1791 
Q 353 2603 747 3093 
Q 1141 3584 1784 3584 
Q 2172 3584 2450 3431 
Q 2728 3278 2906 2969 
L 2906 3500 
L 3481 3500 
L 3481 434 
z
" transform="scale(0.015625)"/>
     </defs>
     <use xlink:href="#DejaVuSans-44"/>
     <use xlink:href="#DejaVuSans-69" x="77.001953"/>
     <use xlink:href="#DejaVuSans-73" x="104.785156"/>
     <use xlink:href="#DejaVuSans-70" x="156.884766"/>
     <use xlink:href="#DejaVuSans-6c" x="220.361328"/>
     <use xlink:href="#DejaVuSans-61" x="248.144531"/>
     <use xlink:href="#DejaVuSans-63" x="309.423828"/>
     <use xlink:href="#DejaVuSans-65" x="364.404297"/>
     <use xlink:href="#DejaVuSans-6d" x="425.927734"/>
     <use xlink:href="#DejaVuSans-65" x="523.339844"/>
     <use xlink:href="#DejaVuSans-6e" x="584.863281"/>
     <use xlink:href="#DejaVuSans-74" x="648.242188"/>
     <use xlink:href="#DejaVuSans-20" x="687.451172"/>
     <use xlink:href="#DejaVuSans-53" x="719.238281"/>
     <use xlink:href="#DejaVuSans-70" x="782.714844"/>
     <use xlink:href="#DejaVuSans-65" x="846.191406"/>
     <use xlink:href="#DejaVuSans-63" x="907.714844"/>
     <use xlink:href="#DejaVuSans-74" x="962.695312"/>
     <use xlink:href="#DejaVuSans-72" x="1001.904297"/>
     <use xlink:href="#DejaVuSans-61" x="1043.017578"/>
     <use xlink:href="#DejaVuSans-20" x="1104.296875"/>
     <use xlink:href="#DejaVuSans-6f" x="1136.083984"/>
     <use xlink:href="#DejaVuSans-66" x="1197.265625"/>
     <use xlink:href="#DejaVuSans-20" x="1232.470703"/>
     <use xlink:href="#DejaVuSans-47" x="1264.257812"/>
     <use xlink:href="#DejaVuSans-65" x="1341.748047"/>
     <use xlink:href="#DejaVuSans-6f" x="1403.271484"/>
     <use xlink:href="#DejaVuSans-72" x="1464.453125"/>
     <use xlink:href="#DejaVuSans-67" x="1503.816406"/>
     <use xlink:href="#DejaVuSans-69" x="1567.292969"/>
     <use xlink:href="#DejaVuSans-61" x="1595.076172"/>
    </g>
   </g>
   <g id="legend_1">
    <g id="patch_7">
     <path d="M 86.52 98.3925 
L 209.837187 98.3925 
Q 211.837187 98.3925 211.837187 96.3925 
L 211.837187 53.08 
Q 211.837187 51.08 209.837187 51.08 
L 86.52 51.08 
Q 84.52 51.08 84.52 53.08 
L 84.52 96.3925 
Q 84.52 98.3925 86.52 98.3925 
z
" style="fill: #ffffff; opacity: 0.8; stroke: #cccccc; stroke-linejoin: miter"/>
    </g>
    <g id="line2d_28">
     <path d="M 88.52 59.178437 
L 98.52 59.178437 
L 108.52 59.178437 
" style="fill: none; stroke: #1f77b4; stroke-width: 1.5; stroke-linecap: square"/>
    </g>
    <g id="text_16">
     <!-- Eurocode8 -->
     <g transform="translate(116.52 62.678437) scale(0.1 -0.1)">
      <defs>
       <path id="DejaVuSans-45" d="M 628 4666 
L 3578 4666 
L 3578 4134 
L 1259 4134 
L 1259 2753 
L 3481 2753 
L 3481 2222 
L 1259 2222 
L 1259 531 
L 3634 531 
L 3634 0 
L 628 0 
L 628 4666 
z
" transform="scale(0.015625)"/>
       <path id="DejaVuSans-75" d="M 544 1381 
L 544 3500 
L 1119 3500 
L 1119 1403 
Q 1119 906 1312 657 
Q 1506 409 1894 409 
Q 2359 409 2629 706 
Q 2900 1003 2900 1516 
L 2900 3500 
L 3475 3500 
L 3475 0 
L 2900 0 
L 2900 538 
Q 2691 219 2414 64 
Q 2138 -91 1772 -91 
Q 1169 -91 856 284 
Q 544 659 544 1381 
z
M 1991 3584 
L 1991 3584 
z
" transform="scale(0.015625)"/>
      </defs>
      <use xlink:href="#DejaVuSans-45"/>
      <use xlink:href="#DejaVuSans-75" x="63.183594"/>
      <use xlink:href="#DejaVuSans-72" x="126.5625"/>
      <use xlink:href="#DejaVuSans-6f" x="165.425781"/>
      <use xlink:href="#DejaVuSans-63" x="226.607422"/>
      <use xlink:href="#DejaVuSans-6f" x="281.587891"/>
      <use xlink:href="#DejaVuSans-64" x="342.769531"/>
      <use xlink:href="#DejaVuSans-65" x="406.246094"/>
      <use xlink:href="#DejaVuSans-38" x="467.769531"/>
     </g>
    </g>
    <g id="line2d_29">
     <path d="M 88.52 73.856562 
L 98.52 73.856562 
L 108.52 73.856562 
" style="fill: none; stroke: #ff7f0e; stroke-width: 1.5; stroke-linecap: square"/>
    </g>
    <g id="text_17">
     <!-- Eurocode8_design -->
     <g transform="translate(116.52 77.356562) scale(0.1 -0.1)">
      <defs>
       <path id="DejaVuSans-5f" d="M 3263 -1063 
L 3263 -1509 
L -63 -1509 
L -63 -1063 
L 3263 -1063 
z
" transform="scale(0.015625)"/>
      </defs>
      <use xlink:href="#DejaVuSans-45"/>
      <use xlink:href="#DejaVuSans-75" x="63.183594"/>
      <use xlink:href="#DejaVuSans-72" x="126.5625"/>
      <use xlink:href="#DejaVuSans-6f" x="165.425781"/>
      <use xlink:href="#DejaVuSans-63" x="226.607422"/>
      <use xlink:href="#DejaVuSans-6f" x="281.587891"/>
      <use xlink:href="#DejaVuSans-64" x="342.769531"/>
      <use xlink:href="#DejaVuSans-65" x="406.246094"/>
      <use xlink:href="#DejaVuSans-38" x="467.769531"/>
      <use xlink:href="#DejaVuSans-5f" x="531.392578"/>
      <use xlink:href="#DejaVuSans-64" x="581.392578"/>
      <use xlink:href="#DejaVuSans-65" x="644.869141"/>
      <use xlink:href="#DejaVuSans-73" x="706.392578"/>
      <use xlink:href="#DejaVuSans-69" x="758.492188"/>
      <use xlink:href="#DejaVuSans-67" x="786.275391"/>
      <use xlink:href="#DejaVuSans-6e" x="849.751953"/>
     </g>
    </g>
    <g id="line2d_30">
     <path d="M 88.52 88.812812 
L 98.52 88.812812 
L 108.52 88.812812 
" style="fill: none; stroke: #2ca02c; stroke-width: 1.5; stroke-linecap: square"/>
    </g>
    <g id="text_18">
     <!-- asce -->
     <g transform="translate(116.52 92.312812) scale(0.1 -0.1)">
      <use xlink:href="#DejaVuSans-61"/>
      <use xlink:href="#DejaVuSans-73" x="61.279297"/>
      <use xlink:href="#DejaVuSans-63" x="113.378906"/>
      <use xlink:href="#DejaVuSans-65" x="168.359375"/>
     </g>
    </g>
   </g>
  </g>
  <g id="axes_2">
   <g id="patch_8">
    <path d="M 431.62 298.84 
L 691.555 298.84 
L 691.555 46.08 
L 431.62 46.08 
z
" style="fill: #ffffff"/>
   </g>
   <g id="matplotlib.axis_3">
    <g id="xtick_7">
     <g id="line2d_31">
      <path d="M 431.62 298.84 
L 431.62 46.08 
" clip-path="url(#p4e389eaacc)" style="fill: none; stroke: #b0b0b0; stroke-width: 0.8; stroke-linecap: square"/>
     </g>
     <g id="line2d_32">
      <g>
       <use xlink:href="#m4f13a070d8" x="431.62" y="298.84" style="stroke: #000000; stroke-width: 0.8"/>
      </g>
     </g>
     <g id="text_19">
      <!-- 0 -->
      <g transform="translate(428.43875 313.438438) scale(0.1 -0.1)">
       <use xlink:href="#DejaVuSans-30"/>
      </g>
     </g>
    </g>
    <g id="xtick_8">
     <g id="line2d_33">
      <path d="M 483.607 298.84 
L 483.607 46.08 
" clip-path="url(#p4e389eaacc)" style="fill: none; stroke: #b0b0b0; stroke-width: 0.8; stroke-linecap: square"/>
     </g>
     <g id="line2d_34">
      <g>
       <use xlink:href="#m4f13a070d8" x="483.607" y="298.84" style="stroke: #000000; stroke-width: 0.8"/>
      </g>
     </g>
     <g id="text_20">
      <!-- 2 -->
      <g transform="translate(480.42575 313.438438) scale(0.1 -0.1)">
       <use xlink:href="#DejaVuSans-32"/>
      </g>
     </g>
    </g>
    <g id="xtick_9">
     <g id="line2d_35">
      <path d="M 535.594 298.84 
L 535.594 46.08 
" clip-path="url(#p4e389eaacc)" style="fill: none; stroke: #b0b0b0; stroke-width: 0.8; stroke-linecap: square"/>
     </g>
     <g id="line2d_36">
      <g>
       <use xlink:href="#m4f13a070d8" x="535.594" y="298.84" style="stroke: #000000; stroke-width: 0.8"/>
      </g>
     </g>
     <g id="text_21">
      <!-- 4 -->
      <g transform="translate(532.41275 313.438438) scale(0.1 -0.1)">
       <use xlink:href="#DejaVuSans-34"/>
      </g>
     </g>
    </g>
    <g id="xtick_10">
     <g id="line2d_37">
      <path d="M 587.581 298.84 
L 587.581 46.08 
" clip-path="url(#p4e389eaacc)" style="fill: none; stroke: #b0b0b0; stroke-width: 0.8; stroke-linecap: square"/>
     </g>
     <g id="line2d_38">
      <g>
       <use xlink:href="#m4f13a070d8" x="587.581" y="298.84" style="stroke: #000000; stroke-width: 0.8"/>
      </g>
     </g>
     <g id="text_22">
      <!-- 6 -->
      <g transform="translate(584.39975 313.438438) scale(0.1 -0.1)">
       <use xlink:href="#DejaVuSans-36"/>
      </g>
     </g>
    </g>
    <g id="xtick_11">
     <g id="line2d_39">
      <path d="M 639.568 298.84 
L 639.568 46.08 
" clip-path="url(#p4e389eaacc)" style="fill: none; stroke: #b0b0b0; stroke-width: 0.8; stroke-linecap: square"/>
     </g>
     <g id="line2d_40">
      <g>
       <use xlink:href="#m4f13a070d8" x="639.568" y="298.84" style="stroke: #000000; stroke-width: 0.8"/>
      </g>
     </g>
     <g id="text_23">
      <!-- 8 -->
      <g transform="translate(636.38675 313.438438) scale(0.1 -0.1)">
       <use xlink:href="#DejaVuSans-38"/>
      </g>
     </g>
    </g>
    <g id="xtick_12">
     <g id="line2d_41">
      <path d="M 691.555 298.84 
L 691.555 46.08 
" clip-path="url(#p4e389eaacc)" style="fill: none; stroke: #b0b0b0; stroke-width: 0.8; stroke-linecap: square"/>
     </g>
     <g id="line2d_42">
      <g>
       <use xlink:href="#m4f13a070d8" x="691.555" y="298.84" style="stroke: #000000; stroke-width: 0.8"/>
      </g>
     </g>
     <g id="text_24">
      <!-- 10 -->
      <g transform="translate(685.1925 313.438438) scale(0.1 -0.1)">
       <use xlink:href="#DejaVuSans-31"/>
       <use xlink:href="#DejaVuSans-30" x="63.623047"/>
      </g>
     </g>
    </g>
    <g id="text_25">
     <!-- T [s] -->
     <g transform="translate(550.438281 327.116562) scale(0.1 -0.1)">
      <use xlink:href="#DejaVuSans-54"/>
      <use xlink:href="#DejaVuSans-20" x="61.083984"/>
      <use xlink:href="#DejaVuSans-5b" x="92.871094"/>
      <use xlink:href="#DejaVuSans-73" x="131.884766"/>
      <use xlink:href="#DejaVuSans-5d" x="183.984375"/>
     </g>
    </g>
   </g>
   <g id="matplotlib.axis_4">
    <g id="ytick_7">
     <g id="line2d_43">
      <path d="M 431.62 290.865985 
L 691.555 290.865985 
" clip-path="url(#p4e389eaacc)" style="fill: none; stroke: #b0b0b0; stroke-width: 0.8; stroke-linecap: square"/>
     </g>
     <g id="line2d_44">
      <g>
       <use xlink:href="#m36830b83b1" x="431.62" y="290.865985" style="stroke: #000000; stroke-width: 0.8"/>
      </g>
     </g>
     <g id="text_26">
      <!-- 0.0000 -->
      <g transform="translate(389.629375 294.665204) scale(0.1 -0.1)">
       <use xlink:href="#DejaVuSans-30"/>
       <use xlink:href="#DejaVuSans-2e" x="63.623047"/>
       <use xlink:href="#DejaVuSans-30" x="95.410156"/>
       <use xlink:href="#DejaVuSans-30" x="159.033203"/>
       <use xlink:href="#DejaVuSans-30" x="222.65625"/>
       <use xlink:href="#DejaVuSans-30" x="286.279297"/>
      </g>
     </g>
    </g>
    <g id="ytick_8">
     <g id="line2d_45">
      <path d="M 431.62 258.146172 
L 691.555 258.146172 
" clip-path="url(#p4e389eaacc)" style="fill: none; stroke: #b0b0b0; stroke-width: 0.8; stroke-linecap: square"/>
     </g>
     <g id="line2d_46">
      <g>
       <use xlink:href="#m36830b83b1" x="431.62" y="258.146172" style="stroke: #000000; stroke-width: 0.8"/>
      </g>
     </g>
     <g id="text_27">
      <!-- 0.0025 -->
      <g transform="translate(389.629375 261.945391) scale(0.1 -0.1)">
       <use xlink:href="#DejaVuSans-30"/>
       <use xlink:href="#DejaVuSans-2e" x="63.623047"/>
       <use xlink:href="#DejaVuSans-30" x="95.410156"/>
       <use xlink:href="#DejaVuSans-30" x="159.033203"/>
       <use xlink:href="#DejaVuSans-32" x="222.65625"/>
       <use xlink:href="#DejaVuSans-35" x="286.279297"/>
      </g>
     </g>
    </g>
    <g id="ytick_9">
     <g id="line2d_47">
      <path d="M 431.62 225.426359 
L 691.555 225.426359 
" clip-path="url(#p4e389eaacc)" style="fill: none; stroke: #b0b0b0; stroke-width: 0.8; stroke-linecap: square"/>
     </g>
     <g id="line2d_48">
      <g>
       <use xlink:href="#m36830b83b1" x="431.62" y="225.426359" style="stroke: #000000; stroke-width: 0.8"/>
      </g>
     </g>
     <g id="text_28">
      <!-- 0.0050 -->
      <g transform="translate(389.629375 229.225578) scale(0.1 -0.1)">
       <use xlink:href="#DejaVuSans-30"/>
       <use xlink:href="#DejaVuSans-2e" x="63.623047"/>
       <use xlink:href="#DejaVuSans-30" x="95.410156"/>
       <use xlink:href="#DejaVuSans-30" x="159.033203"/>
       <use xlink:href="#DejaVuSans-35" x="222.65625"/>
       <use xlink:href="#DejaVuSans-30" x="286.279297"/>
      </g>
     </g>
    </g>
    <g id="ytick_10">
     <g id="line2d_49">
      <path d="M 431.62 192.706546 
L 691.555 192.706546 
" clip-path="url(#p4e389eaacc)" style="fill: none; stroke: #b0b0b0; stroke-width: 0.8; stroke-linecap: square"/>
     </g>
     <g id="line2d_50">
      <g>
       <use xlink:href="#m36830b83b1" x="431.62" y="192.706546" style="stroke: #000000; stroke-width: 0.8"/>
      </g>
     </g>
     <g id="text_29">
      <!-- 0.0075 -->
      <g transform="translate(389.629375 196.505765) scale(0.1 -0.1)">
       <defs>
        <path id="DejaVuSans-37" d="M 525 4666 
L 3525 4666 
L 3525 4397 
L 1831 0 
L 1172 0 
L 2766 4134 
L 525 4134 
L 525 4666 
z
" transform="scale(0.015625)"/>
       </defs>
       <use xlink:href="#DejaVuSans-30"/>
       <use xlink:href="#DejaVuSans-2e" x="63.623047"/>
       <use xlink:href="#DejaVuSans-30" x="95.410156"/>
       <use xlink:href="#DejaVuSans-30" x="159.033203"/>
       <use xlink:href="#DejaVuSans-37" x="222.65625"/>
       <use xlink:href="#DejaVuSans-35" x="286.279297"/>
      </g>
     </g>
    </g>
    <g id="ytick_11">
     <g id="line2d_51">
      <path d="M 431.62 159.986733 
L 691.555 159.986733 
" clip-path="url(#p4e389eaacc)" style="fill: none; stroke: #b0b0b0; stroke-width: 0.8; stroke-linecap: square"/>
     </g>
     <g id="line2d_52">
      <g>
       <use xlink:href="#m36830b83b1" x="431.62" y="159.986733" style="stroke: #000000; stroke-width: 0.8"/>
      </g>
     </g>
     <g id="text_30">
      <!-- 0.0100 -->
      <g transform="translate(389.629375 163.785952) scale(0.1 -0.1)">
       <use xlink:href="#DejaVuSans-30"/>
       <use xlink:href="#DejaVuSans-2e" x="63.623047"/>
       <use xlink:href="#DejaVuSans-30" x="95.410156"/>
       <use xlink:href="#DejaVuSans-31" x="159.033203"/>
       <use xlink:href="#DejaVuSans-30" x="222.65625"/>
       <use xlink:href="#DejaVuSans-30" x="286.279297"/>
      </g>
     </g>
    </g>
    <g id="ytick_12">
     <g id="line2d_53">
      <path d="M 431.62 127.266921 
L 691.555 127.266921 
" clip-path="url(#p4e389eaacc)" style="fill: none; stroke: #b0b0b0; stroke-width: 0.8; stroke-linecap: square"/>
     </g>
     <g id="line2d_54">
      <g>
       <use xlink:href="#m36830b83b1" x="431.62" y="127.266921" style="stroke: #000000; stroke-width: 0.8"/>
      </g>
     </g>
     <g id="text_31">
      <!-- 0.0125 -->
      <g transform="translate(389.629375 131.066139) scale(0.1 -0.1)">
       <use xlink:href="#DejaVuSans-30"/>
       <use xlink:href="#DejaVuSans-2e" x="63.623047"/>
       <use xlink:href="#DejaVuSans-30" x="95.410156"/>
       <use xlink:href="#DejaVuSans-31" x="159.033203"/>
       <use xlink:href="#DejaVuSans-32" x="222.65625"/>
       <use xlink:href="#DejaVuSans-35" x="286.279297"/>
      </g>
     </g>
    </g>
    <g id="ytick_13">
     <g id="line2d_55">
      <path d="M 431.62 94.547108 
L 691.555 94.547108 
" clip-path="url(#p4e389eaacc)" style="fill: none; stroke: #b0b0b0; stroke-width: 0.8; stroke-linecap: square"/>
     </g>
     <g id="line2d_56">
      <g>
       <use xlink:href="#m36830b83b1" x="431.62" y="94.547108" style="stroke: #000000; stroke-width: 0.8"/>
      </g>
     </g>
     <g id="text_32">
      <!-- 0.0150 -->
      <g transform="translate(389.629375 98.346326) scale(0.1 -0.1)">
       <use xlink:href="#DejaVuSans-30"/>
       <use xlink:href="#DejaVuSans-2e" x="63.623047"/>
       <use xlink:href="#DejaVuSans-30" x="95.410156"/>
       <use xlink:href="#DejaVuSans-31" x="159.033203"/>
       <use xlink:href="#DejaVuSans-35" x="222.65625"/>
       <use xlink:href="#DejaVuSans-30" x="286.279297"/>
      </g>
     </g>
    </g>
    <g id="ytick_14">
     <g id="line2d_57">
      <path d="M 431.62 61.827295 
L 691.555 61.827295 
" clip-path="url(#p4e389eaacc)" style="fill: none; stroke: #b0b0b0; stroke-width: 0.8; stroke-linecap: square"/>
     </g>
     <g id="line2d_58">
      <g>
       <use xlink:href="#m36830b83b1" x="431.62" y="61.827295" style="stroke: #000000; stroke-width: 0.8"/>
      </g>
     </g>
     <g id="text_33">
      <!-- 0.0175 -->
      <g transform="translate(389.629375 65.626514) scale(0.1 -0.1)">
       <use xlink:href="#DejaVuSans-30"/>
       <use xlink:href="#DejaVuSans-2e" x="63.623047"/>
       <use xlink:href="#DejaVuSans-30" x="95.410156"/>
       <use xlink:href="#DejaVuSans-31" x="159.033203"/>
       <use xlink:href="#DejaVuSans-37" x="222.65625"/>
       <use xlink:href="#DejaVuSans-35" x="286.279297"/>
      </g>
     </g>
    </g>
    <g id="text_34">
     <!-- 5%-damped SV [m/s] -->
     <g transform="translate(383.549688 225.563125) rotate(-90) scale(0.1 -0.1)">
      <defs>
       <path id="DejaVuSans-56" d="M 1831 0 
L 50 4666 
L 709 4666 
L 2188 738 
L 3669 4666 
L 4325 4666 
L 2547 0 
L 1831 0 
z
" transform="scale(0.015625)"/>
       <path id="DejaVuSans-2f" d="M 1625 4666 
L 2156 4666 
L 531 -594 
L 0 -594 
L 1625 4666 
z
" transform="scale(0.015625)"/>
      </defs>
      <use xlink:href="#DejaVuSans-35"/>
      <use xlink:href="#DejaVuSans-25" x="63.623047"/>
      <use xlink:href="#DejaVuSans-2d" x="158.642578"/>
      <use xlink:href="#DejaVuSans-64" x="194.726562"/>
      <use xlink:href="#DejaVuSans-61" x="258.203125"/>
      <use xlink:href="#DejaVuSans-6d" x="319.482422"/>
      <use xlink:href="#DejaVuSans-70" x="416.894531"/>
      <use xlink:href="#DejaVuSans-65" x="480.371094"/>
      <use xlink:href="#DejaVuSans-64" x="541.894531"/>
      <use xlink:href="#DejaVuSans-20" x="605.371094"/>
      <use xlink:href="#DejaVuSans-53" x="637.158203"/>
      <use xlink:href="#DejaVuSans-56" x="700.634766"/>
      <use xlink:href="#DejaVuSans-20" x="769.042969"/>
      <use xlink:href="#DejaVuSans-5b" x="800.830078"/>
      <use xlink:href="#DejaVuSans-6d" x="839.84375"/>
      <use xlink:href="#DejaVuSans-2f" x="937.255859"/>
      <use xlink:href="#DejaVuSans-73" x="970.947266"/>
      <use xlink:href="#DejaVuSans-5d" x="1023.046875"/>
     </g>
    </g>
   </g>
   <g id="line2d_59">
    <path d="M 434.21935 243.998305 
L 437.696859 181.29695 
L 441.174368 173.696786 
L 444.651876 173.696786 
L 448.129385 173.696786 
L 451.606894 173.696786 
L 455.084403 173.696786 
L 458.561911 173.696786 
L 462.03942 173.696786 
L 465.516929 183.046038 
L 468.994438 193.078157 
L 472.471947 201.402315 
L 475.949455 208.420463 
L 479.426964 214.417602 
L 482.904473 219.601431 
L 486.381982 224.12689 
L 489.859491 228.111915 
L 493.336999 231.647858 
L 496.814508 234.806584 
L 500.292017 237.645397 
L 503.769526 240.210557 
L 507.247034 242.539813 
L 510.724543 244.664276 
L 514.202052 246.609818 
L 517.679561 248.398128 
L 521.15707 250.047527 
L 524.634578 251.573595 
L 528.112087 252.989666 
L 531.589596 254.307219 
L 535.067105 255.536189 
L 538.544614 256.68522 
L 542.022122 257.761865 
L 545.499631 258.772756 
L 548.97714 259.723738 
L 552.454649 260.619983 
L 555.932157 261.466084 
L 559.409666 262.266137 
L 562.887175 263.023799 
L 566.364684 263.742354 
L 569.842193 264.424753 
L 573.319701 265.073658 
L 576.79721 265.691475 
L 580.274719 266.280388 
L 583.752228 266.842376 
L 587.229736 267.379247 
L 590.707245 267.892647 
L 594.184754 268.384082 
L 597.662263 268.854932 
L 601.139772 269.306464 
L 604.61728 269.739843 
L 608.094789 270.156143 
L 611.572298 270.556352 
L 615.049807 270.941387 
L 618.527316 271.312095 
L 622.004824 271.66926 
L 625.482333 272.013612 
L 628.959842 272.345827 
L 632.437351 272.666536 
L 635.914859 272.976327 
L 639.392368 273.275749 
L 642.869877 273.565312 
L 646.347386 273.845496 
L 649.824895 274.11675 
L 653.302403 274.379493 
L 656.779912 274.634121 
L 660.257421 274.881003 
L 663.73493 275.120487 
L 667.212439 275.352902 
L 670.689947 275.578555 
L 674.167456 275.797738 
L 677.644965 276.010724 
L 681.122474 276.217773 
L 684.599982 276.41913 
L 688.077491 276.615026 
L 691.555 276.805681 
" clip-path="url(#p4e389eaacc)" style="fill: none; stroke: #1f77b4; stroke-width: 1.5; stroke-linecap: square"/>
   </g>
   <g id="line2d_60">
    <path d="M 434.21935 279.149065 
L 437.696859 263.473726 
L 441.174368 261.573685 
L 444.651876 261.573685 
L 448.129385 261.573685 
L 451.606894 261.573685 
L 455.084403 261.573685 
L 458.561911 261.573685 
L 462.03942 261.573685 
L 465.516929 263.910998 
L 468.994438 266.419028 
L 472.471947 268.500067 
L 475.949455 270.254605 
L 479.426964 271.753889 
L 482.904473 273.049847 
L 486.381982 274.181211 
L 489.859491 275.177467 
L 493.336999 276.061453 
L 496.814508 276.851135 
L 500.292017 277.560838 
L 503.769526 278.202128 
L 507.247034 278.784442 
L 510.724543 279.315558 
L 514.202052 279.801943 
L 517.679561 280.249021 
L 521.15707 280.661371 
L 524.634578 281.042888 
L 528.112087 281.396905 
L 531.589596 281.726293 
L 535.067105 282.033536 
L 538.544614 282.320794 
L 542.022122 282.589955 
L 545.499631 282.842678 
L 548.97714 283.080423 
L 552.454649 283.304484 
L 555.932157 283.51601 
L 559.409666 283.716023 
L 562.887175 283.905439 
L 566.364684 284.085077 
L 569.842193 284.255677 
L 573.319701 284.417903 
L 576.79721 284.572358 
L 580.274719 284.719586 
L 583.752228 284.860083 
L 587.229736 284.994301 
L 590.707245 285.122651 
L 594.184754 285.245509 
L 597.662263 285.363222 
L 601.139772 285.476105 
L 604.61728 285.58445 
L 608.094789 285.688524 
L 611.572298 285.788577 
L 615.049807 285.884836 
L 618.527316 285.977513 
L 622.004824 286.066804 
L 625.482333 286.152892 
L 628.959842 286.235946 
L 632.437351 286.316123 
L 635.914859 286.393571 
L 639.392368 286.468426 
L 642.869877 286.540817 
L 646.347386 286.610863 
L 649.824895 286.678676 
L 653.302403 286.744362 
L 656.779912 286.808019 
L 660.257421 286.86974 
L 663.73493 286.929611 
L 667.212439 286.987714 
L 670.689947 287.044128 
L 674.167456 287.098923 
L 677.644965 287.15217 
L 681.122474 287.203932 
L 684.599982 287.254271 
L 688.077491 287.303245 
L 691.555 287.350909 
" clip-path="url(#p4e389eaacc)" style="fill: none; stroke: #ff7f0e; stroke-width: 1.5; stroke-linecap: square"/>
   </g>
   <g id="line2d_61">
    <path d="M 434.21935 230.042152 
L 437.696859 148.669727 
L 441.174368 67.297301 
L 444.651876 57.569091 
L 448.129385 57.569091 
L 451.606894 57.569091 
L 455.084403 57.569091 
L 458.561911 57.569091 
L 462.03942 57.569091 
L 465.516929 57.569091 
L 468.994438 57.569091 
L 472.471947 57.569091 
L 475.949455 57.569091 
L 479.426964 57.569091 
L 482.904473 57.569091 
L 486.381982 57.569091 
L 489.859491 57.569091 
L 493.336999 57.569091 
L 496.814508 57.569091 
L 500.292017 57.569091 
L 503.769526 57.569091 
L 507.247034 57.569091 
L 510.724543 57.569091 
L 514.202052 57.569091 
L 517.679561 57.569091 
L 521.15707 57.569091 
L 524.634578 57.569091 
L 528.112087 57.569091 
L 531.589596 57.569091 
L 535.067105 57.569091 
L 538.544614 57.569091 
L 542.022122 57.569091 
L 545.499631 57.569091 
L 548.97714 57.569091 
L 552.454649 57.569091 
L 555.932157 57.569091 
L 559.409666 57.569091 
L 562.887175 57.569091 
L 566.364684 57.569091 
L 569.842193 57.569091 
L 573.319701 57.569091 
L 576.79721 57.569091 
L 580.274719 57.569091 
L 583.752228 57.569091 
L 587.229736 57.569091 
L 590.707245 57.569091 
L 594.184754 57.569091 
L 597.662263 57.569091 
L 601.139772 57.569091 
L 604.61728 57.569091 
L 608.094789 57.569091 
L 611.572298 57.569091 
L 615.049807 57.569091 
L 618.527316 57.569091 
L 622.004824 57.569091 
L 625.482333 57.569091 
L 628.959842 57.569091 
L 632.437351 57.569091 
L 635.914859 57.569091 
L 639.392368 57.569091 
L 642.869877 57.569091 
L 646.347386 57.569091 
L 649.824895 57.569091 
L 653.302403 57.569091 
L 656.779912 57.569091 
L 660.257421 57.569091 
L 663.73493 57.569091 
L 667.212439 57.569091 
L 670.689947 57.569091 
L 674.167456 57.569091 
L 677.644965 57.569091 
L 681.122474 57.569091 
L 684.599982 57.569091 
L 688.077491 57.569091 
L 691.555 57.569091 
" clip-path="url(#p4e389eaacc)" style="fill: none; stroke: #2ca02c; stroke-width: 1.5; stroke-linecap: square"/>
   </g>
   <g id="patch_9">
    <path d="M 431.62 298.84 
L 431.62 46.08 
" style="fill: none; stroke: #000000; stroke-width: 0.8; stroke-linejoin: miter; stroke-linecap: square"/>
   </g>
   <g id="patch_10">
    <path d="M 691.555 298.84 
L 691.555 46.08 
" style="fill: none; stroke: #000000; stroke-width: 0.8; stroke-linejoin: miter; stroke-linecap: square"/>
   </g>
   <g id="patch_11">
    <path d="M 431.62 298.84 
L 691.555 298.84 
" style="fill: none; stroke: #000000; stroke-width: 0.8; stroke-linejoin: miter; stroke-linecap: square"/>
   </g>
   <g id="patch_12">
    <path d="M 431.62 46.08 
L 691.555 46.08 
" style="fill: none; stroke: #000000; stroke-width: 0.8; stroke-linejoin: miter; stroke-linecap: square"/>
   </g>
   <g id="text_35">
    <!-- Velocity Spectra of Georgia -->
    <g transform="translate(479.913438 40.08) scale(0.12 -0.12)">
     <defs>
      <path id="DejaVuSans-79" d="M 2059 -325 
Q 1816 -950 1584 -1140 
Q 1353 -1331 966 -1331 
L 506 -1331 
L 506 -850 
L 844 -850 
Q 1081 -850 1212 -737 
Q 1344 -625 1503 -206 
L 1606 56 
L 191 3500 
L 800 3500 
L 1894 763 
L 2988 3500 
L 3597 3500 
L 2059 -325 
z
" transform="scale(0.015625)"/>
     </defs>
     <use xlink:href="#DejaVuSans-56"/>
     <use xlink:href="#DejaVuSans-65" x="60.658203"/>
     <use xlink:href="#DejaVuSans-6c" x="122.181641"/>
     <use xlink:href="#DejaVuSans-6f" x="149.964844"/>
     <use xlink:href="#DejaVuSans-63" x="211.146484"/>
     <use xlink:href="#DejaVuSans-69" x="266.126953"/>
     <use xlink:href="#DejaVuSans-74" x="293.910156"/>
     <use xlink:href="#DejaVuSans-79" x="333.119141"/>
     <use xlink:href="#DejaVuSans-20" x="392.298828"/>
     <use xlink:href="#DejaVuSans-53" x="424.085938"/>
     <use xlink:href="#DejaVuSans-70" x="487.5625"/>
     <use xlink:href="#DejaVuSans-65" x="551.039062"/>
     <use xlink:href="#DejaVuSans-63" x="612.5625"/>
     <use xlink:href="#DejaVuSans-74" x="667.542969"/>
     <use xlink:href="#DejaVuSans-72" x="706.751953"/>
     <use xlink:href="#DejaVuSans-61" x="747.865234"/>
     <use xlink:href="#DejaVuSans-20" x="809.144531"/>
     <use xlink:href="#DejaVuSans-6f" x="840.931641"/>
     <use xlink:href="#DejaVuSans-66" x="902.113281"/>
     <use xlink:href="#DejaVuSans-20" x="937.318359"/>
     <use xlink:href="#DejaVuSans-47" x="969.105469"/>
     <use xlink:href="#DejaVuSans-65" x="1046.595703"/>
     <use xlink:href="#DejaVuSans-6f" x="1108.119141"/>
     <use xlink:href="#DejaVuSans-72" x="1169.300781"/>
     <use xlink:href="#DejaVuSans-67" x="1208.664062"/>
     <use xlink:href="#DejaVuSans-69" x="1272.140625"/>
     <use xlink:href="#DejaVuSans-61" x="1299.923828"/>
    </g>
   </g>
   <g id="legend_2">
    <g id="patch_13">
     <path d="M 561.237813 196.11625 
L 684.555 196.11625 
Q 686.555 196.11625 686.555 194.11625 
L 686.555 150.80375 
Q 686.555 148.80375 684.555 148.80375 
L 561.237813 148.80375 
Q 559.237813 148.80375 559.237813 150.80375 
L 559.237813 194.11625 
Q 559.237813 196.11625 561.237813 196.11625 
z
" style="fill: #ffffff; opacity: 0.8; stroke: #cccccc; stroke-linejoin: miter"/>
    </g>
    <g id="line2d_62">
     <path d="M 563.237813 156.902187 
L 573.237813 156.902187 
L 583.237813 156.902187 
" style="fill: none; stroke: #1f77b4; stroke-width: 1.5; stroke-linecap: square"/>
    </g>
    <g id="text_36">
     <!-- Eurocode8 -->
     <g transform="translate(591.237813 160.402187) scale(0.1 -0.1)">
      <use xlink:href="#DejaVuSans-45"/>
      <use xlink:href="#DejaVuSans-75" x="63.183594"/>
      <use xlink:href="#DejaVuSans-72" x="126.5625"/>
      <use xlink:href="#DejaVuSans-6f" x="165.425781"/>
      <use xlink:href="#DejaVuSans-63" x="226.607422"/>
      <use xlink:href="#DejaVuSans-6f" x="281.587891"/>
      <use xlink:href="#DejaVuSans-64" x="342.769531"/>
      <use xlink:href="#DejaVuSans-65" x="406.246094"/>
      <use xlink:href="#DejaVuSans-38" x="467.769531"/>
     </g>
    </g>
    <g id="line2d_63">
     <path d="M 563.237813 171.580312 
L 573.237813 171.580312 
L 583.237813 171.580312 
" style="fill: none; stroke: #ff7f0e; stroke-width: 1.5; stroke-linecap: square"/>
    </g>
    <g id="text_37">
     <!-- Eurocode8_design -->
     <g transform="translate(591.237813 175.080312) scale(0.1 -0.1)">
      <use xlink:href="#DejaVuSans-45"/>
      <use xlink:href="#DejaVuSans-75" x="63.183594"/>
      <use xlink:href="#DejaVuSans-72" x="126.5625"/>
      <use xlink:href="#DejaVuSans-6f" x="165.425781"/>
      <use xlink:href="#DejaVuSans-63" x="226.607422"/>
      <use xlink:href="#DejaVuSans-6f" x="281.587891"/>
      <use xlink:href="#DejaVuSans-64" x="342.769531"/>
      <use xlink:href="#DejaVuSans-65" x="406.246094"/>
      <use xlink:href="#DejaVuSans-38" x="467.769531"/>
      <use xlink:href="#DejaVuSans-5f" x="531.392578"/>
      <use xlink:href="#DejaVuSans-64" x="581.392578"/>
      <use xlink:href="#DejaVuSans-65" x="644.869141"/>
      <use xlink:href="#DejaVuSans-73" x="706.392578"/>
      <use xlink:href="#DejaVuSans-69" x="758.492188"/>
      <use xlink:href="#DejaVuSans-67" x="786.275391"/>
      <use xlink:href="#DejaVuSans-6e" x="849.751953"/>
     </g>
    </g>
    <g id="line2d_64">
     <path d="M 563.237813 186.536562 
L 573.237813 186.536562 
L 583.237813 186.536562 
" style="fill: none; stroke: #2ca02c; stroke-width: 1.5; stroke-linecap: square"/>
    </g>
    <g id="text_38">
     <!-- asce -->
     <g transform="translate(591.237813 190.036562) scale(0.1 -0.1)">
      <use xlink:href="#DejaVuSans-61"/>
      <use xlink:href="#DejaVuSans-73" x="61.279297"/>
      <use xlink:href="#DejaVuSans-63" x="113.378906"/>
      <use xlink:href="#DejaVuSans-65" x="168.359375"/>
     </g>
    </g>
   </g>
  </g>
  <g id="axes_3">
   <g id="patch_14">
    <path d="M 783.72 298.84 
L 1043.655 298.84 
L 1043.655 46.08 
L 783.72 46.08 
z
" style="fill: #ffffff"/>
   </g>
   <g id="matplotlib.axis_5">
    <g id="xtick_13">
     <g id="line2d_65">
      <path d="M 783.72 298.84 
L 783.72 46.08 
" clip-path="url(#p97ac039a5c)" style="fill: none; stroke: #b0b0b0; stroke-width: 0.8; stroke-linecap: square"/>
     </g>
     <g id="line2d_66">
      <g>
       <use xlink:href="#m4f13a070d8" x="783.72" y="298.84" style="stroke: #000000; stroke-width: 0.8"/>
      </g>
     </g>
     <g id="text_39">
      <!-- 0 -->
      <g transform="translate(780.53875 313.438438) scale(0.1 -0.1)">
       <use xlink:href="#DejaVuSans-30"/>
      </g>
     </g>
    </g>
    <g id="xtick_14">
     <g id="line2d_67">
      <path d="M 835.707 298.84 
L 835.707 46.08 
" clip-path="url(#p97ac039a5c)" style="fill: none; stroke: #b0b0b0; stroke-width: 0.8; stroke-linecap: square"/>
     </g>
     <g id="line2d_68">
      <g>
       <use xlink:href="#m4f13a070d8" x="835.707" y="298.84" style="stroke: #000000; stroke-width: 0.8"/>
      </g>
     </g>
     <g id="text_40">
      <!-- 2 -->
      <g transform="translate(832.52575 313.438438) scale(0.1 -0.1)">
       <use xlink:href="#DejaVuSans-32"/>
      </g>
     </g>
    </g>
    <g id="xtick_15">
     <g id="line2d_69">
      <path d="M 887.694 298.84 
L 887.694 46.08 
" clip-path="url(#p97ac039a5c)" style="fill: none; stroke: #b0b0b0; stroke-width: 0.8; stroke-linecap: square"/>
     </g>
     <g id="line2d_70">
      <g>
       <use xlink:href="#m4f13a070d8" x="887.694" y="298.84" style="stroke: #000000; stroke-width: 0.8"/>
      </g>
     </g>
     <g id="text_41">
      <!-- 4 -->
      <g transform="translate(884.51275 313.438438) scale(0.1 -0.1)">
       <use xlink:href="#DejaVuSans-34"/>
      </g>
     </g>
    </g>
    <g id="xtick_16">
     <g id="line2d_71">
      <path d="M 939.681 298.84 
L 939.681 46.08 
" clip-path="url(#p97ac039a5c)" style="fill: none; stroke: #b0b0b0; stroke-width: 0.8; stroke-linecap: square"/>
     </g>
     <g id="line2d_72">
      <g>
       <use xlink:href="#m4f13a070d8" x="939.681" y="298.84" style="stroke: #000000; stroke-width: 0.8"/>
      </g>
     </g>
     <g id="text_42">
      <!-- 6 -->
      <g transform="translate(936.49975 313.438438) scale(0.1 -0.1)">
       <use xlink:href="#DejaVuSans-36"/>
      </g>
     </g>
    </g>
    <g id="xtick_17">
     <g id="line2d_73">
      <path d="M 991.668 298.84 
L 991.668 46.08 
" clip-path="url(#p97ac039a5c)" style="fill: none; stroke: #b0b0b0; stroke-width: 0.8; stroke-linecap: square"/>
     </g>
     <g id="line2d_74">
      <g>
       <use xlink:href="#m4f13a070d8" x="991.668" y="298.84" style="stroke: #000000; stroke-width: 0.8"/>
      </g>
     </g>
     <g id="text_43">
      <!-- 8 -->
      <g transform="translate(988.48675 313.438438) scale(0.1 -0.1)">
       <use xlink:href="#DejaVuSans-38"/>
      </g>
     </g>
    </g>
    <g id="xtick_18">
     <g id="line2d_75">
      <path d="M 1043.655 298.84 
L 1043.655 46.08 
" clip-path="url(#p97ac039a5c)" style="fill: none; stroke: #b0b0b0; stroke-width: 0.8; stroke-linecap: square"/>
     </g>
     <g id="line2d_76">
      <g>
       <use xlink:href="#m4f13a070d8" x="1043.655" y="298.84" style="stroke: #000000; stroke-width: 0.8"/>
      </g>
     </g>
     <g id="text_44">
      <!-- 10 -->
      <g transform="translate(1037.2925 313.438438) scale(0.1 -0.1)">
       <use xlink:href="#DejaVuSans-31"/>
       <use xlink:href="#DejaVuSans-30" x="63.623047"/>
      </g>
     </g>
    </g>
    <g id="text_45">
     <!-- T [s] -->
     <g transform="translate(902.538281 327.116562) scale(0.1 -0.1)">
      <use xlink:href="#DejaVuSans-54"/>
      <use xlink:href="#DejaVuSans-20" x="61.083984"/>
      <use xlink:href="#DejaVuSans-5b" x="92.871094"/>
      <use xlink:href="#DejaVuSans-73" x="131.884766"/>
      <use xlink:href="#DejaVuSans-5d" x="183.984375"/>
     </g>
    </g>
   </g>
   <g id="matplotlib.axis_6">
    <g id="ytick_15">
     <g id="line2d_77">
      <path d="M 783.72 287.483779 
L 1043.655 287.483779 
" clip-path="url(#p97ac039a5c)" style="fill: none; stroke: #b0b0b0; stroke-width: 0.8; stroke-linecap: square"/>
     </g>
     <g id="line2d_78">
      <g>
       <use xlink:href="#m36830b83b1" x="783.72" y="287.483779" style="stroke: #000000; stroke-width: 0.8"/>
      </g>
     </g>
     <g id="text_46">
      <!-- 0.00 -->
      <g transform="translate(754.454375 291.282998) scale(0.1 -0.1)">
       <use xlink:href="#DejaVuSans-30"/>
       <use xlink:href="#DejaVuSans-2e" x="63.623047"/>
       <use xlink:href="#DejaVuSans-30" x="95.410156"/>
       <use xlink:href="#DejaVuSans-30" x="159.033203"/>
      </g>
     </g>
    </g>
    <g id="ytick_16">
     <g id="line2d_79">
      <path d="M 783.72 248.114826 
L 1043.655 248.114826 
" clip-path="url(#p97ac039a5c)" style="fill: none; stroke: #b0b0b0; stroke-width: 0.8; stroke-linecap: square"/>
     </g>
     <g id="line2d_80">
      <g>
       <use xlink:href="#m36830b83b1" x="783.72" y="248.114826" style="stroke: #000000; stroke-width: 0.8"/>
      </g>
     </g>
     <g id="text_47">
      <!-- 0.05 -->
      <g transform="translate(754.454375 251.914045) scale(0.1 -0.1)">
       <use xlink:href="#DejaVuSans-30"/>
       <use xlink:href="#DejaVuSans-2e" x="63.623047"/>
       <use xlink:href="#DejaVuSans-30" x="95.410156"/>
       <use xlink:href="#DejaVuSans-35" x="159.033203"/>
      </g>
     </g>
    </g>
    <g id="ytick_17">
     <g id="line2d_81">
      <path d="M 783.72 208.745872 
L 1043.655 208.745872 
" clip-path="url(#p97ac039a5c)" style="fill: none; stroke: #b0b0b0; stroke-width: 0.8; stroke-linecap: square"/>
     </g>
     <g id="line2d_82">
      <g>
       <use xlink:href="#m36830b83b1" x="783.72" y="208.745872" style="stroke: #000000; stroke-width: 0.8"/>
      </g>
     </g>
     <g id="text_48">
      <!-- 0.10 -->
      <g transform="translate(754.454375 212.545091) scale(0.1 -0.1)">
       <use xlink:href="#DejaVuSans-30"/>
       <use xlink:href="#DejaVuSans-2e" x="63.623047"/>
       <use xlink:href="#DejaVuSans-31" x="95.410156"/>
       <use xlink:href="#DejaVuSans-30" x="159.033203"/>
      </g>
     </g>
    </g>
    <g id="ytick_18">
     <g id="line2d_83">
      <path d="M 783.72 169.376919 
L 1043.655 169.376919 
" clip-path="url(#p97ac039a5c)" style="fill: none; stroke: #b0b0b0; stroke-width: 0.8; stroke-linecap: square"/>
     </g>
     <g id="line2d_84">
      <g>
       <use xlink:href="#m36830b83b1" x="783.72" y="169.376919" style="stroke: #000000; stroke-width: 0.8"/>
      </g>
     </g>
     <g id="text_49">
      <!-- 0.15 -->
      <g transform="translate(754.454375 173.176138) scale(0.1 -0.1)">
       <use xlink:href="#DejaVuSans-30"/>
       <use xlink:href="#DejaVuSans-2e" x="63.623047"/>
       <use xlink:href="#DejaVuSans-31" x="95.410156"/>
       <use xlink:href="#DejaVuSans-35" x="159.033203"/>
      </g>
     </g>
    </g>
    <g id="ytick_19">
     <g id="line2d_85">
      <path d="M 783.72 130.007965 
L 1043.655 130.007965 
" clip-path="url(#p97ac039a5c)" style="fill: none; stroke: #b0b0b0; stroke-width: 0.8; stroke-linecap: square"/>
     </g>
     <g id="line2d_86">
      <g>
       <use xlink:href="#m36830b83b1" x="783.72" y="130.007965" style="stroke: #000000; stroke-width: 0.8"/>
      </g>
     </g>
     <g id="text_50">
      <!-- 0.20 -->
      <g transform="translate(754.454375 133.807184) scale(0.1 -0.1)">
       <use xlink:href="#DejaVuSans-30"/>
       <use xlink:href="#DejaVuSans-2e" x="63.623047"/>
       <use xlink:href="#DejaVuSans-32" x="95.410156"/>
       <use xlink:href="#DejaVuSans-30" x="159.033203"/>
      </g>
     </g>
    </g>
    <g id="ytick_20">
     <g id="line2d_87">
      <path d="M 783.72 90.639012 
L 1043.655 90.639012 
" clip-path="url(#p97ac039a5c)" style="fill: none; stroke: #b0b0b0; stroke-width: 0.8; stroke-linecap: square"/>
     </g>
     <g id="line2d_88">
      <g>
       <use xlink:href="#m36830b83b1" x="783.72" y="90.639012" style="stroke: #000000; stroke-width: 0.8"/>
      </g>
     </g>
     <g id="text_51">
      <!-- 0.25 -->
      <g transform="translate(754.454375 94.438231) scale(0.1 -0.1)">
       <use xlink:href="#DejaVuSans-30"/>
       <use xlink:href="#DejaVuSans-2e" x="63.623047"/>
       <use xlink:href="#DejaVuSans-32" x="95.410156"/>
       <use xlink:href="#DejaVuSans-35" x="159.033203"/>
      </g>
     </g>
    </g>
    <g id="ytick_21">
     <g id="line2d_89">
      <path d="M 783.72 51.270058 
L 1043.655 51.270058 
" clip-path="url(#p97ac039a5c)" style="fill: none; stroke: #b0b0b0; stroke-width: 0.8; stroke-linecap: square"/>
     </g>
     <g id="line2d_90">
      <g>
       <use xlink:href="#m36830b83b1" x="783.72" y="51.270058" style="stroke: #000000; stroke-width: 0.8"/>
      </g>
     </g>
     <g id="text_52">
      <!-- 0.30 -->
      <g transform="translate(754.454375 55.069277) scale(0.1 -0.1)">
       <defs>
        <path id="DejaVuSans-33" d="M 2597 2516 
Q 3050 2419 3304 2112 
Q 3559 1806 3559 1356 
Q 3559 666 3084 287 
Q 2609 -91 1734 -91 
Q 1441 -91 1130 -33 
Q 819 25 488 141 
L 488 750 
Q 750 597 1062 519 
Q 1375 441 1716 441 
Q 2309 441 2620 675 
Q 2931 909 2931 1356 
Q 2931 1769 2642 2001 
Q 2353 2234 1838 2234 
L 1294 2234 
L 1294 2753 
L 1863 2753 
Q 2328 2753 2575 2939 
Q 2822 3125 2822 3475 
Q 2822 3834 2567 4026 
Q 2313 4219 1838 4219 
Q 1578 4219 1281 4162 
Q 984 4106 628 3988 
L 628 4550 
Q 988 4650 1302 4700 
Q 1616 4750 1894 4750 
Q 2613 4750 3031 4423 
Q 3450 4097 3450 3541 
Q 3450 3153 3228 2886 
Q 3006 2619 2597 2516 
z
" transform="scale(0.015625)"/>
       </defs>
       <use xlink:href="#DejaVuSans-30"/>
       <use xlink:href="#DejaVuSans-2e" x="63.623047"/>
       <use xlink:href="#DejaVuSans-33" x="95.410156"/>
       <use xlink:href="#DejaVuSans-30" x="159.033203"/>
      </g>
     </g>
    </g>
    <g id="text_53">
     <!-- 5%-damped SA [m/s$^2$] -->
     <g transform="translate(748.354375 228.01) rotate(-90) scale(0.1 -0.1)">
      <defs>
       <path id="DejaVuSans-41" d="M 2188 4044 
L 1331 1722 
L 3047 1722 
L 2188 4044 
z
M 1831 4666 
L 2547 4666 
L 4325 0 
L 3669 0 
L 3244 1197 
L 1141 1197 
L 716 0 
L 50 0 
L 1831 4666 
z
" transform="scale(0.015625)"/>
      </defs>
      <use xlink:href="#DejaVuSans-35" transform="translate(0 0.765625)"/>
      <use xlink:href="#DejaVuSans-25" transform="translate(63.623047 0.765625)"/>
      <use xlink:href="#DejaVuSans-2d" transform="translate(158.642578 0.765625)"/>
      <use xlink:href="#DejaVuSans-64" transform="translate(194.726562 0.765625)"/>
      <use xlink:href="#DejaVuSans-61" transform="translate(258.203125 0.765625)"/>
      <use xlink:href="#DejaVuSans-6d" transform="translate(319.482422 0.765625)"/>
      <use xlink:href="#DejaVuSans-70" transform="translate(416.894531 0.765625)"/>
      <use xlink:href="#DejaVuSans-65" transform="translate(480.371094 0.765625)"/>
      <use xlink:href="#DejaVuSans-64" transform="translate(541.894531 0.765625)"/>
      <use xlink:href="#DejaVuSans-20" transform="translate(605.371094 0.765625)"/>
      <use xlink:href="#DejaVuSans-53" transform="translate(637.158203 0.765625)"/>
      <use xlink:href="#DejaVuSans-41" transform="translate(700.634766 0.765625)"/>
      <use xlink:href="#DejaVuSans-20" transform="translate(769.042969 0.765625)"/>
      <use xlink:href="#DejaVuSans-5b" transform="translate(800.830078 0.765625)"/>
      <use xlink:href="#DejaVuSans-6d" transform="translate(839.84375 0.765625)"/>
      <use xlink:href="#DejaVuSans-2f" transform="translate(937.255859 0.765625)"/>
      <use xlink:href="#DejaVuSans-73" transform="translate(970.947266 0.765625)"/>
      <use xlink:href="#DejaVuSans-32" transform="translate(1024.003906 39.046875) scale(0.7)"/>
      <use xlink:href="#DejaVuSans-5d" transform="translate(1071.274414 0.765625)"/>
     </g>
    </g>
   </g>
   <g id="line2d_91">
    <path d="M 786.31935 110.323489 
L 789.796859 110.323489 
L 793.274368 166.988729 
L 796.751876 199.142394 
L 800.229385 217.750473 
L 803.706894 229.883333 
L 807.184403 238.419926 
L 810.661911 244.75281 
L 814.13942 249.637759 
L 817.616929 256.230438 
L 821.094438 261.775807 
L 824.571947 265.966287 
L 828.049455 269.209832 
L 831.526964 271.771658 
L 835.004473 273.830236 
L 838.481982 275.509239 
L 841.959491 276.896557 
L 845.436999 278.05604 
L 848.914508 279.034977 
L 852.392017 279.868996 
L 855.869526 280.58535 
L 859.347034 281.205176 
L 862.824543 281.745069 
L 866.302052 282.218204 
L 869.779561 282.635151 
L 873.25707 283.004466 
L 876.734578 283.333139 
L 880.212087 283.62692 
L 883.689596 283.89058 
L 887.167105 284.1281 
L 890.644614 284.342824 
L 894.122122 284.537579 
L 897.599631 284.714766 
L 901.07714 284.876437 
L 904.554649 285.024351 
L 908.032157 285.160026 
L 911.509666 285.284777 
L 914.987175 285.399745 
L 918.464684 285.505927 
L 921.942193 285.604196 
L 925.419701 285.695319 
L 928.89721 285.779973 
L 932.374719 285.858755 
L 935.852228 285.932197 
L 939.329736 286.000771 
L 942.807245 286.064897 
L 946.284754 286.124952 
L 949.762263 286.181273 
L 953.239772 286.234164 
L 956.71728 286.283897 
L 960.194789 286.33072 
L 963.672298 286.374854 
L 967.149807 286.416502 
L 970.627316 286.455847 
L 974.104824 286.493056 
L 977.582333 286.52828 
L 981.059842 286.561659 
L 984.537351 286.593319 
L 988.014859 286.623376 
L 991.492368 286.651936 
L 994.969877 286.679097 
L 998.447386 286.70495 
L 1001.924895 286.729576 
L 1005.402403 286.753053 
L 1008.879912 286.77545 
L 1012.357421 286.796833 
L 1015.83493 286.817263 
L 1019.312439 286.836794 
L 1022.789947 286.855479 
L 1026.267456 286.873366 
L 1029.744965 286.890501 
L 1033.222474 286.906923 
L 1036.699982 286.922673 
L 1040.177491 286.937787 
L 1043.655 286.952298 
" clip-path="url(#p97ac039a5c)" style="fill: none; stroke: #1f77b4; stroke-width: 1.5; stroke-linecap: square"/>
   </g>
   <g id="line2d_92">
    <path d="M 786.31935 243.193707 
L 789.796859 243.193707 
L 793.274368 257.360017 
L 796.751876 265.398433 
L 800.229385 270.050453 
L 803.706894 273.083668 
L 807.184403 275.217816 
L 810.661911 276.801037 
L 814.13942 278.022274 
L 817.616929 279.670444 
L 821.094438 281.056786 
L 824.571947 282.104406 
L 828.049455 282.915292 
L 831.526964 283.555749 
L 835.004473 284.070394 
L 838.481982 284.490144 
L 841.959491 284.836974 
L 845.436999 285.126845 
L 848.914508 285.371579 
L 852.392017 285.580083 
L 855.869526 285.759172 
L 859.347034 285.914129 
L 862.824543 286.049102 
L 866.302052 286.167386 
L 869.779561 286.271622 
L 873.25707 286.363951 
L 876.734578 286.446119 
L 880.212087 286.519565 
L 883.689596 286.58548 
L 887.167105 286.644859 
L 890.644614 286.69854 
L 894.122122 286.747229 
L 897.599631 286.791526 
L 901.07714 286.831944 
L 904.554649 286.868922 
L 908.032157 286.902841 
L 911.509666 286.934029 
L 914.987175 286.962771 
L 918.464684 286.989316 
L 921.942193 287.013883 
L 925.419701 287.036664 
L 928.89721 287.057828 
L 932.374719 287.077523 
L 935.852228 287.095884 
L 939.329736 287.113027 
L 942.807245 287.129059 
L 946.284754 287.144072 
L 949.762263 287.158153 
L 953.239772 287.171375 
L 956.71728 287.183809 
L 960.194789 287.195514 
L 963.672298 287.206548 
L 967.149807 287.21696 
L 970.627316 287.226796 
L 974.104824 287.236098 
L 977.582333 287.244905 
L 981.059842 287.253249 
L 984.537351 287.261164 
L 988.014859 287.268678 
L 991.492368 287.275818 
L 994.969877 287.282609 
L 998.447386 287.289072 
L 1001.924895 287.295229 
L 1005.402403 287.301098 
L 1008.879912 287.306697 
L 1012.357421 287.312043 
L 1015.83493 287.31715 
L 1019.312439 287.322033 
L 1022.789947 287.326704 
L 1026.267456 287.331176 
L 1029.744965 287.33546 
L 1033.222474 287.339565 
L 1036.699982 287.343503 
L 1040.177491 287.347281 
L 1043.655 287.350909 
" clip-path="url(#p97ac039a5c)" style="fill: none; stroke: #ff7f0e; stroke-width: 1.5; stroke-linecap: square"/>
   </g>
   <g id="line2d_93">
    <path d="M 786.31935 57.569091 
L 789.796859 57.569091 
L 793.274368 57.569091 
L 796.751876 111.586266 
L 800.229385 148.637019 
L 803.706894 172.794891 
L 807.184403 189.792197 
L 810.661911 202.401671 
L 814.13942 212.128147 
L 817.616929 219.858932 
L 821.094438 226.151094 
L 824.571947 231.372019 
L 828.049455 235.773813 
L 831.526964 239.535229 
L 835.004473 242.786535 
L 838.481982 245.62491 
L 841.959491 248.124324 
L 845.436999 250.342073 
L 848.914508 252.323231 
L 852.392017 254.10374 
L 855.869526 255.712612 
L 859.347034 257.173525 
L 862.824543 258.505992 
L 866.302052 259.726239 
L 869.779561 260.84787 
L 873.25707 261.882376 
L 876.734578 262.839528 
L 880.212087 263.72769 
L 883.689596 264.554061 
L 887.167105 265.324874 
L 890.644614 266.045548 
L 894.122122 266.720821 
L 897.599631 267.354854 
L 901.07714 267.951311 
L 904.554649 268.513437 
L 908.032157 269.044113 
L 911.509666 269.545908 
L 914.987175 270.021115 
L 918.464684 270.471794 
L 921.942193 270.899795 
L 925.419701 271.306789 
L 928.89721 271.694286 
L 932.374719 272.063652 
L 935.852228 272.416133 
L 939.329736 272.752859 
L 942.807245 273.074864 
L 946.284754 273.383093 
L 949.762263 273.678411 
L 953.239772 273.961612 
L 956.71728 274.233429 
L 960.194789 274.494532 
L 963.672298 274.745544 
L 967.149807 274.987039 
L 970.627316 275.219548 
L 974.104824 275.443562 
L 977.582333 275.65954 
L 981.059842 275.867906 
L 984.537351 276.069055 
L 988.014859 276.263357 
L 991.492368 276.451154 
L 994.969877 276.632769 
L 998.447386 276.808501 
L 1001.924895 276.978632 
L 1005.402403 277.143425 
L 1008.879912 277.303128 
L 1012.357421 277.457972 
L 1015.83493 277.608177 
L 1019.312439 277.753948 
L 1022.789947 277.895478 
L 1026.267456 278.03295 
L 1029.744965 278.166535 
L 1033.222474 278.296397 
L 1036.699982 278.422688 
L 1040.177491 278.545555 
L 1043.655 278.665134 
" clip-path="url(#p97ac039a5c)" style="fill: none; stroke: #2ca02c; stroke-width: 1.5; stroke-linecap: square"/>
   </g>
   <g id="patch_15">
    <path d="M 783.72 298.84 
L 783.72 46.08 
" style="fill: none; stroke: #000000; stroke-width: 0.8; stroke-linejoin: miter; stroke-linecap: square"/>
   </g>
   <g id="patch_16">
    <path d="M 1043.655 298.84 
L 1043.655 46.08 
" style="fill: none; stroke: #000000; stroke-width: 0.8; stroke-linejoin: miter; stroke-linecap: square"/>
   </g>
   <g id="patch_17">
    <path d="M 783.72 298.84 
L 1043.655 298.84 
" style="fill: none; stroke: #000000; stroke-width: 0.8; stroke-linejoin: miter; stroke-linecap: square"/>
   </g>
   <g id="patch_18">
    <path d="M 783.72 46.08 
L 1043.655 46.08 
" style="fill: none; stroke: #000000; stroke-width: 0.8; stroke-linejoin: miter; stroke-linecap: square"/>
   </g>
   <g id="text_54">
    <!-- Acceleration Spectra of Georgia -->
    <g transform="translate(818.267813 40.08) scale(0.12 -0.12)">
     <use xlink:href="#DejaVuSans-41"/>
     <use xlink:href="#DejaVuSans-63" x="66.658203"/>
     <use xlink:href="#DejaVuSans-63" x="121.638672"/>
     <use xlink:href="#DejaVuSans-65" x="176.619141"/>
     <use xlink:href="#DejaVuSans-6c" x="238.142578"/>
     <use xlink:href="#DejaVuSans-65" x="265.925781"/>
     <use xlink:href="#DejaVuSans-72" x="327.449219"/>
     <use xlink:href="#DejaVuSans-61" x="368.5625"/>
     <use xlink:href="#DejaVuSans-74" x="429.841797"/>
     <use xlink:href="#DejaVuSans-69" x="469.050781"/>
     <use xlink:href="#DejaVuSans-6f" x="496.833984"/>
     <use xlink:href="#DejaVuSans-6e" x="558.015625"/>
     <use xlink:href="#DejaVuSans-20" x="621.394531"/>
     <use xlink:href="#DejaVuSans-53" x="653.181641"/>
     <use xlink:href="#DejaVuSans-70" x="716.658203"/>
     <use xlink:href="#DejaVuSans-65" x="780.134766"/>
     <use xlink:href="#DejaVuSans-63" x="841.658203"/>
     <use xlink:href="#DejaVuSans-74" x="896.638672"/>
     <use xlink:href="#DejaVuSans-72" x="935.847656"/>
     <use xlink:href="#DejaVuSans-61" x="976.960938"/>
     <use xlink:href="#DejaVuSans-20" x="1038.240234"/>
     <use xlink:href="#DejaVuSans-6f" x="1070.027344"/>
     <use xlink:href="#DejaVuSans-66" x="1131.208984"/>
     <use xlink:href="#DejaVuSans-20" x="1166.414062"/>
     <use xlink:href="#DejaVuSans-47" x="1198.201172"/>
     <use xlink:href="#DejaVuSans-65" x="1275.691406"/>
     <use xlink:href="#DejaVuSans-6f" x="1337.214844"/>
     <use xlink:href="#DejaVuSans-72" x="1398.396484"/>
     <use xlink:href="#DejaVuSans-67" x="1437.759766"/>
     <use xlink:href="#DejaVuSans-69" x="1501.236328"/>
     <use xlink:href="#DejaVuSans-61" x="1529.019531"/>
    </g>
   </g>
   <g id="legend_3">
    <g id="patch_19">
     <path d="M 913.337813 98.3925 
L 1036.655 98.3925 
Q 1038.655 98.3925 1038.655 96.3925 
L 1038.655 53.08 
Q 1038.655 51.08 1036.655 51.08 
L 913.337813 51.08 
Q 911.337813 51.08 911.337813 53.08 
L 911.337813 96.3925 
Q 911.337813 98.3925 913.337813 98.3925 
z
" style="fill: #ffffff; opacity: 0.8; stroke: #cccccc; stroke-linejoin: miter"/>
    </g>
    <g id="line2d_94">
     <path d="M 915.337813 59.178437 
L 925.337813 59.178437 
L 935.337813 59.178437 
" style="fill: none; stroke: #1f77b4; stroke-width: 1.5; stroke-linecap: square"/>
    </g>
    <g id="text_55">
     <!-- Eurocode8 -->
     <g transform="translate(943.337813 62.678437) scale(0.1 -0.1)">
      <use xlink:href="#DejaVuSans-45"/>
      <use xlink:href="#DejaVuSans-75" x="63.183594"/>
      <use xlink:href="#DejaVuSans-72" x="126.5625"/>
      <use xlink:href="#DejaVuSans-6f" x="165.425781"/>
      <use xlink:href="#DejaVuSans-63" x="226.607422"/>
      <use xlink:href="#DejaVuSans-6f" x="281.587891"/>
      <use xlink:href="#DejaVuSans-64" x="342.769531"/>
      <use xlink:href="#DejaVuSans-65" x="406.246094"/>
      <use xlink:href="#DejaVuSans-38" x="467.769531"/>
     </g>
    </g>
    <g id="line2d_95">
     <path d="M 915.337813 73.856562 
L 925.337813 73.856562 
L 935.337813 73.856562 
" style="fill: none; stroke: #ff7f0e; stroke-width: 1.5; stroke-linecap: square"/>
    </g>
    <g id="text_56">
     <!-- Eurocode8_design -->
     <g transform="translate(943.337813 77.356562) scale(0.1 -0.1)">
      <use xlink:href="#DejaVuSans-45"/>
      <use xlink:href="#DejaVuSans-75" x="63.183594"/>
      <use xlink:href="#DejaVuSans-72" x="126.5625"/>
      <use xlink:href="#DejaVuSans-6f" x="165.425781"/>
      <use xlink:href="#DejaVuSans-63" x="226.607422"/>
      <use xlink:href="#DejaVuSans-6f" x="281.587891"/>
      <use xlink:href="#DejaVuSans-64" x="342.769531"/>
      <use xlink:href="#DejaVuSans-65" x="406.246094"/>
      <use xlink:href="#DejaVuSans-38" x="467.769531"/>
      <use xlink:href="#DejaVuSans-5f" x="531.392578"/>
      <use xlink:href="#DejaVuSans-64" x="581.392578"/>
      <use xlink:href="#DejaVuSans-65" x="644.869141"/>
      <use xlink:href="#DejaVuSans-73" x="706.392578"/>
      <use xlink:href="#DejaVuSans-69" x="758.492188"/>
      <use xlink:href="#DejaVuSans-67" x="786.275391"/>
      <use xlink:href="#DejaVuSans-6e" x="849.751953"/>
     </g>
    </g>
    <g id="line2d_96">
     <path d="M 915.337813 88.812812 
L 925.337813 88.812812 
L 935.337813 88.812812 
" style="fill: none; stroke: #2ca02c; stroke-width: 1.5; stroke-linecap: square"/>
    </g>
    <g id="text_57">
     <!-- asce -->
     <g transform="translate(943.337813 92.312812) scale(0.1 -0.1)">
      <use xlink:href="#DejaVuSans-61"/>
      <use xlink:href="#DejaVuSans-73" x="61.279297"/>
      <use xlink:href="#DejaVuSans-63" x="113.378906"/>
      <use xlink:href="#DejaVuSans-65" x="168.359375"/>
     </g>
    </g>
   </g>
  </g>
 </g>
 <defs>
  <clipPath id="pe2a5071803">
   <rect x="79.52" y="46.08" width="259.935" height="252.76"/>
  </clipPath>
  <clipPath id="p4e389eaacc">
   <rect x="431.62" y="46.08" width="259.935" height="252.76"/>
  </clipPath>
  <clipPath id="p97ac039a5c">
   <rect x="783.72" y="46.08" width="259.935" height="252.76"/>
  </clipPath>
 </defs>
</svg>
