<?xml version="1.0" encoding="utf-8" standalone="no"?>
<!DOCTYPE svg PUBLIC "-//W3C//DTD SVG 1.1//EN"
  "http://www.w3.org/Graphics/SVG/1.1/DTD/svg11.dtd">
<svg xmlns:xlink="http://www.w3.org/1999/xlink" width="360pt" height="144pt" viewBox="0 0 360 144" xmlns="http://www.w3.org/2000/svg" version="1.1">
 <metadata>
  <rdf:RDF xmlns:dc="http://purl.org/dc/elements/1.1/" xmlns:cc="http://creativecommons.org/ns#" xmlns:rdf="http://www.w3.org/1999/02/22-rdf-syntax-ns#">
   <cc:Work>
    <dc:type rdf:resource="http://purl.org/dc/dcmitype/StillImage"/>
    <dc:date>2023-06-20T07:11:37.830513</dc:date>
    <dc:format>image/svg+xml</dc:format>
    <dc:creator>
     <cc:Agent>
      <dc:title>Matplotlib v3.7.1, https://matplotlib.org/</dc:title>
     </cc:Agent>
    </dc:creator>
   </cc:Work>
  </rdf:RDF>
 </metadata>
 <defs>
  <style type="text/css">*{stroke-linejoin: round; stroke-linecap: butt}</style>
 </defs>
 <g id="figure_1">
  <g id="patch_1">
   <path d="M 0 144 
L 360 144 
L 360 0 
L 0 0 
z
" style="fill: #ffffff"/>
  </g>
  <g id="axes_1">
   <g id="patch_2">
    <path d="M 150.505 106.62 
C 150.505 92.526499 144.900407 78.995814 134.934796 69.030204 
C 124.969186 59.064593 111.438501 53.46 97.345 53.46 
C 83.251499 53.46 69.720814 59.064593 59.755204 69.030204 
C 49.789593 78.995814 44.185 92.526499 44.185 106.62 
L 97.345 106.62 
C 97.345 106.62 97.345 106.62 97.345 106.62 
C 97.345 106.62 97.345 106.62 97.345 106.62 
C 97.345 106.62 97.345 106.62 97.345 106.62 
C 97.345 106.62 97.345 106.62 97.345 106.62 
z
" style="fill: #ffffff"/>
   </g>
   <g id="matplotlib.axis_1">
    <g id="xtick_1">
     <g id="line2d_1">
      <path d="M 97.345 106.62 
L 150.505 106.62 
" clip-path="url(#pf371be4c48)" style="fill: none; stroke: #b0b0b0; stroke-width: 0.8; stroke-linecap: square"/>
     </g>
     <g id="text_1">
      <!-- 0° -->
      <g transform="translate(158.82375 109.379375) scale(0.1 -0.1)">
       <defs>
        <path id="DejaVuSans-30" d="M 2034 4250 
Q 1547 4250 1301 3770 
Q 1056 3291 1056 2328 
Q 1056 1369 1301 889 
Q 1547 409 2034 409 
Q 2525 409 2770 889 
Q 3016 1369 3016 2328 
Q 3016 3291 2770 3770 
Q 2525 4250 2034 4250 
z
M 2034 4750 
Q 2819 4750 3233 4129 
Q 3647 3509 3647 2328 
Q 3647 1150 3233 529 
Q 2819 -91 2034 -91 
Q 1250 -91 836 529 
Q 422 1150 422 2328 
Q 422 3509 836 4129 
Q 1250 4750 2034 4750 
z
" transform="scale(0.015625)"/>
        <path id="DejaVuSans-b0" d="M 1600 4347 
Q 1350 4347 1178 4173 
Q 1006 4000 1006 3750 
Q 1006 3503 1178 3333 
Q 1350 3163 1600 3163 
Q 1850 3163 2022 3333 
Q 2194 3503 2194 3750 
Q 2194 3997 2020 4172 
Q 1847 4347 1600 4347 
z
M 1600 4750 
Q 1800 4750 1984 4673 
Q 2169 4597 2303 4453 
Q 2447 4313 2519 4134 
Q 2591 3956 2591 3750 
Q 2591 3338 2302 3052 
Q 2013 2766 1594 2766 
Q 1172 2766 890 3047 
Q 609 3328 609 3750 
Q 609 4169 896 4459 
Q 1184 4750 1600 4750 
z
" transform="scale(0.015625)"/>
       </defs>
       <use xlink:href="#DejaVuSans-30"/>
       <use xlink:href="#DejaVuSans-b0" x="63.623047"/>
      </g>
     </g>
    </g>
    <g id="xtick_2">
     <g id="line2d_2">
      <path d="M 97.345 106.62 
L 97.345 53.46 
" clip-path="url(#pf371be4c48)" style="fill: none; stroke: #b0b0b0; stroke-width: 0.8; stroke-linecap: square"/>
     </g>
     <g id="text_2">
      <!-- 90° -->
      <g transform="translate(88.4825 42.219375) scale(0.1 -0.1)">
       <defs>
        <path id="DejaVuSans-39" d="M 703 97 
L 703 672 
Q 941 559 1184 500 
Q 1428 441 1663 441 
Q 2288 441 2617 861 
Q 2947 1281 2994 2138 
Q 2813 1869 2534 1725 
Q 2256 1581 1919 1581 
Q 1219 1581 811 2004 
Q 403 2428 403 3163 
Q 403 3881 828 4315 
Q 1253 4750 1959 4750 
Q 2769 4750 3195 4129 
Q 3622 3509 3622 2328 
Q 3622 1225 3098 567 
Q 2575 -91 1691 -91 
Q 1453 -91 1209 -44 
Q 966 3 703 97 
z
M 1959 2075 
Q 2384 2075 2632 2365 
Q 2881 2656 2881 3163 
Q 2881 3666 2632 3958 
Q 2384 4250 1959 4250 
Q 1534 4250 1286 3958 
Q 1038 3666 1038 3163 
Q 1038 2656 1286 2365 
Q 1534 2075 1959 2075 
z
" transform="scale(0.015625)"/>
       </defs>
       <use xlink:href="#DejaVuSans-39"/>
       <use xlink:href="#DejaVuSans-30" x="63.623047"/>
       <use xlink:href="#DejaVuSans-b0" x="127.246094"/>
      </g>
     </g>
    </g>
    <g id="xtick_3">
     <g id="line2d_3">
      <path d="M 97.345 106.62 
L 44.185 106.62 
" clip-path="url(#pf371be4c48)" style="fill: none; stroke: #b0b0b0; stroke-width: 0.8; stroke-linecap: square"/>
     </g>
     <g id="text_3">
      <!-- 180° -->
      <g transform="translate(18.14125 109.379375) scale(0.1 -0.1)">
       <defs>
        <path id="DejaVuSans-31" d="M 794 531 
L 1825 531 
L 1825 4091 
L 703 3866 
L 703 4441 
L 1819 4666 
L 2450 4666 
L 2450 531 
L 3481 531 
L 3481 0 
L 794 0 
L 794 531 
z
" transform="scale(0.015625)"/>
        <path id="DejaVuSans-38" d="M 2034 2216 
Q 1584 2216 1326 1975 
Q 1069 1734 1069 1313 
Q 1069 891 1326 650 
Q 1584 409 2034 409 
Q 2484 409 2743 651 
Q 3003 894 3003 1313 
Q 3003 1734 2745 1975 
Q 2488 2216 2034 2216 
z
M 1403 2484 
Q 997 2584 770 2862 
Q 544 3141 544 3541 
Q 544 4100 942 4425 
Q 1341 4750 2034 4750 
Q 2731 4750 3128 4425 
Q 3525 4100 3525 3541 
Q 3525 3141 3298 2862 
Q 3072 2584 2669 2484 
Q 3125 2378 3379 2068 
Q 3634 1759 3634 1313 
Q 3634 634 3220 271 
Q 2806 -91 2034 -91 
Q 1263 -91 848 271 
Q 434 634 434 1313 
Q 434 1759 690 2068 
Q 947 2378 1403 2484 
z
M 1172 3481 
Q 1172 3119 1398 2916 
Q 1625 2713 2034 2713 
Q 2441 2713 2670 2916 
Q 2900 3119 2900 3481 
Q 2900 3844 2670 4047 
Q 2441 4250 2034 4250 
Q 1625 4250 1398 4047 
Q 1172 3844 1172 3481 
z
" transform="scale(0.015625)"/>
       </defs>
       <use xlink:href="#DejaVuSans-31"/>
       <use xlink:href="#DejaVuSans-38" x="63.623047"/>
       <use xlink:href="#DejaVuSans-30" x="127.246094"/>
       <use xlink:href="#DejaVuSans-b0" x="190.869141"/>
      </g>
     </g>
    </g>
   </g>
   <g id="matplotlib.axis_2"/>
   <g id="line2d_4">
    <path d="M 97.345 106.62 
L 97.345 106.62 
L 97.345 106.62 
L 97.345 106.62 
L 97.345 106.62 
L 97.345 106.62 
L 97.345 106.62 
L 97.345 106.62 
L 97.345 106.62 
L 97.345 106.62 
L 97.345 106.62 
L 97.345 106.62 
L 97.345 106.62 
L 97.345 106.62 
L 97.345 106.62 
L 97.345 106.62 
L 97.345 106.62 
L 97.345 106.62 
L 97.345 106.62 
L 97.345 106.62 
L 97.345 106.62 
L 97.345 106.62 
L 97.345 106.62 
L 97.345 106.62 
L 97.345 106.62 
L 97.345 106.62 
L 97.345 106.62 
L 97.345 106.62 
L 97.345 106.62 
L 97.345 106.62 
L 97.345 106.62 
L 97.345 106.62 
L 97.345 106.62 
L 97.345 106.62 
L 97.345 106.62 
L 97.345 106.62 
L 97.345 106.62 
L 97.345 106.62 
L 97.345 106.62 
L 97.345 106.62 
L 97.345 106.62 
L 97.345 106.62 
L 97.345 106.62 
L 97.345 106.62 
L 97.345 106.62 
" clip-path="url(#pf371be4c48)" style="fill: none; stroke: #1f77b4; stroke-width: 1.5; stroke-linecap: square"/>
   </g>
   <g id="line2d_5">
    <path d="M 111.549694 106.372056 
L 111.382407 105.375052 
L 111.047478 104.416298 
L 110.563212 103.51859 
L 109.962947 102.696535 
L 110.074849 101.646366 
L 110.217475 100.505197 
L 110.093452 99.413947 
L 110.174402 98.113759 
L 110.062309 96.821531 
L 109.715389 95.605425 
L 109.147708 94.504181 
L 108.374905 93.559465 
L 107.428134 92.799483 
L 106.336034 92.256707 
L 105.137711 91.950007 
L 103.872405 91.896381 
L 102.582509 92.104787 
L 101.313164 92.571285 
L 100.106306 93.291481 
L 99.003842 94.247462 
L 98.043817 95.413318 
L 97.258918 96.755954 
L 96.60602 97.371097 
L 95.858416 96.832441 
L 95.02536 96.33075 
L 94.119141 95.917029 
L 93.166876 95.644623 
L 92.207089 95.555915 
L 91.285701 95.678501 
L 90.382091 95.916659 
L 89.446547 96.181538 
L 88.561747 96.580545 
L 87.751948 97.1103 
L 87.039972 97.761965 
L 85.939568 98.145367 
L 84.934795 98.699979 
L 84.121351 99.446935 
L 83.533056 100.351982 
L 83.198236 101.375467 
L 83.13444 102.471883 
L 83.349302 103.592861 
L 83.315331 104.614197 
L 83.189148 105.613197 
L 83.125518 106.62 
" clip-path="url(#pf371be4c48)" style="fill: none; stroke: #ff7f0e; stroke-width: 1.5; stroke-linecap: square"/>
   </g>
   <g id="line2d_6">
    <path d="M 118.53478 106.250131 
L 118.274935 104.763768 
L 117.756364 103.337341 
L 117.018342 102.004013 
L 116.095604 100.789627 
L 116.472214 99.146874 
L 116.674137 97.438092 
L 116.474704 95.806949 
L 116.413959 93.976765 
L 116.228239 92.070787 
L 115.694363 90.281756 
L 114.8366 88.664371 
L 113.679555 87.278217 
L 112.26362 86.171691 
L 110.637673 85.384782 
L 108.854121 84.953763 
L 106.976613 84.894337 
L 105.064955 85.224944 
L 103.186536 85.93888 
L 101.404865 87.023485 
L 99.780519 88.454583 
L 98.369347 90.192901 
L 97.21906 92.18869 
L 96.259157 93.029832 
L 95.15967 92.231948 
L 93.936244 91.499748 
L 92.607517 90.901664 
L 91.213838 90.514251 
L 89.808398 90.390525 
L 88.450236 90.558399 
L 86.999288 90.716637 
L 85.586441 91.080087 
L 84.246379 91.647982 
L 83.01515 92.41466 
L 81.929718 93.369274 
L 80.329281 93.976728 
L 78.850537 94.81709 
L 77.656898 95.940343 
L 76.799892 97.296395 
L 76.317228 98.824518 
L 76.239393 100.459192 
L 76.569859 102.12653 
L 76.356747 103.619338 
L 76.225104 105.117895 
L 76.135342 106.62 
" clip-path="url(#pf371be4c48)" style="fill: none; stroke: #2ca02c; stroke-width: 1.5; stroke-linecap: square"/>
   </g>
   <g id="line2d_7">
    <path d="M 121.150709 106.20447 
L 120.846185 104.535729 
L 120.256846 102.935201 
L 119.410575 101.442719 
L 118.365655 100.08377 
L 118.950495 98.178593 
L 119.174762 96.250222 
L 118.942966 94.411766 
L 118.75733 92.423046 
L 118.530948 90.29659 
L 117.923179 88.297222 
L 116.950035 86.494868 
L 115.647789 84.947628 
L 114.053668 83.718148 
L 112.228167 82.843947 
L 110.225565 82.371982 
L 108.11957 82.316213 
L 105.977351 82.696331 
L 103.872524 83.510237 
L 101.879172 84.734055 
L 100.063421 86.344548 
L 98.487563 88.297114 
L 97.204633 90.535519 
L 96.133579 91.458132 
L 94.908112 90.575703 
L 93.547527 89.775515 
L 92.072925 89.127959 
L 90.527504 88.711343 
L 88.968825 88.582569 
L 87.36377 88.596528 
L 85.720567 88.750995 
L 84.115848 89.136576 
L 82.592187 89.757204 
L 81.191327 90.606683 
L 79.95408 91.671048 
L 78.205697 92.39883 
L 76.555116 93.352184 
L 75.225137 94.621253 
L 74.274749 96.150456 
L 73.743033 97.870205 
L 73.664308 99.707515 
L 74.046825 101.580822 
L 73.687603 103.237734 
L 73.566207 104.928787 
L 73.51138 106.62 
" clip-path="url(#pf371be4c48)" style="fill: none; stroke: #d62728; stroke-width: 1.5; stroke-linecap: square"/>
   </g>
   <g id="line2d_8">
    <path d="M 123.820312 106.157872 
L 123.467602 104.303241 
L 122.786788 102.528323 
L 121.826853 100.875784 
L 120.822089 99.319958 
L 121.575502 97.152986 
L 121.826669 94.990488 
L 121.566071 92.929058 
L 121.213478 90.794554 
L 120.916013 88.458938 
L 120.211505 86.2597 
L 119.118557 84.268819 
L 117.66305 82.561352 
L 115.887602 81.204454 
L 113.854049 80.246579 
L 111.628466 79.730983 
L 109.285446 79.68639 
L 106.907381 80.118851 
L 104.572236 81.033007 
L 102.361037 82.408148 
L 100.350307 84.204801 
L 98.607302 86.376897 
L 97.190033 88.862574 
L 96.008399 89.891412 
L 94.659817 88.940951 
L 93.169053 88.096713 
L 91.559797 87.425467 
L 89.875969 86.999848 
L 88.072117 86.65158 
L 86.223403 86.537325 
L 84.371152 86.676682 
L 82.557742 87.07741 
L 80.831634 87.744852 
L 79.241966 88.674259 
L 77.836116 89.85048 
L 75.998112 90.758518 
L 74.174738 91.83306 
L 72.709235 93.256521 
L 71.666084 94.966614 
L 71.09248 96.887583 
L 71.018267 98.935126 
L 71.344484 100.99633 
L 70.870704 102.835005 
L 70.746728 104.728258 
L 70.83541 106.62 
" clip-path="url(#pf371be4c48)" style="fill: none; stroke: #9467bd; stroke-width: 1.5; stroke-linecap: square"/>
   </g>
   <g id="line2d_9">
    <path d="M 126.345091 106.113802 
L 125.930982 104.084769 
L 125.153856 102.147639 
L 124.07816 100.347556 
L 123.305045 98.5479 
L 124.141803 96.150316 
L 124.412794 93.762003 
L 124.128394 91.480706 
L 123.77367 89.097077 
L 123.472822 86.48896 
L 122.623043 84.11247 
L 121.278804 82.051263 
L 119.574888 80.297541 
L 117.62853 78.818239 
L 115.394818 77.785182 
L 112.957885 77.228314 
L 110.391928 77.19054 
L 107.787477 77.679756 
L 105.234322 78.688989 
L 102.818098 80.201963 
L 100.62205 82.177993 
L 98.72056 84.560623 
L 97.17622 87.27969 
L 95.892329 88.438704 
L 94.43202 87.44115 
L 92.826748 86.578347 
L 91.061639 85.772646 
L 89.15839 85.114864 
L 87.158712 84.684634 
L 85.103969 84.515923 
L 83.039976 84.630407 
L 81.016416 85.040419 
L 79.08593 85.749472 
L 77.305787 86.754904 
L 75.730192 88.040262 
L 73.856941 89.167553 
L 71.870453 90.362497 
L 70.278756 91.938127 
L 69.151211 93.825336 
L 68.539981 95.941313 
L 68.477543 98.193479 
L 68.626969 100.408557 
L 68.110882 102.440438 
L 67.979005 104.53141 
L 68.268867 106.62 
" clip-path="url(#pf371be4c48)" style="fill: none; stroke: #8c564b; stroke-width: 1.5; stroke-linecap: square"/>
   </g>
   <g id="line2d_10">
    <path d="M 128.807719 106.070816 
L 128.098909 103.892501 
L 127.233307 101.813211 
L 126.037137 99.887918 
L 125.562473 97.845968 
L 126.464305 95.242899 
L 126.765375 92.644458 
L 126.451627 90.1675 
L 126.135383 87.531197 
L 125.846184 84.660325 
L 124.946522 82.043648 
L 123.490968 79.780413 
L 121.56562 77.940311 
L 119.256344 76.587065 
L 116.755917 75.610808 
L 114.125899 75.029496 
L 111.365133 74.995319 
L 108.56203 75.533162 
L 105.815123 76.632745 
L 103.219097 78.266387 
L 100.860878 80.396685 
L 98.820239 82.962113 
L 97.164061 85.886477 
L 95.792442 87.18854 
L 94.237842 86.162694 
L 92.500602 85.131662 
L 90.574191 84.155359 
L 88.503373 83.394222 
L 86.321606 82.881994 
L 84.072914 82.654109 
L 81.809136 82.738367 
L 79.58661 83.150812 
L 77.465188 83.896929 
L 75.50605 84.970804 
L 73.769297 86.354709 
L 71.892511 87.707913 
L 69.759385 89.015243 
L 68.055999 90.73241 
L 66.855917 92.783705 
L 66.213969 95.079006 
L 66.163708 97.518061 
L 66.114723 99.865182 
L 65.553631 102.074831 
L 65.41381 104.348967 
L 65.732641 106.62 
" clip-path="url(#pf371be4c48)" style="fill: none; stroke: #e377c2; stroke-width: 1.5; stroke-linecap: square"/>
   </g>
   <g id="line2d_11">
    <path d="M 131.114439 106.030552 
L 130.145547 103.710989 
L 129.015538 101.526584 
L 127.714935 99.494254 
L 127.568438 97.222227 
L 128.529935 94.435844 
L 128.844449 91.656837 
L 128.514886 89.001245 
L 128.258025 86.123828 
L 127.993345 83.005975 
L 127.053619 80.167492 
L 125.511016 77.706776 
L 123.437647 75.723639 
L 120.945177 74.272254 
L 118.135251 73.407304 
L 115.125292 73.148112 
L 112.192482 73.129099 
L 109.221597 73.70524 
L 106.310267 74.87976 
L 103.559401 76.623779 
L 101.063623 78.884505 
L 98.90488 81.604747 
L 97.153737 84.703455 
L 95.709456 86.149908 
L 94.075161 85.091615 
L 92.204257 83.817158 
L 90.142411 82.72277 
L 87.918384 81.857532 
L 85.569901 81.263256 
L 83.142625 80.974251 
L 80.69474 81.025324 
L 78.288384 81.435098 
L 75.989666 82.210374 
L 73.866159 83.345162 
L 71.984169 84.820242 
L 70.11036 86.383713 
L 67.844678 87.793303 
L 66.04175 89.639796 
L 64.778969 91.841162 
L 64.11345 94.300295 
L 64.079435 96.909654 
L 63.830432 99.371111 
L 63.225274 101.741949 
L 63.075603 104.182667 
L 63.415292 106.62 
" clip-path="url(#pf371be4c48)" style="fill: none; stroke: #7f7f7f; stroke-width: 1.5; stroke-linecap: square"/>
   </g>
   <g id="line2d_12">
    <path d="M 133.180236 105.994494 
L 132.159218 103.5324 
L 130.617784 101.268902 
L 129.112895 99.166249 
L 129.323951 96.676362 
L 130.327062 93.733695 
L 130.651712 90.798334 
L 130.295015 87.995028 
L 130.117634 84.890858 
L 129.881618 81.551092 
L 128.922585 78.503368 
L 127.299868 75.870468 
L 125.108822 73.744798 
L 122.448333 72.211943 
L 119.44478 71.315313 
L 116.219345 71.088526 
L 112.9032 71.525961 
L 109.763959 72.202139 
L 106.718138 73.435751 
L 103.840959 75.264727 
L 101.230604 77.639068 
L 98.97446 80.488915 
L 97.145253 83.731234 
L 95.638309 85.259439 
L 93.921443 84.079549 
L 91.950069 82.689653 
L 89.768028 81.480618 
L 87.40691 80.51396 
L 84.908211 79.83836 
L 82.322721 79.493721 
L 79.709803 79.511286 
L 77.139169 79.916315 
L 74.682813 80.716612 
L 72.414225 81.905843 
L 70.403759 83.461747 
L 68.515863 85.198946 
L 66.129858 86.698929 
L 64.237524 88.661108 
L 62.91993 90.997509 
L 62.236309 93.604396 
L 62.221386 96.367282 
L 61.786283 98.92898 
L 61.14383 101.444367 
L 60.983159 104.033847 
L 61.340478 106.62 
" clip-path="url(#pf371be4c48)" style="fill: none; stroke: #bcbd22; stroke-width: 1.5; stroke-linecap: square"/>
   </g>
   <g id="line2d_13">
    <path d="M 135.169673 105.959768 
L 134.1047 103.35986 
L 132.488985 100.967966 
L 130.371655 98.870904 
L 130.998651 96.155626 
L 132.027208 93.069437 
L 132.353539 89.989916 
L 131.973216 87.046426 
L 131.891178 83.71495 
L 131.685734 80.161052 
L 130.708054 76.91359 
L 129.023801 74.100801 
L 126.716632 71.840986 
L 123.899812 70.222462 
L 120.709456 69.294978 
L 117.274875 69.101461 
L 113.741667 69.634662 
L 110.251711 70.850384 
L 107.083747 72.141362 
L 104.09385 74.044052 
L 101.381659 76.512421 
L 99.037639 79.475732 
L 97.137533 82.846597 
L 95.565368 84.346526 
L 93.776808 83.127279 
L 91.707667 81.61443 
L 89.411259 80.296906 
L 86.917559 79.228498 
L 84.272912 78.470293 
L 81.53322 78.06809 
L 78.763849 78.057171 
L 76.037386 78.460216 
L 73.430926 79.285676 
L 71.023012 80.526719 
L 68.890368 82.160861 
L 66.969266 84.04977 
L 64.46292 85.635113 
L 62.481736 87.708694 
L 61.110779 90.176496 
L 60.411557 92.927918 
L 60.419243 95.84123 
L 59.826472 98.505091 
L 59.1449 101.158583 
L 58.971645 103.890782 
L 59.341301 106.62 
" clip-path="url(#pf371be4c48)" style="fill: none; stroke: #17becf; stroke-width: 1.5; stroke-linecap: square"/>
   </g>
   <g id="line2d_14">
    <path d="M 136.834589 105.930707 
L 135.731233 103.215606 
L 134.056308 100.715902 
L 131.849343 98.524191 
L 132.383615 95.72498 
L 133.419948 92.525284 
L 133.737099 89.332684 
L 133.329503 86.279786 
L 133.338287 82.755477 
L 133.16863 79.018506 
L 132.180485 75.602539 
L 130.438363 72.648712 
L 128.035096 70.27979 
L 125.09773 68.580528 
L 121.75076 67.631482 
L 118.144146 67.465034 
L 114.43375 68.073556 
L 110.766912 69.422559 
L 107.36436 71.147894 
L 104.287955 73.107129 
L 101.497842 75.645866 
L 99.0864 78.693768 
L 97.131558 82.161999 
L 95.508208 83.63113 
L 93.662401 82.374037 
L 91.512999 80.750941 
L 89.120394 79.331852 
L 86.518626 78.180554 
L 83.754122 77.353119 
L 80.88596 76.899309 
L 77.985474 76.860658 
L 75.130225 77.261328 
L 72.402341 78.109981 
L 69.881248 79.394875 
L 67.64766 81.09265 
L 65.667589 83.082579 
L 63.05607 84.73728 
L 60.997219 86.903429 
L 59.579949 89.481788 
L 58.867993 92.355683 
L 58.896993 95.396879 
L 58.192806 98.151745 
L 57.477074 100.920136 
L 57.293113 103.771401 
L 57.673068 106.62 
" clip-path="url(#pf371be4c48)" style="fill: none; stroke: #1f77b4; stroke-width: 1.5; stroke-linecap: square"/>
   </g>
   <g id="line2d_15">
    <path d="M 138.133406 105.908036 
L 137.002906 103.102824 
L 135.284304 100.518409 
L 133.017809 98.250032 
L 133.449952 95.39341 
L 134.488276 92.107882 
L 134.794465 88.830404 
L 134.362623 85.695816 
L 134.429292 82.032112 
L 134.283522 78.159501 
L 133.286685 74.61758 
L 131.507881 71.550821 
L 129.039395 69.090598 
L 126.002294 67.340681 
L 122.536918 66.375584 
L 118.800711 66.229034 
L 114.955096 66.897577 
L 111.154741 68.34773 
L 107.563133 70.444168 
L 104.424019 72.450361 
L 101.579222 75.038885 
L 99.120517 78.14666 
L 97.127389 81.684197 
L 95.469042 83.140937 
L 93.580303 81.83351 
L 91.37232 80.126927 
L 88.906832 78.623283 
L 86.219699 77.395313 
L 83.361559 76.507766 
L 80.395159 76.013052 
L 77.393815 75.951163 
L 74.438635 76.347334 
L 71.615275 77.210346 
L 69.01038 78.531574 
L 66.699687 80.277787 
L 64.642214 82.32069 
L 61.950955 84.032011 
L 59.828956 86.269715 
L 58.373344 88.934217 
L 57.650456 91.904314 
L 57.69643 95.04643 
L 56.924319 97.877383 
L 56.181364 100.73489 
L 55.985225 103.67838 
L 56.37188 106.62 
" clip-path="url(#pf371be4c48)" style="fill: none; stroke: #ff7f0e; stroke-width: 1.5; stroke-linecap: square"/>
   </g>
   <g id="line2d_16">
    <path d="M 139.034022 105.892315 
L 137.886689 103.024443 
L 136.13984 100.380817 
L 133.834006 98.058527 
L 134.182475 95.165637 
L 135.209183 91.826219 
L 135.501544 88.494521 
L 135.052228 85.306017 
L 135.147991 81.555595 
L 135.019782 77.592225 
L 134.017789 73.966606 
L 132.208778 70.831331 
L 129.690703 68.319383 
L 126.587815 66.538133 
L 123.04454 65.56465 
L 119.224102 65.431989 
L 115.289742 66.142729 
L 111.402463 67.661195 
L 107.715304 69.905427 
L 104.50343 72.067054 
L 101.62628 74.687903 
L 99.140021 77.833868 
L 97.125042 81.41526 
L 95.448604 82.885135 
L 93.534822 81.534066 
L 91.288338 79.754411 
L 88.775503 78.187551 
L 86.03302 76.904933 
L 83.112459 75.97135 
L 80.078648 75.441516 
L 77.007348 75.357088 
L 73.982291 75.744239 
L 71.09174 76.611934 
L 68.424755 77.951037 
L 66.061847 79.72951 
L 63.93411 81.794543 
L 61.183796 83.542421 
L 59.021795 85.831876 
L 57.53765 88.554969 
L 56.805371 91.591021 
L 56.861552 94.802726 
L 56.047362 97.687705 
L 55.285469 100.606805 
L 55.080124 103.614007 
L 55.469722 106.62 
" clip-path="url(#pf371be4c48)" style="fill: none; stroke: #2ca02c; stroke-width: 1.5; stroke-linecap: square"/>
   </g>
   <g id="line2d_17">
    <path d="M 139.548665 105.883332 
L 138.393099 102.979531 
L 136.631897 100.301682 
L 134.305694 97.947854 
L 134.584763 95.040548 
L 135.607651 91.670535 
L 135.887292 88.31128 
L 135.424794 85.095425 
L 135.519135 81.309516 
L 135.394079 77.303836 
L 134.384176 73.640376 
L 132.556864 70.47401 
L 130.011328 67.93973 
L 126.873527 66.146519 
L 123.289992 65.172538 
L 119.427512 65.049062 
L 115.448862 65.783806 
L 111.519401 67.337114 
L 107.794016 69.62676 
L 104.535329 71.913079 
L 101.644546 74.551669 
L 99.147273 77.717581 
L 97.12422 81.321122 
L 95.44458 82.834772 
L 93.520961 81.442801 
L 91.258392 79.621576 
L 88.723043 78.013495 
L 85.951967 76.692017 
L 82.997517 75.723831 
L 79.925681 75.165298 
L 76.813669 75.059365 
L 73.746836 75.433065 
L 70.815123 76.295754 
L 68.10921 77.638234 
L 65.713736 79.43028 
L 63.541675 81.502951 
L 60.757907 83.270625 
L 58.573342 85.588616 
L 57.072522 88.343888 
L 56.332827 91.415838 
L 56.392081 94.665686 
L 55.545273 97.579108 
L 54.773656 100.533632 
L 54.563539 103.577266 
L 54.954083 106.62 
" clip-path="url(#pf371be4c48)" style="fill: none; stroke: #d62728; stroke-width: 1.5; stroke-linecap: square"/>
   </g>
   <g id="patch_3">
    <path d="M 150.505 106.62 
C 150.505 92.526499 144.900407 78.995814 134.934796 69.030204 
C 124.969186 59.064593 111.438501 53.46 97.345 53.46 
C 83.251499 53.46 69.720814 59.064593 59.755204 69.030204 
C 49.789593 78.995814 44.185 92.526499 44.185 106.62 
" style="fill: none; stroke: #000000; stroke-width: 0.8; stroke-linejoin: miter; stroke-linecap: square"/>
   </g>
   <g id="patch_4">
    <path d="M 97.345 106.62 
L 150.505 106.62 
" style="fill: none; stroke: #000000; stroke-width: 0.8; stroke-linejoin: miter; stroke-linecap: square"/>
   </g>
   <g id="patch_5">
    <path d="M 97.345 106.62 
L 44.185 106.62 
" style="fill: none; stroke: #000000; stroke-width: 0.8; stroke-linejoin: miter; stroke-linecap: square"/>
   </g>
   <g id="text_4">
    <!-- X -->
    <g transform="translate(93.235 20.88) scale(0.12 -0.12)">
     <defs>
      <path id="DejaVuSans-58" d="M 403 4666 
L 1081 4666 
L 2241 2931 
L 3406 4666 
L 4084 4666 
L 2584 2425 
L 4184 0 
L 3506 0 
L 2194 1984 
L 872 0 
L 191 0 
L 1856 2491 
L 403 4666 
z
" transform="scale(0.015625)"/>
     </defs>
     <use xlink:href="#DejaVuSans-58"/>
    </g>
   </g>
  </g>
  <g id="axes_2">
   <g id="patch_6">
    <path d="M 322.205 106.62 
C 322.205 92.526499 316.600407 78.995814 306.634796 69.030204 
C 296.669186 59.064593 283.138501 53.46 269.045 53.46 
C 254.951499 53.46 241.420814 59.064593 231.455204 69.030204 
C 221.489593 78.995814 215.885 92.526499 215.885 106.62 
L 269.045 106.62 
C 269.045 106.62 269.045 106.62 269.045 106.62 
C 269.045 106.62 269.045 106.62 269.045 106.62 
C 269.045 106.62 269.045 106.62 269.045 106.62 
C 269.045 106.62 269.045 106.62 269.045 106.62 
z
" style="fill: #ffffff"/>
   </g>
   <g id="matplotlib.axis_3">
    <g id="xtick_4">
     <g id="line2d_18">
      <path d="M 269.045 106.62 
L 322.205 106.62 
" clip-path="url(#pd7ef742d09)" style="fill: none; stroke: #b0b0b0; stroke-width: 0.8; stroke-linecap: square"/>
     </g>
     <g id="text_5">
      <!-- 0° -->
      <g transform="translate(330.52375 109.379375) scale(0.1 -0.1)">
       <use xlink:href="#DejaVuSans-30"/>
       <use xlink:href="#DejaVuSans-b0" x="63.623047"/>
      </g>
     </g>
    </g>
    <g id="xtick_5">
     <g id="line2d_19">
      <path d="M 269.045 106.62 
L 269.045 53.46 
" clip-path="url(#pd7ef742d09)" style="fill: none; stroke: #b0b0b0; stroke-width: 0.8; stroke-linecap: square"/>
     </g>
     <g id="text_6">
      <!-- 90° -->
      <g transform="translate(260.1825 42.219375) scale(0.1 -0.1)">
       <use xlink:href="#DejaVuSans-39"/>
       <use xlink:href="#DejaVuSans-30" x="63.623047"/>
       <use xlink:href="#DejaVuSans-b0" x="127.246094"/>
      </g>
     </g>
    </g>
    <g id="xtick_6">
     <g id="line2d_20">
      <path d="M 269.045 106.62 
L 215.885 106.62 
" clip-path="url(#pd7ef742d09)" style="fill: none; stroke: #b0b0b0; stroke-width: 0.8; stroke-linecap: square"/>
     </g>
     <g id="text_7">
      <!-- 180° -->
      <g transform="translate(189.84125 109.379375) scale(0.1 -0.1)">
       <use xlink:href="#DejaVuSans-31"/>
       <use xlink:href="#DejaVuSans-38" x="63.623047"/>
       <use xlink:href="#DejaVuSans-30" x="127.246094"/>
       <use xlink:href="#DejaVuSans-b0" x="190.869141"/>
      </g>
     </g>
    </g>
   </g>
   <g id="matplotlib.axis_4"/>
   <g id="line2d_21">
    <path d="M 269.045 106.62 
L 269.045 106.62 
L 269.045 106.62 
L 269.045 106.62 
L 269.045 106.62 
L 269.045 106.62 
L 269.045 106.62 
L 269.045 106.62 
L 269.045 106.62 
L 269.045 106.62 
L 269.045 106.62 
L 269.045 106.62 
L 269.045 106.62 
L 269.045 106.62 
L 269.045 106.62 
L 269.045 106.62 
L 269.045 106.62 
L 269.045 106.62 
L 269.045 106.62 
L 269.045 106.62 
L 269.045 106.62 
L 269.045 106.62 
L 269.045 106.62 
L 269.045 106.62 
L 269.045 106.62 
L 269.045 106.62 
L 269.045 106.62 
L 269.045 106.62 
L 269.045 106.62 
L 269.045 106.62 
L 269.045 106.62 
L 269.045 106.62 
L 269.045 106.62 
L 269.045 106.62 
L 269.045 106.62 
L 269.045 106.62 
L 269.045 106.62 
L 269.045 106.62 
L 269.045 106.62 
L 269.045 106.62 
L 269.045 106.62 
L 269.045 106.62 
L 269.045 106.62 
L 269.045 106.62 
L 269.045 106.62 
" clip-path="url(#pd7ef742d09)" style="fill: none; stroke: #1f77b4; stroke-width: 1.5; stroke-linecap: square"/>
   </g>
   <g id="line2d_22">
    <path d="M 270.348567 106.597246 
L 270.580067 106.483858 
L 271.053216 106.297028 
L 271.926961 105.943801 
L 272.864968 105.432207 
L 273.827043 104.751625 
L 274.769535 103.900678 
L 275.652038 102.885377 
L 276.431492 101.722556 
L 277.071041 100.436073 
L 277.540685 99.055455 
L 277.81226 97.620156 
L 277.870917 96.169212 
L 277.706187 94.748483 
L 277.318098 93.403619 
L 276.718278 92.174842 
L 275.921101 91.10984 
L 274.957026 90.235432 
L 273.855286 89.589872 
L 272.655883 89.190669 
L 271.400418 89.052025 
L 270.132497 89.18019 
L 268.896173 89.566098 
L 267.733005 90.199369 
L 266.680923 91.055088 
L 265.771916 92.101552 
L 265.032117 93.305788 
L 264.478646 94.624795 
L 264.119083 96.012428 
L 263.76448 97.084772 
L 263.426294 97.98296 
L 263.227559 98.931768 
L 263.169224 99.903857 
L 263.245622 100.871011 
L 263.446029 101.807216 
L 263.755416 102.689654 
L 264.15542 103.499538 
L 264.622529 104.221065 
L 265.13747 104.846718 
L 265.500141 105.305839 
L 265.833279 105.682486 
L 266.248552 106.015154 
L 266.733431 106.289518 
L 267.271162 106.49384 
L 267.705195 106.62 
" clip-path="url(#pd7ef742d09)" style="fill: none; stroke: #ff7f0e; stroke-width: 1.5; stroke-linecap: square"/>
   </g>
   <g id="line2d_23">
    <path d="M 270.900489 106.587612 
L 271.233139 106.425939 
L 271.916436 106.158201 
L 273.160568 105.654358 
L 274.498194 104.924366 
L 275.86907 103.953792 
L 277.214028 102.739472 
L 278.472024 101.291382 
L 279.583368 99.632777 
L 280.49868 97.795136 
L 281.168846 95.824947 
L 281.559338 93.773673 
L 281.643892 91.701624 
L 281.411545 89.669709 
L 280.858917 87.747113 
L 280.004828 85.987823 
L 278.868373 84.461792 
L 277.492565 83.208448 
L 275.91986 82.280545 
L 274.206734 81.704882 
L 272.412842 81.500816 
L 270.600266 81.678733 
L 268.832105 82.224598 
L 267.16783 83.125764 
L 265.661634 84.344166 
L 264.359919 85.838344 
L 263.300321 87.559922 
L 262.506277 89.443644 
L 261.990818 91.429377 
L 261.503399 93.001854 
L 261.020673 94.285055 
L 260.738981 95.642906 
L 260.658003 97.033474 
L 260.769455 98.416359 
L 261.057844 99.75437 
L 261.50157 101.014969 
L 262.074357 102.171432 
L 262.742852 103.201449 
L 263.478791 104.093991 
L 263.98651 104.744701 
L 264.461124 105.281949 
L 265.05347 105.756669 
L 265.746008 106.148348 
L 266.514404 106.440017 
L 267.138203 106.62 
" clip-path="url(#pd7ef742d09)" style="fill: none; stroke: #2ca02c; stroke-width: 1.5; stroke-linecap: square"/>
   </g>
   <g id="line2d_24">
    <path d="M 271.089208 106.584318 
L 271.458387 106.405962 
L 272.218843 106.109566 
L 273.590551 105.55347 
L 275.065293 104.748031 
L 276.577522 103.676995 
L 278.060944 102.337162 
L 279.448443 100.739462 
L 280.674923 98.909047 
L 281.686926 96.879612 
L 282.426571 94.70507 
L 282.860066 92.438438 
L 282.953893 90.15045 
L 282.699727 87.904054 
L 282.090406 85.779794 
L 281.149303 83.833316 
L 279.895955 82.143914 
L 278.37709 80.757077 
L 276.640972 79.727551 
L 274.748766 79.088555 
L 272.767136 78.8583 
L 270.764072 79.051846 
L 268.809639 79.650329 
L 266.969524 80.643821 
L 265.303485 81.986137 
L 263.863502 83.636382 
L 262.691153 85.538782 
L 261.8114 87.618294 
L 261.240897 89.814482 
L 260.713684 91.575837 
L 260.181655 92.995322 
L 259.871937 94.497035 
L 259.784082 96.034562 
L 259.908827 97.563209 
L 260.228954 99.041871 
L 260.720518 100.434619 
L 261.354418 101.711977 
L 262.094355 102.849677 
L 262.908026 103.834971 
L 263.460925 104.549854 
L 263.98434 105.142774 
L 264.638121 105.666833 
L 265.403058 106.099316 
L 266.252283 106.421374 
L 266.944484 106.62 
" clip-path="url(#pd7ef742d09)" style="fill: none; stroke: #d62728; stroke-width: 1.5; stroke-linecap: square"/>
   </g>
   <g id="line2d_25">
    <path d="M 271.290021 106.580813 
L 271.699378 106.384589 
L 272.548135 106.056608 
L 274.053469 105.444855 
L 275.671989 104.559383 
L 277.333342 103.381691 
L 278.963446 101.908447 
L 280.488267 100.151702 
L 281.841417 98.135629 
L 282.953773 95.903528 
L 283.768969 93.509801 
L 284.248738 91.012926 
L 284.353449 88.493232 
L 284.077041 86.016229 
L 283.409795 83.672054 
L 282.374898 81.526101 
L 280.997876 79.658353 
L 279.325881 78.127602 
L 277.415535 76.985323 
L 275.331184 76.277289 
L 273.148361 76.014921 
L 270.940399 76.224154 
L 268.785421 76.875213 
L 266.755657 77.967104 
L 264.916619 79.43904 
L 263.32705 81.256837 
L 262.03083 83.34792 
L 261.058843 85.641428 
L 260.428469 88.064982 
L 259.864251 90.041986 
L 259.279813 91.609015 
L 258.940661 93.266276 
L 258.8462 94.962543 
L 258.986098 96.648498 
L 259.341241 98.278806 
L 259.885098 99.813873 
L 260.585472 101.221247 
L 261.403683 102.475027 
L 262.301758 103.55984 
L 262.896272 104.340524 
L 263.471508 104.993076 
L 264.190755 105.570072 
L 265.033213 106.04644 
L 265.969694 106.401276 
L 266.738608 106.62 
" clip-path="url(#pd7ef742d09)" style="fill: none; stroke: #9467bd; stroke-width: 1.5; stroke-linecap: square"/>
   </g>
   <g id="line2d_26">
    <path d="M 271.519772 106.576803 
L 271.976386 106.360022 
L 272.934464 105.994477 
L 274.590647 105.318816 
L 276.371909 104.341747 
L 278.201651 103.042437 
L 279.997855 101.417072 
L 281.680689 99.477686 
L 283.171614 97.253673 
L 284.397817 94.790917 
L 285.304322 92.142725 
L 285.833102 89.386531 
L 285.955574 86.596153 
L 285.650305 83.859823 
L 284.919412 81.26042 
L 283.776576 78.887402 
L 282.259829 76.811812 
L 280.412383 75.116474 
L 278.303729 73.8408 
L 275.999942 73.049267 
L 273.586127 72.749829 
L 271.143439 72.968058 
L 268.757568 73.683535 
L 266.508956 74.879453 
L 264.470896 76.504431 
L 262.70836 78.512506 
L 261.268486 80.818562 
L 260.189668 83.358219 
L 259.489752 86.043529 
L 258.887008 88.277341 
L 258.242636 90.014674 
L 257.869659 91.850858 
L 257.76579 93.72761 
L 257.923108 95.594744 
L 258.320479 97.401376 
L 258.927247 99.102157 
L 259.704846 100.659243 
L 260.614978 102.0472 
L 261.60966 103.245758 
L 262.246032 104.099465 
L 262.879924 104.820391 
L 263.673579 105.458212 
L 264.604791 105.985189 
L 265.641821 106.377957 
L 266.50342 106.62 
" clip-path="url(#pd7ef742d09)" style="fill: none; stroke: #8c564b; stroke-width: 1.5; stroke-linecap: square"/>
   </g>
   <g id="line2d_27">
    <path d="M 271.727205 106.573182 
L 272.228778 106.337637 
L 273.29801 105.936009 
L 275.090506 105.201533 
L 277.018026 104.140842 
L 278.997445 102.731515 
L 280.941345 100.968887 
L 282.76451 98.865057 
L 284.382694 96.450694 
L 285.717022 93.774493 
L 286.698185 90.901632 
L 287.275182 87.906194 
L 287.41102 84.872755 
L 287.081135 81.898647 
L 286.291754 79.068086 
L 285.052996 76.484507 
L 283.407888 74.222179 
L 281.40425 72.367616 
L 279.112466 70.977583 
L 276.610551 70.101924 
L 273.985152 69.773682 
L 271.328813 69.995283 
L 268.732146 70.770481 
L 266.28337 72.05607 
L 264.063411 73.821576 
L 262.140282 75.992677 
L 260.570087 78.501369 
L 259.393052 81.265616 
L 258.624915 84.181173 
L 257.992878 86.662779 
L 257.292803 88.554595 
L 256.885583 90.550319 
L 256.775087 92.595214 
L 256.949118 94.629216 
L 257.384604 96.596913 
L 258.04922 98.449752 
L 258.901725 100.146702 
L 259.895021 101.656665 
L 260.981991 102.960914 
L 261.653018 103.879621 
L 262.338768 104.662425 
L 263.199542 105.355682 
L 264.211568 105.928971 
L 265.340787 106.356546 
L 266.291374 106.62 
" clip-path="url(#pd7ef742d09)" style="fill: none; stroke: #e377c2; stroke-width: 1.5; stroke-linecap: square"/>
   </g>
   <g id="line2d_28">
    <path d="M 271.908292 106.570021 
L 272.451491 106.317885 
L 273.63078 105.882492 
L 275.544686 105.094968 
L 277.600123 103.959843 
L 279.709227 102.453418 
L 281.784631 100.568301 
L 283.730196 98.319204 
L 285.456013 95.739055 
L 286.878273 92.879769 
L 287.92985 89.804959 
L 288.548588 86.599006 
L 288.690632 83.357564 
L 288.345326 80.165874 
L 287.4983 77.140613 
L 286.179637 74.363573 
L 284.417554 71.944716 
L 282.278299 69.94528 
L 279.82455 68.456552 
L 277.148614 67.504757 
L 274.337396 67.146459 
L 271.492309 67.373362 
L 268.709656 68.193328 
L 266.084146 69.562633 
L 263.702626 71.446195 
L 261.637673 73.763251 
L 259.952005 76.450654 
L 258.68306 79.400562 
L 257.856341 82.526109 
L 257.200768 85.232437 
L 256.447657 87.255443 
L 256.012723 89.396762 
L 255.896158 91.590579 
L 256.084916 93.772523 
L 256.55426 95.883163 
L 257.269483 97.87038 
L 258.188072 99.691259 
L 259.258416 101.311344 
L 260.429679 102.710269 
L 261.130398 103.685874 
L 261.859913 104.522645 
L 262.77909 105.264742 
L 263.86226 105.879031 
L 265.073139 106.33751 
L 266.106493 106.62 
" clip-path="url(#pd7ef742d09)" style="fill: none; stroke: #7f7f7f; stroke-width: 1.5; stroke-linecap: square"/>
   </g>
   <g id="line2d_29">
    <path d="M 272.064937 106.567287 
L 272.647069 106.30054 
L 273.931874 105.834068 
L 275.954869 104.998727 
L 278.122669 103.79736 
L 280.34619 102.204552 
L 282.532687 100.212953 
L 284.582415 97.837488 
L 286.402036 95.111815 
L 287.903804 92.089614 
L 289.01024 88.842982 
L 289.660172 85.457934 
L 289.816418 82.024519 
L 289.446529 78.656503 
L 288.556575 75.450005 
L 287.160731 72.516637 
L 285.302799 69.947901 
L 283.039414 67.835927 
L 280.448887 66.246174 
L 277.617304 65.242439 
L 274.645738 64.846671 
L 271.634829 65.087809 
L 268.689973 65.937931 
L 265.910271 67.38645 
L 263.386179 69.362735 
L 261.198241 71.814059 
L 259.408236 74.646503 
L 258.0607 77.765704 
L 257.1824 81.074829 
L 256.503114 83.972657 
L 255.705837 86.115122 
L 255.246064 88.383559 
L 255.123706 90.707648 
L 255.324772 93.018984 
L 255.82373 95.255212 
L 256.583549 97.360707 
L 257.558906 99.289734 
L 258.699228 101.008016 
L 259.944099 102.489907 
L 260.674528 103.516872 
L 261.440589 104.400243 
L 262.409853 105.184879 
L 263.554896 105.835087 
L 264.837459 106.320748 
L 265.946781 106.62 
" clip-path="url(#pd7ef742d09)" style="fill: none; stroke: #bcbd22; stroke-width: 1.5; stroke-linecap: square"/>
   </g>
   <g id="line2d_30">
    <path d="M 272.250964 106.56404 
L 272.881155 106.279779 
L 274.300839 105.774729 
L 276.458418 104.880578 
L 278.76267 103.598357 
L 281.122386 101.901287 
L 283.440179 99.781867 
L 285.611703 97.255683 
L 287.539152 94.357877 
L 289.130362 91.144573 
L 290.303711 87.691278 
L 290.992599 84.09016 
L 291.150969 80.444274 
L 290.761162 76.854591 
L 289.810572 73.44673 
L 288.328108 70.319018 
L 286.350712 67.584164 
L 283.944287 65.328166 
L 281.187148 63.632468 
L 278.174869 62.551135 
L 275.010506 62.126039 
L 271.804575 62.365651 
L 268.666667 63.267314 
L 265.703015 64.792476 
L 263.010921 66.892058 
L 260.674805 69.49225 
L 258.760973 72.49897 
L 257.320966 75.822522 
L 256.375911 79.33812 
L 255.670859 82.469824 
L 254.820403 84.754038 
L 254.330033 87.172948 
L 254.196812 89.648187 
L 254.409831 92.111993 
L 254.943093 94.49823 
L 255.757509 96.746931 
L 256.804567 98.808325 
L 258.024216 100.641861 
L 259.362041 102.225762 
L 260.131202 103.315449 
L 260.939315 104.253919 
L 261.966658 105.089021 
L 263.184551 105.782139 
L 264.552371 106.300472 
L 265.757874 106.62 
" clip-path="url(#pd7ef742d09)" style="fill: none; stroke: #17becf; stroke-width: 1.5; stroke-linecap: square"/>
   </g>
   <g id="line2d_31">
    <path d="M 272.400474 106.56143 
L 273.071434 106.262904 
L 274.607123 105.725471 
L 276.879476 104.781784 
L 279.298744 103.431668 
L 281.773751 101.646794 
L 284.198018 99.421872 
L 286.471269 96.769814 
L 288.486891 93.7295 
L 290.147719 90.360716 
L 291.370491 86.741418 
L 292.091231 82.962383 
L 292.256311 79.135436 
L 291.838017 75.378593 
L 290.843934 71.79592 
L 289.285163 68.517336 
L 287.210836 65.644014 
L 284.685731 63.27333 
L 281.792271 61.490115 
L 278.631308 60.347958 
L 275.309481 59.896122 
L 271.943477 60.138133 
L 268.647562 61.078069 
L 265.53324 62.667607 
L 262.703592 64.868628 
L 260.244448 67.583312 
L 258.231244 70.741398 
L 256.709971 74.21752 
L 255.712134 77.908729 
L 254.989736 81.239895 
L 254.094945 83.638869 
L 253.577144 86.177943 
L 253.434698 88.777074 
L 253.658207 91.366899 
L 254.219076 93.875877 
L 255.07636 96.240813 
L 256.179237 98.409248 
L 257.469503 100.340962 
L 258.855598 101.995933 
L 259.672727 103.145482 
L 260.53121 104.134792 
L 261.605197 105.01084 
L 262.88158 105.738824 
L 264.319907 106.283938 
L 265.606347 106.62 
" clip-path="url(#pd7ef742d09)" style="fill: none; stroke: #1f77b4; stroke-width: 1.5; stroke-linecap: square"/>
   </g>
   <g id="line2d_32">
    <path d="M 272.510419 106.559511 
L 273.213067 106.250343 
L 274.839705 105.688066 
L 277.201089 104.706324 
L 279.710392 103.303669 
L 282.270548 101.452693 
L 284.781684 99.144613 
L 287.12986 96.397546 
L 289.210543 93.2497 
L 290.925317 89.761591 
L 292.187061 86.014345 
L 292.92469 82.106812 
L 293.087708 78.150977 
L 292.658383 74.254153 
L 291.623176 70.55107 
L 290.007429 67.15765 
L 287.860668 64.178213 
L 285.242511 61.730272 
L 282.249617 59.870947 
L 278.973902 58.694292 
L 275.535448 58.21074 
L 272.047797 58.465197 
L 268.633111 59.422141 
L 265.405624 61.070403 
L 262.470488 63.333888 
L 259.920617 66.14689 
L 257.829636 69.408918 
L 256.248802 73.006089 
L 255.212134 76.832017 
L 254.478937 80.317527 
L 253.550306 82.801654 
L 253.010636 85.429255 
L 252.861681 88.122103 
L 253.092477 90.806085 
L 253.67364 93.407029 
L 254.562897 95.859293 
L 255.707625 98.108272 
L 257.047842 100.112235 
L 258.411182 101.794251 
L 259.260204 102.99255 
L 260.227155 104.046037 
L 261.335753 104.952562 
L 262.655744 105.706537 
L 264.147185 106.271654 
L 265.494818 106.62 
" clip-path="url(#pd7ef742d09)" style="fill: none; stroke: #ff7f0e; stroke-width: 1.5; stroke-linecap: square"/>
   </g>
   <g id="line2d_33">
    <path d="M 272.580593 106.558286 
L 273.304583 106.242227 
L 274.991731 105.663617 
L 277.412166 104.656799 
L 279.98142 103.219394 
L 282.601704 101.323308 
L 285.166388 98.961867 
L 287.566029 96.151002 
L 289.690333 92.931586 
L 291.43907 89.365752 
L 292.72368 85.536541 
L 293.472042 81.54494 
L 293.6422 77.494402 
L 293.19765 73.515002 
L 292.134389 69.734401 
L 290.485459 66.257746 
L 288.286874 63.216837 
L 285.612228 60.70564 
L 282.549564 58.809029 
L 279.2007 57.599563 
L 275.683663 57.105268 
L 272.116626 57.361398 
L 268.62363 58.335753 
L 265.321764 60.020831 
L 262.317516 62.326733 
L 259.708111 65.204277 
L 257.564994 68.53087 
L 255.946127 72.211001 
L 254.882616 76.122428 
L 254.146265 79.716808 
L 253.195304 82.255947 
L 252.641378 84.941251 
L 252.487862 87.694819 
L 252.723101 90.439918 
L 253.317253 93.100684 
L 254.227229 95.609879 
L 255.399254 97.911474 
L 256.771908 99.962557 
L 258.119566 101.661913 
L 258.989561 102.892216 
L 260.031044 103.988792 
L 261.162155 104.915014 
L 262.510771 105.68581 
L 264.037062 106.263822 
L 265.423371 106.62 
" clip-path="url(#pd7ef742d09)" style="fill: none; stroke: #2ca02c; stroke-width: 1.5; stroke-linecap: square"/>
   </g>
   <g id="line2d_34">
    <path d="M 272.614577 106.557693 
L 273.349475 106.238245 
L 275.066018 105.651669 
L 277.516633 104.632287 
L 280.116566 103.177372 
L 282.768074 101.258306 
L 285.359875 98.869955 
L 287.785832 96.026758 
L 289.932543 92.770994 
L 291.698855 89.165593 
L 292.995462 85.294547 
L 293.753431 81.256086 
L 293.923001 77.161905 
L 293.471133 73.140151 
L 292.395663 69.317013 
L 290.727776 65.801577 
L 288.503162 62.728964 
L 285.799503 60.186629 
L 282.701625 58.270679 
L 279.315764 57.044163 
L 275.758697 56.545629 
L 272.151585 56.800777 
L 268.618839 57.7868 
L 265.279098 59.486831 
L 262.240405 61.819038 
L 259.601027 64.729282 
L 257.431998 68.089607 
L 255.794136 71.811742 
L 254.716287 75.764252 
L 253.981428 79.419157 
L 253.019363 81.985491 
L 252.45862 84.69972 
L 252.302848 87.483344 
L 252.540309 90.258715 
L 253.140937 92.949126 
L 254.061235 95.48654 
L 255.246852 97.814213 
L 256.635646 99.888643 
L 257.977657 101.597513 
L 258.858913 102.843782 
L 259.936127 103.961085 
L 261.078542 104.896929 
L 262.442092 105.675991 
L 263.985979 106.260189 
L 265.388427 106.62 
" clip-path="url(#pd7ef742d09)" style="fill: none; stroke: #d62728; stroke-width: 1.5; stroke-linecap: square"/>
   </g>
   <g id="patch_7">
    <path d="M 322.205 106.62 
C 322.205 92.526499 316.600407 78.995814 306.634796 69.030204 
C 296.669186 59.064593 283.138501 53.46 269.045 53.46 
C 254.951499 53.46 241.420814 59.064593 231.455204 69.030204 
C 221.489593 78.995814 215.885 92.526499 215.885 106.62 
" style="fill: none; stroke: #000000; stroke-width: 0.8; stroke-linejoin: miter; stroke-linecap: square"/>
   </g>
   <g id="patch_8">
    <path d="M 269.045 106.62 
L 322.205 106.62 
" style="fill: none; stroke: #000000; stroke-width: 0.8; stroke-linejoin: miter; stroke-linecap: square"/>
   </g>
   <g id="patch_9">
    <path d="M 269.045 106.62 
L 215.885 106.62 
" style="fill: none; stroke: #000000; stroke-width: 0.8; stroke-linejoin: miter; stroke-linecap: square"/>
   </g>
   <g id="text_8">
    <!-- Y -->
    <g transform="translate(265.380312 20.88) scale(0.12 -0.12)">
     <defs>
      <path id="DejaVuSans-59" d="M -13 4666 
L 666 4666 
L 1959 2747 
L 3244 4666 
L 3922 4666 
L 2272 2222 
L 2272 0 
L 1638 0 
L 1638 2222 
L -13 4666 
z
" transform="scale(0.015625)"/>
     </defs>
     <use xlink:href="#DejaVuSans-59"/>
    </g>
   </g>
  </g>
 </g>
 <defs>
  <clipPath id="pf371be4c48">
   <path d="M 150.505 106.62 
C 150.505 92.526499 144.900407 78.995814 134.934796 69.030204 
C 124.969186 59.064593 111.438501 53.46 97.345 53.46 
C 83.251499 53.46 69.720814 59.064593 59.755204 69.030204 
C 49.789593 78.995814 44.185 92.526499 44.185 106.62 
L 97.345 106.62 
C 97.345 106.62 97.345 106.62 97.345 106.62 
C 97.345 106.62 97.345 106.62 97.345 106.62 
C 97.345 106.62 97.345 106.62 97.345 106.62 
C 97.345 106.62 97.345 106.62 97.345 106.62 
z
"/>
  </clipPath>
  <clipPath id="pd7ef742d09">
   <path d="M 322.205 106.62 
C 322.205 92.526499 316.600407 78.995814 306.634796 69.030204 
C 296.669186 59.064593 283.138501 53.46 269.045 53.46 
C 254.951499 53.46 241.420814 59.064593 231.455204 69.030204 
C 221.489593 78.995814 215.885 92.526499 215.885 106.62 
L 269.045 106.62 
C 269.045 106.62 269.045 106.62 269.045 106.62 
C 269.045 106.62 269.045 106.62 269.045 106.62 
C 269.045 106.62 269.045 106.62 269.045 106.62 
C 269.045 106.62 269.045 106.62 269.045 106.62 
z
"/>
  </clipPath>
 </defs>
</svg>
