<?xml version="1.0" encoding="utf-8" standalone="no"?>
<!DOCTYPE svg PUBLIC "-//W3C//DTD SVG 1.1//EN"
  "http://www.w3.org/Graphics/SVG/1.1/DTD/svg11.dtd">
<svg xmlns:xlink="http://www.w3.org/1999/xlink" width="360pt" height="144pt" viewBox="0 0 360 144" xmlns="http://www.w3.org/2000/svg" version="1.1">
 <metadata>
  <rdf:RDF xmlns:dc="http://purl.org/dc/elements/1.1/" xmlns:cc="http://creativecommons.org/ns#" xmlns:rdf="http://www.w3.org/1999/02/22-rdf-syntax-ns#">
   <cc:Work>
    <dc:type rdf:resource="http://purl.org/dc/dcmitype/StillImage"/>
    <dc:date>2023-06-20T07:11:39.828231</dc:date>
    <dc:format>image/svg+xml</dc:format>
    <dc:creator>
     <cc:Agent>
      <dc:title>Matplotlib v3.7.1, https://matplotlib.org/</dc:title>
     </cc:Agent>
    </dc:creator>
   </cc:Work>
  </rdf:RDF>
 </metadata>
 <defs>
  <style type="text/css">*{stroke-linejoin: round; stroke-linecap: butt}</style>
 </defs>
 <g id="figure_1">
  <g id="patch_1">
   <path d="M 0 144 
L 360 144 
L 360 0 
L 0 0 
z
" style="fill: #ffffff"/>
  </g>
  <g id="axes_1">
   <g id="patch_2">
    <path d="M 150.505 106.62 
C 150.505 92.526499 144.900407 78.995814 134.934796 69.030204 
C 124.969186 59.064593 111.438501 53.46 97.345 53.46 
C 83.251499 53.46 69.720814 59.064593 59.755204 69.030204 
C 49.789593 78.995814 44.185 92.526499 44.185 106.62 
L 97.345 106.62 
C 97.345 106.62 97.345 106.62 97.345 106.62 
C 97.345 106.62 97.345 106.62 97.345 106.62 
C 97.345 106.62 97.345 106.62 97.345 106.62 
C 97.345 106.62 97.345 106.62 97.345 106.62 
z
" style="fill: #ffffff"/>
   </g>
   <g id="matplotlib.axis_1">
    <g id="xtick_1">
     <g id="line2d_1">
      <path d="M 97.345 106.62 
L 150.505 106.62 
" clip-path="url(#p2fc56cfda1)" style="fill: none; stroke: #b0b0b0; stroke-width: 0.8; stroke-linecap: square"/>
     </g>
     <g id="text_1">
      <!-- 0° -->
      <g transform="translate(158.82375 109.379375) scale(0.1 -0.1)">
       <defs>
        <path id="DejaVuSans-30" d="M 2034 4250 
Q 1547 4250 1301 3770 
Q 1056 3291 1056 2328 
Q 1056 1369 1301 889 
Q 1547 409 2034 409 
Q 2525 409 2770 889 
Q 3016 1369 3016 2328 
Q 3016 3291 2770 3770 
Q 2525 4250 2034 4250 
z
M 2034 4750 
Q 2819 4750 3233 4129 
Q 3647 3509 3647 2328 
Q 3647 1150 3233 529 
Q 2819 -91 2034 -91 
Q 1250 -91 836 529 
Q 422 1150 422 2328 
Q 422 3509 836 4129 
Q 1250 4750 2034 4750 
z
" transform="scale(0.015625)"/>
        <path id="DejaVuSans-b0" d="M 1600 4347 
Q 1350 4347 1178 4173 
Q 1006 4000 1006 3750 
Q 1006 3503 1178 3333 
Q 1350 3163 1600 3163 
Q 1850 3163 2022 3333 
Q 2194 3503 2194 3750 
Q 2194 3997 2020 4172 
Q 1847 4347 1600 4347 
z
M 1600 4750 
Q 1800 4750 1984 4673 
Q 2169 4597 2303 4453 
Q 2447 4313 2519 4134 
Q 2591 3956 2591 3750 
Q 2591 3338 2302 3052 
Q 2013 2766 1594 2766 
Q 1172 2766 890 3047 
Q 609 3328 609 3750 
Q 609 4169 896 4459 
Q 1184 4750 1600 4750 
z
" transform="scale(0.015625)"/>
       </defs>
       <use xlink:href="#DejaVuSans-30"/>
       <use xlink:href="#DejaVuSans-b0" x="63.623047"/>
      </g>
     </g>
    </g>
    <g id="xtick_2">
     <g id="line2d_2">
      <path d="M 97.345 106.62 
L 97.345 53.46 
" clip-path="url(#p2fc56cfda1)" style="fill: none; stroke: #b0b0b0; stroke-width: 0.8; stroke-linecap: square"/>
     </g>
     <g id="text_2">
      <!-- 90° -->
      <g transform="translate(88.4825 42.219375) scale(0.1 -0.1)">
       <defs>
        <path id="DejaVuSans-39" d="M 703 97 
L 703 672 
Q 941 559 1184 500 
Q 1428 441 1663 441 
Q 2288 441 2617 861 
Q 2947 1281 2994 2138 
Q 2813 1869 2534 1725 
Q 2256 1581 1919 1581 
Q 1219 1581 811 2004 
Q 403 2428 403 3163 
Q 403 3881 828 4315 
Q 1253 4750 1959 4750 
Q 2769 4750 3195 4129 
Q 3622 3509 3622 2328 
Q 3622 1225 3098 567 
Q 2575 -91 1691 -91 
Q 1453 -91 1209 -44 
Q 966 3 703 97 
z
M 1959 2075 
Q 2384 2075 2632 2365 
Q 2881 2656 2881 3163 
Q 2881 3666 2632 3958 
Q 2384 4250 1959 4250 
Q 1534 4250 1286 3958 
Q 1038 3666 1038 3163 
Q 1038 2656 1286 2365 
Q 1534 2075 1959 2075 
z
" transform="scale(0.015625)"/>
       </defs>
       <use xlink:href="#DejaVuSans-39"/>
       <use xlink:href="#DejaVuSans-30" x="63.623047"/>
       <use xlink:href="#DejaVuSans-b0" x="127.246094"/>
      </g>
     </g>
    </g>
    <g id="xtick_3">
     <g id="line2d_3">
      <path d="M 97.345 106.62 
L 44.185 106.62 
" clip-path="url(#p2fc56cfda1)" style="fill: none; stroke: #b0b0b0; stroke-width: 0.8; stroke-linecap: square"/>
     </g>
     <g id="text_3">
      <!-- 180° -->
      <g transform="translate(18.14125 109.379375) scale(0.1 -0.1)">
       <defs>
        <path id="DejaVuSans-31" d="M 794 531 
L 1825 531 
L 1825 4091 
L 703 3866 
L 703 4441 
L 1819 4666 
L 2450 4666 
L 2450 531 
L 3481 531 
L 3481 0 
L 794 0 
L 794 531 
z
" transform="scale(0.015625)"/>
        <path id="DejaVuSans-38" d="M 2034 2216 
Q 1584 2216 1326 1975 
Q 1069 1734 1069 1313 
Q 1069 891 1326 650 
Q 1584 409 2034 409 
Q 2484 409 2743 651 
Q 3003 894 3003 1313 
Q 3003 1734 2745 1975 
Q 2488 2216 2034 2216 
z
M 1403 2484 
Q 997 2584 770 2862 
Q 544 3141 544 3541 
Q 544 4100 942 4425 
Q 1341 4750 2034 4750 
Q 2731 4750 3128 4425 
Q 3525 4100 3525 3541 
Q 3525 3141 3298 2862 
Q 3072 2584 2669 2484 
Q 3125 2378 3379 2068 
Q 3634 1759 3634 1313 
Q 3634 634 3220 271 
Q 2806 -91 2034 -91 
Q 1263 -91 848 271 
Q 434 634 434 1313 
Q 434 1759 690 2068 
Q 947 2378 1403 2484 
z
M 1172 3481 
Q 1172 3119 1398 2916 
Q 1625 2713 2034 2713 
Q 2441 2713 2670 2916 
Q 2900 3119 2900 3481 
Q 2900 3844 2670 4047 
Q 2441 4250 2034 4250 
Q 1625 4250 1398 4047 
Q 1172 3844 1172 3481 
z
" transform="scale(0.015625)"/>
       </defs>
       <use xlink:href="#DejaVuSans-31"/>
       <use xlink:href="#DejaVuSans-38" x="63.623047"/>
       <use xlink:href="#DejaVuSans-30" x="127.246094"/>
       <use xlink:href="#DejaVuSans-b0" x="190.869141"/>
      </g>
     </g>
    </g>
   </g>
   <g id="matplotlib.axis_2"/>
   <g id="line2d_4">
    <path d="M 97.345 106.62 
L 97.345 106.62 
L 97.345 106.62 
L 97.345 106.62 
L 97.345 106.62 
L 97.345 106.62 
L 97.345 106.62 
L 97.345 106.62 
L 97.345 106.62 
L 97.345 106.62 
L 97.345 106.62 
L 97.345 106.62 
L 97.345 106.62 
L 97.345 106.62 
L 97.345 106.62 
L 97.345 106.62 
L 97.345 106.62 
L 97.345 106.62 
L 97.345 106.62 
L 97.345 106.62 
L 97.345 106.62 
L 97.345 106.62 
L 97.345 106.62 
L 97.345 106.62 
L 97.345 106.62 
L 97.345 106.62 
L 97.345 106.62 
L 97.345 106.62 
L 97.345 106.62 
L 97.345 106.62 
L 97.345 106.62 
L 97.345 106.62 
L 97.345 106.62 
L 97.345 106.62 
L 97.345 106.62 
L 97.345 106.62 
L 97.345 106.62 
L 97.345 106.62 
L 97.345 106.62 
L 97.345 106.62 
L 97.345 106.62 
L 97.345 106.62 
L 97.345 106.62 
L 97.345 106.62 
L 97.345 106.62 
" clip-path="url(#p2fc56cfda1)" style="fill: none; stroke: #1f77b4; stroke-width: 1.5; stroke-linecap: square"/>
   </g>
   <g id="line2d_5">
    <path d="M 115.304196 106.306521 
L 115.345471 105.023576 
L 115.106292 103.763539 
L 114.595295 102.572536 
L 113.830727 101.493875 
L 112.841608 100.565375 
L 111.662659 99.818692 
L 110.332185 99.279003 
L 108.895199 98.961906 
L 107.400099 98.872718 
L 105.896293 99.005942 
L 104.426358 99.350782 
L 103.207344 99.678386 
L 102.297436 99.831909 
L 101.455787 100.052964 
L 100.641238 100.41474 
L 99.881215 100.899156 
L 99.194319 101.494803 
L 98.59949 102.178657 
L 98.110622 102.924428 
L 97.738197 103.687325 
L 97.495119 104.212595 
L 97.328953 104.781163 
L 97.194136 104.731827 
L 97.041426 104.62129 
L 96.886497 104.586213 
L 96.599784 104.147474 
L 96.219723 103.664048 
L 95.766627 103.221099 
L 95.246113 102.829962 
L 94.582777 102.373928 
L 93.803218 101.93924 
L 92.961321 101.609356 
L 92.077046 101.397818 
L 91.063188 101.220257 
L 89.620059 100.880099 
L 88.119553 100.732448 
L 86.606818 100.795157 
L 85.128568 101.076043 
L 83.729631 101.572467 
L 82.459474 102.274858 
L 81.361302 103.162875 
L 80.473071 104.207843 
L 79.825829 105.373989 
L 79.438953 106.62 
" clip-path="url(#p2fc56cfda1)" style="fill: none; stroke: #ff7f0e; stroke-width: 1.5; stroke-linecap: square"/>
   </g>
   <g id="line2d_6">
    <path d="M 124.031313 106.154189 
L 124.095979 104.247512 
L 123.743984 102.374382 
L 122.988037 100.603334 
L 121.855127 98.998742 
L 120.388845 97.61662 
L 118.639398 96.504536 
L 116.664319 95.699769 
L 114.530427 95.225597 
L 112.309859 95.089832 
L 110.075395 95.284877 
L 107.890677 95.794559 
L 106.094324 96.259907 
L 104.661053 96.592201 
L 103.414905 96.923248 
L 102.209611 97.462235 
L 101.085702 98.182242 
L 100.070488 99.066591 
L 99.191958 100.081109 
L 98.47061 101.186803 
L 97.923549 102.304873 
L 97.565516 103.083665 
L 97.321372 103.91248 
L 97.123559 103.8485 
L 96.899415 103.686298 
L 96.672169 103.635519 
L 96.251115 102.990637 
L 95.68954 102.271328 
L 95.019652 101.612547 
L 94.249963 101.031178 
L 93.233022 100.299093 
L 92.069361 99.647804 
L 90.811291 99.151824 
L 89.489561 98.832816 
L 88.022829 98.606813 
L 85.879461 98.100705 
L 83.650772 97.880533 
L 81.403404 97.972605 
L 79.205921 98.388278 
L 77.12648 99.124527 
L 75.237817 100.166829 
L 73.604157 101.485076 
L 72.281946 103.036769 
L 71.317395 104.768846 
L 70.738457 106.62 
" clip-path="url(#p2fc56cfda1)" style="fill: none; stroke: #2ca02c; stroke-width: 1.5; stroke-linecap: square"/>
   </g>
   <g id="line2d_7">
    <path d="M 127.295273 106.097216 
L 127.37017 103.957131 
L 126.977449 101.854359 
L 126.131291 99.865827 
L 124.861905 98.063805 
L 123.217484 96.511453 
L 121.255569 95.261777 
L 119.0401 94.356861 
L 116.646031 93.822894 
L 114.153646 93.669226 
L 111.645948 93.886458 
L 109.210681 94.439538 
L 107.195169 94.956393 
L 105.532529 95.397707 
L 104.136567 95.770383 
L 102.786791 96.375679 
L 101.528397 97.18367 
L 100.391999 98.175558 
L 99.408893 99.313082 
L 98.602015 100.552529 
L 97.991289 101.799628 
L 97.591155 102.672504 
L 97.318577 103.592276 
L 97.097804 103.526155 
L 96.847677 103.345661 
L 96.594179 103.289575 
L 96.125002 102.572211 
L 95.49646 101.76413 
L 94.74609 101.023453 
L 93.884956 100.372072 
L 92.726753 99.52086 
L 91.418344 98.787432 
L 90.000512 98.225086 
L 88.511637 97.863388 
L 86.892776 97.635439 
L 84.487771 97.06663 
L 81.986803 96.818611 
L 79.46448 96.920851 
L 76.997589 97.386112 
L 74.662993 98.211255 
L 72.542117 99.379943 
L 70.707071 100.858464 
L 69.221254 102.599186 
L 68.136586 104.542618 
L 67.484815 106.62 
" clip-path="url(#p2fc56cfda1)" style="fill: none; stroke: #d62728; stroke-width: 1.5; stroke-linecap: square"/>
   </g>
   <g id="line2d_8">
    <path d="M 130.652472 106.038616 
L 130.739189 103.65834 
L 130.305823 101.319073 
L 129.368025 99.106387 
L 127.959278 97.100698 
L 126.130738 95.373226 
L 123.950945 93.981395 
L 121.488703 92.97279 
L 118.827322 92.376639 
L 116.054621 92.204557 
L 113.265341 92.444553 
L 110.623874 92.988855 
L 108.352138 93.586424 
L 106.492924 94.081334 
L 104.874844 94.590976 
L 103.377349 95.263937 
L 101.981358 96.161945 
L 100.72097 97.263848 
L 99.630855 98.52726 
L 98.736448 99.903636 
L 98.060397 101.284182 
L 97.617305 102.253133 
L 97.315727 103.265652 
L 97.071587 103.198024 
L 96.795119 102.999621 
L 96.514867 102.93777 
L 95.997197 102.148171 
L 95.298936 101.245263 
L 94.466777 100.421974 
L 93.511895 99.698421 
L 92.208026 98.723475 
L 90.74759 97.900974 
L 89.163894 97.268812 
L 87.496414 96.856986 
L 85.737702 96.642555 
L 83.063682 96.008483 
L 80.282392 95.73088 
L 77.476728 95.84261 
L 74.732448 96.358165 
L 72.134561 97.273907 
L 69.77379 98.571858 
L 67.730386 100.214635 
L 66.074938 102.149361 
L 64.865287 104.309954 
L 64.13855 106.62 
" clip-path="url(#p2fc56cfda1)" style="fill: none; stroke: #9467bd; stroke-width: 1.5; stroke-linecap: square"/>
   </g>
   <g id="line2d_9">
    <path d="M 133.858839 105.982649 
L 133.958032 103.372867 
L 133.486976 100.807464 
L 132.462685 98.380282 
L 130.921735 96.179542 
L 128.918663 94.283966 
L 126.528657 92.756906 
L 123.831161 91.648717 
L 120.914746 90.992621 
L 117.875665 90.801474 
L 114.814632 91.065067 
L 112.001864 91.574308 
L 109.48021 92.250671 
L 107.429262 92.797937 
L 105.577609 93.4683 
L 103.939734 94.205232 
L 102.412874 95.18859 
L 101.034525 96.394863 
L 99.842545 97.7778 
L 98.864763 99.284272 
L 98.126485 100.791263 
L 97.642236 101.853332 
L 97.313014 102.954739 
L 97.046767 102.887381 
L 96.745339 102.671872 
L 96.439636 102.60407 
L 95.875323 101.743808 
L 95.110457 100.750152 
L 94.199625 99.846684 
L 93.148239 99.041754 
L 91.714635 97.965038 
L 90.106552 97.05379 
L 88.362083 96.352324 
L 86.521785 95.890826 
L 84.635556 95.695168 
L 81.710136 95.002751 
L 78.660723 94.695953 
L 75.583802 94.815808 
L 72.574621 95.378918 
L 69.724397 96.380403 
L 67.133452 97.801133 
L 64.88985 99.600253 
L 63.071086 101.719905 
L 61.740701 104.087725 
L 60.942921 106.62 
" clip-path="url(#p2fc56cfda1)" style="fill: none; stroke: #8c564b; stroke-width: 1.5; stroke-linecap: square"/>
   </g>
   <g id="line2d_10">
    <path d="M 136.728809 105.932553 
L 136.840155 103.117258 
L 136.336539 100.349183 
L 135.235923 97.729593 
L 133.577617 95.353713 
L 131.420316 93.306554 
L 128.839531 91.659173 
L 125.931923 90.461263 
L 122.787612 89.75086 
L 119.510303 89.542014 
L 116.235749 89.799707 
L 113.257987 90.284862 
L 110.509272 91.032156 
L 108.283158 91.627538 
L 106.201525 92.471585 
L 104.439119 93.265126 
L 102.796097 94.324167 
L 101.313038 95.622994 
L 100.030612 97.111976 
L 98.978781 98.733922 
L 98.18517 100.353562 
L 97.66448 101.496607 
L 97.310604 102.67862 
L 97.024941 102.614216 
L 96.701536 102.383478 
L 96.373323 102.309926 
L 95.766584 101.383026 
L 94.941004 100.305021 
L 93.959596 99.3298 
L 92.822904 98.454286 
L 91.272538 97.285449 
L 89.533285 96.296169 
L 87.639335 95.526207 
L 85.642044 95.018729 
L 83.591358 94.797593 
L 80.504447 94.106882 
L 77.214696 93.773119 
L 73.89439 93.899399 
L 70.646812 94.504057 
L 67.571567 95.582299 
L 64.773607 97.112285 
L 62.349664 99.050834 
L 60.383452 101.335657 
L 58.94366 103.888792 
L 58.080948 106.62 
" clip-path="url(#p2fc56cfda1)" style="fill: none; stroke: #e377c2; stroke-width: 1.5; stroke-linecap: square"/>
   </g>
   <g id="line2d_11">
    <path d="M 139.251552 105.888518 
L 139.368494 102.893025 
L 138.837392 99.946983 
L 137.670853 97.158281 
L 135.910543 94.628306 
L 133.618776 92.447601 
L 130.875781 90.691894 
L 127.777866 89.417845 
L 124.434109 88.659188 
L 120.948138 88.434186 
L 117.55889 88.621584 
L 114.377161 89.135998 
L 111.426877 89.945619 
L 109.044256 90.584334 
L 106.782661 91.543213 
L 104.872137 92.449958 
L 103.128458 93.574474 
L 101.554599 94.953531 
L 100.193729 96.534486 
L 99.077664 98.256624 
L 98.235906 99.975143 
L 97.683694 101.188483 
L 97.308532 102.441138 
L 97.006351 102.381543 
L 96.664144 102.137294 
L 96.316534 102.058024 
L 95.671134 101.066335 
L 94.791863 99.913247 
L 93.747952 98.874042 
L 92.538134 97.940066 
L 90.885801 96.69096 
L 89.025852 95.625554 
L 87.003393 94.799311 
L 84.861569 94.245035 
L 82.663451 93.999979 
L 79.451724 93.324672 
L 75.95091 92.966588 
L 72.416654 93.097813 
L 68.958855 93.738043 
L 65.687308 94.883761 
L 62.706954 96.509021 
L 60.123863 98.569414 
L 58.027237 100.998792 
L 56.490314 103.714303 
L 55.567168 106.62 
" clip-path="url(#p2fc56cfda1)" style="fill: none; stroke: #7f7f7f; stroke-width: 1.5; stroke-linecap: square"/>
   </g>
   <g id="line2d_12">
    <path d="M 141.418918 105.850687 
L 141.545738 102.69993 
L 140.985759 99.601472 
L 139.763505 96.667279 
L 137.916437 94.004587 
L 135.509945 91.708709 
L 132.628285 89.859404 
L 129.370891 88.517389 
L 125.851028 87.719732 
L 122.186202 87.480279 
L 118.709526 87.59706 
L 115.351039 88.136284 
L 112.225835 88.999571 
L 109.706624 89.676454 
L 107.317506 90.688792 
L 105.23877 91.75976 
L 103.40995 92.939523 
L 101.759173 94.386575 
L 100.331843 96.045511 
L 99.161359 97.852638 
L 98.278626 99.656517 
L 97.699841 100.929538 
L 97.306802 102.242945 
L 96.991003 102.189448 
L 96.633162 101.933313 
L 96.269265 101.848351 
L 95.589 100.793827 
L 94.66238 99.573114 
L 93.564475 98.478938 
L 92.293093 97.497587 
L 90.550511 96.175554 
L 88.589554 95.04895 
L 86.449083 94.165722 
L 84.187022 93.576349 
L 81.855286 93.305293 
L 78.55152 92.655789 
L 74.869288 92.276312 
L 71.15096 92.411247 
L 67.512115 93.081495 
L 64.070307 94.284301 
L 60.935116 95.991815 
L 58.214591 98.156457 
L 56.005096 100.709689 
L 54.383802 103.564482 
L 53.40775 106.62 
" clip-path="url(#p2fc56cfda1)" style="fill: none; stroke: #bcbd22; stroke-width: 1.5; stroke-linecap: square"/>
   </g>
   <g id="line2d_13">
    <path d="M 143.431197 105.815562 
L 143.569158 102.520477 
L 142.986862 99.279645 
L 141.706336 96.21143 
L 139.779293 93.425344 
L 137.266804 91.022293 
L 134.256847 89.085788 
L 130.8533 87.679458 
L 127.171405 86.844287 
L 123.34738 86.585611 
L 119.788538 86.636309 
L 116.264838 87.198243 
L 112.976747 88.110414 
L 110.330885 88.820806 
L 107.820297 89.885577 
L 105.577391 91.122298 
L 103.670242 92.352392 
L 101.9485 93.861876 
L 100.459794 95.59252 
L 99.238997 97.477887 
L 98.318011 99.362759 
L 97.714727 100.690809 
L 97.305226 102.06233 
L 96.977087 102.015291 
L 96.604952 101.74758 
L 96.226009 101.656482 
L 95.511543 100.536834 
L 94.54054 99.253055 
L 93.391711 98.106905 
L 92.065195 97.086062 
L 90.240099 95.698391 
L 88.179975 94.507657 
L 85.933281 93.576149 
L 83.550358 92.945217 
L 81.100188 92.656224 
L 77.716923 92.035654 
L 73.868186 91.637423 
L 69.978657 91.77534 
L 66.171294 92.473015 
L 62.569063 93.727755 
L 59.291726 95.512103 
L 56.444126 97.773521 
L 54.129211 100.441497 
L 52.428906 103.425445 
L 51.403026 106.62 
" clip-path="url(#p2fc56cfda1)" style="fill: none; stroke: #17becf; stroke-width: 1.5; stroke-linecap: square"/>
   </g>
   <g id="line2d_14">
    <path d="M 145.056006 105.787201 
L 145.203622 102.37552 
L 144.605478 99.019331 
L 143.283205 95.841446 
L 141.2847 92.957248 
L 138.687189 90.467339 
L 135.574139 88.460037 
L 132.052996 87.001331 
L 128.243004 86.133788 
L 124.359072 85.80612 
L 120.665888 85.855118 
L 117.008136 86.435227 
L 113.587164 87.387618 
L 110.839161 88.124135 
L 108.228722 89.233112 
L 105.846189 90.616278 
L 103.876614 91.886886 
L 102.098494 93.446182 
L 100.561052 95.234028 
L 99.300337 97.181807 
L 98.348988 99.131715 
L 97.726391 100.503759 
L 97.303995 101.921316 
L 96.966334 101.880706 
L 96.583076 101.603548 
L 96.19232 101.507047 
L 95.449081 100.329593 
L 94.441511 98.99292 
L 93.251158 97.804236 
L 91.879319 96.75042 
L 89.984798 95.305943 
L 87.847027 94.067639 
L 85.510342 93.09272 
L 83.03246 92.431818 
L 80.478493 92.121825 
L 77.04426 91.535842 
L 73.062168 91.123033 
L 69.034296 91.263079 
L 65.090648 91.982606 
L 61.358559 93.278993 
L 57.962086 95.123976 
L 55.016426 97.464723 
L 52.61589 100.225139 
L 50.851215 103.313235 
L 49.784477 106.62 
" clip-path="url(#p2fc56cfda1)" style="fill: none; stroke: #1f77b4; stroke-width: 1.5; stroke-linecap: square"/>
   </g>
   <g id="line2d_15">
    <path d="M 146.290046 105.765661 
L 146.445445 102.265385 
L 145.835747 98.821473 
L 144.482999 95.559937 
L 142.435537 92.599403 
L 139.767798 90.045139 
L 136.576886 87.983702 
L 132.966817 86.484794 
L 129.059853 85.592195 
L 125.130019 85.212118 
L 121.334558 85.259735 
L 117.5747 85.853633 
L 114.051208 86.838143 
L 111.224624 87.595797 
L 108.538094 88.738887 
L 106.061625 90.210714 
L 104.028195 91.544971 
L 102.208413 93.141553 
L 100.635021 94.972154 
L 99.344937 96.966526 
L 98.371229 98.965827 
L 97.734692 100.370638 
L 97.303124 101.821442 
L 96.958843 101.786942 
L 96.567715 101.502409 
L 96.168472 101.401262 
L 95.402677 100.175632 
L 94.367064 98.797357 
L 93.145486 97.576678 
L 91.735868 96.491385 
L 89.789414 95.005601 
L 87.590685 93.728861 
L 85.184808 92.720628 
L 82.634834 92.037647 
L 80.001011 91.711389 
L 76.533863 91.1566 
L 72.449611 90.732108 
L 68.318045 90.874555 
L 64.270902 91.610596 
L 60.440123 92.938508 
L 56.953023 94.829427 
L 53.928058 97.229319 
L 51.467352 100.060934 
L 49.653458 103.228047 
L 48.555296 106.62 
" clip-path="url(#p2fc56cfda1)" style="fill: none; stroke: #ff7f0e; stroke-width: 1.5; stroke-linecap: square"/>
   </g>
   <g id="line2d_16">
    <path d="M 147.130975 105.750983 
L 147.291978 102.190308 
L 146.674763 98.686538 
L 145.30165 95.367855 
L 143.221701 92.354951 
L 140.508566 89.755716 
L 137.262665 87.657937 
L 133.592388 86.131191 
L 129.619687 85.22101 
L 125.654657 84.807893 
L 121.78948 84.854674 
L 117.960012 85.458098 
L 114.363843 86.467951 
L 111.483024 87.241619 
L 108.744997 88.408357 
L 106.221173 89.91036 
L 104.124411 91.32794 
L 102.277753 92.949386 
L 100.681308 94.808279 
L 99.372486 96.833549 
L 98.384523 98.866676 
L 97.739541 100.292883 
L 97.302617 101.763431 
L 96.954654 101.734517 
L 96.558951 101.444708 
L 96.154605 101.339756 
L 95.372381 100.075114 
L 94.318418 98.669573 
L 93.075732 97.42647 
L 91.636515 96.31198 
L 89.654156 94.797683 
L 87.411634 93.492231 
L 84.959993 92.463659 
L 82.356862 91.762091 
L 79.671582 91.428218 
L 76.185492 90.897748 
L 72.030885 90.464883 
L 67.829941 90.609786 
L 63.712505 91.357189 
L 59.814653 92.706632 
L 56.265909 94.628856 
L 53.186805 97.068993 
L 50.683637 99.948888 
L 48.837529 103.170016 
L 47.717741 106.62 
" clip-path="url(#p2fc56cfda1)" style="fill: none; stroke: #2ca02c; stroke-width: 1.5; stroke-linecap: square"/>
   </g>
   <g id="line2d_17">
    <path d="M 147.611152 105.742601 
L 147.775628 102.147414 
L 147.154468 98.609389 
L 145.770135 95.257934 
L 143.672087 92.214906 
L 140.934611 89.589257 
L 137.657284 87.470481 
L 133.95305 85.927327 
L 129.943185 85.006522 
L 125.951123 84.579472 
L 122.046274 84.626025 
L 118.177212 85.235136 
L 114.534508 86.265867 
L 111.623514 87.049055 
L 108.856887 88.229611 
L 106.306834 89.749101 
L 104.170229 91.224591 
L 102.310099 92.859743 
L 100.702522 94.733175 
L 99.384427 96.775911 
L 98.389836 98.827048 
L 97.741316 100.264416 
L 97.302421 101.74098 
L 96.953242 101.716851 
L 96.555832 101.424174 
L 96.14942 101.316755 
L 95.35794 100.027199 
L 94.29408 98.605637 
L 93.039269 97.34795 
L 91.577303 96.205058 
L 89.572674 94.67243 
L 87.306036 93.352675 
L 84.827892 92.312664 
L 82.193995 91.600639 
L 79.47912 91.26278 
L 75.985737 90.749323 
L 71.791407 90.312051 
L 67.55095 90.45845 
L 63.393738 91.212529 
L 59.457898 92.574374 
L 55.874197 94.514513 
L 52.764339 96.977618 
L 50.235671 99.884843 
L 48.371846 103.136896 
L 47.239545 106.62 
" clip-path="url(#p2fc56cfda1)" style="fill: none; stroke: #d62728; stroke-width: 1.5; stroke-linecap: square"/>
   </g>
   <g id="patch_3">
    <path d="M 150.505 106.62 
C 150.505 92.526499 144.900407 78.995814 134.934796 69.030204 
C 124.969186 59.064593 111.438501 53.46 97.345 53.46 
C 83.251499 53.46 69.720814 59.064593 59.755204 69.030204 
C 49.789593 78.995814 44.185 92.526499 44.185 106.62 
" style="fill: none; stroke: #000000; stroke-width: 0.8; stroke-linejoin: miter; stroke-linecap: square"/>
   </g>
   <g id="patch_4">
    <path d="M 97.345 106.62 
L 150.505 106.62 
" style="fill: none; stroke: #000000; stroke-width: 0.8; stroke-linejoin: miter; stroke-linecap: square"/>
   </g>
   <g id="patch_5">
    <path d="M 97.345 106.62 
L 44.185 106.62 
" style="fill: none; stroke: #000000; stroke-width: 0.8; stroke-linejoin: miter; stroke-linecap: square"/>
   </g>
   <g id="text_4">
    <!-- X -->
    <g transform="translate(93.235 20.88) scale(0.12 -0.12)">
     <defs>
      <path id="DejaVuSans-58" d="M 403 4666 
L 1081 4666 
L 2241 2931 
L 3406 4666 
L 4084 4666 
L 2584 2425 
L 4184 0 
L 3506 0 
L 2194 1984 
L 872 0 
L 191 0 
L 1856 2491 
L 403 4666 
z
" transform="scale(0.015625)"/>
     </defs>
     <use xlink:href="#DejaVuSans-58"/>
    </g>
   </g>
  </g>
  <g id="axes_2">
   <g id="patch_6">
    <path d="M 322.205 106.62 
C 322.205 92.526499 316.600407 78.995814 306.634796 69.030204 
C 296.669186 59.064593 283.138501 53.46 269.045 53.46 
C 254.951499 53.46 241.420814 59.064593 231.455204 69.030204 
C 221.489593 78.995814 215.885 92.526499 215.885 106.62 
L 269.045 106.62 
C 269.045 106.62 269.045 106.62 269.045 106.62 
C 269.045 106.62 269.045 106.62 269.045 106.62 
C 269.045 106.62 269.045 106.62 269.045 106.62 
C 269.045 106.62 269.045 106.62 269.045 106.62 
z
" style="fill: #ffffff"/>
   </g>
   <g id="matplotlib.axis_3">
    <g id="xtick_4">
     <g id="line2d_18">
      <path d="M 269.045 106.62 
L 322.205 106.62 
" clip-path="url(#p01b19103d5)" style="fill: none; stroke: #b0b0b0; stroke-width: 0.8; stroke-linecap: square"/>
     </g>
     <g id="text_5">
      <!-- 0° -->
      <g transform="translate(330.52375 109.379375) scale(0.1 -0.1)">
       <use xlink:href="#DejaVuSans-30"/>
       <use xlink:href="#DejaVuSans-b0" x="63.623047"/>
      </g>
     </g>
    </g>
    <g id="xtick_5">
     <g id="line2d_19">
      <path d="M 269.045 106.62 
L 269.045 53.46 
" clip-path="url(#p01b19103d5)" style="fill: none; stroke: #b0b0b0; stroke-width: 0.8; stroke-linecap: square"/>
     </g>
     <g id="text_6">
      <!-- 90° -->
      <g transform="translate(260.1825 42.219375) scale(0.1 -0.1)">
       <use xlink:href="#DejaVuSans-39"/>
       <use xlink:href="#DejaVuSans-30" x="63.623047"/>
       <use xlink:href="#DejaVuSans-b0" x="127.246094"/>
      </g>
     </g>
    </g>
    <g id="xtick_6">
     <g id="line2d_20">
      <path d="M 269.045 106.62 
L 215.885 106.62 
" clip-path="url(#p01b19103d5)" style="fill: none; stroke: #b0b0b0; stroke-width: 0.8; stroke-linecap: square"/>
     </g>
     <g id="text_7">
      <!-- 180° -->
      <g transform="translate(189.84125 109.379375) scale(0.1 -0.1)">
       <use xlink:href="#DejaVuSans-31"/>
       <use xlink:href="#DejaVuSans-38" x="63.623047"/>
       <use xlink:href="#DejaVuSans-30" x="127.246094"/>
       <use xlink:href="#DejaVuSans-b0" x="190.869141"/>
      </g>
     </g>
    </g>
   </g>
   <g id="matplotlib.axis_4"/>
   <g id="line2d_21">
    <path d="M 269.045 106.62 
L 269.045 106.62 
L 269.045 106.62 
L 269.045 106.62 
L 269.045 106.62 
L 269.045 106.62 
L 269.045 106.62 
L 269.045 106.62 
L 269.045 106.62 
L 269.045 106.62 
L 269.045 106.62 
L 269.045 106.62 
L 269.045 106.62 
L 269.045 106.62 
L 269.045 106.62 
L 269.045 106.62 
L 269.045 106.62 
L 269.045 106.62 
L 269.045 106.62 
L 269.045 106.62 
L 269.045 106.62 
L 269.045 106.62 
L 269.045 106.62 
L 269.045 106.62 
L 269.045 106.62 
L 269.045 106.62 
L 269.045 106.62 
L 269.045 106.62 
L 269.045 106.62 
L 269.045 106.62 
L 269.045 106.62 
L 269.045 106.62 
L 269.045 106.62 
L 269.045 106.62 
L 269.045 106.62 
L 269.045 106.62 
L 269.045 106.62 
L 269.045 106.62 
L 269.045 106.62 
L 269.045 106.62 
L 269.045 106.62 
L 269.045 106.62 
L 269.045 106.62 
L 269.045 106.62 
L 269.045 106.62 
" clip-path="url(#p01b19103d5)" style="fill: none; stroke: #1f77b4; stroke-width: 1.5; stroke-linecap: square"/>
   </g>
   <g id="line2d_22">
    <path d="M 275.251342 106.511668 
L 276.191087 105.986229 
L 277.499259 105.260343 
L 278.626923 104.371778 
L 279.531918 103.359164 
L 280.183325 102.268184 
L 280.562357 101.148917 
L 281.379144 99.648134 
L 281.959821 98.057124 
L 282.177765 96.50143 
L 282.036948 95.05199 
L 281.556375 93.776714 
L 280.769163 92.737393 
L 279.720983 91.98689 
L 278.467946 91.566721 
L 277.074027 91.505136 
L 275.608128 91.815802 
L 274.142092 92.493936 
L 272.758643 93.47238 
L 271.768226 93.475291 
L 270.774997 93.716748 
L 269.824002 94.127423 
L 268.934245 93.928786 
L 268.019535 93.785519 
L 267.084439 93.71181 
L 266.139855 93.73362 
L 265.199709 93.861836 
L 264.137497 93.728641 
L 262.932541 93.457304 
L 261.714061 93.382256 
L 260.5186 93.513272 
L 259.390967 93.861392 
L 258.376684 94.425875 
L 257.518544 95.193695 
L 256.855806 96.142367 
L 256.418424 97.238014 
L 256.231078 98.442333 
L 256.31296 99.713604 
L 256.665537 101.002058 
L 257.282012 102.259188 
L 258.150496 103.439852 
L 259.23837 104.498917 
L 260.516994 105.400762 
L 261.939217 106.114617 
L 263.041614 106.62 
" clip-path="url(#p01b19103d5)" style="fill: none; stroke: #ff7f0e; stroke-width: 1.5; stroke-linecap: square"/>
   </g>
   <g id="line2d_23">
    <path d="M 277.887416 106.465655 
L 279.228136 105.716879 
L 281.093942 104.682228 
L 282.701823 103.415678 
L 283.993033 101.97201 
L 284.922881 100.416409 
L 285.464529 98.820242 
L 286.63041 96.67986 
L 287.457089 94.412287 
L 287.766479 92.19542 
L 287.564331 90.130417 
L 286.877828 88.31409 
L 285.754272 86.834515 
L 284.25886 85.767017 
L 282.471666 85.170727 
L 280.483956 85.085851 
L 278.394013 85.531787 
L 276.303583 86.503588 
L 274.354459 87.822622 
L 272.938119 87.828347 
L 271.51826 88.173091 
L 270.154636 88.82515 
L 268.887335 88.55339 
L 267.585144 88.348779 
L 266.253402 88.240318 
L 264.908095 88.269891 
L 263.568044 88.448191 
L 262.043571 88.228177 
L 260.325386 87.843001 
L 258.588144 87.737673 
L 256.883598 87.925568 
L 255.276581 88.42389 
L 253.831409 89.230524 
L 252.609021 90.32683 
L 251.665337 91.680724 
L 251.042715 93.243674 
L 250.776776 94.961473 
L 250.894698 96.77451 
L 251.398182 98.611672 
L 252.278127 100.404132 
L 253.517095 102.087345 
L 255.068978 103.597116 
L 256.89271 104.882603 
L 258.921266 105.899972 
L 260.493067 106.62 
" clip-path="url(#p01b19103d5)" style="fill: none; stroke: #2ca02c; stroke-width: 1.5; stroke-linecap: square"/>
   </g>
   <g id="line2d_24">
    <path d="M 278.791936 106.449867 
L 280.273274 105.624188 
L 282.333073 104.482945 
L 284.107781 103.085796 
L 285.533705 101.492949 
L 286.561012 99.776381 
L 287.160039 98.014825 
L 288.451103 95.650715 
L 289.36259 93.148888 
L 289.703148 90.70325 
L 289.479178 88.42544 
L 288.720738 86.42229 
L 287.480082 84.790979 
L 285.829211 83.614605 
L 283.856534 82.958381 
L 281.662808 82.866629 
L 279.356519 83.360698 
L 277.049572 84.436157 
L 274.912968 85.845301 
L 273.347428 85.852657 
L 271.778304 86.233543 
L 270.27129 86.954417 
L 268.871128 86.696241 
L 267.434971 86.469246 
L 265.966095 86.348712 
L 264.48225 86.380968 
L 263.003788 86.576064 
L 261.315102 86.314586 
L 259.418728 85.890585 
L 257.501512 85.775501 
L 255.62027 85.983588 
L 253.847435 86.535155 
L 252.253538 87.426981 
L 250.9058 88.638408 
L 249.865882 90.133942 
L 249.180084 91.859674 
L 248.888271 93.756255 
L 249.020115 95.757657 
L 249.576992 97.785195 
L 250.549575 99.763318 
L 251.917937 101.620545 
L 253.631699 103.286246 
L 255.645158 104.704243 
L 257.884596 105.826242 
L 259.619396 106.62 
" clip-path="url(#p01b19103d5)" style="fill: none; stroke: #d62728; stroke-width: 1.5; stroke-linecap: square"/>
   </g>
   <g id="line2d_25">
    <path d="M 279.760166 106.432966 
L 281.392548 105.524922 
L 283.660395 104.269478 
L 285.613371 102.732537 
L 287.183776 100.979871 
L 288.315729 99.090802 
L 288.976524 97.151941 
L 290.396444 94.551112 
L 291.398035 91.799333 
L 291.771328 89.109753 
L 291.523455 86.605219 
L 290.687581 84.403269 
L 289.321292 82.610798 
L 287.503893 81.31919 
L 285.332735 80.600132 
L 282.918736 80.50231 
L 280.381306 81.049126 
L 277.843068 82.237064 
L 275.514188 83.716769 
L 273.787994 83.726092 
L 272.058219 84.145786 
L 270.396873 84.940477 
L 268.853855 84.716965 
L 267.274796 84.464526 
L 265.659773 84.33191 
L 264.028251 84.367161 
L 262.40222 84.580142 
L 260.534011 84.262764 
L 258.446568 83.797117 
L 256.336355 83.671534 
L 254.265276 83.900701 
L 252.314868 84.509739 
L 250.561917 85.493422 
L 249.080396 86.828865 
L 247.938089 88.476843 
L 247.185039 90.377287 
L 246.866276 92.465846 
L 247.013796 94.669345 
L 247.62806 96.900747 
L 248.700375 99.077777 
L 250.207312 101.121207 
L 252.094614 102.953789 
L 254.31108 104.513511 
L 256.776235 105.747412 
L 258.684741 106.62 
" clip-path="url(#p01b19103d5)" style="fill: none; stroke: #9467bd; stroke-width: 1.5; stroke-linecap: square"/>
   </g>
   <g id="line2d_26">
    <path d="M 280.876898 106.413473 
L 282.682228 105.410543 
L 285.188764 104.023678 
L 287.345291 102.326174 
L 289.081206 100.389878 
L 290.333004 98.302639 
L 291.064488 96.160097 
L 292.619553 93.294501 
L 293.723577 90.257436 
L 294.133679 87.289602 
L 293.857869 84.526661 
L 292.932904 82.098381 
L 291.422502 80.122752 
L 289.414352 78.700606 
L 287.016056 77.911005 
L 284.350174 77.807589 
L 281.548618 78.416064 
L 278.746631 79.732932 
L 276.205181 81.270408 
L 274.294404 81.281709 
L 272.379991 81.74584 
L 270.541282 82.624645 
L 268.834149 82.458877 
L 267.092008 82.176792 
L 265.310259 82.030738 
L 263.510309 82.069719 
L 261.716036 82.303476 
L 259.638332 81.909935 
L 257.331577 81.396072 
L 254.998906 81.256454 
L 252.710101 81.510095 
L 250.555834 82.18503 
L 248.620441 83.27427 
L 246.985662 84.752331 
L 245.726286 86.575613 
L 244.896043 88.676482 
L 244.546712 90.985532 
L 244.712499 93.421025 
L 245.392102 95.886044 
L 246.578712 98.291227 
L 248.243817 100.548055 
L 250.329634 102.572041 
L 252.777972 104.294325 
L 255.501184 105.656727 
L 257.607089 106.62 
" clip-path="url(#p01b19103d5)" style="fill: none; stroke: #8c564b; stroke-width: 1.5; stroke-linecap: square"/>
   </g>
   <g id="line2d_27">
    <path d="M 281.892097 106.395753 
L 283.856744 105.306378 
L 286.58161 103.799674 
L 288.923662 101.955838 
L 290.811074 99.851987 
L 292.172775 97.583829 
L 292.96936 95.255226 
L 294.641808 92.151423 
L 295.83857 88.855139 
L 296.281667 85.634614 
L 295.979941 82.637171 
L 294.973445 80.003706 
L 293.331511 77.86229 
L 291.149484 76.322335 
L 288.544316 75.469588 
L 285.649182 75.36217 
L 282.607382 76.027851 
L 279.565804 77.46268 
L 276.836248 79.036206 
L 274.756993 79.048843 
L 272.67391 79.553628 
L 270.673255 80.508246 
L 268.816231 80.405666 
L 266.925808 80.096678 
L 264.992579 79.939157 
L 263.039726 79.982351 
L 261.092936 80.236113 
L 258.820533 79.761683 
L 256.313526 79.203779 
L 253.776794 79.049641 
L 251.289802 79.326821 
L 248.949725 80.062424 
L 246.848368 81.248751 
L 245.074584 82.857858 
L 243.709516 84.84203 
L 242.809551 87.126147 
L 242.433598 89.636972 
L 242.617297 92.284498 
L 243.356957 94.962472 
L 244.648696 97.575726 
L 246.458182 100.026821 
L 248.725364 102.225052 
L 251.384909 104.095161 
L 254.343187 105.574367 
L 256.62801 106.62 
" clip-path="url(#p01b19103d5)" style="fill: none; stroke: #e377c2; stroke-width: 1.5; stroke-linecap: square"/>
   </g>
   <g id="line2d_28">
    <path d="M 282.784759 106.380172 
L 284.892403 105.214527 
L 287.810411 103.602052 
L 290.31751 101.628797 
L 292.338293 99.377109 
L 293.797793 96.948923 
L 294.652629 94.455624 
L 296.422932 91.144644 
L 297.701026 87.62028 
L 298.172797 84.177531 
L 297.847841 80.973996 
L 296.769146 78.160368 
L 295.011009 75.873592 
L 292.675547 74.230626 
L 289.887969 73.323087 
L 286.790813 73.213019 
L 283.537426 73.929987 
L 280.28496 75.469614 
L 277.393526 77.063243 
L 275.165667 77.076221 
L 272.933558 77.617038 
L 270.789927 78.637207 
L 268.800456 78.598046 
L 266.779547 78.266113 
L 264.713145 78.099378 
L 262.625995 78.147161 
L 260.545452 78.419632 
L 258.097396 77.8621 
L 255.413305 77.265223 
L 252.695853 77.097746 
L 250.033788 77.396084 
L 247.529795 78.185868 
L 245.282337 79.458743 
L 243.386572 81.184513 
L 241.929215 83.311712 
L 240.968336 85.75806 
L 240.570119 88.447726 
L 240.770887 91.282928 
L 241.564084 94.148846 
L 242.949603 96.945832 
L 244.886762 99.568118 
L 247.314483 101.919891 
L 250.1603 103.92008 
L 253.325892 105.502014 
L 255.767634 106.62 
" clip-path="url(#p01b19103d5)" style="fill: none; stroke: #7f7f7f; stroke-width: 1.5; stroke-linecap: square"/>
   </g>
   <g id="line2d_29">
    <path d="M 283.561514 106.366613 
L 285.79712 105.13429 
L 288.884081 103.429379 
L 291.537906 101.342454 
L 293.673864 98.961822 
L 295.219646 96.393396 
L 296.126188 93.75564 
L 297.976057 90.266741 
L 299.324794 86.543678 
L 299.82126 82.907418 
L 299.47573 79.524526 
L 298.33377 76.554237 
L 296.474028 74.141228 
L 294.004545 72.409027 
L 291.057744 71.454355 
L 287.784347 71.342663 
L 284.346469 72.105059 
L 280.910219 73.736772 
L 277.880043 75.340798 
L 275.522667 75.353023 
L 273.160353 75.92548 
L 270.89194 77.001264 
L 268.786707 77.022584 
L 266.652168 76.671856 
L 264.469923 76.498028 
L 262.266078 76.550674 
L 260.069464 76.840367 
L 257.464198 76.198772 
L 254.62508 75.567844 
L 251.749326 75.388568 
L 248.934273 75.705915 
L 246.287244 76.543734 
L 243.912557 77.893053 
L 241.910883 79.721646 
L 240.372987 81.974004 
L 239.360257 84.563201 
L 238.943703 87.40977 
L 239.160535 90.409405 
L 240.001 93.4395 
L 241.469368 96.397075 
L 243.518292 99.168656 
L 246.086691 101.654331 
L 249.09508 103.767787 
L 252.441596 105.439121 
L 255.019404 106.62 
" clip-path="url(#p01b19103d5)" style="fill: none; stroke: #bcbd22; stroke-width: 1.5; stroke-linecap: square"/>
   </g>
   <g id="line2d_30">
    <path d="M 284.494414 106.350329 
L 286.882132 105.038062 
L 290.16982 103.2226 
L 292.998157 100.999833 
L 295.269955 98.465528 
L 296.918092 95.729803 
L 297.88586 92.919745 
L 299.811734 89.229126 
L 301.243711 85.271384 
L 301.769077 81.406659 
L 301.398927 77.812114 
L 300.181897 74.657082 
L 298.201797 72.095373 
L 295.573687 70.258272 
L 292.438537 69.248521 
L 288.956752 69.135579 
L 285.300822 69.95236 
L 281.647452 71.693607 
L 278.455507 73.303452 
L 275.945341 73.312819 
L 273.428882 73.92264 
L 271.012889 75.061653 
L 268.770475 75.162559 
L 266.501907 74.79123 
L 264.183138 74.609852 
L 261.841822 74.668798 
L 259.508516 74.979219 
L 256.712892 74.225192 
L 253.689599 73.553359 
L 250.625672 73.359545 
L 247.628905 73.699312 
L 244.811993 74.594066 
L 242.286206 76.034097 
L 240.158774 77.98476 
L 238.523916 80.384573 
L 237.450372 83.14409 
L 237.011968 86.176963 
L 237.247732 89.37182 
L 238.143293 92.596452 
L 239.70955 95.74467 
L 241.88983 98.693302 
L 244.624308 101.338032 
L 247.824121 103.586079 
L 251.384051 105.363905 
L 254.120742 106.62 
" clip-path="url(#p01b19103d5)" style="fill: none; stroke: #17becf; stroke-width: 1.5; stroke-linecap: square"/>
   </g>
   <g id="line2d_31">
    <path d="M 285.246211 106.337207 
L 287.760706 104.960143 
L 291.213197 103.054798 
L 294.185131 100.721331 
L 296.571392 98.060855 
L 298.301524 95.189287 
L 299.320502 92.238247 
L 301.308286 88.383202 
L 302.808016 84.234207 
L 303.356813 80.183335 
L 302.966452 76.416392 
L 301.688079 73.110942 
L 299.609725 70.428242 
L 296.85218 68.505895 
L 293.563393 67.451548 
L 289.911671 67.337918 
L 286.077967 68.199384 
L 282.247628 70.030282 
L 278.924497 71.643058 
L 276.289999 71.649193 
L 273.647946 72.288744 
L 271.111596 73.478726 
L 268.75725 73.647078 
L 266.379569 73.260069 
L 263.949725 73.073078 
L 261.496639 73.137667 
L 259.052268 73.465446 
L 256.098135 72.610306 
L 252.924395 71.905554 
L 249.706968 71.700607 
L 246.562182 72.059552 
L 243.607115 73.001721 
L 240.958729 74.516761 
L 238.729613 76.568017 
L 237.016384 79.088723 
L 235.894506 81.988027 
L 235.43972 85.173576 
L 235.690446 88.527082 
L 236.633903 91.911473 
L 238.2814 95.215221 
L 240.569551 98.307907 
L 243.440422 101.081968 
L 246.796682 103.439188 
L 250.530913 105.303228 
L 253.397063 106.62 
" clip-path="url(#p01b19103d5)" style="fill: none; stroke: #1f77b4; stroke-width: 1.5; stroke-linecap: square"/>
   </g>
   <g id="line2d_32">
    <path d="M 285.800458 106.327532 
L 288.412419 104.902344 
L 291.989468 102.929954 
L 295.07019 100.513669 
L 297.544768 97.758191 
L 299.336219 94.785025 
L 300.394851 91.7279 
L 302.430827 87.748686 
L 303.981286 83.456298 
L 304.547548 79.265894 
L 304.141906 75.36977 
L 302.817399 71.951663 
L 300.665231 69.178415 
L 297.810501 67.192367 
L 294.406399 66.104836 
L 290.627165 65.990981 
L 286.660109 66.886269 
L 282.697062 68.784722 
L 279.27614 70.398116 
L 276.548462 70.401625 
L 273.812826 71.058981 
L 271.185647 72.291188 
L 268.747352 72.512962 
L 266.28806 72.11477 
L 263.775144 71.923652 
L 261.238476 71.99253 
L 258.711056 72.333351 
L 255.63538 71.39471 
L 252.348608 70.665642 
L 249.015976 70.452857 
L 245.760279 70.826873 
L 242.701882 71.80538 
L 239.962045 73.377529 
L 237.6574 75.505121 
L 235.886101 78.117149 
L 234.729083 81.122077 
L 234.263297 84.422799 
L 234.525482 87.895157 
L 235.507036 91.400088 
L 237.21682 94.820557 
L 239.586755 98.021025 
L 242.560966 100.89175 
L 246.035115 103.330308 
L 249.900575 105.258396 
L 252.863976 106.62 
" clip-path="url(#p01b19103d5)" style="fill: none; stroke: #ff7f0e; stroke-width: 1.5; stroke-linecap: square"/>
   </g>
   <g id="line2d_33">
    <path d="M 286.152785 106.321382 
L 288.831199 104.865204 
L 292.490748 102.849336 
L 295.643737 100.379096 
L 298.177294 97.561511 
L 300.010356 94.521635 
L 301.096253 91.394713 
L 303.169362 87.33123 
L 304.751521 82.945611 
L 305.329117 78.663709 
L 304.913301 74.682921 
L 303.558362 71.191043 
L 301.357602 68.358578 
L 298.438953 66.330975 
L 294.959057 65.221956 
L 291.096059 65.108275 
L 287.041445 66.026104 
L 282.991307 67.969251 
L 279.50696 69.580932 
L 276.71803 69.583139 
L 273.920975 70.252351 
L 271.234206 71.512467 
L 268.740886 71.771957 
L 266.228283 71.366609 
L 263.661079 71.172655 
L 261.069775 71.244223 
L 258.488055 71.593464 
L 255.330393 70.59355 
L 251.969289 69.848807 
L 248.560925 69.631156 
L 245.232564 70.015672 
L 242.106656 71.018739 
L 239.307308 72.62915 
L 236.953821 74.807654 
L 235.14528 77.480352 
L 233.966292 80.555297 
L 233.494541 83.93219 
L 233.765429 87.482871 
L 234.773371 91.067142 
L 236.525402 94.564232 
L 238.950102 97.835184 
L 241.993272 100.768963 
L 245.545573 103.260319 
L 249.497869 105.229755 
L 252.52549 106.62 
" clip-path="url(#p01b19103d5)" style="fill: none; stroke: #2ca02c; stroke-width: 1.5; stroke-linecap: square"/>
   </g>
   <g id="line2d_34">
    <path d="M 286.31463 106.318557 
L 289.030615 104.847518 
L 292.732933 102.810387 
L 295.923572 100.313438 
L 298.488241 97.464824 
L 300.344442 94.391106 
L 301.44572 91.228706 
L 303.547881 87.117272 
L 305.145677 82.684275 
L 305.728926 78.355663 
L 305.307751 74.331703 
L 303.937091 70.802266 
L 301.711328 67.93973 
L 298.759856 65.891126 
L 295.241091 64.771404 
L 291.33518 64.658123 
L 287.235754 65.587809 
L 283.141088 67.554148 
L 279.624875 69.16347 
L 276.804447 69.166012 
L 273.975962 69.842224 
L 271.25887 71.116931 
L 268.7376 71.395481 
L 266.19791 70.986467 
L 263.603119 70.791048 
L 260.98407 70.86406 
L 258.374791 71.217671 
L 255.173553 70.181551 
L 251.774085 69.428451 
L 248.327509 69.209668 
L 244.962448 69.600452 
L 241.802709 70.617048 
L 238.973856 72.248007 
L 236.59654 74.453477 
L 234.770429 77.158136 
L 233.581705 80.269535 
L 233.108522 83.685838 
L 233.385637 87.276857 
L 234.408765 90.90168 
L 236.184046 94.437684 
L 238.63833 97.744176 
L 241.718134 100.709453 
L 245.311559 103.226862 
L 249.309154 105.216333 
L 252.370527 106.62 
" clip-path="url(#p01b19103d5)" style="fill: none; stroke: #d62728; stroke-width: 1.5; stroke-linecap: square"/>
   </g>
   <g id="patch_7">
    <path d="M 322.205 106.62 
C 322.205 92.526499 316.600407 78.995814 306.634796 69.030204 
C 296.669186 59.064593 283.138501 53.46 269.045 53.46 
C 254.951499 53.46 241.420814 59.064593 231.455204 69.030204 
C 221.489593 78.995814 215.885 92.526499 215.885 106.62 
" style="fill: none; stroke: #000000; stroke-width: 0.8; stroke-linejoin: miter; stroke-linecap: square"/>
   </g>
   <g id="patch_8">
    <path d="M 269.045 106.62 
L 322.205 106.62 
" style="fill: none; stroke: #000000; stroke-width: 0.8; stroke-linejoin: miter; stroke-linecap: square"/>
   </g>
   <g id="patch_9">
    <path d="M 269.045 106.62 
L 215.885 106.62 
" style="fill: none; stroke: #000000; stroke-width: 0.8; stroke-linejoin: miter; stroke-linecap: square"/>
   </g>
   <g id="text_8">
    <!-- Y -->
    <g transform="translate(265.380312 20.88) scale(0.12 -0.12)">
     <defs>
      <path id="DejaVuSans-59" d="M -13 4666 
L 666 4666 
L 1959 2747 
L 3244 4666 
L 3922 4666 
L 2272 2222 
L 2272 0 
L 1638 0 
L 1638 2222 
L -13 4666 
z
" transform="scale(0.015625)"/>
     </defs>
     <use xlink:href="#DejaVuSans-59"/>
    </g>
   </g>
  </g>
 </g>
 <defs>
  <clipPath id="p2fc56cfda1">
   <path d="M 150.505 106.62 
C 150.505 92.526499 144.900407 78.995814 134.934796 69.030204 
C 124.969186 59.064593 111.438501 53.46 97.345 53.46 
C 83.251499 53.46 69.720814 59.064593 59.755204 69.030204 
C 49.789593 78.995814 44.185 92.526499 44.185 106.62 
L 97.345 106.62 
C 97.345 106.62 97.345 106.62 97.345 106.62 
C 97.345 106.62 97.345 106.62 97.345 106.62 
C 97.345 106.62 97.345 106.62 97.345 106.62 
C 97.345 106.62 97.345 106.62 97.345 106.62 
z
"/>
  </clipPath>
  <clipPath id="p01b19103d5">
   <path d="M 322.205 106.62 
C 322.205 92.526499 316.600407 78.995814 306.634796 69.030204 
C 296.669186 59.064593 283.138501 53.46 269.045 53.46 
C 254.951499 53.46 241.420814 59.064593 231.455204 69.030204 
C 221.489593 78.995814 215.885 92.526499 215.885 106.62 
L 269.045 106.62 
C 269.045 106.62 269.045 106.62 269.045 106.62 
C 269.045 106.62 269.045 106.62 269.045 106.62 
C 269.045 106.62 269.045 106.62 269.045 106.62 
C 269.045 106.62 269.045 106.62 269.045 106.62 
z
"/>
  </clipPath>
 </defs>
</svg>
