<?xml version="1.0" encoding="utf-8" standalone="no"?>
<!DOCTYPE svg PUBLIC "-//W3C//DTD SVG 1.1//EN"
  "http://www.w3.org/Graphics/SVG/1.1/DTD/svg11.dtd">
<svg xmlns:xlink="http://www.w3.org/1999/xlink" width="360pt" height="144pt" viewBox="0 0 360 144" xmlns="http://www.w3.org/2000/svg" version="1.1">
 <metadata>
  <rdf:RDF xmlns:dc="http://purl.org/dc/elements/1.1/" xmlns:cc="http://creativecommons.org/ns#" xmlns:rdf="http://www.w3.org/1999/02/22-rdf-syntax-ns#">
   <cc:Work>
    <dc:type rdf:resource="http://purl.org/dc/dcmitype/StillImage"/>
    <dc:date>2023-06-20T07:11:43.814759</dc:date>
    <dc:format>image/svg+xml</dc:format>
    <dc:creator>
     <cc:Agent>
      <dc:title>Matplotlib v3.7.1, https://matplotlib.org/</dc:title>
     </cc:Agent>
    </dc:creator>
   </cc:Work>
  </rdf:RDF>
 </metadata>
 <defs>
  <style type="text/css">*{stroke-linejoin: round; stroke-linecap: butt}</style>
 </defs>
 <g id="figure_1">
  <g id="patch_1">
   <path d="M 0 144 
L 360 144 
L 360 0 
L 0 0 
z
" style="fill: #ffffff"/>
  </g>
  <g id="axes_1">
   <g id="patch_2">
    <path d="M 150.505 106.62 
C 150.505 92.526499 144.900407 78.995814 134.934796 69.030204 
C 124.969186 59.064593 111.438501 53.46 97.345 53.46 
C 83.251499 53.46 69.720814 59.064593 59.755204 69.030204 
C 49.789593 78.995814 44.185 92.526499 44.185 106.62 
L 97.345 106.62 
C 97.345 106.62 97.345 106.62 97.345 106.62 
C 97.345 106.62 97.345 106.62 97.345 106.62 
C 97.345 106.62 97.345 106.62 97.345 106.62 
C 97.345 106.62 97.345 106.62 97.345 106.62 
z
" style="fill: #ffffff"/>
   </g>
   <g id="matplotlib.axis_1">
    <g id="xtick_1">
     <g id="line2d_1">
      <path d="M 97.345 106.62 
L 150.505 106.62 
" clip-path="url(#p0d7a1720a3)" style="fill: none; stroke: #b0b0b0; stroke-width: 0.8; stroke-linecap: square"/>
     </g>
     <g id="text_1">
      <!-- 0° -->
      <g transform="translate(158.82375 109.379375) scale(0.1 -0.1)">
       <defs>
        <path id="DejaVuSans-30" d="M 2034 4250 
Q 1547 4250 1301 3770 
Q 1056 3291 1056 2328 
Q 1056 1369 1301 889 
Q 1547 409 2034 409 
Q 2525 409 2770 889 
Q 3016 1369 3016 2328 
Q 3016 3291 2770 3770 
Q 2525 4250 2034 4250 
z
M 2034 4750 
Q 2819 4750 3233 4129 
Q 3647 3509 3647 2328 
Q 3647 1150 3233 529 
Q 2819 -91 2034 -91 
Q 1250 -91 836 529 
Q 422 1150 422 2328 
Q 422 3509 836 4129 
Q 1250 4750 2034 4750 
z
" transform="scale(0.015625)"/>
        <path id="DejaVuSans-b0" d="M 1600 4347 
Q 1350 4347 1178 4173 
Q 1006 4000 1006 3750 
Q 1006 3503 1178 3333 
Q 1350 3163 1600 3163 
Q 1850 3163 2022 3333 
Q 2194 3503 2194 3750 
Q 2194 3997 2020 4172 
Q 1847 4347 1600 4347 
z
M 1600 4750 
Q 1800 4750 1984 4673 
Q 2169 4597 2303 4453 
Q 2447 4313 2519 4134 
Q 2591 3956 2591 3750 
Q 2591 3338 2302 3052 
Q 2013 2766 1594 2766 
Q 1172 2766 890 3047 
Q 609 3328 609 3750 
Q 609 4169 896 4459 
Q 1184 4750 1600 4750 
z
" transform="scale(0.015625)"/>
       </defs>
       <use xlink:href="#DejaVuSans-30"/>
       <use xlink:href="#DejaVuSans-b0" x="63.623047"/>
      </g>
     </g>
    </g>
    <g id="xtick_2">
     <g id="line2d_2">
      <path d="M 97.345 106.62 
L 97.345 53.46 
" clip-path="url(#p0d7a1720a3)" style="fill: none; stroke: #b0b0b0; stroke-width: 0.8; stroke-linecap: square"/>
     </g>
     <g id="text_2">
      <!-- 90° -->
      <g transform="translate(88.4825 42.219375) scale(0.1 -0.1)">
       <defs>
        <path id="DejaVuSans-39" d="M 703 97 
L 703 672 
Q 941 559 1184 500 
Q 1428 441 1663 441 
Q 2288 441 2617 861 
Q 2947 1281 2994 2138 
Q 2813 1869 2534 1725 
Q 2256 1581 1919 1581 
Q 1219 1581 811 2004 
Q 403 2428 403 3163 
Q 403 3881 828 4315 
Q 1253 4750 1959 4750 
Q 2769 4750 3195 4129 
Q 3622 3509 3622 2328 
Q 3622 1225 3098 567 
Q 2575 -91 1691 -91 
Q 1453 -91 1209 -44 
Q 966 3 703 97 
z
M 1959 2075 
Q 2384 2075 2632 2365 
Q 2881 2656 2881 3163 
Q 2881 3666 2632 3958 
Q 2384 4250 1959 4250 
Q 1534 4250 1286 3958 
Q 1038 3666 1038 3163 
Q 1038 2656 1286 2365 
Q 1534 2075 1959 2075 
z
" transform="scale(0.015625)"/>
       </defs>
       <use xlink:href="#DejaVuSans-39"/>
       <use xlink:href="#DejaVuSans-30" x="63.623047"/>
       <use xlink:href="#DejaVuSans-b0" x="127.246094"/>
      </g>
     </g>
    </g>
    <g id="xtick_3">
     <g id="line2d_3">
      <path d="M 97.345 106.62 
L 44.185 106.62 
" clip-path="url(#p0d7a1720a3)" style="fill: none; stroke: #b0b0b0; stroke-width: 0.8; stroke-linecap: square"/>
     </g>
     <g id="text_3">
      <!-- 180° -->
      <g transform="translate(18.14125 109.379375) scale(0.1 -0.1)">
       <defs>
        <path id="DejaVuSans-31" d="M 794 531 
L 1825 531 
L 1825 4091 
L 703 3866 
L 703 4441 
L 1819 4666 
L 2450 4666 
L 2450 531 
L 3481 531 
L 3481 0 
L 794 0 
L 794 531 
z
" transform="scale(0.015625)"/>
        <path id="DejaVuSans-38" d="M 2034 2216 
Q 1584 2216 1326 1975 
Q 1069 1734 1069 1313 
Q 1069 891 1326 650 
Q 1584 409 2034 409 
Q 2484 409 2743 651 
Q 3003 894 3003 1313 
Q 3003 1734 2745 1975 
Q 2488 2216 2034 2216 
z
M 1403 2484 
Q 997 2584 770 2862 
Q 544 3141 544 3541 
Q 544 4100 942 4425 
Q 1341 4750 2034 4750 
Q 2731 4750 3128 4425 
Q 3525 4100 3525 3541 
Q 3525 3141 3298 2862 
Q 3072 2584 2669 2484 
Q 3125 2378 3379 2068 
Q 3634 1759 3634 1313 
Q 3634 634 3220 271 
Q 2806 -91 2034 -91 
Q 1263 -91 848 271 
Q 434 634 434 1313 
Q 434 1759 690 2068 
Q 947 2378 1403 2484 
z
M 1172 3481 
Q 1172 3119 1398 2916 
Q 1625 2713 2034 2713 
Q 2441 2713 2670 2916 
Q 2900 3119 2900 3481 
Q 2900 3844 2670 4047 
Q 2441 4250 2034 4250 
Q 1625 4250 1398 4047 
Q 1172 3844 1172 3481 
z
" transform="scale(0.015625)"/>
       </defs>
       <use xlink:href="#DejaVuSans-31"/>
       <use xlink:href="#DejaVuSans-38" x="63.623047"/>
       <use xlink:href="#DejaVuSans-30" x="127.246094"/>
       <use xlink:href="#DejaVuSans-b0" x="190.869141"/>
      </g>
     </g>
    </g>
   </g>
   <g id="matplotlib.axis_2"/>
   <g id="line2d_4">
    <path d="M 97.345 106.62 
L 97.345 106.62 
L 97.345 106.62 
L 97.345 106.62 
L 97.345 106.62 
L 97.345 106.62 
L 97.345 106.62 
L 97.345 106.62 
L 97.345 106.62 
L 97.345 106.62 
L 97.345 106.62 
L 97.345 106.62 
L 97.345 106.62 
L 97.345 106.62 
L 97.345 106.62 
L 97.345 106.62 
L 97.345 106.62 
L 97.345 106.62 
L 97.345 106.62 
L 97.345 106.62 
L 97.345 106.62 
L 97.345 106.62 
L 97.345 106.62 
L 97.345 106.62 
L 97.345 106.62 
L 97.345 106.62 
L 97.345 106.62 
L 97.345 106.62 
L 97.345 106.62 
L 97.345 106.62 
L 97.345 106.62 
L 97.345 106.62 
L 97.345 106.62 
L 97.345 106.62 
L 97.345 106.62 
L 97.345 106.62 
L 97.345 106.62 
L 97.345 106.62 
L 97.345 106.62 
L 97.345 106.62 
L 97.345 106.62 
L 97.345 106.62 
L 97.345 106.62 
L 97.345 106.62 
L 97.345 106.62 
" clip-path="url(#p0d7a1720a3)" style="fill: none; stroke: #1f77b4; stroke-width: 1.5; stroke-linecap: square"/>
   </g>
   <g id="line2d_5">
    <path d="M 111.795743 106.367761 
L 111.245174 105.387223 
L 110.518296 104.501404 
L 109.639885 103.735232 
L 108.639328 103.108105 
L 107.549349 102.633095 
L 106.404592 102.316428 
L 105.240129 102.157284 
L 104.089957 102.147911 
L 103.01481 102.251508 
L 102.167515 102.32604 
L 101.389774 102.467924 
L 100.67054 102.682221 
L 100.012103 102.964316 
L 99.421768 103.302337 
L 98.905803 103.681745 
L 98.473271 104.075002 
L 98.183571 104.295988 
L 97.93339 104.536889 
L 97.72836 104.769566 
L 97.568584 104.952392 
L 97.452344 104.898554 
L 97.326821 104.53687 
L 97.140576 104.061478 
L 96.869667 103.490439 
L 96.494448 102.847198 
L 96.000625 102.159544 
L 95.380056 101.458354 
L 94.631272 100.776202 
L 93.759694 100.145882 
L 92.777531 99.598915 
L 91.703363 99.164107 
L 90.561433 98.866231 
L 89.380676 98.724877 
L 88.193521 98.753537 
L 87.034532 98.958962 
L 85.938943 99.340813 
L 84.941153 99.89163 
L 84.073243 100.597125 
L 83.363596 101.43677 
L 82.835665 102.38467 
L 82.506962 103.41067 
L 82.388289 104.481659 
L 82.48328 105.562994 
L 82.78824 106.62 
" clip-path="url(#p0d7a1720a3)" style="fill: none; stroke: #ff7f0e; stroke-width: 1.5; stroke-linecap: square"/>
   </g>
   <g id="line2d_6">
    <path d="M 119.224426 106.238093 
L 118.412647 104.751555 
L 117.332449 103.405517 
L 116.020657 102.238101 
L 114.521174 101.279185 
L 112.883081 100.549171 
L 111.158511 100.058177 
L 109.4004 99.805694 
L 107.660225 99.780727 
L 106.014732 99.94012 
L 104.682958 100.086294 
L 103.478601 100.323683 
L 102.374239 100.664867 
L 101.370515 101.1024 
L 100.475434 101.619091 
L 99.696362 102.193497 
L 99.040755 102.794949 
L 98.585457 103.182203 
L 98.216003 103.53634 
L 97.912233 103.88203 
L 97.675181 104.157329 
L 97.505009 104.053996 
L 97.318026 103.529076 
L 97.042266 102.831044 
L 96.641238 101.98648 
L 96.084815 101.030187 
L 95.350838 100.003638 
L 94.426355 98.953107 
L 93.308438 97.927584 
L 92.004545 96.976545 
L 90.532394 96.147705 
L 88.919376 95.484837 
L 87.201508 95.025761 
L 85.421998 94.800594 
L 83.629457 94.830342 
L 81.87587 95.125897 
L 80.214387 95.68748 
L 78.697056 96.504568 
L 77.372584 97.556289 
L 76.284235 98.812287 
L 75.467962 100.234009 
L 74.950845 101.776353 
L 74.749915 103.389611 
L 74.871422 105.021618 
L 75.310561 106.62 
" clip-path="url(#p0d7a1720a3)" style="fill: none; stroke: #2ca02c; stroke-width: 1.5; stroke-linecap: square"/>
   </g>
   <g id="line2d_7">
    <path d="M 122.225262 106.185713 
L 121.318919 104.493804 
L 120.106187 102.959431 
L 118.628412 101.626239 
L 116.935068 100.528601 
L 115.081614 99.69019 
L 113.127089 99.123044 
L 111.131569 98.827152 
L 109.153598 98.79058 
L 107.285592 98.960944 
L 105.731006 99.153113 
L 104.338244 99.441234 
L 103.069091 99.842091 
L 101.921682 100.346939 
L 100.901195 100.938932 
L 100.015731 101.592276 
L 99.271679 102.274064 
L 98.732354 102.775093 
L 98.319621 103.169495 
L 97.979782 103.555978 
L 97.714304 103.865532 
L 97.524877 103.735382 
L 97.31477 103.155945 
L 97.006139 102.378887 
L 96.557301 101.433847 
L 95.933696 100.359867 
L 95.109723 99.203649 
L 94.070169 98.017454 
L 92.811161 96.856736 
L 91.340598 95.777632 
L 89.678041 94.834399 
L 87.854064 94.076939 
L 85.909097 93.548506 
L 83.891812 93.283704 
L 81.857118 93.306868 
L 79.863863 93.630906 
L 77.972342 94.256638 
L 76.24172 95.17269 
L 74.727491 96.355916 
L 73.479085 97.772353 
L 72.537728 99.378662 
L 71.934657 101.123979 
L 71.689762 102.952105 
L 71.810727 104.803933 
L 72.292699 106.62 
" clip-path="url(#p0d7a1720a3)" style="fill: none; stroke: #d62728; stroke-width: 1.5; stroke-linecap: square"/>
   </g>
   <g id="line2d_8">
    <path d="M 125.562313 106.127465 
L 124.562337 104.206152 
L 123.212938 102.459787 
L 121.560129 100.938366 
L 119.659269 99.681529 
L 117.572668 98.716919 
L 115.366883 98.059076 
L 113.109852 97.708929 
L 110.86798 97.653898 
L 108.765685 97.820558 
L 106.946758 98.07061 
L 105.326857 98.426394 
L 103.861809 98.903432 
L 102.546474 99.490564 
L 101.382783 100.16959 
L 100.376817 100.912521 
L 99.533817 101.682769 
L 98.879769 102.366546 
L 98.423985 102.80001 
L 98.048082 103.2263 
L 97.753915 103.570089 
L 97.545452 103.405421 
L 97.311466 102.777386 
L 96.969788 101.923927 
L 96.472828 100.877681 
L 95.780884 99.682037 
L 94.86425 98.389201 
L 93.704862 97.057841 
L 92.29742 95.750437 
L 90.649915 94.53044 
L 88.783548 93.459389 
L 86.732041 92.594092 
L 84.540369 91.984019 
L 82.262965 91.66901 
L 79.961487 91.677415 
L 77.702238 92.024743 
L 75.553359 92.712877 
L 73.58192 93.729902 
L 71.851039 95.050549 
L 70.417164 96.637228 
L 69.327625 98.441621 
L 68.618588 100.406744 
L 68.313484 102.469403 
L 68.421992 104.562917 
L 68.939626 106.62 
" clip-path="url(#p0d7a1720a3)" style="fill: none; stroke: #9467bd; stroke-width: 1.5; stroke-linecap: square"/>
   </g>
   <g id="line2d_9">
    <path d="M 128.986594 106.067694 
L 127.90108 103.910046 
L 126.421271 101.943807 
L 124.597632 100.225672 
L 122.491282 98.800934 
L 120.171332 97.701604 
L 117.7119 96.945124 
L 115.188911 96.533743 
L 112.680654 96.452047 
L 110.345739 96.603153 
L 108.257318 96.903689 
L 106.387548 97.337565 
L 104.707673 97.901843 
L 103.209223 98.582163 
L 101.891227 99.357343 
L 100.757821 100.195271 
L 99.810269 101.059186 
L 99.04836 101.899314 
L 98.521159 102.45598 
L 98.111941 102.918059 
L 97.791126 103.292553 
L 97.565334 103.086573 
L 97.308344 102.419638 
L 96.935779 101.498287 
L 96.393875 100.357863 
L 95.637467 99.04588 
L 94.632384 97.619903 
L 93.357339 96.144944 
L 91.805224 94.69053 
L 89.98376 93.32754 
L 87.915465 92.124977 
L 85.636931 91.146813 
L 83.197462 90.449047 
L 80.657116 90.077114 
L 78.084241 90.063764 
L 75.552618 90.4275 
L 73.138346 91.171649 
L 70.916592 92.284116 
L 68.958362 93.737819 
L 67.327446 95.491798 
L 66.077652 97.492941 
L 65.250479 99.678254 
L 64.873317 101.977567 
L 64.958255 104.316566 
L 65.501564 106.62 
" clip-path="url(#p0d7a1720a3)" style="fill: none; stroke: #8c564b; stroke-width: 1.5; stroke-linecap: square"/>
   </g>
   <g id="line2d_10">
    <path d="M 132.270872 106.010367 
L 131.113108 103.625178 
L 129.517356 101.445879 
L 127.538046 99.535758 
L 125.24155 97.945757 
L 122.703296 96.71235 
L 120.004507 95.856069 
L 117.228694 95.380757 
L 114.483108 95.256971 
L 111.916195 95.393144 
L 109.571796 95.73328 
L 107.455158 96.241633 
L 105.555929 96.897421 
L 103.870009 97.676451 
L 102.395092 98.552412 
L 101.132819 99.489327 
L 100.081067 100.448357 
L 99.237028 101.376441 
L 98.605639 102.15689 
L 98.167409 102.650321 
L 97.823592 103.050406 
L 97.58332 102.798145 
L 97.30559 102.104075 
L 96.906143 101.127365 
L 96.325185 99.905612 
L 95.512142 98.489976 
L 94.428333 96.942888 
L 93.049097 95.335233 
L 91.36528 93.743146 
L 89.38401 92.244548 
L 87.12872 90.915598 
L 84.638425 89.827205 
L 81.966274 89.041771 
L 79.177446 88.6103 
L 76.346485 88.570018 
L 73.55419 88.942599 
L 70.884203 89.733086 
L 68.419437 90.929554 
L 66.238524 92.503525 
L 64.412423 94.411131 
L 63.001352 96.594958 
L 62.052181 98.986492 
L 61.596395 101.50907 
L 61.64873 104.081184 
L 62.206536 106.62 
" clip-path="url(#p0d7a1720a3)" style="fill: none; stroke: #e377c2; stroke-width: 1.5; stroke-linecap: square"/>
   </g>
   <g id="line2d_11">
    <path d="M 135.346557 105.95668 
L 134.129893 103.357625 
L 132.433721 100.976854 
L 130.315906 98.883984 
L 127.847505 97.135453 
L 125.109677 95.772161 
L 122.190172 94.817814 
L 119.17954 94.278042 
L 116.227992 94.100066 
L 113.435968 94.222185 
L 110.852152 94.593253 
L 108.50047 95.16859 
L 106.386847 95.91353 
L 104.514608 96.792927 
L 102.885198 97.769461 
L 101.49508 98.80736 
L 100.341542 99.860813 
L 99.416954 100.877793 
L 98.710746 101.784771 
L 98.214065 102.425119 
L 97.859266 102.784326 
L 97.599084 102.545347 
L 97.303242 101.834992 
L 96.881199 100.815167 
L 96.267417 99.525275 
L 95.406101 98.019607 
L 94.254133 96.364915 
L 92.783442 94.637395 
L 90.982675 92.919236 
L 88.858098 91.29489 
L 86.433698 89.847214 
L 83.750457 88.653681 
L 80.864847 87.782815 
L 77.846606 87.291023 
L 74.775886 87.219956 
L 71.739919 87.594532 
L 68.829332 88.421696 
L 66.134286 89.689991 
L 63.740606 91.369941 
L 61.726087 93.415245 
L 60.15713 95.764718 
L 59.085863 98.344905 
L 58.547879 101.073228 
L 58.560697 103.861555 
L 59.122996 106.62 
" clip-path="url(#p0d7a1720a3)" style="fill: none; stroke: #7f7f7f; stroke-width: 1.5; stroke-linecap: square"/>
   </g>
   <g id="line2d_12">
    <path d="M 138.151009 105.907728 
L 136.887891 103.113024 
L 135.106892 100.546941 
L 132.868783 98.284999 
L 130.2487 96.388818 
L 127.332875 94.903543 
L 124.214906 93.856006 
L 121.006944 93.245104 
L 117.864315 93.015139 
L 114.863036 93.122653 
L 112.060355 93.517471 
L 109.491371 94.151402 
L 107.17695 94.977967 
L 105.128409 95.951616 
L 103.347623 97.030732 
L 101.83526 98.166962 
L 100.584651 99.312443 
L 99.584098 100.414571 
L 98.820211 101.397229 
L 98.269581 102.157151 
L 97.893654 102.527842 
L 97.612514 102.329969 
L 97.301304 101.612952 
L 96.860894 100.561036 
L 96.220387 99.215629 
L 95.31909 97.633651 
L 94.109666 95.885593 
L 92.560723 94.05234 
L 90.658661 92.221498 
L 88.408712 90.483418 
L 85.835111 88.92707 
L 82.980386 87.635968 
L 79.903812 86.684331 
L 76.679084 86.133646 
L 73.39131 86.029798 
L 70.133476 86.400888 
L 67.002517 87.255848 
L 64.095195 88.583902 
L 61.503946 90.354919 
L 59.3129 92.52062 
L 57.594247 95.016603 
L 56.405103 97.765081 
L 55.785037 100.678228 
L 55.754355 103.66196 
L 56.313214 106.62 
" clip-path="url(#p0d7a1720a3)" style="fill: none; stroke: #bcbd22; stroke-width: 1.5; stroke-linecap: square"/>
   </g>
   <g id="line2d_13">
    <path d="M 140.888831 105.85994 
L 139.585904 102.873743 
L 137.727248 100.125522 
L 135.376294 97.696657 
L 132.612012 95.653962 
L 129.525473 94.046881 
L 126.215904 92.905473 
L 122.833029 92.21291 
L 119.497955 91.931991 
L 116.28959 92.023517 
L 113.27119 92.439345 
L 110.48982 93.126465 
L 107.977072 94.030541 
L 105.750585 95.098827 
L 103.818602 96.278336 
L 102.180876 97.51633 
L 100.829896 98.759253 
L 99.752135 99.948873 
L 98.929422 101.01058 
L 98.334941 101.841665 
L 97.927043 102.278808 
L 97.625031 102.129233 
L 97.299564 101.413588 
L 96.842903 100.335862 
L 96.178724 98.941323 
L 95.241453 97.289278 
L 93.9795 95.453721 
L 92.358068 93.519992 
L 90.361185 91.580908 
L 87.99288 89.732535 
L 85.277433 88.069811 
L 82.258694 86.682193 
L 78.998502 85.64954 
L 75.57426 85.038421 
L 72.075794 84.899002 
L 68.60162 85.262666 
L 65.254785 86.14047 
L 62.13849 87.522503 
L 59.351661 89.378188 
L 56.984691 91.657499 
L 55.115533 94.293057 
L 53.806325 97.20299 
L 53.100689 100.29445 
L 53.021842 103.467616 
L 53.571588 106.62 
" clip-path="url(#p0d7a1720a3)" style="fill: none; stroke: #17becf; stroke-width: 1.5; stroke-linecap: square"/>
   </g>
   <g id="line2d_14">
    <path d="M 143.189291 105.819785 
L 141.856796 102.672343 
L 139.936475 99.770223 
L 137.493878 97.199805 
L 134.611092 95.032362 
L 131.383173 93.321065 
L 127.924137 92.094012 
L 124.391839 91.331794 
L 120.894037 91.006352 
L 117.510813 91.082586 
L 114.31118 91.51334 
L 111.349882 92.243586 
L 108.666793 93.21384 
L 106.289065 94.360755 
L 104.225197 95.628796 
L 102.478389 96.956253 
L 101.040471 98.284267 
L 99.895415 99.551789 
L 99.021577 100.684321 
L 98.389526 101.578188 
L 97.954339 102.075218 
L 97.63491 101.970814 
L 97.298228 101.260438 
L 96.829242 100.164888 
L 96.147018 98.732575 
L 95.181804 97.024691 
L 93.878336 95.118071 
L 92.198839 93.10172 
L 90.125219 91.072774 
L 87.660356 89.132084 
L 84.828429 87.379606 
L 81.674268 85.909826 
L 78.261741 84.807407 
L 74.671267 84.143274 
L 70.996552 83.971303 
L 67.340699 84.325758 
L 63.811866 85.219619 
L 60.518663 86.64384 
L 57.5655 88.567608 
L 55.048093 90.939558 
L 53.049324 93.689922 
L 51.635656 96.733494 
L 50.854242 99.973279 
L 50.730886 103.304677 
L 51.268916 106.62 
" clip-path="url(#p0d7a1720a3)" style="fill: none; stroke: #1f77b4; stroke-width: 1.5; stroke-linecap: square"/>
   </g>
   <g id="line2d_15">
    <path d="M 144.986158 105.78842 
L 143.63331 102.514787 
L 141.667315 99.491861 
L 139.155292 96.809985 
L 136.181698 94.543992 
L 132.844657 92.750054 
L 129.27614 91.451771 
L 125.630019 90.631914 
L 121.998554 90.274027 
L 118.477799 90.33754 
L 115.134367 90.780375 
L 112.031867 91.54351 
L 109.217164 92.562144 
L 106.716395 93.775032 
L 104.54789 95.11329 
L 102.713643 96.513381 
L 101.205775 97.911396 
L 100.006659 99.243488 
L 99.092279 100.434008 
L 98.430651 101.379681 
L 97.974455 101.925188 
L 97.64189 101.858877 
L 97.297311 101.155372 
L 96.819952 100.048619 
L 96.125243 98.589205 
L 95.140102 96.839712 
L 93.806318 94.879124 
L 92.083698 92.799259 
L 89.952391 90.700601 
L 87.414276 88.687728 
L 84.493356 86.864533 
L 81.235127 85.329464 
L 77.704962 84.170995 
L 73.985562 83.463527 
L 70.173612 83.263917 
L 66.375767 83.60878 
L 62.704163 84.512698 
L 59.271647 85.967406 
L 56.186946 87.942004 
L 53.549983 90.384173 
L 51.447563 93.222362 
L 49.94961 96.368818 
L 49.106136 99.723354 
L 48.945064 103.177664 
L 49.471022 106.62 
" clip-path="url(#p0d7a1720a3)" style="fill: none; stroke: #ff7f0e; stroke-width: 1.5; stroke-linecap: square"/>
   </g>
   <g id="line2d_16">
    <path d="M 146.228113 105.766742 
L 144.863238 102.405708 
L 142.867473 99.298845 
L 140.308965 96.539297 
L 137.273765 94.204421 
L 133.862085 92.352538 
L 130.218808 91.003976 
L 126.49308 90.144069 
L 122.769298 89.763003 
L 119.151449 89.818504 
L 115.706828 90.270657 
L 112.507862 91.054887 
L 109.597452 92.111845 
L 107.014026 93.367082 
L 104.771386 94.756252 
L 102.875415 96.208841 
L 101.317817 97.658667 
L 100.080837 99.037909 
L 99.138447 100.27056 
L 98.456479 101.255017 
L 97.986517 101.835219 
L 97.645813 101.795966 
L 97.29682 101.099062 
L 96.814995 99.986579 
L 96.113233 98.510132 
L 95.11609 96.733202 
L 93.763245 94.736214 
L 92.012755 92.612902 
L 89.843472 90.466054 
L 87.256502 88.40283 
L 84.275645 86.529868 
L 80.946788 84.948399 
L 77.336279 83.749583 
L 73.528354 83.010292 
L 69.621723 82.789522 
L 65.725479 83.125593 
L 61.95451 84.03428 
L 58.424613 85.50794 
L 55.247534 87.515688 
L 52.526159 90.004618 
L 50.350066 92.901998 
L 48.791649 96.118362 
L 47.902974 99.55134 
L 47.713518 103.090074 
L 48.228889 106.62 
" clip-path="url(#p0d7a1720a3)" style="fill: none; stroke: #2ca02c; stroke-width: 1.5; stroke-linecap: square"/>
   </g>
   <g id="line2d_17">
    <path d="M 146.930525 105.754481 
L 145.560195 102.343896 
L 143.548728 99.189282 
L 140.964818 96.385413 
L 137.895392 94.011131 
L 134.441837 92.126026 
L 130.758463 90.747624 
L 126.982926 89.867184 
L 123.205874 89.473541 
L 119.53152 89.525666 
L 116.02823 89.984481 
L 112.773744 90.781951 
L 109.809417 91.860857 
L 107.177271 93.143329 
L 104.892969 94.562022 
L 102.961712 96.046385 
L 101.375456 97.528654 
L 100.117446 98.936452 
L 99.159907 100.194582 
L 98.467413 101.202236 
L 97.990931 101.8023 
L 97.647077 101.775701 
L 97.296682 101.083287 
L 96.813581 99.968884 
L 96.109238 98.483833 
L 95.106822 96.692091 
L 93.744757 94.674875 
L 91.98005 92.52699 
L 89.790755 90.352531 
L 87.177479 88.260135 
L 84.163852 86.358022 
L 80.795935 84.749035 
L 77.14059 83.525905 
L 73.282889 82.76696 
L 69.322675 82.532465 
L 65.370421 82.861773 
L 61.542582 83.771393 
L 57.956649 85.254096 
L 54.726111 87.27906 
L 51.955575 89.79309 
L 49.736247 92.722823 
L 48.141976 95.977844 
L 47.226054 99.454562 
L 47.018898 103.04067 
L 47.526735 106.62 
" clip-path="url(#p0d7a1720a3)" style="fill: none; stroke: #d62728; stroke-width: 1.5; stroke-linecap: square"/>
   </g>
   <g id="patch_3">
    <path d="M 150.505 106.62 
C 150.505 92.526499 144.900407 78.995814 134.934796 69.030204 
C 124.969186 59.064593 111.438501 53.46 97.345 53.46 
C 83.251499 53.46 69.720814 59.064593 59.755204 69.030204 
C 49.789593 78.995814 44.185 92.526499 44.185 106.62 
" style="fill: none; stroke: #000000; stroke-width: 0.8; stroke-linejoin: miter; stroke-linecap: square"/>
   </g>
   <g id="patch_4">
    <path d="M 97.345 106.62 
L 150.505 106.62 
" style="fill: none; stroke: #000000; stroke-width: 0.8; stroke-linejoin: miter; stroke-linecap: square"/>
   </g>
   <g id="patch_5">
    <path d="M 97.345 106.62 
L 44.185 106.62 
" style="fill: none; stroke: #000000; stroke-width: 0.8; stroke-linejoin: miter; stroke-linecap: square"/>
   </g>
   <g id="text_4">
    <!-- X -->
    <g transform="translate(93.235 20.88) scale(0.12 -0.12)">
     <defs>
      <path id="DejaVuSans-58" d="M 403 4666 
L 1081 4666 
L 2241 2931 
L 3406 4666 
L 4084 4666 
L 2584 2425 
L 4184 0 
L 3506 0 
L 2194 1984 
L 872 0 
L 191 0 
L 1856 2491 
L 403 4666 
z
" transform="scale(0.015625)"/>
     </defs>
     <use xlink:href="#DejaVuSans-58"/>
    </g>
   </g>
  </g>
  <g id="axes_2">
   <g id="patch_6">
    <path d="M 322.205 106.62 
C 322.205 92.526499 316.600407 78.995814 306.634796 69.030204 
C 296.669186 59.064593 283.138501 53.46 269.045 53.46 
C 254.951499 53.46 241.420814 59.064593 231.455204 69.030204 
C 221.489593 78.995814 215.885 92.526499 215.885 106.62 
L 269.045 106.62 
C 269.045 106.62 269.045 106.62 269.045 106.62 
C 269.045 106.62 269.045 106.62 269.045 106.62 
C 269.045 106.62 269.045 106.62 269.045 106.62 
C 269.045 106.62 269.045 106.62 269.045 106.62 
z
" style="fill: #ffffff"/>
   </g>
   <g id="matplotlib.axis_3">
    <g id="xtick_4">
     <g id="line2d_18">
      <path d="M 269.045 106.62 
L 322.205 106.62 
" clip-path="url(#pd2b098af8d)" style="fill: none; stroke: #b0b0b0; stroke-width: 0.8; stroke-linecap: square"/>
     </g>
     <g id="text_5">
      <!-- 0° -->
      <g transform="translate(330.52375 109.379375) scale(0.1 -0.1)">
       <use xlink:href="#DejaVuSans-30"/>
       <use xlink:href="#DejaVuSans-b0" x="63.623047"/>
      </g>
     </g>
    </g>
    <g id="xtick_5">
     <g id="line2d_19">
      <path d="M 269.045 106.62 
L 269.045 53.46 
" clip-path="url(#pd2b098af8d)" style="fill: none; stroke: #b0b0b0; stroke-width: 0.8; stroke-linecap: square"/>
     </g>
     <g id="text_6">
      <!-- 90° -->
      <g transform="translate(260.1825 42.219375) scale(0.1 -0.1)">
       <use xlink:href="#DejaVuSans-39"/>
       <use xlink:href="#DejaVuSans-30" x="63.623047"/>
       <use xlink:href="#DejaVuSans-b0" x="127.246094"/>
      </g>
     </g>
    </g>
    <g id="xtick_6">
     <g id="line2d_20">
      <path d="M 269.045 106.62 
L 215.885 106.62 
" clip-path="url(#pd2b098af8d)" style="fill: none; stroke: #b0b0b0; stroke-width: 0.8; stroke-linecap: square"/>
     </g>
     <g id="text_7">
      <!-- 180° -->
      <g transform="translate(189.84125 109.379375) scale(0.1 -0.1)">
       <use xlink:href="#DejaVuSans-31"/>
       <use xlink:href="#DejaVuSans-38" x="63.623047"/>
       <use xlink:href="#DejaVuSans-30" x="127.246094"/>
       <use xlink:href="#DejaVuSans-b0" x="190.869141"/>
      </g>
     </g>
    </g>
   </g>
   <g id="matplotlib.axis_4"/>
   <g id="line2d_21">
    <path d="M 269.045 106.62 
L 269.045 106.62 
L 269.045 106.62 
L 269.045 106.62 
L 269.045 106.62 
L 269.045 106.62 
L 269.045 106.62 
L 269.045 106.62 
L 269.045 106.62 
L 269.045 106.62 
L 269.045 106.62 
L 269.045 106.62 
L 269.045 106.62 
L 269.045 106.62 
L 269.045 106.62 
L 269.045 106.62 
L 269.045 106.62 
L 269.045 106.62 
L 269.045 106.62 
L 269.045 106.62 
L 269.045 106.62 
L 269.045 106.62 
L 269.045 106.62 
L 269.045 106.62 
L 269.045 106.62 
L 269.045 106.62 
L 269.045 106.62 
L 269.045 106.62 
L 269.045 106.62 
L 269.045 106.62 
L 269.045 106.62 
L 269.045 106.62 
L 269.045 106.62 
L 269.045 106.62 
L 269.045 106.62 
L 269.045 106.62 
L 269.045 106.62 
L 269.045 106.62 
L 269.045 106.62 
L 269.045 106.62 
L 269.045 106.62 
L 269.045 106.62 
L 269.045 106.62 
L 269.045 106.62 
L 269.045 106.62 
" clip-path="url(#pd2b098af8d)" style="fill: none; stroke: #1f77b4; stroke-width: 1.5; stroke-linecap: square"/>
   </g>
   <g id="line2d_22">
    <path d="M 270.034088 106.602735 
L 271.637559 106.390071 
L 273.457246 105.9104 
L 275.102918 105.198621 
L 276.520112 104.295664 
L 277.665382 103.251961 
L 278.508294 102.124657 
L 279.032689 100.974466 
L 279.238418 99.861488 
L 279.136177 98.844921 
L 278.751194 97.97762 
L 278.124744 97.299382 
L 277.302157 96.842683 
L 276.347581 96.610666 
L 275.326434 96.585328 
L 274.314001 96.700961 
L 273.623739 96.291913 
L 273.112506 95.347327 
L 272.46212 94.522176 
L 271.691122 93.847464 
L 270.824961 93.344088 
L 269.892257 93.032838 
L 268.925508 92.927569 
L 267.959013 93.028033 
L 266.940223 92.762303 
L 265.792978 92.194976 
L 264.588273 91.833174 
L 263.370192 91.713034 
L 262.184228 91.845871 
L 261.077449 92.232701 
L 260.096159 92.863897 
L 259.283538 93.719417 
L 258.370145 94.418401 
L 257.696131 95.369739 
L 257.300644 96.524743 
L 257.218479 97.832483 
L 257.468954 99.232328 
L 258.051742 100.656793 
L 258.963876 102.045071 
L 260.176408 103.332208 
L 261.657346 104.463515 
L 263.3586 105.390085 
L 265.220976 106.073284 
L 267.09005 106.480959 
L 268.193661 106.62 
" clip-path="url(#pd2b098af8d)" style="fill: none; stroke: #ff7f0e; stroke-width: 1.5; stroke-linecap: square"/>
   </g>
   <g id="line2d_23">
    <path d="M 270.457257 106.595349 
L 272.754043 106.291053 
L 275.3573 105.604824 
L 277.711055 104.58667 
L 279.737653 103.295192 
L 281.375751 101.802296 
L 282.581268 100.189875 
L 283.330932 98.544887 
L 283.623027 96.954374 
L 283.475724 95.501374 
L 282.924301 94.261892 
L 282.025928 93.294704 
L 280.846858 92.645395 
L 279.478832 92.318795 
L 278.016132 92.2885 
L 276.565391 92.462657 
L 275.570317 91.90109 
L 274.847693 90.538435 
L 273.924577 89.344557 
L 272.828734 88.356337 
L 271.592586 87.618729 
L 270.259212 87.148102 
L 268.873536 86.972203 
L 267.485147 87.097239 
L 266.025124 86.737353 
L 264.374732 85.90405 
L 262.640838 85.371845 
L 260.886132 85.187739 
L 259.174725 85.365144 
L 257.578014 85.913644 
L 256.163211 86.818195 
L 254.989592 88.044609 
L 253.75136 89.139026 
L 252.789189 90.505432 
L 252.225367 92.162117 
L 252.110458 94.037044 
L 252.471316 96.042904 
L 253.307618 98.08338 
L 254.61473 100.071378 
L 256.351797 101.914336 
L 258.472095 103.533729 
L 260.907434 104.85992 
L 263.573263 105.837713 
L 266.239257 106.420448 
L 267.830947 106.62 
" clip-path="url(#pd2b098af8d)" style="fill: none; stroke: #2ca02c; stroke-width: 1.5; stroke-linecap: square"/>
   </g>
   <g id="line2d_24">
    <path d="M 270.604021 106.592787 
L 273.146539 106.256243 
L 276.024758 105.49748 
L 278.6269 104.371784 
L 280.866798 102.944092 
L 282.677472 101.293705 
L 284.009864 99.51125 
L 284.838224 97.692892 
L 285.160068 95.935274 
L 284.996402 94.329718 
L 284.386664 92.959807 
L 283.392495 91.891885 
L 282.088263 91.175444 
L 280.574712 90.81672 
L 278.955969 90.787097 
L 277.349214 90.987089 
L 276.242644 90.384549 
L 275.449273 88.87122 
L 274.43402 87.540947 
L 273.226698 86.435408 
L 271.862413 85.606214 
L 270.388649 85.072366 
L 268.855118 84.861644 
L 267.316317 84.984202 
L 265.699367 84.592597 
L 263.867952 83.656122 
L 261.943371 83.057741 
L 259.993431 82.842731 
L 258.091821 83.033196 
L 256.317222 83.636986 
L 254.745001 84.63813 
L 253.440344 85.997149 
L 252.119884 87.274212 
L 251.057478 88.788768 
L 250.435237 90.62335 
L 250.310157 92.699359 
L 250.71074 94.91933 
L 251.637459 97.177415 
L 253.084537 99.376959 
L 255.00671 101.415681 
L 257.352477 103.206908 
L 260.046277 104.67366 
L 262.99477 105.755007 
L 265.937648 106.398997 
L 267.705784 106.62 
" clip-path="url(#pd2b098af8d)" style="fill: none; stroke: #d62728; stroke-width: 1.5; stroke-linecap: square"/>
   </g>
   <g id="line2d_25">
    <path d="M 270.762544 106.59002 
L 273.571554 106.218549 
L 276.746453 105.381413 
L 279.616399 104.139616 
L 282.086219 102.564921 
L 284.082551 100.744731 
L 285.551259 98.779042 
L 286.464017 96.773913 
L 286.818128 94.835935 
L 286.636023 93.066418 
L 285.96338 91.555901 
L 284.865879 90.379413 
L 283.427112 89.59011 
L 281.756431 89.196989 
L 279.967767 89.170738 
L 278.189533 89.405164 
L 276.956993 88.773218 
L 276.090958 87.092855 
L 274.981075 85.604177 
L 273.654806 84.368977 
L 272.15428 83.42931 
L 270.528944 82.822508 
L 268.835069 82.564316 
L 267.131784 82.674623 
L 265.342102 82.240387 
L 263.310201 81.182099 
L 261.174163 80.505613 
L 259.006211 80.249435 
L 256.892723 80.451033 
L 254.919659 81.113354 
L 253.171255 82.218978 
L 251.720842 83.724686 
L 250.346739 85.247468 
L 249.176395 86.924029 
L 248.492153 88.953107 
L 248.357559 91.24851 
L 248.801942 93.701161 
L 249.828043 96.195912 
L 251.427999 98.625203 
L 253.551072 100.876042 
L 256.141777 102.8535 
L 259.115832 104.472413 
L 262.370184 105.66571 
L 265.6072 106.375494 
L 267.570971 106.62 
" clip-path="url(#pd2b098af8d)" style="fill: none; stroke: #9467bd; stroke-width: 1.5; stroke-linecap: square"/>
   </g>
   <g id="line2d_26">
    <path d="M 270.946177 106.586815 
L 274.063452 106.174924 
L 277.580183 105.247329 
L 280.758431 103.871659 
L 283.493045 102.127478 
L 285.70256 100.111784 
L 287.327574 97.93524 
L 288.336959 95.715235 
L 288.727873 93.569723 
L 288.525178 91.610856 
L 287.779359 89.938956 
L 286.562962 88.637309 
L 284.96974 87.763481 
L 283.117713 87.331138 
L 281.131679 87.311373 
L 279.152081 87.593141 
L 277.770817 86.937507 
L 276.825983 85.055809 
L 275.607431 83.386654 
L 274.146608 81.995106 
L 272.49084 80.919065 
L 270.691517 80.215388 
L 268.811804 79.898393 
L 266.916865 79.984747 
L 264.923475 79.48418 
L 262.65499 78.275773 
L 260.266625 77.494521 
L 257.842266 77.191908 
L 255.477534 77.403537 
L 253.268985 78.132672 
L 251.311556 79.36026 
L 249.687912 81.037999 
L 248.290395 82.897021 
L 246.995028 84.761615 
L 246.240885 87.017953 
L 246.096679 89.568597 
L 246.592448 92.291092 
L 247.734983 95.060547 
L 249.513164 97.756229 
L 251.86898 100.252452 
L 254.743856 102.445441 
L 258.042042 104.240163 
L 261.650179 105.562772 
L 265.219883 106.347947 
L 267.415033 106.62 
" clip-path="url(#pd2b098af8d)" style="fill: none; stroke: #8c564b; stroke-width: 1.5; stroke-linecap: square"/>
   </g>
   <g id="line2d_27">
    <path d="M 271.113392 106.583896 
L 274.516193 106.134771 
L 278.346262 105.124124 
L 281.806886 103.625658 
L 284.784089 101.726037 
L 287.188442 99.53124 
L 288.956139 97.161624 
L 290.053594 94.744908 
L 290.4779 92.409408 
L 290.256147 90.277174 
L 289.443161 88.45751 
L 288.117678 87.041348 
L 286.382631 86.090473 
L 284.363505 85.623585 
L 282.195687 85.611607 
L 280.028774 85.942743 
L 278.507521 85.275751 
L 277.492382 83.208955 
L 276.177007 81.370152 
L 274.597474 79.818823 
L 272.798931 78.621157 
L 270.841161 77.815594 
L 268.79038 77.443386 
L 266.71833 77.499926 
L 264.531839 76.905674 
L 262.04322 75.562142 
L 259.417958 74.678758 
L 256.75336 74.331496 
L 254.152933 74.551113 
L 251.723479 75.341896 
L 249.570082 76.683278 
L 247.783529 78.521198 
L 246.397258 80.733122 
L 244.987425 82.771456 
L 244.16943 85.237364 
L 244.017034 88.023349 
L 244.560592 90.99439 
L 245.810978 94.016886 
L 247.752094 96.957035 
L 250.323975 99.679683 
L 253.460713 102.070887 
L 257.056582 104.027017 
L 260.990328 105.468434 
L 264.858856 106.32227 
L 267.273336 106.62 
" clip-path="url(#pd2b098af8d)" style="fill: none; stroke: #e377c2; stroke-width: 1.5; stroke-linecap: square"/>
   </g>
   <g id="line2d_28">
    <path d="M 271.26084 106.581322 
L 274.919191 106.09903 
L 279.027503 105.014563 
L 282.738725 103.40702 
L 285.931127 101.369373 
L 288.508223 99.015593 
L 290.40229 96.47466 
L 291.577571 93.883481 
L 292.031093 91.379599 
L 291.791914 89.093892 
L 290.918708 87.143685 
L 289.49571 85.626759 
L 287.63348 84.60934 
L 285.464745 84.114162 
L 283.13469 84.111537 
L 280.801429 84.488198 
L 279.150081 83.826353 
L 278.075883 81.591841 
L 276.679605 79.590775 
L 274.995243 77.898839 
L 273.07166 76.586995 
L 270.974031 75.684796 
L 268.771207 75.246456 
L 266.541042 75.28103 
L 264.178145 74.576977 
L 261.489544 73.106193 
L 258.651377 72.135346 
L 255.7698 71.747815 
L 252.95659 71.974883 
L 250.327827 72.821715 
L 247.997774 74.266335 
L 246.063622 76.248199 
L 244.617984 78.699372 
L 243.203482 81.003013 
L 242.328634 83.655046 
L 242.168966 86.650169 
L 242.755363 89.842318 
L 244.1017 93.089701 
L 246.187865 96.247171 
L 248.951947 99.17104 
L 252.321564 101.738365 
L 256.182072 103.837868 
L 260.405222 105.384783 
L 264.534664 106.299213 
L 267.148556 106.62 
" clip-path="url(#pd2b098af8d)" style="fill: none; stroke: #7f7f7f; stroke-width: 1.5; stroke-linecap: square"/>
   </g>
   <g id="line2d_29">
    <path d="M 271.388547 106.579093 
L 275.27398 106.067565 
L 279.627113 104.918131 
L 283.558776 103.21461 
L 286.940198 101.055609 
L 289.669324 98.561943 
L 291.674496 95.870325 
L 292.917942 93.125837 
L 293.396571 90.47425 
L 293.141176 88.054308 
L 292.213889 85.990458 
L 290.703917 84.386499 
L 288.727847 83.313498 
L 286.426278 82.796231 
L 283.953368 82.803688 
L 281.475376 83.219475 
L 279.706054 82.572267 
L 278.583056 80.186265 
L 277.116796 78.042965 
L 275.341912 76.225505 
L 273.311393 74.798936 
L 271.090644 73.814713 
L 268.754328 73.312241 
L 266.384321 73.31955 
L 263.861897 72.494828 
L 260.994775 70.911541 
L 257.967605 69.866679 
L 254.893165 69.44501 
L 251.891078 69.680386 
L 249.085624 70.578623 
L 246.599148 72.116376 
L 244.533339 74.225803 
L 242.990891 76.839568 
L 241.639564 79.452684 
L 240.7144 82.267477 
L 240.547813 85.445596 
L 241.172025 88.831854 
L 242.602006 92.276204 
L 244.815681 95.624458 
L 247.748012 98.724714 
L 251.321764 101.44652 
L 255.414861 103.671928 
L 259.892081 105.311419 
L 264.246811 106.27874 
L 267.0407 106.62 
" clip-path="url(#pd2b098af8d)" style="fill: none; stroke: #bcbd22; stroke-width: 1.5; stroke-linecap: square"/>
   </g>
   <g id="line2d_30">
    <path d="M 271.542336 106.576409 
L 275.697327 106.030019 
L 280.342602 104.803062 
L 284.537344 102.985007 
L 288.143931 100.681317 
L 291.054715 98.020662 
L 293.19248 95.149238 
L 294.516839 92.222062 
L 295.024472 89.394907 
L 294.748293 86.816052 
L 293.754737 84.618489 
L 292.139219 82.913121 
L 290.024614 81.777994 
L 287.563268 81.237807 
L 284.920398 81.258845 
L 282.272379 81.719094 
L 280.3553 81.107786 
L 279.177245 78.539531 
L 277.630728 76.223463 
L 275.751285 74.249505 
L 273.595551 72.679539 
L 271.229441 71.588882 
L 268.734172 71.002626 
L 266.19592 70.961562 
L 263.47812 69.968066 
L 260.396066 68.255844 
L 257.141352 67.125282 
L 253.835282 66.666092 
L 250.606834 66.914869 
L 247.589996 67.877915 
L 244.916523 69.529856 
L 242.691796 71.79205 
L 241.034016 74.602816 
L 239.786033 77.615258 
L 238.800511 80.622329 
L 238.624673 84.016636 
L 239.293812 87.633204 
L 240.821856 91.310576 
L 243.187034 94.885359 
L 246.318104 98.194614 
L 250.133555 101.099677 
L 254.503438 103.474795 
L 259.282469 105.224264 
L 263.896525 106.253826 
L 266.91071 106.62 
" clip-path="url(#pd2b098af8d)" style="fill: none; stroke: #17becf; stroke-width: 1.5; stroke-linecap: square"/>
   </g>
   <g id="line2d_31">
    <path d="M 271.666607 106.57424 
L 276.04405 105.999269 
L 280.929479 104.708678 
L 285.340514 102.796558 
L 289.131724 100.37417 
L 292.192104 97.576277 
L 294.438927 94.557139 
L 295.829491 91.480086 
L 296.36023 88.509264 
L 296.065871 85.800881 
L 295.016567 83.494958 
L 293.313077 81.708122 
L 291.083201 80.524518 
L 288.49021 79.967289 
L 285.708422 79.999966 
L 282.922328 80.495548 
L 280.877741 79.929337 
L 279.656985 77.209981 
L 278.047207 74.748978 
L 276.08463 72.640488 
L 273.827364 70.950548 
L 271.343094 69.766273 
L 268.717628 69.106849 
L 266.040925 69.021684 
L 263.158483 67.863596 
L 259.899441 66.052962 
L 256.457583 64.856627 
L 252.961782 64.371525 
L 249.548562 64.635964 
L 246.359619 65.656178 
L 243.529626 67.397927 
L 241.178596 69.79223 
L 239.427325 72.766332 
L 238.278504 76.120827 
L 237.243054 79.283564 
L 237.058264 82.852739 
L 237.76372 86.656721 
L 239.36997 90.523011 
L 241.858548 94.282477 
L 245.150254 97.761664 
L 249.161854 100.816034 
L 253.758164 103.3136 
L 258.783532 105.152932 
L 263.606766 106.233218 
L 266.805952 106.62 
" clip-path="url(#pd2b098af8d)" style="fill: none; stroke: #1f77b4; stroke-width: 1.5; stroke-linecap: square"/>
   </g>
   <g id="line2d_32">
    <path d="M 271.759598 106.572617 
L 276.304618 105.97616 
L 281.371369 104.637611 
L 285.945668 102.65457 
L 289.875864 100.142784 
L 293.049212 97.241399 
L 295.378252 94.110932 
L 296.818483 90.921059 
L 297.366178 87.842293 
L 297.057513 85.036838 
L 295.965562 82.649974 
L 294.195238 80.802558 
L 291.87831 79.583028 
L 289.186179 79.013353 
L 286.299937 79.055014 
L 283.409696 79.578065 
L 281.265764 79.054088 
L 280.014303 76.219712 
L 278.358346 73.647435 
L 276.334841 71.432745 
L 274.001438 69.652209 
L 271.428694 68.393529 
L 268.705145 67.676418 
L 265.923778 67.555498 
L 262.914382 66.256454 
L 259.521736 64.377571 
L 255.938949 63.135869 
L 252.300993 62.63572 
L 248.749912 62.916135 
L 245.432926 63.982813 
L 242.485067 65.792236 
L 240.040452 68.288079 
L 238.219798 71.386102 
L 237.098804 74.951378 
L 236.079648 78.28352 
L 235.886958 81.982419 
L 236.619201 85.926304 
L 238.282489 89.933115 
L 240.861876 93.830176 
L 244.274026 97.436827 
L 248.431736 100.602909 
L 253.198148 103.192473 
L 258.408195 105.09927 
L 263.388158 106.21767 
L 266.727625 106.62 
" clip-path="url(#pd2b098af8d)" style="fill: none; stroke: #ff7f0e; stroke-width: 1.5; stroke-linecap: square"/>
   </g>
   <g id="line2d_33">
    <path d="M 271.820273 106.571557 
L 276.475414 105.961012 
L 281.661644 104.590927 
L 286.343424 102.561243 
L 290.364893 99.990724 
L 293.612551 97.021299 
L 295.99558 93.817683 
L 297.46832 90.55374 
L 298.026985 87.40416 
L 297.708762 84.535062 
L 296.588688 82.095144 
L 294.774422 80.20801 
L 292.400787 78.964362 
L 289.643761 78.386165 
L 286.688758 78.433868 
L 283.729375 78.97626 
L 281.520796 78.478822 
L 280.24822 75.571434 
L 278.562369 72.92512 
L 276.499046 70.640147 
L 274.115852 68.798849 
L 271.485063 67.489555 
L 268.696922 66.734238 
L 265.846562 66.589081 
L 262.752444 65.190267 
L 259.270782 63.264412 
L 255.596685 62.000284 
L 251.865912 61.492819 
L 248.22514 61.78608 
L 244.824793 62.884685 
L 241.800021 64.739188 
L 239.294803 67.302641 
L 237.429074 70.482286 
L 236.277748 74.137455 
L 235.319121 77.629783 
L 235.120604 81.41299 
L 235.870167 85.448282 
L 237.569988 89.546625 
L 240.207137 93.533047 
L 243.69913 97.223699 
L 247.952166 100.462921 
L 252.829122 103.112656 
L 258.161174 105.063954 
L 263.245376 106.207515 
L 266.676434 106.62 
" clip-path="url(#pd2b098af8d)" style="fill: none; stroke: #2ca02c; stroke-width: 1.5; stroke-linecap: square"/>
   </g>
   <g id="line2d_34">
    <path d="M 271.847584 106.571081 
L 276.561835 105.953348 
L 281.808995 104.56723 
L 286.545481 102.513835 
L 290.613242 99.913501 
L 293.898699 96.909499 
L 296.309204 93.668702 
L 297.798524 90.367092 
L 298.362857 87.181468 
L 298.039906 84.279921 
L 296.905691 81.812884 
L 295.069242 79.905368 
L 292.667266 78.648823 
L 289.877482 78.065814 
L 286.887449 78.116456 
L 283.89277 78.668664 
L 281.652079 78.182692 
L 280.368335 75.238549 
L 278.666839 72.555259 
L 276.582887 70.235457 
L 274.1741 68.364402 
L 271.513699 67.030326 
L 268.692759 66.257179 
L 265.80755 66.100808 
L 262.670847 64.653039 
L 259.144364 62.70366 
L 255.424261 61.428203 
L 251.646827 60.917312 
L 247.96096 61.217189 
L 244.517348 62.329521 
L 241.455582 64.209718 
L 238.919826 66.807079 
L 237.031315 70.027638 
L 235.865191 73.728484 
L 234.931412 77.296515 
L 234.729911 81.122692 
L 235.488382 85.204632 
L 237.206806 89.34962 
L 239.873396 93.381592 
L 243.406117 97.115072 
L 247.707748 100.391574 
L 252.640981 103.071963 
L 258.035066 105.045925 
L 263.176184 106.202594 
L 266.653562 106.62 
" clip-path="url(#pd2b098af8d)" style="fill: none; stroke: #d62728; stroke-width: 1.5; stroke-linecap: square"/>
   </g>
   <g id="patch_7">
    <path d="M 322.205 106.62 
C 322.205 92.526499 316.600407 78.995814 306.634796 69.030204 
C 296.669186 59.064593 283.138501 53.46 269.045 53.46 
C 254.951499 53.46 241.420814 59.064593 231.455204 69.030204 
C 221.489593 78.995814 215.885 92.526499 215.885 106.62 
" style="fill: none; stroke: #000000; stroke-width: 0.8; stroke-linejoin: miter; stroke-linecap: square"/>
   </g>
   <g id="patch_8">
    <path d="M 269.045 106.62 
L 322.205 106.62 
" style="fill: none; stroke: #000000; stroke-width: 0.8; stroke-linejoin: miter; stroke-linecap: square"/>
   </g>
   <g id="patch_9">
    <path d="M 269.045 106.62 
L 215.885 106.62 
" style="fill: none; stroke: #000000; stroke-width: 0.8; stroke-linejoin: miter; stroke-linecap: square"/>
   </g>
   <g id="text_8">
    <!-- Y -->
    <g transform="translate(265.380312 20.88) scale(0.12 -0.12)">
     <defs>
      <path id="DejaVuSans-59" d="M -13 4666 
L 666 4666 
L 1959 2747 
L 3244 4666 
L 3922 4666 
L 2272 2222 
L 2272 0 
L 1638 0 
L 1638 2222 
L -13 4666 
z
" transform="scale(0.015625)"/>
     </defs>
     <use xlink:href="#DejaVuSans-59"/>
    </g>
   </g>
  </g>
 </g>
 <defs>
  <clipPath id="p0d7a1720a3">
   <path d="M 150.505 106.62 
C 150.505 92.526499 144.900407 78.995814 134.934796 69.030204 
C 124.969186 59.064593 111.438501 53.46 97.345 53.46 
C 83.251499 53.46 69.720814 59.064593 59.755204 69.030204 
C 49.789593 78.995814 44.185 92.526499 44.185 106.62 
L 97.345 106.62 
C 97.345 106.62 97.345 106.62 97.345 106.62 
C 97.345 106.62 97.345 106.62 97.345 106.62 
C 97.345 106.62 97.345 106.62 97.345 106.62 
C 97.345 106.62 97.345 106.62 97.345 106.62 
z
"/>
  </clipPath>
  <clipPath id="pd2b098af8d">
   <path d="M 322.205 106.62 
C 322.205 92.526499 316.600407 78.995814 306.634796 69.030204 
C 296.669186 59.064593 283.138501 53.46 269.045 53.46 
C 254.951499 53.46 241.420814 59.064593 231.455204 69.030204 
C 221.489593 78.995814 215.885 92.526499 215.885 106.62 
L 269.045 106.62 
C 269.045 106.62 269.045 106.62 269.045 106.62 
C 269.045 106.62 269.045 106.62 269.045 106.62 
C 269.045 106.62 269.045 106.62 269.045 106.62 
C 269.045 106.62 269.045 106.62 269.045 106.62 
z
"/>
  </clipPath>
 </defs>
</svg>
