<?xml version="1.0" encoding="utf-8" standalone="no"?>
<!DOCTYPE svg PUBLIC "-//W3C//DTD SVG 1.1//EN"
  "http://www.w3.org/Graphics/SVG/1.1/DTD/svg11.dtd">
<svg xmlns:xlink="http://www.w3.org/1999/xlink" width="360pt" height="144pt" viewBox="0 0 360 144" xmlns="http://www.w3.org/2000/svg" version="1.1">
 <metadata>
  <rdf:RDF xmlns:dc="http://purl.org/dc/elements/1.1/" xmlns:cc="http://creativecommons.org/ns#" xmlns:rdf="http://www.w3.org/1999/02/22-rdf-syntax-ns#">
   <cc:Work>
    <dc:type rdf:resource="http://purl.org/dc/dcmitype/StillImage"/>
    <dc:date>2023-06-20T07:11:35.797141</dc:date>
    <dc:format>image/svg+xml</dc:format>
    <dc:creator>
     <cc:Agent>
      <dc:title>Matplotlib v3.7.1, https://matplotlib.org/</dc:title>
     </cc:Agent>
    </dc:creator>
   </cc:Work>
  </rdf:RDF>
 </metadata>
 <defs>
  <style type="text/css">*{stroke-linejoin: round; stroke-linecap: butt}</style>
 </defs>
 <g id="figure_1">
  <g id="patch_1">
   <path d="M 0 144 
L 360 144 
L 360 0 
L 0 0 
z
" style="fill: #ffffff"/>
  </g>
  <g id="axes_1">
   <g id="patch_2">
    <path d="M 150.505 106.62 
C 150.505 92.526499 144.900407 78.995814 134.934796 69.030204 
C 124.969186 59.064593 111.438501 53.46 97.345 53.46 
C 83.251499 53.46 69.720814 59.064593 59.755204 69.030204 
C 49.789593 78.995814 44.185 92.526499 44.185 106.62 
L 97.345 106.62 
C 97.345 106.62 97.345 106.62 97.345 106.62 
C 97.345 106.62 97.345 106.62 97.345 106.62 
C 97.345 106.62 97.345 106.62 97.345 106.62 
C 97.345 106.62 97.345 106.62 97.345 106.62 
z
" style="fill: #ffffff"/>
   </g>
   <g id="matplotlib.axis_1">
    <g id="xtick_1">
     <g id="line2d_1">
      <path d="M 97.345 106.62 
L 150.505 106.62 
" clip-path="url(#p5ef24abbf7)" style="fill: none; stroke: #b0b0b0; stroke-width: 0.8; stroke-linecap: square"/>
     </g>
     <g id="text_1">
      <!-- 0° -->
      <g transform="translate(158.82375 109.379375) scale(0.1 -0.1)">
       <defs>
        <path id="DejaVuSans-30" d="M 2034 4250 
Q 1547 4250 1301 3770 
Q 1056 3291 1056 2328 
Q 1056 1369 1301 889 
Q 1547 409 2034 409 
Q 2525 409 2770 889 
Q 3016 1369 3016 2328 
Q 3016 3291 2770 3770 
Q 2525 4250 2034 4250 
z
M 2034 4750 
Q 2819 4750 3233 4129 
Q 3647 3509 3647 2328 
Q 3647 1150 3233 529 
Q 2819 -91 2034 -91 
Q 1250 -91 836 529 
Q 422 1150 422 2328 
Q 422 3509 836 4129 
Q 1250 4750 2034 4750 
z
" transform="scale(0.015625)"/>
        <path id="DejaVuSans-b0" d="M 1600 4347 
Q 1350 4347 1178 4173 
Q 1006 4000 1006 3750 
Q 1006 3503 1178 3333 
Q 1350 3163 1600 3163 
Q 1850 3163 2022 3333 
Q 2194 3503 2194 3750 
Q 2194 3997 2020 4172 
Q 1847 4347 1600 4347 
z
M 1600 4750 
Q 1800 4750 1984 4673 
Q 2169 4597 2303 4453 
Q 2447 4313 2519 4134 
Q 2591 3956 2591 3750 
Q 2591 3338 2302 3052 
Q 2013 2766 1594 2766 
Q 1172 2766 890 3047 
Q 609 3328 609 3750 
Q 609 4169 896 4459 
Q 1184 4750 1600 4750 
z
" transform="scale(0.015625)"/>
       </defs>
       <use xlink:href="#DejaVuSans-30"/>
       <use xlink:href="#DejaVuSans-b0" x="63.623047"/>
      </g>
     </g>
    </g>
    <g id="xtick_2">
     <g id="line2d_2">
      <path d="M 97.345 106.62 
L 97.345 53.46 
" clip-path="url(#p5ef24abbf7)" style="fill: none; stroke: #b0b0b0; stroke-width: 0.8; stroke-linecap: square"/>
     </g>
     <g id="text_2">
      <!-- 90° -->
      <g transform="translate(88.4825 42.219375) scale(0.1 -0.1)">
       <defs>
        <path id="DejaVuSans-39" d="M 703 97 
L 703 672 
Q 941 559 1184 500 
Q 1428 441 1663 441 
Q 2288 441 2617 861 
Q 2947 1281 2994 2138 
Q 2813 1869 2534 1725 
Q 2256 1581 1919 1581 
Q 1219 1581 811 2004 
Q 403 2428 403 3163 
Q 403 3881 828 4315 
Q 1253 4750 1959 4750 
Q 2769 4750 3195 4129 
Q 3622 3509 3622 2328 
Q 3622 1225 3098 567 
Q 2575 -91 1691 -91 
Q 1453 -91 1209 -44 
Q 966 3 703 97 
z
M 1959 2075 
Q 2384 2075 2632 2365 
Q 2881 2656 2881 3163 
Q 2881 3666 2632 3958 
Q 2384 4250 1959 4250 
Q 1534 4250 1286 3958 
Q 1038 3666 1038 3163 
Q 1038 2656 1286 2365 
Q 1534 2075 1959 2075 
z
" transform="scale(0.015625)"/>
       </defs>
       <use xlink:href="#DejaVuSans-39"/>
       <use xlink:href="#DejaVuSans-30" x="63.623047"/>
       <use xlink:href="#DejaVuSans-b0" x="127.246094"/>
      </g>
     </g>
    </g>
    <g id="xtick_3">
     <g id="line2d_3">
      <path d="M 97.345 106.62 
L 44.185 106.62 
" clip-path="url(#p5ef24abbf7)" style="fill: none; stroke: #b0b0b0; stroke-width: 0.8; stroke-linecap: square"/>
     </g>
     <g id="text_3">
      <!-- 180° -->
      <g transform="translate(18.14125 109.379375) scale(0.1 -0.1)">
       <defs>
        <path id="DejaVuSans-31" d="M 794 531 
L 1825 531 
L 1825 4091 
L 703 3866 
L 703 4441 
L 1819 4666 
L 2450 4666 
L 2450 531 
L 3481 531 
L 3481 0 
L 794 0 
L 794 531 
z
" transform="scale(0.015625)"/>
        <path id="DejaVuSans-38" d="M 2034 2216 
Q 1584 2216 1326 1975 
Q 1069 1734 1069 1313 
Q 1069 891 1326 650 
Q 1584 409 2034 409 
Q 2484 409 2743 651 
Q 3003 894 3003 1313 
Q 3003 1734 2745 1975 
Q 2488 2216 2034 2216 
z
M 1403 2484 
Q 997 2584 770 2862 
Q 544 3141 544 3541 
Q 544 4100 942 4425 
Q 1341 4750 2034 4750 
Q 2731 4750 3128 4425 
Q 3525 4100 3525 3541 
Q 3525 3141 3298 2862 
Q 3072 2584 2669 2484 
Q 3125 2378 3379 2068 
Q 3634 1759 3634 1313 
Q 3634 634 3220 271 
Q 2806 -91 2034 -91 
Q 1263 -91 848 271 
Q 434 634 434 1313 
Q 434 1759 690 2068 
Q 947 2378 1403 2484 
z
M 1172 3481 
Q 1172 3119 1398 2916 
Q 1625 2713 2034 2713 
Q 2441 2713 2670 2916 
Q 2900 3119 2900 3481 
Q 2900 3844 2670 4047 
Q 2441 4250 2034 4250 
Q 1625 4250 1398 4047 
Q 1172 3844 1172 3481 
z
" transform="scale(0.015625)"/>
       </defs>
       <use xlink:href="#DejaVuSans-31"/>
       <use xlink:href="#DejaVuSans-38" x="63.623047"/>
       <use xlink:href="#DejaVuSans-30" x="127.246094"/>
       <use xlink:href="#DejaVuSans-b0" x="190.869141"/>
      </g>
     </g>
    </g>
   </g>
   <g id="matplotlib.axis_2"/>
   <g id="line2d_4">
    <path d="M 97.345 106.62 
L 97.345 106.62 
L 97.345 106.62 
L 97.345 106.62 
L 97.345 106.62 
L 97.345 106.62 
L 97.345 106.62 
L 97.345 106.62 
L 97.345 106.62 
L 97.345 106.62 
L 97.345 106.62 
L 97.345 106.62 
L 97.345 106.62 
L 97.345 106.62 
L 97.345 106.62 
L 97.345 106.62 
L 97.345 106.62 
L 97.345 106.62 
L 97.345 106.62 
L 97.345 106.62 
L 97.345 106.62 
L 97.345 106.62 
L 97.345 106.62 
L 97.345 106.62 
L 97.345 106.62 
L 97.345 106.62 
L 97.345 106.62 
L 97.345 106.62 
L 97.345 106.62 
L 97.345 106.62 
L 97.345 106.62 
L 97.345 106.62 
L 97.345 106.62 
L 97.345 106.62 
L 97.345 106.62 
L 97.345 106.62 
L 97.345 106.62 
L 97.345 106.62 
L 97.345 106.62 
L 97.345 106.62 
L 97.345 106.62 
L 97.345 106.62 
L 97.345 106.62 
L 97.345 106.62 
L 97.345 106.62 
" clip-path="url(#p5ef24abbf7)" style="fill: none; stroke: #1f77b4; stroke-width: 1.5; stroke-linecap: square"/>
   </g>
   <g id="line2d_5">
    <path d="M 111.328596 106.375915 
L 112.067241 105.314315 
L 112.715246 104.148079 
L 113.428619 102.846275 
L 113.853459 101.486807 
L 113.972242 100.123629 
L 113.779519 98.813121 
L 113.282313 97.611446 
L 112.50388 96.569253 
L 111.471868 95.73549 
L 110.23128 95.146076 
L 108.82823 94.832134 
L 107.318005 94.810943 
L 105.758659 95.087759 
L 104.208445 95.655558 
L 102.723237 96.49532 
L 101.354084 97.576862 
L 100.231717 98.619763 
L 99.292689 99.724485 
L 98.515874 100.968319 
L 97.924053 102.301108 
L 97.533839 103.591654 
L 97.32469 104.292704 
L 97.153584 104.224277 
L 96.856523 103.403906 
L 96.412195 102.482347 
L 95.863652 101.705086 
L 95.2707 101.17109 
L 94.550064 100.601326 
L 93.765232 100.155883 
L 92.987333 99.921422 
L 92.258475 99.897735 
L 91.494079 99.932266 
L 90.485616 99.820215 
L 89.484717 99.863428 
L 88.521426 100.063777 
L 87.625405 100.417089 
L 86.823348 100.912612 
L 86.111338 101.522036 
L 85.452213 102.211069 
L 84.954595 103.003193 
L 84.635797 103.871118 
L 84.503501 104.784068 
L 84.562515 105.710875 
L 83.575835 106.62 
" clip-path="url(#p5ef24abbf7)" style="fill: none; stroke: #ff7f0e; stroke-width: 1.5; stroke-linecap: square"/>
   </g>
   <g id="line2d_6">
    <path d="M 118.167186 106.256547 
L 119.257698 104.676609 
L 120.207513 102.943135 
L 121.262376 101.008228 
L 121.888216 98.988453 
L 122.059357 96.963941 
L 121.768038 95.01834 
L 121.028148 93.233118 
L 119.86862 91.686231 
L 118.335441 90.447224 
L 116.490384 89.57298 
L 114.407069 89.105296 
L 112.164593 89.072087 
L 109.849102 89.481166 
L 107.547032 90.322121 
L 105.341299 91.566748 
L 103.308128 93.169199 
L 101.628365 94.749098 
L 100.233988 96.391954 
L 99.080423 98.243308 
L 98.202127 100.227085 
L 97.619591 102.216477 
L 97.315563 103.246862 
L 97.065048 103.116184 
L 96.626444 101.88908 
L 95.973973 100.538523 
L 95.16482 99.386452 
L 94.289502 98.593614 
L 93.188888 97.670143 
L 92.019565 97.003667 
L 90.860167 96.651556 
L 89.772632 96.612486 
L 88.653204 96.685082 
L 87.145561 96.509182 
L 85.647023 96.564609 
L 84.202463 96.854637 
L 82.856374 97.37356 
L 81.651032 98.106929 
L 80.622344 99.031067 
L 79.675074 100.069349 
L 78.933413 101.245587 
L 78.457441 102.534797 
L 78.259269 103.891339 
L 78.318868 105.26681 
L 76.840814 106.62 
" clip-path="url(#p5ef24abbf7)" style="fill: none; stroke: #2ca02c; stroke-width: 1.5; stroke-linecap: square"/>
   </g>
   <g id="line2d_7">
    <path d="M 120.741417 106.211614 
L 121.961803 104.436788 
L 123.012628 102.492002 
L 124.192395 100.320753 
L 124.890555 98.054896 
L 125.078583 95.784309 
L 124.748418 93.602572 
L 123.917359 91.599994 
L 122.613627 89.866217 
L 120.89356 88.476237 
L 118.821928 87.496977 
L 116.485296 86.971937 
L 113.970226 86.934034 
L 111.373295 87.39202 
L 108.791409 88.334214 
L 106.317517 89.72899 
L 104.037407 91.524192 
L 102.150069 93.303248 
L 100.584778 95.150031 
L 99.290389 97.229822 
L 98.305108 99.459 
L 97.649938 101.729818 
L 97.312363 102.880166 
L 97.033321 102.719091 
L 96.541414 101.329249 
L 95.815154 99.834048 
L 94.910678 98.543243 
L 93.931832 97.654061 
L 92.677092 96.56803 
L 91.362091 95.816443 
L 90.058056 95.418554 
L 88.835253 95.373662 
L 87.587491 95.466948 
L 85.889172 95.263709 
L 84.199654 95.320474 
L 82.569376 95.641196 
L 81.046956 96.218814 
L 79.681475 97.038559 
L 78.51634 98.075339 
L 77.513972 99.268179 
L 76.680376 100.587917 
L 76.144827 102.0346 
L 75.921509 103.557112 
L 75.961404 105.09914 
L 74.305114 106.62 
" clip-path="url(#p5ef24abbf7)" style="fill: none; stroke: #d62728; stroke-width: 1.5; stroke-linecap: square"/>
   </g>
   <g id="line2d_8">
    <path d="M 123.40195 106.165174 
L 124.754917 104.189072 
L 125.897652 102.028018 
L 127.198233 99.615489 
L 127.967505 97.09814 
L 128.170302 94.576355 
L 127.801193 92.152414 
L 126.87209 89.929834 
L 125.419347 88.005949 
L 123.507063 86.462578 
L 121.205059 85.375041 
L 118.606788 84.794165 
L 115.813121 84.751858 
L 112.928706 85.260085 
L 110.061114 86.305842 
L 107.31352 87.853987 
L 104.781577 89.845597 
L 102.686953 91.81533 
L 100.945633 93.872476 
L 99.505731 96.190391 
L 98.410534 98.672675 
L 97.682698 101.204463 
L 97.309198 102.517472 
L 97.00154 102.321338 
L 96.453013 100.747225 
L 95.655233 99.124686 
L 94.654365 97.692833 
L 93.545912 96.6403 
L 92.146176 95.424744 
L 90.681025 94.586616 
L 89.227053 94.141142 
L 87.863051 94.088816 
L 86.486303 94.208265 
L 84.586386 93.972243 
L 82.693543 94.025846 
L 80.864295 94.374262 
L 79.154993 95.01139 
L 77.618265 95.919387 
L 76.302457 97.070653 
L 75.251143 98.429296 
L 74.360684 99.91079 
L 73.763314 101.519501 
L 73.513862 103.212894 
L 73.523634 104.925759 
L 71.684139 106.62 
" clip-path="url(#p5ef24abbf7)" style="fill: none; stroke: #9467bd; stroke-width: 1.5; stroke-linecap: square"/>
   </g>
   <g id="line2d_9">
    <path d="M 125.951696 106.120668 
L 127.430564 103.951775 
L 128.645638 101.586073 
L 130.062332 98.943481 
L 130.895459 96.187712 
L 131.110985 93.427411 
L 130.699081 90.775832 
L 129.674861 88.34557 
L 128.082563 86.240164 
L 125.983869 84.554242 
L 123.463022 83.364555 
L 120.616519 82.731118 
L 117.557894 82.685868 
L 114.40102 83.242048 
L 111.262775 84.386173 
L 108.255999 86.079744 
L 105.485788 88.257135 
L 103.201463 90.389419 
L 101.290631 92.651061 
L 99.711329 95.197995 
L 98.510692 97.925639 
L 97.713871 100.704549 
L 97.306269 102.181889 
L 96.970589 101.933952 
L 96.367246 100.182537 
L 95.505265 98.459469 
L 94.413832 96.894775 
L 93.17263 95.659738 
L 91.635114 94.324212 
L 90.024091 93.400367 
L 88.425814 92.909483 
L 86.926366 92.850909 
L 85.427385 92.997898 
L 83.331394 92.728155 
L 81.238465 92.775084 
L 79.212282 93.146758 
L 77.315253 93.837293 
L 75.607212 94.828506 
L 74.142181 96.090295 
L 72.965681 97.582022 
L 72.117992 99.25614 
L 71.485316 101.026791 
L 71.209806 102.883486 
L 71.186589 104.759542 
L 69.172014 106.62 
" clip-path="url(#p5ef24abbf7)" style="fill: none; stroke: #8c564b; stroke-width: 1.5; stroke-linecap: square"/>
   </g>
   <g id="line2d_10">
    <path d="M 128.240204 106.080722 
L 129.830859 103.738898 
L 131.095868 101.192015 
L 132.614415 98.344681 
L 133.503589 95.376732 
L 133.727327 92.405189 
L 133.275625 89.551898 
L 132.166556 86.937141 
L 130.448533 84.671463 
L 128.182999 82.859849 
L 125.467529 81.579745 
L 122.401835 80.89844 
L 119.10599 80.852764 
L 115.707209 81.45171 
L 112.328809 82.68317 
L 109.092665 84.504697 
L 106.110724 86.847489 
L 103.662241 89.112418 
L 101.5989 91.559677 
L 99.89446 94.314039 
L 98.599565 97.262776 
L 97.741378 100.26343 
L 97.303759 101.894263 
L 96.941295 101.567316 
L 96.289828 99.672826 
L 95.373837 97.876495 
L 94.202581 96.193873 
L 92.835539 94.774245 
L 91.172366 93.327722 
L 89.430535 92.32856 
L 87.702233 91.797199 
L 86.080339 91.732814 
L 84.472761 91.906742 
L 82.195617 91.602247 
L 79.919839 91.641615 
L 77.710781 92.03109 
L 75.638587 92.767268 
L 73.768889 93.831322 
L 72.161962 95.191649 
L 70.870248 96.805197 
L 69.934079 98.618647 
L 69.384388 100.57238 
L 69.141171 102.587736 
L 69.087916 104.610279 
L 66.916842 106.62 
" clip-path="url(#p5ef24abbf7)" style="fill: none; stroke: #e377c2; stroke-width: 1.5; stroke-linecap: square"/>
   </g>
   <g id="line2d_11">
    <path d="M 130.251596 106.045613 
L 131.939581 103.551879 
L 133.237176 100.847639 
L 134.840486 97.822375 
L 135.777046 94.669816 
L 136.006509 91.514698 
L 135.518809 88.48632 
L 134.338455 85.709477 
L 132.506949 83.306677 
L 130.098736 81.383807 
L 127.210387 80.027907 
L 123.953957 79.305141 
L 120.453504 79.25717 
L 116.842706 79.895334 
L 113.25552 81.202737 
L 109.820279 83.134944 
L 106.654054 85.621922 
L 104.066487 87.992093 
L 101.86935 90.60219 
L 100.054639 93.540871 
L 98.676984 96.685343 
L 97.765062 99.88361 
L 97.30169 101.657147 
L 96.915633 101.246141 
L 96.221766 99.22471 
L 95.260389 97.37327 
L 94.021741 95.593868 
L 92.536484 93.988668 
L 90.762735 92.445613 
L 88.904851 91.379313 
L 87.060233 90.81032 
L 85.329105 90.739996 
L 83.630344 90.94384 
L 81.18911 90.604485 
L 78.745509 90.63218 
L 76.372283 91.03654 
L 74.141612 91.811919 
L 72.124127 92.939134 
L 70.386511 94.385929 
L 68.98586 96.106611 
L 67.968546 98.0449 
L 67.368267 100.136312 
L 67.204615 102.31087 
L 67.242449 104.479024 
L 64.9343 106.62 
" clip-path="url(#p5ef24abbf7)" style="fill: none; stroke: #7f7f7f; stroke-width: 1.5; stroke-linecap: square"/>
   </g>
   <g id="line2d_12">
    <path d="M 131.981282 106.015421 
L 133.752383 103.391106 
L 135.070163 100.552848 
L 136.743132 97.375954 
L 137.716468 94.066766 
L 137.9507 90.75509 
L 137.435175 87.57599 
L 136.188869 84.663532 
L 134.259795 82.144493 
L 131.730256 80.126749 
L 128.693724 78.707145 
L 125.274875 77.949181 
L 121.600251 77.899305 
L 117.810116 78.569347 
L 114.045014 79.941511 
L 110.439569 81.969114 
L 107.116579 84.57862 
L 104.41352 87.030327 
L 102.100345 89.784383 
L 100.19119 92.881758 
L 98.742593 96.195995 
L 97.784998 99.563912 
L 97.300041 101.468183 
L 96.893806 100.972962 
L 96.16351 98.841158 
L 95.150991 96.888015 
L 93.87021 95.091109 
L 92.277167 93.307475 
L 90.407326 91.680269 
L 88.448093 90.55453 
L 86.503656 89.954753 
L 84.678566 89.880254 
L 82.901226 90.110442 
L 80.316828 89.739782 
L 77.724419 89.754467 
L 75.203141 90.167826 
L 72.831086 90.97556 
L 70.68394 92.157916 
L 68.831743 93.680358 
L 67.335856 95.494916 
L 66.244967 97.541781 
L 65.596746 99.753148 
L 65.412756 102.05469 
L 65.654759 104.366104 
L 63.229001 106.62 
" clip-path="url(#p5ef24abbf7)" style="fill: none; stroke: #bcbd22; stroke-width: 1.5; stroke-linecap: square"/>
   </g>
   <g id="line2d_13">
    <path d="M 133.587402 105.987387 
L 135.435966 103.241792 
L 136.761528 100.280834 
L 138.501093 96.963481 
L 139.50943 93.509256 
L 139.745917 90.053687 
L 139.199996 86.737648 
L 137.891981 83.700849 
L 135.8748 81.073701 
L 133.231046 78.970416 
L 130.059969 77.490643 
L 126.489278 76.702562 
L 122.654378 76.651111 
L 118.699267 77.350626 
L 114.77054 78.782473 
L 111.008602 80.897892 
L 107.54151 83.620121 
L 104.735829 86.137081 
L 102.315548 89.022487 
L 100.317703 92.271093 
L 98.803094 95.744752 
L 97.803306 99.270305 
L 97.298574 101.300097 
L 96.873353 100.71697 
L 96.108943 98.481887 
L 95.048411 96.433 
L 93.730952 94.629071 
L 92.033909 92.668471 
L 90.073914 90.962291 
L 88.021103 89.783498 
L 85.982327 89.15337 
L 84.068687 89.074249 
L 82.218783 89.330394 
L 79.49744 88.927514 
L 76.766344 88.930922 
L 74.104728 89.351668 
L 71.597035 90.188006 
L 69.324206 91.420339 
L 67.360763 93.01281 
L 65.772161 94.915218 
L 64.611949 97.065097 
L 63.919412 99.390356 
L 63.717827 101.812368 
L 64.013477 104.249371 
L 61.645266 106.62 
" clip-path="url(#p5ef24abbf7)" style="fill: none; stroke: #17becf; stroke-width: 1.5; stroke-linecap: square"/>
   </g>
   <g id="line2d_14">
    <path d="M 134.885604 105.964726 
L 136.796715 103.12111 
L 138.122838 100.061902 
L 139.914619 96.631823 
L 140.950538 93.061154 
L 141.188248 89.490159 
L 140.617319 86.064378 
L 139.259192 82.928034 
L 137.172898 80.213027 
L 134.435418 78.042467 
L 131.157184 76.513685 
L 127.463546 75.702448 
L 123.500143 75.649639 
L 119.412764 76.372666 
L 115.352851 77.852223 
L 111.465438 80.037886 
L 107.911554 82.785427 
L 104.996485 85.414702 
L 102.488483 88.410237 
L 100.419476 91.779845 
L 98.851601 95.382958 
L 97.817816 99.037619 
L 97.297475 101.174143 
L 96.857246 100.515381 
L 96.065504 98.195891 
L 94.966212 96.068389 
L 93.602845 94.204028 
L 91.835768 92.147981 
L 89.802667 90.378182 
L 87.672334 89.153714 
L 85.557943 88.50101 
L 83.573155 88.419362 
L 81.665084 88.697504 
L 78.83089 88.266756 
L 75.982306 88.256976 
L 73.205813 88.683742 
L 70.587889 89.543983 
L 68.212724 90.817424 
L 66.158561 92.467237 
L 64.494292 94.441482 
L 63.276439 96.675256 
L 62.546637 99.093438 
L 62.329763 101.613919 
L 62.632853 104.151177 
L 60.36483 106.62 
" clip-path="url(#p5ef24abbf7)" style="fill: none; stroke: #1f77b4; stroke-width: 1.5; stroke-linecap: square"/>
   </g>
   <g id="line2d_15">
    <path d="M 135.875891 105.947441 
L 137.832288 103.029268 
L 139.160657 99.894994 
L 140.987002 96.380208 
L 142.043375 92.721343 
L 142.281526 89.063009 
L 141.691158 85.554272 
L 140.297405 82.341185 
L 138.156008 79.561198 
L 135.347167 77.339981 
L 131.987884 75.774031 
L 128.202205 74.944193 
L 124.140368 74.891547 
L 119.953001 75.632186 
L 115.793912 77.147623 
L 111.811627 79.386177 
L 108.205414 82.122576 
L 105.192577 84.871253 
L 102.618598 87.949583 
L 100.495685 91.411995 
L 98.887747 95.11336 
L 97.828525 98.86588 
L 97.296741 101.090031 
L 96.845851 100.37276 
L 96.033938 97.988066 
L 94.905576 95.799426 
L 93.505503 93.88106 
L 91.684589 91.750854 
L 89.595714 89.932526 
L 87.406377 88.673465 
L 85.23302 88.001539 
L 83.192913 87.916841 
L 81.241931 88.21383 
L 78.320751 87.761048 
L 75.384081 87.742751 
L 72.51967 88.173914 
L 69.815411 89.050998 
L 67.360322 90.355045 
L 65.235816 92.048485 
L 63.51339 94.077839 
L 62.251719 96.376137 
L 61.494019 98.865766 
L 61.264947 101.461683 
L 61.573265 104.075817 
L 59.389884 106.62 
" clip-path="url(#p5ef24abbf7)" style="fill: none; stroke: #ff7f0e; stroke-width: 1.5; stroke-linecap: square"/>
   </g>
   <g id="line2d_16">
    <path d="M 136.555234 105.935583 
L 138.540578 102.966451 
L 139.871993 99.780594 
L 141.723092 96.207498 
L 142.791066 92.488854 
L 143.029051 88.770946 
L 142.425511 85.205434 
L 141.007591 81.939753 
L 138.827439 79.116021 
L 135.97063 76.859613 
L 132.555051 75.269026 
L 128.707341 74.425656 
L 124.577516 74.373919 
L 120.322069 75.126321 
L 116.095439 76.665929 
L 112.048524 78.940211 
L 108.404221 81.674137 
L 105.32351 84.508384 
L 102.705831 87.640746 
L 100.546311 91.167627 
L 98.911501 94.936188 
L 97.835445 98.754905 
L 97.296374 101.048051 
L 96.839409 100.292142 
L 96.014751 97.861736 
L 94.867311 95.629691 
L 93.442747 93.672844 
L 91.581878 91.481045 
L 89.453772 89.626865 
L 87.224604 88.34523 
L 85.010503 87.659488 
L 82.932118 87.572179 
L 80.953091 87.88368 
L 77.973059 87.416377 
L 74.974724 87.390874 
L 72.047096 87.822775 
L 69.283854 88.711766 
L 66.774277 90.03715 
L 64.601484 91.760618 
L 62.838799 93.827753 
L 61.546475 96.170273 
L 60.768976 98.708946 
L 60.532998 101.357038 
L 60.846293 104.024112 
L 58.721404 106.62 
" clip-path="url(#p5ef24abbf7)" style="fill: none; stroke: #2ca02c; stroke-width: 1.5; stroke-linecap: square"/>
   </g>
   <g id="line2d_17">
    <path d="M 136.94697 105.928745 
L 138.947983 102.930319 
L 140.286213 99.713977 
L 142.152526 96.106739 
L 143.225876 92.353653 
L 143.463108 88.601357 
L 142.853534 85.00211 
L 141.419751 81.70678 
L 139.216918 78.857786 
L 136.333305 76.580178 
L 132.884169 74.97598 
L 129.000737 74.124477 
L 124.831491 74.073186 
L 120.536819 74.831972 
L 116.271234 76.385096 
L 112.186991 78.679543 
L 108.514547 81.425279 
L 105.395769 84.308127 
L 102.753346 87.472527 
L 100.573927 91.03433 
L 98.924207 94.841421 
L 97.839015 98.697649 
L 97.296317 101.041516 
L 96.837399 100.266976 
L 96.006746 97.80903 
L 94.849389 95.550196 
L 93.411581 93.56944 
L 91.523855 91.328627 
L 89.372845 89.452594 
L 87.119634 88.155681 
L 84.88221 87.462277 
L 82.781153 87.372665 
L 80.789114 87.69625 
L 77.775134 87.220172 
L 74.739712 87.188862 
L 71.777104 87.622162 
L 68.980196 88.517975 
L 66.439426 89.855512 
L 64.239035 91.596134 
L 62.453376 93.684867 
L 61.143589 96.052669 
L 60.354835 98.619372 
L 60.11428 101.297174 
L 60.429885 103.994496 
L 58.334435 106.62 
" clip-path="url(#p5ef24abbf7)" style="fill: none; stroke: #d62728; stroke-width: 1.5; stroke-linecap: square"/>
   </g>
   <g id="patch_3">
    <path d="M 150.505 106.62 
C 150.505 92.526499 144.900407 78.995814 134.934796 69.030204 
C 124.969186 59.064593 111.438501 53.46 97.345 53.46 
C 83.251499 53.46 69.720814 59.064593 59.755204 69.030204 
C 49.789593 78.995814 44.185 92.526499 44.185 106.62 
" style="fill: none; stroke: #000000; stroke-width: 0.8; stroke-linejoin: miter; stroke-linecap: square"/>
   </g>
   <g id="patch_4">
    <path d="M 97.345 106.62 
L 150.505 106.62 
" style="fill: none; stroke: #000000; stroke-width: 0.8; stroke-linejoin: miter; stroke-linecap: square"/>
   </g>
   <g id="patch_5">
    <path d="M 97.345 106.62 
L 44.185 106.62 
" style="fill: none; stroke: #000000; stroke-width: 0.8; stroke-linejoin: miter; stroke-linecap: square"/>
   </g>
   <g id="text_4">
    <!-- X -->
    <g transform="translate(93.235 20.88) scale(0.12 -0.12)">
     <defs>
      <path id="DejaVuSans-58" d="M 403 4666 
L 1081 4666 
L 2241 2931 
L 3406 4666 
L 4084 4666 
L 2584 2425 
L 4184 0 
L 3506 0 
L 2194 1984 
L 872 0 
L 191 0 
L 1856 2491 
L 403 4666 
z
" transform="scale(0.015625)"/>
     </defs>
     <use xlink:href="#DejaVuSans-58"/>
    </g>
   </g>
  </g>
  <g id="axes_2">
   <g id="patch_6">
    <path d="M 322.205 106.62 
C 322.205 92.526499 316.600407 78.995814 306.634796 69.030204 
C 296.669186 59.064593 283.138501 53.46 269.045 53.46 
C 254.951499 53.46 241.420814 59.064593 231.455204 69.030204 
C 221.489593 78.995814 215.885 92.526499 215.885 106.62 
L 269.045 106.62 
C 269.045 106.62 269.045 106.62 269.045 106.62 
C 269.045 106.62 269.045 106.62 269.045 106.62 
C 269.045 106.62 269.045 106.62 269.045 106.62 
C 269.045 106.62 269.045 106.62 269.045 106.62 
z
" style="fill: #ffffff"/>
   </g>
   <g id="matplotlib.axis_3">
    <g id="xtick_4">
     <g id="line2d_18">
      <path d="M 269.045 106.62 
L 322.205 106.62 
" clip-path="url(#p02dad3df43)" style="fill: none; stroke: #b0b0b0; stroke-width: 0.8; stroke-linecap: square"/>
     </g>
     <g id="text_5">
      <!-- 0° -->
      <g transform="translate(330.52375 109.379375) scale(0.1 -0.1)">
       <use xlink:href="#DejaVuSans-30"/>
       <use xlink:href="#DejaVuSans-b0" x="63.623047"/>
      </g>
     </g>
    </g>
    <g id="xtick_5">
     <g id="line2d_19">
      <path d="M 269.045 106.62 
L 269.045 53.46 
" clip-path="url(#p02dad3df43)" style="fill: none; stroke: #b0b0b0; stroke-width: 0.8; stroke-linecap: square"/>
     </g>
     <g id="text_6">
      <!-- 90° -->
      <g transform="translate(260.1825 42.219375) scale(0.1 -0.1)">
       <use xlink:href="#DejaVuSans-39"/>
       <use xlink:href="#DejaVuSans-30" x="63.623047"/>
       <use xlink:href="#DejaVuSans-b0" x="127.246094"/>
      </g>
     </g>
    </g>
    <g id="xtick_6">
     <g id="line2d_20">
      <path d="M 269.045 106.62 
L 215.885 106.62 
" clip-path="url(#p02dad3df43)" style="fill: none; stroke: #b0b0b0; stroke-width: 0.8; stroke-linecap: square"/>
     </g>
     <g id="text_7">
      <!-- 180° -->
      <g transform="translate(189.84125 109.379375) scale(0.1 -0.1)">
       <use xlink:href="#DejaVuSans-31"/>
       <use xlink:href="#DejaVuSans-38" x="63.623047"/>
       <use xlink:href="#DejaVuSans-30" x="127.246094"/>
       <use xlink:href="#DejaVuSans-b0" x="190.869141"/>
      </g>
     </g>
    </g>
   </g>
   <g id="matplotlib.axis_4"/>
   <g id="line2d_21">
    <path d="M 269.045 106.62 
L 269.045 106.62 
L 269.045 106.62 
L 269.045 106.62 
L 269.045 106.62 
L 269.045 106.62 
L 269.045 106.62 
L 269.045 106.62 
L 269.045 106.62 
L 269.045 106.62 
L 269.045 106.62 
L 269.045 106.62 
L 269.045 106.62 
L 269.045 106.62 
L 269.045 106.62 
L 269.045 106.62 
L 269.045 106.62 
L 269.045 106.62 
L 269.045 106.62 
L 269.045 106.62 
L 269.045 106.62 
L 269.045 106.62 
L 269.045 106.62 
L 269.045 106.62 
L 269.045 106.62 
L 269.045 106.62 
L 269.045 106.62 
L 269.045 106.62 
L 269.045 106.62 
L 269.045 106.62 
L 269.045 106.62 
L 269.045 106.62 
L 269.045 106.62 
L 269.045 106.62 
L 269.045 106.62 
L 269.045 106.62 
L 269.045 106.62 
L 269.045 106.62 
L 269.045 106.62 
L 269.045 106.62 
L 269.045 106.62 
L 269.045 106.62 
L 269.045 106.62 
L 269.045 106.62 
L 269.045 106.62 
" clip-path="url(#p02dad3df43)" style="fill: none; stroke: #1f77b4; stroke-width: 1.5; stroke-linecap: square"/>
   </g>
   <g id="line2d_22">
    <path d="M 272.830163 106.55393 
L 273.387336 106.234887 
L 273.938118 105.833064 
L 274.329561 105.380075 
L 274.558553 104.905598 
L 274.691436 104.413901 
L 275.592152 103.509911 
L 276.333062 102.500428 
L 276.899028 101.412567 
L 277.277582 100.276937 
L 277.465748 99.122179 
L 277.468084 97.973463 
L 277.29223 96.854436 
L 276.952341 95.781748 
L 276.465384 94.765839 
L 275.847285 93.814511 
L 275.111959 92.934992 
L 274.350661 91.915909 
L 273.502248 90.839754 
L 272.496873 89.958195 
L 271.367688 89.296137 
L 270.151173 88.880685 
L 268.88882 88.723558 
L 267.623498 88.828805 
L 266.398123 89.193156 
L 265.253592 89.802418 
L 264.226605 90.633207 
L 263.349336 91.658248 
L 262.375328 92.257389 
L 261.497249 92.990749 
L 260.775859 93.908729 
L 260.238966 94.982094 
L 259.904458 96.172155 
L 259.782349 97.437831 
L 259.875751 98.738262 
L 260.176101 100.030099 
L 260.669735 101.275022 
L 261.333443 102.436926 
L 262.136515 103.48485 
L 262.392868 104.153901 
L 262.809779 104.799915 
L 263.43652 105.406938 
L 264.263781 105.936436 
L 265.26957 106.351481 
L 265.315267 106.62 
" clip-path="url(#p02dad3df43)" style="fill: none; stroke: #ff7f0e; stroke-width: 1.5; stroke-linecap: square"/>
   </g>
   <g id="line2d_23">
    <path d="M 274.436708 106.525887 
L 275.236738 106.070868 
L 276.025166 105.497414 
L 276.586383 104.850553 
L 276.915987 104.17257 
L 277.086707 103.478053 
L 278.364653 102.192891 
L 279.415788 100.75792 
L 280.217386 99.212406 
L 280.753066 97.599135 
L 281.018294 95.958998 
L 281.021009 94.326283 
L 280.772734 92.733165 
L 280.293188 91.202593 
L 279.604935 89.750366 
L 278.729334 88.388975 
L 277.686044 87.128725 
L 276.615307 85.639677 
L 275.403744 84.107779 
L 273.968769 82.853512 
L 272.357688 81.912184 
L 270.622439 81.323164 
L 268.822302 81.101369 
L 267.018336 81.254741 
L 265.271571 81.776014 
L 263.64059 82.647609 
L 262.177112 83.833262 
L 260.927175 85.295554 
L 259.539722 86.151135 
L 258.289385 87.198191 
L 257.263695 88.509852 
L 256.499923 90.040638 
L 256.025822 91.738788 
L 255.853062 93.542684 
L 255.988394 95.396754 
L 256.417149 97.237066 
L 257.121934 99.010865 
L 258.067663 100.665429 
L 259.212195 102.15776 
L 259.547674 103.099122 
L 260.144853 104.022013 
L 261.04192 104.889008 
L 262.22493 105.644944 
L 263.662281 106.237166 
L 263.731366 106.62 
" clip-path="url(#p02dad3df43)" style="fill: none; stroke: #2ca02c; stroke-width: 1.5; stroke-linecap: square"/>
   </g>
   <g id="line2d_24">
    <path d="M 274.987319 106.516276 
L 275.873961 106.014354 
L 276.745798 105.381519 
L 277.367036 104.667388 
L 277.732802 103.918587 
L 277.914033 103.154811 
L 279.319637 101.739246 
L 280.475692 100.15881 
L 281.356391 98.457215 
L 281.944862 96.680877 
L 282.235977 94.874775 
L 282.238969 93.076012 
L 281.967153 91.31885 
L 281.441748 89.628312 
L 280.686645 88.02232 
L 279.724449 86.515642 
L 278.576682 85.119747 
L 277.404248 83.45321 
L 276.065766 81.763986 
L 274.480991 80.381078 
L 272.702006 79.344076 
L 270.786255 78.696094 
L 268.799189 78.452804 
L 266.808159 78.62421 
L 264.880431 79.20078 
L 263.080823 80.164647 
L 261.466052 81.474062 
L 260.087021 83.088581 
L 258.557597 84.036207 
L 257.178864 85.192883 
L 256.049103 86.642789 
L 255.207482 88.33257 
L 254.686503 90.207916 
L 254.496898 92.198303 
L 254.647587 94.244218 
L 255.121708 96.274509 
L 255.900439 98.231323 
L 256.943861 100.055832 
L 258.206818 101.701509 
L 258.558173 102.732291 
L 259.219142 103.751794 
L 260.211579 104.709413 
L 261.519594 105.544103 
L 263.108138 106.197754 
L 263.188107 106.62 
" clip-path="url(#p02dad3df43)" style="fill: none; stroke: #d62728; stroke-width: 1.5; stroke-linecap: square"/>
   </g>
   <g id="line2d_25">
    <path d="M 275.576809 106.505987 
L 276.557526 105.95373 
L 277.519283 105.257123 
L 278.205531 104.47065 
L 278.610899 103.645549 
L 278.794726 102.810719 
L 280.333414 101.257672 
L 281.598851 99.523945 
L 282.561412 97.658253 
L 283.204883 95.710052 
L 283.52343 93.728429 
L 283.52735 91.753451 
L 283.249284 89.800676 
L 282.660795 87.957417 
L 281.837331 86.184086 
L 280.785724 84.517764 
L 279.528223 82.973393 
L 278.25252 81.102311 
L 276.777151 79.245428 
L 275.031153 77.725502 
L 273.071635 76.587187 
L 270.962024 75.87736 
L 268.774397 75.612025 
L 266.582836 75.804118 
L 264.461234 76.440817 
L 262.48113 77.504582 
L 260.704526 78.947419 
L 259.187441 80.725502 
L 257.508609 81.777295 
L 255.993223 83.051928 
L 254.753713 84.651523 
L 253.829578 86.511555 
L 253.258259 88.5754 
L 253.052975 90.766927 
L 253.219998 93.017086 
L 253.744086 95.250887 
L 254.60244 97.402958 
L 255.749946 99.408201 
L 257.132546 101.213992 
L 257.492839 102.337346 
L 258.222777 103.460952 
L 259.318528 104.516255 
L 260.761683 105.435745 
L 262.513366 106.155452 
L 262.606161 106.62 
" clip-path="url(#p02dad3df43)" style="fill: none; stroke: #9467bd; stroke-width: 1.5; stroke-linecap: square"/>
   </g>
   <g id="line2d_26">
    <path d="M 276.257328 106.494108 
L 277.346664 105.883743 
L 278.411869 105.113573 
L 279.173152 104.243616 
L 279.624583 103.330351 
L 279.797273 102.419017 
L 281.484342 100.710947 
L 282.871819 98.804401 
L 283.92513 96.754071 
L 284.630251 94.611831 
L 284.980496 92.431059 
L 284.986611 90.255479 
L 284.737255 88.038766 
L 284.067673 86.029068 
L 283.148252 84.089871 
L 281.998586 82.234518 
L 280.616657 80.518254 
L 279.228526 78.39741 
L 277.595226 76.349153 
L 275.663576 74.672869 
L 273.496331 73.41957 
L 271.163886 72.640164 
L 268.745935 72.350568 
L 266.324255 72.567776 
L 263.980305 73.274412 
L 261.79307 74.452548 
L 259.831426 76.05059 
L 258.156306 78.016849 
L 256.309837 79.195834 
L 254.638802 80.6062 
L 253.272741 82.374982 
L 252.257584 84.434035 
L 251.629171 86.713317 
L 251.407571 89.135819 
L 251.59357 91.619034 
L 252.175721 94.085538 
L 253.123547 96.459149 
L 254.391569 98.67136 
L 255.86214 100.637467 
L 256.26349 101.881598 
L 257.072694 103.125238 
L 258.287801 104.293318 
L 259.886541 105.310628 
L 261.826742 106.106618 
L 261.934084 106.62 
" clip-path="url(#p02dad3df43)" style="fill: none; stroke: #8c564b; stroke-width: 1.5; stroke-linecap: square"/>
   </g>
   <g id="line2d_27">
    <path d="M 276.87602 106.483309 
L 278.065457 105.819995 
L 279.225185 104.982771 
L 280.05533 104.036629 
L 280.549456 103.042767 
L 280.718224 102.059196 
L 282.524463 100.216859 
L 284.019618 98.155608 
L 285.152781 95.940106 
L 285.912897 93.623574 
L 286.292562 91.262798 
L 286.36217 88.843427 
L 286.093298 86.433074 
L 285.362812 84.253877 
L 284.339729 82.186472 
L 283.101397 80.158446 
L 281.608041 78.282025 
L 280.122646 75.919448 
L 278.344354 73.696973 
L 276.24251 71.878419 
L 273.884969 70.520903 
L 271.348543 69.678876 
L 268.719906 69.367928 
L 266.087856 69.609057 
L 263.540755 70.380448 
L 261.164404 71.663967 
L 259.033912 73.404545 
L 257.214716 75.543417 
L 255.216256 76.840895 
L 253.406829 78.381583 
L 251.926034 80.304833 
L 250.829854 82.54717 
L 250.150132 85.022742 
L 249.914742 87.65596 
L 250.118961 90.351485 
L 250.75506 93.029936 
L 251.784313 95.604469 
L 253.162443 98.004631 
L 254.699182 100.109703 
L 255.138657 101.464597 
L 256.02057 102.818119 
L 257.345631 104.089535 
L 259.087252 105.196354 
L 261.200796 106.062099 
L 261.322762 106.62 
" clip-path="url(#p02dad3df43)" style="fill: none; stroke: #e377c2; stroke-width: 1.5; stroke-linecap: square"/>
   </g>
   <g id="line2d_28">
    <path d="M 277.420094 106.473812 
L 278.698578 105.763844 
L 279.941744 104.867531 
L 280.832923 103.854181 
L 281.36525 102.789102 
L 281.550438 101.734044 
L 283.436577 99.783578 
L 285.021635 97.589219 
L 286.223157 95.230417 
L 287.030523 92.762463 
L 287.436634 90.244118 
L 287.581594 87.591654 
L 287.2901 85.015937 
L 286.50519 82.688069 
L 285.386998 80.513445 
L 284.072545 78.330233 
L 282.482524 76.309489 
L 280.915895 73.721041 
L 279.008752 71.344767 
L 276.755844 69.400613 
L 274.229474 67.951396 
L 271.512187 67.054574 
L 268.696844 66.725231 
L 265.878451 66.988194 
L 263.151483 67.817513 
L 260.6078 69.195033 
L 258.32796 71.06229 
L 256.381484 73.354626 
L 254.251587 74.763555 
L 252.320989 76.420841 
L 250.739921 78.481547 
L 249.570717 80.883116 
L 248.849389 83.535963 
L 248.599987 86.352629 
L 248.823903 89.238273 
L 249.506502 92.102215 
L 250.609614 94.854792 
L 252.085206 97.420292 
L 253.668795 99.642102 
L 254.140635 101.094607 
L 255.088838 102.546143 
L 256.51196 103.90922 
L 258.380684 105.095337 
L 260.648534 106.02282 
L 260.784908 106.62 
" clip-path="url(#p02dad3df43)" style="fill: none; stroke: #7f7f7f; stroke-width: 1.5; stroke-linecap: square"/>
   </g>
   <g id="line2d_29">
    <path d="M 277.893577 106.465548 
L 279.250542 105.714892 
L 280.566545 104.767047 
L 281.511204 103.695035 
L 282.077291 102.567697 
L 282.27754 101.449961 
L 284.226528 99.408328 
L 285.88753 97.099773 
L 287.147794 94.617358 
L 287.994694 92.019585 
L 288.424173 89.364815 
L 288.648008 86.496949 
L 288.336043 83.777434 
L 287.502952 81.32048 
L 286.298486 79.057332 
L 284.919362 76.736076 
L 283.246271 74.586732 
L 281.612428 71.790674 
L 279.592012 69.279816 
L 277.206427 67.225698 
L 274.531811 65.696402 
L 271.655775 64.751913 
L 268.67661 64.40668 
L 265.69476 64.689163 
L 262.810061 65.569615 
L 260.119717 67.030039 
L 257.708996 69.008651 
L 255.651127 71.436075 
L 253.408813 72.948708 
L 251.370277 74.704106 
L 249.705259 76.891071 
L 248.472181 79.43131 
L 247.716399 82.24093 
L 247.455181 85.21777 
L 247.697442 88.269986 
L 248.419993 91.294901 
L 249.589165 94.203556 
L 251.150244 96.913129 
L 252.765309 99.23209 
L 253.265404 100.770139 
L 254.272305 102.307794 
L 255.782011 103.751339 
L 257.762679 105.006982 
L 260.166487 105.988536 
L 260.316606 106.62 
" clip-path="url(#p02dad3df43)" style="fill: none; stroke: #bcbd22; stroke-width: 1.5; stroke-linecap: square"/>
   </g>
   <g id="line2d_30">
    <path d="M 278.463364 106.455602 
L 279.913027 105.656138 
L 281.315131 104.646655 
L 282.323054 103.504549 
L 282.929169 102.302812 
L 283.147596 101.110025 
L 285.153349 98.968061 
L 286.902254 96.526201 
L 288.230803 93.899294 
L 289.12374 91.149674 
L 289.661037 88.263513 
L 289.912077 85.199347 
L 289.57507 82.310299 
L 288.684596 79.700851 
L 287.37494 77.337682 
L 285.921304 74.849893 
L 284.151145 72.545643 
L 282.44136 69.493375 
L 280.285985 66.822904 
L 277.742525 64.638012 
L 274.891461 63.013943 
L 271.826614 62.012218 
L 268.652545 61.649125 
L 265.476325 61.955273 
L 262.404075 62.896632 
L 259.5394 64.455923 
L 256.973173 66.567288 
L 254.783049 69.155751 
L 252.411005 70.800009 
L 250.244976 72.672108 
L 248.48024 75.007979 
L 247.173452 77.714932 
L 246.374413 80.70701 
L 246.103154 83.877491 
L 246.365292 87.124892 
L 247.137857 90.342229 
L 248.385684 93.435511 
L 250.046915 96.314637 
L 251.686223 98.742388 
L 252.219008 100.382215 
L 253.295594 102.022688 
L 254.907525 103.562196 
L 257.022075 104.901099 
L 259.587911 105.947386 
L 259.752994 106.62 
" clip-path="url(#p02dad3df43)" style="fill: none; stroke: #17becf; stroke-width: 1.5; stroke-linecap: square"/>
   </g>
   <g id="line2d_31">
    <path d="M 278.922229 106.447592 
L 280.448174 105.608677 
L 281.920409 104.549312 
L 282.979992 103.350411 
L 283.618985 102.088318 
L 283.85253 100.834602 
L 285.904705 98.611145 
L 287.724905 96.061198 
L 289.107965 93.317712 
L 290.037911 90.445321 
L 290.687634 87.349432 
L 290.946917 84.137053 
L 290.588578 81.110202 
L 289.650356 78.377126 
L 288.251942 75.93666 
L 286.739346 73.309907 
L 284.908207 70.837966 
L 283.120264 67.61186 
L 280.854341 64.810722 
L 278.181645 62.518432 
L 275.186046 60.816768 
L 271.966589 59.767487 
L 268.632832 59.390181 
L 265.297317 59.714857 
L 262.071479 60.706844 
L 259.063995 62.347167 
L 256.370395 64.56735 
L 254.072034 67.288007 
L 251.593858 69.040348 
L 249.325954 71.012596 
L 247.477364 73.466365 
L 246.114055 76.31485 
L 245.27879 79.454689 
L 245.001645 82.785553 
L 245.278676 86.190854 
L 246.09465 89.56709 
L 247.406422 92.81056 
L 249.148818 95.827471 
L 250.803398 98.341752 
L 251.365698 100.065873 
L 252.499982 101.790446 
L 254.195564 103.408205 
L 256.420658 104.815115 
L 259.119429 105.914066 
L 259.298889 106.62 
" clip-path="url(#p02dad3df43)" style="fill: none; stroke: #1f77b4; stroke-width: 1.5; stroke-linecap: square"/>
   </g>
   <g id="line2d_32">
    <path d="M 279.260127 106.441694 
L 280.843799 105.573589 
L 282.368579 104.477235 
L 283.466944 103.236157 
L 284.130715 101.929199 
L 284.375606 100.630233 
L 286.466263 98.344388 
L 288.340686 95.713128 
L 289.763402 92.883139 
L 290.72085 89.919128 
L 291.461208 86.660644 
L 291.726136 83.337162 
L 291.351691 80.206599 
L 290.376498 77.381834 
L 288.911369 74.883218 
L 287.355083 72.150765 
L 285.4856 69.535563 
L 283.631421 66.195242 
L 281.28228 63.295666 
L 278.512361 60.9221 
L 275.407916 59.16194 
L 272.072035 58.076493 
L 268.617981 57.688437 
L 265.162435 58.026702 
L 261.820892 59.056999 
L 258.705819 60.7584 
L 255.916258 63.060585 
L 253.536438 65.881068 
L 250.977794 67.713702 
L 248.634817 69.764586 
L 246.723327 72.307264 
L 245.317296 75.261867 
L 244.455777 78.513966 
L 244.173202 81.964308 
L 244.463273 85.489947 
L 245.31249 88.985917 
L 246.670575 92.340952 
L 248.476344 95.462693 
L 250.140709 98.041016 
L 250.726391 99.828868 
L 251.904813 101.616714 
L 253.663924 103.293216 
L 255.972551 104.75105 
L 258.771551 105.889324 
L 258.964287 106.62 
" clip-path="url(#p02dad3df43)" style="fill: none; stroke: #ff7f0e; stroke-width: 1.5; stroke-linecap: square"/>
   </g>
   <g id="line2d_33">
    <path d="M 279.474384 106.437954 
L 281.096483 105.551179 
L 282.655731 104.431053 
L 283.779613 103.162794 
L 284.459784 101.826878 
L 284.712153 100.498742 
L 286.835028 98.169214 
L 288.74479 95.484708 
L 290.193451 92.598005 
L 291.168756 89.574024 
L 291.971541 86.206244 
L 292.239624 82.810052 
L 291.854085 79.611713 
L 290.854086 76.727225 
L 289.343804 74.192397 
L 287.759416 71.389597 
L 285.865751 68.678072 
L 283.968003 65.26244 
L 281.564097 62.297934 
L 278.730208 59.870579 
L 275.554078 58.071781 
L 272.141511 56.962327 
L 268.608195 56.567097 
L 265.073552 56.914265 
L 261.655754 57.969739 
L 258.469798 59.711478 
L 255.616991 62.067657 
L 253.183565 64.954119 
L 250.571493 66.838765 
L 248.179125 68.941725 
L 246.226217 71.543109 
L 244.790205 74.565273 
L 243.913502 77.894133 
L 243.626074 81.421934 
L 243.926449 85.028502 
L 244.797374 88.603168 
L 246.186683 92.032139 
L 248.034578 95.22306 
L 249.706396 97.84392 
L 250.308389 99.673905 
L 251.516675 101.503415 
L 253.318333 103.218468 
L 255.682349 104.70956 
L 258.547557 105.873393 
L 258.751877 106.62 
" clip-path="url(#p02dad3df43)" style="fill: none; stroke: #2ca02c; stroke-width: 1.5; stroke-linecap: square"/>
   </g>
   <g id="line2d_34">
    <path d="M 279.571757 106.436255 
L 281.214646 105.5407 
L 282.791569 104.409207 
L 283.928688 103.127817 
L 284.617565 101.777817 
L 284.874075 100.435478 
L 287.026 98.078497 
L 288.952967 95.367037 
L 290.414553 92.451409 
L 291.39865 89.396895 
L 292.234384 85.972209 
L 292.503345 82.539336 
L 292.111526 79.306877 
L 291.098356 76.392415 
L 289.563991 73.840645 
L 287.965241 71.002125 
L 286.059926 68.240079 
L 284.140014 64.785729 
L 281.708191 61.78779 
L 278.841587 59.332963 
L 275.628841 57.514166 
L 272.177045 56.392488 
L 268.603188 55.993356 
L 265.028081 56.345156 
L 261.571239 57.413299 
L 258.349025 59.175767 
L 255.463802 61.559395 
L 253.002968 64.479715 
L 250.362064 66.387775 
L 247.943447 68.516154 
L 245.969891 71.149086 
L 244.518472 74.206155 
L 243.633957 77.574607 
L 243.344158 81.142468 
L 243.650006 84.790876 
L 244.531419 88.405555 
L 245.938064 91.873474 
L 247.808073 95.100194 
L 249.48825 97.744923 
L 250.099773 99.596566 
L 251.324398 101.447288 
L 253.148852 103.181811 
L 255.541819 104.689468 
L 258.441281 105.865835 
L 258.655007 106.62 
" clip-path="url(#p02dad3df43)" style="fill: none; stroke: #d62728; stroke-width: 1.5; stroke-linecap: square"/>
   </g>
   <g id="patch_7">
    <path d="M 322.205 106.62 
C 322.205 92.526499 316.600407 78.995814 306.634796 69.030204 
C 296.669186 59.064593 283.138501 53.46 269.045 53.46 
C 254.951499 53.46 241.420814 59.064593 231.455204 69.030204 
C 221.489593 78.995814 215.885 92.526499 215.885 106.62 
" style="fill: none; stroke: #000000; stroke-width: 0.8; stroke-linejoin: miter; stroke-linecap: square"/>
   </g>
   <g id="patch_8">
    <path d="M 269.045 106.62 
L 322.205 106.62 
" style="fill: none; stroke: #000000; stroke-width: 0.8; stroke-linejoin: miter; stroke-linecap: square"/>
   </g>
   <g id="patch_9">
    <path d="M 269.045 106.62 
L 215.885 106.62 
" style="fill: none; stroke: #000000; stroke-width: 0.8; stroke-linejoin: miter; stroke-linecap: square"/>
   </g>
   <g id="text_8">
    <!-- Y -->
    <g transform="translate(265.380312 20.88) scale(0.12 -0.12)">
     <defs>
      <path id="DejaVuSans-59" d="M -13 4666 
L 666 4666 
L 1959 2747 
L 3244 4666 
L 3922 4666 
L 2272 2222 
L 2272 0 
L 1638 0 
L 1638 2222 
L -13 4666 
z
" transform="scale(0.015625)"/>
     </defs>
     <use xlink:href="#DejaVuSans-59"/>
    </g>
   </g>
  </g>
 </g>
 <defs>
  <clipPath id="p5ef24abbf7">
   <path d="M 150.505 106.62 
C 150.505 92.526499 144.900407 78.995814 134.934796 69.030204 
C 124.969186 59.064593 111.438501 53.46 97.345 53.46 
C 83.251499 53.46 69.720814 59.064593 59.755204 69.030204 
C 49.789593 78.995814 44.185 92.526499 44.185 106.62 
L 97.345 106.62 
C 97.345 106.62 97.345 106.62 97.345 106.62 
C 97.345 106.62 97.345 106.62 97.345 106.62 
C 97.345 106.62 97.345 106.62 97.345 106.62 
C 97.345 106.62 97.345 106.62 97.345 106.62 
z
"/>
  </clipPath>
  <clipPath id="p02dad3df43">
   <path d="M 322.205 106.62 
C 322.205 92.526499 316.600407 78.995814 306.634796 69.030204 
C 296.669186 59.064593 283.138501 53.46 269.045 53.46 
C 254.951499 53.46 241.420814 59.064593 231.455204 69.030204 
C 221.489593 78.995814 215.885 92.526499 215.885 106.62 
L 269.045 106.62 
C 269.045 106.62 269.045 106.62 269.045 106.62 
C 269.045 106.62 269.045 106.62 269.045 106.62 
C 269.045 106.62 269.045 106.62 269.045 106.62 
C 269.045 106.62 269.045 106.62 269.045 106.62 
z
"/>
  </clipPath>
 </defs>
</svg>
