<?xml version="1.0" encoding="utf-8" standalone="no"?>
<!DOCTYPE svg PUBLIC "-//W3C//DTD SVG 1.1//EN"
  "http://www.w3.org/Graphics/SVG/1.1/DTD/svg11.dtd">
<svg xmlns:xlink="http://www.w3.org/1999/xlink" width="360pt" height="144pt" viewBox="0 0 360 144" xmlns="http://www.w3.org/2000/svg" version="1.1">
 <metadata>
  <rdf:RDF xmlns:dc="http://purl.org/dc/elements/1.1/" xmlns:cc="http://creativecommons.org/ns#" xmlns:rdf="http://www.w3.org/1999/02/22-rdf-syntax-ns#">
   <cc:Work>
    <dc:type rdf:resource="http://purl.org/dc/dcmitype/StillImage"/>
    <dc:date>2023-06-20T07:11:48.396617</dc:date>
    <dc:format>image/svg+xml</dc:format>
    <dc:creator>
     <cc:Agent>
      <dc:title>Matplotlib v3.7.1, https://matplotlib.org/</dc:title>
     </cc:Agent>
    </dc:creator>
   </cc:Work>
  </rdf:RDF>
 </metadata>
 <defs>
  <style type="text/css">*{stroke-linejoin: round; stroke-linecap: butt}</style>
 </defs>
 <g id="figure_1">
  <g id="patch_1">
   <path d="M 0 144 
L 360 144 
L 360 0 
L 0 0 
z
" style="fill: #ffffff"/>
  </g>
  <g id="axes_1">
   <g id="patch_2">
    <path d="M 150.505 106.62 
C 150.505 92.526499 144.900407 78.995814 134.934796 69.030204 
C 124.969186 59.064593 111.438501 53.46 97.345 53.46 
C 83.251499 53.46 69.720814 59.064593 59.755204 69.030204 
C 49.789593 78.995814 44.185 92.526499 44.185 106.62 
L 97.345 106.62 
C 97.345 106.62 97.345 106.62 97.345 106.62 
C 97.345 106.62 97.345 106.62 97.345 106.62 
C 97.345 106.62 97.345 106.62 97.345 106.62 
C 97.345 106.62 97.345 106.62 97.345 106.62 
z
" style="fill: #ffffff"/>
   </g>
   <g id="matplotlib.axis_1">
    <g id="xtick_1">
     <g id="line2d_1">
      <path d="M 97.345 106.62 
L 150.505 106.62 
" clip-path="url(#p7ad338543d)" style="fill: none; stroke: #b0b0b0; stroke-width: 0.8; stroke-linecap: square"/>
     </g>
     <g id="text_1">
      <!-- 0° -->
      <g transform="translate(158.82375 109.379375) scale(0.1 -0.1)">
       <defs>
        <path id="DejaVuSans-30" d="M 2034 4250 
Q 1547 4250 1301 3770 
Q 1056 3291 1056 2328 
Q 1056 1369 1301 889 
Q 1547 409 2034 409 
Q 2525 409 2770 889 
Q 3016 1369 3016 2328 
Q 3016 3291 2770 3770 
Q 2525 4250 2034 4250 
z
M 2034 4750 
Q 2819 4750 3233 4129 
Q 3647 3509 3647 2328 
Q 3647 1150 3233 529 
Q 2819 -91 2034 -91 
Q 1250 -91 836 529 
Q 422 1150 422 2328 
Q 422 3509 836 4129 
Q 1250 4750 2034 4750 
z
" transform="scale(0.015625)"/>
        <path id="DejaVuSans-b0" d="M 1600 4347 
Q 1350 4347 1178 4173 
Q 1006 4000 1006 3750 
Q 1006 3503 1178 3333 
Q 1350 3163 1600 3163 
Q 1850 3163 2022 3333 
Q 2194 3503 2194 3750 
Q 2194 3997 2020 4172 
Q 1847 4347 1600 4347 
z
M 1600 4750 
Q 1800 4750 1984 4673 
Q 2169 4597 2303 4453 
Q 2447 4313 2519 4134 
Q 2591 3956 2591 3750 
Q 2591 3338 2302 3052 
Q 2013 2766 1594 2766 
Q 1172 2766 890 3047 
Q 609 3328 609 3750 
Q 609 4169 896 4459 
Q 1184 4750 1600 4750 
z
" transform="scale(0.015625)"/>
       </defs>
       <use xlink:href="#DejaVuSans-30"/>
       <use xlink:href="#DejaVuSans-b0" x="63.623047"/>
      </g>
     </g>
    </g>
    <g id="xtick_2">
     <g id="line2d_2">
      <path d="M 97.345 106.62 
L 97.345 53.46 
" clip-path="url(#p7ad338543d)" style="fill: none; stroke: #b0b0b0; stroke-width: 0.8; stroke-linecap: square"/>
     </g>
     <g id="text_2">
      <!-- 90° -->
      <g transform="translate(88.4825 42.219375) scale(0.1 -0.1)">
       <defs>
        <path id="DejaVuSans-39" d="M 703 97 
L 703 672 
Q 941 559 1184 500 
Q 1428 441 1663 441 
Q 2288 441 2617 861 
Q 2947 1281 2994 2138 
Q 2813 1869 2534 1725 
Q 2256 1581 1919 1581 
Q 1219 1581 811 2004 
Q 403 2428 403 3163 
Q 403 3881 828 4315 
Q 1253 4750 1959 4750 
Q 2769 4750 3195 4129 
Q 3622 3509 3622 2328 
Q 3622 1225 3098 567 
Q 2575 -91 1691 -91 
Q 1453 -91 1209 -44 
Q 966 3 703 97 
z
M 1959 2075 
Q 2384 2075 2632 2365 
Q 2881 2656 2881 3163 
Q 2881 3666 2632 3958 
Q 2384 4250 1959 4250 
Q 1534 4250 1286 3958 
Q 1038 3666 1038 3163 
Q 1038 2656 1286 2365 
Q 1534 2075 1959 2075 
z
" transform="scale(0.015625)"/>
       </defs>
       <use xlink:href="#DejaVuSans-39"/>
       <use xlink:href="#DejaVuSans-30" x="63.623047"/>
       <use xlink:href="#DejaVuSans-b0" x="127.246094"/>
      </g>
     </g>
    </g>
    <g id="xtick_3">
     <g id="line2d_3">
      <path d="M 97.345 106.62 
L 44.185 106.62 
" clip-path="url(#p7ad338543d)" style="fill: none; stroke: #b0b0b0; stroke-width: 0.8; stroke-linecap: square"/>
     </g>
     <g id="text_3">
      <!-- 180° -->
      <g transform="translate(18.14125 109.379375) scale(0.1 -0.1)">
       <defs>
        <path id="DejaVuSans-31" d="M 794 531 
L 1825 531 
L 1825 4091 
L 703 3866 
L 703 4441 
L 1819 4666 
L 2450 4666 
L 2450 531 
L 3481 531 
L 3481 0 
L 794 0 
L 794 531 
z
" transform="scale(0.015625)"/>
        <path id="DejaVuSans-38" d="M 2034 2216 
Q 1584 2216 1326 1975 
Q 1069 1734 1069 1313 
Q 1069 891 1326 650 
Q 1584 409 2034 409 
Q 2484 409 2743 651 
Q 3003 894 3003 1313 
Q 3003 1734 2745 1975 
Q 2488 2216 2034 2216 
z
M 1403 2484 
Q 997 2584 770 2862 
Q 544 3141 544 3541 
Q 544 4100 942 4425 
Q 1341 4750 2034 4750 
Q 2731 4750 3128 4425 
Q 3525 4100 3525 3541 
Q 3525 3141 3298 2862 
Q 3072 2584 2669 2484 
Q 3125 2378 3379 2068 
Q 3634 1759 3634 1313 
Q 3634 634 3220 271 
Q 2806 -91 2034 -91 
Q 1263 -91 848 271 
Q 434 634 434 1313 
Q 434 1759 690 2068 
Q 947 2378 1403 2484 
z
M 1172 3481 
Q 1172 3119 1398 2916 
Q 1625 2713 2034 2713 
Q 2441 2713 2670 2916 
Q 2900 3119 2900 3481 
Q 2900 3844 2670 4047 
Q 2441 4250 2034 4250 
Q 1625 4250 1398 4047 
Q 1172 3844 1172 3481 
z
" transform="scale(0.015625)"/>
       </defs>
       <use xlink:href="#DejaVuSans-31"/>
       <use xlink:href="#DejaVuSans-38" x="63.623047"/>
       <use xlink:href="#DejaVuSans-30" x="127.246094"/>
       <use xlink:href="#DejaVuSans-b0" x="190.869141"/>
      </g>
     </g>
    </g>
   </g>
   <g id="matplotlib.axis_2"/>
   <g id="line2d_4">
    <path d="M 97.345 106.62 
L 97.345 106.62 
L 97.345 106.62 
L 97.345 106.62 
L 97.345 106.62 
L 97.345 106.62 
L 97.345 106.62 
L 97.345 106.62 
L 97.345 106.62 
L 97.345 106.62 
L 97.345 106.62 
L 97.345 106.62 
L 97.345 106.62 
L 97.345 106.62 
L 97.345 106.62 
L 97.345 106.62 
L 97.345 106.62 
L 97.345 106.62 
L 97.345 106.62 
L 97.345 106.62 
L 97.345 106.62 
L 97.345 106.62 
L 97.345 106.62 
L 97.345 106.62 
L 97.345 106.62 
L 97.345 106.62 
L 97.345 106.62 
L 97.345 106.62 
L 97.345 106.62 
L 97.345 106.62 
L 97.345 106.62 
L 97.345 106.62 
L 97.345 106.62 
L 97.345 106.62 
L 97.345 106.62 
L 97.345 106.62 
L 97.345 106.62 
L 97.345 106.62 
L 97.345 106.62 
L 97.345 106.62 
L 97.345 106.62 
L 97.345 106.62 
L 97.345 106.62 
L 97.345 106.62 
L 97.345 106.62 
" clip-path="url(#p7ad338543d)" style="fill: none; stroke: #1f77b4; stroke-width: 1.5; stroke-linecap: square"/>
   </g>
   <g id="line2d_5">
    <path d="M 115.478805 106.303473 
L 115.334017 105.024592 
L 114.922329 103.793125 
L 114.258121 102.651648 
L 113.364459 101.638858 
L 112.272083 100.787892 
L 111.018067 100.124892 
L 109.76585 99.599124 
L 108.721397 99.077141 
L 107.607443 98.712963 
L 106.454101 98.509271 
L 105.291072 98.463129 
L 104.146172 98.566718 
L 103.044382 98.808102 
L 102.010202 99.167279 
L 101.055514 99.634856 
L 100.193922 100.193796 
L 99.43678 100.822848 
L 98.789728 101.505147 
L 98.254844 102.228286 
L 97.83326 102.978297 
L 97.54913 103.346438 
L 97.318018 103.528195 
L 97.108215 103.656456 
L 96.833556 103.252692 
L 96.485604 102.80797 
L 96.060596 102.358518 
L 95.559091 101.928655 
L 94.987926 101.544228 
L 94.355265 101.221326 
L 93.413508 100.576535 
L 92.370568 100.045874 
L 91.244545 99.647043 
L 90.071042 99.409244 
L 88.879697 99.343363 
L 87.496724 99.302388 
L 86.080122 99.430911 
L 84.701366 99.761559 
L 83.402464 100.292717 
L 82.2142 101.010662 
L 81.190173 101.904344 
L 80.344653 102.942983 
L 79.725884 104.101019 
L 79.338729 105.339345 
L 79.206267 106.62 
" clip-path="url(#p7ad338543d)" style="fill: none; stroke: #ff7f0e; stroke-width: 1.5; stroke-linecap: square"/>
   </g>
   <g id="line2d_6">
    <path d="M 124.286469 106.149735 
L 124.059271 104.250768 
L 123.436115 102.423895 
L 122.438766 100.73221 
L 121.101844 99.232971 
L 119.471313 97.975106 
L 117.602478 96.997103 
L 116.100333 96.018562 
L 114.50702 95.241117 
L 112.80903 94.70523 
L 111.053931 94.413589 
L 109.291508 94.356567 
L 107.559111 94.525449 
L 105.893807 94.902519 
L 104.327233 95.465792 
L 102.886205 96.188529 
L 101.593482 97.036861 
L 100.458353 97.991664 
L 99.490037 99.025805 
L 98.693858 100.109213 
L 98.068026 101.227279 
L 97.639978 101.889538 
L 97.306043 102.155914 
L 96.999773 102.299213 
L 96.601151 101.722555 
L 96.089653 101.051645 
L 95.463158 100.376299 
L 94.723029 99.73243 
L 93.879618 99.157573 
L 92.93863 98.663256 
L 91.544873 97.70408 
L 89.993632 96.904556 
L 88.321371 96.305789 
L 86.575912 95.944483 
L 84.72753 95.774228 
L 82.639862 95.693569 
L 80.54357 95.89756 
L 78.504641 96.400194 
L 76.588465 97.200447 
L 74.838565 98.276344 
L 73.334483 99.611238 
L 72.097319 101.159161 
L 71.196641 102.881604 
L 70.639819 104.720655 
L 70.409529 106.62 
" clip-path="url(#p7ad338543d)" style="fill: none; stroke: #2ca02c; stroke-width: 1.5; stroke-linecap: square"/>
   </g>
   <g id="line2d_7">
    <path d="M 127.580009 106.092246 
L 127.314183 103.962096 
L 126.60316 101.914555 
L 125.471805 100.020563 
L 123.965682 98.342479 
L 122.131771 96.935648 
L 120.264998 95.732328 
L 118.626067 94.590893 
L 116.812838 93.712297 
L 114.879751 93.109774 
L 112.881303 92.7865 
L 110.869969 92.736231 
L 108.898776 92.939149 
L 107.007592 93.375901 
L 105.230308 94.023119 
L 103.596366 94.85163 
L 102.129275 95.828293 
L 100.847636 96.912806 
L 99.755985 98.084254 
L 98.858639 99.313832 
L 98.155342 100.576034 
L 97.670625 101.39807 
L 97.302007 101.693485 
L 96.961415 101.819132 
L 96.518816 101.180461 
L 95.947856 100.422674 
L 95.247823 99.661845 
L 94.42043 98.937544 
L 93.477118 98.290822 
L 92.424682 97.735202 
L 90.864428 96.658105 
L 89.123483 95.754582 
L 87.248134 95.079055 
L 85.28556 94.665342 
L 83.141764 94.41113 
L 80.80291 94.32865 
L 78.458682 94.567014 
L 76.179624 95.139007 
L 74.041659 96.044677 
L 72.090809 97.257687 
L 70.417964 98.759895 
L 69.043669 100.498685 
L 68.048536 102.431524 
L 67.414244 104.491243 
L 67.114228 106.62 
" clip-path="url(#p7ad338543d)" style="fill: none; stroke: #d62728; stroke-width: 1.5; stroke-linecap: square"/>
   </g>
   <g id="line2d_8">
    <path d="M 130.95858 106.033273 
L 130.655606 103.665752 
L 129.857939 101.391104 
L 128.59347 99.288122 
L 126.906139 97.428164 
L 124.854012 95.872051 
L 123.246344 94.316101 
L 121.393448 93.026633 
L 119.338461 92.03774 
L 117.145143 91.364328 
L 114.877046 91.009494 
L 112.59501 90.965427 
L 110.354964 91.214873 
L 108.206705 91.732329 
L 106.197828 92.477492 
L 104.354108 93.425161 
L 102.700997 94.538681 
L 101.256232 95.780426 
L 100.033142 97.103021 
L 99.030294 98.485273 
L 98.246093 99.899161 
L 97.699423 100.93624 
L 97.298175 101.25434 
L 96.923638 101.346334 
L 96.437169 100.642909 
L 95.80649 99.795618 
L 95.032584 98.947713 
L 94.117387 98.14149 
L 93.072964 97.420508 
L 91.911508 96.808544 
L 90.182883 95.610438 
L 88.249876 94.600038 
L 86.167433 93.843789 
L 83.983403 93.374499 
L 81.50031 93.000162 
L 78.908038 92.920694 
L 76.316919 93.20017 
L 73.799094 93.847707 
L 71.443873 94.865772 
L 69.296219 96.221668 
L 67.457683 97.895778 
L 65.955621 99.830769 
L 64.874108 101.97768 
L 64.060447 104.252712 
L 63.734293 106.62 
" clip-path="url(#p7ad338543d)" style="fill: none; stroke: #9467bd; stroke-width: 1.5; stroke-linecap: square"/>
   </g>
   <g id="line2d_9">
    <path d="M 134.163682 105.977328 
L 133.824051 103.38475 
L 132.942761 100.894988 
L 131.550629 98.594279 
L 129.696029 96.560667 
L 128.015645 94.636781 
L 126.252328 92.88817 
L 124.187525 91.447283 
L 121.890105 90.345932 
L 119.43327 89.601366 
L 116.890248 89.216942 
L 114.331212 89.183166 
L 111.820531 89.479493 
L 109.414775 90.07648 
L 107.161443 90.938105 
L 105.10213 92.01699 
L 103.262895 93.271229 
L 101.659252 94.663497 
L 100.301803 96.151863 
L 99.195325 97.688689 
L 98.332928 99.251498 
L 97.724752 100.530042 
L 97.294775 100.864762 
L 96.888832 100.910705 
L 96.361848 100.147 
L 95.674959 99.212185 
L 94.83127 98.27978 
L 93.834588 97.398614 
L 92.694881 96.606337 
L 91.434127 95.946521 
L 89.552869 94.641985 
L 87.442222 93.532656 
L 85.165092 92.698091 
L 82.695971 92.098253 
L 79.929425 91.649855 
L 77.100867 91.577903 
L 74.282965 91.902129 
L 71.545325 92.625167 
L 68.987829 93.751191 
L 66.667447 95.247121 
L 64.676546 97.083953 
L 63.066221 99.205819 
L 61.76804 101.53361 
L 60.877168 104.026308 
L 60.527555 106.62 
" clip-path="url(#p7ad338543d)" style="fill: none; stroke: #8c564b; stroke-width: 1.5; stroke-linecap: square"/>
   </g>
   <g id="line2d_10">
    <path d="M 137.044823 105.927037 
L 136.673238 103.132061 
L 135.716029 100.448977 
L 134.206714 97.971078 
L 132.551268 95.67285 
L 131.005791 93.468511 
L 129.072817 91.548355 
L 126.814445 89.962418 
L 124.292459 88.753106 
L 121.588835 87.94054 
L 118.786156 87.528829 
L 115.963951 87.507112 
L 113.195318 87.851604 
L 110.544371 88.528191 
L 108.064608 89.495287 
L 105.798286 90.706456 
L 103.778339 92.108562 
L 102.02664 93.64532 
L 100.547857 95.280746 
L 99.343885 96.971605 
L 98.410651 98.671802 
L 97.746048 100.18854 
L 97.291998 100.546573 
L 96.858786 100.534656 
L 96.297018 99.720165 
L 95.560463 98.704314 
L 94.655458 97.696458 
L 93.584734 96.742281 
L 92.361074 95.887509 
L 91.005995 95.173427 
L 89.014174 93.813906 
L 86.751498 92.619807 
L 84.304281 91.714165 
L 81.491223 90.903973 
L 78.520357 90.438643 
L 75.485984 90.377989 
L 72.473974 90.747656 
L 69.547831 91.541642 
L 66.816487 92.765811 
L 64.35456 94.38968 
L 62.233156 96.370718 
L 60.49 98.648606 
L 58.978679 101.134819 
L 58.0193 103.823049 
L 57.645457 106.62 
" clip-path="url(#p7ad338543d)" style="fill: none; stroke: #e377c2; stroke-width: 1.5; stroke-linecap: square"/>
   </g>
   <g id="line2d_11">
    <path d="M 139.560248 105.88313 
L 139.159493 102.911561 
L 138.13612 100.059766 
L 136.525967 97.426908 
L 135.380651 94.793072 
L 133.734096 92.402545 
L 131.647962 90.325086 
L 129.218442 88.603561 
L 126.494817 87.292883 
L 123.56708 86.416336 
L 120.526514 85.979216 
L 117.46154 85.969794 
L 114.453784 86.361452 
L 111.574973 87.115588 
L 108.884846 88.184946 
L 106.430224 89.516815 
L 104.24506 91.055797 
L 102.352891 92.741147 
L 100.764873 94.512432 
L 99.475667 96.335506 
L 98.478434 98.166235 
L 97.7708 99.791597 
L 97.289809 100.295682 
L 96.833805 100.221994 
L 96.242672 99.362355 
L 95.464472 98.278523 
L 94.50664 97.202701 
L 93.371393 96.181863 
L 92.071285 95.263472 
L 90.628686 94.492106 
L 88.567149 93.126742 
L 86.176613 91.860049 
L 83.425549 90.709755 
L 80.424276 89.846297 
L 77.280342 89.372746 
L 74.070105 89.325941 
L 70.888554 89.735863 
L 67.811862 90.59998 
L 64.93588 91.91237 
L 62.359423 93.650037 
L 60.133635 95.75786 
L 58.138129 98.139918 
L 56.535711 100.785551 
L 55.520711 103.645342 
L 55.128672 106.62 
" clip-path="url(#p7ad338543d)" style="fill: none; stroke: #7f7f7f; stroke-width: 1.5; stroke-linecap: square"/>
   </g>
   <g id="line2d_12">
    <path d="M 141.717325 105.845478 
L 141.294346 102.722225 
L 140.215114 99.725411 
L 139.074853 96.828859 
L 137.882714 94.015073 
L 136.154818 91.456753 
L 133.942886 89.234929 
L 131.358307 87.394003 
L 128.458931 85.990622 
L 125.333457 85.055373 
L 122.081153 84.594969 
L 118.79866 84.597202 
L 115.575598 85.033109 
L 112.490998 85.860033 
L 109.610753 87.0253 
L 106.986323 88.469944 
L 104.654561 90.1321 
L 102.638366 91.949984 
L 100.95135 93.852235 
L 99.588177 95.792435 
L 98.536061 97.736426 
L 97.793939 99.420518 
L 97.288066 100.095968 
L 96.813564 99.968664 
L 96.198959 99.074549 
L 95.386326 97.931892 
L 94.384154 96.796307 
L 93.194089 95.716108 
L 91.828538 94.740735 
L 90.310257 93.917107 
L 88.205378 92.57063 
L 85.585383 91.078689 
L 82.649771 89.823023 
L 79.497254 88.927329 
L 76.20744 88.450497 
L 72.849748 88.419174 
L 69.528535 88.867918 
L 66.330105 89.796212 
L 63.339502 91.187916 
L 60.663067 93.021158 
L 58.368852 95.242713 
L 56.131723 97.705952 
L 54.453476 100.487857 
L 53.384105 103.493381 
L 52.971402 106.62 
" clip-path="url(#p7ad338543d)" style="fill: none; stroke: #bcbd22; stroke-width: 1.5; stroke-linecap: square"/>
   </g>
   <g id="line2d_13">
    <path d="M 143.717166 105.810571 
L 143.269422 102.54706 
L 142.15604 99.413262 
L 141.512927 96.256809 
L 140.260077 93.275848 
L 138.462694 90.555051 
L 136.142372 88.190109 
L 133.405414 86.236878 
L 130.341599 84.742362 
L 127.028538 83.749342 
L 123.573473 83.266209 
L 120.082017 83.2798 
L 116.656773 83.752888 
L 113.372061 84.652398 
L 110.302628 85.92002 
L 107.512862 87.478721 
L 105.03986 89.262998 
L 102.906757 91.206165 
L 101.124271 93.240032 
L 99.6919 95.291772 
L 98.589262 97.339626 
L 97.815582 99.073448 
L 97.286488 99.915158 
L 96.795231 99.739221 
L 96.160074 98.818533 
L 95.315783 97.618983 
L 94.271584 96.422817 
L 93.03032 95.28591 
L 91.604896 94.259141 
L 90.018437 93.390157 
L 87.773268 91.906394 
L 84.987015 90.287896 
L 81.920683 88.989659 
L 78.626797 88.064436 
L 75.201914 87.586163 
L 71.711289 87.573259 
L 68.267074 88.062871 
L 64.961031 89.053568 
L 61.875742 90.523645 
L 59.120287 92.449214 
L 56.613558 94.730336 
L 54.267632 97.302766 
L 52.507923 100.209703 
L 51.395746 103.351964 
L 50.970095 106.62 
" clip-path="url(#p7ad338543d)" style="fill: none; stroke: #17becf; stroke-width: 1.5; stroke-linecap: square"/>
   </g>
   <g id="line2d_14">
    <path d="M 145.307722 105.782808 
L 144.837617 102.40798 
L 144.142911 99.093723 
L 143.508399 95.788609 
L 142.208636 92.669957 
L 140.358349 89.814406 
L 137.953499 87.32977 
L 135.092185 85.283432 
L 131.895831 83.711864 
L 128.429722 82.669754 
L 124.807776 82.167188 
L 121.147817 82.185725 
L 117.55208 82.692753 
L 114.1025 83.651216 
L 110.879554 84.998373 
L 107.946447 86.662483 
L 105.355102 88.551917 
L 103.125366 90.600313 
L 101.265294 92.740762 
L 99.775345 94.888994 
L 98.631822 97.022185 
L 97.833009 98.793976 
L 97.285338 99.78344 
L 96.781149 99.562967 
L 96.129693 98.618507 
L 95.259301 97.368448 
L 94.182219 96.126316 
L 92.899886 94.943278 
L 91.424793 93.871303 
L 89.77984 92.959313 
L 87.377134 91.297459 
L 84.489594 89.630513 
L 81.311701 88.293579 
L 77.906728 87.350623 
L 74.37178 86.872594 
L 70.777373 86.879327 
L 67.241067 87.408087 
L 63.851113 88.451502 
L 60.70205 89.99101 
L 57.897799 91.99601 
L 55.18938 94.314613 
L 52.768455 96.978508 
L 50.954582 99.987624 
L 49.810967 103.23925 
L 49.377711 106.62 
" clip-path="url(#p7ad338543d)" style="fill: none; stroke: #1f77b4; stroke-width: 1.5; stroke-linecap: square"/>
   </g>
   <g id="line2d_15">
    <path d="M 146.503215 105.76194 
L 146.022299 102.302913 
L 145.658445 98.849987 
L 145.031919 95.431143 
L 143.715003 92.201562 
L 141.80838 89.24787 
L 139.340969 86.670681 
L 136.385176 84.552569 
L 133.088911 82.92082 
L 129.506549 81.840077 
L 125.756997 81.322003 
L 121.967395 81.344404 
L 118.240344 81.877778 
L 114.663486 82.882297 
L 111.321985 84.291585 
L 108.282668 86.029539 
L 105.5959 88.00876 
L 103.291836 90.138958 
L 101.372974 92.359535 
L 99.837855 94.587265 
L 98.663338 96.787126 
L 97.845709 98.590301 
L 97.284536 99.691497 
L 96.771468 99.44181 
L 96.107792 98.474312 
L 95.219176 97.190462 
L 94.11825 95.914073 
L 92.805884 94.696345 
L 91.293878 93.589388 
L 89.604527 92.642745 
L 87.065372 90.81822 
L 84.098825 89.114078 
L 80.834052 87.747616 
L 77.344072 86.792856 
L 73.727142 86.318473 
L 70.053631 86.341561 
L 66.453353 86.905379 
L 63.000699 87.990202 
L 59.813181 89.587631 
L 56.983331 91.656995 
L 54.112345 94.000222 
L 51.63749 96.733891 
L 49.785556 99.82049 
L 48.62108 103.154622 
L 48.182616 106.62 
" clip-path="url(#p7ad338543d)" style="fill: none; stroke: #ff7f0e; stroke-width: 1.5; stroke-linecap: square"/>
   </g>
   <g id="line2d_16">
    <path d="M 147.327353 105.747555 
L 146.832229 102.231082 
L 146.68568 98.684782 
L 146.063493 95.189103 
L 144.73436 91.8846 
L 142.789628 88.86449 
L 140.280032 86.224599 
L 137.26351 84.056092 
L 133.897205 82.3849 
L 130.236795 81.277435 
L 126.401271 80.748342 
L 122.523826 80.773212 
L 118.707781 81.324284 
L 115.044426 82.360159 
L 111.62227 83.811876 
L 108.510719 85.600227 
L 105.758949 87.640975 
L 103.404236 89.827454 
L 101.445229 92.103726 
L 99.878926 94.38902 
L 98.683602 96.635984 
L 97.853437 98.46638 
L 97.284192 99.652102 
L 96.766306 99.377193 
L 96.095215 98.391507 
L 95.195234 97.084265 
L 94.079151 95.784347 
L 92.747396 94.542706 
L 91.211148 93.411236 
L 89.492095 92.439723 
L 86.844424 90.478581 
L 83.822369 88.748719 
L 80.497989 87.363488 
L 76.948659 86.400879 
L 73.273205 85.928276 
L 69.548876 85.966511 
L 65.902616 86.553906 
L 62.412869 87.671338 
L 59.204195 89.311266 
L 56.353964 91.423674 
L 53.373451 93.784536 
L 50.864249 96.566646 
L 48.988967 99.706603 
L 47.805448 103.096612 
L 47.356877 106.62 
" clip-path="url(#p7ad338543d)" style="fill: none; stroke: #2ca02c; stroke-width: 1.5; stroke-linecap: square"/>
   </g>
   <g id="line2d_17">
    <path d="M 147.802524 105.739261 
L 147.296776 102.189882 
L 147.25714 98.592877 
L 146.634992 95.055011 
L 145.297186 91.709593 
L 143.330683 88.653096 
L 140.796873 85.979084 
L 137.748449 83.781981 
L 134.341848 82.090089 
L 130.638941 80.967589 
L 126.756794 80.431785 
L 122.831518 80.457357 
L 118.967184 81.017124 
L 115.256725 82.06917 
L 111.790438 83.543224 
L 108.639111 85.358524 
L 105.852619 87.429688 
L 103.467548 89.651991 
L 101.48571 91.960412 
L 99.901071 94.282131 
L 98.69413 96.557461 
L 97.856796 98.412511 
L 97.28425 99.658719 
L 96.765026 99.361173 
L 96.090443 98.360087 
L 95.18485 97.038204 
L 94.060844 95.723608 
L 92.718683 94.467279 
L 91.169285 93.321087 
L 89.405936 92.284142 
L 86.709834 90.271689 
L 83.654867 88.527351 
L 80.296444 87.133118 
L 76.712245 86.166519 
L 73.002532 85.69561 
L 69.249684 85.7442 
L 65.574153 86.344286 
L 62.066189 87.483284 
L 58.845746 89.148598 
L 55.980489 91.285218 
L 52.9371 93.657164 
L 50.410028 96.468402 
L 48.523356 99.640035 
L 47.327035 103.062586 
L 46.880178 106.62 
" clip-path="url(#p7ad338543d)" style="fill: none; stroke: #d62728; stroke-width: 1.5; stroke-linecap: square"/>
   </g>
   <g id="patch_3">
    <path d="M 150.505 106.62 
C 150.505 92.526499 144.900407 78.995814 134.934796 69.030204 
C 124.969186 59.064593 111.438501 53.46 97.345 53.46 
C 83.251499 53.46 69.720814 59.064593 59.755204 69.030204 
C 49.789593 78.995814 44.185 92.526499 44.185 106.62 
" style="fill: none; stroke: #000000; stroke-width: 0.8; stroke-linejoin: miter; stroke-linecap: square"/>
   </g>
   <g id="patch_4">
    <path d="M 97.345 106.62 
L 150.505 106.62 
" style="fill: none; stroke: #000000; stroke-width: 0.8; stroke-linejoin: miter; stroke-linecap: square"/>
   </g>
   <g id="patch_5">
    <path d="M 97.345 106.62 
L 44.185 106.62 
" style="fill: none; stroke: #000000; stroke-width: 0.8; stroke-linejoin: miter; stroke-linecap: square"/>
   </g>
   <g id="text_4">
    <!-- X -->
    <g transform="translate(93.235 20.88) scale(0.12 -0.12)">
     <defs>
      <path id="DejaVuSans-58" d="M 403 4666 
L 1081 4666 
L 2241 2931 
L 3406 4666 
L 4084 4666 
L 2584 2425 
L 4184 0 
L 3506 0 
L 2194 1984 
L 872 0 
L 191 0 
L 1856 2491 
L 403 4666 
z
" transform="scale(0.015625)"/>
     </defs>
     <use xlink:href="#DejaVuSans-58"/>
    </g>
   </g>
  </g>
  <g id="axes_2">
   <g id="patch_6">
    <path d="M 322.205 106.62 
C 322.205 92.526499 316.600407 78.995814 306.634796 69.030204 
C 296.669186 59.064593 283.138501 53.46 269.045 53.46 
C 254.951499 53.46 241.420814 59.064593 231.455204 69.030204 
C 221.489593 78.995814 215.885 92.526499 215.885 106.62 
L 269.045 106.62 
C 269.045 106.62 269.045 106.62 269.045 106.62 
C 269.045 106.62 269.045 106.62 269.045 106.62 
C 269.045 106.62 269.045 106.62 269.045 106.62 
C 269.045 106.62 269.045 106.62 269.045 106.62 
z
" style="fill: #ffffff"/>
   </g>
   <g id="matplotlib.axis_3">
    <g id="xtick_4">
     <g id="line2d_18">
      <path d="M 269.045 106.62 
L 322.205 106.62 
" clip-path="url(#p4b06aa78e8)" style="fill: none; stroke: #b0b0b0; stroke-width: 0.8; stroke-linecap: square"/>
     </g>
     <g id="text_5">
      <!-- 0° -->
      <g transform="translate(330.52375 109.379375) scale(0.1 -0.1)">
       <use xlink:href="#DejaVuSans-30"/>
       <use xlink:href="#DejaVuSans-b0" x="63.623047"/>
      </g>
     </g>
    </g>
    <g id="xtick_5">
     <g id="line2d_19">
      <path d="M 269.045 106.62 
L 269.045 53.46 
" clip-path="url(#p4b06aa78e8)" style="fill: none; stroke: #b0b0b0; stroke-width: 0.8; stroke-linecap: square"/>
     </g>
     <g id="text_6">
      <!-- 90° -->
      <g transform="translate(260.1825 42.219375) scale(0.1 -0.1)">
       <use xlink:href="#DejaVuSans-39"/>
       <use xlink:href="#DejaVuSans-30" x="63.623047"/>
       <use xlink:href="#DejaVuSans-b0" x="127.246094"/>
      </g>
     </g>
    </g>
    <g id="xtick_6">
     <g id="line2d_20">
      <path d="M 269.045 106.62 
L 215.885 106.62 
" clip-path="url(#p4b06aa78e8)" style="fill: none; stroke: #b0b0b0; stroke-width: 0.8; stroke-linecap: square"/>
     </g>
     <g id="text_7">
      <!-- 180° -->
      <g transform="translate(189.84125 109.379375) scale(0.1 -0.1)">
       <use xlink:href="#DejaVuSans-31"/>
       <use xlink:href="#DejaVuSans-38" x="63.623047"/>
       <use xlink:href="#DejaVuSans-30" x="127.246094"/>
       <use xlink:href="#DejaVuSans-b0" x="190.869141"/>
      </g>
     </g>
    </g>
   </g>
   <g id="matplotlib.axis_4"/>
   <g id="line2d_21">
    <path d="M 269.045 106.62 
L 269.045 106.62 
L 269.045 106.62 
L 269.045 106.62 
L 269.045 106.62 
L 269.045 106.62 
L 269.045 106.62 
L 269.045 106.62 
L 269.045 106.62 
L 269.045 106.62 
L 269.045 106.62 
L 269.045 106.62 
L 269.045 106.62 
L 269.045 106.62 
L 269.045 106.62 
L 269.045 106.62 
L 269.045 106.62 
L 269.045 106.62 
L 269.045 106.62 
L 269.045 106.62 
L 269.045 106.62 
L 269.045 106.62 
L 269.045 106.62 
L 269.045 106.62 
L 269.045 106.62 
L 269.045 106.62 
L 269.045 106.62 
L 269.045 106.62 
L 269.045 106.62 
L 269.045 106.62 
L 269.045 106.62 
L 269.045 106.62 
L 269.045 106.62 
L 269.045 106.62 
L 269.045 106.62 
L 269.045 106.62 
L 269.045 106.62 
L 269.045 106.62 
L 269.045 106.62 
L 269.045 106.62 
L 269.045 106.62 
L 269.045 106.62 
L 269.045 106.62 
L 269.045 106.62 
L 269.045 106.62 
" clip-path="url(#p4b06aa78e8)" style="fill: none; stroke: #1f77b4; stroke-width: 1.5; stroke-linecap: square"/>
   </g>
   <g id="line2d_22">
    <path d="M 273.051559 106.550065 
L 273.487568 106.225998 
L 274.738754 105.704302 
L 276.204042 104.940263 
L 277.561967 103.971707 
L 278.7611 102.823857 
L 279.765102 101.527637 
L 280.555847 100.113502 
L 281.084642 98.637391 
L 281.331937 97.153125 
L 281.318599 95.691607 
L 281.02382 94.323397 
L 280.462132 93.100949 
L 279.685386 92.035681 
L 278.705838 91.186686 
L 277.568183 90.574874 
L 276.326096 90.196309 
L 275.016176 90.071503 
L 273.687352 90.184419 
L 272.550615 89.698788 
L 271.371513 89.26761 
L 270.142239 89.023965 
L 268.890861 88.957366 
L 267.641578 89.055093 
L 266.415188 89.30551 
L 265.230057 89.69802 
L 264.102592 90.22175 
L 263.046816 90.863567 
L 262.065828 91.590907 
L 261.179676 92.417297 
L 260.400802 93.332193 
L 259.750666 94.336765 
L 259.262882 95.43882 
L 258.964016 96.626607 
L 258.864723 97.8692 
L 258.985758 99.145632 
L 259.159579 100.311261 
L 259.552155 101.47068 
L 260.188494 102.600816 
L 261.048553 103.655532 
L 262.101888 104.593279 
L 263.245587 105.365641 
L 264.217713 105.929849 
L 265.307124 106.354152 
L 265.143828 106.62 
" clip-path="url(#p4b06aa78e8)" style="fill: none; stroke: #ff7f0e; stroke-width: 1.5; stroke-linecap: square"/>
   </g>
   <g id="line2d_23">
    <path d="M 274.753697 106.520354 
L 275.378331 106.05831 
L 277.171111 105.313118 
L 279.257494 104.223826 
L 281.196951 102.841433 
L 282.897343 101.2078 
L 284.344113 99.352472 
L 285.479334 97.330505 
L 286.237891 95.220648 
L 286.594127 93.098698 
L 286.563551 91.02151 
L 286.147168 89.064133 
L 285.349643 87.313637 
L 284.227276 85.810308 
L 282.834139 84.591671 
L 281.198353 83.740978 
L 279.430534 83.193746 
L 277.552421 83.042563 
L 275.662277 83.192482 
L 274.035989 82.529049 
L 272.359281 81.900302 
L 270.609243 81.534785 
L 268.825104 81.422432 
L 267.041768 81.548007 
L 265.289598 81.894704 
L 263.594981 82.4453 
L 261.980979 83.18252 
L 260.462433 84.074736 
L 259.054573 85.106406 
L 257.784657 86.286786 
L 256.678405 87.610147 
L 255.761068 89.06418 
L 255.079569 90.657198 
L 254.658544 92.358545 
L 254.530223 94.143334 
L 254.698112 95.959762 
L 254.927273 97.610263 
L 255.49181 99.268178 
L 256.403809 100.883283 
L 257.633972 102.389668 
L 259.139611 103.728579 
L 260.803708 104.837485 
L 262.183307 105.638993 
L 263.728516 106.241877 
L 263.486775 106.62 
" clip-path="url(#p4b06aa78e8)" style="fill: none; stroke: #2ca02c; stroke-width: 1.5; stroke-linecap: square"/>
   </g>
   <g id="line2d_24">
    <path d="M 275.338287 106.51015 
L 276.028817 106.00062 
L 278.014723 105.177444 
L 280.320738 103.974356 
L 282.453764 102.450636 
L 284.328582 100.648606 
L 285.920919 98.603443 
L 287.175685 96.371644 
L 288.015335 94.042155 
L 288.411387 91.69853 
L 288.365991 89.41662 
L 287.910179 87.254352 
L 287.033904 85.3193 
L 285.7854 83.674654 
L 284.252844 82.325272 
L 282.452165 81.380642 
L 280.495646 80.791214 
L 278.422826 80.630326 
L 276.340047 80.792932 
L 274.546119 80.06671 
L 272.699466 79.363023 
L 270.770651 78.946341 
L 268.802293 78.808488 
L 266.832961 78.934631 
L 264.896525 79.306743 
L 263.022375 79.905386 
L 261.236088 80.711072 
L 259.551462 81.681737 
L 257.992162 82.818587 
L 256.587394 84.124844 
L 255.366963 85.594207 
L 254.364919 87.219052 
L 253.618274 88.986906 
L 253.164366 90.877349 
L 253.036906 92.859702 
L 253.19697 94.844361 
L 253.452882 96.669327 
L 254.079481 98.502071 
L 255.089347 100.286765 
L 256.450152 101.950798 
L 258.114116 103.429233 
L 259.976231 104.65851 
L 261.493118 105.540318 
L 263.19141 106.203677 
L 262.918085 106.62 
" clip-path="url(#p4b06aa78e8)" style="fill: none; stroke: #d62728; stroke-width: 1.5; stroke-linecap: square"/>
   </g>
   <g id="line2d_25">
    <path d="M 275.964887 106.499213 
L 276.725125 105.938866 
L 278.92922 105.03037 
L 281.46189 103.706605 
L 283.791684 102.034619 
L 285.8558 100.051912 
L 287.584305 97.813286 
L 288.966063 95.359634 
L 289.892604 92.797475 
L 290.332344 90.218466 
L 290.273406 87.718261 
L 289.764068 85.351282 
L 288.807273 83.219449 
L 287.431409 81.418541 
L 285.741616 79.946938 
L 283.770363 78.899098 
L 281.612637 78.27166 
L 279.342648 78.081135 
L 277.052853 78.269347 
L 275.085627 77.462563 
L 273.06019 76.67255 
L 270.942416 76.191795 
L 268.777917 76.015298 
L 266.608871 76.129962 
L 264.472929 76.517818 
L 262.403061 77.15829 
L 260.428028 78.030037 
L 258.560665 79.079046 
L 256.836707 80.330408 
L 255.287025 81.776721 
L 253.946445 83.410595 
L 252.85357 85.221679 
L 252.048953 87.193136 
L 251.572076 89.298894 
L 251.457128 91.501751 
L 251.580143 93.643002 
L 251.868656 95.658296 
L 252.563894 97.679952 
L 253.680435 99.647384 
L 255.183704 101.481297 
L 257.017861 103.109232 
L 259.10874 104.470879 
L 260.768586 105.436732 
L 262.624074 106.163326 
L 262.308872 106.62 
" clip-path="url(#p4b06aa78e8)" style="fill: none; stroke: #9467bd; stroke-width: 1.5; stroke-linecap: square"/>
   </g>
   <g id="line2d_26">
    <path d="M 276.688766 106.486578 
L 277.532983 105.867219 
L 279.989953 104.859777 
L 282.776734 103.398102 
L 285.344863 101.551668 
L 287.593191 99.373102 
L 289.489219 96.908396 
L 290.985097 94.218377 
L 291.999581 91.400492 
L 292.489634 88.556311 
L 292.431424 85.796765 
L 291.834643 83.225777 
L 290.790273 80.871374 
L 289.284667 78.87836 
L 287.402416 77.293789 
L 285.243625 76.125643 
L 282.860479 75.45695 
L 280.372759 75.226288 
L 277.85361 75.43438 
L 275.696168 74.51555 
L 273.469377 73.620613 
L 271.137928 73.056446 
L 268.750051 72.822144 
L 266.351448 72.908119 
L 263.984012 73.298819 
L 261.685384 73.974885 
L 259.484771 74.900434 
L 257.408622 76.052782 
L 255.495006 77.44116 
L 253.780828 79.056926 
L 252.306881 80.890268 
L 251.117115 82.92681 
L 250.256021 85.143775 
L 249.764735 87.507257 
L 249.676286 89.970969 
L 249.716905 92.258551 
L 250.048304 94.496572 
L 250.825311 96.736872 
L 252.065604 98.914556 
L 253.732063 100.94314 
L 255.764912 102.743491 
L 258.105061 104.253793 
L 259.952649 105.320079 
L 261.980012 106.117519 
L 261.605376 106.62 
" clip-path="url(#p4b06aa78e8)" style="fill: none; stroke: #8c564b; stroke-width: 1.5; stroke-linecap: square"/>
   </g>
   <g id="line2d_27">
    <path d="M 277.348269 106.475066 
L 278.272135 105.801665 
L 280.989295 104.699058 
L 284.011941 103.108283 
L 286.775982 101.106671 
L 289.205202 98.743279 
L 291.196784 96.097252 
L 292.802306 93.1912 
L 293.872903 90.158429 
L 294.390772 87.091516 
L 294.335297 84.101559 
L 293.697099 81.313912 
L 292.534301 78.806267 
L 290.917597 76.640173 
L 288.871544 74.946838 
L 286.544102 73.677458 
L 283.965746 72.963842 
L 281.287965 72.68989 
L 278.569736 72.899038 
L 276.245664 71.863195 
L 273.838705 70.865965 
L 271.315094 70.215296 
L 268.724674 69.914261 
L 266.115732 69.957954 
L 263.533958 70.335696 
L 261.021992 71.032272 
L 258.611533 72.003146 
L 256.343509 73.254871 
L 254.258383 74.77819 
L 252.398719 76.561201 
L 250.81048 78.590009 
L 249.54193 80.845072 
L 248.640217 83.296875 
L 248.146616 85.903198 
L 248.068357 88.588819 
L 248.010599 90.990706 
L 248.380378 93.432125 
L 249.244746 95.879506 
L 250.599155 98.249064 
L 252.414791 100.454796 
L 254.630628 102.412389 
L 257.169325 104.051402 
L 259.218592 105.215132 
L 261.403486 106.076515 
L 260.964952 106.62 
" clip-path="url(#p4b06aa78e8)" style="fill: none; stroke: #e377c2; stroke-width: 1.5; stroke-linecap: square"/>
   </g>
   <g id="line2d_28">
    <path d="M 277.929648 106.464918 
L 278.926859 105.743599 
L 281.903784 104.551985 
L 285.14691 102.841983 
L 288.094058 100.696825 
L 290.660759 98.174583 
L 292.772191 95.348887 
L 294.342949 92.320353 
L 295.487832 89.087687 
L 296.00852 85.845069 
L 295.941746 82.671179 
L 295.271824 79.697412 
L 294.016777 77.050864 
L 292.298901 74.746879 
L 290.134442 72.929341 
L 287.651497 71.592756 
L 284.918765 70.814153 
L 282.075802 70.50648 
L 279.191682 70.69713 
L 276.724481 69.552 
L 274.161838 68.455859 
L 271.470882 67.716968 
L 268.702235 67.342986 
L 265.906133 67.334656 
L 263.131766 67.687694 
L 260.424754 68.383095 
L 257.828676 69.405733 
L 255.390782 70.752185 
L 253.157111 72.40669 
L 251.175553 74.352486 
L 249.496111 76.56957 
L 248.169468 79.031249 
L 247.243166 81.700014 
L 246.734854 84.503702 
L 246.617272 87.34149 
L 246.498031 89.866816 
L 246.903901 92.489858 
L 247.856999 95.126734 
L 249.31296 97.665374 
L 251.260487 100.026869 
L 253.600012 102.111549 
L 256.245441 103.851574 
L 258.583838 105.124382 
L 260.870885 106.038635 
L 260.400863 106.62 
" clip-path="url(#p4b06aa78e8)" style="fill: none; stroke: #7f7f7f; stroke-width: 1.5; stroke-linecap: square"/>
   </g>
   <g id="line2d_29">
    <path d="M 278.437056 106.456061 
L 279.50265 105.692533 
L 282.735133 104.418283 
L 286.182595 102.598979 
L 289.306319 100.31988 
L 291.997214 97.652422 
L 294.196594 94.672254 
L 295.829432 91.48012 
L 296.844148 88.188413 
L 297.37896 84.789168 
L 297.268729 81.489636 
L 296.574941 78.359725 
L 295.267536 75.569838 
L 293.448413 73.171293 
L 291.188623 71.245274 
L 288.584017 69.837262 
L 285.725816 68.993719 
L 282.749081 68.640557 
L 279.728601 68.796246 
L 277.137296 67.559384 
L 274.441944 66.366683 
L 271.606789 65.537476 
L 268.682535 65.085628 
L 265.7211 65.018831 
L 262.774439 65.335081 
L 259.894091 66.02923 
L 257.134363 67.102093 
L 254.548263 68.538999 
L 252.188577 70.321028 
L 250.108304 72.425315 
L 248.360236 74.82351 
L 246.991776 77.474831 
L 246.033194 80.316989 
L 245.533112 83.312402 
L 245.261286 86.175906 
L 245.165816 88.876934 
L 245.611391 91.664996 
L 246.634388 94.463538 
L 248.199532 97.160088 
L 250.118065 99.603347 
L 252.521532 101.796736 
L 255.363745 103.660872 
L 258.041945 105.046908 
L 260.384182 106.004019 
L 259.908903 106.62 
" clip-path="url(#p4b06aa78e8)" style="fill: none; stroke: #bcbd22; stroke-width: 1.5; stroke-linecap: square"/>
   </g>
   <g id="line2d_30">
    <path d="M 279.047997 106.445397 
L 280.200628 105.630631 
L 283.770547 104.251763 
L 287.480616 102.294422 
L 290.821185 99.848843 
L 293.688944 96.991452 
L 295.98935 93.820643 
L 297.686138 90.430618 
L 298.699678 86.958147 
L 299.06551 83.48971 
L 298.801059 80.125252 
L 298.033114 76.862869 
L 296.669773 73.909447 
L 294.745744 71.393097 
L 292.381914 69.338977 
L 289.651707 67.827308 
L 286.656678 66.894009 
L 283.532201 66.470221 
L 280.3593 66.563346 
L 277.620689 65.226102 
L 274.771824 63.906257 
L 271.767968 62.952711 
L 268.658959 62.384139 
L 265.497579 62.221292 
L 262.34218 62.489118 
L 259.254706 63.193105 
L 256.298682 64.329416 
L 253.537712 65.884414 
L 251.027823 67.821436 
L 248.830291 70.11756 
L 247.000346 72.733095 
L 245.586732 75.617949 
L 244.630157 78.713286 
L 244.160791 81.952005 
L 243.631295 84.774792 
L 243.542692 87.670896 
L 244.074336 90.684068 
L 245.129398 93.647168 
L 246.537559 96.405866 
L 248.567379 99.028472 
L 251.179931 101.405118 
L 254.269882 103.424279 
L 257.388152 104.953436 
L 259.78698 105.961544 
L 259.316586 106.62 
" clip-path="url(#p4b06aa78e8)" style="fill: none; stroke: #17becf; stroke-width: 1.5; stroke-linecap: square"/>
   </g>
   <g id="line2d_31">
    <path d="M 279.541252 106.436787 
L 280.771494 105.580002 
L 284.636576 104.112484 
L 288.578745 102.036767 
L 292.119772 99.445056 
L 295.135847 96.426137 
L 297.554171 93.077307 
L 299.291575 89.523146 
L 300.332143 85.875778 
L 300.628328 82.285586 
L 300.250279 78.834869 
L 299.185319 75.680097 
L 297.755635 72.623675 
L 295.760095 70.00277 
L 293.318098 67.84341 
L 290.499849 66.230656 
L 287.408689 65.197725 
L 284.163612 64.720329 
L 280.872005 64.748188 
L 278.011795 63.338276 
L 275.039714 61.908186 
L 271.900946 60.82019 
L 268.639369 60.139237 
L 265.312266 59.901955 
L 261.98429 60.132794 
L 258.725338 60.844981 
L 255.605139 62.028333 
L 252.691613 63.661826 
L 250.058905 65.734948 
L 247.772995 68.208362 
L 245.891694 71.028883 
L 244.461904 74.131395 
L 243.518126 77.442209 
L 242.90928 80.711368 
L 242.253404 83.59038 
L 242.207457 86.67877 
L 242.76725 89.849904 
L 243.568146 92.800279 
L 245.077141 95.743111 
L 247.2511 98.540497 
L 250.042324 101.073046 
L 253.343982 103.224016 
L 256.857023 104.877501 
L 259.295976 105.926623 
L 258.838575 106.62 
" clip-path="url(#p4b06aa78e8)" style="fill: none; stroke: #1f77b4; stroke-width: 1.5; stroke-linecap: square"/>
   </g>
   <g id="line2d_32">
    <path d="M 279.905383 106.430431 
L 281.198609 105.542122 
L 285.294821 104.006622 
L 289.427907 101.837526 
L 293.111589 99.136657 
L 296.270375 95.98287 
L 298.755837 92.50648 
L 300.56923 88.800952 
L 301.595693 85.03801 
L 301.897973 81.307347 
L 301.421357 77.792143 
L 300.284676 74.551575 
L 298.536308 71.699278 
L 296.496193 68.993832 
L 293.999555 66.754775 
L 291.123661 65.056313 
L 287.966904 63.938581 
L 284.641823 63.395016 
L 281.25579 63.389449 
L 278.304106 61.927323 
L 275.242331 60.396962 
L 272.001253 59.211599 
L 268.62459 58.445729 
L 265.171786 58.14374 
L 261.712192 58.341325 
L 258.322941 59.060067 
L 255.07406 60.266282 
L 252.049368 61.974733 
L 249.328577 64.162244 
L 246.982354 66.780672 
L 245.069531 69.765059 
L 243.634291 73.037636 
L 242.694786 76.501114 
L 241.869873 79.680992 
L 241.199471 82.684436 
L 241.184217 85.918466 
L 241.512221 89.048962 
L 242.35716 92.143389 
L 243.944767 95.229227 
L 246.232092 98.162727 
L 249.162408 100.816195 
L 252.628492 103.069262 
L 256.444471 104.818519 
L 258.926742 105.900362 
L 258.485789 106.62 
" clip-path="url(#p4b06aa78e8)" style="fill: none; stroke: #ff7f0e; stroke-width: 1.5; stroke-linecap: square"/>
   </g>
   <g id="line2d_33">
    <path d="M 280.13719 106.426385 
L 281.473779 105.517718 
L 285.728863 103.936817 
L 289.988369 101.706024 
L 293.775729 98.930148 
L 297.021592 95.689365 
L 299.582597 92.113745 
L 301.417237 88.321617 
L 302.475504 84.454672 
L 302.740995 80.657812 
L 302.24675 77.057215 
L 301.035026 73.78132 
L 299.162313 70.958024 
L 296.969942 68.344485 
L 294.439114 66.052572 
L 291.52824 64.294681 
L 288.330669 63.11805 
L 284.956501 62.52292 
L 281.512379 62.481035 
L 278.495875 61.001676 
L 275.374948 59.407832 
L 272.066806 58.160347 
L 268.614898 57.335184 
L 265.079268 56.985805 
L 261.532462 57.157996 
L 258.056755 57.879339 
L 254.722832 59.100955 
L 251.626152 60.863001 
L 248.850154 63.131997 
L 246.467763 65.851457 
L 244.531784 68.938437 
L 243.075342 72.298938 
L 242.146097 75.873949 
L 241.16055 78.977832 
L 240.502369 82.085219 
L 240.493311 85.405099 
L 240.673579 88.513752 
L 241.547942 91.704435 
L 243.188173 94.885876 
L 245.551773 97.910517 
L 248.574526 100.64459 
L 252.151403 102.966072 
L 256.138069 104.774713 
L 258.687743 105.883364 
L 258.261314 106.62 
" clip-path="url(#p4b06aa78e8)" style="fill: none; stroke: #2ca02c; stroke-width: 1.5; stroke-linecap: square"/>
   </g>
   <g id="line2d_34">
    <path d="M 280.244067 106.42452 
L 281.602781 105.506277 
L 285.944874 103.902077 
L 290.267147 101.640614 
L 294.110706 98.825989 
L 297.396429 95.542913 
L 299.995156 91.917767 
L 301.842158 88.081431 
L 302.916441 84.162318 
L 303.165541 80.330707 
L 302.666491 76.683477 
L 301.415087 73.391176 
L 299.521265 70.532989 
L 297.214099 68.009829 
L 294.665789 65.690456 
L 291.736087 63.903403 
L 288.516821 62.698154 
L 285.11712 62.077782 
L 281.64342 62.017103 
L 278.593654 60.529709 
L 275.44194 58.908168 
L 272.099795 57.631317 
L 268.610033 56.777765 
L 265.0329 56.40547 
L 261.44247 56.565492 
L 257.922816 57.285227 
L 254.547099 58.517898 
L 251.414577 60.307223 
L 248.611088 62.617187 
L 246.210376 65.386684 
L 244.251874 68.508161 
L 242.792981 71.925775 
L 241.868368 75.556499 
L 240.804335 78.624712 
L 240.152093 81.784127 
L 240.124706 85.131213 
L 240.255104 88.246688 
L 241.144159 91.485406 
L 242.81071 94.714579 
L 245.212597 97.784777 
L 248.281533 100.559064 
L 251.913917 102.914706 
L 255.964423 104.749887 
L 258.576225 105.875432 
L 258.158076 106.62 
" clip-path="url(#p4b06aa78e8)" style="fill: none; stroke: #d62728; stroke-width: 1.5; stroke-linecap: square"/>
   </g>
   <g id="patch_7">
    <path d="M 322.205 106.62 
C 322.205 92.526499 316.600407 78.995814 306.634796 69.030204 
C 296.669186 59.064593 283.138501 53.46 269.045 53.46 
C 254.951499 53.46 241.420814 59.064593 231.455204 69.030204 
C 221.489593 78.995814 215.885 92.526499 215.885 106.62 
" style="fill: none; stroke: #000000; stroke-width: 0.8; stroke-linejoin: miter; stroke-linecap: square"/>
   </g>
   <g id="patch_8">
    <path d="M 269.045 106.62 
L 322.205 106.62 
" style="fill: none; stroke: #000000; stroke-width: 0.8; stroke-linejoin: miter; stroke-linecap: square"/>
   </g>
   <g id="patch_9">
    <path d="M 269.045 106.62 
L 215.885 106.62 
" style="fill: none; stroke: #000000; stroke-width: 0.8; stroke-linejoin: miter; stroke-linecap: square"/>
   </g>
   <g id="text_8">
    <!-- Y -->
    <g transform="translate(265.380312 20.88) scale(0.12 -0.12)">
     <defs>
      <path id="DejaVuSans-59" d="M -13 4666 
L 666 4666 
L 1959 2747 
L 3244 4666 
L 3922 4666 
L 2272 2222 
L 2272 0 
L 1638 0 
L 1638 2222 
L -13 4666 
z
" transform="scale(0.015625)"/>
     </defs>
     <use xlink:href="#DejaVuSans-59"/>
    </g>
   </g>
  </g>
 </g>
 <defs>
  <clipPath id="p7ad338543d">
   <path d="M 150.505 106.62 
C 150.505 92.526499 144.900407 78.995814 134.934796 69.030204 
C 124.969186 59.064593 111.438501 53.46 97.345 53.46 
C 83.251499 53.46 69.720814 59.064593 59.755204 69.030204 
C 49.789593 78.995814 44.185 92.526499 44.185 106.62 
L 97.345 106.62 
C 97.345 106.62 97.345 106.62 97.345 106.62 
C 97.345 106.62 97.345 106.62 97.345 106.62 
C 97.345 106.62 97.345 106.62 97.345 106.62 
C 97.345 106.62 97.345 106.62 97.345 106.62 
z
"/>
  </clipPath>
  <clipPath id="p4b06aa78e8">
   <path d="M 322.205 106.62 
C 322.205 92.526499 316.600407 78.995814 306.634796 69.030204 
C 296.669186 59.064593 283.138501 53.46 269.045 53.46 
C 254.951499 53.46 241.420814 59.064593 231.455204 69.030204 
C 221.489593 78.995814 215.885 92.526499 215.885 106.62 
L 269.045 106.62 
C 269.045 106.62 269.045 106.62 269.045 106.62 
C 269.045 106.62 269.045 106.62 269.045 106.62 
C 269.045 106.62 269.045 106.62 269.045 106.62 
C 269.045 106.62 269.045 106.62 269.045 106.62 
z
"/>
  </clipPath>
 </defs>
</svg>
