<?xml version="1.0" encoding="utf-8" standalone="no"?>
<!DOCTYPE svg PUBLIC "-//W3C//DTD SVG 1.1//EN"
  "http://www.w3.org/Graphics/SVG/1.1/DTD/svg11.dtd">
<svg xmlns:xlink="http://www.w3.org/1999/xlink" width="360pt" height="144pt" viewBox="0 0 360 144" xmlns="http://www.w3.org/2000/svg" version="1.1">
 <metadata>
  <rdf:RDF xmlns:dc="http://purl.org/dc/elements/1.1/" xmlns:cc="http://creativecommons.org/ns#" xmlns:rdf="http://www.w3.org/1999/02/22-rdf-syntax-ns#">
   <cc:Work>
    <dc:type rdf:resource="http://purl.org/dc/dcmitype/StillImage"/>
    <dc:date>2023-06-20T07:11:31.741602</dc:date>
    <dc:format>image/svg+xml</dc:format>
    <dc:creator>
     <cc:Agent>
      <dc:title>Matplotlib v3.7.1, https://matplotlib.org/</dc:title>
     </cc:Agent>
    </dc:creator>
   </cc:Work>
  </rdf:RDF>
 </metadata>
 <defs>
  <style type="text/css">*{stroke-linejoin: round; stroke-linecap: butt}</style>
 </defs>
 <g id="figure_1">
  <g id="patch_1">
   <path d="M 0 144 
L 360 144 
L 360 0 
L 0 0 
z
" style="fill: #ffffff"/>
  </g>
  <g id="axes_1">
   <g id="patch_2">
    <path d="M 150.505 106.62 
C 150.505 92.526499 144.900407 78.995814 134.934796 69.030204 
C 124.969186 59.064593 111.438501 53.46 97.345 53.46 
C 83.251499 53.46 69.720814 59.064593 59.755204 69.030204 
C 49.789593 78.995814 44.185 92.526499 44.185 106.62 
L 97.345 106.62 
C 97.345 106.62 97.345 106.62 97.345 106.62 
C 97.345 106.62 97.345 106.62 97.345 106.62 
C 97.345 106.62 97.345 106.62 97.345 106.62 
C 97.345 106.62 97.345 106.62 97.345 106.62 
z
" style="fill: #ffffff"/>
   </g>
   <g id="matplotlib.axis_1">
    <g id="xtick_1">
     <g id="line2d_1">
      <path d="M 97.345 106.62 
L 150.505 106.62 
" clip-path="url(#p029542aaee)" style="fill: none; stroke: #b0b0b0; stroke-width: 0.8; stroke-linecap: square"/>
     </g>
     <g id="text_1">
      <!-- 0° -->
      <g transform="translate(158.82375 109.379375) scale(0.1 -0.1)">
       <defs>
        <path id="DejaVuSans-30" d="M 2034 4250 
Q 1547 4250 1301 3770 
Q 1056 3291 1056 2328 
Q 1056 1369 1301 889 
Q 1547 409 2034 409 
Q 2525 409 2770 889 
Q 3016 1369 3016 2328 
Q 3016 3291 2770 3770 
Q 2525 4250 2034 4250 
z
M 2034 4750 
Q 2819 4750 3233 4129 
Q 3647 3509 3647 2328 
Q 3647 1150 3233 529 
Q 2819 -91 2034 -91 
Q 1250 -91 836 529 
Q 422 1150 422 2328 
Q 422 3509 836 4129 
Q 1250 4750 2034 4750 
z
" transform="scale(0.015625)"/>
        <path id="DejaVuSans-b0" d="M 1600 4347 
Q 1350 4347 1178 4173 
Q 1006 4000 1006 3750 
Q 1006 3503 1178 3333 
Q 1350 3163 1600 3163 
Q 1850 3163 2022 3333 
Q 2194 3503 2194 3750 
Q 2194 3997 2020 4172 
Q 1847 4347 1600 4347 
z
M 1600 4750 
Q 1800 4750 1984 4673 
Q 2169 4597 2303 4453 
Q 2447 4313 2519 4134 
Q 2591 3956 2591 3750 
Q 2591 3338 2302 3052 
Q 2013 2766 1594 2766 
Q 1172 2766 890 3047 
Q 609 3328 609 3750 
Q 609 4169 896 4459 
Q 1184 4750 1600 4750 
z
" transform="scale(0.015625)"/>
       </defs>
       <use xlink:href="#DejaVuSans-30"/>
       <use xlink:href="#DejaVuSans-b0" x="63.623047"/>
      </g>
     </g>
    </g>
    <g id="xtick_2">
     <g id="line2d_2">
      <path d="M 97.345 106.62 
L 97.345 53.46 
" clip-path="url(#p029542aaee)" style="fill: none; stroke: #b0b0b0; stroke-width: 0.8; stroke-linecap: square"/>
     </g>
     <g id="text_2">
      <!-- 90° -->
      <g transform="translate(88.4825 42.219375) scale(0.1 -0.1)">
       <defs>
        <path id="DejaVuSans-39" d="M 703 97 
L 703 672 
Q 941 559 1184 500 
Q 1428 441 1663 441 
Q 2288 441 2617 861 
Q 2947 1281 2994 2138 
Q 2813 1869 2534 1725 
Q 2256 1581 1919 1581 
Q 1219 1581 811 2004 
Q 403 2428 403 3163 
Q 403 3881 828 4315 
Q 1253 4750 1959 4750 
Q 2769 4750 3195 4129 
Q 3622 3509 3622 2328 
Q 3622 1225 3098 567 
Q 2575 -91 1691 -91 
Q 1453 -91 1209 -44 
Q 966 3 703 97 
z
M 1959 2075 
Q 2384 2075 2632 2365 
Q 2881 2656 2881 3163 
Q 2881 3666 2632 3958 
Q 2384 4250 1959 4250 
Q 1534 4250 1286 3958 
Q 1038 3666 1038 3163 
Q 1038 2656 1286 2365 
Q 1534 2075 1959 2075 
z
" transform="scale(0.015625)"/>
       </defs>
       <use xlink:href="#DejaVuSans-39"/>
       <use xlink:href="#DejaVuSans-30" x="63.623047"/>
       <use xlink:href="#DejaVuSans-b0" x="127.246094"/>
      </g>
     </g>
    </g>
    <g id="xtick_3">
     <g id="line2d_3">
      <path d="M 97.345 106.62 
L 44.185 106.62 
" clip-path="url(#p029542aaee)" style="fill: none; stroke: #b0b0b0; stroke-width: 0.8; stroke-linecap: square"/>
     </g>
     <g id="text_3">
      <!-- 180° -->
      <g transform="translate(18.14125 109.379375) scale(0.1 -0.1)">
       <defs>
        <path id="DejaVuSans-31" d="M 794 531 
L 1825 531 
L 1825 4091 
L 703 3866 
L 703 4441 
L 1819 4666 
L 2450 4666 
L 2450 531 
L 3481 531 
L 3481 0 
L 794 0 
L 794 531 
z
" transform="scale(0.015625)"/>
        <path id="DejaVuSans-38" d="M 2034 2216 
Q 1584 2216 1326 1975 
Q 1069 1734 1069 1313 
Q 1069 891 1326 650 
Q 1584 409 2034 409 
Q 2484 409 2743 651 
Q 3003 894 3003 1313 
Q 3003 1734 2745 1975 
Q 2488 2216 2034 2216 
z
M 1403 2484 
Q 997 2584 770 2862 
Q 544 3141 544 3541 
Q 544 4100 942 4425 
Q 1341 4750 2034 4750 
Q 2731 4750 3128 4425 
Q 3525 4100 3525 3541 
Q 3525 3141 3298 2862 
Q 3072 2584 2669 2484 
Q 3125 2378 3379 2068 
Q 3634 1759 3634 1313 
Q 3634 634 3220 271 
Q 2806 -91 2034 -91 
Q 1263 -91 848 271 
Q 434 634 434 1313 
Q 434 1759 690 2068 
Q 947 2378 1403 2484 
z
M 1172 3481 
Q 1172 3119 1398 2916 
Q 1625 2713 2034 2713 
Q 2441 2713 2670 2916 
Q 2900 3119 2900 3481 
Q 2900 3844 2670 4047 
Q 2441 4250 2034 4250 
Q 1625 4250 1398 4047 
Q 1172 3844 1172 3481 
z
" transform="scale(0.015625)"/>
       </defs>
       <use xlink:href="#DejaVuSans-31"/>
       <use xlink:href="#DejaVuSans-38" x="63.623047"/>
       <use xlink:href="#DejaVuSans-30" x="127.246094"/>
       <use xlink:href="#DejaVuSans-b0" x="190.869141"/>
      </g>
     </g>
    </g>
   </g>
   <g id="matplotlib.axis_2"/>
   <g id="line2d_4">
    <path d="M 97.345 106.62 
L 97.345 106.62 
L 97.345 106.62 
L 97.345 106.62 
L 97.345 106.62 
L 97.345 106.62 
L 97.345 106.62 
L 97.345 106.62 
L 97.345 106.62 
L 97.345 106.62 
L 97.345 106.62 
L 97.345 106.62 
L 97.345 106.62 
L 97.345 106.62 
L 97.345 106.62 
L 97.345 106.62 
L 97.345 106.62 
L 97.345 106.62 
L 97.345 106.62 
L 97.345 106.62 
L 97.345 106.62 
L 97.345 106.62 
L 97.345 106.62 
L 97.345 106.62 
L 97.345 106.62 
L 97.345 106.62 
L 97.345 106.62 
L 97.345 106.62 
L 97.345 106.62 
L 97.345 106.62 
L 97.345 106.62 
L 97.345 106.62 
L 97.345 106.62 
L 97.345 106.62 
L 97.345 106.62 
L 97.345 106.62 
L 97.345 106.62 
L 97.345 106.62 
L 97.345 106.62 
L 97.345 106.62 
L 97.345 106.62 
L 97.345 106.62 
L 97.345 106.62 
L 97.345 106.62 
L 97.345 106.62 
" clip-path="url(#p029542aaee)" style="fill: none; stroke: #1f77b4; stroke-width: 1.5; stroke-linecap: square"/>
   </g>
   <g id="line2d_5">
    <path d="M 114.342471 106.323308 
L 114.278541 105.1182 
L 113.981494 103.944435 
L 113.461618 102.838533 
L 112.736956 101.833976 
L 111.829805 100.960693 
L 110.769431 100.243001 
L 109.731532 99.618522 
L 108.70983 99.08481 
L 107.588623 98.727464 
L 106.403048 98.554728 
L 105.192678 98.564133 
L 103.991583 98.749767 
L 102.83508 99.094983 
L 101.753337 99.577625 
L 100.770506 100.171391 
L 99.905296 100.844838 
L 99.219846 101.424059 
L 98.707222 101.79725 
L 98.254354 102.230647 
L 97.869767 102.706005 
L 97.580938 102.836338 
L 97.309514 102.553701 
L 97.005168 102.366743 
L 96.686911 102.287191 
L 96.375792 102.320875 
L 95.866957 101.716052 
L 95.268047 101.164122 
L 94.629033 100.77138 
L 93.981293 100.546031 
L 93.357586 100.490573 
L 92.788144 100.597736 
L 92.055047 100.573465 
L 90.981058 100.311353 
L 89.829515 100.159812 
L 88.624437 100.140318 
L 87.306068 100.213293 
L 86.000606 100.466322 
L 84.752746 100.905491 
L 83.59956 101.524247 
L 82.577975 102.309449 
L 81.719778 103.24041 
L 81.051759 104.290577 
L 80.596206 105.42878 
L 80.367874 106.62 
" clip-path="url(#p029542aaee)" style="fill: none; stroke: #ff7f0e; stroke-width: 1.5; stroke-linecap: square"/>
   </g>
   <g id="line2d_6">
    <path d="M 122.683412 106.177716 
L 122.58356 104.381645 
L 122.13681 102.632856 
L 121.357392 100.985934 
L 120.271024 99.491308 
L 118.913662 98.192984 
L 117.331176 97.125979 
L 115.84703 96.161741 
L 114.309083 95.372354 
L 112.620849 94.85022 
L 110.843014 94.601389 
L 109.025495 94.629637 
L 107.228266 94.917203 
L 105.498722 95.444045 
L 103.882618 96.176071 
L 102.417402 97.071063 
L 101.130188 98.081896 
L 100.094533 98.999953 
L 99.336242 99.570292 
L 98.669254 100.227972 
L 98.106317 100.941685 
L 97.684515 101.175318 
L 97.29375 100.74736 
L 96.852791 100.459629 
L 96.389415 100.3285 
L 95.93442 100.363079 
L 95.153523 99.348972 
L 94.262698 98.523203 
L 93.311748 97.934711 
L 92.347133 97.595168 
L 91.417932 97.508947 
L 90.569584 97.665725 
L 89.518234 97.673831 
L 87.922277 97.279149 
L 86.21082 97.04924 
L 84.353383 96.966776 
L 82.376585 97.067365 
L 80.42809 97.443554 
L 78.564516 98.097201 
L 76.84498 99.020168 
L 75.320525 100.190971 
L 74.041287 101.579624 
L 73.047978 103.146287 
L 72.372554 104.843892 
L 72.035675 106.62 
" clip-path="url(#p029542aaee)" style="fill: none; stroke: #2ca02c; stroke-width: 1.5; stroke-linecap: square"/>
   </g>
   <g id="line2d_7">
    <path d="M 125.867444 106.122139 
L 125.750364 104.100788 
L 125.241377 102.133563 
L 124.357662 100.281976 
L 123.130124 98.602291 
L 121.59891 97.14384 
L 119.812354 95.947347 
L 118.194368 94.83491 
L 116.44672 93.955043 
L 114.537956 93.373122 
L 112.522881 93.105639 
L 110.471855 93.144906 
L 108.441273 93.480879 
L 106.490191 94.085081 
L 104.670148 94.91798 
L 103.022701 95.931572 
L 101.577602 97.072681 
L 100.412025 98.120058 
L 99.561871 98.771486 
L 98.816501 99.517227 
L 98.188856 100.32607 
L 97.719128 100.620234 
L 97.288383 100.132369 
L 96.800188 99.801261 
L 96.285655 99.645348 
L 95.76811 99.625376 
L 94.884638 98.456847 
L 93.883702 97.527629 
L 92.815174 96.865379 
L 91.731142 96.482851 
L 90.68692 96.385242 
L 89.733807 96.561175 
L 88.570488 96.590535 
L 86.776099 96.142929 
L 84.849856 95.879377 
L 82.721146 95.753966 
L 80.493105 95.865354 
L 78.296909 96.287512 
L 76.197791 97.023154 
L 74.259789 98.061778 
L 72.543783 99.38043 
L 71.105004 100.944533 
L 69.988232 102.70884 
L 69.229517 104.62035 
L 68.854254 106.62 
" clip-path="url(#p029542aaee)" style="fill: none; stroke: #d62728; stroke-width: 1.5; stroke-linecap: square"/>
   </g>
   <g id="line2d_8">
    <path d="M 129.228078 106.063479 
L 129.087417 103.804832 
L 128.509477 101.607971 
L 127.512142 99.541836 
L 126.12895 97.669826 
L 124.405659 96.047225 
L 122.412515 94.712194 
L 120.685396 93.426858 
L 118.710016 92.454417 
L 116.553677 91.820043 
L 114.284429 91.537159 
L 111.97501 91.601875 
L 109.695778 91.995417 
L 107.509591 92.687832 
L 105.473775 93.634176 
L 103.634233 94.780346 
L 102.025391 96.06262 
L 100.734284 97.22695 
L 99.789416 97.965897 
L 98.962898 98.810584 
L 98.270002 99.720834 
L 97.751436 100.102134 
L 97.283302 99.55009 
L 96.749665 99.168923 
L 96.184987 98.982556 
L 95.58728 98.823265 
L 94.602492 97.520723 
L 93.486986 96.485511 
L 92.296473 95.748397 
L 91.088932 95.323189 
L 89.926121 95.215746 
L 88.865366 95.413459 
L 87.584451 95.463474 
L 85.576991 94.95424 
L 83.423228 94.653071 
L 80.998232 94.473781 
L 78.502869 94.595213 
L 76.043172 95.06499 
L 73.693551 95.886702 
L 71.523486 97.047367 
L 69.604911 98.522562 
L 67.995999 100.272084 
L 66.749921 102.245863 
L 65.907781 104.384099 
L 65.496271 106.62 
" clip-path="url(#p029542aaee)" style="fill: none; stroke: #9467bd; stroke-width: 1.5; stroke-linecap: square"/>
   </g>
   <g id="line2d_9">
    <path d="M 132.531958 106.005809 
L 132.365824 103.514077 
L 131.71267 101.092817 
L 130.597426 98.817931 
L 129.057557 96.759195 
L 127.142933 94.977755 
L 125.089535 93.440531 
L 123.151798 92.032726 
L 120.941033 90.975192 
L 118.533139 90.294902 
L 116.004046 90.006015 
L 113.43494 90.103214 
L 110.904797 90.563815 
L 108.483338 91.35316 
L 106.233601 92.420345 
L 104.207823 93.700547 
L 102.440862 95.125459 
L 101.041436 96.375711 
L 100.004154 97.205646 
L 99.099496 98.151242 
L 98.344545 99.164853 
L 97.779574 99.65089 
L 97.27881 99.03537 
L 96.704582 98.604679 
L 96.094231 98.385029 
L 95.410346 98.038439 
L 94.327493 96.608315 
L 93.101495 95.472878 
L 91.793742 94.665806 
L 90.467969 94.201893 
L 89.192035 94.087313 
L 88.028847 94.30793 
L 86.62679 94.368846 
L 84.406477 93.793897 
L 82.025618 93.451708 
L 79.306746 93.216948 
L 76.547194 93.347129 
L 73.827174 93.862938 
L 71.229249 94.768373 
L 68.83045 96.048996 
L 66.711191 97.677874 
L 64.935254 99.610073 
L 63.564442 101.790439 
L 62.639683 104.151663 
L 62.192595 106.62 
" clip-path="url(#p029542aaee)" style="fill: none; stroke: #8c564b; stroke-width: 1.5; stroke-linecap: square"/>
   </g>
   <g id="line2d_10">
    <path d="M 135.578787 105.952627 
L 135.385778 103.246243 
L 134.664286 100.618123 
L 133.436232 98.151857 
L 131.7441 95.923833 
L 129.648945 93.99864 
L 127.586345 92.254473 
L 125.446792 90.735483 
L 123.010587 89.603022 
L 120.362873 88.885122 
L 117.585592 88.597809 
L 114.770788 88.731928 
L 112.002806 89.26366 
L 109.359625 90.152071 
L 106.910332 91.339257 
L 104.711999 92.751422 
L 102.80216 94.310491 
L 101.316014 95.614745 
L 100.23395 96.392088 
L 99.258217 97.385112 
L 98.409894 98.677448 
L 97.802151 99.288826 
L 97.275156 98.616635 
L 96.667254 98.137487 
L 96.018314 97.885196 
L 95.249345 97.324285 
L 94.077986 95.780484 
L 92.752582 94.556329 
L 91.339693 93.688046 
L 89.908235 93.191162 
L 88.531458 93.071878 
L 87.277134 93.314478 
L 85.754464 93.371757 
L 83.333535 92.730278 
L 80.710463 92.321223 
L 77.750043 92.060263 
L 74.745784 92.197494 
L 71.784716 92.755023 
L 68.955847 93.736677 
L 66.345237 95.12767 
L 64.039696 96.898054 
L 62.109997 98.998997 
L 60.622692 101.369861 
L 59.622636 103.937083 
L 59.147332 106.62 
" clip-path="url(#p029542aaee)" style="fill: none; stroke: #e377c2; stroke-width: 1.5; stroke-linecap: square"/>
   </g>
   <g id="line2d_11">
    <path d="M 138.330705 105.904592 
L 138.115462 103.004154 
L 137.325929 100.190065 
L 135.994808 97.551534 
L 134.166773 95.170519 
L 131.90156 93.118528 
L 129.868341 91.170458 
L 127.54131 89.551558 
L 124.896974 88.352296 
L 122.026161 87.603588 
L 119.018261 87.322162 
L 115.975522 87.495234 
L 112.98672 88.098605 
L 110.138164 89.084961 
L 107.504999 90.38927 
L 105.147688 91.931224 
L 103.109705 93.616775 
L 101.606799 94.808864 
L 100.477363 95.530318 
L 99.419719 96.605562 
L 98.500021 98.00523 
L 97.819628 99.008556 
L 97.272285 98.287696 
L 96.63776 97.768351 
L 95.95748 97.484671 
L 95.106815 96.692064 
L 93.85758 95.049205 
L 92.444955 93.748234 
L 90.940099 92.827553 
L 89.416428 92.303088 
L 87.951811 92.180848 
L 86.618168 92.4436 
L 84.975296 92.48115 
L 82.368089 91.77322 
L 79.527779 91.304607 
L 76.348752 91.019055 
L 73.122681 91.161652 
L 69.942723 91.755848 
L 66.903031 92.805086 
L 64.100791 94.295602 
L 61.626794 96.193719 
L 59.556818 98.446768 
L 57.96351 100.989681 
L 56.896863 103.743218 
L 56.393663 106.62 
" clip-path="url(#p029542aaee)" style="fill: none; stroke: #7f7f7f; stroke-width: 1.5; stroke-linecap: square"/>
   </g>
   <g id="line2d_12">
    <path d="M 140.761364 105.862165 
L 140.522123 102.790712 
L 139.673952 99.812444 
L 138.250754 97.022218 
L 136.296084 94.508425 
L 133.972835 92.309268 
L 131.902722 90.204067 
L 129.408512 88.496123 
L 126.579849 87.236504 
L 123.507501 86.462241 
L 120.292576 86.187514 
L 117.043366 86.399062 
L 113.854982 87.070494 
L 110.820449 88.149782 
L 108.020273 89.566113 
L 105.520536 91.229327 
L 103.379882 93.007346 
L 101.903512 93.986556 
L 100.695787 94.757018 
L 99.564534 95.906556 
L 98.580777 97.40291 
L 97.832888 98.795916 
L 97.270109 98.038303 
L 96.614861 97.481752 
L 95.909964 97.171825 
L 94.984104 96.147753 
L 93.668088 94.420498 
L 92.180852 93.054469 
L 90.597546 92.089891 
L 88.995337 91.542707 
L 87.455951 91.418616 
L 86.054739 91.698981 
L 84.294277 91.702731 
L 81.517677 90.930197 
L 78.487558 90.410449 
L 75.115764 90.102902 
L 71.692768 90.249101 
L 68.317835 90.87444 
L 65.093659 91.983972 
L 62.121971 93.562008 
L 59.498119 95.57235 
L 57.303724 97.959445 
L 55.617275 100.654243 
L 54.491323 103.57213 
L 53.963531 106.62 
" clip-path="url(#p029542aaee)" style="fill: none; stroke: #bcbd22; stroke-width: 1.5; stroke-linecap: square"/>
   </g>
   <g id="line2d_13">
    <path d="M 143.069502 105.821876 
L 142.807041 102.588067 
L 141.904268 99.453753 
L 140.389445 96.520414 
L 138.318219 93.879655 
L 136.063634 91.492379 
L 133.860461 89.274084 
L 131.208376 87.478752 
L 128.198663 86.163187 
L 124.932598 85.364228 
L 121.51958 85.094992 
L 118.070417 85.344764 
L 114.688701 86.083286 
L 111.473165 87.255133 
L 108.509141 88.78514 
L 105.869277 90.572814 
L 103.664136 92.366166 
L 102.188406 93.197001 
L 100.905282 94.015333 
L 99.703335 95.236578 
L 98.658123 96.826023 
L 97.860331 98.355813 
L 97.268212 97.821011 
L 96.595058 97.233897 
L 95.868656 96.899856 
L 94.869093 95.637596 
L 93.491013 93.832987 
L 91.934675 92.407795 
L 90.278975 91.403875 
L 88.604513 90.836982 
L 86.996431 90.712245 
L 85.533121 91.00962 
L 83.648481 90.964571 
L 80.706142 90.125714 
L 77.501633 89.562965 
L 73.945252 89.233171 
L 70.335052 89.382625 
L 66.775899 90.03803 
L 63.376248 91.204592 
L 60.243502 92.865616 
L 57.474124 94.981538 
L 55.163129 97.496454 
L 53.388706 100.335628 
L 52.205667 103.409568 
L 51.655598 106.62 
" clip-path="url(#p029542aaee)" style="fill: none; stroke: #17becf; stroke-width: 1.5; stroke-linecap: square"/>
   </g>
   <g id="line2d_14">
    <path d="M 144.964106 105.788805 
L 144.683001 102.421692 
L 143.734679 99.159377 
L 142.1445 96.108622 
L 139.977777 93.363627 
L 137.791075 90.817457 
L 135.477538 88.505925 
L 132.693659 86.639197 
L 129.535517 85.276817 
L 126.112844 84.454869 
L 122.537735 84.188428 
L 118.921384 84.471222 
L 115.380519 85.264103 
L 112.014184 86.513581 
L 108.913363 88.13939 
L 106.154752 90.035399 
L 103.903931 91.825268 
L 102.424984 92.54135 
L 101.079094 93.399977 
L 99.818393 94.681209 
L 98.722139 96.348556 
L 97.884029 97.975774 
L 97.266796 97.658747 
L 96.580423 97.050732 
L 95.837738 96.696294 
L 94.777155 95.229787 
L 93.349377 93.363055 
L 91.737755 91.890512 
L 90.024214 90.855268 
L 88.291967 90.272607 
L 86.628836 90.147179 
L 85.115575 90.457798 
L 83.121388 90.362092 
L 80.039886 89.465246 
L 76.695837 88.870316 
L 72.987653 88.521641 
L 69.223479 88.673235 
L 65.512801 89.352872 
L 61.968541 90.565758 
L 58.69926 92.29313 
L 55.813371 94.496758 
L 53.406574 97.116527 
L 51.559957 100.074174 
L 50.329072 103.276099 
L 49.76106 106.62 
" clip-path="url(#p029542aaee)" style="fill: none; stroke: #1f77b4; stroke-width: 1.5; stroke-linecap: square"/>
   </g>
   <g id="line2d_15">
    <path d="M 146.416927 105.763446 
L 146.122302 102.294044 
L 145.139014 98.933525 
L 143.493007 95.79222 
L 141.251283 92.967639 
L 139.121498 90.297652 
L 136.723236 87.914181 
L 133.83911 85.991732 
L 130.569 84.591589 
L 127.023617 83.753133 
L 123.319479 83.492365 
L 119.579886 83.795251 
L 115.913477 84.633026 
L 112.431774 85.941209 
L 109.226614 87.638967 
L 106.3749 89.620964 
L 104.091669 91.401796 
L 102.607393 92.035821 
L 101.2129 92.926255 
L 99.906789 94.254529 
L 98.771176 95.982808 
L 97.902138 97.685366 
L 97.26585 97.550321 
L 96.570627 96.928125 
L 95.817353 96.56208 
L 94.709713 94.930631 
L 93.244932 93.01652 
L 91.59205 91.507766 
L 89.835009 90.44783 
L 88.05961 89.853031 
L 86.354897 89.726083 
L 84.803644 90.045555 
L 82.720122 89.903436 
L 79.53158 88.961357 
L 76.08108 88.34188 
L 72.257411 87.979046 
L 68.37489 88.131677 
L 64.546381 88.828645 
L 60.888634 90.075684 
L 57.517291 91.854946 
L 54.541908 94.125613 
L 52.06122 96.82554 
L 50.157862 99.873718 
L 48.890328 103.173772 
L 48.30833 106.62 
" clip-path="url(#p029542aaee)" style="fill: none; stroke: #ff7f0e; stroke-width: 1.5; stroke-linecap: square"/>
   </g>
   <g id="line2d_16">
    <path d="M 147.408009 105.746147 
L 147.105025 102.206888 
L 146.09846 98.779222 
L 144.415282 95.575825 
L 142.122569 92.696719 
L 140.021667 89.94595 
L 137.565761 87.513957 
L 134.613566 85.553971 
L 131.267529 84.128446 
L 127.64111 83.277366 
L 123.853621 83.016766 
L 120.024902 83.338429 
L 116.278924 84.200299 
L 112.718113 85.548736 
L 109.440054 87.297994 
L 106.524994 89.338408 
L 104.22148 91.108986 
L 102.731375 91.692218 
L 101.303602 92.605139 
L 99.966481 93.966403 
L 98.804102 95.737232 
L 97.913824 97.497975 
L 97.265399 97.498677 
L 96.565805 96.867769 
L 95.806676 96.491787 
L 94.667691 94.744236 
L 93.178788 92.797065 
L 91.498752 91.262683 
L 89.712679 90.1844 
L 87.908459 89.580092 
L 86.17548 89.450284 
L 84.598072 89.773875 
L 82.45241 89.597436 
L 79.191133 88.623868 
L 75.667056 87.985992 
L 71.763397 87.611977 
L 67.799584 87.764525 
L 63.890932 88.473101 
L 60.156713 89.74353 
L 56.715059 91.557541 
L 53.677873 93.873398 
L 51.145989 96.627584 
L 49.202248 99.737095 
L 47.909779 103.104032 
L 47.317485 106.62 
" clip-path="url(#p029542aaee)" style="fill: none; stroke: #2ca02c; stroke-width: 1.5; stroke-linecap: square"/>
   </g>
   <g id="line2d_17">
    <path d="M 147.96586 105.73641 
L 147.659002 102.157757 
L 146.640428 98.69206 
L 144.937286 95.453347 
L 142.616731 92.543062 
L 140.514022 89.753584 
L 138.026315 87.295181 
L 135.03669 85.3148 
L 131.648974 83.875538 
L 127.978104 83.017718 
L 124.144907 82.757405 
L 120.270695 83.086116 
L 116.478022 83.964546 
L 112.874169 85.334837 
L 109.557886 87.109756 
L 106.608799 89.180644 
L 104.297028 90.938574 
L 102.800733 91.5 
L 101.354222 92.425924 
L 99.999666 93.806222 
L 98.82229 95.601574 
L 97.919763 97.402722 
L 97.265343 97.492232 
L 96.56506 96.858443 
L 95.804343 96.476424 
L 94.64872 94.660087 
L 93.14736 92.692789 
L 91.452905 91.14225 
L 89.650843 90.051242 
L 87.830666 89.439618 
L 86.081418 89.305693 
L 84.487583 89.627855 
L 82.311241 89.436076 
L 79.009226 88.443541 
L 75.441384 87.792007 
L 71.492601 87.410766 
L 67.482736 87.562317 
L 63.528491 88.276498 
L 59.750573 89.559219 
L 56.268538 91.392005 
L 53.195635 93.732631 
L 50.633919 96.516828 
L 48.666966 99.660567 
L 47.359293 103.06488 
L 46.760045 106.62 
" clip-path="url(#p029542aaee)" style="fill: none; stroke: #d62728; stroke-width: 1.5; stroke-linecap: square"/>
   </g>
   <g id="patch_3">
    <path d="M 150.505 106.62 
C 150.505 92.526499 144.900407 78.995814 134.934796 69.030204 
C 124.969186 59.064593 111.438501 53.46 97.345 53.46 
C 83.251499 53.46 69.720814 59.064593 59.755204 69.030204 
C 49.789593 78.995814 44.185 92.526499 44.185 106.62 
" style="fill: none; stroke: #000000; stroke-width: 0.8; stroke-linejoin: miter; stroke-linecap: square"/>
   </g>
   <g id="patch_4">
    <path d="M 97.345 106.62 
L 150.505 106.62 
" style="fill: none; stroke: #000000; stroke-width: 0.8; stroke-linejoin: miter; stroke-linecap: square"/>
   </g>
   <g id="patch_5">
    <path d="M 97.345 106.62 
L 44.185 106.62 
" style="fill: none; stroke: #000000; stroke-width: 0.8; stroke-linejoin: miter; stroke-linecap: square"/>
   </g>
   <g id="text_4">
    <!-- X -->
    <g transform="translate(93.235 20.88) scale(0.12 -0.12)">
     <defs>
      <path id="DejaVuSans-58" d="M 403 4666 
L 1081 4666 
L 2241 2931 
L 3406 4666 
L 4084 4666 
L 2584 2425 
L 4184 0 
L 3506 0 
L 2194 1984 
L 872 0 
L 191 0 
L 1856 2491 
L 403 4666 
z
" transform="scale(0.015625)"/>
     </defs>
     <use xlink:href="#DejaVuSans-58"/>
    </g>
   </g>
  </g>
  <g id="axes_2">
   <g id="patch_6">
    <path d="M 322.205 106.62 
C 322.205 92.526499 316.600407 78.995814 306.634796 69.030204 
C 296.669186 59.064593 283.138501 53.46 269.045 53.46 
C 254.951499 53.46 241.420814 59.064593 231.455204 69.030204 
C 221.489593 78.995814 215.885 92.526499 215.885 106.62 
L 269.045 106.62 
C 269.045 106.62 269.045 106.62 269.045 106.62 
C 269.045 106.62 269.045 106.62 269.045 106.62 
C 269.045 106.62 269.045 106.62 269.045 106.62 
C 269.045 106.62 269.045 106.62 269.045 106.62 
z
" style="fill: #ffffff"/>
   </g>
   <g id="matplotlib.axis_3">
    <g id="xtick_4">
     <g id="line2d_18">
      <path d="M 269.045 106.62 
L 322.205 106.62 
" clip-path="url(#p52599b8053)" style="fill: none; stroke: #b0b0b0; stroke-width: 0.8; stroke-linecap: square"/>
     </g>
     <g id="text_5">
      <!-- 0° -->
      <g transform="translate(330.52375 109.379375) scale(0.1 -0.1)">
       <use xlink:href="#DejaVuSans-30"/>
       <use xlink:href="#DejaVuSans-b0" x="63.623047"/>
      </g>
     </g>
    </g>
    <g id="xtick_5">
     <g id="line2d_19">
      <path d="M 269.045 106.62 
L 269.045 53.46 
" clip-path="url(#p52599b8053)" style="fill: none; stroke: #b0b0b0; stroke-width: 0.8; stroke-linecap: square"/>
     </g>
     <g id="text_6">
      <!-- 90° -->
      <g transform="translate(260.1825 42.219375) scale(0.1 -0.1)">
       <use xlink:href="#DejaVuSans-39"/>
       <use xlink:href="#DejaVuSans-30" x="63.623047"/>
       <use xlink:href="#DejaVuSans-b0" x="127.246094"/>
      </g>
     </g>
    </g>
    <g id="xtick_6">
     <g id="line2d_20">
      <path d="M 269.045 106.62 
L 215.885 106.62 
" clip-path="url(#p52599b8053)" style="fill: none; stroke: #b0b0b0; stroke-width: 0.8; stroke-linecap: square"/>
     </g>
     <g id="text_7">
      <!-- 180° -->
      <g transform="translate(189.84125 109.379375) scale(0.1 -0.1)">
       <use xlink:href="#DejaVuSans-31"/>
       <use xlink:href="#DejaVuSans-38" x="63.623047"/>
       <use xlink:href="#DejaVuSans-30" x="127.246094"/>
       <use xlink:href="#DejaVuSans-b0" x="190.869141"/>
      </g>
     </g>
    </g>
   </g>
   <g id="matplotlib.axis_4"/>
   <g id="line2d_21">
    <path d="M 269.045 106.62 
L 269.045 106.62 
L 269.045 106.62 
L 269.045 106.62 
L 269.045 106.62 
L 269.045 106.62 
L 269.045 106.62 
L 269.045 106.62 
L 269.045 106.62 
L 269.045 106.62 
L 269.045 106.62 
L 269.045 106.62 
L 269.045 106.62 
L 269.045 106.62 
L 269.045 106.62 
L 269.045 106.62 
L 269.045 106.62 
L 269.045 106.62 
L 269.045 106.62 
L 269.045 106.62 
L 269.045 106.62 
L 269.045 106.62 
L 269.045 106.62 
L 269.045 106.62 
L 269.045 106.62 
L 269.045 106.62 
L 269.045 106.62 
L 269.045 106.62 
L 269.045 106.62 
L 269.045 106.62 
L 269.045 106.62 
L 269.045 106.62 
L 269.045 106.62 
L 269.045 106.62 
L 269.045 106.62 
L 269.045 106.62 
L 269.045 106.62 
L 269.045 106.62 
L 269.045 106.62 
L 269.045 106.62 
L 269.045 106.62 
L 269.045 106.62 
L 269.045 106.62 
L 269.045 106.62 
L 269.045 106.62 
" clip-path="url(#p52599b8053)" style="fill: none; stroke: #1f77b4; stroke-width: 1.5; stroke-linecap: square"/>
   </g>
   <g id="line2d_22">
    <path d="M 272.891951 106.552851 
L 273.181987 106.253099 
L 273.507811 105.902268 
L 274.098178 105.434365 
L 275.081698 104.74293 
L 276.303548 103.784038 
L 277.315926 102.691067 
L 278.081427 101.512166 
L 278.578481 100.299044 
L 278.796945 99.106293 
L 278.738501 97.988922 
L 278.416521 96.999864 
L 277.855413 96.187571 
L 277.250678 95.37283 
L 276.807298 94.219628 
L 276.212481 93.127019 
L 275.517523 92.020177 
L 274.637192 91.121818 
L 273.607898 90.465714 
L 272.47226 90.076995 
L 271.277201 89.971037 
L 270.079914 90.023452 
L 268.900006 90.005315 
L 267.735373 90.229011 
L 266.624878 90.68609 
L 265.604803 91.360287 
L 264.691314 92.17505 
L 263.703372 92.588254 
L 262.746854 93.057441 
L 261.75823 93.462013 
L 260.875439 94.061802 
L 260.127986 94.835424 
L 259.544524 95.760743 
L 259.146765 96.807769 
L 258.94725 97.940139 
L 258.9552 99.122927 
L 259.169163 100.317378 
L 259.579108 101.485301 
L 260.170604 102.592697 
L 260.919378 103.607644 
L 261.795279 104.503779 
L 262.758968 105.26039 
L 263.764251 105.865018 
L 264.666559 106.308593 
L 265.103636 106.62 
" clip-path="url(#p52599b8053)" style="fill: none; stroke: #ff7f0e; stroke-width: 1.5; stroke-linecap: square"/>
   </g>
   <g id="line2d_23">
    <path d="M 274.526339 106.524323 
L 274.943066 106.096913 
L 275.409025 105.596505 
L 276.252618 104.928865 
L 277.655389 103.942658 
L 279.401581 102.573617 
L 280.848617 101.012935 
L 281.943946 99.32888 
L 282.656598 97.595142 
L 282.971891 95.889569 
L 282.892006 94.290648 
L 282.435806 92.873953 
L 281.637906 91.708713 
L 280.732758 90.600093 
L 280.098303 88.962204 
L 279.279432 87.3534 
L 278.289106 85.768421 
L 277.033566 84.480514 
L 275.564668 83.538051 
L 273.943168 82.977088 
L 272.236109 82.818984 
L 270.530681 82.79465 
L 268.837424 82.834201 
L 267.177777 83.250265 
L 265.597565 83.922337 
L 264.144214 84.881538 
L 262.821906 85.972605 
L 261.409861 86.563506 
L 260.06899 87.290874 
L 258.656442 87.861 
L 257.393829 88.709892 
L 256.32499 89.80945 
L 255.488412 91.124516 
L 254.918289 92.616033 
L 254.629689 94.228833 
L 254.639144 95.915947 
L 254.941854 97.619568 
L 255.526364 99.286922 
L 256.370738 100.868275 
L 257.440392 102.317903 
L 258.692314 103.598011 
L 260.070736 104.67895 
L 261.509469 105.542655 
L 262.803727 106.176104 
L 263.430568 106.62 
" clip-path="url(#p52599b8053)" style="fill: none; stroke: #2ca02c; stroke-width: 1.5; stroke-linecap: square"/>
   </g>
   <g id="line2d_24">
    <path d="M 275.087253 106.514532 
L 275.54929 106.043148 
L 276.064411 105.491103 
L 276.997949 104.753987 
L 278.548539 103.664939 
L 280.478153 102.152993 
L 282.077238 100.429304 
L 283.288427 98.568914 
L 284.07832 96.652502 
L 284.42855 94.767238 
L 284.341936 92.999633 
L 283.840435 91.432061 
L 282.96139 90.141572 
L 281.935912 88.950982 
L 281.233876 87.148113 
L 280.350738 85.336637 
L 279.25807 83.582767 
L 277.872098 82.156611 
L 276.25001 81.111696 
L 274.458846 80.487969 
L 272.572794 80.307813 
L 270.692427 80.20079 
L 268.814791 80.240709 
L 266.973826 80.697663 
L 265.237927 81.554508 
L 263.638912 82.640167 
L 262.167118 83.800104 
L 260.608147 84.457509 
L 259.144323 85.299675 
L 257.583896 85.924265 
L 256.188252 86.856687 
L 255.006814 88.06737 
L 254.080728 89.515501 
L 253.449638 91.160143 
L 253.128541 92.938471 
L 253.137715 94.800332 
L 253.470257 96.680415 
L 254.11525 98.521473 
L 255.047694 100.267862 
L 256.229454 101.86898 
L 257.613056 103.282972 
L 259.137225 104.47704 
L 260.728754 105.431037 
L 262.16311 106.130541 
L 262.857305 106.62 
" clip-path="url(#p52599b8053)" style="fill: none; stroke: #d62728; stroke-width: 1.5; stroke-linecap: square"/>
   </g>
   <g id="line2d_25">
    <path d="M 275.687826 106.504049 
L 276.199947 105.985443 
L 276.767947 105.377957 
L 277.795875 104.566768 
L 279.501662 103.368572 
L 281.628893 101.703392 
L 283.391778 99.804859 
L 284.729866 97.754141 
L 285.604284 95.640747 
L 285.993908 93.561157 
L 285.901295 91.611182 
L 285.350572 89.881862 
L 284.385889 88.454819 
L 283.219617 87.191462 
L 282.441377 85.219114 
L 281.505139 83.163445 
L 280.303139 81.225444 
L 278.777318 79.647887 
L 276.990556 78.489899 
L 275.017022 77.793713 
L 272.937421 77.588224 
L 270.870954 77.337805 
L 268.789792 77.376059 
L 266.748395 77.876217 
L 264.822616 78.820131 
L 263.084399 80.18051 
L 261.462226 81.461367 
L 259.74668 82.19455 
L 258.160028 83.180074 
L 256.440444 83.859492 
L 254.900987 84.877911 
L 253.597452 86.204781 
L 252.573494 87.792698 
L 251.874047 89.598242 
L 251.517288 91.553464 
L 251.524559 93.601701 
L 251.887452 95.67029 
L 252.596306 97.697534 
L 253.622624 99.621149 
L 254.924521 101.385212 
L 256.449778 102.943406 
L 258.131364 104.259482 
L 259.888556 105.310916 
L 261.47638 106.081699 
L 262.243894 106.62 
" clip-path="url(#p52599b8053)" style="fill: none; stroke: #9467bd; stroke-width: 1.5; stroke-linecap: square"/>
   </g>
   <g id="line2d_26">
    <path d="M 276.3808 106.491953 
L 276.952245 105.918723 
L 277.580967 105.247203 
L 278.713262 104.351521 
L 280.588349 103.030674 
L 282.943085 101.189928 
L 284.8945 99.091022 
L 286.381436 96.820592 
L 287.353321 94.481088 
L 287.789805 92.177449 
L 287.693353 90.015536 
L 287.088938 88.097379 
L 286.023231 86.51604 
L 284.683671 85.184748 
L 283.818896 83.018509 
L 282.835096 80.659764 
L 281.508166 78.50731 
L 279.822279 76.751886 
L 277.846653 75.459012 
L 275.662417 74.678461 
L 273.359402 74.440861 
L 271.081157 73.966864 
L 268.760342 74.001452 
L 266.48274 74.551336 
L 264.332945 75.596173 
L 262.391237 77.105843 
L 260.651826 78.772566 
L 258.753687 79.586089 
L 257.03519 80.757824 
L 255.136226 81.504418 
L 253.430617 82.617667 
L 251.985257 84.074131 
L 250.846934 85.819202 
L 250.06671 87.806609 
L 249.666658 89.962692 
L 249.66946 92.223298 
L 250.065051 94.50726 
L 250.845485 96.747815 
L 251.9783 98.874936 
L 253.417398 100.826486 
L 255.105182 102.550914 
L 256.968118 104.007883 
L 258.916943 105.172005 
L 260.683164 106.025283 
L 261.536096 106.62 
" clip-path="url(#p52599b8053)" style="fill: none; stroke: #8c564b; stroke-width: 1.5; stroke-linecap: square"/>
   </g>
   <g id="line2d_27">
    <path d="M 277.01093 106.480954 
L 277.638258 105.857882 
L 278.322997 105.127866 
L 279.551109 104.154935 
L 281.574784 102.723949 
L 284.137735 100.723171 
L 286.265276 98.439863 
L 287.886303 95.969968 
L 288.948302 93.423572 
L 289.428894 90.914558 
L 289.330374 88.557935 
L 288.679489 86.464634 
L 287.526117 84.736469 
L 286.01338 83.362173 
L 285.069529 81.020607 
L 284.052907 78.367203 
L 282.612856 76.015503 
L 280.780916 74.095121 
L 278.632208 72.677865 
L 276.255095 71.817672 
L 273.772319 71.361101 
L 271.277581 70.816869 
L 268.732808 70.846323 
L 266.234291 71.441808 
L 263.874729 72.579309 
L 261.742203 74.226917 
L 259.90617 76.298579 
L 257.846263 77.202407 
L 255.981687 78.48919 
L 253.954638 79.37078 
L 252.097257 80.568036 
L 250.521224 82.13929 
L 249.27769 84.025521 
L 248.422438 86.176623 
L 247.981086 88.513802 
L 247.97732 90.965979 
L 248.40204 93.445949 
L 249.246419 95.880414 
L 250.475413 98.192909 
L 252.039165 100.315544 
L 253.875231 102.191886 
L 255.904237 103.777775 
L 258.029266 105.045095 
L 259.960707 105.9739 
L 260.892967 106.62 
" clip-path="url(#p52599b8053)" style="fill: none; stroke: #e377c2; stroke-width: 1.5; stroke-linecap: square"/>
   </g>
   <g id="line2d_28">
    <path d="M 277.565104 106.471281 
L 278.243484 105.804206 
L 278.978767 105.022401 
L 280.288771 103.981856 
L 282.441097 102.454575 
L 285.188403 100.312668 
L 287.472769 97.866268 
L 289.212861 95.220131 
L 290.355389 92.490636 
L 290.876037 89.79956 
L 290.776879 87.26997 
L 290.086155 85.02065 
L 288.856878 83.160713 
L 287.182522 81.75968 
L 286.187629 79.234428 
L 285.131146 76.337388 
L 283.591235 73.808612 
L 281.630341 71.741029 
L 279.328746 70.211872 
L 276.780983 69.279268 
L 274.146589 68.569599 
L 271.454832 67.974358 
L 268.70795 67.997913 
L 266.009994 68.634552 
L 263.460861 69.854431 
L 261.15569 71.625314 
L 259.178535 73.884386 
L 257.04062 75.08609 
L 255.046627 76.475611 
L 252.919128 77.500922 
L 250.928117 78.77084 
L 249.235975 80.440727 
L 247.898959 82.4496 
L 246.976703 84.74345 
L 246.497271 87.238339 
L 246.48649 89.85824 
L 246.935417 92.509971 
L 247.834881 95.114736 
L 249.147724 97.590388 
L 250.820851 99.863886 
L 252.787599 101.874402 
L 254.963445 103.574291 
L 257.24491 104.932957 
L 259.324363 105.928642 
L 260.327813 106.62 
" clip-path="url(#p52599b8053)" style="fill: none; stroke: #7f7f7f; stroke-width: 1.5; stroke-linecap: square"/>
   </g>
   <g id="line2d_29">
    <path d="M 278.047323 106.462864 
L 278.771776 105.757353 
L 279.551883 104.93023 
L 280.934586 103.830328 
L 283.195379 102.220036 
L 286.10253 99.955513 
L 288.524893 97.366479 
L 290.369582 94.566296 
L 291.583229 91.676545 
L 292.140001 88.825697 
L 292.041044 86.144358 
L 291.316515 83.75765 
L 290.021874 81.781238 
L 288.236373 80.315211 
L 287.187755 77.636713 
L 286.073465 74.563445 
L 284.4468 71.878747 
L 282.37359 69.681192 
L 279.938594 68.052795 
L 277.241711 67.055388 
L 274.479816 66.084207 
L 271.612701 65.442676 
L 268.685803 65.460063 
L 265.810201 66.133988 
L 263.092069 67.426333 
L 260.632845 69.306129 
L 258.522183 71.706697 
L 256.334157 73.230305 
L 254.231607 74.720531 
L 252.021424 75.879905 
L 249.91439 77.212546 
L 248.119921 78.965769 
L 246.701408 81.080773 
L 245.720283 83.497946 
L 245.20615 86.128512 
L 245.188424 88.893732 
L 245.657017 91.694113 
L 246.603272 94.44666 
L 247.988277 97.064218 
L 249.756186 99.46919 
L 251.836713 101.596835 
L 254.140779 103.396356 
L 256.559424 104.834954 
L 258.769649 105.889189 
L 259.836434 106.62 
" clip-path="url(#p52599b8053)" style="fill: none; stroke: #bcbd22; stroke-width: 1.5; stroke-linecap: square"/>
   </g>
   <g id="line2d_30">
    <path d="M 278.626973 106.452746 
L 279.408197 105.70091 
L 280.242017 104.819239 
L 281.706085 103.649309 
L 284.083325 101.943935 
L 287.18276 99.53346 
L 289.765802 96.77701 
L 291.735794 93.794046 
L 293.040191 90.710539 
L 293.643042 87.667629 
L 293.546065 84.80429 
L 292.780535 82.254791 
L 291.405735 80.142605 
L 289.508073 78.572147 
L 288.371908 75.745013 
L 287.189911 72.461706 
L 285.461078 69.590878 
L 283.255223 67.237837 
L 280.662387 65.49031 
L 277.788815 64.414575 
L 274.882063 63.084034 
L 271.803271 62.386577 
L 268.659067 62.396477 
L 265.568876 63.113626 
L 262.647286 64.497914 
L 260.00228 66.509125 
L 257.730624 69.080408 
L 255.488868 71.009842 
L 253.255945 72.619519 
L 250.96446 73.971307 
L 248.720454 75.377234 
L 246.803108 77.225491 
L 245.287654 79.464819 
L 244.235866 82.026427 
L 243.678068 84.814998 
L 243.649535 87.750283 
L 244.139837 90.72587 
L 245.139114 93.652438 
L 246.607538 96.437623 
L 248.486126 98.99835 
L 250.700398 101.26514 
L 253.155593 103.183269 
L 255.736673 104.717326 
L 258.102882 105.841767 
L 259.24526 106.62 
" clip-path="url(#p52599b8053)" style="fill: none; stroke: #17becf; stroke-width: 1.5; stroke-linecap: square"/>
   </g>
   <g id="line2d_31">
    <path d="M 279.094069 106.444593 
L 279.922694 105.65528 
L 280.80111 104.729323 
L 282.335483 103.501633 
L 284.805362 101.719422 
L 288.06219 99.189861 
L 290.776013 96.297131 
L 292.853838 93.162072 
L 294.229299 89.922129 
L 294.869171 86.722918 
L 294.774809 83.710219 
L 293.978572 81.024972 
L 292.542225 78.796885 
L 290.554009 77.138527 
L 289.335475 74.205702 
L 288.098673 70.750935 
L 286.286953 67.727982 
L 283.973342 65.247644 
L 281.252155 63.402318 
L 278.274124 62.072043 
L 275.214076 60.607705 
L 271.960594 59.863628 
L 268.636991 59.866842 
L 265.369437 60.617486 
L 262.280155 62.080748 
L 259.481666 64.199833 
L 257.076898 66.911432 
L 254.794621 69.186147 
L 252.456537 70.898058 
L 250.107472 72.423812 
L 247.750358 73.88601 
L 245.736067 75.815308 
L 244.14236 78.155723 
L 243.031348 80.832375 
L 242.439226 83.75011 
L 242.400591 86.822275 
L 242.908949 89.940335 
L 243.950606 93.007741 
L 245.486314 95.928799 
L 247.454588 98.615935 
L 249.777574 100.995764 
L 252.355702 103.01026 
L 255.069296 104.621912 
L 257.564432 105.803471 
L 258.769309 106.62 
" clip-path="url(#p52599b8053)" style="fill: none; stroke: #1f77b4; stroke-width: 1.5; stroke-linecap: square"/>
   </g>
   <g id="line2d_32">
    <path d="M 279.438267 106.438585 
L 280.303142 105.621539 
L 281.215748 104.662639 
L 282.806215 103.391184 
L 285.34558 101.551445 
L 288.720472 98.932666 
L 291.532691 95.937686 
L 293.691528 92.688569 
L 295.120546 89.331208 
L 295.788509 86.014584 
L 295.696474 82.88957 
L 294.877591 80.102103 
L 293.395457 77.786571 
L 291.341106 76.059688 
L 290.055482 73.055482 
L 288.777965 69.472151 
L 286.904509 66.334985 
L 284.510523 63.758903 
L 281.693498 61.839807 
L 278.648151 60.266655 
L 275.464757 58.737988 
L 272.079398 57.958412 
L 268.620318 57.956237 
L 265.218772 58.731797 
L 262.002918 60.255439 
L 259.088424 62.455524 
L 256.582961 65.272616 
L 254.264048 67.792403 
L 251.849813 69.591525 
L 249.465169 71.263982 
L 247.026237 72.772894 
L 244.940716 74.764185 
L 243.289058 77.18038 
L 242.132846 79.94168 
L 241.516148 82.956647 
L 241.46969 86.130583 
L 241.99182 89.355036 
L 243.064942 92.52732 
L 244.650818 95.549641 
L 246.686109 98.331042 
L 249.090456 100.795192 
L 251.760528 102.881529 
L 254.573364 104.55101 
L 257.166591 105.775175 
L 258.418977 106.62 
" clip-path="url(#p52599b8053)" style="fill: none; stroke: #ff7f0e; stroke-width: 1.5; stroke-linecap: square"/>
   </g>
   <g id="line2d_33">
    <path d="M 279.656685 106.434772 
L 280.545631 105.600033 
L 281.481321 104.619928 
L 283.109786 103.319957 
L 285.69963 101.441356 
L 289.151928 98.764093 
L 292.030919 95.701013 
L 294.240697 92.378151 
L 295.704894 88.943769 
L 296.391365 85.550094 
L 296.300965 82.351332 
L 295.467353 79.496696 
L 293.955318 77.123639 
L 291.857713 75.351596 
L 290.52491 72.305565 
L 289.221043 68.638043 
L 287.307507 65.425958 
L 284.861242 62.78692 
L 281.981795 60.819134 
L 278.89341 59.082817 
L 275.628948 57.513362 
L 272.157237 56.71014 
L 268.60939 56.703996 
L 265.119985 57.495412 
L 261.820766 59.056166 
L 258.83035 61.310782 
L 256.258622 64.196501 
L 253.915614 66.877113 
L 251.45184 68.734524 
L 249.045961 70.507003 
L 246.553965 72.046922 
L 244.422342 74.079111 
L 242.733302 76.545138 
L 241.547855 79.361772 
L 240.915629 82.44045 
L 240.864396 85.680829 
L 241.396035 88.974814 
L 242.490051 92.215475 
L 244.109037 95.303775 
L 246.18844 98.146544 
L 248.646253 100.665527 
L 251.376624 102.798495 
L 254.254472 104.505418 
L 256.912954 105.757136 
L 258.197182 106.62 
" clip-path="url(#p52599b8053)" style="fill: none; stroke: #2ca02c; stroke-width: 1.5; stroke-linecap: square"/>
   </g>
   <g id="line2d_34">
    <path d="M 279.756169 106.433036 
L 280.656905 105.590165 
L 281.604817 104.600067 
L 283.255637 103.285736 
L 285.881544 101.384791 
L 289.373135 98.677666 
L 292.285927 95.579877 
L 294.521474 92.219442 
L 296.003408 88.745846 
L 296.699129 85.312967 
L 296.609395 82.076706 
L 295.768127 79.187942 
L 294.240727 76.785685 
L 292.120978 74.990751 
L 290.760698 71.928891 
L 289.44365 68.218979 
L 287.510055 64.969079 
L 285.037603 62.298153 
L 282.126857 60.305564 
L 279.014966 58.496082 
L 275.710467 56.905355 
L 272.195934 56.089575 
L 268.603949 56.080597 
L 265.070735 56.879004 
L 261.729659 58.456327 
L 258.701004 60.737043 
L 256.095749 63.65611 
L 253.738964 66.413078 
L 251.249673 68.299172 
L 248.833942 70.124153 
L 246.315567 71.680457 
L 244.161197 73.733986 
L 242.453932 76.225812 
L 241.254732 79.071196 
L 240.615495 82.18246 
L 240.562978 85.456865 
L 241.100296 88.786077 
L 242.205956 92.06137 
L 243.84268 95.182899 
L 245.945258 98.056391 
L 248.430817 100.602641 
L 251.192385 102.758646 
L 254.103657 104.483856 
L 256.795588 105.748788 
L 258.097161 106.62 
" clip-path="url(#p52599b8053)" style="fill: none; stroke: #d62728; stroke-width: 1.5; stroke-linecap: square"/>
   </g>
   <g id="patch_7">
    <path d="M 322.205 106.62 
C 322.205 92.526499 316.600407 78.995814 306.634796 69.030204 
C 296.669186 59.064593 283.138501 53.46 269.045 53.46 
C 254.951499 53.46 241.420814 59.064593 231.455204 69.030204 
C 221.489593 78.995814 215.885 92.526499 215.885 106.62 
" style="fill: none; stroke: #000000; stroke-width: 0.8; stroke-linejoin: miter; stroke-linecap: square"/>
   </g>
   <g id="patch_8">
    <path d="M 269.045 106.62 
L 322.205 106.62 
" style="fill: none; stroke: #000000; stroke-width: 0.8; stroke-linejoin: miter; stroke-linecap: square"/>
   </g>
   <g id="patch_9">
    <path d="M 269.045 106.62 
L 215.885 106.62 
" style="fill: none; stroke: #000000; stroke-width: 0.8; stroke-linejoin: miter; stroke-linecap: square"/>
   </g>
   <g id="text_8">
    <!-- Y -->
    <g transform="translate(265.380312 20.88) scale(0.12 -0.12)">
     <defs>
      <path id="DejaVuSans-59" d="M -13 4666 
L 666 4666 
L 1959 2747 
L 3244 4666 
L 3922 4666 
L 2272 2222 
L 2272 0 
L 1638 0 
L 1638 2222 
L -13 4666 
z
" transform="scale(0.015625)"/>
     </defs>
     <use xlink:href="#DejaVuSans-59"/>
    </g>
   </g>
  </g>
 </g>
 <defs>
  <clipPath id="p029542aaee">
   <path d="M 150.505 106.62 
C 150.505 92.526499 144.900407 78.995814 134.934796 69.030204 
C 124.969186 59.064593 111.438501 53.46 97.345 53.46 
C 83.251499 53.46 69.720814 59.064593 59.755204 69.030204 
C 49.789593 78.995814 44.185 92.526499 44.185 106.62 
L 97.345 106.62 
C 97.345 106.62 97.345 106.62 97.345 106.62 
C 97.345 106.62 97.345 106.62 97.345 106.62 
C 97.345 106.62 97.345 106.62 97.345 106.62 
C 97.345 106.62 97.345 106.62 97.345 106.62 
z
"/>
  </clipPath>
  <clipPath id="p52599b8053">
   <path d="M 322.205 106.62 
C 322.205 92.526499 316.600407 78.995814 306.634796 69.030204 
C 296.669186 59.064593 283.138501 53.46 269.045 53.46 
C 254.951499 53.46 241.420814 59.064593 231.455204 69.030204 
C 221.489593 78.995814 215.885 92.526499 215.885 106.62 
L 269.045 106.62 
C 269.045 106.62 269.045 106.62 269.045 106.62 
C 269.045 106.62 269.045 106.62 269.045 106.62 
C 269.045 106.62 269.045 106.62 269.045 106.62 
C 269.045 106.62 269.045 106.62 269.045 106.62 
z
"/>
  </clipPath>
 </defs>
</svg>
