<?xml version="1.0" encoding="utf-8" standalone="no"?>
<!DOCTYPE svg PUBLIC "-//W3C//DTD SVG 1.1//EN"
  "http://www.w3.org/Graphics/SVG/1.1/DTD/svg11.dtd">
<svg xmlns:xlink="http://www.w3.org/1999/xlink" width="360pt" height="144pt" viewBox="0 0 360 144" xmlns="http://www.w3.org/2000/svg" version="1.1">
 <metadata>
  <rdf:RDF xmlns:dc="http://purl.org/dc/elements/1.1/" xmlns:cc="http://creativecommons.org/ns#" xmlns:rdf="http://www.w3.org/1999/02/22-rdf-syntax-ns#">
   <cc:Work>
    <dc:type rdf:resource="http://purl.org/dc/dcmitype/StillImage"/>
    <dc:date>2023-06-20T07:11:20.007184</dc:date>
    <dc:format>image/svg+xml</dc:format>
    <dc:creator>
     <cc:Agent>
      <dc:title>Matplotlib v3.7.1, https://matplotlib.org/</dc:title>
     </cc:Agent>
    </dc:creator>
   </cc:Work>
  </rdf:RDF>
 </metadata>
 <defs>
  <style type="text/css">*{stroke-linejoin: round; stroke-linecap: butt}</style>
 </defs>
 <g id="figure_1">
  <g id="patch_1">
   <path d="M 0 144 
L 360 144 
L 360 0 
L 0 0 
z
" style="fill: #ffffff"/>
  </g>
  <g id="axes_1">
   <g id="patch_2">
    <path d="M 150.505 106.62 
C 150.505 92.526499 144.900407 78.995814 134.934796 69.030204 
C 124.969186 59.064593 111.438501 53.46 97.345 53.46 
C 83.251499 53.46 69.720814 59.064593 59.755204 69.030204 
C 49.789593 78.995814 44.185 92.526499 44.185 106.62 
L 97.345 106.62 
C 97.345 106.62 97.345 106.62 97.345 106.62 
C 97.345 106.62 97.345 106.62 97.345 106.62 
C 97.345 106.62 97.345 106.62 97.345 106.62 
C 97.345 106.62 97.345 106.62 97.345 106.62 
z
" style="fill: #ffffff"/>
   </g>
   <g id="matplotlib.axis_1">
    <g id="xtick_1">
     <g id="line2d_1">
      <path d="M 97.345 106.62 
L 150.505 106.62 
" clip-path="url(#p8eef4ac817)" style="fill: none; stroke: #b0b0b0; stroke-width: 0.8; stroke-linecap: square"/>
     </g>
     <g id="text_1">
      <!-- 0° -->
      <g transform="translate(158.82375 109.379375) scale(0.1 -0.1)">
       <defs>
        <path id="DejaVuSans-30" d="M 2034 4250 
Q 1547 4250 1301 3770 
Q 1056 3291 1056 2328 
Q 1056 1369 1301 889 
Q 1547 409 2034 409 
Q 2525 409 2770 889 
Q 3016 1369 3016 2328 
Q 3016 3291 2770 3770 
Q 2525 4250 2034 4250 
z
M 2034 4750 
Q 2819 4750 3233 4129 
Q 3647 3509 3647 2328 
Q 3647 1150 3233 529 
Q 2819 -91 2034 -91 
Q 1250 -91 836 529 
Q 422 1150 422 2328 
Q 422 3509 836 4129 
Q 1250 4750 2034 4750 
z
" transform="scale(0.015625)"/>
        <path id="DejaVuSans-b0" d="M 1600 4347 
Q 1350 4347 1178 4173 
Q 1006 4000 1006 3750 
Q 1006 3503 1178 3333 
Q 1350 3163 1600 3163 
Q 1850 3163 2022 3333 
Q 2194 3503 2194 3750 
Q 2194 3997 2020 4172 
Q 1847 4347 1600 4347 
z
M 1600 4750 
Q 1800 4750 1984 4673 
Q 2169 4597 2303 4453 
Q 2447 4313 2519 4134 
Q 2591 3956 2591 3750 
Q 2591 3338 2302 3052 
Q 2013 2766 1594 2766 
Q 1172 2766 890 3047 
Q 609 3328 609 3750 
Q 609 4169 896 4459 
Q 1184 4750 1600 4750 
z
" transform="scale(0.015625)"/>
       </defs>
       <use xlink:href="#DejaVuSans-30"/>
       <use xlink:href="#DejaVuSans-b0" x="63.623047"/>
      </g>
     </g>
    </g>
    <g id="xtick_2">
     <g id="line2d_2">
      <path d="M 97.345 106.62 
L 97.345 53.46 
" clip-path="url(#p8eef4ac817)" style="fill: none; stroke: #b0b0b0; stroke-width: 0.8; stroke-linecap: square"/>
     </g>
     <g id="text_2">
      <!-- 90° -->
      <g transform="translate(88.4825 42.219375) scale(0.1 -0.1)">
       <defs>
        <path id="DejaVuSans-39" d="M 703 97 
L 703 672 
Q 941 559 1184 500 
Q 1428 441 1663 441 
Q 2288 441 2617 861 
Q 2947 1281 2994 2138 
Q 2813 1869 2534 1725 
Q 2256 1581 1919 1581 
Q 1219 1581 811 2004 
Q 403 2428 403 3163 
Q 403 3881 828 4315 
Q 1253 4750 1959 4750 
Q 2769 4750 3195 4129 
Q 3622 3509 3622 2328 
Q 3622 1225 3098 567 
Q 2575 -91 1691 -91 
Q 1453 -91 1209 -44 
Q 966 3 703 97 
z
M 1959 2075 
Q 2384 2075 2632 2365 
Q 2881 2656 2881 3163 
Q 2881 3666 2632 3958 
Q 2384 4250 1959 4250 
Q 1534 4250 1286 3958 
Q 1038 3666 1038 3163 
Q 1038 2656 1286 2365 
Q 1534 2075 1959 2075 
z
" transform="scale(0.015625)"/>
       </defs>
       <use xlink:href="#DejaVuSans-39"/>
       <use xlink:href="#DejaVuSans-30" x="63.623047"/>
       <use xlink:href="#DejaVuSans-b0" x="127.246094"/>
      </g>
     </g>
    </g>
    <g id="xtick_3">
     <g id="line2d_3">
      <path d="M 97.345 106.62 
L 44.185 106.62 
" clip-path="url(#p8eef4ac817)" style="fill: none; stroke: #b0b0b0; stroke-width: 0.8; stroke-linecap: square"/>
     </g>
     <g id="text_3">
      <!-- 180° -->
      <g transform="translate(18.14125 109.379375) scale(0.1 -0.1)">
       <defs>
        <path id="DejaVuSans-31" d="M 794 531 
L 1825 531 
L 1825 4091 
L 703 3866 
L 703 4441 
L 1819 4666 
L 2450 4666 
L 2450 531 
L 3481 531 
L 3481 0 
L 794 0 
L 794 531 
z
" transform="scale(0.015625)"/>
        <path id="DejaVuSans-38" d="M 2034 2216 
Q 1584 2216 1326 1975 
Q 1069 1734 1069 1313 
Q 1069 891 1326 650 
Q 1584 409 2034 409 
Q 2484 409 2743 651 
Q 3003 894 3003 1313 
Q 3003 1734 2745 1975 
Q 2488 2216 2034 2216 
z
M 1403 2484 
Q 997 2584 770 2862 
Q 544 3141 544 3541 
Q 544 4100 942 4425 
Q 1341 4750 2034 4750 
Q 2731 4750 3128 4425 
Q 3525 4100 3525 3541 
Q 3525 3141 3298 2862 
Q 3072 2584 2669 2484 
Q 3125 2378 3379 2068 
Q 3634 1759 3634 1313 
Q 3634 634 3220 271 
Q 2806 -91 2034 -91 
Q 1263 -91 848 271 
Q 434 634 434 1313 
Q 434 1759 690 2068 
Q 947 2378 1403 2484 
z
M 1172 3481 
Q 1172 3119 1398 2916 
Q 1625 2713 2034 2713 
Q 2441 2713 2670 2916 
Q 2900 3119 2900 3481 
Q 2900 3844 2670 4047 
Q 2441 4250 2034 4250 
Q 1625 4250 1398 4047 
Q 1172 3844 1172 3481 
z
" transform="scale(0.015625)"/>
       </defs>
       <use xlink:href="#DejaVuSans-31"/>
       <use xlink:href="#DejaVuSans-38" x="63.623047"/>
       <use xlink:href="#DejaVuSans-30" x="127.246094"/>
       <use xlink:href="#DejaVuSans-b0" x="190.869141"/>
      </g>
     </g>
    </g>
   </g>
   <g id="matplotlib.axis_2"/>
   <g id="line2d_4">
    <path d="M 97.345 106.62 
L 97.345 106.62 
L 97.345 106.62 
L 97.345 106.62 
L 97.345 106.62 
L 97.345 106.62 
L 97.345 106.62 
L 97.345 106.62 
L 97.345 106.62 
L 97.345 106.62 
L 97.345 106.62 
L 97.345 106.62 
L 97.345 106.62 
L 97.345 106.62 
L 97.345 106.62 
L 97.345 106.62 
L 97.345 106.62 
L 97.345 106.62 
L 97.345 106.62 
L 97.345 106.62 
L 97.345 106.62 
L 97.345 106.62 
L 97.345 106.62 
L 97.345 106.62 
L 97.345 106.62 
L 97.345 106.62 
L 97.345 106.62 
L 97.345 106.62 
L 97.345 106.62 
L 97.345 106.62 
L 97.345 106.62 
L 97.345 106.62 
L 97.345 106.62 
L 97.345 106.62 
L 97.345 106.62 
L 97.345 106.62 
L 97.345 106.62 
L 97.345 106.62 
L 97.345 106.62 
L 97.345 106.62 
L 97.345 106.62 
L 97.345 106.62 
L 97.345 106.62 
L 97.345 106.62 
L 97.345 106.62 
" clip-path="url(#p8eef4ac817)" style="fill: none; stroke: #1f77b4; stroke-width: 1.5; stroke-linecap: square"/>
   </g>
   <g id="line2d_5">
    <path d="M 114.859113 106.31429 
L 115.493715 105.010429 
L 115.812958 103.649889 
L 115.806597 102.288326 
L 115.518907 100.968947 
L 114.921976 99.752562 
L 114.031491 98.693427 
L 112.882498 97.837441 
L 111.519232 97.222101 
L 109.993153 96.874814 
L 108.360671 96.811664 
L 106.680663 97.036673 
L 105.022929 97.528548 
L 103.426839 98.283885 
L 102.535174 98.328629 
L 101.700253 98.421116 
L 100.876907 98.653212 
L 100.090352 99.01154 
L 99.362755 99.47643 
L 98.705606 100.052507 
L 98.14137 100.680242 
L 97.675092 101.326426 
L 97.303992 101.920934 
L 96.965177 101.866228 
L 96.630593 101.916395 
L 96.207989 101.576549 
L 95.778962 101.424094 
L 95.404759 101.523245 
L 95.122493 101.834007 
L 94.510626 101.501868 
L 93.824096 101.207688 
L 93.079384 100.982634 
L 92.293296 100.845788 
L 91.498075 100.823878 
L 90.707107 100.914176 
L 89.968288 101.138846 
L 89.267363 101.464964 
L 88.664123 101.911126 
L 87.866002 102.318322 
L 86.389577 102.558571 
L 84.946269 103.000763 
L 83.514907 103.62868 
L 82.1715 104.450665 
L 81.01017 105.458222 
L 80.03289 106.62 
" clip-path="url(#p8eef4ac817)" style="fill: none; stroke: #ff7f0e; stroke-width: 1.5; stroke-linecap: square"/>
   </g>
   <g id="line2d_6">
    <path d="M 122.966257 106.172779 
L 123.889045 104.265865 
L 124.354889 102.276133 
L 124.344895 100.284972 
L 123.931647 98.353062 
L 123.060172 96.572916 
L 121.759391 95.022447 
L 120.080485 93.768784 
L 118.088069 92.866784 
L 115.857332 92.356565 
L 113.494972 92.240091 
L 111.055637 92.545637 
L 108.622986 93.265712 
L 106.280202 94.372903 
L 105.029116 94.344526 
L 103.776063 94.513347 
L 102.546672 94.886787 
L 101.380627 95.435677 
L 100.301724 96.152142 
L 99.341071 96.985188 
L 98.514524 97.897062 
L 97.829078 98.857008 
L 97.285426 99.793525 
L 96.793255 99.714491 
L 96.30746 99.788909 
L 95.689287 99.275738 
L 95.069853 99.071364 
L 94.534581 99.237403 
L 94.02898 99.479214 
L 93.107261 98.967759 
L 92.076791 98.521743 
L 90.980036 98.208171 
L 89.810255 98.007617 
L 88.644021 97.994622 
L 87.483512 98.143226 
L 86.37313 98.467518 
L 85.375633 98.981316 
L 84.461286 99.631329 
L 83.203458 100.202406 
L 80.998556 100.559995 
L 78.870434 101.227203 
L 76.834057 102.183674 
L 74.96951 103.421006 
L 73.321381 104.911375 
L 71.989421 106.62 
" clip-path="url(#p8eef4ac817)" style="fill: none; stroke: #2ca02c; stroke-width: 1.5; stroke-linecap: square"/>
   </g>
   <g id="line2d_7">
    <path d="M 125.889711 106.12175 
L 126.85295 104.003002 
L 127.370318 101.791176 
L 127.359023 99.577762 
L 126.898993 97.430386 
L 125.930544 95.451443 
L 124.485166 93.727624 
L 122.619701 92.333494 
L 120.407541 91.328912 
L 117.964471 90.733051 
L 115.336637 90.600275 
L 112.620082 90.939689 
L 109.911208 91.740325 
L 107.335495 92.926458 
L 105.964038 92.850975 
L 104.549187 93.05792 
L 103.171477 93.477437 
L 101.855661 94.11917 
L 100.644446 94.938786 
L 99.573968 95.861021 
L 98.651332 96.876674 
L 97.885439 97.953165 
L 97.278518 99.001967 
L 96.733254 98.963526 
L 96.195161 99.049545 
L 95.510421 98.482342 
L 94.827071 98.265848 
L 94.239703 98.462797 
L 93.589515 98.532861 
L 92.554959 97.970448 
L 91.403046 97.486066 
L 90.169052 97.136388 
L 88.870218 96.933134 
L 87.557879 96.917918 
L 86.281266 97.109794 
L 85.027901 97.467966 
L 83.899612 98.03934 
L 82.894662 98.781526 
L 81.500589 99.429625 
L 79.038829 99.833479 
L 76.66603 100.583729 
L 74.421003 101.661753 
L 72.344114 103.045657 
L 70.576513 104.716152 
L 69.09558 106.62 
" clip-path="url(#p8eef4ac817)" style="fill: none; stroke: #d62728; stroke-width: 1.5; stroke-linecap: square"/>
   </g>
   <g id="line2d_8">
    <path d="M 128.738048 106.072032 
L 129.75588 103.745547 
L 130.323752 101.31619 
L 130.311532 98.88501 
L 129.808796 96.525603 
L 128.744449 94.352032 
L 127.156952 92.458447 
L 125.121589 90.919304 
L 122.735411 89.785471 
L 120.046073 89.129212 
L 117.154113 88.981997 
L 114.165079 89.353706 
L 111.184882 90.232165 
L 108.455921 91.390739 
L 106.930601 91.306878 
L 105.347194 91.555649 
L 103.817473 92.02029 
L 102.34549 92.761659 
L 101.001745 93.67382 
L 99.814168 94.701598 
L 98.791842 95.828672 
L 97.943325 97.024878 
L 97.271428 98.189528 
L 96.674845 98.232499 
L 96.086447 98.333779 
L 95.340919 97.73048 
L 94.598394 97.507127 
L 93.964595 97.740125 
L 93.089695 97.456537 
L 91.943409 96.866149 
L 90.682144 96.3779 
L 89.303378 95.992327 
L 87.893101 95.816267 
L 86.42936 95.799204 
L 85.021765 96.027148 
L 83.649057 96.443437 
L 82.383638 97.071866 
L 81.284561 97.90814 
L 79.840296 98.676165 
L 77.164187 99.138506 
L 74.555072 99.967533 
L 72.101124 101.159985 
L 69.816351 102.684266 
L 67.904929 104.526142 
L 66.276668 106.62 
" clip-path="url(#p8eef4ac817)" style="fill: none; stroke: #9467bd; stroke-width: 1.5; stroke-linecap: square"/>
   </g>
   <g id="line2d_9">
    <path d="M 131.285905 106.027559 
L 132.427497 103.508607 
L 133.039441 100.879439 
L 133.058806 98.240413 
L 132.514761 95.684201 
L 131.358522 93.330697 
L 129.649479 91.274424 
L 127.48397 89.58397 
L 124.892451 88.355295 
L 121.97365 87.644046 
L 118.836464 87.484035 
L 115.595148 87.885699 
L 112.379585 88.817515 
L 109.511462 89.943954 
L 107.843973 89.847755 
L 106.110716 90.118298 
L 104.436289 90.62445 
L 102.821569 91.442256 
L 101.351165 92.436746 
L 100.048717 93.56946 
L 98.927874 94.814073 
L 97.999063 96.131022 
L 97.264499 97.395556 
L 96.621419 97.563831 
L 95.987159 97.680074 
L 95.191892 97.069441 
L 94.398834 96.845014 
L 93.702337 97.051208 
L 92.570609 96.338727 
L 91.31019 95.722723 
L 89.917269 95.202138 
L 88.445871 94.859061 
L 86.90503 94.68688 
L 85.349094 94.728324 
L 83.802239 94.978862 
L 82.344047 95.473769 
L 80.946639 96.154793 
L 79.738309 97.069387 
L 78.355224 98.002222 
L 75.541345 98.53688 
L 72.725383 99.433439 
L 70.087135 100.724377 
L 67.618411 102.37003 
L 65.515814 104.356221 
L 63.755281 106.62 
" clip-path="url(#p8eef4ac817)" style="fill: none; stroke: #8c564b; stroke-width: 1.5; stroke-linecap: square"/>
   </g>
   <g id="line2d_10">
    <path d="M 133.43374 105.990069 
L 134.724138 103.304923 
L 135.401393 100.499578 
L 135.488209 97.670399 
L 134.897544 94.943291 
L 133.671277 92.427089 
L 131.890159 90.210035 
L 129.566306 88.40693 
L 126.789789 87.097308 
L 123.666081 86.340057 
L 120.318455 86.164472 
L 116.878509 86.568292 
L 113.441829 87.55971 
L 110.427312 88.688638 
L 108.639242 88.577302 
L 106.790737 88.838141 
L 104.989905 89.375679 
L 103.259579 90.228357 
L 101.671836 91.301458 
L 100.26517 92.524665 
L 99.051521 93.891848 
L 98.049516 95.321918 
L 97.258208 96.674598 
L 96.575745 96.992182 
L 95.901725 97.117579 
L 95.070044 96.528957 
L 94.237311 96.309104 
L 93.331244 96.076398 
L 92.08414 95.291155 
L 90.704477 94.628964 
L 89.203506 94.104946 
L 87.631549 93.782868 
L 85.988323 93.639063 
L 84.352166 93.740058 
L 82.70858 94.038771 
L 81.159186 94.593376 
L 79.660522 95.334011 
L 78.33302 96.3071 
L 77.126001 97.444387 
L 74.23556 98.052796 
L 71.256428 99.004646 
L 68.472736 100.375198 
L 65.859008 102.11849 
L 63.543703 104.21596 
L 61.66769 106.62 
" clip-path="url(#p8eef4ac817)" style="fill: none; stroke: #e377c2; stroke-width: 1.5; stroke-linecap: square"/>
   </g>
   <g id="line2d_11">
    <path d="M 135.28723 105.957716 
L 136.716775 103.1282 
L 137.503213 100.161553 
L 137.576669 97.18038 
L 137.008996 94.28675 
L 135.754935 91.61299 
L 133.856087 89.276162 
L 131.387459 87.377525 
L 128.461398 85.988987 
L 125.188932 85.166727 
L 121.665214 84.96532 
L 118.018904 85.397644 
L 114.37928 86.449672 
L 111.214887 87.609143 
L 109.324209 87.483059 
L 107.392856 87.704635 
L 105.479233 88.27192 
L 103.655735 89.130452 
L 101.960605 90.279114 
L 100.460022 91.584135 
L 99.160603 93.078252 
L 98.094658 94.597999 
L 97.252627 96.035048 
L 96.537704 96.516072 
L 95.829466 96.641836 
L 94.967818 96.075511 
L 94.085321 95.80482 
L 93.005387 95.220413 
L 91.656575 94.370428 
L 90.175 93.672868 
L 88.57742 93.14253 
L 86.89754 92.812813 
L 85.178297 92.713186 
L 83.43528 92.831139 
L 81.729766 93.197399 
L 80.077978 93.790001 
L 78.501701 94.594468 
L 77.063926 95.618689 
L 75.754777 96.82211 
L 73.174769 97.659536 
L 70.105038 98.668551 
L 67.191026 100.097976 
L 64.437006 101.915188 
L 61.949064 104.102544 
L 59.831474 106.62 
" clip-path="url(#p8eef4ac817)" style="fill: none; stroke: #7f7f7f; stroke-width: 1.5; stroke-linecap: square"/>
   </g>
   <g id="line2d_12">
    <path d="M 136.953386 105.928633 
L 138.474235 102.972335 
L 139.367324 99.861757 
L 139.508753 96.727052 
L 138.897713 93.699466 
L 137.589404 90.896251 
L 135.638734 88.429352 
L 133.084487 86.418281 
L 130.0258 84.951746 
L 126.579924 84.094991 
L 122.909921 83.857035 
L 119.104167 84.28359 
L 115.298227 85.361545 
L 111.904926 86.663336 
L 109.923503 86.525677 
L 107.926353 86.700312 
L 105.91112 87.297729 
L 104.005004 88.162486 
L 102.213874 89.382449 
L 100.629255 90.767264 
L 99.253656 92.384214 
L 98.133215 93.979678 
L 97.247801 95.482085 
L 96.506932 96.130938 
L 95.769698 96.248328 
L 94.859397 95.594586 
L 93.939156 95.319863 
L 92.735475 94.51139 
L 91.304735 93.612767 
L 89.742331 92.891583 
L 88.062077 92.350348 
L 86.297541 92.019865 
L 84.491613 91.928291 
L 82.661453 92.064035 
L 80.862457 92.451874 
L 79.122253 93.079864 
L 77.451947 93.92453 
L 75.918015 94.997099 
L 74.517703 96.260711 
L 72.41312 97.377175 
L 69.231962 98.413697 
L 66.17557 99.878342 
L 63.241468 101.744264 
L 60.52012 104.000914 
L 58.211644 106.62 
" clip-path="url(#p8eef4ac817)" style="fill: none; stroke: #bcbd22; stroke-width: 1.5; stroke-linecap: square"/>
   </g>
   <g id="line2d_13">
    <path d="M 138.684643 105.898414 
L 140.333142 102.807472 
L 141.277271 99.55459 
L 141.481848 96.264102 
L 140.894022 93.078727 
L 139.540828 90.133817 
L 137.488387 87.550712 
L 134.858394 85.415582 
L 131.691527 83.847323 
L 128.108857 82.916975 
L 124.244517 82.668713 
L 120.244727 83.112773 
L 116.278574 84.200714 
L 112.593189 85.719963 
L 110.553626 85.519048 
L 108.453647 85.707666 
L 106.342319 86.32509 
L 104.338778 87.237466 
L 102.454501 88.530543 
L 100.78695 90.006091 
L 99.340372 91.737439 
L 98.169124 93.403818 
L 97.24326 94.961771 
L 96.479437 95.786814 
L 95.715199 95.889507 
L 94.747908 95.100057 
L 93.762891 94.735038 
L 92.499773 93.892233 
L 91.000002 92.95655 
L 89.3703 92.219792 
L 87.609822 91.655145 
L 85.775278 91.329651 
L 83.864627 91.211631 
L 81.959525 91.368206 
L 80.031197 91.737337 
L 78.210917 92.402709 
L 76.409731 93.259402 
L 74.768504 94.373555 
L 73.280985 95.699475 
L 71.77898 97.142085 
L 68.517115 98.20503 
L 65.24678 99.677454 
L 61.987277 101.564954 
L 59.022358 103.894389 
L 56.519761 106.62 
" clip-path="url(#p8eef4ac817)" style="fill: none; stroke: #17becf; stroke-width: 1.5; stroke-linecap: square"/>
   </g>
   <g id="line2d_14">
    <path d="M 140.239619 105.871272 
L 142.037363 102.656328 
L 143.049483 99.269574 
L 143.243001 95.850879 
L 142.65508 92.531138 
L 141.320665 89.438423 
L 139.238045 86.719574 
L 136.490347 84.493122 
L 133.184573 82.857394 
L 129.446843 81.88608 
L 125.435622 81.608154 
L 121.30255 82.026887 
L 117.157935 83.159461 
L 113.197432 84.891753 
L 111.098528 84.648559 
L 108.906768 84.854654 
L 106.701129 85.515736 
L 104.613374 86.476452 
L 102.651365 87.833578 
L 100.912272 89.401174 
L 99.411022 91.210496 
L 98.197707 92.94544 
L 97.239627 94.545403 
L 96.456151 95.49537 
L 95.671287 95.600393 
L 94.640744 94.624706 
L 93.614594 94.243009 
L 92.326146 93.436138 
L 90.778194 92.478903 
L 89.101475 91.734366 
L 87.276166 91.142252 
L 85.393022 90.824467 
L 83.385386 90.663848 
L 81.398976 90.812528 
L 79.367047 91.166444 
L 77.422256 91.816706 
L 75.536182 92.701914 
L 73.762126 93.827654 
L 72.167007 95.193939 
L 70.72143 96.750027 
L 67.905161 98.026398 
L 64.293901 99.471355 
L 60.746211 101.38752 
L 57.580998 103.791876 
L 55.006039 106.62 
" clip-path="url(#p8eef4ac817)" style="fill: none; stroke: #1f77b4; stroke-width: 1.5; stroke-linecap: square"/>
   </g>
   <g id="line2d_15">
    <path d="M 141.551945 105.848365 
L 143.390783 102.536296 
L 144.422262 99.048796 
L 144.69757 95.509592 
L 144.147341 92.06713 
L 142.768518 88.872738 
L 140.618385 86.063871 
L 137.78263 83.762659 
L 134.371532 82.070408 
L 130.526968 81.053862 
L 126.419252 80.732332 
L 122.14658 81.160466 
L 117.861801 82.326011 
L 113.712725 84.185465 
L 111.529449 83.960158 
L 109.263184 84.18369 
L 106.980323 84.885969 
L 104.821346 85.900081 
L 102.799684 87.308475 
L 101.00351 88.960778 
L 99.462332 90.827795 
L 98.218407 92.613468 
L 97.237006 94.245056 
L 96.438765 95.277765 
L 95.632711 95.346412 
L 94.563015 94.279924 
L 93.507153 93.886534 
L 92.208409 93.126858 
L 90.629702 92.159138 
L 88.922165 91.410579 
L 87.050972 90.796084 
L 85.103759 90.442182 
L 83.055583 90.286875 
L 80.969921 90.387201 
L 78.892249 90.758315 
L 76.814365 91.365022 
L 74.872599 92.278425 
L 72.948818 93.386481 
L 71.238799 94.772707 
L 69.722988 96.379881 
L 67.244707 97.833609 
L 63.377704 99.27319 
L 59.683516 101.235588 
L 56.459321 103.712099 
L 53.706993 106.62 
" clip-path="url(#p8eef4ac817)" style="fill: none; stroke: #ff7f0e; stroke-width: 1.5; stroke-linecap: square"/>
   </g>
   <g id="line2d_16">
    <path d="M 142.437169 105.832913 
L 144.306522 102.455081 
L 145.399338 98.891658 
L 145.711132 95.271778 
L 145.150953 91.755063 
L 143.745543 88.491008 
L 141.553219 85.619798 
L 138.661265 83.266012 
L 135.182043 81.533017 
L 131.295554 80.461679 
L 127.097363 80.128543 
L 122.730455 80.561102 
L 118.350908 81.746859 
L 114.109654 83.641411 
L 111.818232 83.498823 
L 109.501004 83.735987 
L 107.168289 84.46198 
L 104.955415 85.528522 
L 102.894952 86.971191 
L 101.060101 88.687622 
L 99.494109 90.590782 
L 98.230822 92.414384 
L 97.235457 94.067638 
L 96.429035 95.155985 
L 95.605958 95.170277 
L 94.518707 94.083384 
L 93.446096 93.683958 
L 92.137784 92.941335 
L 90.544537 91.975741 
L 88.819287 91.224808 
L 86.923067 90.599469 
L 84.937342 90.222248 
L 82.867217 90.071569 
L 80.715508 90.134998 
L 78.599725 90.506866 
L 76.423571 91.074648 
L 74.360873 91.951849 
L 72.386275 93.081334 
L 70.578082 94.472866 
L 69.0093 96.1153 
L 66.687626 97.670995 
L 62.721343 99.131225 
L 58.941138 101.129452 
L 55.630695 103.653165 
L 52.831375 106.62 
" clip-path="url(#p8eef4ac817)" style="fill: none; stroke: #2ca02c; stroke-width: 1.5; stroke-linecap: square"/>
   </g>
   <g id="line2d_17">
    <path d="M 142.9232 105.82443 
L 144.807943 102.410611 
L 145.941036 98.804539 
L 146.256018 95.14393 
L 145.690336 91.587346 
L 144.270939 88.285732 
L 142.056654 85.380651 
L 139.135558 82.997918 
L 135.635568 81.232318 
L 131.716128 80.137634 
L 127.47002 79.796729 
L 123.05325 80.229743 
L 118.623533 81.424042 
L 114.333381 83.334758 
L 111.959972 83.272393 
L 109.617668 83.516364 
L 107.260485 84.254017 
L 105.020726 85.347518 
L 102.941547 86.806229 
L 101.087049 88.557545 
L 99.509325 90.477296 
L 98.235939 92.332319 
L 97.234835 93.996346 
L 96.425927 95.117087 
L 95.597765 95.116334 
L 94.504402 94.019931 
L 93.426296 93.618261 
L 92.102438 92.848486 
L 90.508098 91.897272 
L 88.775372 91.145509 
L 86.874434 90.524712 
L 84.875629 90.140689 
L 82.79534 89.989412 
L 80.610376 90.03078 
L 78.439515 90.369153 
L 76.239715 90.938037 
L 74.102174 91.786751 
L 72.096478 92.924136 
L 70.22422 94.31228 
L 68.622582 95.971935 
L 66.326515 97.565585 
L 62.323946 99.045272 
L 58.517002 101.068813 
L 55.173505 103.620648 
L 52.35022 106.62 
" clip-path="url(#p8eef4ac817)" style="fill: none; stroke: #d62728; stroke-width: 1.5; stroke-linecap: square"/>
   </g>
   <g id="patch_3">
    <path d="M 150.505 106.62 
C 150.505 92.526499 144.900407 78.995814 134.934796 69.030204 
C 124.969186 59.064593 111.438501 53.46 97.345 53.46 
C 83.251499 53.46 69.720814 59.064593 59.755204 69.030204 
C 49.789593 78.995814 44.185 92.526499 44.185 106.62 
" style="fill: none; stroke: #000000; stroke-width: 0.8; stroke-linejoin: miter; stroke-linecap: square"/>
   </g>
   <g id="patch_4">
    <path d="M 97.345 106.62 
L 150.505 106.62 
" style="fill: none; stroke: #000000; stroke-width: 0.8; stroke-linejoin: miter; stroke-linecap: square"/>
   </g>
   <g id="patch_5">
    <path d="M 97.345 106.62 
L 44.185 106.62 
" style="fill: none; stroke: #000000; stroke-width: 0.8; stroke-linejoin: miter; stroke-linecap: square"/>
   </g>
   <g id="text_4">
    <!-- X -->
    <g transform="translate(93.235 20.88) scale(0.12 -0.12)">
     <defs>
      <path id="DejaVuSans-58" d="M 403 4666 
L 1081 4666 
L 2241 2931 
L 3406 4666 
L 4084 4666 
L 2584 2425 
L 4184 0 
L 3506 0 
L 2194 1984 
L 872 0 
L 191 0 
L 1856 2491 
L 403 4666 
z
" transform="scale(0.015625)"/>
     </defs>
     <use xlink:href="#DejaVuSans-58"/>
    </g>
   </g>
  </g>
  <g id="axes_2">
   <g id="patch_6">
    <path d="M 322.205 106.62 
C 322.205 92.526499 316.600407 78.995814 306.634796 69.030204 
C 296.669186 59.064593 283.138501 53.46 269.045 53.46 
C 254.951499 53.46 241.420814 59.064593 231.455204 69.030204 
C 221.489593 78.995814 215.885 92.526499 215.885 106.62 
L 269.045 106.62 
C 269.045 106.62 269.045 106.62 269.045 106.62 
C 269.045 106.62 269.045 106.62 269.045 106.62 
C 269.045 106.62 269.045 106.62 269.045 106.62 
C 269.045 106.62 269.045 106.62 269.045 106.62 
z
" style="fill: #ffffff"/>
   </g>
   <g id="matplotlib.axis_3">
    <g id="xtick_4">
     <g id="line2d_18">
      <path d="M 269.045 106.62 
L 322.205 106.62 
" clip-path="url(#pb2e66f193b)" style="fill: none; stroke: #b0b0b0; stroke-width: 0.8; stroke-linecap: square"/>
     </g>
     <g id="text_5">
      <!-- 0° -->
      <g transform="translate(330.52375 109.379375) scale(0.1 -0.1)">
       <use xlink:href="#DejaVuSans-30"/>
       <use xlink:href="#DejaVuSans-b0" x="63.623047"/>
      </g>
     </g>
    </g>
    <g id="xtick_5">
     <g id="line2d_19">
      <path d="M 269.045 106.62 
L 269.045 53.46 
" clip-path="url(#pb2e66f193b)" style="fill: none; stroke: #b0b0b0; stroke-width: 0.8; stroke-linecap: square"/>
     </g>
     <g id="text_6">
      <!-- 90° -->
      <g transform="translate(260.1825 42.219375) scale(0.1 -0.1)">
       <use xlink:href="#DejaVuSans-39"/>
       <use xlink:href="#DejaVuSans-30" x="63.623047"/>
       <use xlink:href="#DejaVuSans-b0" x="127.246094"/>
      </g>
     </g>
    </g>
    <g id="xtick_6">
     <g id="line2d_20">
      <path d="M 269.045 106.62 
L 215.885 106.62 
" clip-path="url(#pb2e66f193b)" style="fill: none; stroke: #b0b0b0; stroke-width: 0.8; stroke-linecap: square"/>
     </g>
     <g id="text_7">
      <!-- 180° -->
      <g transform="translate(189.84125 109.379375) scale(0.1 -0.1)">
       <use xlink:href="#DejaVuSans-31"/>
       <use xlink:href="#DejaVuSans-38" x="63.623047"/>
       <use xlink:href="#DejaVuSans-30" x="127.246094"/>
       <use xlink:href="#DejaVuSans-b0" x="190.869141"/>
      </g>
     </g>
    </g>
   </g>
   <g id="matplotlib.axis_4"/>
   <g id="line2d_21">
    <path d="M 269.045 106.62 
L 269.045 106.62 
L 269.045 106.62 
L 269.045 106.62 
L 269.045 106.62 
L 269.045 106.62 
L 269.045 106.62 
L 269.045 106.62 
L 269.045 106.62 
L 269.045 106.62 
L 269.045 106.62 
L 269.045 106.62 
L 269.045 106.62 
L 269.045 106.62 
L 269.045 106.62 
L 269.045 106.62 
L 269.045 106.62 
L 269.045 106.62 
L 269.045 106.62 
L 269.045 106.62 
L 269.045 106.62 
L 269.045 106.62 
L 269.045 106.62 
L 269.045 106.62 
L 269.045 106.62 
L 269.045 106.62 
L 269.045 106.62 
L 269.045 106.62 
L 269.045 106.62 
L 269.045 106.62 
L 269.045 106.62 
L 269.045 106.62 
L 269.045 106.62 
L 269.045 106.62 
L 269.045 106.62 
L 269.045 106.62 
L 269.045 106.62 
L 269.045 106.62 
L 269.045 106.62 
L 269.045 106.62 
L 269.045 106.62 
L 269.045 106.62 
L 269.045 106.62 
L 269.045 106.62 
L 269.045 106.62 
" clip-path="url(#pb2e66f193b)" style="fill: none; stroke: #1f77b4; stroke-width: 1.5; stroke-linecap: square"/>
   </g>
   <g id="line2d_22">
    <path d="M 271.992164 106.568557 
L 272.424369 106.320291 
L 273.820409 105.851995 
L 275.168101 105.183327 
L 276.302667 104.363278 
L 277.200066 103.433763 
L 278.335339 102.206816 
L 279.340237 100.800625 
L 280.02393 99.340673 
L 280.371493 97.893131 
L 280.382392 96.525204 
L 280.070423 95.302087 
L 279.463023 94.283996 
L 278.599961 93.523426 
L 277.531476 93.062744 
L 276.315952 92.932233 
L 275.250058 92.623487 
L 274.491705 91.525021 
L 273.561723 90.629191 
L 272.494814 89.96813 
L 271.331531 89.56582 
L 270.116481 89.437035 
L 268.896353 89.586693 
L 267.717845 90.009635 
L 266.625601 90.690853 
L 265.66023 91.606146 
L 264.786238 92.489994 
L 263.840002 92.947163 
L 262.663571 92.878098 
L 261.561696 93.107124 
L 260.587348 93.618951 
L 259.788798 94.38716 
L 259.207409 95.375412 
L 258.875742 96.539101 
L 258.816054 97.827365 
L 258.853355 99.047252 
L 258.656323 99.99009 
L 258.753482 101.037446 
L 259.149859 102.129472 
L 259.820112 103.20012 
L 260.776923 104.206517 
L 261.990623 105.094204 
L 263.399426 105.81286 
L 264.967307 106.329983 
L 266.060772 106.62 
" clip-path="url(#pb2e66f193b)" style="fill: none; stroke: #ff7f0e; stroke-width: 1.5; stroke-linecap: square"/>
   </g>
   <g id="line2d_23">
    <path d="M 273.24371 106.546711 
L 273.876075 106.191542 
L 275.846697 105.526117 
L 277.762346 104.574635 
L 279.372608 103.4087 
L 280.662057 102.081141 
L 282.187599 100.37688 
L 283.600825 98.392331 
L 284.557871 96.334547 
L 285.038319 94.297421 
L 285.042164 92.376151 
L 284.589699 90.66292 
L 283.720502 89.242706 
L 282.491547 88.189397 
L 280.974537 87.56241 
L 279.252587 87.403936 
L 277.926501 86.586336 
L 276.841442 85.012967 
L 275.510621 83.729398 
L 273.983656 82.781655 
L 272.318548 82.20411 
L 270.579113 82.017963 
L 268.832154 82.230313 
L 267.144505 82.833842 
L 265.580067 83.807133 
L 264.196984 85.115613 
L 263.014093 86.610254 
L 261.588853 87.033693 
L 259.90602 86.939931 
L 258.330443 87.272333 
L 256.937805 88.008895 
L 255.797038 89.111716 
L 254.967178 90.528733 
L 254.494659 92.196084 
L 254.411169 94.040996 
L 254.427184 95.758453 
L 254.149882 97.114142 
L 254.294225 98.618557 
L 254.853993 100.179958 
L 255.825566 101.71925 
L 257.205803 103.164093 
L 258.954831 104.43759 
L 260.981707 105.467202 
L 263.226024 106.206139 
L 264.79155 106.62 
" clip-path="url(#pb2e66f193b)" style="fill: none; stroke: #2ca02c; stroke-width: 1.5; stroke-linecap: square"/>
   </g>
   <g id="line2d_24">
    <path d="M 273.673804 106.539204 
L 274.379311 106.146911 
L 276.539703 105.414664 
L 278.647427 104.366967 
L 280.417299 103.083861 
L 281.836732 101.622188 
L 283.475181 99.76524 
L 285.020465 97.58988 
L 286.063634 95.336185 
L 286.582779 93.107441 
L 286.578443 91.00825 
L 286.073473 89.139783 
L 285.111877 87.595176 
L 283.756723 86.455275 
L 282.087193 85.784927 
L 280.194913 85.629981 
L 278.863351 84.473119 
L 277.663559 82.734555 
L 276.192211 81.316326 
L 274.504151 80.269286 
L 272.663483 79.631401 
L 270.740735 79.426087 
L 268.809734 79.661174 
L 266.944335 80.328557 
L 265.215152 81.404556 
L 263.686432 82.85095 
L 262.413224 84.616653 
L 260.798584 84.957762 
L 258.938623 84.856718 
L 257.19751 85.226554 
L 255.658844 86.042884 
L 254.398751 87.263764 
L 253.482412 88.831612 
L 252.961072 90.675822 
L 252.869678 92.715956 
L 252.852468 94.588384 
L 252.551208 96.093891 
L 252.710279 97.759358 
L 253.319281 99.483489 
L 254.404572 101.192455 
L 255.9409 102.794863 
L 257.883688 104.205912 
L 260.130536 105.345511 
L 262.6183 106.162916 
L 264.354372 106.62 
" clip-path="url(#pb2e66f193b)" style="fill: none; stroke: #d62728; stroke-width: 1.5; stroke-linecap: square"/>
   </g>
   <g id="line2d_25">
    <path d="M 274.135812 106.53114 
L 274.918663 106.099077 
L 277.269284 105.297329 
L 279.575762 104.149151 
L 281.509281 102.744317 
L 283.053931 101.14662 
L 284.794748 99.138407 
L 286.470901 96.770022 
L 287.596856 94.319618 
L 288.149555 91.900267 
L 288.130518 89.626285 
L 287.565636 87.608035 
L 286.503878 85.946905 
L 285.014956 84.730669 
L 283.186068 84.02946 
L 281.117853 83.892523 
L 279.867794 82.207435 
L 278.544218 80.293901 
L 276.92172 78.733605 
L 275.06078 77.582499 
L 273.032064 76.882327 
L 270.913296 76.658793 
L 268.785816 76.920427 
L 266.730976 77.658209 
L 264.82654 78.845963 
L 263.143238 80.441501 
L 261.741655 82.388475 
L 259.949808 82.728139 
L 257.899811 82.619717 
L 255.981143 83.030116 
L 254.285888 83.932385 
L 252.897878 85.280236 
L 251.888871 87.010159 
L 251.315264 89.044314 
L 251.215484 91.294038 
L 251.12335 93.303589 
L 250.769188 94.95663 
L 250.929654 96.793472 
L 251.62172 98.713116 
L 252.838983 100.612055 
L 254.552623 102.38962 
L 256.699562 103.949797 
L 259.196054 105.21191 
L 261.956772 106.115866 
L 263.883778 106.62 
" clip-path="url(#pb2e66f193b)" style="fill: none; stroke: #9467bd; stroke-width: 1.5; stroke-linecap: square"/>
   </g>
   <g id="line2d_26">
    <path d="M 274.671659 106.521786 
L 275.546721 106.043376 
L 278.095076 105.164521 
L 280.622128 103.90364 
L 282.735411 102.36306 
L 284.409366 100.617043 
L 286.235054 98.45422 
L 288.048825 95.878102 
L 289.258634 93.217814 
L 289.840631 90.597322 
L 289.797906 88.141645 
L 289.160198 85.971172 
L 287.982411 84.196171 
L 286.342001 82.911745 
L 284.335355 82.193459 
L 282.094984 82.053046 
L 281.011689 79.627196 
L 279.545951 77.517701 
L 277.750559 75.799218 
L 275.692473 74.533386 
L 273.449867 73.766124 
L 271.108672 73.525611 
L 268.758768 73.821045 
L 266.490003 74.642237 
L 264.388213 75.960053 
L 262.531429 77.727693 
L 260.980415 79.862783 
L 258.978342 80.176228 
L 256.710453 80.05853 
L 254.588094 80.514635 
L 252.713083 81.514679 
L 251.178103 83.00741 
L 250.062475 84.922548 
L 249.428522 87.173965 
L 249.318688 89.663583 
L 248.971985 91.70505 
L 248.605504 93.575797 
L 248.813028 95.645324 
L 249.610992 97.800625 
L 250.990777 99.926882 
L 252.910705 101.910337 
L 255.296188 103.64626 
L 258.094642 105.054442 
L 261.182059 106.060766 
L 263.337187 106.62 
" clip-path="url(#pb2e66f193b)" style="fill: none; stroke: #8c564b; stroke-width: 1.5; stroke-linecap: square"/>
   </g>
   <g id="line2d_27">
    <path d="M 275.161937 106.513228 
L 276.116247 105.992866 
L 278.845373 105.043854 
L 281.569925 103.681257 
L 283.842372 102.018858 
L 285.63044 100.139961 
L 287.481594 97.862077 
L 289.407976 95.109843 
L 290.682555 92.273716 
L 291.281321 89.487295 
L 291.209291 86.88495 
L 290.500119 84.595705 
L 289.214418 82.737348 
L 287.436884 81.411037 
L 285.272324 80.696638 
L 283.217019 79.940784 
L 282.036846 77.314787 
L 280.442434 75.03319 
L 278.491287 73.176776 
L 276.256237 71.812159 
L 273.822227 70.988865 
L 271.282552 70.737151 
L 268.734731 71.066675 
L 266.275426 71.956638 
L 263.991237 73.34639 
L 261.966591 75.222235 
L 260.273713 77.51804 
L 258.088726 77.839325 
L 255.620512 77.711427 
L 253.310646 78.207901 
L 251.269916 79.296252 
L 249.599171 80.920721 
L 248.384721 83.004837 
L 247.69438 85.454891 
L 247.574338 88.164168 
L 246.918343 90.179122 
L 246.548568 92.263089 
L 246.807961 94.557692 
L 247.712791 96.939199 
L 249.2311 99.274529 
L 251.339259 101.451626 
L 253.979369 103.361444 
L 257.06611 104.907394 
L 260.46357 106.009665 
L 262.836728 106.62 
" clip-path="url(#pb2e66f193b)" style="fill: none; stroke: #e377c2; stroke-width: 1.5; stroke-linecap: square"/>
   </g>
   <g id="line2d_28">
    <path d="M 275.596183 106.505649 
L 276.615793 105.948562 
L 279.515882 104.93602 
L 282.415676 103.482817 
L 284.827906 101.712412 
L 286.724288 99.712588 
L 288.529048 97.364505 
L 290.543477 94.468002 
L 291.864669 91.489942 
L 292.468999 88.572209 
L 292.363659 85.857103 
L 291.58616 83.480852 
L 290.202471 81.567393 
L 288.303882 80.22268 
L 286.043184 79.465179 
L 284.180061 78.127832 
L 282.915843 75.332067 
L 281.210334 72.905035 
L 279.125141 70.932707 
L 276.738176 69.485892 
L 274.141855 68.604906 
L 271.434736 68.296635 
L 268.713242 68.604296 
L 266.080523 69.517278 
L 263.635344 71.003214 
L 261.467723 73.009404 
L 259.654967 75.465123 
L 257.286914 75.733071 
L 254.637789 75.595211 
L 252.15846 76.127357 
L 249.967816 77.294672 
L 248.174086 79.037352 
L 246.869903 81.273366 
L 246.128059 83.90218 
L 245.998147 86.8093 
L 245.020304 88.768813 
L 244.652789 91.053229 
L 244.951967 93.550922 
L 245.937812 96.133694 
L 247.604435 98.671486 
L 249.910001 101.034421 
L 252.785462 103.103213 
L 256.137492 104.774631 
L 259.820117 105.963901 
L 262.393742 106.62 
" clip-path="url(#pb2e66f193b)" style="fill: none; stroke: #7f7f7f; stroke-width: 1.5; stroke-linecap: square"/>
   </g>
   <g id="line2d_29">
    <path d="M 275.977467 106.498993 
L 277.052379 105.909842 
L 280.118572 104.839092 
L 283.175999 103.304421 
L 285.713032 101.437188 
L 287.720938 99.32319 
L 289.462267 96.921199 
L 291.498401 93.928232 
L 292.85213 90.835229 
L 293.453757 87.81347 
L 293.312783 85.012004 
L 292.470457 82.573096 
L 290.997737 80.625717 
L 288.991916 79.279621 
L 286.911078 78.078708 
L 284.985283 76.611977 
L 283.651761 73.672086 
L 281.867573 71.083564 
L 279.680592 68.966213 
L 277.17123 67.395593 
L 274.433673 66.428372 
L 271.571722 66.09984 
L 268.6942 66.422349 
L 265.910138 67.384776 
L 263.323947 68.953003 
L 261.030816 71.071413 
L 259.091722 73.596349 
L 256.554996 73.810418 
L 253.741628 73.665399 
L 251.108656 74.231687 
L 248.78228 75.472273 
L 246.87738 77.323648 
L 245.492278 79.69871 
L 244.704228 82.49072 
L 244.324698 85.370831 
L 243.282308 87.477421 
L 242.908208 89.939862 
L 243.24984 92.627616 
L 244.331683 95.404814 
L 246.138497 98.128029 
L 248.624245 100.659103 
L 251.714001 102.871466 
L 255.307141 104.655917 
L 259.252029 105.923497 
L 262.005457 106.62 
" clip-path="url(#pb2e66f193b)" style="fill: none; stroke: #bcbd22; stroke-width: 1.5; stroke-linecap: square"/>
   </g>
   <g id="line2d_30">
    <path d="M 276.442602 106.490874 
L 277.574465 105.86354 
L 280.860581 104.719758 
L 284.112011 103.084803 
L 286.821634 101.092476 
L 288.970937 98.834808 
L 290.938919 96.219746 
L 292.611588 93.299003 
L 293.997283 90.075961 
L 294.589095 86.938712 
L 294.399653 84.044257 
L 293.475022 81.541881 
L 291.892423 79.566316 
L 290.094216 77.768746 
L 287.939818 76.435283 
L 285.980507 74.738442 
L 284.581589 71.574706 
L 282.686436 68.814171 
L 280.361945 66.553979 
L 277.69348 64.87475 
L 274.781105 63.837038 
L 271.735392 63.475121 
L 268.670574 63.715027 
L 265.690255 64.632775 
L 262.905176 66.195844 
L 260.417034 68.348853 
L 258.295755 70.955438 
L 255.635616 71.395331 
L 252.618783 71.247441 
L 249.796209 71.861753 
L 247.303047 73.198406 
L 245.262284 75.189164 
L 243.779131 77.740544 
L 242.936198 80.738052 
L 242.216898 83.559 
L 241.126453 85.875546 
L 240.767963 88.573987 
L 241.169172 91.498974 
L 242.367739 94.513553 
L 244.34561 97.463364 
L 247.051653 100.200058 
L 250.40378 102.588077 
L 254.29245 104.510848 
L 258.567838 105.874836 
L 261.534936 106.62 
" clip-path="url(#pb2e66f193b)" style="fill: none; stroke: #17becf; stroke-width: 1.5; stroke-linecap: square"/>
   </g>
   <g id="line2d_31">
    <path d="M 276.821011 106.484269 
L 278.005274 105.825332 
L 281.480963 104.619985 
L 284.895269 102.901026 
L 287.790484 100.791219 
L 290.049147 98.413544 
L 292.159951 95.63972 
L 293.816963 92.617667 
L 294.963377 89.435415 
L 295.544764 86.202386 
L 295.321616 83.223342 
L 294.342456 80.651435 
L 292.943773 78.321411 
L 291.067941 76.434103 
L 288.777579 75.096948 
L 286.795336 73.204504 
L 285.345473 69.851643 
L 283.387082 66.872403 
L 280.969068 64.404549 
L 278.178135 62.53537 
L 275.117007 61.331698 
L 271.8999 60.836969 
L 268.647485 61.069316 
L 265.478941 61.988018 
L 262.498567 63.518758 
L 259.814831 65.677656 
L 257.522177 68.388811 
L 254.838948 69.30259 
L 251.649474 69.160112 
L 248.666998 69.822695 
L 246.034137 71.247845 
L 243.880587 73.363136 
L 242.317201 76.069526 
L 241.430917 79.24585 
L 240.441878 82.033221 
L 239.309551 84.525524 
L 238.960364 87.420402 
L 239.442653 90.562438 
L 240.736489 93.773274 
L 242.855553 96.910966 
L 245.744591 99.818521 
L 249.31563 102.352721 
L 253.451741 104.390653 
L 258.011737 105.835284 
L 261.154127 106.62 
" clip-path="url(#pb2e66f193b)" style="fill: none; stroke: #1f77b4; stroke-width: 1.5; stroke-linecap: square"/>
   </g>
   <g id="line2d_32">
    <path d="M 277.098177 106.479431 
L 278.339421 105.795697 
L 281.949102 104.544697 
L 285.523341 102.753661 
L 288.548065 100.555654 
L 290.893724 98.083562 
L 293.077291 95.203956 
L 294.782671 92.0718 
L 295.867085 88.836232 
L 296.371018 85.565771 
L 296.126211 82.506933 
L 295.210872 79.759981 
L 293.760596 77.354209 
L 291.793168 75.440065 
L 289.40013 74.102415 
L 287.568232 71.749507 
L 286.078461 68.198271 
L 284.037221 65.07061 
L 281.513936 62.475522 
L 278.598832 60.504716 
L 275.39898 59.22859 
L 272.038541 58.613624 
L 268.627156 58.739862 
L 265.289376 59.615467 
L 262.147814 61.209429 
L 259.316082 63.465352 
L 256.893797 66.303928 
L 254.214254 67.661601 
L 250.892211 67.529405 
L 247.787718 68.234948 
L 245.049027 69.73354 
L 242.810851 71.949392 
L 241.188225 74.779081 
L 240.271233 78.096243 
L 239.091503 80.872461 
L 237.924802 83.496608 
L 237.577688 86.537998 
L 238.100504 89.834399 
L 239.507054 93.215342 
L 241.732401 96.494588 
L 244.758677 99.530729 
L 248.494946 102.175214 
L 252.818748 104.300155 
L 257.58279 105.804776 
L 260.874039 106.62 
" clip-path="url(#pb2e66f193b)" style="fill: none; stroke: #ff7f0e; stroke-width: 1.5; stroke-linecap: square"/>
   </g>
   <g id="line2d_33">
    <path d="M 277.270448 106.476424 
L 278.568986 105.775338 
L 282.25156 104.496054 
L 285.951221 102.653267 
L 289.054123 100.398299 
L 291.458218 97.863011 
L 293.672928 94.921011 
L 295.409392 91.717547 
L 296.507073 88.411903 
L 296.960538 85.111555 
L 296.70074 81.995373 
L 295.788911 79.166607 
L 294.289285 76.728188 
L 292.262257 74.797105 
L 289.802496 73.45963 
L 288.112925 70.724106 
L 286.583321 67.059477 
L 284.485057 63.829477 
L 281.893991 61.129991 
L 278.908658 59.00922 
L 275.618221 57.59337 
L 272.143336 56.933057 
L 268.612428 57.052108 
L 265.156028 57.94651 
L 261.901025 59.584587 
L 258.965076 61.908387 
L 256.451432 64.836222 
L 253.796951 66.565401 
L 250.387534 66.442624 
L 247.202954 67.179018 
L 244.395132 68.728377 
L 242.102035 71.012632 
L 240.441385 73.925425 
L 239.505265 77.336929 
L 238.212093 80.116535 
L 237.021373 82.825329 
L 236.674284 85.961458 
L 237.222145 89.357941 
L 238.678688 92.83942 
L 241.005306 96.225036 
L 244.120258 99.344372 
L 247.963897 102.060353 
L 252.4102 104.241745 
L 257.307673 105.785209 
L 260.698507 106.62 
" clip-path="url(#pb2e66f193b)" style="fill: none; stroke: #2ca02c; stroke-width: 1.5; stroke-linecap: square"/>
   </g>
   <g id="line2d_34">
    <path d="M 277.345618 106.475112 
L 278.686698 105.764898 
L 282.408678 104.470786 
L 286.16334 102.603497 
L 289.305361 100.320178 
L 291.738574 97.753474 
L 293.992602 94.769156 
L 295.725077 91.539106 
L 296.829953 88.197825 
L 297.278808 84.866334 
L 297.011491 81.71868 
L 296.082506 78.865224 
L 294.558636 76.409248 
L 292.502112 74.468346 
L 290.009134 73.129523 
L 288.384225 70.213377 
L 286.834622 66.492627 
L 284.722245 63.172135 
L 282.108185 60.37167 
L 279.074057 58.210857 
L 275.729113 56.766282 
L 272.195934 56.089575 
L 268.605036 56.205141 
L 265.089119 57.109092 
L 261.777213 58.769414 
L 258.789001 61.12737 
L 256.229559 64.100074 
L 253.5888 66.018617 
L 250.135499 65.899886 
L 246.910601 66.651105 
L 244.067878 68.225325 
L 241.746945 70.543352 
L 240.066889 73.497368 
L 239.120816 76.955821 
L 237.780441 79.745493 
L 236.577872 82.495792 
L 236.230946 85.678525 
L 236.791486 89.124333 
L 238.273201 92.655405 
L 240.649122 96.092991 
L 243.808832 99.253466 
L 247.706606 102.004704 
L 252.214634 104.213785 
L 257.179305 105.776079 
L 260.621142 106.62 
" clip-path="url(#pb2e66f193b)" style="fill: none; stroke: #d62728; stroke-width: 1.5; stroke-linecap: square"/>
   </g>
   <g id="patch_7">
    <path d="M 322.205 106.62 
C 322.205 92.526499 316.600407 78.995814 306.634796 69.030204 
C 296.669186 59.064593 283.138501 53.46 269.045 53.46 
C 254.951499 53.46 241.420814 59.064593 231.455204 69.030204 
C 221.489593 78.995814 215.885 92.526499 215.885 106.62 
" style="fill: none; stroke: #000000; stroke-width: 0.8; stroke-linejoin: miter; stroke-linecap: square"/>
   </g>
   <g id="patch_8">
    <path d="M 269.045 106.62 
L 322.205 106.62 
" style="fill: none; stroke: #000000; stroke-width: 0.8; stroke-linejoin: miter; stroke-linecap: square"/>
   </g>
   <g id="patch_9">
    <path d="M 269.045 106.62 
L 215.885 106.62 
" style="fill: none; stroke: #000000; stroke-width: 0.8; stroke-linejoin: miter; stroke-linecap: square"/>
   </g>
   <g id="text_8">
    <!-- Y -->
    <g transform="translate(265.380312 20.88) scale(0.12 -0.12)">
     <defs>
      <path id="DejaVuSans-59" d="M -13 4666 
L 666 4666 
L 1959 2747 
L 3244 4666 
L 3922 4666 
L 2272 2222 
L 2272 0 
L 1638 0 
L 1638 2222 
L -13 4666 
z
" transform="scale(0.015625)"/>
     </defs>
     <use xlink:href="#DejaVuSans-59"/>
    </g>
   </g>
  </g>
  <g id="legend_1">
   <g id="patch_10">
    <path d="M 374.2 102.85625 
L 737.30625 102.85625 
Q 739.30625 102.85625 739.30625 100.85625 
L 739.30625 43.14375 
Q 739.30625 41.14375 737.30625 41.14375 
L 374.2 41.14375 
Q 372.2 41.14375 372.2 43.14375 
L 372.2 100.85625 
Q 372.2 102.85625 374.2 102.85625 
z
" style="fill: #ffffff; opacity: 0.8; stroke: #cccccc; stroke-linejoin: miter"/>
   </g>
   <g id="line2d_35">
    <path style="fill: none; stroke: #1f77b4; stroke-width: 1.5; stroke-linecap: square"/>
   </g>
   <g id="text_9">
    <!-- Node 1 -->
    <g transform="translate(404.2 52.742188) scale(0.1 -0.1)">
     <defs>
      <path id="DejaVuSans-4e" d="M 628 4666 
L 1478 4666 
L 3547 763 
L 3547 4666 
L 4159 4666 
L 4159 0 
L 3309 0 
L 1241 3903 
L 1241 0 
L 628 0 
L 628 4666 
z
" transform="scale(0.015625)"/>
      <path id="DejaVuSans-6f" d="M 1959 3097 
Q 1497 3097 1228 2736 
Q 959 2375 959 1747 
Q 959 1119 1226 758 
Q 1494 397 1959 397 
Q 2419 397 2687 759 
Q 2956 1122 2956 1747 
Q 2956 2369 2687 2733 
Q 2419 3097 1959 3097 
z
M 1959 3584 
Q 2709 3584 3137 3096 
Q 3566 2609 3566 1747 
Q 3566 888 3137 398 
Q 2709 -91 1959 -91 
Q 1206 -91 779 398 
Q 353 888 353 1747 
Q 353 2609 779 3096 
Q 1206 3584 1959 3584 
z
" transform="scale(0.015625)"/>
      <path id="DejaVuSans-64" d="M 2906 2969 
L 2906 4863 
L 3481 4863 
L 3481 0 
L 2906 0 
L 2906 525 
Q 2725 213 2448 61 
Q 2172 -91 1784 -91 
Q 1150 -91 751 415 
Q 353 922 353 1747 
Q 353 2572 751 3078 
Q 1150 3584 1784 3584 
Q 2172 3584 2448 3432 
Q 2725 3281 2906 2969 
z
M 947 1747 
Q 947 1113 1208 752 
Q 1469 391 1925 391 
Q 2381 391 2643 752 
Q 2906 1113 2906 1747 
Q 2906 2381 2643 2742 
Q 2381 3103 1925 3103 
Q 1469 3103 1208 2742 
Q 947 2381 947 1747 
z
" transform="scale(0.015625)"/>
      <path id="DejaVuSans-65" d="M 3597 1894 
L 3597 1613 
L 953 1613 
Q 991 1019 1311 708 
Q 1631 397 2203 397 
Q 2534 397 2845 478 
Q 3156 559 3463 722 
L 3463 178 
Q 3153 47 2828 -22 
Q 2503 -91 2169 -91 
Q 1331 -91 842 396 
Q 353 884 353 1716 
Q 353 2575 817 3079 
Q 1281 3584 2069 3584 
Q 2775 3584 3186 3129 
Q 3597 2675 3597 1894 
z
M 3022 2063 
Q 3016 2534 2758 2815 
Q 2500 3097 2075 3097 
Q 1594 3097 1305 2825 
Q 1016 2553 972 2059 
L 3022 2063 
z
" transform="scale(0.015625)"/>
      <path id="DejaVuSans-20" transform="scale(0.015625)"/>
     </defs>
     <use xlink:href="#DejaVuSans-4e"/>
     <use xlink:href="#DejaVuSans-6f" x="74.804688"/>
     <use xlink:href="#DejaVuSans-64" x="135.986328"/>
     <use xlink:href="#DejaVuSans-65" x="199.462891"/>
     <use xlink:href="#DejaVuSans-20" x="260.986328"/>
     <use xlink:href="#DejaVuSans-31" x="292.773438"/>
    </g>
   </g>
   <g id="line2d_36">
    <path style="fill: none; stroke: #ff7f0e; stroke-width: 1.5; stroke-linecap: square"/>
   </g>
   <g id="text_10">
    <!-- Node 21 -->
    <g transform="translate(404.2 67.420312) scale(0.1 -0.1)">
     <defs>
      <path id="DejaVuSans-32" d="M 1228 531 
L 3431 531 
L 3431 0 
L 469 0 
L 469 531 
Q 828 903 1448 1529 
Q 2069 2156 2228 2338 
Q 2531 2678 2651 2914 
Q 2772 3150 2772 3378 
Q 2772 3750 2511 3984 
Q 2250 4219 1831 4219 
Q 1534 4219 1204 4116 
Q 875 4013 500 3803 
L 500 4441 
Q 881 4594 1212 4672 
Q 1544 4750 1819 4750 
Q 2544 4750 2975 4387 
Q 3406 4025 3406 3419 
Q 3406 3131 3298 2873 
Q 3191 2616 2906 2266 
Q 2828 2175 2409 1742 
Q 1991 1309 1228 531 
z
" transform="scale(0.015625)"/>
     </defs>
     <use xlink:href="#DejaVuSans-4e"/>
     <use xlink:href="#DejaVuSans-6f" x="74.804688"/>
     <use xlink:href="#DejaVuSans-64" x="135.986328"/>
     <use xlink:href="#DejaVuSans-65" x="199.462891"/>
     <use xlink:href="#DejaVuSans-20" x="260.986328"/>
     <use xlink:href="#DejaVuSans-32" x="292.773438"/>
     <use xlink:href="#DejaVuSans-31" x="356.396484"/>
    </g>
   </g>
   <g id="line2d_37">
    <path style="fill: none; stroke: #2ca02c; stroke-width: 1.5; stroke-linecap: square"/>
   </g>
   <g id="text_11">
    <!-- Node 41 -->
    <g transform="translate(404.2 82.098438) scale(0.1 -0.1)">
     <defs>
      <path id="DejaVuSans-34" d="M 2419 4116 
L 825 1625 
L 2419 1625 
L 2419 4116 
z
M 2253 4666 
L 3047 4666 
L 3047 1625 
L 3713 1625 
L 3713 1100 
L 3047 1100 
L 3047 0 
L 2419 0 
L 2419 1100 
L 313 1100 
L 313 1709 
L 2253 4666 
z
" transform="scale(0.015625)"/>
     </defs>
     <use xlink:href="#DejaVuSans-4e"/>
     <use xlink:href="#DejaVuSans-6f" x="74.804688"/>
     <use xlink:href="#DejaVuSans-64" x="135.986328"/>
     <use xlink:href="#DejaVuSans-65" x="199.462891"/>
     <use xlink:href="#DejaVuSans-20" x="260.986328"/>
     <use xlink:href="#DejaVuSans-34" x="292.773438"/>
     <use xlink:href="#DejaVuSans-31" x="356.396484"/>
    </g>
   </g>
   <g id="line2d_38">
    <path style="fill: none; stroke: #d62728; stroke-width: 1.5; stroke-linecap: square"/>
   </g>
   <g id="text_12">
    <!-- Node 61 -->
    <g transform="translate(404.2 96.776563) scale(0.1 -0.1)">
     <defs>
      <path id="DejaVuSans-36" d="M 2113 2584 
Q 1688 2584 1439 2293 
Q 1191 2003 1191 1497 
Q 1191 994 1439 701 
Q 1688 409 2113 409 
Q 2538 409 2786 701 
Q 3034 994 3034 1497 
Q 3034 2003 2786 2293 
Q 2538 2584 2113 2584 
z
M 3366 4563 
L 3366 3988 
Q 3128 4100 2886 4159 
Q 2644 4219 2406 4219 
Q 1781 4219 1451 3797 
Q 1122 3375 1075 2522 
Q 1259 2794 1537 2939 
Q 1816 3084 2150 3084 
Q 2853 3084 3261 2657 
Q 3669 2231 3669 1497 
Q 3669 778 3244 343 
Q 2819 -91 2113 -91 
Q 1303 -91 875 529 
Q 447 1150 447 2328 
Q 447 3434 972 4092 
Q 1497 4750 2381 4750 
Q 2619 4750 2861 4703 
Q 3103 4656 3366 4563 
z
" transform="scale(0.015625)"/>
     </defs>
     <use xlink:href="#DejaVuSans-4e"/>
     <use xlink:href="#DejaVuSans-6f" x="74.804688"/>
     <use xlink:href="#DejaVuSans-64" x="135.986328"/>
     <use xlink:href="#DejaVuSans-65" x="199.462891"/>
     <use xlink:href="#DejaVuSans-20" x="260.986328"/>
     <use xlink:href="#DejaVuSans-36" x="292.773438"/>
     <use xlink:href="#DejaVuSans-31" x="356.396484"/>
    </g>
   </g>
   <g id="line2d_39">
    <path style="fill: none; stroke: #9467bd; stroke-width: 1.5; stroke-linecap: square"/>
   </g>
   <g id="text_13">
    <!-- Node 81 -->
    <g transform="translate(494.204687 52.742188) scale(0.1 -0.1)">
     <use xlink:href="#DejaVuSans-4e"/>
     <use xlink:href="#DejaVuSans-6f" x="74.804688"/>
     <use xlink:href="#DejaVuSans-64" x="135.986328"/>
     <use xlink:href="#DejaVuSans-65" x="199.462891"/>
     <use xlink:href="#DejaVuSans-20" x="260.986328"/>
     <use xlink:href="#DejaVuSans-38" x="292.773438"/>
     <use xlink:href="#DejaVuSans-31" x="356.396484"/>
    </g>
   </g>
   <g id="line2d_40">
    <path style="fill: none; stroke: #8c564b; stroke-width: 1.5; stroke-linecap: square"/>
   </g>
   <g id="text_14">
    <!-- Node 101 -->
    <g transform="translate(494.204687 67.420312) scale(0.1 -0.1)">
     <use xlink:href="#DejaVuSans-4e"/>
     <use xlink:href="#DejaVuSans-6f" x="74.804688"/>
     <use xlink:href="#DejaVuSans-64" x="135.986328"/>
     <use xlink:href="#DejaVuSans-65" x="199.462891"/>
     <use xlink:href="#DejaVuSans-20" x="260.986328"/>
     <use xlink:href="#DejaVuSans-31" x="292.773438"/>
     <use xlink:href="#DejaVuSans-30" x="356.396484"/>
     <use xlink:href="#DejaVuSans-31" x="420.019531"/>
    </g>
   </g>
   <g id="line2d_41">
    <path style="fill: none; stroke: #e377c2; stroke-width: 1.5; stroke-linecap: square"/>
   </g>
   <g id="text_15">
    <!-- Node 121 -->
    <g transform="translate(494.204687 82.098438) scale(0.1 -0.1)">
     <use xlink:href="#DejaVuSans-4e"/>
     <use xlink:href="#DejaVuSans-6f" x="74.804688"/>
     <use xlink:href="#DejaVuSans-64" x="135.986328"/>
     <use xlink:href="#DejaVuSans-65" x="199.462891"/>
     <use xlink:href="#DejaVuSans-20" x="260.986328"/>
     <use xlink:href="#DejaVuSans-31" x="292.773438"/>
     <use xlink:href="#DejaVuSans-32" x="356.396484"/>
     <use xlink:href="#DejaVuSans-31" x="420.019531"/>
    </g>
   </g>
   <g id="line2d_42">
    <path style="fill: none; stroke: #7f7f7f; stroke-width: 1.5; stroke-linecap: square"/>
   </g>
   <g id="text_16">
    <!-- Node 141 -->
    <g transform="translate(494.204687 96.776563) scale(0.1 -0.1)">
     <use xlink:href="#DejaVuSans-4e"/>
     <use xlink:href="#DejaVuSans-6f" x="74.804688"/>
     <use xlink:href="#DejaVuSans-64" x="135.986328"/>
     <use xlink:href="#DejaVuSans-65" x="199.462891"/>
     <use xlink:href="#DejaVuSans-20" x="260.986328"/>
     <use xlink:href="#DejaVuSans-31" x="292.773438"/>
     <use xlink:href="#DejaVuSans-34" x="356.396484"/>
     <use xlink:href="#DejaVuSans-31" x="420.019531"/>
    </g>
   </g>
   <g id="line2d_43">
    <path style="fill: none; stroke: #bcbd22; stroke-width: 1.5; stroke-linecap: square"/>
   </g>
   <g id="text_17">
    <!-- Node 161 -->
    <g transform="translate(590.571875 52.742188) scale(0.1 -0.1)">
     <use xlink:href="#DejaVuSans-4e"/>
     <use xlink:href="#DejaVuSans-6f" x="74.804688"/>
     <use xlink:href="#DejaVuSans-64" x="135.986328"/>
     <use xlink:href="#DejaVuSans-65" x="199.462891"/>
     <use xlink:href="#DejaVuSans-20" x="260.986328"/>
     <use xlink:href="#DejaVuSans-31" x="292.773438"/>
     <use xlink:href="#DejaVuSans-36" x="356.396484"/>
     <use xlink:href="#DejaVuSans-31" x="420.019531"/>
    </g>
   </g>
   <g id="line2d_44">
    <path style="fill: none; stroke: #17becf; stroke-width: 1.5; stroke-linecap: square"/>
   </g>
   <g id="text_18">
    <!-- Node 181 -->
    <g transform="translate(590.571875 67.420312) scale(0.1 -0.1)">
     <use xlink:href="#DejaVuSans-4e"/>
     <use xlink:href="#DejaVuSans-6f" x="74.804688"/>
     <use xlink:href="#DejaVuSans-64" x="135.986328"/>
     <use xlink:href="#DejaVuSans-65" x="199.462891"/>
     <use xlink:href="#DejaVuSans-20" x="260.986328"/>
     <use xlink:href="#DejaVuSans-31" x="292.773438"/>
     <use xlink:href="#DejaVuSans-38" x="356.396484"/>
     <use xlink:href="#DejaVuSans-31" x="420.019531"/>
    </g>
   </g>
   <g id="line2d_45">
    <path style="fill: none; stroke: #1f77b4; stroke-width: 1.5; stroke-linecap: square"/>
   </g>
   <g id="text_19">
    <!-- Node 201 -->
    <g transform="translate(590.571875 82.098438) scale(0.1 -0.1)">
     <use xlink:href="#DejaVuSans-4e"/>
     <use xlink:href="#DejaVuSans-6f" x="74.804688"/>
     <use xlink:href="#DejaVuSans-64" x="135.986328"/>
     <use xlink:href="#DejaVuSans-65" x="199.462891"/>
     <use xlink:href="#DejaVuSans-20" x="260.986328"/>
     <use xlink:href="#DejaVuSans-32" x="292.773438"/>
     <use xlink:href="#DejaVuSans-30" x="356.396484"/>
     <use xlink:href="#DejaVuSans-31" x="420.019531"/>
    </g>
   </g>
   <g id="line2d_46">
    <path style="fill: none; stroke: #ff7f0e; stroke-width: 1.5; stroke-linecap: square"/>
   </g>
   <g id="text_20">
    <!-- Node 221 -->
    <g transform="translate(686.939062 52.742188) scale(0.1 -0.1)">
     <use xlink:href="#DejaVuSans-4e"/>
     <use xlink:href="#DejaVuSans-6f" x="74.804688"/>
     <use xlink:href="#DejaVuSans-64" x="135.986328"/>
     <use xlink:href="#DejaVuSans-65" x="199.462891"/>
     <use xlink:href="#DejaVuSans-20" x="260.986328"/>
     <use xlink:href="#DejaVuSans-32" x="292.773438"/>
     <use xlink:href="#DejaVuSans-32" x="356.396484"/>
     <use xlink:href="#DejaVuSans-31" x="420.019531"/>
    </g>
   </g>
   <g id="line2d_47">
    <path style="fill: none; stroke: #2ca02c; stroke-width: 1.5; stroke-linecap: square"/>
   </g>
   <g id="text_21">
    <!-- Node 241 -->
    <g transform="translate(686.939062 67.420312) scale(0.1 -0.1)">
     <use xlink:href="#DejaVuSans-4e"/>
     <use xlink:href="#DejaVuSans-6f" x="74.804688"/>
     <use xlink:href="#DejaVuSans-64" x="135.986328"/>
     <use xlink:href="#DejaVuSans-65" x="199.462891"/>
     <use xlink:href="#DejaVuSans-20" x="260.986328"/>
     <use xlink:href="#DejaVuSans-32" x="292.773438"/>
     <use xlink:href="#DejaVuSans-34" x="356.396484"/>
     <use xlink:href="#DejaVuSans-31" x="420.019531"/>
    </g>
   </g>
   <g id="line2d_48">
    <path style="fill: none; stroke: #d62728; stroke-width: 1.5; stroke-linecap: square"/>
   </g>
   <g id="text_22">
    <!-- Node 261 -->
    <g transform="translate(686.939062 82.098438) scale(0.1 -0.1)">
     <use xlink:href="#DejaVuSans-4e"/>
     <use xlink:href="#DejaVuSans-6f" x="74.804688"/>
     <use xlink:href="#DejaVuSans-64" x="135.986328"/>
     <use xlink:href="#DejaVuSans-65" x="199.462891"/>
     <use xlink:href="#DejaVuSans-20" x="260.986328"/>
     <use xlink:href="#DejaVuSans-32" x="292.773438"/>
     <use xlink:href="#DejaVuSans-36" x="356.396484"/>
     <use xlink:href="#DejaVuSans-31" x="420.019531"/>
    </g>
   </g>
  </g>
 </g>
 <defs>
  <clipPath id="p8eef4ac817">
   <path d="M 150.505 106.62 
C 150.505 92.526499 144.900407 78.995814 134.934796 69.030204 
C 124.969186 59.064593 111.438501 53.46 97.345 53.46 
C 83.251499 53.46 69.720814 59.064593 59.755204 69.030204 
C 49.789593 78.995814 44.185 92.526499 44.185 106.62 
L 97.345 106.62 
C 97.345 106.62 97.345 106.62 97.345 106.62 
C 97.345 106.62 97.345 106.62 97.345 106.62 
C 97.345 106.62 97.345 106.62 97.345 106.62 
C 97.345 106.62 97.345 106.62 97.345 106.62 
z
"/>
  </clipPath>
  <clipPath id="pb2e66f193b">
   <path d="M 322.205 106.62 
C 322.205 92.526499 316.600407 78.995814 306.634796 69.030204 
C 296.669186 59.064593 283.138501 53.46 269.045 53.46 
C 254.951499 53.46 241.420814 59.064593 231.455204 69.030204 
C 221.489593 78.995814 215.885 92.526499 215.885 106.62 
L 269.045 106.62 
C 269.045 106.62 269.045 106.62 269.045 106.62 
C 269.045 106.62 269.045 106.62 269.045 106.62 
C 269.045 106.62 269.045 106.62 269.045 106.62 
C 269.045 106.62 269.045 106.62 269.045 106.62 
z
"/>
  </clipPath>
 </defs>
</svg>
