<?xml version="1.0" encoding="utf-8" standalone="no"?>
<!DOCTYPE svg PUBLIC "-//W3C//DTD SVG 1.1//EN"
  "http://www.w3.org/Graphics/SVG/1.1/DTD/svg11.dtd">
<svg xmlns:xlink="http://www.w3.org/1999/xlink" width="360pt" height="144pt" viewBox="0 0 360 144" xmlns="http://www.w3.org/2000/svg" version="1.1">
 <metadata>
  <rdf:RDF xmlns:dc="http://purl.org/dc/elements/1.1/" xmlns:cc="http://creativecommons.org/ns#" xmlns:rdf="http://www.w3.org/1999/02/22-rdf-syntax-ns#">
   <cc:Work>
    <dc:type rdf:resource="http://purl.org/dc/dcmitype/StillImage"/>
    <dc:date>2023-06-20T07:11:55.545712</dc:date>
    <dc:format>image/svg+xml</dc:format>
    <dc:creator>
     <cc:Agent>
      <dc:title>Matplotlib v3.7.1, https://matplotlib.org/</dc:title>
     </cc:Agent>
    </dc:creator>
   </cc:Work>
  </rdf:RDF>
 </metadata>
 <defs>
  <style type="text/css">*{stroke-linejoin: round; stroke-linecap: butt}</style>
 </defs>
 <g id="figure_1">
  <g id="patch_1">
   <path d="M 0 144 
L 360 144 
L 360 0 
L 0 0 
z
" style="fill: #ffffff"/>
  </g>
  <g id="axes_1">
   <g id="patch_2">
    <path d="M 150.505 106.62 
C 150.505 92.526499 144.900407 78.995814 134.934796 69.030204 
C 124.969186 59.064593 111.438501 53.46 97.345 53.46 
C 83.251499 53.46 69.720814 59.064593 59.755204 69.030204 
C 49.789593 78.995814 44.185 92.526499 44.185 106.62 
L 97.345 106.62 
C 97.345 106.62 97.345 106.62 97.345 106.62 
C 97.345 106.62 97.345 106.62 97.345 106.62 
C 97.345 106.62 97.345 106.62 97.345 106.62 
C 97.345 106.62 97.345 106.62 97.345 106.62 
z
" style="fill: #ffffff"/>
   </g>
   <g id="matplotlib.axis_1">
    <g id="xtick_1">
     <g id="line2d_1">
      <path d="M 97.345 106.62 
L 150.505 106.62 
" clip-path="url(#pc4247a03d6)" style="fill: none; stroke: #b0b0b0; stroke-width: 0.8; stroke-linecap: square"/>
     </g>
     <g id="text_1">
      <!-- 0° -->
      <g transform="translate(158.82375 109.379375) scale(0.1 -0.1)">
       <defs>
        <path id="DejaVuSans-30" d="M 2034 4250 
Q 1547 4250 1301 3770 
Q 1056 3291 1056 2328 
Q 1056 1369 1301 889 
Q 1547 409 2034 409 
Q 2525 409 2770 889 
Q 3016 1369 3016 2328 
Q 3016 3291 2770 3770 
Q 2525 4250 2034 4250 
z
M 2034 4750 
Q 2819 4750 3233 4129 
Q 3647 3509 3647 2328 
Q 3647 1150 3233 529 
Q 2819 -91 2034 -91 
Q 1250 -91 836 529 
Q 422 1150 422 2328 
Q 422 3509 836 4129 
Q 1250 4750 2034 4750 
z
" transform="scale(0.015625)"/>
        <path id="DejaVuSans-b0" d="M 1600 4347 
Q 1350 4347 1178 4173 
Q 1006 4000 1006 3750 
Q 1006 3503 1178 3333 
Q 1350 3163 1600 3163 
Q 1850 3163 2022 3333 
Q 2194 3503 2194 3750 
Q 2194 3997 2020 4172 
Q 1847 4347 1600 4347 
z
M 1600 4750 
Q 1800 4750 1984 4673 
Q 2169 4597 2303 4453 
Q 2447 4313 2519 4134 
Q 2591 3956 2591 3750 
Q 2591 3338 2302 3052 
Q 2013 2766 1594 2766 
Q 1172 2766 890 3047 
Q 609 3328 609 3750 
Q 609 4169 896 4459 
Q 1184 4750 1600 4750 
z
" transform="scale(0.015625)"/>
       </defs>
       <use xlink:href="#DejaVuSans-30"/>
       <use xlink:href="#DejaVuSans-b0" x="63.623047"/>
      </g>
     </g>
    </g>
    <g id="xtick_2">
     <g id="line2d_2">
      <path d="M 97.345 106.62 
L 97.345 53.46 
" clip-path="url(#pc4247a03d6)" style="fill: none; stroke: #b0b0b0; stroke-width: 0.8; stroke-linecap: square"/>
     </g>
     <g id="text_2">
      <!-- 90° -->
      <g transform="translate(88.4825 42.219375) scale(0.1 -0.1)">
       <defs>
        <path id="DejaVuSans-39" d="M 703 97 
L 703 672 
Q 941 559 1184 500 
Q 1428 441 1663 441 
Q 2288 441 2617 861 
Q 2947 1281 2994 2138 
Q 2813 1869 2534 1725 
Q 2256 1581 1919 1581 
Q 1219 1581 811 2004 
Q 403 2428 403 3163 
Q 403 3881 828 4315 
Q 1253 4750 1959 4750 
Q 2769 4750 3195 4129 
Q 3622 3509 3622 2328 
Q 3622 1225 3098 567 
Q 2575 -91 1691 -91 
Q 1453 -91 1209 -44 
Q 966 3 703 97 
z
M 1959 2075 
Q 2384 2075 2632 2365 
Q 2881 2656 2881 3163 
Q 2881 3666 2632 3958 
Q 2384 4250 1959 4250 
Q 1534 4250 1286 3958 
Q 1038 3666 1038 3163 
Q 1038 2656 1286 2365 
Q 1534 2075 1959 2075 
z
" transform="scale(0.015625)"/>
       </defs>
       <use xlink:href="#DejaVuSans-39"/>
       <use xlink:href="#DejaVuSans-30" x="63.623047"/>
       <use xlink:href="#DejaVuSans-b0" x="127.246094"/>
      </g>
     </g>
    </g>
    <g id="xtick_3">
     <g id="line2d_3">
      <path d="M 97.345 106.62 
L 44.185 106.62 
" clip-path="url(#pc4247a03d6)" style="fill: none; stroke: #b0b0b0; stroke-width: 0.8; stroke-linecap: square"/>
     </g>
     <g id="text_3">
      <!-- 180° -->
      <g transform="translate(18.14125 109.379375) scale(0.1 -0.1)">
       <defs>
        <path id="DejaVuSans-31" d="M 794 531 
L 1825 531 
L 1825 4091 
L 703 3866 
L 703 4441 
L 1819 4666 
L 2450 4666 
L 2450 531 
L 3481 531 
L 3481 0 
L 794 0 
L 794 531 
z
" transform="scale(0.015625)"/>
        <path id="DejaVuSans-38" d="M 2034 2216 
Q 1584 2216 1326 1975 
Q 1069 1734 1069 1313 
Q 1069 891 1326 650 
Q 1584 409 2034 409 
Q 2484 409 2743 651 
Q 3003 894 3003 1313 
Q 3003 1734 2745 1975 
Q 2488 2216 2034 2216 
z
M 1403 2484 
Q 997 2584 770 2862 
Q 544 3141 544 3541 
Q 544 4100 942 4425 
Q 1341 4750 2034 4750 
Q 2731 4750 3128 4425 
Q 3525 4100 3525 3541 
Q 3525 3141 3298 2862 
Q 3072 2584 2669 2484 
Q 3125 2378 3379 2068 
Q 3634 1759 3634 1313 
Q 3634 634 3220 271 
Q 2806 -91 2034 -91 
Q 1263 -91 848 271 
Q 434 634 434 1313 
Q 434 1759 690 2068 
Q 947 2378 1403 2484 
z
M 1172 3481 
Q 1172 3119 1398 2916 
Q 1625 2713 2034 2713 
Q 2441 2713 2670 2916 
Q 2900 3119 2900 3481 
Q 2900 3844 2670 4047 
Q 2441 4250 2034 4250 
Q 1625 4250 1398 4047 
Q 1172 3844 1172 3481 
z
" transform="scale(0.015625)"/>
       </defs>
       <use xlink:href="#DejaVuSans-31"/>
       <use xlink:href="#DejaVuSans-38" x="63.623047"/>
       <use xlink:href="#DejaVuSans-30" x="127.246094"/>
       <use xlink:href="#DejaVuSans-b0" x="190.869141"/>
      </g>
     </g>
    </g>
   </g>
   <g id="matplotlib.axis_2"/>
   <g id="line2d_4">
    <path d="M 97.345 106.62 
L 97.345 106.62 
L 97.345 106.62 
L 97.345 106.62 
L 97.345 106.62 
L 97.345 106.62 
L 97.345 106.62 
L 97.345 106.62 
L 97.345 106.62 
L 97.345 106.62 
L 97.345 106.62 
L 97.345 106.62 
L 97.345 106.62 
L 97.345 106.62 
L 97.345 106.62 
L 97.345 106.62 
L 97.345 106.62 
L 97.345 106.62 
L 97.345 106.62 
L 97.345 106.62 
L 97.345 106.62 
L 97.345 106.62 
L 97.345 106.62 
L 97.345 106.62 
L 97.345 106.62 
L 97.345 106.62 
L 97.345 106.62 
L 97.345 106.62 
L 97.345 106.62 
L 97.345 106.62 
L 97.345 106.62 
L 97.345 106.62 
L 97.345 106.62 
L 97.345 106.62 
L 97.345 106.62 
L 97.345 106.62 
L 97.345 106.62 
L 97.345 106.62 
L 97.345 106.62 
L 97.345 106.62 
L 97.345 106.62 
L 97.345 106.62 
L 97.345 106.62 
L 97.345 106.62 
L 97.345 106.62 
" clip-path="url(#pc4247a03d6)" style="fill: none; stroke: #1f77b4; stroke-width: 1.5; stroke-linecap: square"/>
   </g>
   <g id="line2d_5">
    <path d="M 115.657068 106.300362 
L 115.672672 104.994557 
L 115.75856 103.658638 
L 115.580444 102.341389 
L 115.144495 101.085368 
L 114.466342 99.930581 
L 113.568182 98.913512 
L 112.571538 98.013211 
L 111.639616 97.142283 
L 110.502094 96.482684 
L 109.202446 96.062149 
L 107.789825 95.898088 
L 106.315151 95.998425 
L 104.831519 96.35855 
L 103.389858 96.963261 
L 102.056387 97.750685 
L 101.027629 98.313233 
L 100.049712 99.12417 
L 99.169684 100.159969 
L 98.429187 101.386749 
L 97.86221 102.762371 
L 97.495033 104.213973 
L 97.333046 105.250205 
L 97.249894 105.429673 
L 96.997621 104.332883 
L 96.528155 102.996715 
L 95.890239 101.793298 
L 95.120061 100.775381 
L 94.260382 99.977519 
L 93.358734 99.421854 
L 92.465504 99.119269 
L 91.63129 99.068857 
L 90.904836 99.258748 
L 90.330224 99.666174 
L 89.791619 100.127237 
L 88.36812 99.949865 
L 86.890332 99.947976 
L 85.424343 100.153732 
L 84.01534 100.570848 
L 82.708963 101.194082 
L 81.54827 102.008874 
L 80.572436 102.99225 
L 79.815017 104.113762 
L 79.302473 105.336766 
L 79.052974 106.62 
" clip-path="url(#pc4247a03d6)" style="fill: none; stroke: #ff7f0e; stroke-width: 1.5; stroke-linecap: square"/>
   </g>
   <g id="line2d_6">
    <path d="M 124.448614 106.146905 
L 124.435272 104.217421 
L 124.553477 102.244195 
L 124.279796 100.300246 
L 123.626512 98.447942 
L 122.614417 96.747075 
L 121.278273 95.250992 
L 119.90143 93.869995 
L 118.51485 92.583817 
L 116.824488 91.611387 
L 114.894832 90.993657 
L 112.798926 90.756102 
L 110.612114 90.910381 
L 108.413196 91.4493 
L 106.277469 92.350265 
L 104.306391 93.51499 
L 102.78321 94.353237 
L 101.336268 95.558613 
L 100.035044 97.096287 
L 98.94114 98.91561 
L 98.104614 100.954389 
L 97.564561 103.098971 
L 97.327657 104.632641 
L 97.20532 104.871798 
L 96.824622 103.193866 
L 96.127128 101.217874 
L 95.181027 99.440225 
L 94.039983 97.93816 
L 92.767409 96.76252 
L 91.433731 95.945806 
L 90.113545 95.503853 
L 88.881727 95.435081 
L 87.810358 95.72169 
L 86.96462 96.329813 
L 86.126839 96.977051 
L 84.05567 96.745564 
L 81.868455 96.743084 
L 79.69936 97.04826 
L 77.614127 97.665904 
L 75.680835 98.588593 
L 73.963204 99.794764 
L 72.519196 101.25041 
L 71.398465 102.910459 
L 70.640152 104.720678 
L 70.271139 106.62 
" clip-path="url(#pc4247a03d6)" style="fill: none; stroke: #2ca02c; stroke-width: 1.5; stroke-linecap: square"/>
   </g>
   <g id="line2d_7">
    <path d="M 127.695898 106.090223 
L 127.658419 103.931567 
L 127.78555 101.724397 
L 127.474308 99.550713 
L 126.737548 97.480586 
L 125.599621 95.580737 
L 124.099974 93.910602 
L 122.619052 92.333861 
L 121.061965 90.895011 
L 119.165018 89.80805 
L 117.000548 89.118731 
L 114.650382 88.855529 
L 112.199092 89.031237 
L 109.734812 89.637818 
L 107.341856 90.649893 
L 105.136218 91.952819 
L 103.430024 92.894242 
L 101.809778 94.246328 
L 100.353127 95.970158 
L 99.128959 98.00903 
L 98.193271 100.29314 
L 97.58989 102.692784 
L 97.325735 104.412491 
L 97.187858 104.653248 
L 96.759963 102.768159 
L 95.978034 100.556538 
L 94.918105 98.567884 
L 93.640316 96.888287 
L 92.215723 95.574509 
L 90.723206 94.662784 
L 89.246314 94.170751 
L 87.868879 94.096518 
L 86.671576 94.420037 
L 85.727315 95.103258 
L 84.755863 95.798583 
L 82.464533 95.563294 
L 80.015324 95.560441 
L 77.586587 95.902203 
L 75.251595 96.59376 
L 73.086594 97.626847 
L 71.163042 98.977386 
L 69.545845 100.607301 
L 68.290603 102.466132 
L 67.441153 104.493157 
L 67.027599 106.62 
" clip-path="url(#pc4247a03d6)" style="fill: none; stroke: #d62728; stroke-width: 1.5; stroke-linecap: square"/>
   </g>
   <g id="line2d_8">
    <path d="M 131.001463 106.032524 
L 130.928625 103.641539 
L 131.062526 101.197377 
L 130.711696 98.791119 
L 129.888279 96.500888 
L 128.621534 94.400056 
L 126.955092 92.554337 
L 125.395605 90.764416 
L 123.663038 89.170429 
L 121.554051 87.967341 
L 119.149011 87.205743 
L 116.538674 86.917142 
L 113.817097 87.115354 
L 111.081841 87.791504 
L 108.426389 88.917337 
L 105.982763 90.359173 
L 104.089917 91.405747 
L 102.293037 92.907026 
L 100.677974 94.820084 
L 99.320982 97.082155 
L 98.284109 99.61562 
L 97.616008 102.273935 
L 97.323769 104.187165 
L 97.170602 104.437277 
L 96.695174 102.341593 
L 95.827918 99.890665 
L 94.652853 97.687814 
L 93.236724 95.828105 
L 91.658343 94.374235 
L 90.00515 93.366163 
L 88.369828 92.823422 
L 86.845305 92.74378 
L 85.520982 93.104881 
L 84.477519 93.864322 
L 83.343378 94.584434 
L 80.848817 94.362761 
L 78.133227 94.359313 
L 75.439794 94.737692 
L 72.850692 95.504202 
L 70.449434 96.649191 
L 68.315762 98.146254 
L 66.521658 99.953198 
L 65.128794 102.014092 
L 64.185802 104.261627 
L 63.726092 106.62 
" clip-path="url(#pc4247a03d6)" style="fill: none; stroke: #9467bd; stroke-width: 1.5; stroke-linecap: square"/>
   </g>
   <g id="line2d_9">
    <path d="M 134.135064 105.977827 
L 134.020187 103.367355 
L 134.159236 100.699348 
L 133.769696 98.073616 
L 132.863068 95.575898 
L 131.474065 93.285554 
L 129.648288 91.274989 
L 128.035665 89.272124 
L 126.135292 87.531258 
L 123.823979 86.2184 
L 121.189731 85.388689 
L 118.331749 85.076499 
L 115.353166 85.296491 
L 112.360402 86.039034 
L 109.455635 87.273104 
L 106.786973 88.845226 
L 104.717086 89.991065 
L 102.752452 91.633807 
L 100.987048 93.725852 
L 99.503922 96.199123 
L 98.370866 98.968541 
L 97.641132 101.871033 
L 97.321884 103.971176 
L 97.154756 104.238946 
L 96.634819 101.944221 
L 95.687273 99.266804 
L 94.403739 96.861288 
L 92.857227 94.831217 
L 91.133816 93.244708 
L 89.329189 92.145557 
L 87.544535 91.554786 
L 85.881441 91.469954 
L 84.437438 91.866367 
L 83.300811 92.697838 
L 81.990512 93.421532 
L 79.320791 93.227384 
L 76.352736 93.223028 
L 73.408243 93.635693 
L 70.578139 94.472892 
L 67.952583 95.723551 
L 65.619289 97.359143 
L 63.656958 99.33359 
L 62.133033 101.585792 
L 61.100705 104.042207 
L 60.596327 106.62 
" clip-path="url(#pc4247a03d6)" style="fill: none; stroke: #8c564b; stroke-width: 1.5; stroke-linecap: square"/>
   </g>
   <g id="line2d_10">
    <path d="M 136.92582 105.929114 
L 136.766891 103.123755 
L 136.91037 100.256897 
L 136.483917 97.436774 
L 135.503272 94.754944 
L 134.003165 92.297418 
L 132.034686 90.14138 
L 130.393877 87.939147 
L 128.342795 86.067623 
L 125.850123 84.657291 
L 123.010695 83.767305 
L 119.931212 83.434605 
L 116.72299 83.67448 
L 113.50026 84.47668 
L 110.372946 85.807687 
L 107.503903 87.495586 
L 105.276192 88.729913 
L 103.161968 90.498874 
L 101.2626 92.7503 
L 99.667067 95.41164 
L 98.448286 98.391094 
L 97.663607 101.510617 
L 97.320216 103.780074 
L 97.140927 104.065864 
L 96.581493 101.593127 
L 95.562674 98.71412 
L 94.182853 96.128418 
L 92.520611 93.946971 
L 90.668469 92.242619 
L 88.729551 91.062768 
L 86.812486 90.429485 
L 85.026624 90.340242 
L 83.476622 90.768133 
L 82.257765 91.663854 
L 80.775047 92.376738 
L 77.962282 92.217964 
L 74.769447 92.212595 
L 71.60128 92.655519 
L 68.556497 93.555448 
L 65.730971 94.899948 
L 63.219615 96.658669 
L 61.107123 98.782084 
L 59.466081 101.204502 
L 58.353755 103.846836 
L 57.808757 106.62 
" clip-path="url(#pc4247a03d6)" style="fill: none; stroke: #e377c2; stroke-width: 1.5; stroke-linecap: square"/>
   </g>
   <g id="line2d_11">
    <path d="M 139.365757 105.886525 
L 139.168866 102.910729 
L 139.309755 99.871016 
L 138.849822 96.881658 
L 137.803595 94.039674 
L 136.205384 91.436997 
L 134.111438 89.154862 
L 132.462469 86.769877 
L 130.278636 84.784109 
L 127.626455 83.288657 
L 124.60676 82.346172 
L 121.332786 81.995849 
L 117.923095 82.253433 
L 114.498682 83.108187 
L 111.176247 84.524403 
L 108.1315 86.314116 
L 105.765585 87.626007 
L 103.520372 89.505595 
L 101.503773 91.89646 
L 99.80987 94.722345 
L 98.516103 97.88528 
L 97.683285 101.195035 
L 97.318782 103.615743 
L 97.129108 103.917948 
L 96.535186 101.288245 
L 95.454181 98.232876 
L 93.990364 95.489765 
L 92.227137 93.176054 
L 90.262799 91.36904 
L 88.206853 90.118914 
L 86.174446 89.448694 
L 84.281728 89.3558 
L 82.639536 89.811324 
L 81.349353 90.763336 
L 79.704637 91.456631 
L 76.729654 91.302079 
L 73.387319 91.33054 
L 70.023508 91.79967 
L 66.790422 92.753983 
L 63.790429 94.180544 
L 61.123144 96.046701 
L 58.879065 98.300176 
L 57.135284 100.871271 
L 55.952638 103.676062 
L 55.371653 106.62 
" clip-path="url(#pc4247a03d6)" style="fill: none; stroke: #7f7f7f; stroke-width: 1.5; stroke-linecap: square"/>
   </g>
   <g id="line2d_12">
    <path d="M 141.457073 105.850021 
L 141.252698 102.725919 
L 141.361922 99.540976 
L 140.873516 96.406835 
L 139.76916 93.428495 
L 138.086062 90.702203 
L 135.959436 88.277009 
L 134.241655 85.764193 
L 131.943291 83.680398 
L 129.153655 82.111976 
L 125.978739 81.124564 
L 122.537366 80.759313 
L 118.954387 81.032278 
L 115.356536 81.932363 
L 111.866331 83.421986 
L 108.670201 85.299998 
L 106.185599 86.678598 
L 103.828064 88.652859 
L 101.710702 91.163858 
L 99.932387 94.130973 
L 98.574291 97.451284 
L 97.700141 100.924733 
L 97.317583 103.478362 
L 97.119222 103.79421 
L 96.495714 101.028362 
L 95.361465 97.821614 
L 93.825749 94.943595 
L 91.976107 92.516633 
L 89.915794 90.621794 
L 87.759796 89.311646 
L 85.628822 88.609964 
L 83.644865 88.514133 
L 81.924022 88.993476 
L 80.57315 89.993877 
L 78.781794 90.66337 
L 75.652678 90.501849 
L 72.204476 90.575666 
L 68.672897 91.067041 
L 65.278286 92.067758 
L 62.128657 93.564486 
L 59.327506 95.522548 
L 56.970387 97.887347 
L 55.138258 100.585759 
L 53.894786 103.529702 
L 53.282806 106.62 
" clip-path="url(#pc4247a03d6)" style="fill: none; stroke: #bcbd22; stroke-width: 1.5; stroke-linecap: square"/>
   </g>
   <g id="line2d_13">
    <path d="M 143.395628 105.816183 
L 143.184692 102.554574 
L 143.261436 99.235486 
L 142.746554 95.967362 
L 141.587742 92.86302 
L 139.82692 90.022039 
L 137.694207 87.452942 
L 135.895154 84.829554 
L 133.490202 82.654754 
L 130.572743 81.018593 
L 127.253557 79.989468 
L 123.656632 79.610355 
L 119.912692 79.897547 
L 116.153751 80.839655 
L 112.507888 82.397089 
L 109.170831 84.357548 
L 106.576071 85.797824 
L 104.114273 87.859659 
L 101.90332 90.481922 
L 100.046571 93.579819 
L 98.62865 97.045849 
L 97.715948 100.671238 
L 97.316469 103.350678 
L 97.110404 103.683847 
L 96.459765 100.791675 
L 95.276432 97.444435 
L 93.674354 94.441287 
L 91.744896 91.909271 
L 89.595911 89.93295 
L 87.347448 88.567054 
L 85.125398 87.836104 
L 83.05697 87.737181 
L 81.263593 88.238591 
L 79.856549 89.283503 
L 77.921969 89.924279 
L 74.649394 89.756373 
L 71.110026 89.877203 
L 67.422848 90.388962 
L 63.878372 91.432461 
L 60.589738 92.993974 
L 57.664412 95.037084 
L 55.202231 97.504911 
L 53.287894 100.321215 
L 51.987433 103.394046 
L 51.346609 106.62 
" clip-path="url(#pc4247a03d6)" style="fill: none; stroke: #17becf; stroke-width: 1.5; stroke-linecap: square"/>
   </g>
   <g id="line2d_14">
    <path d="M 144.961122 105.788857 
L 144.744829 102.416209 
L 144.793089 98.989158 
L 144.256309 95.613125 
L 143.052904 92.407437 
L 141.228963 89.474252 
L 139.099621 86.785329 
L 137.234561 84.072455 
L 134.743122 81.824033 
L 131.722004 80.133106 
L 128.285868 79.0703 
L 124.562867 78.680078 
L 120.688515 78.978893 
L 116.799066 79.95515 
L 113.027118 81.567612 
L 109.575412 83.595912 
L 106.891503 85.086317 
L 104.345374 87.219188 
L 102.058748 89.931653 
L 100.138628 93.13547 
L 98.672415 96.719423 
L 97.728591 100.468492 
L 97.315605 103.251622 
L 97.103356 103.595642 
L 96.430629 100.59985 
L 95.207559 97.138933 
L 93.551818 94.034728 
L 91.55787 91.417979 
L 89.337286 89.376021 
L 87.014125 87.965162 
L 84.718734 87.210982 
L 82.582238 87.109783 
L 80.730549 87.629309 
L 79.278377 88.710354 
L 77.224879 89.325071 
L 73.835832 89.151868 
L 70.227093 89.313728 
L 66.414243 89.841852 
L 62.748705 90.919805 
L 59.347471 92.533437 
L 56.322129 94.645267 
L 53.775009 97.196216 
L 51.794168 100.107659 
L 50.447517 103.284523 
L 49.783265 106.62 
" clip-path="url(#pc4247a03d6)" style="fill: none; stroke: #1f77b4; stroke-width: 1.5; stroke-linecap: square"/>
   </g>
   <g id="line2d_15">
    <path d="M 146.151742 105.768075 
L 145.931378 102.310976 
L 145.956608 98.802035 
L 145.402713 95.344143 
L 144.165453 92.061498 
L 142.292476 89.05873 
L 140.173578 86.275168 
L 138.258088 83.493908 
L 135.700562 81.189225 
L 132.600231 79.456448 
L 129.074721 78.367907 
L 125.255354 77.969221 
L 121.281332 78.276938 
L 117.292113 79.279352 
L 113.423775 80.933948 
L 109.883556 83.015823 
L 107.131556 84.544837 
L 104.52108 86.732236 
L 102.176758 89.513853 
L 100.208408 92.798648 
L 98.705475 96.472842 
L 97.737989 100.317768 
L 97.315001 103.182402 
L 97.098041 103.529115 
L 96.408202 100.45219 
L 95.154692 96.90443 
L 93.457941 93.723258 
L 91.414792 91.042131 
L 89.139641 88.950409 
L 86.759629 87.505609 
L 84.408413 86.733959 
L 82.220337 86.631501 
L 80.324498 87.165184 
L 78.838303 88.274103 
L 76.694594 88.869247 
L 73.21631 88.691542 
L 69.556221 88.885587 
L 65.647815 89.426109 
L 61.890161 90.530188 
L 58.403234 92.183386 
L 55.301734 94.34741 
L 52.690015 96.961542 
L 50.658134 99.945242 
L 49.276579 103.201243 
L 48.59441 106.62 
" clip-path="url(#pc4247a03d6)" style="fill: none; stroke: #ff7f0e; stroke-width: 1.5; stroke-linecap: square"/>
   </g>
   <g id="line2d_16">
    <path d="M 146.965784 105.753866 
L 146.742699 102.239022 
L 146.751397 98.674213 
L 146.18532 95.160518 
L 144.924676 91.825422 
L 143.017366 88.775511 
L 140.914048 85.923423 
L 138.963936 83.094927 
L 136.360961 80.751363 
L 133.206091 78.989643 
L 129.619001 77.883281 
L 125.733186 77.478711 
L 121.690414 77.792542 
L 117.632327 78.813035 
L 113.697428 80.496784 
L 110.094824 82.618105 
L 107.295862 84.17422 
L 104.641091 86.399639 
L 102.257123 89.229334 
L 100.25576 92.570085 
L 98.727727 96.306878 
L 97.744082 100.220069 
L 97.314664 103.143831 
L 97.094419 103.483782 
L 96.392396 100.348127 
L 95.117717 96.74042 
L 93.392589 93.506428 
L 91.315511 90.781334 
L 89.002816 88.655767 
L 86.583795 87.188099 
L 84.194357 86.404914 
L 81.971098 86.302111 
L 80.045265 86.846014 
L 78.53615 87.974577 
L 76.333613 88.558953 
L 72.793626 88.377473 
L 69.097803 88.593031 
L 65.124274 89.142118 
L 61.303587 90.263994 
L 57.758011 91.944187 
L 54.604169 94.143788 
L 51.948299 96.801116 
L 49.881579 99.834219 
L 48.476092 103.14431 
L 47.781606 106.62 
" clip-path="url(#pc4247a03d6)" style="fill: none; stroke: #2ca02c; stroke-width: 1.5; stroke-linecap: square"/>
   </g>
   <g id="line2d_17">
    <path d="M 147.43461 105.745683 
L 147.209918 102.197585 
L 147.208709 98.600666 
L 146.634992 95.055011 
L 145.360231 91.68999 
L 143.432426 88.613345 
L 141.347247 85.717641 
L 139.377052 82.861414 
L 136.747599 80.495011 
L 133.560878 78.716286 
L 129.937761 77.599457 
L 126.013015 77.19146 
L 121.929931 77.50893 
L 117.831409 78.540162 
L 113.857407 80.241216 
L 110.216734 82.388606 
L 107.390245 83.961322 
L 104.709635 86.209677 
L 102.302662 89.06811 
L 100.282267 92.442137 
L 98.739912 96.21599 
L 97.747088 100.17185 
L 97.31457 103.133019 
L 97.092201 103.45602 
L 96.382416 100.282415 
L 95.094986 96.639593 
L 93.352983 93.37502 
L 91.255904 90.624755 
L 88.921199 88.480011 
L 86.479464 86.999704 
L 84.067902 86.210528 
L 81.824426 86.108271 
L 79.881528 86.65886 
L 78.359647 87.799607 
L 76.128376 88.382535 
L 72.552089 88.198003 
L 68.833616 88.42443 
L 64.822648 88.978504 
L 60.965649 90.110634 
L 57.386296 91.806384 
L 54.20232 94.026486 
L 51.520966 96.708688 
L 49.434283 99.770269 
L 48.015045 103.111519 
L 47.313502 106.62 
" clip-path="url(#pc4247a03d6)" style="fill: none; stroke: #d62728; stroke-width: 1.5; stroke-linecap: square"/>
   </g>
   <g id="patch_3">
    <path d="M 150.505 106.62 
C 150.505 92.526499 144.900407 78.995814 134.934796 69.030204 
C 124.969186 59.064593 111.438501 53.46 97.345 53.46 
C 83.251499 53.46 69.720814 59.064593 59.755204 69.030204 
C 49.789593 78.995814 44.185 92.526499 44.185 106.62 
" style="fill: none; stroke: #000000; stroke-width: 0.8; stroke-linejoin: miter; stroke-linecap: square"/>
   </g>
   <g id="patch_4">
    <path d="M 97.345 106.62 
L 150.505 106.62 
" style="fill: none; stroke: #000000; stroke-width: 0.8; stroke-linejoin: miter; stroke-linecap: square"/>
   </g>
   <g id="patch_5">
    <path d="M 97.345 106.62 
L 44.185 106.62 
" style="fill: none; stroke: #000000; stroke-width: 0.8; stroke-linejoin: miter; stroke-linecap: square"/>
   </g>
   <g id="text_4">
    <!-- X -->
    <g transform="translate(93.235 20.88) scale(0.12 -0.12)">
     <defs>
      <path id="DejaVuSans-58" d="M 403 4666 
L 1081 4666 
L 2241 2931 
L 3406 4666 
L 4084 4666 
L 2584 2425 
L 4184 0 
L 3506 0 
L 2194 1984 
L 872 0 
L 191 0 
L 1856 2491 
L 403 4666 
z
" transform="scale(0.015625)"/>
     </defs>
     <use xlink:href="#DejaVuSans-58"/>
    </g>
   </g>
  </g>
  <g id="axes_2">
   <g id="patch_6">
    <path d="M 322.205 106.62 
C 322.205 92.526499 316.600407 78.995814 306.634796 69.030204 
C 296.669186 59.064593 283.138501 53.46 269.045 53.46 
C 254.951499 53.46 241.420814 59.064593 231.455204 69.030204 
C 221.489593 78.995814 215.885 92.526499 215.885 106.62 
L 269.045 106.62 
C 269.045 106.62 269.045 106.62 269.045 106.62 
C 269.045 106.62 269.045 106.62 269.045 106.62 
C 269.045 106.62 269.045 106.62 269.045 106.62 
C 269.045 106.62 269.045 106.62 269.045 106.62 
z
" style="fill: #ffffff"/>
   </g>
   <g id="matplotlib.axis_3">
    <g id="xtick_4">
     <g id="line2d_18">
      <path d="M 269.045 106.62 
L 322.205 106.62 
" clip-path="url(#pe9432f19a2)" style="fill: none; stroke: #b0b0b0; stroke-width: 0.8; stroke-linecap: square"/>
     </g>
     <g id="text_5">
      <!-- 0° -->
      <g transform="translate(330.52375 109.379375) scale(0.1 -0.1)">
       <use xlink:href="#DejaVuSans-30"/>
       <use xlink:href="#DejaVuSans-b0" x="63.623047"/>
      </g>
     </g>
    </g>
    <g id="xtick_5">
     <g id="line2d_19">
      <path d="M 269.045 106.62 
L 269.045 53.46 
" clip-path="url(#pe9432f19a2)" style="fill: none; stroke: #b0b0b0; stroke-width: 0.8; stroke-linecap: square"/>
     </g>
     <g id="text_6">
      <!-- 90° -->
      <g transform="translate(260.1825 42.219375) scale(0.1 -0.1)">
       <use xlink:href="#DejaVuSans-39"/>
       <use xlink:href="#DejaVuSans-30" x="63.623047"/>
       <use xlink:href="#DejaVuSans-b0" x="127.246094"/>
      </g>
     </g>
    </g>
    <g id="xtick_6">
     <g id="line2d_20">
      <path d="M 269.045 106.62 
L 215.885 106.62 
" clip-path="url(#pe9432f19a2)" style="fill: none; stroke: #b0b0b0; stroke-width: 0.8; stroke-linecap: square"/>
     </g>
     <g id="text_7">
      <!-- 180° -->
      <g transform="translate(189.84125 109.379375) scale(0.1 -0.1)">
       <use xlink:href="#DejaVuSans-31"/>
       <use xlink:href="#DejaVuSans-38" x="63.623047"/>
       <use xlink:href="#DejaVuSans-30" x="127.246094"/>
       <use xlink:href="#DejaVuSans-b0" x="190.869141"/>
      </g>
     </g>
    </g>
   </g>
   <g id="matplotlib.axis_4"/>
   <g id="line2d_21">
    <path d="M 269.045 106.62 
L 269.045 106.62 
L 269.045 106.62 
L 269.045 106.62 
L 269.045 106.62 
L 269.045 106.62 
L 269.045 106.62 
L 269.045 106.62 
L 269.045 106.62 
L 269.045 106.62 
L 269.045 106.62 
L 269.045 106.62 
L 269.045 106.62 
L 269.045 106.62 
L 269.045 106.62 
L 269.045 106.62 
L 269.045 106.62 
L 269.045 106.62 
L 269.045 106.62 
L 269.045 106.62 
L 269.045 106.62 
L 269.045 106.62 
L 269.045 106.62 
L 269.045 106.62 
L 269.045 106.62 
L 269.045 106.62 
L 269.045 106.62 
L 269.045 106.62 
L 269.045 106.62 
L 269.045 106.62 
L 269.045 106.62 
L 269.045 106.62 
L 269.045 106.62 
L 269.045 106.62 
L 269.045 106.62 
L 269.045 106.62 
L 269.045 106.62 
L 269.045 106.62 
L 269.045 106.62 
L 269.045 106.62 
L 269.045 106.62 
L 269.045 106.62 
L 269.045 106.62 
L 269.045 106.62 
L 269.045 106.62 
" clip-path="url(#pe9432f19a2)" style="fill: none; stroke: #1f77b4; stroke-width: 1.5; stroke-linecap: square"/>
   </g>
   <g id="line2d_22">
    <path d="M 273.011307 106.550768 
L 273.626035 106.213718 
L 274.184802 105.793391 
L 274.678184 105.298277 
L 275.624971 104.574003 
L 277.109575 103.469119 
L 278.420001 102.166599 
L 279.508569 100.705475 
L 280.336482 99.133442 
L 280.875529 97.50478 
L 281.109309 95.877958 
L 281.033909 94.313041 
L 280.658005 92.869016 
L 280.002392 91.601175 
L 279.098962 90.558666 
L 277.98919 89.782316 
L 276.723016 89.300991 
L 275.354249 89.134568 
L 273.940958 89.286564 
L 272.540013 89.74996 
L 271.253979 90.144239 
L 270.091424 89.838859 
L 268.897098 89.672116 
L 267.695506 89.730037 
L 266.522524 90.012198 
L 265.413381 90.511196 
L 264.401311 91.212857 
L 263.516178 92.096519 
L 262.782852 93.13496 
L 262.220479 94.296712 
L 261.841132 95.546259 
L 261.649775 96.846595 
L 261.643094 98.159455 
L 261.810443 99.448303 
L 262.133409 100.678908 
L 262.289042 101.600087 
L 262.303472 102.31765 
L 262.490916 103.064788 
L 262.84773 103.807608 
L 263.351184 104.509171 
L 263.66544 105.049686 
L 264.09929 105.550289 
L 264.628588 105.988592 
L 265.222687 106.348147 
L 265.236987 106.62 
" clip-path="url(#pe9432f19a2)" style="fill: none; stroke: #ff7f0e; stroke-width: 1.5; stroke-linecap: square"/>
   </g>
   <g id="line2d_23">
    <path d="M 274.693993 106.521396 
L 275.559856 106.042211 
L 276.346398 105.445752 
L 277.040612 104.743977 
L 278.373259 103.719441 
L 280.477677 102.153179 
L 282.33499 100.306865 
L 283.877637 98.235863 
L 285.050662 96.007814 
L 285.814125 93.699676 
L 286.144833 91.394335 
L 286.037296 89.176921 
L 285.503867 87.13102 
L 284.574073 85.334968 
L 283.293163 83.858374 
L 281.719954 82.75905 
L 279.92499 82.07842 
L 277.985111 81.843406 
L 275.982136 82.060065 
L 273.996897 82.717745 
L 272.178898 83.245695 
L 270.524766 82.889501 
L 268.835863 82.655315 
L 267.136861 82.73817 
L 265.478353 83.137455 
L 263.910024 83.842739 
L 262.478751 84.834062 
L 261.226655 86.082246 
L 260.188928 87.549149 
L 259.392595 89.1903 
L 258.854808 90.955701 
L 258.58258 92.793042 
L 258.571356 94.64839 
L 258.806114 96.470078 
L 259.260969 98.209806 
L 259.460635 99.498482 
L 259.480429 100.516023 
L 259.745577 101.5756 
L 260.250911 102.629142 
L 260.967725 103.625567 
L 261.410259 104.39139 
L 262.02198 105.100986 
L 262.768801 105.7227 
L 263.607469 106.233268 
L 263.619068 106.62 
" clip-path="url(#pe9432f19a2)" style="fill: none; stroke: #2ca02c; stroke-width: 1.5; stroke-linecap: square"/>
   </g>
   <g id="line2d_24">
    <path d="M 275.271036 106.511324 
L 276.219954 105.983668 
L 277.081703 105.327497 
L 277.842213 104.555896 
L 279.306584 103.42923 
L 281.621149 101.706417 
L 283.663793 99.675644 
L 285.360228 97.39783 
L 286.650031 94.947389 
L 287.489305 92.408979 
L 287.852575 89.873765 
L 287.733837 87.435372 
L 287.146715 85.185719 
L 286.123716 83.21094 
L 284.714631 81.587561 
L 282.984171 80.379128 
L 281.009774 79.631514 
L 278.876302 79.373562 
L 276.673444 79.612588 
L 274.490237 80.336446 
L 272.493713 80.89764 
L 270.670371 80.554491 
L 268.815293 80.298226 
L 266.949229 80.389805 
L 265.127665 80.828547 
L 263.405094 81.603018 
L 261.832939 82.691343 
L 260.457394 84.061501 
L 259.317134 85.671811 
L 258.441817 87.473444 
L 257.850334 89.41163 
L 257.550378 91.428902 
L 257.537042 93.466146 
L 257.793836 95.466595 
L 258.292439 97.377273 
L 258.499745 98.784508 
L 258.521251 99.903889 
L 258.812673 101.069554 
L 259.368326 102.228615 
L 260.160211 103.326203 
L 260.645343 104.168108 
L 261.316316 104.948358 
L 262.135702 105.632187 
L 263.056043 106.194049 
L 263.063474 106.62 
" clip-path="url(#pe9432f19a2)" style="fill: none; stroke: #d62728; stroke-width: 1.5; stroke-linecap: square"/>
   </g>
   <g id="line2d_25">
    <path d="M 275.888746 106.500542 
L 276.922754 105.921339 
L 277.861329 105.202113 
L 278.689406 104.357118 
L 280.286254 103.124608 
L 282.821224 101.23754 
L 285.05816 99.013279 
L 286.915724 96.518587 
L 288.327779 93.834996 
L 289.246297 91.055247 
L 289.64343 88.279191 
L 289.512661 85.609359 
L 288.868966 83.146399 
L 287.747997 80.984607 
L 286.204332 79.207744 
L 284.308869 77.885346 
L 282.1462 77.068122 
L 279.809791 76.786494 
L 277.397419 77.04946 
L 275.006799 77.843058 
L 272.824794 78.428254 
L 270.821763 78.126669 
L 268.793912 77.848188 
L 266.754234 77.949298 
L 264.763246 78.42924 
L 262.880382 79.275546 
L 261.161737 80.464385 
L 259.657698 81.960804 
L 258.410561 83.719578 
L 257.452707 85.687372 
L 256.804864 87.80454 
L 256.475425 90.008262 
L 256.45917 92.234114 
L 256.738095 94.420027 
L 257.281404 96.508204 
L 257.488768 98.033317 
L 257.511769 99.259652 
L 257.830481 100.536771 
L 258.438677 101.806729 
L 259.309632 103.010874 
L 259.838203 103.932501 
L 260.569947 104.786925 
L 261.464028 105.536159 
L 262.468662 106.152273 
L 262.46778 106.62 
" clip-path="url(#pe9432f19a2)" style="fill: none; stroke: #9467bd; stroke-width: 1.5; stroke-linecap: square"/>
   </g>
   <g id="line2d_26">
    <path d="M 276.601074 106.488108 
L 277.72875 105.849856 
L 278.751575 105.058939 
L 279.653483 104.130915 
L 281.388575 102.781849 
L 284.171572 100.709951 
L 286.627061 98.268005 
L 288.665785 95.529366 
L 290.215196 92.583588 
L 291.222635 89.532512 
L 291.657609 86.485769 
L 291.513046 83.555905 
L 290.805469 80.853381 
L 289.574091 78.481659 
L 287.878887 76.53262 
L 285.797737 75.082512 
L 283.423192 74.187659 
L 280.858604 73.879817 
L 278.210678 74.170232 
L 275.586967 75.042653 
L 273.19801 75.644612 
L 270.990741 75.416836 
L 268.770056 75.114549 
L 266.53671 75.226818 
L 264.356755 75.752932 
L 262.295073 76.679287 
L 260.412919 77.979907 
L 258.7653 79.616596 
L 257.398564 81.540322 
L 256.348102 83.692746 
L 255.636724 86.008882 
L 255.273599 88.419949 
L 255.25321 90.855674 
L 255.555874 93.248079 
L 256.148092 95.534028 
L 256.346809 97.184801 
L 256.371029 98.531648 
L 256.72002 99.934411 
L 257.386944 101.329441 
L 258.345398 102.65341 
L 258.921305 103.664855 
L 259.719778 104.603041 
L 260.696283 105.426395 
L 261.794265 106.104308 
L 261.779745 106.62 
" clip-path="url(#pe9432f19a2)" style="fill: none; stroke: #8c564b; stroke-width: 1.5; stroke-linecap: square"/>
   </g>
   <g id="line2d_27">
    <path d="M 277.248706 106.476804 
L 278.458674 105.785121 
L 279.555336 104.929675 
L 280.521837 103.927172 
L 282.377684 102.474292 
L 285.383033 100.236625 
L 288.034379 97.599487 
L 290.235377 94.642155 
L 291.907738 91.461386 
L 292.994672 88.167187 
L 293.463332 84.877955 
L 293.306167 81.715216 
L 292.541102 78.798215 
L 291.210559 76.238622 
L 289.37937 74.13558 
L 287.131676 72.571334 
L 284.567101 71.607386 
L 281.79802 71.276324 
L 278.938999 71.591715 
L 276.106475 72.535045 
L 273.533282 73.143969 
L 271.141181 73.004267 
L 268.74883 72.682281 
L 266.343194 72.804812 
L 263.995143 73.37211 
L 261.774363 74.369571 
L 259.746657 75.769338 
L 257.971109 77.530361 
L 256.497675 79.600328 
L 255.364418 81.916472 
L 254.596032 84.409136 
L 254.202363 87.004221 
L 254.177686 89.626327 
L 254.500833 92.202204 
L 255.135952 94.664008 
L 255.320768 96.422417 
L 255.345896 97.877421 
L 255.721865 99.39297 
L 256.441295 100.900294 
L 257.478876 102.33217 
L 258.096274 103.424025 
L 258.953503 104.437303 
L 260.002783 105.327246 
L 261.183349 106.060858 
L 261.153489 106.62 
" clip-path="url(#pe9432f19a2)" style="fill: none; stroke: #e377c2; stroke-width: 1.5; stroke-linecap: square"/>
   </g>
   <g id="line2d_28">
    <path d="M 277.81866 106.466855 
L 279.098809 105.728349 
L 280.258296 104.816621 
L 281.279669 103.74936 
L 283.238388 102.206662 
L 286.436972 99.824844 
L 289.258466 97.01801 
L 291.600369 93.870594 
L 293.37942 90.485621 
L 294.535246 86.980201 
L 295.033156 83.480187 
L 294.864989 80.115039 
L 294.049512 77.012103 
L 292.632522 74.289599 
L 290.683017 72.052986 
L 288.290498 70.389819 
L 285.560887 69.365743 
L 282.6139 69.015197 
L 279.571458 69.352587 
L 276.557553 70.357741 
L 273.825209 70.966625 
L 271.271048 70.921639 
L 268.730507 70.582633 
L 266.17622 70.715003 
L 263.683144 71.317932 
L 261.325076 72.376662 
L 259.17171 73.861741 
L 257.285622 75.729677 
L 255.719881 77.925411 
L 254.514856 80.382387 
L 253.69689 83.026982 
L 253.276402 85.780487 
L 253.247539 88.563148 
L 253.58785 91.297154 
L 254.259509 93.910633 
L 254.427342 95.75857 
L 254.453135 97.307674 
L 254.852447 98.92136 
L 255.617418 100.52641 
L 256.723009 102.051953 
L 257.377214 103.214129 
L 258.28466 104.292639 
L 259.396292 105.240537 
L 260.647738 106.022764 
L 260.601793 106.62 
" clip-path="url(#pe9432f19a2)" style="fill: none; stroke: #7f7f7f; stroke-width: 1.5; stroke-linecap: square"/>
   </g>
   <g id="line2d_29">
    <path d="M 278.315301 106.458186 
L 279.654789 105.67904 
L 280.867254 104.718685 
L 281.934827 103.59564 
L 283.980758 101.975827 
L 287.345732 99.469785 
L 290.313683 96.516751 
L 292.776817 93.205608 
L 294.647594 89.644787 
L 295.862786 85.957354 
L 296.385841 82.275758 
L 296.207882 78.736522 
L 295.349004 75.473372 
L 293.856995 72.611267 
L 291.805478 70.259841 
L 289.288155 68.511703 
L 286.416479 67.435817 
L 283.316138 67.069016 
L 280.115752 67.425591 
L 276.94571 68.484152 
L 274.076991 69.088698 
L 271.382148 69.13997 
L 268.714834 68.786669 
L 266.033436 68.92795 
L 263.416355 69.561407 
L 260.940871 70.672442 
L 258.679983 72.230256 
L 256.699229 74.189301 
L 255.054342 76.492227 
L 253.787665 79.069271 
L 252.926972 81.843468 
L 252.483159 84.73215 
L 252.450311 87.651898 
L 252.804879 90.520986 
L 253.507294 93.264041 
L 253.656632 95.185906 
L 253.682933 96.816142 
L 254.102294 98.514445 
L 254.906438 100.203759 
L 256.06908 101.809526 
L 256.756544 103.032953 
L 257.706562 104.167601 
L 258.871162 105.16546 
L 260.182873 105.989701 
L 260.120611 106.62 
" clip-path="url(#pe9432f19a2)" style="fill: none; stroke: #bcbd22; stroke-width: 1.5; stroke-linecap: square"/>
   </g>
   <g id="line2d_30">
    <path d="M 278.911841 106.447774 
L 280.319531 105.620086 
L 281.592547 104.60204 
L 282.712634 103.413141 
L 284.848721 101.70594 
L 288.408292 99.054636 
L 291.547591 95.930608 
L 294.152512 92.427998 
L 296.130689 88.661456 
L 297.415454 84.761051 
L 297.967499 80.867452 
L 297.777962 77.124789 
L 296.868203 73.674485 
L 295.288648 70.648962 
L 293.117375 68.164067 
L 290.454057 66.316861 
L 287.416243 65.180686 
L 284.136574 64.795263 
L 280.751559 65.174609 
L 277.399062 66.295872 
L 274.371688 66.890684 
L 271.517577 66.968145 
L 268.696622 66.699848 
L 265.867506 66.851209 
L 263.106462 67.521094 
L 260.494575 68.692802 
L 258.108704 70.334827 
L 256.017792 72.399255 
L 254.280666 74.826176 
L 252.941948 77.54213 
L 252.031097 80.466334 
L 251.559556 83.511532 
L 251.521372 86.5901 
L 251.891734 89.615775 
L 252.629015 92.509087 
L 252.750952 94.512954 
L 252.777402 96.238244 
L 253.219793 98.03574 
L 254.069367 99.823886 
L 255.298351 101.523799 
L 256.021029 102.818253 
L 257.019571 104.019012 
L 258.244964 105.075933 
L 259.626075 105.9501 
L 259.541881 106.62 
" clip-path="url(#pe9432f19a2)" style="fill: none; stroke: #17becf; stroke-width: 1.5; stroke-linecap: square"/>
   </g>
   <g id="line2d_31">
    <path d="M 279.393117 106.439373 
L 280.855281 105.572571 
L 282.176643 104.508103 
L 283.338704 103.266246 
L 285.551485 101.48742 
L 289.268101 98.718703 
L 292.545808 95.456426 
L 295.265224 91.799038 
L 297.330455 87.865978 
L 298.671006 83.793669 
L 299.246361 79.728756 
L 299.047348 75.821728 
L 298.096356 72.220227 
L 296.446114 69.062473 
L 294.17777 66.470074 
L 291.396398 64.542878 
L 288.224273 63.358044 
L 284.799624 62.957688 
L 281.265373 63.355524 
L 277.765418 64.52751 
L 274.610211 65.111654 
L 271.628278 65.192863 
L 268.681967 65.020575 
L 265.733986 65.180106 
L 262.857115 65.879411 
L 260.135459 67.099867 
L 257.648978 68.809517 
L 255.469347 70.958565 
L 253.657886 73.485069 
L 252.261058 76.312621 
L 251.309696 79.357401 
L 250.815669 82.528424 
L 250.773036 85.734735 
L 251.155962 88.886396 
L 251.921176 91.900639 
L 252.019321 93.969327 
L 252.045978 95.77146 
L 252.507072 97.64913 
L 253.393454 99.517149 
L 254.676162 101.293139 
L 255.42902 102.645443 
L 256.466663 103.899423 
L 257.740902 105.003868 
L 259.177743 105.918214 
L 259.074834 106.62 
" clip-path="url(#pe9432f19a2)" style="fill: none; stroke: #1f77b4; stroke-width: 1.5; stroke-linecap: square"/>
   </g>
   <g id="line2d_32">
    <path d="M 279.749264 106.433156 
L 281.251715 105.537412 
L 282.608849 104.438593 
L 283.802043 103.157532 
L 286.076731 101.324099 
L 289.910286 98.467798 
L 293.291041 95.102419 
L 296.095994 91.329445 
L 298.225687 87.272415 
L 299.607693 83.071968 
L 300.2003 78.87937 
L 299.99411 74.849849 
L 299.012281 71.135678 
L 297.309261 67.879394 
L 294.968466 65.206926 
L 292.099039 63.220137 
L 288.826752 61.999055 
L 285.293988 61.58761 
L 281.64846 61.99926 
L 278.038564 63.209066 
L 274.788212 63.784024 
L 271.710876 63.868282 
L 268.671082 63.773287 
L 265.63482 63.938965 
L 262.671876 64.659816 
L 259.868752 65.916833 
L 257.307537 67.676661 
L 255.061993 69.888499 
L 253.195284 72.48889 
L 251.755255 75.399274 
L 250.773775 78.533587 
L 250.263007 81.798036 
L 250.217058 85.099239 
L 250.60932 88.344504 
L 251.395304 91.448608 
L 251.475034 93.564903 
L 251.502003 95.424303 
L 251.977195 97.361702 
L 252.891164 99.289204 
L 254.214076 101.121833 
L 254.991502 102.51773 
L 256.058274 103.811092 
L 257.368826 104.950673 
L 258.847016 105.894692 
L 258.729201 106.62 
" clip-path="url(#pe9432f19a2)" style="fill: none; stroke: #ff7f0e; stroke-width: 1.5; stroke-linecap: square"/>
   </g>
   <g id="line2d_33">
    <path d="M 279.977925 106.429165 
L 281.506643 105.514803 
L 282.887161 104.393834 
L 284.100816 103.08743 
L 286.422396 101.216616 
L 290.332387 98.30288 
L 293.780363 94.869976 
L 296.641058 91.021348 
L 298.812745 86.88318 
L 300.221712 82.598877 
L 300.825457 78.322731 
L 300.614437 74.213066 
L 299.61231 70.425181 
L 297.874653 67.104436 
L 295.486354 64.379593 
L 292.559234 62.353808 
L 289.221342 61.108993 
L 285.617767 60.690291 
L 281.899363 61.110971 
L 278.217469 62.345509 
L 274.904769 62.914682 
L 271.76494 63.001274 
L 268.663983 62.95974 
L 265.570142 63.129474 
L 262.551064 63.864396 
L 259.69482 65.14532 
L 257.084875 66.9379 
L 254.796364 69.190728 
L 252.893644 71.839334 
L 251.425481 74.803789 
L 250.424432 77.996579 
L 249.902818 81.322016 
L 249.854822 84.685195 
L 250.253312 87.991589 
L 251.053003 91.154372 
L 251.120757 93.301663 
L 251.148192 95.198505 
L 251.632863 97.174922 
L 252.565122 99.141243 
L 253.914578 101.010802 
L 254.710607 102.435736 
L 255.7966 103.754494 
L 257.130974 104.916668 
L 258.636145 105.879694 
L 258.507378 106.62 
" clip-path="url(#pe9432f19a2)" style="fill: none; stroke: #2ca02c; stroke-width: 1.5; stroke-linecap: square"/>
   </g>
   <g id="line2d_34">
    <path d="M 280.086003 106.427279 
L 281.628253 105.504018 
L 283.020957 104.372316 
L 284.24549 103.053485 
L 286.60251 101.160611 
L 290.551455 98.217289 
L 294.033657 94.749654 
L 296.922609 90.862202 
L 299.115584 86.68239 
L 300.538155 82.355063 
L 301.147413 78.036062 
L 300.933743 73.885289 
L 299.92106 70.05959 
L 298.165515 66.705764 
L 295.752741 63.954037 
L 292.795941 61.9082 
L 289.42432 60.651143 
L 285.784338 60.228656 
L 282.028466 60.653903 
L 278.309547 61.901063 
L 274.964522 62.469013 
L 271.792626 62.557273 
L 268.660352 62.543703 
L 265.537061 62.715435 
L 262.489267 63.457529 
L 259.605852 64.750684 
L 256.971003 66.560087 
L 254.660571 68.834016 
L 252.739514 71.507426 
L 251.257094 74.499726 
L 250.246233 77.722653 
L 249.7193 81.079481 
L 249.670555 84.474574 
L 250.072577 87.812424 
L 250.879667 91.005375 
L 250.942618 93.169299 
L 250.970779 95.085283 
L 251.460776 97.081575 
L 252.402846 99.0676 
L 253.766333 100.955844 
L 254.576016 102.396448 
L 255.672361 103.727623 
L 257.01929 104.9007 
L 258.538397 105.872742 
L 258.402791 106.62 
" clip-path="url(#pe9432f19a2)" style="fill: none; stroke: #d62728; stroke-width: 1.5; stroke-linecap: square"/>
   </g>
   <g id="patch_7">
    <path d="M 322.205 106.62 
C 322.205 92.526499 316.600407 78.995814 306.634796 69.030204 
C 296.669186 59.064593 283.138501 53.46 269.045 53.46 
C 254.951499 53.46 241.420814 59.064593 231.455204 69.030204 
C 221.489593 78.995814 215.885 92.526499 215.885 106.62 
" style="fill: none; stroke: #000000; stroke-width: 0.8; stroke-linejoin: miter; stroke-linecap: square"/>
   </g>
   <g id="patch_8">
    <path d="M 269.045 106.62 
L 322.205 106.62 
" style="fill: none; stroke: #000000; stroke-width: 0.8; stroke-linejoin: miter; stroke-linecap: square"/>
   </g>
   <g id="patch_9">
    <path d="M 269.045 106.62 
L 215.885 106.62 
" style="fill: none; stroke: #000000; stroke-width: 0.8; stroke-linejoin: miter; stroke-linecap: square"/>
   </g>
   <g id="text_8">
    <!-- Y -->
    <g transform="translate(265.380312 20.88) scale(0.12 -0.12)">
     <defs>
      <path id="DejaVuSans-59" d="M -13 4666 
L 666 4666 
L 1959 2747 
L 3244 4666 
L 3922 4666 
L 2272 2222 
L 2272 0 
L 1638 0 
L 1638 2222 
L -13 4666 
z
" transform="scale(0.015625)"/>
     </defs>
     <use xlink:href="#DejaVuSans-59"/>
    </g>
   </g>
  </g>
 </g>
 <defs>
  <clipPath id="pc4247a03d6">
   <path d="M 150.505 106.62 
C 150.505 92.526499 144.900407 78.995814 134.934796 69.030204 
C 124.969186 59.064593 111.438501 53.46 97.345 53.46 
C 83.251499 53.46 69.720814 59.064593 59.755204 69.030204 
C 49.789593 78.995814 44.185 92.526499 44.185 106.62 
L 97.345 106.62 
C 97.345 106.62 97.345 106.62 97.345 106.62 
C 97.345 106.62 97.345 106.62 97.345 106.62 
C 97.345 106.62 97.345 106.62 97.345 106.62 
C 97.345 106.62 97.345 106.62 97.345 106.62 
z
"/>
  </clipPath>
  <clipPath id="pe9432f19a2">
   <path d="M 322.205 106.62 
C 322.205 92.526499 316.600407 78.995814 306.634796 69.030204 
C 296.669186 59.064593 283.138501 53.46 269.045 53.46 
C 254.951499 53.46 241.420814 59.064593 231.455204 69.030204 
C 221.489593 78.995814 215.885 92.526499 215.885 106.62 
L 269.045 106.62 
C 269.045 106.62 269.045 106.62 269.045 106.62 
C 269.045 106.62 269.045 106.62 269.045 106.62 
C 269.045 106.62 269.045 106.62 269.045 106.62 
C 269.045 106.62 269.045 106.62 269.045 106.62 
z
"/>
  </clipPath>
 </defs>
</svg>
