<?xml version="1.0" encoding="utf-8" standalone="no"?>
<!DOCTYPE svg PUBLIC "-//W3C//DTD SVG 1.1//EN"
  "http://www.w3.org/Graphics/SVG/1.1/DTD/svg11.dtd">
<svg xmlns:xlink="http://www.w3.org/1999/xlink" width="360pt" height="144pt" viewBox="0 0 360 144" xmlns="http://www.w3.org/2000/svg" version="1.1">
 <metadata>
  <rdf:RDF xmlns:dc="http://purl.org/dc/elements/1.1/" xmlns:cc="http://creativecommons.org/ns#" xmlns:rdf="http://www.w3.org/1999/02/22-rdf-syntax-ns#">
   <cc:Work>
    <dc:type rdf:resource="http://purl.org/dc/dcmitype/StillImage"/>
    <dc:date>2023-06-20T07:12:01.477805</dc:date>
    <dc:format>image/svg+xml</dc:format>
    <dc:creator>
     <cc:Agent>
      <dc:title>Matplotlib v3.7.1, https://matplotlib.org/</dc:title>
     </cc:Agent>
    </dc:creator>
   </cc:Work>
  </rdf:RDF>
 </metadata>
 <defs>
  <style type="text/css">*{stroke-linejoin: round; stroke-linecap: butt}</style>
 </defs>
 <g id="figure_1">
  <g id="patch_1">
   <path d="M 0 144 
L 360 144 
L 360 0 
L 0 0 
z
" style="fill: #ffffff"/>
  </g>
  <g id="axes_1">
   <g id="patch_2">
    <path d="M 150.505 106.62 
C 150.505 92.526499 144.900407 78.995814 134.934796 69.030204 
C 124.969186 59.064593 111.438501 53.46 97.345 53.46 
C 83.251499 53.46 69.720814 59.064593 59.755204 69.030204 
C 49.789593 78.995814 44.185 92.526499 44.185 106.62 
L 97.345 106.62 
C 97.345 106.62 97.345 106.62 97.345 106.62 
C 97.345 106.62 97.345 106.62 97.345 106.62 
C 97.345 106.62 97.345 106.62 97.345 106.62 
C 97.345 106.62 97.345 106.62 97.345 106.62 
z
" style="fill: #ffffff"/>
   </g>
   <g id="matplotlib.axis_1">
    <g id="xtick_1">
     <g id="line2d_1">
      <path d="M 97.345 106.62 
L 150.505 106.62 
" clip-path="url(#p398a68c073)" style="fill: none; stroke: #b0b0b0; stroke-width: 0.8; stroke-linecap: square"/>
     </g>
     <g id="text_1">
      <!-- 0° -->
      <g transform="translate(158.82375 109.379375) scale(0.1 -0.1)">
       <defs>
        <path id="DejaVuSans-30" d="M 2034 4250 
Q 1547 4250 1301 3770 
Q 1056 3291 1056 2328 
Q 1056 1369 1301 889 
Q 1547 409 2034 409 
Q 2525 409 2770 889 
Q 3016 1369 3016 2328 
Q 3016 3291 2770 3770 
Q 2525 4250 2034 4250 
z
M 2034 4750 
Q 2819 4750 3233 4129 
Q 3647 3509 3647 2328 
Q 3647 1150 3233 529 
Q 2819 -91 2034 -91 
Q 1250 -91 836 529 
Q 422 1150 422 2328 
Q 422 3509 836 4129 
Q 1250 4750 2034 4750 
z
" transform="scale(0.015625)"/>
        <path id="DejaVuSans-b0" d="M 1600 4347 
Q 1350 4347 1178 4173 
Q 1006 4000 1006 3750 
Q 1006 3503 1178 3333 
Q 1350 3163 1600 3163 
Q 1850 3163 2022 3333 
Q 2194 3503 2194 3750 
Q 2194 3997 2020 4172 
Q 1847 4347 1600 4347 
z
M 1600 4750 
Q 1800 4750 1984 4673 
Q 2169 4597 2303 4453 
Q 2447 4313 2519 4134 
Q 2591 3956 2591 3750 
Q 2591 3338 2302 3052 
Q 2013 2766 1594 2766 
Q 1172 2766 890 3047 
Q 609 3328 609 3750 
Q 609 4169 896 4459 
Q 1184 4750 1600 4750 
z
" transform="scale(0.015625)"/>
       </defs>
       <use xlink:href="#DejaVuSans-30"/>
       <use xlink:href="#DejaVuSans-b0" x="63.623047"/>
      </g>
     </g>
    </g>
    <g id="xtick_2">
     <g id="line2d_2">
      <path d="M 97.345 106.62 
L 97.345 53.46 
" clip-path="url(#p398a68c073)" style="fill: none; stroke: #b0b0b0; stroke-width: 0.8; stroke-linecap: square"/>
     </g>
     <g id="text_2">
      <!-- 90° -->
      <g transform="translate(88.4825 42.219375) scale(0.1 -0.1)">
       <defs>
        <path id="DejaVuSans-39" d="M 703 97 
L 703 672 
Q 941 559 1184 500 
Q 1428 441 1663 441 
Q 2288 441 2617 861 
Q 2947 1281 2994 2138 
Q 2813 1869 2534 1725 
Q 2256 1581 1919 1581 
Q 1219 1581 811 2004 
Q 403 2428 403 3163 
Q 403 3881 828 4315 
Q 1253 4750 1959 4750 
Q 2769 4750 3195 4129 
Q 3622 3509 3622 2328 
Q 3622 1225 3098 567 
Q 2575 -91 1691 -91 
Q 1453 -91 1209 -44 
Q 966 3 703 97 
z
M 1959 2075 
Q 2384 2075 2632 2365 
Q 2881 2656 2881 3163 
Q 2881 3666 2632 3958 
Q 2384 4250 1959 4250 
Q 1534 4250 1286 3958 
Q 1038 3666 1038 3163 
Q 1038 2656 1286 2365 
Q 1534 2075 1959 2075 
z
" transform="scale(0.015625)"/>
       </defs>
       <use xlink:href="#DejaVuSans-39"/>
       <use xlink:href="#DejaVuSans-30" x="63.623047"/>
       <use xlink:href="#DejaVuSans-b0" x="127.246094"/>
      </g>
     </g>
    </g>
    <g id="xtick_3">
     <g id="line2d_3">
      <path d="M 97.345 106.62 
L 44.185 106.62 
" clip-path="url(#p398a68c073)" style="fill: none; stroke: #b0b0b0; stroke-width: 0.8; stroke-linecap: square"/>
     </g>
     <g id="text_3">
      <!-- 180° -->
      <g transform="translate(18.14125 109.379375) scale(0.1 -0.1)">
       <defs>
        <path id="DejaVuSans-31" d="M 794 531 
L 1825 531 
L 1825 4091 
L 703 3866 
L 703 4441 
L 1819 4666 
L 2450 4666 
L 2450 531 
L 3481 531 
L 3481 0 
L 794 0 
L 794 531 
z
" transform="scale(0.015625)"/>
        <path id="DejaVuSans-38" d="M 2034 2216 
Q 1584 2216 1326 1975 
Q 1069 1734 1069 1313 
Q 1069 891 1326 650 
Q 1584 409 2034 409 
Q 2484 409 2743 651 
Q 3003 894 3003 1313 
Q 3003 1734 2745 1975 
Q 2488 2216 2034 2216 
z
M 1403 2484 
Q 997 2584 770 2862 
Q 544 3141 544 3541 
Q 544 4100 942 4425 
Q 1341 4750 2034 4750 
Q 2731 4750 3128 4425 
Q 3525 4100 3525 3541 
Q 3525 3141 3298 2862 
Q 3072 2584 2669 2484 
Q 3125 2378 3379 2068 
Q 3634 1759 3634 1313 
Q 3634 634 3220 271 
Q 2806 -91 2034 -91 
Q 1263 -91 848 271 
Q 434 634 434 1313 
Q 434 1759 690 2068 
Q 947 2378 1403 2484 
z
M 1172 3481 
Q 1172 3119 1398 2916 
Q 1625 2713 2034 2713 
Q 2441 2713 2670 2916 
Q 2900 3119 2900 3481 
Q 2900 3844 2670 4047 
Q 2441 4250 2034 4250 
Q 1625 4250 1398 4047 
Q 1172 3844 1172 3481 
z
" transform="scale(0.015625)"/>
       </defs>
       <use xlink:href="#DejaVuSans-31"/>
       <use xlink:href="#DejaVuSans-38" x="63.623047"/>
       <use xlink:href="#DejaVuSans-30" x="127.246094"/>
       <use xlink:href="#DejaVuSans-b0" x="190.869141"/>
      </g>
     </g>
    </g>
   </g>
   <g id="matplotlib.axis_2"/>
   <g id="line2d_4">
    <path d="M 97.345 106.62 
L 97.345 106.62 
L 97.345 106.62 
L 97.345 106.62 
L 97.345 106.62 
L 97.345 106.62 
L 97.345 106.62 
L 97.345 106.62 
L 97.345 106.62 
L 97.345 106.62 
L 97.345 106.62 
L 97.345 106.62 
L 97.345 106.62 
L 97.345 106.62 
L 97.345 106.62 
L 97.345 106.62 
L 97.345 106.62 
L 97.345 106.62 
L 97.345 106.62 
L 97.345 106.62 
L 97.345 106.62 
L 97.345 106.62 
L 97.345 106.62 
L 97.345 106.62 
L 97.345 106.62 
L 97.345 106.62 
L 97.345 106.62 
L 97.345 106.62 
L 97.345 106.62 
L 97.345 106.62 
L 97.345 106.62 
L 97.345 106.62 
L 97.345 106.62 
L 97.345 106.62 
L 97.345 106.62 
L 97.345 106.62 
L 97.345 106.62 
L 97.345 106.62 
L 97.345 106.62 
L 97.345 106.62 
L 97.345 106.62 
L 97.345 106.62 
L 97.345 106.62 
L 97.345 106.62 
L 97.345 106.62 
" clip-path="url(#p398a68c073)" style="fill: none; stroke: #1f77b4; stroke-width: 1.5; stroke-linecap: square"/>
   </g>
   <g id="line2d_5">
    <path d="M 115.083962 106.310365 
L 114.495391 105.098968 
L 113.664354 103.995439 
L 112.620184 103.03596 
L 111.399783 102.24976 
L 110.045169 101.657962 
L 108.602198 101.2725 
L 107.74902 100.739135 
L 106.814164 100.341688 
L 105.892516 100.034285 
L 105.411255 99.43782 
L 104.773736 98.99419 
L 104.009378 98.728695 
L 103.152958 98.659283 
L 102.242408 98.796327 
L 101.379418 99.025097 
L 100.518809 99.46096 
L 99.696322 100.103554 
L 98.951557 100.932215 
L 98.319235 101.917475 
L 97.827527 103.021055 
L 97.496162 104.195867 
L 97.331345 105.055313 
L 97.202241 104.833255 
L 96.981357 104.225802 
L 96.580547 103.229108 
L 96.043734 102.302572 
L 95.396646 101.501933 
L 94.673157 100.866397 
L 93.912398 100.421624 
L 93.035764 99.99587 
L 91.87687 99.393412 
L 90.491819 98.78666 
L 89.022883 98.370192 
L 87.511711 98.167465 
L 86.003743 98.193051 
L 84.546277 98.452033 
L 83.186768 98.939977 
L 81.970307 99.642788 
L 80.938153 100.537602 
L 80.125747 101.593634 
L 79.56113 102.773514 
L 79.263766 104.03495 
L 79.243697 105.332586 
L 79.50111 106.62 
" clip-path="url(#p398a68c073)" style="fill: none; stroke: #ff7f0e; stroke-width: 1.5; stroke-linecap: square"/>
   </g>
   <g id="line2d_6">
    <path d="M 123.652978 106.160793 
L 122.785504 104.363735 
L 121.558455 102.72587 
L 120.016162 101.30063 
L 118.212038 100.131536 
L 116.208695 99.249832 
L 114.073827 98.673316 
L 112.797902 97.885259 
L 111.408647 97.295422 
L 110.03981 96.838866 
L 109.321585 95.956067 
L 108.372029 95.300438 
L 107.234846 94.909412 
L 105.961382 94.809897 
L 104.608538 95.016404 
L 103.315914 95.37959 
L 102.038731 96.032529 
L 100.819204 96.991604 
L 99.715781 98.22659 
L 98.779956 99.693628 
L 98.053428 101.336165 
L 97.565455 103.084644 
L 97.325251 104.357026 
L 97.135715 104.000631 
L 96.809639 103.095222 
L 96.218694 101.624034 
L 95.426335 100.254127 
L 94.470782 99.069811 
L 93.402386 98.129894 
L 92.279328 97.47273 
L 90.974136 96.826748 
L 89.226586 95.890842 
L 87.176311 94.99696 
L 85.001747 94.383994 
L 82.764373 94.08673 
L 80.531516 94.126995 
L 78.373075 94.51238 
L 76.35922 95.236427 
L 74.556616 96.27837 
L 73.026488 97.604565 
L 71.821214 99.169509 
L 70.982339 100.918002 
L 70.53876 102.787548 
L 70.505458 104.711099 
L 70.882862 106.62 
" clip-path="url(#p398a68c073)" style="fill: none; stroke: #2ca02c; stroke-width: 1.5; stroke-linecap: square"/>
   </g>
   <g id="line2d_7">
    <path d="M 126.84149 106.105137 
L 125.873236 104.089891 
L 124.502413 102.252407 
L 122.777326 100.652773 
L 120.759177 99.33952 
L 118.517034 98.347949 
L 116.126605 97.698186 
L 114.683934 96.81918 
L 113.124313 96.157889 
L 111.593912 95.641457 
L 110.785642 94.652474 
L 109.718091 93.918667 
L 108.44039 93.481925 
L 107.010508 93.371905 
L 105.491698 93.605543 
L 104.034484 94.026862 
L 102.601782 94.762478 
L 101.234256 95.841329 
L 99.997537 97.229073 
L 98.949234 98.876543 
L 98.135976 100.720477 
L 97.590501 102.682984 
L 97.323099 104.110373 
L 97.111823 103.701604 
L 96.747443 102.685729 
L 96.087169 101.040627 
L 95.201302 99.507494 
L 94.132732 98.181798 
L 92.938055 97.129994 
L 91.682457 96.394938 
L 90.214778 95.659468 
L 88.244151 94.592471 
L 85.948234 93.593241 
L 83.512827 92.908012 
L 81.006772 92.575925 
L 78.505405 92.621524 
L 76.087096 93.0535 
L 73.830033 93.864489 
L 71.809344 95.031627 
L 70.093395 96.517199 
L 68.740878 98.270347 
L 67.798387 100.229343 
L 67.298237 102.324255 
L 67.257382 104.480087 
L 67.676428 106.62 
" clip-path="url(#p398a68c073)" style="fill: none; stroke: #d62728; stroke-width: 1.5; stroke-linecap: square"/>
   </g>
   <g id="line2d_8">
    <path d="M 130.110553 106.048075 
L 129.042461 103.808819 
L 127.526969 101.765983 
L 125.618411 99.986165 
L 123.383143 98.523616 
L 120.898397 97.417535 
L 118.248015 96.690454 
L 116.620822 95.724356 
L 114.886316 94.989633 
L 113.199403 94.404454 
L 112.29719 93.306594 
L 111.107037 92.492874 
L 109.684064 92.009288 
L 108.092171 91.889315 
L 106.402084 92.15119 
L 104.772201 92.63809 
L 103.179308 93.459774 
L 101.65973 94.662173 
L 100.286228 96.207006 
L 99.122628 98.039589 
L 98.2206 100.089301 
L 97.616285 102.269501 
L 97.320899 103.858341 
L 97.08798 103.403194 
L 96.68495 102.274278 
L 95.954643 100.452783 
L 94.974226 98.754087 
L 93.79141 97.28519 
L 92.469177 96.120301 
L 91.079971 95.307007 
L 89.442219 94.471894 
L 87.247686 93.275561 
L 84.701834 92.168577 
L 82.00067 91.408993 
L 79.220557 91.040524 
L 76.444818 91.090436 
L 73.760356 91.568607 
L 71.254008 92.467145 
L 69.009048 93.760821 
L 67.100988 95.407845 
L 65.595405 97.352172 
L 64.544101 99.525471 
L 63.983228 101.850312 
L 63.931713 104.243556 
L 64.390447 106.62 
" clip-path="url(#p398a68c073)" style="fill: none; stroke: #9467bd; stroke-width: 1.5; stroke-linecap: square"/>
   </g>
   <g id="line2d_9">
    <path d="M 133.229523 105.993633 
L 132.069472 103.54036 
L 130.419209 101.300838 
L 128.337941 99.348077 
L 125.89804 97.741626 
L 123.184075 96.524506 
L 120.286808 95.721967 
L 118.470157 94.679021 
L 116.567661 93.874856 
L 114.741387 93.216382 
L 113.748304 92.014524 
L 112.440154 91.124391 
L 110.877003 90.596726 
L 109.129436 90.467581 
L 107.274927 90.756813 
L 105.477427 91.310482 
L 103.730937 92.215486 
L 102.065899 93.536516 
L 100.561752 95.231552 
L 99.2882 97.240388 
L 98.301553 99.485515 
L 97.641089 101.871716 
L 97.318789 103.616471 
L 97.065765 103.125154 
L 96.626167 101.887253 
L 95.829781 99.89893 
L 94.760121 98.043716 
L 93.469539 96.439678 
L 92.027127 95.16838 
L 90.512252 94.281856 
L 88.70961 93.345732 
L 86.307294 92.032754 
L 83.524633 90.82301 
L 80.571419 89.992162 
L 77.531086 89.588282 
L 74.494333 89.641158 
L 71.55617 90.161926 
L 68.811604 91.142282 
L 66.35165 92.554863 
L 64.259444 94.354419 
L 62.606104 96.479583 
L 61.4487 98.855964 
L 60.827105 101.399086 
L 60.762283 104.018137 
L 61.255495 106.62 
" clip-path="url(#p398a68c073)" style="fill: none; stroke: #8c564b; stroke-width: 1.5; stroke-linecap: square"/>
   </g>
   <g id="line2d_10">
    <path d="M 136.025126 105.944836 
L 134.785269 103.299501 
L 133.016952 100.883056 
L 130.782923 98.774407 
L 128.162155 97.037615 
L 125.244078 95.71965 
L 122.126913 94.847864 
L 120.126373 93.742846 
L 118.073566 92.8764 
L 116.131391 92.145408 
L 115.05559 90.850519 
L 113.64021 89.892499 
L 111.950461 89.325641 
L 110.062505 89.188663 
L 108.05961 89.503272 
L 106.109784 90.120052 
L 104.225045 91.100945 
L 102.429353 92.529241 
L 100.808067 94.359508 
L 99.436101 96.526486 
L 98.373837 98.946375 
L 97.663263 101.516133 
L 97.316922 103.402591 
L 97.046495 102.88398 
L 96.574268 101.545555 
L 95.719322 99.408965 
L 94.570461 97.41445 
L 93.184239 95.690233 
L 91.635292 94.324596 
L 90.009171 93.373425 
L 88.057288 92.342987 
L 85.471212 90.927802 
L 82.477846 89.626509 
L 79.300169 88.731957 
L 76.02743 88.295763 
L 72.757538 88.350658 
L 69.592502 88.90874 
L 66.634674 89.961423 
L 63.981459 91.479243 
L 61.722826 93.414035 
L 59.935861 95.700129 
L 58.681912 98.257534 
L 58.003751 100.995435 
L 57.924603 103.816314 
L 58.446157 106.62 
" clip-path="url(#p398a68c073)" style="fill: none; stroke: #e377c2; stroke-width: 1.5; stroke-linecap: square"/>
   </g>
   <g id="line2d_11">
    <path d="M 138.485523 105.901889 
L 137.176913 103.087391 
L 135.306819 100.514788 
L 132.94073 98.268118 
L 130.161919 96.415802 
L 127.065439 95.008032 
L 123.755663 94.07416 
L 121.581983 92.920064 
L 119.396237 91.999434 
L 117.359918 91.198848 
L 116.210353 89.82232 
L 114.699925 88.804671 
L 112.898035 88.203617 
L 110.885485 88.060641 
L 108.751739 88.397587 
L 106.666077 89.072816 
L 104.659254 90.121516 
L 102.748383 91.645083 
L 101.024046 93.594865 
L 99.56564 95.901218 
L 98.437088 98.47462 
L 97.682661 101.205051 
L 97.31532 103.219036 
L 97.030263 102.680827 
L 96.529387 101.250061 
L 95.623485 98.983859 
L 94.405555 96.867312 
L 92.935896 95.037871 
L 91.294063 93.589786 
L 89.571148 92.582471 
L 87.487482 91.467085 
L 84.740517 89.962128 
L 81.563153 88.580995 
L 78.18905 87.630492 
L 74.713122 87.166005 
L 71.238796 87.22218 
L 67.87458 87.812387 
L 64.728583 88.927479 
L 61.905525 90.537161 
L 59.499648 92.589852 
L 57.593688 95.01644 
L 56.253062 97.732196 
L 55.523802 100.64088 
L 55.430362 103.638917 
L 55.97476 106.62 
" clip-path="url(#p398a68c073)" style="fill: none; stroke: #7f7f7f; stroke-width: 1.5; stroke-linecap: square"/>
   </g>
   <g id="line2d_12">
    <path d="M 140.607507 105.86485 
L 139.241763 102.904264 
L 137.284585 100.196714 
L 134.806294 97.830397 
L 131.892152 95.877797 
L 128.643406 94.39151 
L 125.168225 93.403151 
L 122.834292 92.212196 
L 120.53435 91.244834 
L 118.423292 90.379537 
L 117.209641 88.932555 
L 115.616496 87.863785 
L 113.716908 87.233988 
L 111.596812 87.085656 
L 109.349316 87.442949 
L 107.145482 88.170323 
L 105.033109 89.278225 
L 103.022772 90.884642 
L 101.20958 92.938009 
L 99.676745 95.364927 
L 98.491262 98.07056 
L 97.699253 100.938967 
L 97.313986 103.066107 
L 97.016978 102.514548 
L 96.491412 101.000036 
L 95.542038 98.622586 
L 94.265011 96.401006 
L 92.723924 94.481047 
L 91.002609 92.962162 
L 89.196926 91.906725 
L 86.999837 90.71748 
L 84.113792 89.133858 
L 80.778858 87.684528 
L 77.236367 86.686087 
L 73.585822 86.196997 
L 69.935827 86.254029 
L 66.399999 86.87133 
L 63.092353 88.039919 
L 60.121901 89.727732 
L 57.589165 91.881592 
L 55.579656 94.428536 
L 54.163073 97.280151 
L 53.388028 100.335531 
L 53.280712 103.486028 
L 53.843753 106.62 
" clip-path="url(#p398a68c073)" style="fill: none; stroke: #bcbd22; stroke-width: 1.5; stroke-linecap: square"/>
   </g>
   <g id="line2d_13">
    <path d="M 142.584648 105.830339 
L 141.167013 102.733518 
L 139.130701 99.899812 
L 136.547775 97.421791 
L 133.509383 95.374931 
L 130.118582 93.81515 
L 126.489533 92.775491 
L 123.998969 91.553864 
L 121.592204 90.543448 
L 119.417659 89.613394 
L 118.143577 88.10098 
L 116.472682 86.984885 
L 114.482087 86.327938 
L 112.260965 86.175329 
L 109.907426 86.551361 
L 107.592589 87.328631 
L 105.381594 88.49216 
L 103.278452 90.17605 
L 101.382443 92.326012 
L 99.780329 94.864936 
L 98.541854 97.693218 
L 97.714837 100.68906 
L 97.312743 102.923697 
L 97.005013 102.364802 
L 96.456381 100.7694 
L 95.466727 98.288529 
L 94.134909 95.969346 
L 92.527606 93.965346 
L 90.732675 92.380881 
L 88.850403 91.280996 
L 86.547629 90.022348 
L 83.534721 88.368569 
L 80.053714 86.855672 
L 76.355203 85.812579 
L 72.542499 85.300173 
L 68.729079 85.357373 
L 65.033536 85.999272 
L 61.574652 87.216653 
L 58.466699 88.976582 
L 55.814288 91.223604 
L 53.708045 93.882205 
L 52.219783 96.859836 
L 51.40085 100.051427 
L 51.279126 103.343669 
L 51.857699 106.62 
" clip-path="url(#p398a68c073)" style="fill: none; stroke: #17becf; stroke-width: 1.5; stroke-linecap: square"/>
   </g>
   <g id="line2d_14">
    <path d="M 144.18918 105.802332 
L 142.729535 102.594941 
L 140.62959 99.658753 
L 137.96346 97.089626 
L 134.823532 94.966305 
L 131.318717 93.346249 
L 127.565404 92.264421 
L 124.941644 91.021018 
L 122.44835 89.9758 
L 120.225493 88.990971 
L 118.901975 87.425704 
L 117.167895 86.271229 
L 115.102999 85.592715 
L 112.799657 85.436968 
L 110.359956 85.828439 
L 107.954482 86.647358 
L 105.663368 87.856574 
L 103.484932 89.603813 
L 101.521828 91.832539 
L 99.863689 94.462569 
L 98.58243 97.390582 
L 97.727257 100.489871 
L 97.311787 102.814178 
L 96.995803 102.249526 
L 96.428562 100.586242 
L 95.406581 98.021737 
L 94.030595 95.623247 
L 92.369841 93.550919 
L 90.515474 91.913156 
L 88.571413 90.777214 
L 86.183515 89.462635 
L 83.065479 87.748427 
L 79.466585 86.18457 
L 75.641821 85.105395 
L 71.698111 84.574351 
L 67.752428 84.631687 
L 63.927447 85.293381 
L 60.34615 86.550262 
L 57.126726 88.368487 
L 54.377271 90.690868 
L 52.191494 93.439518 
L 50.64473 96.519166 
L 49.790072 99.821136 
L 49.656423 103.228258 
L 50.246818 106.62 
" clip-path="url(#p398a68c073)" style="fill: none; stroke: #1f77b4; stroke-width: 1.5; stroke-linecap: square"/>
   </g>
   <g id="line2d_15">
    <path d="M 145.414411 105.780945 
L 143.92374 102.48903 
L 141.775374 99.474482 
L 139.045168 96.835824 
L 135.829252 94.653583 
L 132.236571 92.987637 
L 128.388694 91.873334 
L 125.660222 90.614842 
L 123.101209 89.542937 
L 120.842569 88.515525 
L 119.481009 86.910132 
L 117.698602 85.726443 
L 115.57651 85.032029 
L 113.210505 84.873836 
L 110.704603 85.277861 
L 108.229672 86.129305 
L 105.877356 87.37389 
L 103.641477 89.169964 
L 101.627254 91.459294 
L 99.92651 94.159336 
L 98.612804 97.164033 
L 97.736422 100.342896 
L 97.311134 102.739393 
L 96.989376 102.169092 
L 96.408094 100.451477 
L 95.36178 97.823012 
L 93.952302 95.363481 
L 92.250893 93.238457 
L 90.351304 91.559628 
L 88.360228 90.395868 
L 85.908351 89.039654 
L 82.705383 87.27253 
L 79.016825 85.670485 
L 75.096059 84.564375 
L 71.052598 84.019479 
L 67.00646 84.077407 
L 63.083026 84.754483 
L 59.408268 86.041516 
L 56.103763 87.904254 
L 53.28025 90.284177 
L 51.034378 93.101752 
L 49.442718 96.259182 
L 48.560079 99.645286 
L 48.416635 103.140081 
L 49.016216 106.62 
" clip-path="url(#p398a68c073)" style="fill: none; stroke: #ff7f0e; stroke-width: 1.5; stroke-linecap: square"/>
   </g>
   <g id="line2d_16">
    <path d="M 146.256014 105.766255 
L 144.743568 102.416321 
L 142.56183 99.348 
L 139.788464 96.661423 
L 136.519953 94.438814 
L 132.867886 92.740979 
L 128.95463 91.604498 
L 126.153516 90.336007 
L 123.549361 89.2458 
L 121.265594 88.189592 
L 119.87798 86.55667 
L 118.061822 85.353587 
L 115.900301 84.648628 
L 113.491115 84.489215 
L 110.939709 84.902276 
L 108.417036 85.776587 
L 106.022698 87.046047 
L 103.747497 88.876141 
L 101.698332 91.207654 
L 99.968547 93.956432 
L 98.632826 97.014698 
L 97.742257 100.249326 
L 97.310796 102.700607 
L 96.985729 102.12345 
L 96.395077 100.365779 
L 95.332466 97.692983 
L 93.900236 95.190733 
L 92.170992 93.028567 
L 90.240479 91.320976 
L 88.217175 90.137552 
L 85.723031 88.754782 
L 82.454067 86.940394 
L 78.704137 85.313075 
L 74.717768 84.189371 
L 70.606206 83.635767 
L 66.491396 83.694696 
L 62.500722 84.382865 
L 58.762564 85.691258 
L 55.39986 87.584815 
L 52.52623 90.004645 
L 50.23894 92.869561 
L 48.616657 96.080513 
L 47.715406 99.524524 
L 47.565725 103.079562 
L 48.171685 106.62 
" clip-path="url(#p398a68c073)" style="fill: none; stroke: #2ca02c; stroke-width: 1.5; stroke-linecap: square"/>
   </g>
   <g id="line2d_17">
    <path d="M 146.742731 105.757759 
L 145.217483 102.37429 
L 143.016429 99.27489 
L 140.218231 96.560586 
L 136.919197 94.314672 
L 133.232998 92.598327 
L 129.28248 91.448759 
L 126.439312 90.174462 
L 123.809191 89.073526 
L 121.509125 88.001955 
L 120.105978 86.353661 
L 118.270006 85.13988 
L 116.085718 84.429075 
L 113.651228 84.269756 
L 111.073662 84.688283 
L 108.52311 85.5769 
L 106.104598 86.861309 
L 103.806825 88.71172 
L 101.737674 91.068368 
L 99.991332 93.846447 
L 98.643246 96.936984 
L 97.744974 100.205751 
L 97.310743 102.694549 
L 96.984453 102.107471 
L 96.388826 100.324617 
L 95.317333 97.62586 
L 93.872187 95.097669 
L 92.126981 92.912956 
L 90.178565 91.187651 
L 88.136697 89.99223 
L 85.620074 88.596517 
L 82.302121 86.739585 
L 78.51677 85.09891 
L 74.49272 83.966279 
L 70.34216 83.408797 
L 66.188127 83.469357 
L 62.15917 84.164891 
L 58.384996 85.486449 
L 54.989385 87.398537 
L 52.087435 89.841973 
L 49.776753 92.734646 
L 48.137534 95.976883 
L 47.226054 99.454562 
L 47.073214 103.044533 
L 47.683028 106.62 
" clip-path="url(#p398a68c073)" style="fill: none; stroke: #d62728; stroke-width: 1.5; stroke-linecap: square"/>
   </g>
   <g id="patch_3">
    <path d="M 150.505 106.62 
C 150.505 92.526499 144.900407 78.995814 134.934796 69.030204 
C 124.969186 59.064593 111.438501 53.46 97.345 53.46 
C 83.251499 53.46 69.720814 59.064593 59.755204 69.030204 
C 49.789593 78.995814 44.185 92.526499 44.185 106.62 
" style="fill: none; stroke: #000000; stroke-width: 0.8; stroke-linejoin: miter; stroke-linecap: square"/>
   </g>
   <g id="patch_4">
    <path d="M 97.345 106.62 
L 150.505 106.62 
" style="fill: none; stroke: #000000; stroke-width: 0.8; stroke-linejoin: miter; stroke-linecap: square"/>
   </g>
   <g id="patch_5">
    <path d="M 97.345 106.62 
L 44.185 106.62 
" style="fill: none; stroke: #000000; stroke-width: 0.8; stroke-linejoin: miter; stroke-linecap: square"/>
   </g>
   <g id="text_4">
    <!-- X -->
    <g transform="translate(93.235 20.88) scale(0.12 -0.12)">
     <defs>
      <path id="DejaVuSans-58" d="M 403 4666 
L 1081 4666 
L 2241 2931 
L 3406 4666 
L 4084 4666 
L 2584 2425 
L 4184 0 
L 3506 0 
L 2194 1984 
L 872 0 
L 191 0 
L 1856 2491 
L 403 4666 
z
" transform="scale(0.015625)"/>
     </defs>
     <use xlink:href="#DejaVuSans-58"/>
    </g>
   </g>
  </g>
  <g id="axes_2">
   <g id="patch_6">
    <path d="M 322.205 106.62 
C 322.205 92.526499 316.600407 78.995814 306.634796 69.030204 
C 296.669186 59.064593 283.138501 53.46 269.045 53.46 
C 254.951499 53.46 241.420814 59.064593 231.455204 69.030204 
C 221.489593 78.995814 215.885 92.526499 215.885 106.62 
L 269.045 106.62 
C 269.045 106.62 269.045 106.62 269.045 106.62 
C 269.045 106.62 269.045 106.62 269.045 106.62 
C 269.045 106.62 269.045 106.62 269.045 106.62 
C 269.045 106.62 269.045 106.62 269.045 106.62 
z
" style="fill: #ffffff"/>
   </g>
   <g id="matplotlib.axis_3">
    <g id="xtick_4">
     <g id="line2d_18">
      <path d="M 269.045 106.62 
L 322.205 106.62 
" clip-path="url(#p9be13bc43b)" style="fill: none; stroke: #b0b0b0; stroke-width: 0.8; stroke-linecap: square"/>
     </g>
     <g id="text_5">
      <!-- 0° -->
      <g transform="translate(330.52375 109.379375) scale(0.1 -0.1)">
       <use xlink:href="#DejaVuSans-30"/>
       <use xlink:href="#DejaVuSans-b0" x="63.623047"/>
      </g>
     </g>
    </g>
    <g id="xtick_5">
     <g id="line2d_19">
      <path d="M 269.045 106.62 
L 269.045 53.46 
" clip-path="url(#p9be13bc43b)" style="fill: none; stroke: #b0b0b0; stroke-width: 0.8; stroke-linecap: square"/>
     </g>
     <g id="text_6">
      <!-- 90° -->
      <g transform="translate(260.1825 42.219375) scale(0.1 -0.1)">
       <use xlink:href="#DejaVuSans-39"/>
       <use xlink:href="#DejaVuSans-30" x="63.623047"/>
       <use xlink:href="#DejaVuSans-b0" x="127.246094"/>
      </g>
     </g>
    </g>
    <g id="xtick_6">
     <g id="line2d_20">
      <path d="M 269.045 106.62 
L 215.885 106.62 
" clip-path="url(#p9be13bc43b)" style="fill: none; stroke: #b0b0b0; stroke-width: 0.8; stroke-linecap: square"/>
     </g>
     <g id="text_7">
      <!-- 180° -->
      <g transform="translate(189.84125 109.379375) scale(0.1 -0.1)">
       <use xlink:href="#DejaVuSans-31"/>
       <use xlink:href="#DejaVuSans-38" x="63.623047"/>
       <use xlink:href="#DejaVuSans-30" x="127.246094"/>
       <use xlink:href="#DejaVuSans-b0" x="190.869141"/>
      </g>
     </g>
    </g>
   </g>
   <g id="matplotlib.axis_4"/>
   <g id="line2d_21">
    <path d="M 269.045 106.62 
L 269.045 106.62 
L 269.045 106.62 
L 269.045 106.62 
L 269.045 106.62 
L 269.045 106.62 
L 269.045 106.62 
L 269.045 106.62 
L 269.045 106.62 
L 269.045 106.62 
L 269.045 106.62 
L 269.045 106.62 
L 269.045 106.62 
L 269.045 106.62 
L 269.045 106.62 
L 269.045 106.62 
L 269.045 106.62 
L 269.045 106.62 
L 269.045 106.62 
L 269.045 106.62 
L 269.045 106.62 
L 269.045 106.62 
L 269.045 106.62 
L 269.045 106.62 
L 269.045 106.62 
L 269.045 106.62 
L 269.045 106.62 
L 269.045 106.62 
L 269.045 106.62 
L 269.045 106.62 
L 269.045 106.62 
L 269.045 106.62 
L 269.045 106.62 
L 269.045 106.62 
L 269.045 106.62 
L 269.045 106.62 
L 269.045 106.62 
L 269.045 106.62 
L 269.045 106.62 
L 269.045 106.62 
L 269.045 106.62 
L 269.045 106.62 
L 269.045 106.62 
L 269.045 106.62 
L 269.045 106.62 
" clip-path="url(#p9be13bc43b)" style="fill: none; stroke: #1f77b4; stroke-width: 1.5; stroke-linecap: square"/>
   </g>
   <g id="line2d_22">
    <path d="M 270.99382 106.585983 
L 271.334804 106.416922 
L 272.154568 106.119903 
L 273.2749 105.627532 
L 274.314753 104.981406 
L 275.240978 104.199191 
L 276.024305 103.304625 
L 276.640975 102.326381 
L 277.073352 101.296985 
L 277.310619 100.251482 
L 277.349176 99.225975 
L 277.192852 98.255996 
L 276.85243 97.375206 
L 276.345001 96.614203 
L 275.693775 95.998495 
L 274.92612 95.54863 
L 274.082776 95.25648 
L 273.364659 94.648512 
L 272.647519 93.865799 
L 271.983392 92.436709 
L 271.118054 91.158044 
L 270.076461 90.078827 
L 268.893327 89.240001 
L 267.611063 88.673173 
L 266.277602 88.399652 
L 264.944118 88.429682 
L 263.662691 88.762215 
L 262.483832 89.384683 
L 261.454261 90.273945 
L 260.51059 91.209104 
L 259.715749 92.279133 
L 259.139227 93.528697 
L 258.803019 94.913186 
L 258.719142 96.383861 
L 258.889686 97.890658 
L 259.30595 99.383546 
L 259.811761 100.727475 
L 260.427796 101.945665 
L 261.266709 103.090122 
L 262.299785 104.119393 
L 263.490017 104.998479 
L 264.794668 105.700693 
L 266.166094 106.208407 
L 267.001961 106.474694 
L 267.104572 106.62 
" clip-path="url(#p9be13bc43b)" style="fill: none; stroke: #ff7f0e; stroke-width: 1.5; stroke-linecap: square"/>
   </g>
   <g id="line2d_23">
    <path d="M 271.820317 106.571557 
L 272.309342 106.330492 
L 273.462071 105.909624 
L 275.052082 105.210549 
L 276.527842 104.293261 
L 277.84235 103.182818 
L 278.954239 101.912821 
L 279.829884 100.523852 
L 280.444322 99.061941 
L 280.782216 97.576676 
L 280.838457 96.119124 
L 280.61852 94.73945 
L 280.137176 93.48573 
L 279.418783 92.401102 
L 278.496107 91.521734 
L 277.40761 90.877157 
L 276.197413 90.486575 
L 275.172609 89.637966 
L 274.152596 88.53729 
L 273.212531 86.503789 
L 271.98614 84.68339 
L 270.508776 83.145941 
L 268.829706 81.949714 
L 267.009142 81.139665 
L 265.11521 80.746545 
L 263.220602 80.784666 
L 261.399383 81.252861 
L 259.723403 82.133403 
L 258.259146 83.393516 
L 256.921442 84.728047 
L 255.791838 86.247322 
L 254.972846 88.022478 
L 254.494761 89.988751 
L 254.375626 92.078085 
L 254.617916 94.218713 
L 255.209265 96.339566 
L 255.930445 98.250473 
L 256.804637 99.980311 
L 257.995622 101.605666 
L 259.462506 103.067548 
L 261.152936 104.316276 
L 263.006137 105.31385 
L 264.954445 106.035179 
L 266.130265 106.412696 
L 266.280605 106.62 
" clip-path="url(#p9be13bc43b)" style="fill: none; stroke: #2ca02c; stroke-width: 1.5; stroke-linecap: square"/>
   </g>
   <g id="line2d_24">
    <path d="M 272.103415 106.566615 
L 272.645353 106.300692 
L 273.908959 105.837753 
L 275.658996 105.068148 
L 277.283261 104.058369 
L 278.730055 102.835986 
L 279.953957 101.437925 
L 280.918021 99.908783 
L 281.594815 98.299134 
L 281.967469 96.663459 
L 282.030483 95.057746 
L 281.789559 93.537345 
L 281.260966 92.155048 
L 280.47161 90.958038 
L 279.457014 89.986673 
L 278.259781 89.272921 
L 276.927959 88.838708 
L 275.787682 87.933354 
L 274.663652 86.72797 
L 273.630516 84.486222 
L 272.28171 82.478868 
L 270.656126 80.782937 
L 268.808002 79.462664 
L 266.803633 78.567563 
L 264.718071 78.131811 
L 262.631365 78.170981 
L 260.625133 78.684003 
L 258.77856 79.651427 
L 257.164935 81.037221 
L 255.693702 82.511073 
L 254.449725 84.184235 
L 253.547545 86.138825 
L 253.021057 88.304273 
L 252.889904 90.605272 
L 253.156782 92.962746 
L 253.808067 95.298427 
L 254.603572 97.403681 
L 255.565835 99.308332 
L 256.877041 101.098041 
L 258.492101 102.707796 
L 260.353558 104.082935 
L 262.394402 105.181538 
L 264.540128 105.975944 
L 265.829425 106.3913 
L 265.998004 106.62 
" clip-path="url(#p9be13bc43b)" style="fill: none; stroke: #d62728; stroke-width: 1.5; stroke-linecap: square"/>
   </g>
   <g id="line2d_25">
    <path d="M 272.406271 106.561329 
L 273.005081 106.268789 
L 274.381358 105.76178 
L 276.299842 104.917785 
L 278.080406 103.810502 
L 279.666443 102.470134 
L 281.008319 100.937072 
L 282.065627 99.2601 
L 282.808354 97.494524 
L 283.218029 95.699924 
L 283.288845 93.937303 
L 283.026493 92.267596 
L 282.448869 90.748449 
L 281.585654 89.431065 
L 280.474869 88.360635 
L 279.163706 87.571258 
L 277.704064 87.088079 
L 276.434141 86.141759 
L 275.19993 84.829355 
L 274.069793 82.365883 
L 272.592713 80.159245 
L 270.811322 78.294107 
L 268.785123 76.841035 
L 266.586846 75.854304 
L 264.298889 75.371947 
L 262.009073 75.410675 
L 259.807036 75.969668 
L 257.779755 77.0277 
L 256.00775 78.545315 
L 254.397349 80.1702 
L 253.032651 82.005918 
L 252.042461 84.149731 
L 251.464925 86.52558 
L 251.321111 89.050111 
L 251.613968 91.636568 
L 252.328542 94.199089 
L 253.203115 96.509929 
L 254.258122 98.598973 
L 255.696052 100.562095 
L 257.467324 102.327888 
L 259.509264 103.836482 
L 261.7482 105.04177 
L 264.102405 105.913364 
L 265.505927 106.368291 
L 265.695351 106.62 
" clip-path="url(#p9be13bc43b)" style="fill: none; stroke: #9467bd; stroke-width: 1.5; stroke-linecap: square"/>
   </g>
   <g id="line2d_26">
    <path d="M 272.75534 106.555236 
L 273.418808 106.232096 
L 274.916739 105.675677 
L 277.025282 104.747574 
L 278.982166 103.530106 
L 280.725314 102.056426 
L 282.200381 100.370808 
L 283.363082 98.526715 
L 284.180515 96.584744 
L 284.632678 94.609961 
L 284.712707 92.669499 
L 284.426838 90.830101 
L 283.795061 89.154421 
L 282.848904 87.699583 
L 281.630532 86.514448 
L 280.190968 85.637409 
L 278.587471 85.09541 
L 277.162491 84.123214 
L 275.803329 82.693105 
L 274.564736 79.97685 
L 272.943531 77.542655 
L 270.986548 75.484068 
L 268.759272 73.878849 
L 266.341738 72.78659 
L 263.824686 72.249832 
L 261.304786 72.286661 
L 258.880754 72.896386 
L 256.648446 74.055901 
L 254.696621 75.721901 
L 252.931064 77.522475 
L 251.429551 79.541642 
L 250.339969 81.899746 
L 249.70471 84.513615 
L 249.546574 87.290992 
L 249.868792 90.136443 
L 250.654903 92.955517 
L 251.619505 95.499291 
L 252.77914 97.796711 
L 254.360157 99.95585 
L 256.307823 101.898034 
L 258.553759 103.557567 
L 261.016666 104.883546 
L 263.606658 105.842488 
L 265.131758 106.34168 
L 265.3462 106.62 
" clip-path="url(#p9be13bc43b)" style="fill: none; stroke: #8c564b; stroke-width: 1.5; stroke-linecap: square"/>
   </g>
   <g id="line2d_27">
    <path d="M 273.072309 106.549703 
L 273.795219 106.198713 
L 275.39965 105.598013 
L 277.679034 104.594183 
L 279.794391 103.27755 
L 281.678776 101.683902 
L 283.273656 99.860971 
L 284.531291 97.866386 
L 285.41622 95.765438 
L 285.90711 93.628032 
L 285.995938 91.526911 
L 285.689696 89.533742 
L 285.009976 87.715837 
L 283.98985 86.135738 
L 282.675605 84.844931 
L 281.120968 83.886657 
L 279.388199 83.289238 
L 277.816533 82.310604 
L 276.344539 80.777029 
L 275.009265 77.831153 
L 273.258958 75.19003 
L 271.144232 72.955347 
L 268.735992 71.211182 
L 266.120889 70.022491 
L 263.397153 69.434982 
L 260.669633 69.46931 
L 258.045078 70.123724 
L 255.627452 71.373884 
L 253.512982 73.173028 
L 251.609653 75.136355 
L 249.984432 77.320214 
L 248.805612 79.871967 
L 248.11836 82.70038 
L 247.946889 85.705206 
L 248.295684 88.784226 
L 249.14665 91.834832 
L 250.192635 94.588682 
L 251.446425 97.07379 
L 253.15598 99.409381 
L 255.262747 101.5106 
L 257.692506 103.306163 
L 260.357277 104.740926 
L 263.159821 105.778604 
L 264.790582 106.317414 
L 265.028911 106.62 
" clip-path="url(#p9be13bc43b)" style="fill: none; stroke: #e377c2; stroke-width: 1.5; stroke-linecap: square"/>
   </g>
   <g id="line2d_28">
    <path d="M 273.350934 106.54484 
L 274.126804 106.169305 
L 275.821756 105.530128 
L 278.249969 104.460224 
L 280.503364 103.057099 
L 282.510797 101.358826 
L 284.210118 99.416124 
L 285.550608 97.290217 
L 286.494878 95.050259 
L 287.019707 92.770796 
L 287.116693 90.528993 
L 286.793712 88.400438 
L 286.07249 86.457713 
L 284.989085 84.766129 
L 283.591289 83.382115 
L 281.937134 82.350204 
L 280.091458 81.702925 
L 278.385763 80.733041 
L 276.815147 79.110908 
L 275.396319 75.96289 
L 273.533875 73.139548 
L 271.281777 70.749592 
L 268.715672 68.882718 
L 265.92802 67.608585 
L 263.02361 66.975606 
L 260.114432 67.006597 
L 257.314431 67.699536 
L 254.734432 69.028039 
L 252.477162 70.942472 
L 250.455515 73.052287 
L 248.722382 75.380198 
L 247.465675 78.101129 
L 246.732413 81.116212 
L 246.549755 84.320212 
L 246.921783 87.603242 
L 247.829599 90.856217 
L 248.94687 93.793652 
L 250.282803 96.442592 
L 252.104419 98.93217 
L 254.350132 101.172272 
L 256.940422 103.086627 
L 259.781507 104.616393 
L 262.769723 105.722832 
L 264.489559 106.296005 
L 264.749809 106.62 
" clip-path="url(#p9be13bc43b)" style="fill: none; stroke: #7f7f7f; stroke-width: 1.5; stroke-linecap: square"/>
   </g>
   <g id="line2d_29">
    <path d="M 273.593342 106.540608 
L 274.415915 106.143665 
L 276.187359 105.47133 
L 278.744011 104.344306 
L 281.116527 102.866441 
L 283.230169 101.077763 
L 285.019684 99.031556 
L 286.431807 96.79212 
L 287.427576 94.431855 
L 287.982036 92.029337 
L 288.086663 89.665334 
L 287.749665 87.419124 
L 286.993166 85.367538 
L 285.855708 83.578287 
L 284.386326 82.112033 
L 282.646432 81.01493 
L 280.703765 80.321768 
L 278.876661 79.372568 
L 277.220595 77.675479 
L 275.730243 74.351072 
L 273.771257 71.369025 
L 271.400635 68.843503 
L 268.698101 66.869346 
L 265.761166 65.520282 
L 262.700311 64.847028 
L 259.633657 64.87402 
L 256.681421 65.599294 
L 253.960556 66.99517 
L 251.579497 69.009421 
L 249.456672 71.24864 
L 247.630601 73.70192 
L 246.306169 76.568745 
L 245.533456 79.745777 
L 245.341167 83.122124 
L 245.733337 86.581673 
L 246.690035 90.009482 
L 247.869621 93.106166 
L 249.276374 95.896663 
L 251.195002 98.519467 
L 253.5609 100.879686 
L 256.290064 102.896785 
L 259.283691 104.50872 
L 262.432558 105.674628 
L 264.226802 106.277317 
L 264.506849 106.62 
" clip-path="url(#p9be13bc43b)" style="fill: none; stroke: #bcbd22; stroke-width: 1.5; stroke-linecap: square"/>
   </g>
   <g id="line2d_30">
    <path d="M 273.884411 106.535528 
L 274.761118 106.11305 
L 276.617429 105.402164 
L 279.324548 104.208093 
L 281.836595 102.64254 
L 284.074688 100.747804 
L 285.969923 98.580164 
L 287.466366 96.207336 
L 288.522452 93.705922 
L 289.11192 91.158781 
L 289.226389 88.650523 
L 288.873075 86.265912 
L 288.076531 84.084723 
L 286.875561 82.180418 
L 285.323301 80.615202 
L 283.482674 79.440681 
L 281.426537 78.691439 
L 279.45096 77.780957 
L 277.694681 75.997047 
L 276.121186 72.464037 
L 274.049432 69.294249 
L 271.54002 66.60824 
L 268.677484 64.50685 
L 265.565291 63.068753 
L 262.320626 62.347211 
L 259.068844 62.368675 
L 255.937563 63.13127 
L 253.050969 64.605806 
L 250.52424 66.73701 
L 248.284534 69.132066 
L 246.349425 71.732503 
L 244.945178 74.770081 
L 244.126441 78.137527 
L 243.922822 81.716103 
L 244.338573 85.382757 
L 245.35255 89.015683 
L 246.60587 92.299658 
L 248.095174 95.25593 
L 250.127717 98.03512 
L 252.634472 100.536237 
L 255.526305 102.673841 
L 258.698711 104.382194 
L 262.036211 105.617963 
L 263.911022 106.254857 
L 264.214977 106.62 
" clip-path="url(#p9be13bc43b)" style="fill: none; stroke: #17becf; stroke-width: 1.5; stroke-linecap: square"/>
   </g>
   <g id="line2d_31">
    <path d="M 274.118948 106.531434 
L 275.040652 106.088258 
L 276.965852 105.346129 
L 279.794772 104.097764 
L 282.419778 102.461203 
L 284.758665 100.480569 
L 286.739573 98.214558 
L 288.304456 95.733607 
L 289.409528 93.117767 
L 290.027697 90.453191 
L 290.150311 87.827864 
L 289.784286 85.330527 
L 288.955636 83.043773 
L 287.704026 81.044877 
L 286.084736 79.398801 
L 284.163388 78.159218 
L 282.01496 77.364155 
L 279.915599 76.493258 
L 278.078277 74.63898 
L 276.437754 70.935996 
L 274.274811 67.613251 
L 271.652999 64.796436 
L 268.660767 62.591206 
L 265.40642 61.080362 
L 262.012588 60.319106 
L 258.610502 60.335602 
L 255.333798 61.128061 
L 252.312549 62.666075 
L 249.667415 64.891905 
L 247.33364 67.415003 
L 245.309582 70.134064 
L 243.841076 73.31092 
L 242.985029 76.832868 
L 242.772251 80.575529 
L 243.20717 84.410221 
L 244.267657 88.20957 
L 245.580776 91.645458 
L 247.137128 94.736246 
L 249.262096 97.642292 
L 251.88315 100.257705 
L 254.906794 102.493004 
L 258.224443 104.279614 
L 261.715082 105.572052 
L 263.655626 106.236693 
L 263.97968 106.62 
" clip-path="url(#p9be13bc43b)" style="fill: none; stroke: #1f77b4; stroke-width: 1.5; stroke-linecap: square"/>
   </g>
   <g id="line2d_32">
    <path d="M 274.29244 106.528406 
L 275.248467 106.069828 
L 277.225877 105.30431 
L 280.145673 104.015432 
L 282.854975 102.325882 
L 285.269115 100.281133 
L 287.314086 97.941648 
L 288.93011 95.379957 
L 290.071874 92.678614 
L 290.71188 89.92604 
L 290.840525 87.213299 
L 290.465623 84.631115 
L 289.612908 82.265495 
L 288.324083 80.194992 
L 286.654769 78.488164 
L 284.673458 77.198998 
L 282.45619 76.36889 
L 280.26203 75.533161 
L 278.364505 73.62563 
L 276.6741 69.79518 
L 274.443137 66.357784 
L 271.737401 63.442908 
L 268.648275 61.159764 
L 265.287685 59.594302 
L 261.782328 58.803092 
L 258.267834 58.815626 
L 254.88234 59.630184 
L 251.760324 61.215453 
L 249.026552 63.511858 
L 246.622629 66.131104 
L 244.531973 68.938727 
L 243.015538 72.219902 
L 242.131629 75.857413 
L 241.912053 79.722806 
L 242.36137 83.683185 
L 243.456713 87.607011 
L 244.814368 91.156346 
L 246.421164 94.347876 
L 248.615296 97.348767 
L 251.321661 100.049548 
L 254.444124 102.357948 
L 257.870445 104.203048 
L 261.47567 105.537823 
L 263.46594 106.223202 
L 263.805518 106.62 
" clip-path="url(#p9be13bc43b)" style="fill: none; stroke: #ff7f0e; stroke-width: 1.5; stroke-linecap: square"/>
   </g>
   <g id="line2d_33">
    <path d="M 274.403866 106.526461 
L 275.382653 106.057927 
L 277.39608 105.276937 
L 280.375336 103.961545 
L 283.139813 102.237313 
L 285.603238 100.150589 
L 287.690256 97.762956 
L 289.339786 95.148387 
L 290.505684 92.390986 
L 291.16013 89.580671 
L 291.292874 86.810528 
L 290.912328 84.17256 
L 290.044017 81.755018 
L 288.730994 79.637256 
L 287.029159 77.890073 
L 285.008633 76.568022 
L 282.746592 75.71384 
L 280.488544 74.905401 
L 278.551911 72.962147 
L 276.828898 69.047989 
L 274.5534 65.53538 
L 271.792698 62.556123 
L 268.640089 60.221851 
L 265.209879 58.620495 
L 261.631426 57.809564 
L 258.043242 57.8194 
L 254.586412 58.648333 
L 251.398299 60.264462 
L 248.606361 62.607009 
L 246.15621 65.288874 
L 244.021898 68.154643 
L 242.474064 71.504299 
L 241.571942 75.217677 
L 241.347992 79.163645 
L 241.80686 83.206538 
L 242.925198 87.212076 
L 244.312207 90.835874 
L 245.952213 94.093498 
L 248.191835 97.156595 
L 250.954214 99.913327 
L 254.141649 102.269655 
L 257.639339 104.153062 
L 261.319741 105.51553 
L 263.343486 106.214493 
L 263.693574 106.62 
" clip-path="url(#p9be13bc43b)" style="fill: none; stroke: #2ca02c; stroke-width: 1.5; stroke-linecap: square"/>
   </g>
   <g id="line2d_34">
    <path d="M 274.456353 106.525544 
L 275.447789 106.05215 
L 277.483267 105.262915 
L 280.492936 103.933953 
L 283.285667 102.191961 
L 285.77435 100.083735 
L 287.882941 97.671425 
L 289.54971 95.029728 
L 290.728072 92.243537 
L 291.390017 89.403547 
L 291.524983 86.603859 
L 291.141637 83.937168 
L 290.265432 81.49284 
L 288.940058 79.3507 
L 287.221727 77.582443 
L 285.180998 76.24354 
L 282.896014 75.376795 
L 280.604623 74.583701 
L 278.648011 72.621917 
L 276.908259 68.664925 
L 274.609918 65.113839 
L 271.821034 62.101705 
L 268.635896 59.741378 
L 265.170019 58.12162 
L 261.554126 57.300625 
L 257.928192 57.309072 
L 254.434805 58.145322 
L 251.212798 59.777175 
L 248.391 62.143247 
L 245.91652 64.856057 
L 243.759825 67.751786 
L 242.195919 71.136707 
L 241.284532 74.889161 
L 241.058464 78.876633 
L 241.522406 82.962026 
L 242.652759 87.009644 
L 244.055022 90.671743 
L 245.712326 93.963373 
L 247.975543 97.058439 
L 250.766912 99.84389 
L 253.987905 102.224776 
L 257.522403 104.12777 
L 261.241519 105.504347 
L 263.28515 106.210344 
L 263.640846 106.62 
" clip-path="url(#p9be13bc43b)" style="fill: none; stroke: #d62728; stroke-width: 1.5; stroke-linecap: square"/>
   </g>
   <g id="patch_7">
    <path d="M 322.205 106.62 
C 322.205 92.526499 316.600407 78.995814 306.634796 69.030204 
C 296.669186 59.064593 283.138501 53.46 269.045 53.46 
C 254.951499 53.46 241.420814 59.064593 231.455204 69.030204 
C 221.489593 78.995814 215.885 92.526499 215.885 106.62 
" style="fill: none; stroke: #000000; stroke-width: 0.8; stroke-linejoin: miter; stroke-linecap: square"/>
   </g>
   <g id="patch_8">
    <path d="M 269.045 106.62 
L 322.205 106.62 
" style="fill: none; stroke: #000000; stroke-width: 0.8; stroke-linejoin: miter; stroke-linecap: square"/>
   </g>
   <g id="patch_9">
    <path d="M 269.045 106.62 
L 215.885 106.62 
" style="fill: none; stroke: #000000; stroke-width: 0.8; stroke-linejoin: miter; stroke-linecap: square"/>
   </g>
   <g id="text_8">
    <!-- Y -->
    <g transform="translate(265.380312 20.88) scale(0.12 -0.12)">
     <defs>
      <path id="DejaVuSans-59" d="M -13 4666 
L 666 4666 
L 1959 2747 
L 3244 4666 
L 3922 4666 
L 2272 2222 
L 2272 0 
L 1638 0 
L 1638 2222 
L -13 4666 
z
" transform="scale(0.015625)"/>
     </defs>
     <use xlink:href="#DejaVuSans-59"/>
    </g>
   </g>
  </g>
 </g>
 <defs>
  <clipPath id="p398a68c073">
   <path d="M 150.505 106.62 
C 150.505 92.526499 144.900407 78.995814 134.934796 69.030204 
C 124.969186 59.064593 111.438501 53.46 97.345 53.46 
C 83.251499 53.46 69.720814 59.064593 59.755204 69.030204 
C 49.789593 78.995814 44.185 92.526499 44.185 106.62 
L 97.345 106.62 
C 97.345 106.62 97.345 106.62 97.345 106.62 
C 97.345 106.62 97.345 106.62 97.345 106.62 
C 97.345 106.62 97.345 106.62 97.345 106.62 
C 97.345 106.62 97.345 106.62 97.345 106.62 
z
"/>
  </clipPath>
  <clipPath id="p9be13bc43b">
   <path d="M 322.205 106.62 
C 322.205 92.526499 316.600407 78.995814 306.634796 69.030204 
C 296.669186 59.064593 283.138501 53.46 269.045 53.46 
C 254.951499 53.46 241.420814 59.064593 231.455204 69.030204 
C 221.489593 78.995814 215.885 92.526499 215.885 106.62 
L 269.045 106.62 
C 269.045 106.62 269.045 106.62 269.045 106.62 
C 269.045 106.62 269.045 106.62 269.045 106.62 
C 269.045 106.62 269.045 106.62 269.045 106.62 
C 269.045 106.62 269.045 106.62 269.045 106.62 
z
"/>
  </clipPath>
 </defs>
</svg>
