<?xml version="1.0" encoding="utf-8" standalone="no"?>
<!DOCTYPE svg PUBLIC "-//W3C//DTD SVG 1.1//EN"
  "http://www.w3.org/Graphics/SVG/1.1/DTD/svg11.dtd">
<svg xmlns:xlink="http://www.w3.org/1999/xlink" width="360pt" height="144pt" viewBox="0 0 360 144" xmlns="http://www.w3.org/2000/svg" version="1.1">
 <metadata>
  <rdf:RDF xmlns:dc="http://purl.org/dc/elements/1.1/" xmlns:cc="http://creativecommons.org/ns#" xmlns:rdf="http://www.w3.org/1999/02/22-rdf-syntax-ns#">
   <cc:Work>
    <dc:type rdf:resource="http://purl.org/dc/dcmitype/StillImage"/>
    <dc:date>2023-06-20T07:11:27.834491</dc:date>
    <dc:format>image/svg+xml</dc:format>
    <dc:creator>
     <cc:Agent>
      <dc:title>Matplotlib v3.7.1, https://matplotlib.org/</dc:title>
     </cc:Agent>
    </dc:creator>
   </cc:Work>
  </rdf:RDF>
 </metadata>
 <defs>
  <style type="text/css">*{stroke-linejoin: round; stroke-linecap: butt}</style>
 </defs>
 <g id="figure_1">
  <g id="patch_1">
   <path d="M 0 144 
L 360 144 
L 360 0 
L 0 0 
z
" style="fill: #ffffff"/>
  </g>
  <g id="axes_1">
   <g id="patch_2">
    <path d="M 150.505 106.62 
C 150.505 92.526499 144.900407 78.995814 134.934796 69.030204 
C 124.969186 59.064593 111.438501 53.46 97.345 53.46 
C 83.251499 53.46 69.720814 59.064593 59.755204 69.030204 
C 49.789593 78.995814 44.185 92.526499 44.185 106.62 
L 97.345 106.62 
C 97.345 106.62 97.345 106.62 97.345 106.62 
C 97.345 106.62 97.345 106.62 97.345 106.62 
C 97.345 106.62 97.345 106.62 97.345 106.62 
C 97.345 106.62 97.345 106.62 97.345 106.62 
z
" style="fill: #ffffff"/>
   </g>
   <g id="matplotlib.axis_1">
    <g id="xtick_1">
     <g id="line2d_1">
      <path d="M 97.345 106.62 
L 150.505 106.62 
" clip-path="url(#p48a7d251a3)" style="fill: none; stroke: #b0b0b0; stroke-width: 0.8; stroke-linecap: square"/>
     </g>
     <g id="text_1">
      <!-- 0° -->
      <g transform="translate(158.82375 109.379375) scale(0.1 -0.1)">
       <defs>
        <path id="DejaVuSans-30" d="M 2034 4250 
Q 1547 4250 1301 3770 
Q 1056 3291 1056 2328 
Q 1056 1369 1301 889 
Q 1547 409 2034 409 
Q 2525 409 2770 889 
Q 3016 1369 3016 2328 
Q 3016 3291 2770 3770 
Q 2525 4250 2034 4250 
z
M 2034 4750 
Q 2819 4750 3233 4129 
Q 3647 3509 3647 2328 
Q 3647 1150 3233 529 
Q 2819 -91 2034 -91 
Q 1250 -91 836 529 
Q 422 1150 422 2328 
Q 422 3509 836 4129 
Q 1250 4750 2034 4750 
z
" transform="scale(0.015625)"/>
        <path id="DejaVuSans-b0" d="M 1600 4347 
Q 1350 4347 1178 4173 
Q 1006 4000 1006 3750 
Q 1006 3503 1178 3333 
Q 1350 3163 1600 3163 
Q 1850 3163 2022 3333 
Q 2194 3503 2194 3750 
Q 2194 3997 2020 4172 
Q 1847 4347 1600 4347 
z
M 1600 4750 
Q 1800 4750 1984 4673 
Q 2169 4597 2303 4453 
Q 2447 4313 2519 4134 
Q 2591 3956 2591 3750 
Q 2591 3338 2302 3052 
Q 2013 2766 1594 2766 
Q 1172 2766 890 3047 
Q 609 3328 609 3750 
Q 609 4169 896 4459 
Q 1184 4750 1600 4750 
z
" transform="scale(0.015625)"/>
       </defs>
       <use xlink:href="#DejaVuSans-30"/>
       <use xlink:href="#DejaVuSans-b0" x="63.623047"/>
      </g>
     </g>
    </g>
    <g id="xtick_2">
     <g id="line2d_2">
      <path d="M 97.345 106.62 
L 97.345 53.46 
" clip-path="url(#p48a7d251a3)" style="fill: none; stroke: #b0b0b0; stroke-width: 0.8; stroke-linecap: square"/>
     </g>
     <g id="text_2">
      <!-- 90° -->
      <g transform="translate(88.4825 42.219375) scale(0.1 -0.1)">
       <defs>
        <path id="DejaVuSans-39" d="M 703 97 
L 703 672 
Q 941 559 1184 500 
Q 1428 441 1663 441 
Q 2288 441 2617 861 
Q 2947 1281 2994 2138 
Q 2813 1869 2534 1725 
Q 2256 1581 1919 1581 
Q 1219 1581 811 2004 
Q 403 2428 403 3163 
Q 403 3881 828 4315 
Q 1253 4750 1959 4750 
Q 2769 4750 3195 4129 
Q 3622 3509 3622 2328 
Q 3622 1225 3098 567 
Q 2575 -91 1691 -91 
Q 1453 -91 1209 -44 
Q 966 3 703 97 
z
M 1959 2075 
Q 2384 2075 2632 2365 
Q 2881 2656 2881 3163 
Q 2881 3666 2632 3958 
Q 2384 4250 1959 4250 
Q 1534 4250 1286 3958 
Q 1038 3666 1038 3163 
Q 1038 2656 1286 2365 
Q 1534 2075 1959 2075 
z
" transform="scale(0.015625)"/>
       </defs>
       <use xlink:href="#DejaVuSans-39"/>
       <use xlink:href="#DejaVuSans-30" x="63.623047"/>
       <use xlink:href="#DejaVuSans-b0" x="127.246094"/>
      </g>
     </g>
    </g>
    <g id="xtick_3">
     <g id="line2d_3">
      <path d="M 97.345 106.62 
L 44.185 106.62 
" clip-path="url(#p48a7d251a3)" style="fill: none; stroke: #b0b0b0; stroke-width: 0.8; stroke-linecap: square"/>
     </g>
     <g id="text_3">
      <!-- 180° -->
      <g transform="translate(18.14125 109.379375) scale(0.1 -0.1)">
       <defs>
        <path id="DejaVuSans-31" d="M 794 531 
L 1825 531 
L 1825 4091 
L 703 3866 
L 703 4441 
L 1819 4666 
L 2450 4666 
L 2450 531 
L 3481 531 
L 3481 0 
L 794 0 
L 794 531 
z
" transform="scale(0.015625)"/>
        <path id="DejaVuSans-38" d="M 2034 2216 
Q 1584 2216 1326 1975 
Q 1069 1734 1069 1313 
Q 1069 891 1326 650 
Q 1584 409 2034 409 
Q 2484 409 2743 651 
Q 3003 894 3003 1313 
Q 3003 1734 2745 1975 
Q 2488 2216 2034 2216 
z
M 1403 2484 
Q 997 2584 770 2862 
Q 544 3141 544 3541 
Q 544 4100 942 4425 
Q 1341 4750 2034 4750 
Q 2731 4750 3128 4425 
Q 3525 4100 3525 3541 
Q 3525 3141 3298 2862 
Q 3072 2584 2669 2484 
Q 3125 2378 3379 2068 
Q 3634 1759 3634 1313 
Q 3634 634 3220 271 
Q 2806 -91 2034 -91 
Q 1263 -91 848 271 
Q 434 634 434 1313 
Q 434 1759 690 2068 
Q 947 2378 1403 2484 
z
M 1172 3481 
Q 1172 3119 1398 2916 
Q 1625 2713 2034 2713 
Q 2441 2713 2670 2916 
Q 2900 3119 2900 3481 
Q 2900 3844 2670 4047 
Q 2441 4250 2034 4250 
Q 1625 4250 1398 4047 
Q 1172 3844 1172 3481 
z
" transform="scale(0.015625)"/>
       </defs>
       <use xlink:href="#DejaVuSans-31"/>
       <use xlink:href="#DejaVuSans-38" x="63.623047"/>
       <use xlink:href="#DejaVuSans-30" x="127.246094"/>
       <use xlink:href="#DejaVuSans-b0" x="190.869141"/>
      </g>
     </g>
    </g>
   </g>
   <g id="matplotlib.axis_2"/>
   <g id="line2d_4">
    <path d="M 97.345 106.62 
L 97.345 106.62 
L 97.345 106.62 
L 97.345 106.62 
L 97.345 106.62 
L 97.345 106.62 
L 97.345 106.62 
L 97.345 106.62 
L 97.345 106.62 
L 97.345 106.62 
L 97.345 106.62 
L 97.345 106.62 
L 97.345 106.62 
L 97.345 106.62 
L 97.345 106.62 
L 97.345 106.62 
L 97.345 106.62 
L 97.345 106.62 
L 97.345 106.62 
L 97.345 106.62 
L 97.345 106.62 
L 97.345 106.62 
L 97.345 106.62 
L 97.345 106.62 
L 97.345 106.62 
L 97.345 106.62 
L 97.345 106.62 
L 97.345 106.62 
L 97.345 106.62 
L 97.345 106.62 
L 97.345 106.62 
L 97.345 106.62 
L 97.345 106.62 
L 97.345 106.62 
L 97.345 106.62 
L 97.345 106.62 
L 97.345 106.62 
L 97.345 106.62 
L 97.345 106.62 
L 97.345 106.62 
L 97.345 106.62 
L 97.345 106.62 
L 97.345 106.62 
L 97.345 106.62 
L 97.345 106.62 
" clip-path="url(#p48a7d251a3)" style="fill: none; stroke: #1f77b4; stroke-width: 1.5; stroke-linecap: square"/>
   </g>
   <g id="line2d_5">
    <path d="M 113.50634 106.337903 
L 113.798209 105.1608 
L 113.945262 103.950262 
L 114.016345 102.708376 
L 113.867025 101.482588 
L 113.473927 100.318324 
L 112.847217 99.255992 
L 112.490743 98.05888 
L 112.038288 96.877952 
L 111.329749 95.84499 
L 110.387402 95.007066 
L 109.244399 94.404925 
L 107.942026 94.072039 
L 106.52908 94.031777 
L 105.05874 94.2972 
L 103.586859 94.869528 
L 102.169147 95.738355 
L 100.858782 96.881918 
L 99.704267 98.267352 
L 98.746952 99.852934 
L 98.019593 101.588519 
L 97.54475 103.416684 
L 97.330277 104.932885 
L 97.17867 104.538254 
L 96.869782 103.4912 
L 96.395188 102.406912 
L 95.688303 101.1233 
L 94.772405 99.862134 
L 93.732434 98.840626 
L 92.614053 98.077155 
L 91.463106 97.578388 
L 90.322661 97.339395 
L 89.230208 97.344611 
L 88.215196 97.569522 
L 87.075126 97.792183 
L 85.991654 98.184068 
L 84.990631 98.735613 
L 84.092522 99.431297 
L 83.313466 100.252329 
L 82.664815 101.177716 
L 82.153306 102.185486 
L 81.782006 103.253869 
L 81.551732 104.362058 
L 81.462523 105.490395 
L 81.274458 106.62 
" clip-path="url(#p48a7d251a3)" style="fill: none; stroke: #ff7f0e; stroke-width: 1.5; stroke-linecap: square"/>
   </g>
   <g id="line2d_6">
    <path d="M 121.343033 106.201113 
L 121.779951 104.452916 
L 122.005116 102.654035 
L 122.143583 100.801469 
L 121.918224 98.979123 
L 121.330102 97.248865 
L 120.394551 95.670787 
L 119.887116 93.878086 
L 119.207478 92.124586 
L 118.146851 90.59253 
L 116.739211 89.351425 
L 115.033419 88.46233 
L 113.091896 87.974066 
L 110.98683 87.921731 
L 108.798138 88.323463 
L 106.60844 89.181319 
L 104.500589 90.479409 
L 102.553713 92.18459 
L 100.839332 94.24882 
L 99.41902 96.608935 
L 98.341081 99.190689 
L 97.638744 101.909337 
L 97.323382 104.142836 
L 97.098102 103.529884 
L 96.637893 101.964456 
L 95.930659 100.346394 
L 94.876495 98.429828 
L 93.516212 96.562282 
L 91.972829 95.051455 
L 90.314002 93.923869 
L 88.607616 93.188948 
L 86.917293 92.838919 
L 85.298323 92.850377 
L 83.747833 93.140976 
L 82.061324 93.4824 
L 80.46155 94.075007 
L 78.983585 94.902 
L 77.656548 95.940153 
L 76.503891 97.162066 
L 75.541773 98.537039 
L 74.780367 100.033297 
L 74.224717 101.619298 
L 73.876603 103.264755 
L 73.736606 104.940907 
L 73.482614 106.62 
" clip-path="url(#p48a7d251a3)" style="fill: none; stroke: #2ca02c; stroke-width: 1.5; stroke-linecap: square"/>
   </g>
   <g id="line2d_7">
    <path d="M 124.272559 106.149978 
L 124.764749 104.1882 
L 125.043807 102.165338 
L 125.197341 100.084961 
L 124.942524 98.038737 
L 124.2804 96.096165 
L 123.22828 94.324682 
L 122.679447 92.299723 
L 121.912312 90.331208 
L 120.716927 88.61233 
L 119.131686 87.22117 
L 117.211761 86.2262 
L 115.028134 85.681362 
L 112.661407 85.626461 
L 110.201237 86.081994 
L 107.740936 87.049364 
L 105.373437 88.510561 
L 103.1873 90.42867 
L 101.262983 92.748944 
L 99.669306 95.400834 
L 98.460432 98.300503 
L 97.673397 101.353605 
L 97.320855 103.853223 
L 97.06806 103.153877 
L 96.550928 101.391886 
L 95.756133 99.572248 
L 94.57387 97.425762 
L 93.048598 95.333924 
L 91.318367 93.642123 
L 89.459308 92.380518 
L 87.54737 91.559145 
L 85.653403 91.168583 
L 83.839047 91.182393 
L 82.063618 91.471394 
L 80.178002 91.863528 
L 78.390351 92.536035 
L 76.738444 93.469182 
L 75.254564 94.637215 
L 73.964062 96.009463 
L 72.885034 97.552124 
L 72.028932 99.230143 
L 71.401855 101.008739 
L 71.006507 102.854421 
L 70.844308 104.735199 
L 70.570024 106.62 
" clip-path="url(#p48a7d251a3)" style="fill: none; stroke: #d62728; stroke-width: 1.5; stroke-linecap: square"/>
   </g>
   <g id="line2d_8">
    <path d="M 127.287864 106.097345 
L 127.839236 103.91553 
L 128.185302 101.660106 
L 128.353923 99.344327 
L 128.068391 97.06677 
L 127.329879 94.904714 
L 126.157724 92.93311 
L 125.584015 90.657918 
L 124.724803 88.46645 
L 123.388069 86.554261 
L 121.61688 85.008356 
L 119.474069 83.903875 
L 117.03708 83.302565 
L 114.397907 83.246315 
L 111.655581 83.758661 
L 108.914126 84.840801 
L 106.277055 86.472303 
L 103.842917 88.611696 
L 101.701334 91.197023 
L 99.928299 94.150705 
L 98.583952 97.379231 
L 97.709291 100.777999 
L 97.318246 103.554312 
L 97.037296 102.768843 
L 96.461603 100.803781 
L 95.576638 98.776058 
L 94.267327 96.408691 
L 92.574036 94.087313 
L 90.653932 92.211315 
L 88.59132 90.81316 
L 86.470072 89.903128 
L 84.36877 89.470833 
L 82.35461 89.485648 
L 80.32184 89.744751 
L 78.23584 90.194077 
L 76.260573 90.953536 
L 74.435332 91.999368 
L 72.794107 93.302559 
L 71.364013 94.829531 
L 70.164736 96.543647 
L 69.209311 98.407084 
L 68.505424 100.382268 
L 68.057679 102.432831 
L 67.8691 104.523594 
L 67.572495 106.62 
" clip-path="url(#p48a7d251a3)" style="fill: none; stroke: #9467bd; stroke-width: 1.5; stroke-linecap: square"/>
   </g>
   <g id="line2d_9">
    <path d="M 130.175743 106.046937 
L 130.784607 103.654312 
L 131.200717 101.175152 
L 131.383587 98.633472 
L 131.068551 96.133891 
L 130.257115 93.761024 
L 128.970516 91.596951 
L 128.390709 89.071436 
L 127.441826 86.664991 
L 125.967676 84.566718 
L 124.016627 82.871625 
L 121.657112 81.662919 
L 118.975528 81.007245 
L 116.072137 80.951519 
L 113.05689 81.520051 
L 110.044015 82.713755 
L 107.1471 84.509775 
L 104.474193 86.862179 
L 102.12314 89.703681 
L 100.177572 92.947492 
L 98.70292 96.4919 
L 97.743938 100.222376 
L 97.315733 103.266332 
L 97.008039 102.402668 
L 96.376453 100.243157 
L 95.405303 98.016068 
L 93.978931 95.451832 
L 92.126869 92.912663 
L 90.027418 90.862165 
L 87.772469 89.334531 
L 85.45368 88.340737 
L 83.155681 87.867636 
L 80.951637 87.882018 
L 78.646075 88.083546 
L 76.372295 88.592204 
L 74.222868 89.43945 
L 72.237438 90.596702 
L 70.450095 92.031068 
L 68.889255 93.706457 
L 67.575048 95.58359 
L 66.523176 97.622991 
L 65.743454 99.78488 
L 65.242443 102.030341 
L 65.025155 104.321324 
L 64.70205 106.62 
" clip-path="url(#p48a7d251a3)" style="fill: none; stroke: #8c564b; stroke-width: 1.5; stroke-linecap: square"/>
   </g>
   <g id="line2d_10">
    <path d="M 132.772117 106.001617 
L 133.433459 103.419391 
L 133.914272 100.738745 
L 134.109725 97.993834 
L 133.76811 95.294481 
L 132.891411 92.731787 
L 131.502526 90.394172 
L 130.934683 87.633457 
L 129.903654 85.032732 
L 128.304627 82.766137 
L 126.189754 80.936677 
L 123.632721 79.6349 
L 120.729026 78.930924 
L 117.58632 78.876095 
L 114.323682 79.496334 
L 111.064764 80.792166 
L 107.932413 82.738375 
L 105.043357 85.284798 
L 102.503245 88.357973 
L 100.402034 91.864035 
L 98.809988 95.693329 
L 97.775093 99.722754 
L 97.313481 103.008332 
L 96.982 102.07677 
L 96.300344 99.742061 
L 95.251815 97.335241 
L 93.723253 94.603526 
L 91.730231 91.870749 
L 89.471644 89.665351 
L 87.046136 88.022964 
L 84.551881 86.954497 
L 82.079508 86.445383 
L 79.661945 86.40787 
L 77.128542 86.579199 
L 74.689431 87.145641 
L 72.388384 88.076364 
L 70.264559 89.337638 
L 68.350876 90.892363 
L 66.67595 92.702034 
L 65.260848 94.725662 
L 64.122809 96.922315 
L 63.273189 99.250584 
L 62.72165 101.669946 
L 62.476418 104.140051 
L 62.121125 106.62 
" clip-path="url(#p48a7d251a3)" style="fill: none; stroke: #e377c2; stroke-width: 1.5; stroke-linecap: square"/>
   </g>
   <g id="line2d_11">
    <path d="M 135.062841 105.961633 
L 135.77162 103.212024 
L 136.307461 100.35386 
L 136.513845 97.429752 
L 136.148834 94.554211 
L 135.214981 91.823953 
L 133.73659 89.332926 
L 133.195091 86.355763 
L 132.090693 83.582666 
L 130.380202 81.166942 
L 128.118708 79.219139 
L 125.386634 77.834458 
L 122.284118 77.089537 
L 118.928377 77.036594 
L 115.445787 77.703757 
L 111.968308 79.09122 
L 108.627028 81.17156 
L 105.546525 83.890322 
L 102.839071 87.169029 
L 100.600085 90.908064 
L 98.904366 94.98941 
L 97.80251 99.283079 
L 97.311514 102.782936 
L 96.959382 101.793695 
L 96.233771 99.303752 
L 95.117119 96.737768 
L 93.500476 93.864382 
L 91.384623 90.962883 
L 88.98751 88.622806 
L 86.413845 86.881214 
L 83.76705 85.748061 
L 81.142321 85.206813 
L 78.470519 85.046044 
L 75.779506 85.241884 
L 73.196827 85.862623 
L 70.765978 86.87086 
L 68.524561 88.227195 
L 66.50464 89.890887 
L 64.733095 91.820344 
L 63.23165 93.973392 
L 62.017155 96.307667 
L 61.10493 98.78161 
L 60.507398 101.353378 
L 60.235098 103.980643 
L 59.844346 106.62 
" clip-path="url(#p48a7d251a3)" style="fill: none; stroke: #7f7f7f; stroke-width: 1.5; stroke-linecap: square"/>
   </g>
   <g id="line2d_12">
    <path d="M 137.043987 105.927052 
L 137.793843 103.032677 
L 138.373523 100.021585 
L 138.589238 96.942799 
L 138.20412 93.915134 
L 137.221315 91.040066 
L 135.66629 88.416262 
L 135.160536 85.244796 
L 133.992157 82.321944 
L 132.184075 79.777089 
L 129.794571 77.726953 
L 126.909922 76.270759 
L 123.635051 75.489893 
L 120.093398 75.43975 
L 116.419198 76.148721 
L 112.751671 77.616518 
L 109.228961 79.813801 
L 105.982106 82.683153 
L 103.129356 86.141317 
L 100.771099 90.082601 
L 98.98575 94.382398 
L 97.82612 98.904449 
L 97.309841 102.59118 
L 96.940203 101.553649 
L 96.176819 98.928784 
L 95.00143 96.224603 
L 93.30971 93.231445 
L 91.089019 90.18637 
L 88.573781 87.731874 
L 85.873773 85.905986 
L 83.096687 84.717583 
L 80.327293 84.129685 
L 77.431451 83.858366 
L 74.604562 84.077149 
L 71.898937 84.746978 
L 69.358522 85.825071 
L 67.01969 87.266807 
L 64.912226 89.027095 
L 63.060888 91.061478 
L 61.486833 93.326548 
L 60.207901 95.779538 
L 59.241196 98.378502 
L 58.601891 101.08095 
L 58.304823 103.843356 
L 57.875233 106.62 
" clip-path="url(#p48a7d251a3)" style="fill: none; stroke: #bcbd22; stroke-width: 1.5; stroke-linecap: square"/>
   </g>
   <g id="line2d_13">
    <path d="M 138.892738 105.894782 
L 139.681531 102.865262 
L 140.299307 99.711871 
L 140.523848 96.488878 
L 140.120273 93.319319 
L 139.092635 90.308929 
L 137.529819 87.531031 
L 137.004616 84.202432 
L 135.776115 81.139131 
L 133.876337 78.47323 
L 131.367164 76.326719 
L 128.338583 74.804197 
L 124.901841 73.989885 
L 121.185977 73.942199 
L 117.331966 74.690562 
L 113.485946 76.234225 
L 109.792828 78.541908 
L 106.389947 81.552864 
L 103.401089 85.179287 
L 100.931267 89.30949 
L 99.061971 93.813901 
L 97.848269 98.549244 
L 97.308279 102.412174 
L 96.92257 101.332962 
L 96.124203 98.582364 
L 94.894264 95.749247 
L 93.133831 92.647903 
L 90.816561 89.470659 
L 88.192604 86.91104 
L 85.37627 85.007625 
L 82.479436 83.768748 
L 79.489932 83.023044 
L 76.457127 82.744692 
L 73.502867 82.985026 
L 70.683416 83.702136 
L 68.042407 84.847152 
L 65.615309 86.370551 
L 63.429329 88.222709 
L 61.506618 90.356132 
L 59.866689 92.725923 
L 58.528494 95.289313 
L 57.510359 98.004138 
L 56.832097 100.827925 
L 56.510488 103.715738 
L 56.037485 106.62 
" clip-path="url(#p48a7d251a3)" style="fill: none; stroke: #17becf; stroke-width: 1.5; stroke-linecap: square"/>
   </g>
   <g id="line2d_14">
    <path d="M 140.395886 105.868544 
L 141.216748 102.729107 
L 141.860429 99.460803 
L 142.092019 96.120936 
L 141.673497 92.836355 
L 140.610612 89.715845 
L 139.055069 86.806492 
L 138.507505 83.352925 
L 137.229714 80.175356 
L 135.254901 77.41107 
L 132.648256 75.186037 
L 129.501766 73.610156 
L 125.932887 72.769021 
L 122.074863 72.723841 
L 118.074184 73.504859 
L 114.082651 75.110911 
L 110.250708 77.509085 
L 106.720875 80.635733 
L 103.62146 84.399096 
L 101.06089 88.683812 
L 99.123525 93.354803 
L 97.866091 98.263443 
L 97.307041 102.270379 
L 96.908497 101.156832 
L 96.081778 98.30304 
L 94.807524 95.364495 
L 92.990857 92.173535 
L 90.595664 88.890392 
L 87.884313 86.247159 
L 84.974615 84.282342 
L 81.965459 82.978665 
L 78.804242 82.116847 
L 75.659262 81.832715 
L 72.6016 82.09159 
L 69.689435 82.847726 
L 66.968124 84.048922 
L 64.471026 85.640286 
L 62.223658 87.568702 
L 60.245592 89.783864 
L 58.554446 92.239444 
L 57.168663 94.892373 
L 56.109201 97.70108 
L 55.397761 100.62286 
L 55.05558 103.612261 
L 54.543764 106.62 
" clip-path="url(#p48a7d251a3)" style="fill: none; stroke: #1f77b4; stroke-width: 1.5; stroke-linecap: square"/>
   </g>
   <g id="line2d_15">
    <path d="M 141.544675 105.848492 
L 142.390028 102.625051 
L 143.050861 99.269352 
L 143.287515 95.840435 
L 142.857603 92.468165 
L 141.767606 89.263801 
L 140.222851 86.251762 
L 139.657808 82.702717 
L 138.341939 79.437921 
L 136.309357 76.59863 
L 133.62789 74.313772 
L 130.391537 72.696781 
L 126.72066 71.836218 
L 122.753688 71.793405 
L 118.640664 72.5999 
L 114.537808 74.254066 
L 110.59985 76.721539 
L 106.972996 79.937004 
L 103.788967 83.806059 
L 101.159172 88.209416 
L 99.17002 93.008017 
L 97.879463 98.049005 
L 97.306145 102.167695 
L 96.898031 101.025842 
L 96.049645 98.091475 
L 94.741414 95.07125 
L 92.880407 91.807076 
L 90.42585 88.444313 
L 87.648016 85.738313 
L 84.667197 83.727227 
L 81.526404 82.303752 
L 78.275546 81.418131 
L 75.044547 81.130081 
L 71.90726 81.403283 
L 68.924142 82.189893 
L 66.141333 83.434588 
L 63.591895 85.079236 
L 61.298814 87.067027 
L 59.279687 89.345525 
L 57.550742 91.867348 
L 56.130192 94.58924 
L 55.040158 97.469856 
L 54.303062 100.466352 
L 53.944725 103.533254 
L 53.40213 106.62 
" clip-path="url(#p48a7d251a3)" style="fill: none; stroke: #ff7f0e; stroke-width: 1.5; stroke-linecap: square"/>
   </g>
   <g id="line2d_16">
    <path d="M 142.334865 105.834699 
L 143.196733 102.553506 
L 143.865849 99.138282 
L 144.10558 95.648491 
L 143.667725 92.216263 
L 142.558476 88.954802 
L 141.024183 85.871106 
L 140.446684 82.256805 
L 139.104242 78.932493 
L 137.031615 76.042142 
L 134.298578 73.716592 
L 131.000426 72.071739 
L 127.259798 71.197823 
L 123.217758 71.157325 
L 119.02768 71.981636 
L 114.848503 73.669174 
L 110.837704 76.185022 
L 107.144335 79.462156 
L 103.902486 83.40416 
L 101.225489 87.889309 
L 99.201154 92.775804 
L 97.888263 97.907882 
L 97.305602 102.105428 
L 96.891197 100.940302 
L 96.027873 97.948132 
L 94.69609 94.870205 
L 92.802495 91.548572 
L 90.306719 88.131371 
L 87.482975 85.38291 
L 84.453428 83.341217 
L 81.220913 81.834154 
L 77.907978 80.932359 
L 74.617494 80.64195 
L 71.425236 80.925448 
L 68.393155 81.733465 
L 65.568247 83.008764 
L 62.982721 84.69047 
L 60.65902 86.719976 
L 58.613013 89.042981 
L 56.859187 91.610972 
L 55.415245 94.380544 
L 54.303146 97.310447 
L 53.549764 100.358654 
L 53.180137 103.478874 
L 52.616317 106.62 
" clip-path="url(#p48a7d251a3)" style="fill: none; stroke: #2ca02c; stroke-width: 1.5; stroke-linecap: square"/>
   </g>
   <g id="line2d_17">
    <path d="M 142.792926 105.826703 
L 143.664162 102.512051 
L 144.334444 99.06292 
L 144.575438 95.538248 
L 144.132185 92.071842 
L 143.011194 88.777923 
L 141.484817 85.65229 
L 140.899567 82.000814 
L 139.541266 78.642734 
L 137.445198 75.723484 
L 134.682106 73.3751 
L 131.34818 71.71476 
L 127.567317 70.833689 
L 123.482136 70.794953 
L 119.247689 71.63017 
L 115.024628 73.337614 
L 110.972105 75.881859 
L 107.240723 79.195027 
L 103.96593 83.179549 
L 101.26216 87.712302 
L 99.218033 92.649913 
L 97.892811 97.834947 
L 97.305379 102.079906 
L 96.88759 100.895161 
L 96.015441 97.866277 
L 94.669639 94.752876 
L 92.754335 91.388787 
L 90.234056 87.940494 
L 87.383114 85.167866 
L 84.321639 83.10324 
L 81.039324 81.555016 
L 77.689838 80.64407 
L 74.364108 80.352324 
L 71.139504 80.642198 
L 68.079336 81.463711 
L 65.229329 82.756937 
L 62.623234 84.46105 
L 60.281919 86.515421 
L 58.220421 88.864818 
L 56.452755 91.460298 
L 54.995975 94.258157 
L 53.872511 97.217305 
L 53.110184 100.295808 
L 52.734145 103.447154 
L 52.161089 106.62 
" clip-path="url(#p48a7d251a3)" style="fill: none; stroke: #d62728; stroke-width: 1.5; stroke-linecap: square"/>
   </g>
   <g id="patch_3">
    <path d="M 150.505 106.62 
C 150.505 92.526499 144.900407 78.995814 134.934796 69.030204 
C 124.969186 59.064593 111.438501 53.46 97.345 53.46 
C 83.251499 53.46 69.720814 59.064593 59.755204 69.030204 
C 49.789593 78.995814 44.185 92.526499 44.185 106.62 
" style="fill: none; stroke: #000000; stroke-width: 0.8; stroke-linejoin: miter; stroke-linecap: square"/>
   </g>
   <g id="patch_4">
    <path d="M 97.345 106.62 
L 150.505 106.62 
" style="fill: none; stroke: #000000; stroke-width: 0.8; stroke-linejoin: miter; stroke-linecap: square"/>
   </g>
   <g id="patch_5">
    <path d="M 97.345 106.62 
L 44.185 106.62 
" style="fill: none; stroke: #000000; stroke-width: 0.8; stroke-linejoin: miter; stroke-linecap: square"/>
   </g>
   <g id="text_4">
    <!-- X -->
    <g transform="translate(93.235 20.88) scale(0.12 -0.12)">
     <defs>
      <path id="DejaVuSans-58" d="M 403 4666 
L 1081 4666 
L 2241 2931 
L 3406 4666 
L 4084 4666 
L 2584 2425 
L 4184 0 
L 3506 0 
L 2194 1984 
L 872 0 
L 191 0 
L 1856 2491 
L 403 4666 
z
" transform="scale(0.015625)"/>
     </defs>
     <use xlink:href="#DejaVuSans-58"/>
    </g>
   </g>
  </g>
  <g id="axes_2">
   <g id="patch_6">
    <path d="M 322.205 106.62 
C 322.205 92.526499 316.600407 78.995814 306.634796 69.030204 
C 296.669186 59.064593 283.138501 53.46 269.045 53.46 
C 254.951499 53.46 241.420814 59.064593 231.455204 69.030204 
C 221.489593 78.995814 215.885 92.526499 215.885 106.62 
L 269.045 106.62 
C 269.045 106.62 269.045 106.62 269.045 106.62 
C 269.045 106.62 269.045 106.62 269.045 106.62 
C 269.045 106.62 269.045 106.62 269.045 106.62 
C 269.045 106.62 269.045 106.62 269.045 106.62 
z
" style="fill: #ffffff"/>
   </g>
   <g id="matplotlib.axis_3">
    <g id="xtick_4">
     <g id="line2d_18">
      <path d="M 269.045 106.62 
L 322.205 106.62 
" clip-path="url(#p21645f9040)" style="fill: none; stroke: #b0b0b0; stroke-width: 0.8; stroke-linecap: square"/>
     </g>
     <g id="text_5">
      <!-- 0° -->
      <g transform="translate(330.52375 109.379375) scale(0.1 -0.1)">
       <use xlink:href="#DejaVuSans-30"/>
       <use xlink:href="#DejaVuSans-b0" x="63.623047"/>
      </g>
     </g>
    </g>
    <g id="xtick_5">
     <g id="line2d_19">
      <path d="M 269.045 106.62 
L 269.045 53.46 
" clip-path="url(#p21645f9040)" style="fill: none; stroke: #b0b0b0; stroke-width: 0.8; stroke-linecap: square"/>
     </g>
     <g id="text_6">
      <!-- 90° -->
      <g transform="translate(260.1825 42.219375) scale(0.1 -0.1)">
       <use xlink:href="#DejaVuSans-39"/>
       <use xlink:href="#DejaVuSans-30" x="63.623047"/>
       <use xlink:href="#DejaVuSans-b0" x="127.246094"/>
      </g>
     </g>
    </g>
    <g id="xtick_6">
     <g id="line2d_20">
      <path d="M 269.045 106.62 
L 215.885 106.62 
" clip-path="url(#p21645f9040)" style="fill: none; stroke: #b0b0b0; stroke-width: 0.8; stroke-linecap: square"/>
     </g>
     <g id="text_7">
      <!-- 180° -->
      <g transform="translate(189.84125 109.379375) scale(0.1 -0.1)">
       <use xlink:href="#DejaVuSans-31"/>
       <use xlink:href="#DejaVuSans-38" x="63.623047"/>
       <use xlink:href="#DejaVuSans-30" x="127.246094"/>
       <use xlink:href="#DejaVuSans-b0" x="190.869141"/>
      </g>
     </g>
    </g>
   </g>
   <g id="matplotlib.axis_4"/>
   <g id="line2d_21">
    <path d="M 269.045 106.62 
L 269.045 106.62 
L 269.045 106.62 
L 269.045 106.62 
L 269.045 106.62 
L 269.045 106.62 
L 269.045 106.62 
L 269.045 106.62 
L 269.045 106.62 
L 269.045 106.62 
L 269.045 106.62 
L 269.045 106.62 
L 269.045 106.62 
L 269.045 106.62 
L 269.045 106.62 
L 269.045 106.62 
L 269.045 106.62 
L 269.045 106.62 
L 269.045 106.62 
L 269.045 106.62 
L 269.045 106.62 
L 269.045 106.62 
L 269.045 106.62 
L 269.045 106.62 
L 269.045 106.62 
L 269.045 106.62 
L 269.045 106.62 
L 269.045 106.62 
L 269.045 106.62 
L 269.045 106.62 
L 269.045 106.62 
L 269.045 106.62 
L 269.045 106.62 
L 269.045 106.62 
L 269.045 106.62 
L 269.045 106.62 
L 269.045 106.62 
L 269.045 106.62 
L 269.045 106.62 
L 269.045 106.62 
L 269.045 106.62 
L 269.045 106.62 
L 269.045 106.62 
L 269.045 106.62 
L 269.045 106.62 
" clip-path="url(#p21645f9040)" style="fill: none; stroke: #1f77b4; stroke-width: 1.5; stroke-linecap: square"/>
   </g>
   <g id="line2d_22">
    <path d="M 275.603102 106.505528 
L 275.92828 106.009536 
L 276.110342 105.483716 
L 276.1511 104.952685 
L 276.061583 104.438241 
L 275.861048 103.956926 
L 276.114484 103.261788 
L 277.287726 101.960805 
L 278.212385 100.541776 
L 278.858766 99.058661 
L 279.209078 97.569921 
L 279.258185 96.135872 
L 279.01377 94.815957 
L 278.495906 93.666051 
L 277.736059 92.735921 
L 276.775577 92.066975 
L 275.663725 91.690393 
L 274.5253 91.431916 
L 273.641019 90.348453 
L 272.592524 89.496494 
L 271.419775 88.907644 
L 270.168505 88.60274 
L 268.887659 88.59056 
L 267.585228 88.349827 
L 266.244233 88.179953 
L 264.920576 88.325256 
L 263.669968 88.786359 
L 262.546619 89.549616 
L 261.600535 90.588934 
L 260.874372 91.865998 
L 260.402435 93.334702 
L 260.208074 94.941267 
L 260.302939 96.627627 
L 260.685801 98.333432 
L 260.891501 99.611385 
L 260.670249 100.397268 
L 260.585003 101.220947 
L 260.637079 102.059189 
L 260.819319 102.887092 
L 261.117888 103.681236 
L 261.514159 104.421719 
L 261.985212 105.093034 
L 262.503573 105.684781 
L 263.038619 106.19281 
L 262.588257 106.62 
" clip-path="url(#p21645f9040)" style="fill: none; stroke: #ff7f0e; stroke-width: 1.5; stroke-linecap: square"/>
   </g>
   <g id="line2d_23">
    <path d="M 278.386081 106.456951 
L 278.841748 105.751147 
L 279.094067 105.003858 
L 279.146085 104.249966 
L 279.013736 103.520289 
L 278.724294 102.838237 
L 279.110802 101.838448 
L 280.78073 99.986387 
L 282.0966 97.966436 
L 283.016139 95.855476 
L 283.514078 93.736755 
L 283.58317 91.696151 
L 283.234417 89.818281 
L 282.496462 88.18266 
L 281.414166 86.860097 
L 280.046442 85.909483 
L 278.463461 85.375135 
L 276.817478 85.07938 
L 275.562202 83.546782 
L 274.074465 82.343333 
L 272.411382 81.511709 
L 270.637455 81.08235 
L 268.822014 81.068339 
L 266.974717 80.708807 
L 265.071837 80.460981 
L 263.19274 80.661077 
L 261.416791 81.310618 
L 259.820958 82.389669 
L 258.476407 83.861372 
L 257.443878 85.671429 
L 256.77219 87.754313 
L 256.494627 90.033639 
L 256.62792 92.426998 
L 257.17052 94.848695 
L 257.494972 96.691784 
L 257.1758 97.80077 
L 257.048511 98.964007 
L 257.11557 100.148973 
L 257.367654 101.320687 
L 257.785943 102.446007 
L 258.344064 103.496356 
L 259.008949 104.449295 
L 259.740921 105.289808 
L 260.4959 106.011965 
L 259.846414 106.62 
" clip-path="url(#p21645f9040)" style="fill: none; stroke: #2ca02c; stroke-width: 1.5; stroke-linecap: square"/>
   </g>
   <g id="line2d_24">
    <path d="M 279.340153 106.440297 
L 279.837728 105.662816 
L 280.111538 104.840223 
L 280.165286 104.01083 
L 280.016746 103.20841 
L 279.695836 102.458649 
L 280.148854 101.345343 
L 281.98928 99.303256 
L 283.439593 97.075995 
L 284.452768 94.748578 
L 285.000987 92.412815 
L 285.076309 90.163401 
L 284.690928 88.093623 
L 283.876633 86.290919 
L 282.682553 84.833832 
L 281.173836 83.787132 
L 279.428084 83.199272 
L 277.596404 82.920668 
L 276.21447 81.237522 
L 274.577226 79.916561 
L 272.747482 79.004895 
L 270.796326 78.534595 
L 268.799785 78.521095 
L 266.766948 78.108425 
L 264.672442 77.831396 
L 262.603717 78.04834 
L 260.648205 78.760553 
L 258.890669 79.945922 
L 257.409529 81.563934 
L 256.271791 83.55495 
L 255.531215 85.846695 
L 255.224528 88.355097 
L 255.370237 90.989439 
L 255.966816 93.65545 
L 256.349443 95.707106 
L 255.99502 96.92341 
L 255.850695 98.199577 
L 255.920173 99.50054 
L 256.193749 100.787955 
L 256.651157 102.025316 
L 257.26337 103.180897 
L 257.993576 104.22968 
L 258.797484 105.154926 
L 259.626131 105.950104 
L 258.905736 106.62 
" clip-path="url(#p21645f9040)" style="fill: none; stroke: #d62728; stroke-width: 1.5; stroke-linecap: square"/>
   </g>
   <g id="line2d_25">
    <path d="M 280.361183 106.422475 
L 280.900922 105.568523 
L 281.195234 104.665938 
L 281.248699 103.756627 
L 281.081052 102.877471 
L 280.724878 102.056596 
L 281.25312 100.820785 
L 283.275049 98.576475 
L 284.868005 96.12892 
L 285.980759 93.571287 
L 286.582639 91.004514 
L 286.664818 88.532751 
L 286.240608 86.258643 
L 285.344723 84.278672 
L 284.031564 82.678769 
L 282.372606 81.530415 
L 280.453001 80.887406 
L 278.413716 80.655572 
L 276.89803 78.817473 
L 275.1038 77.374845 
L 273.099306 76.380797 
L 270.962568 75.868638 
L 268.776527 75.856035 
L 266.548146 75.369939 
L 264.251434 75.059511 
L 261.982489 75.292754 
L 259.837176 76.069668 
L 257.90858 77.366105 
L 256.282838 79.137693 
L 255.033605 81.319111 
L 254.219892 83.830937 
L 253.882111 86.580982 
L 254.04069 89.469737 
L 254.694151 92.393843 
L 255.150991 94.676936 
L 254.757188 96.003657 
L 254.591853 97.396202 
L 254.660601 98.817295 
L 254.95392 100.225306 
L 255.450355 101.58015 
L 256.118026 102.846567 
L 256.915809 103.996569 
L 257.794022 105.011463 
L 258.698273 105.884113 
L 257.898362 106.62 
" clip-path="url(#p21645f9040)" style="fill: none; stroke: #9467bd; stroke-width: 1.5; stroke-linecap: square"/>
   </g>
   <g id="line2d_26">
    <path d="M 281.538703 106.401922 
L 282.124443 105.460012 
L 282.439928 104.46576 
L 282.490868 103.465175 
L 282.299146 102.498713 
L 281.900235 101.597376 
L 282.506754 100.225272 
L 284.736313 97.750497 
L 286.492551 95.051802 
L 287.719028 92.231981 
L 288.381986 89.402378 
L 288.471774 86.677858 
L 288.003157 84.171605 
L 287.0145 81.98998 
L 285.565877 80.227684 
L 283.73617 78.963468 
L 281.619331 78.256559 
L 279.332381 78.109588 
L 277.665741 76.099503 
L 275.694677 74.522747 
L 273.494085 73.436325 
L 271.149016 72.878626 
L 268.750438 72.866503 
L 266.300904 72.275527 
L 263.775411 71.925409 
L 261.279689 72.175339 
L 258.919249 73.024109 
L 256.796673 74.445272 
L 255.006906 76.390076 
L 253.631143 78.786635 
L 252.734405 81.547455 
L 252.361321 84.571132 
L 252.534538 87.748172 
L 253.252607 90.964824 
L 253.803342 93.518519 
L 253.362298 94.967205 
L 253.16971 96.48861 
L 253.233708 98.043288 
L 253.545853 99.58631 
L 254.083711 101.073504 
L 254.812076 102.465355 
L 255.684506 103.730249 
L 256.644642 104.847137 
L 257.631684 105.808254 
L 256.735928 106.62 
" clip-path="url(#p21645f9040)" style="fill: none; stroke: #8c564b; stroke-width: 1.5; stroke-linecap: square"/>
   </g>
   <g id="line2d_27">
    <path d="M 282.608895 106.383241 
L 283.234361 105.361575 
L 283.567131 104.284477 
L 283.614099 103.201629 
L 283.399264 102.156639 
L 282.960284 101.183209 
L 283.644402 99.684855 
L 286.062239 97.001018 
L 287.966456 94.074563 
L 289.295898 91.017029 
L 290.01403 87.949209 
L 290.110469 84.995691 
L 289.601323 82.279213 
L 288.528293 79.915089 
L 286.956614 78.005964 
L 284.971908 76.637157 
L 282.67612 75.872802 
L 280.182721 75.752959 
L 278.352988 73.666405 
L 276.223119 71.972017 
L 273.846902 70.804825 
L 271.31561 70.207018 
L 268.727123 70.194938 
L 266.07823 69.488582 
L 263.346401 69.100837 
L 260.645928 69.36416 
L 258.091236 70.276873 
L 255.793532 71.810156 
L 253.855537 73.910694 
L 252.365336 76.500919 
L 251.393406 79.48608 
L 250.988213 82.756455 
L 251.174428 86.193535 
L 251.950623 89.674153 
L 252.599584 92.483788 
L 252.113923 94.039619 
L 251.893721 95.674292 
L 251.950354 97.347143 
L 252.276927 99.010456 
L 252.85044 100.616302 
L 253.632543 102.121045 
L 254.571541 103.489525 
L 255.604446 104.698422 
L 256.652622 105.73862 
L 255.678923 106.62 
" clip-path="url(#p21645f9040)" style="fill: none; stroke: #e377c2; stroke-width: 1.5; stroke-linecap: square"/>
   </g>
   <g id="line2d_28">
    <path d="M 283.549945 106.366815 
L 284.208699 105.275163 
L 284.55515 104.125579 
L 284.597216 102.970959 
L 284.361055 101.857577 
L 283.886029 100.821514 
L 284.645535 99.209288 
L 287.227781 96.342196 
L 289.261858 93.215676 
L 290.681564 89.949397 
L 291.447939 86.672459 
L 291.550266 83.517699 
L 291.005879 80.616075 
L 289.858894 78.091291 
L 288.178978 76.053221 
L 286.057642 74.593233 
L 283.603898 73.780048 
L 280.939772 73.654869 
L 278.949076 71.55604 
L 276.681273 69.76056 
L 274.152475 68.525699 
L 271.459913 67.892885 
L 268.706931 67.881123 
L 265.883729 67.054254 
L 262.971554 66.632875 
L 260.091909 66.906695 
L 257.367264 67.874828 
L 254.916258 69.505673 
L 252.848464 71.742042 
L 251.25798 74.501327 
L 250.220089 77.682464 
L 249.786625 81.168457 
L 249.98405 84.832907 
L 250.810934 88.544366 
L 251.557681 91.588185 
L 251.031297 93.23519 
L 250.783763 94.965932 
L 250.831308 96.740125 
L 251.169033 98.507681 
L 251.772466 100.216672 
L 252.600917 101.819909 
L 253.597566 103.278864 
L 254.693358 104.568165 
L 255.78032 105.67658 
L 254.749061 106.62 
" clip-path="url(#p21645f9040)" style="fill: none; stroke: #7f7f7f; stroke-width: 1.5; stroke-linecap: square"/>
   </g>
   <g id="line2d_29">
    <path d="M 284.369038 106.352518 
L 285.055437 105.200068 
L 285.412634 103.987674 
L 285.449097 102.771081 
L 285.193357 101.598778 
L 284.686025 100.50895 
L 285.517751 98.79496 
L 288.243419 95.768108 
L 290.389904 92.467751 
L 291.888144 89.019749 
L 292.696847 85.560433 
L 292.804244 82.230454 
L 292.228473 79.1684 
L 291.016583 76.504497 
L 289.242214 74.354688 
L 287.002053 72.815354 
L 284.411244 71.958947 
L 281.597978 71.83072 
L 279.461563 69.741653 
L 277.074451 67.862731 
L 274.414663 66.570154 
L 271.583695 65.907825 
L 268.689608 65.896132 
L 265.715396 64.94744 
L 262.647038 64.496285 
L 259.612177 64.778743 
L 256.740219 65.794378 
L 254.156293 67.509345 
L 251.97593 69.86311 
L 250.298418 72.768611 
L 249.203229 76.119354 
L 248.745129 79.792034 
L 248.952142 83.653412 
L 249.822816 87.564834 
L 250.664346 90.820289 
L 250.100904 92.543876 
L 249.827498 94.355657 
L 249.864921 96.215916 
L 250.210401 98.072643 
L 250.839134 99.870664 
L 251.707332 101.559068 
L 252.753615 103.096325 
L 253.903302 104.455212 
L 255.019504 105.622468 
L 253.939379 106.62 
" clip-path="url(#p21645f9040)" style="fill: none; stroke: #bcbd22; stroke-width: 1.5; stroke-linecap: square"/>
   </g>
   <g id="line2d_30">
    <path d="M 285.353063 106.335342 
L 286.071389 105.109965 
L 286.440298 103.8224 
L 286.468998 102.53178 
L 286.188072 101.289478 
L 285.640422 100.136061 
L 286.539778 98.309467 
L 289.435633 95.09421 
L 291.715882 91.588592 
L 293.307205 87.926386 
L 294.165812 84.252468 
L 294.27929 80.716277 
L 293.667006 77.465029 
L 292.379042 74.637033 
L 290.493722 72.355387 
L 288.113838 70.722388 
L 285.361767 69.81489 
L 282.373717 69.680839 
L 280.058664 67.627702 
L 277.532547 65.651553 
L 274.720023 64.292614 
L 271.727813 63.596669 
L 268.66943 63.583947 
L 265.517587 62.471705 
L 262.265358 61.98333 
L 259.047879 62.275681 
L 256.002476 63.346643 
L 253.262037 65.160254 
L 250.949207 67.652143 
L 249.169322 70.72976 
L 248.006853 74.280291 
L 247.520042 78.172979 
L 247.738768 82.266499 
L 248.661447 86.413556 
L 249.618182 89.921023 
L 249.008555 91.732222 
L 248.701323 93.636947 
L 248.724042 95.597055 
L 249.075864 97.557777 
L 249.732501 99.460409 
L 250.64594 101.249244 
L 251.749106 102.879059 
L 252.960298 104.320392 
L 254.10392 105.55735 
L 252.966335 106.62 
" clip-path="url(#p21645f9040)" style="fill: none; stroke: #17becf; stroke-width: 1.5; stroke-linecap: square"/>
   </g>
   <g id="line2d_31">
    <path d="M 286.146016 106.321501 
L 286.889427 105.037415 
L 287.266786 103.68948 
L 287.288557 102.339485 
L 286.986903 101.041087 
L 286.407076 99.836525 
L 287.375544 97.912453 
L 290.409484 94.543742 
L 292.798247 90.870955 
L 294.464928 87.03438 
L 295.363718 83.185855 
L 295.481699 79.481969 
L 294.839702 76.076438 
L 293.490089 73.114169 
L 291.514382 70.724869 
L 289.020282 69.015981 
L 286.136088 68.068284 
L 283.005036 67.931204 
L 280.541373 65.91874 
L 277.902251 63.867035 
L 274.966224 62.456318 
L 271.84399 61.733576 
L 268.653162 61.719824 
L 265.357111 60.463222 
L 261.955628 59.944087 
L 258.589888 60.244164 
L 255.40364 61.359787 
L 252.536074 63.253245 
L 250.115602 65.85704 
L 248.252449 69.074129 
L 247.035149 72.786594 
L 246.524764 76.857636 
L 246.752581 81.139265 
L 247.717205 85.477518 
L 248.77823 89.199014 
L 248.130151 91.079538 
L 247.793605 93.057654 
L 247.802979 95.097431 
L 248.159976 97.142137 
L 248.839197 99.129241 
L 249.789664 100.999294 
L 250.939355 102.703917 
L 252.20061 104.21178 
L 253.365167 105.504807 
L 252.182029 106.62 
" clip-path="url(#p21645f9040)" style="fill: none; stroke: #1f77b4; stroke-width: 1.5; stroke-linecap: square"/>
   </g>
   <g id="line2d_32">
    <path d="M 286.730949 106.311291 
L 287.492352 104.983943 
L 287.875418 103.591597 
L 287.891652 102.19798 
L 287.57449 100.858381 
L 286.970938 99.61622 
L 288.007131 97.612431 
L 291.143113 94.129058 
L 293.612827 90.330866 
L 295.33557 86.363566 
L 296.264274 82.384001 
L 296.386164 78.55351 
L 295.721617 75.03216 
L 294.324852 71.969996 
L 292.28074 69.500603 
L 289.700728 67.735022 
L 286.717549 66.756704 
L 283.478975 66.61773 
L 280.901088 64.645223 
L 278.177579 62.538056 
L 275.149498 61.089359 
L 271.930454 60.346982 
L 268.640928 60.317926 
L 265.237196 58.962397 
L 261.724242 58.420657 
L 258.247687 58.726259 
L 254.956131 59.87501 
L 251.993476 61.827913 
L 249.492426 64.515081 
L 247.566866 67.836146 
L 246.308355 71.669371 
L 245.780065 75.873454 
L 246.014295 80.295386 
L 247.009933 84.776391 
L 248.157058 88.665065 
L 247.479486 90.596071 
L 247.120767 92.628258 
L 247.119736 94.726811 
L 247.480623 96.833839 
L 248.177021 98.883757 
L 249.155677 100.81423 
L 250.340683 102.57443 
L 251.639772 104.131598 
L 252.819642 105.466008 
L 251.60335 106.62 
" clip-path="url(#p21645f9040)" style="fill: none; stroke: #ff7f0e; stroke-width: 1.5; stroke-linecap: square"/>
   </g>
   <g id="line2d_33">
    <path d="M 287.103608 106.304786 
L 287.876124 104.949907 
L 288.262453 103.529352 
L 288.274836 102.108073 
L 287.947698 100.742334 
L 287.329026 99.476313 
L 288.427058 97.412953 
L 291.630334 93.853657 
L 294.152292 89.973187 
L 295.911681 85.919682 
L 296.859946 81.853616 
L 296.983289 77.940545 
L 296.303126 74.343593 
L 294.874925 71.216034 
L 292.785462 68.694304 
L 290.148653 66.891793 
L 287.100149 65.893687 
L 283.790951 65.753121 
L 281.136992 63.810039 
L 278.357971 61.667323 
L 275.269461 60.194615 
L 271.987025 59.439771 
L 268.632656 59.370045 
L 265.158825 57.981522 
L 261.573033 57.425109 
L 258.024006 57.734077 
L 254.663529 58.904195 
L 251.638599 60.895698 
L 249.084675 63.637019 
L 247.118081 67.02576 
L 245.832335 70.937636 
L 245.291983 75.228414 
L 245.530038 79.741871 
L 246.545499 84.315993 
L 247.755361 88.319772 
L 247.058403 90.283191 
L 246.685069 92.350202 
L 246.677898 94.48714 
L 247.041826 96.634708 
L 247.750111 98.725492 
L 248.747971 100.695219 
L 249.956874 102.491416 
L 251.281473 104.080372 
L 252.471759 105.441266 
L 251.234597 106.62 
" clip-path="url(#p21645f9040)" style="fill: none; stroke: #2ca02c; stroke-width: 1.5; stroke-linecap: square"/>
   </g>
   <g id="line2d_34">
    <path d="M 287.276013 106.301776 
L 288.053373 104.934187 
L 288.440845 103.500662 
L 288.451101 102.066716 
L 288.119171 100.689016 
L 287.493692 99.411977 
L 288.650968 97.306589 
L 291.8882 93.707898 
L 294.436492 89.784754 
L 296.213756 85.686939 
L 297.170962 81.576688 
L 297.294223 77.621362 
L 296.605249 73.985849 
L 295.160167 70.825065 
L 293.046751 68.276891 
L 290.380199 66.455901 
L 287.297669 65.448149 
L 283.951823 65.307282 
L 281.258771 63.378898 
L 278.45103 61.218139 
L 275.331245 59.733791 
L 272.016123 58.973133 
L 268.62846 58.889259 
L 265.119091 57.484215 
L 261.496377 56.92041 
L 257.910583 57.230963 
L 254.515073 58.411638 
L 251.458436 60.422433 
L 248.877423 63.190719 
L 246.889693 66.613352 
L 245.589697 70.564655 
L 245.042681 74.898941 
L 245.282125 79.4585 
L 246.306895 84.079461 
L 247.555845 88.148272 
L 246.849483 90.127956 
L 246.469551 92.212662 
L 246.460399 94.369159 
L 246.827075 96.537251 
L 247.542676 98.648591 
L 248.551651 100.637913 
L 249.774126 102.451889 
L 251.113208 104.056316 
L 252.310643 105.429807 
L 251.063947 106.62 
" clip-path="url(#p21645f9040)" style="fill: none; stroke: #d62728; stroke-width: 1.5; stroke-linecap: square"/>
   </g>
   <g id="patch_7">
    <path d="M 322.205 106.62 
C 322.205 92.526499 316.600407 78.995814 306.634796 69.030204 
C 296.669186 59.064593 283.138501 53.46 269.045 53.46 
C 254.951499 53.46 241.420814 59.064593 231.455204 69.030204 
C 221.489593 78.995814 215.885 92.526499 215.885 106.62 
" style="fill: none; stroke: #000000; stroke-width: 0.8; stroke-linejoin: miter; stroke-linecap: square"/>
   </g>
   <g id="patch_8">
    <path d="M 269.045 106.62 
L 322.205 106.62 
" style="fill: none; stroke: #000000; stroke-width: 0.8; stroke-linejoin: miter; stroke-linecap: square"/>
   </g>
   <g id="patch_9">
    <path d="M 269.045 106.62 
L 215.885 106.62 
" style="fill: none; stroke: #000000; stroke-width: 0.8; stroke-linejoin: miter; stroke-linecap: square"/>
   </g>
   <g id="text_8">
    <!-- Y -->
    <g transform="translate(265.380312 20.88) scale(0.12 -0.12)">
     <defs>
      <path id="DejaVuSans-59" d="M -13 4666 
L 666 4666 
L 1959 2747 
L 3244 4666 
L 3922 4666 
L 2272 2222 
L 2272 0 
L 1638 0 
L 1638 2222 
L -13 4666 
z
" transform="scale(0.015625)"/>
     </defs>
     <use xlink:href="#DejaVuSans-59"/>
    </g>
   </g>
  </g>
 </g>
 <defs>
  <clipPath id="p48a7d251a3">
   <path d="M 150.505 106.62 
C 150.505 92.526499 144.900407 78.995814 134.934796 69.030204 
C 124.969186 59.064593 111.438501 53.46 97.345 53.46 
C 83.251499 53.46 69.720814 59.064593 59.755204 69.030204 
C 49.789593 78.995814 44.185 92.526499 44.185 106.62 
L 97.345 106.62 
C 97.345 106.62 97.345 106.62 97.345 106.62 
C 97.345 106.62 97.345 106.62 97.345 106.62 
C 97.345 106.62 97.345 106.62 97.345 106.62 
C 97.345 106.62 97.345 106.62 97.345 106.62 
z
"/>
  </clipPath>
  <clipPath id="p21645f9040">
   <path d="M 322.205 106.62 
C 322.205 92.526499 316.600407 78.995814 306.634796 69.030204 
C 296.669186 59.064593 283.138501 53.46 269.045 53.46 
C 254.951499 53.46 241.420814 59.064593 231.455204 69.030204 
C 221.489593 78.995814 215.885 92.526499 215.885 106.62 
L 269.045 106.62 
C 269.045 106.62 269.045 106.62 269.045 106.62 
C 269.045 106.62 269.045 106.62 269.045 106.62 
C 269.045 106.62 269.045 106.62 269.045 106.62 
C 269.045 106.62 269.045 106.62 269.045 106.62 
z
"/>
  </clipPath>
 </defs>
</svg>
