<?xml version="1.0" encoding="utf-8" standalone="no"?>
<!DOCTYPE svg PUBLIC "-//W3C//DTD SVG 1.1//EN"
  "http://www.w3.org/Graphics/SVG/1.1/DTD/svg11.dtd">
<svg xmlns:xlink="http://www.w3.org/1999/xlink" width="295.47pt" height="100.68pt" viewBox="0 0 295.47 100.68" xmlns="http://www.w3.org/2000/svg" version="1.1">
 <metadata>
  <rdf:RDF xmlns:dc="http://purl.org/dc/elements/1.1/" xmlns:cc="http://creativecommons.org/ns#" xmlns:rdf="http://www.w3.org/1999/02/22-rdf-syntax-ns#">
   <cc:Work>
    <dc:type rdf:resource="http://purl.org/dc/dcmitype/StillImage"/>
    <dc:date>2023-06-18T18:45:17.422828</dc:date>
    <dc:format>image/svg+xml</dc:format>
    <dc:creator>
     <cc:Agent>
      <dc:title>Matplotlib v3.7.1, https://matplotlib.org/</dc:title>
     </cc:Agent>
    </dc:creator>
   </cc:Work>
  </rdf:RDF>
 </metadata>
 <defs>
  <style type="text/css">*{stroke-linejoin: round; stroke-linecap: butt}</style>
 </defs>
 <g id="figure_1">
  <g id="patch_1">
   <path d="M -0 100.68 
L 295.47 100.68 
L 295.47 -0 
L -0 -0 
z
" style="fill: #ffffff"/>
  </g>
  <g id="axes_1">
   <g id="patch_2">
    <path d="M -1.4 102.08 
L 355.72 102.08 
L 355.72 -164.032 
L -1.4 -164.032 
z
" style="fill: #ffffff"/>
   </g>
   <g id="matplotlib.axis_1">
    <g id="xtick_1">
     <g id="line2d_1">
      <defs>
       <path id="mfd5ce563e7" d="M 0 0 
L 0 3.5 
" style="stroke: #000000; stroke-width: 0.8"/>
      </defs>
      <g>
       <use xlink:href="#mfd5ce563e7" x="47.298182" y="102.08" style="stroke: #000000; stroke-width: 0.8"/>
      </g>
     </g>
     <g id="text_1">
      <!-- −0.04 -->
      <g transform="translate(31.975526 116.678438) scale(0.1 -0.1)">
       <defs>
        <path id="DejaVuSans-2212" d="M 678 2272 
L 4684 2272 
L 4684 1741 
L 678 1741 
L 678 2272 
z
" transform="scale(0.015625)"/>
        <path id="DejaVuSans-30" d="M 2034 4250 
Q 1547 4250 1301 3770 
Q 1056 3291 1056 2328 
Q 1056 1369 1301 889 
Q 1547 409 2034 409 
Q 2525 409 2770 889 
Q 3016 1369 3016 2328 
Q 3016 3291 2770 3770 
Q 2525 4250 2034 4250 
z
M 2034 4750 
Q 2819 4750 3233 4129 
Q 3647 3509 3647 2328 
Q 3647 1150 3233 529 
Q 2819 -91 2034 -91 
Q 1250 -91 836 529 
Q 422 1150 422 2328 
Q 422 3509 836 4129 
Q 1250 4750 2034 4750 
z
" transform="scale(0.015625)"/>
        <path id="DejaVuSans-2e" d="M 684 794 
L 1344 794 
L 1344 0 
L 684 0 
L 684 794 
z
" transform="scale(0.015625)"/>
        <path id="DejaVuSans-34" d="M 2419 4116 
L 825 1625 
L 2419 1625 
L 2419 4116 
z
M 2253 4666 
L 3047 4666 
L 3047 1625 
L 3713 1625 
L 3713 1100 
L 3047 1100 
L 3047 0 
L 2419 0 
L 2419 1100 
L 313 1100 
L 313 1709 
L 2253 4666 
z
" transform="scale(0.015625)"/>
       </defs>
       <use xlink:href="#DejaVuSans-2212"/>
       <use xlink:href="#DejaVuSans-30" x="83.789062"/>
       <use xlink:href="#DejaVuSans-2e" x="147.412109"/>
       <use xlink:href="#DejaVuSans-30" x="179.199219"/>
       <use xlink:href="#DejaVuSans-34" x="242.822266"/>
      </g>
     </g>
    </g>
    <g id="xtick_2">
     <g id="line2d_2">
      <g>
       <use xlink:href="#mfd5ce563e7" x="112.229091" y="102.08" style="stroke: #000000; stroke-width: 0.8"/>
      </g>
     </g>
     <g id="text_2">
      <!-- −0.02 -->
      <g transform="translate(96.906435 116.678438) scale(0.1 -0.1)">
       <defs>
        <path id="DejaVuSans-32" d="M 1228 531 
L 3431 531 
L 3431 0 
L 469 0 
L 469 531 
Q 828 903 1448 1529 
Q 2069 2156 2228 2338 
Q 2531 2678 2651 2914 
Q 2772 3150 2772 3378 
Q 2772 3750 2511 3984 
Q 2250 4219 1831 4219 
Q 1534 4219 1204 4116 
Q 875 4013 500 3803 
L 500 4441 
Q 881 4594 1212 4672 
Q 1544 4750 1819 4750 
Q 2544 4750 2975 4387 
Q 3406 4025 3406 3419 
Q 3406 3131 3298 2873 
Q 3191 2616 2906 2266 
Q 2828 2175 2409 1742 
Q 1991 1309 1228 531 
z
" transform="scale(0.015625)"/>
       </defs>
       <use xlink:href="#DejaVuSans-2212"/>
       <use xlink:href="#DejaVuSans-30" x="83.789062"/>
       <use xlink:href="#DejaVuSans-2e" x="147.412109"/>
       <use xlink:href="#DejaVuSans-30" x="179.199219"/>
       <use xlink:href="#DejaVuSans-32" x="242.822266"/>
      </g>
     </g>
    </g>
    <g id="xtick_3">
     <g id="line2d_3">
      <g>
       <use xlink:href="#mfd5ce563e7" x="177.16" y="102.08" style="stroke: #000000; stroke-width: 0.8"/>
      </g>
     </g>
     <g id="text_3">
      <!-- 0.00 -->
      <g transform="translate(166.027187 116.678438) scale(0.1 -0.1)">
       <use xlink:href="#DejaVuSans-30"/>
       <use xlink:href="#DejaVuSans-2e" x="63.623047"/>
       <use xlink:href="#DejaVuSans-30" x="95.410156"/>
       <use xlink:href="#DejaVuSans-30" x="159.033203"/>
      </g>
     </g>
    </g>
    <g id="xtick_4">
     <g id="line2d_4">
      <g>
       <use xlink:href="#mfd5ce563e7" x="242.090909" y="102.08" style="stroke: #000000; stroke-width: 0.8"/>
      </g>
     </g>
     <g id="text_4">
      <!-- 0.02 -->
      <g transform="translate(230.958097 116.678438) scale(0.1 -0.1)">
       <use xlink:href="#DejaVuSans-30"/>
       <use xlink:href="#DejaVuSans-2e" x="63.623047"/>
       <use xlink:href="#DejaVuSans-30" x="95.410156"/>
       <use xlink:href="#DejaVuSans-32" x="159.033203"/>
      </g>
     </g>
    </g>
    <g id="xtick_5">
     <g id="line2d_5">
      <g>
       <use xlink:href="#mfd5ce563e7" x="307.021818" y="102.08" style="stroke: #000000; stroke-width: 0.8"/>
      </g>
     </g>
     <g id="text_5">
      <!-- 0.04 -->
      <g transform="translate(295.889006 116.678438) scale(0.1 -0.1)">
       <use xlink:href="#DejaVuSans-30"/>
       <use xlink:href="#DejaVuSans-2e" x="63.623047"/>
       <use xlink:href="#DejaVuSans-30" x="95.410156"/>
       <use xlink:href="#DejaVuSans-34" x="159.033203"/>
      </g>
     </g>
    </g>
   </g>
   <g id="matplotlib.axis_2">
    <g id="ytick_1">
     <g id="line2d_6">
      <defs>
       <path id="m3206f479c9" d="M 0 0 
L -3.5 0 
" style="stroke: #000000; stroke-width: 0.8"/>
      </defs>
      <g/>
     </g>
     <g id="text_6">
      <!-- −0.04 -->
      <g transform="translate(-39.045313 69.591219) scale(0.1 -0.1)">
       <use xlink:href="#DejaVuSans-2212"/>
       <use xlink:href="#DejaVuSans-30" x="83.789062"/>
       <use xlink:href="#DejaVuSans-2e" x="147.412109"/>
       <use xlink:href="#DejaVuSans-30" x="179.199219"/>
       <use xlink:href="#DejaVuSans-34" x="242.822266"/>
      </g>
     </g>
    </g>
    <g id="ytick_2">
     <g id="line2d_7">
      <g/>
     </g>
     <g id="text_7">
      <!-- −0.02 -->
      <g transform="translate(-39.045313 21.207219) scale(0.1 -0.1)">
       <use xlink:href="#DejaVuSans-2212"/>
       <use xlink:href="#DejaVuSans-30" x="83.789062"/>
       <use xlink:href="#DejaVuSans-2e" x="147.412109"/>
       <use xlink:href="#DejaVuSans-30" x="179.199219"/>
       <use xlink:href="#DejaVuSans-32" x="242.822266"/>
      </g>
     </g>
    </g>
    <g id="ytick_3">
     <g id="line2d_8">
      <g/>
     </g>
     <g id="text_8">
      <!-- 0.00 -->
      <g transform="translate(-30.665625 -27.176781) scale(0.1 -0.1)">
       <use xlink:href="#DejaVuSans-30"/>
       <use xlink:href="#DejaVuSans-2e" x="63.623047"/>
       <use xlink:href="#DejaVuSans-30" x="95.410156"/>
       <use xlink:href="#DejaVuSans-30" x="159.033203"/>
      </g>
     </g>
    </g>
    <g id="ytick_4">
     <g id="line2d_9">
      <g/>
     </g>
     <g id="text_9">
      <!-- 0.02 -->
      <g transform="translate(-30.665625 -75.560781) scale(0.1 -0.1)">
       <use xlink:href="#DejaVuSans-30"/>
       <use xlink:href="#DejaVuSans-2e" x="63.623047"/>
       <use xlink:href="#DejaVuSans-30" x="95.410156"/>
       <use xlink:href="#DejaVuSans-32" x="159.033203"/>
      </g>
     </g>
    </g>
    <g id="ytick_5">
     <g id="line2d_10">
      <g/>
     </g>
     <g id="text_10">
      <!-- 0.04 -->
      <g transform="translate(-30.665625 -123.944781) scale(0.1 -0.1)">
       <use xlink:href="#DejaVuSans-30"/>
       <use xlink:href="#DejaVuSans-2e" x="63.623047"/>
       <use xlink:href="#DejaVuSans-30" x="95.410156"/>
       <use xlink:href="#DejaVuSans-34" x="159.033203"/>
      </g>
     </g>
    </g>
   </g>
   <g id="line2d_11"/>
   <g id="line2d_12"/>
   <g id="line2d_13"/>
   <g id="line2d_14"/>
   <g id="line2d_15"/>
   <g id="line2d_16"/>
   <g id="patch_3">
    <path style="fill: none; stroke: #000000; stroke-width: 0.8; stroke-linejoin: miter; stroke-linecap: square"/>
   </g>
   <g id="patch_4">
    <path style="fill: none; stroke: #000000; stroke-width: 0.8; stroke-linejoin: miter; stroke-linecap: square"/>
   </g>
   <g id="patch_5">
    <path style="fill: none; stroke: #000000; stroke-width: 0.8; stroke-linejoin: miter; stroke-linecap: square"/>
   </g>
   <g id="patch_6">
    <path style="fill: none; stroke: #000000; stroke-width: 0.8; stroke-linejoin: miter; stroke-linecap: square"/>
   </g>
   <g id="legend_1">
    <g id="patch_7">
     <path d="M 5.6 97.08 
L 289.895313 97.08 
Q 291.895313 97.08 291.895313 95.08 
L 291.895313 8.01125 
Q 291.895313 6.01125 289.895313 6.01125 
L 5.6 6.01125 
Q 3.6 6.01125 3.6 8.01125 
L 3.6 95.08 
Q 3.6 97.08 5.6 97.08 
z
" style="fill: #ffffff; stroke: #cccccc; stroke-linejoin: miter"/>
    </g>
    <g id="line2d_17">
     <defs>
      <path id="mc845bc0290" d="M -3 3 
L 3 3 
L 3 -3 
L -3 -3 
z
" style="stroke: #d55e00; stroke-linejoin: miter"/>
     </defs>
     <g>
      <use xlink:href="#mc845bc0290" x="17.6" y="14.109688" style="fill: #d55e00; stroke: #d55e00; stroke-linejoin: miter"/>
     </g>
    </g>
    <g id="text_11">
     <!-- Time History Analysis -->
     <g transform="translate(35.6 17.609688) scale(0.1 -0.1)">
      <defs>
       <path id="DejaVuSans-54" d="M -19 4666 
L 3928 4666 
L 3928 4134 
L 2272 4134 
L 2272 0 
L 1638 0 
L 1638 4134 
L -19 4134 
L -19 4666 
z
" transform="scale(0.015625)"/>
       <path id="DejaVuSans-69" d="M 603 3500 
L 1178 3500 
L 1178 0 
L 603 0 
L 603 3500 
z
M 603 4863 
L 1178 4863 
L 1178 4134 
L 603 4134 
L 603 4863 
z
" transform="scale(0.015625)"/>
       <path id="DejaVuSans-6d" d="M 3328 2828 
Q 3544 3216 3844 3400 
Q 4144 3584 4550 3584 
Q 5097 3584 5394 3201 
Q 5691 2819 5691 2113 
L 5691 0 
L 5113 0 
L 5113 2094 
Q 5113 2597 4934 2840 
Q 4756 3084 4391 3084 
Q 3944 3084 3684 2787 
Q 3425 2491 3425 1978 
L 3425 0 
L 2847 0 
L 2847 2094 
Q 2847 2600 2669 2842 
Q 2491 3084 2119 3084 
Q 1678 3084 1418 2786 
Q 1159 2488 1159 1978 
L 1159 0 
L 581 0 
L 581 3500 
L 1159 3500 
L 1159 2956 
Q 1356 3278 1631 3431 
Q 1906 3584 2284 3584 
Q 2666 3584 2933 3390 
Q 3200 3197 3328 2828 
z
" transform="scale(0.015625)"/>
       <path id="DejaVuSans-65" d="M 3597 1894 
L 3597 1613 
L 953 1613 
Q 991 1019 1311 708 
Q 1631 397 2203 397 
Q 2534 397 2845 478 
Q 3156 559 3463 722 
L 3463 178 
Q 3153 47 2828 -22 
Q 2503 -91 2169 -91 
Q 1331 -91 842 396 
Q 353 884 353 1716 
Q 353 2575 817 3079 
Q 1281 3584 2069 3584 
Q 2775 3584 3186 3129 
Q 3597 2675 3597 1894 
z
M 3022 2063 
Q 3016 2534 2758 2815 
Q 2500 3097 2075 3097 
Q 1594 3097 1305 2825 
Q 1016 2553 972 2059 
L 3022 2063 
z
" transform="scale(0.015625)"/>
       <path id="DejaVuSans-20" transform="scale(0.015625)"/>
       <path id="DejaVuSans-48" d="M 628 4666 
L 1259 4666 
L 1259 2753 
L 3553 2753 
L 3553 4666 
L 4184 4666 
L 4184 0 
L 3553 0 
L 3553 2222 
L 1259 2222 
L 1259 0 
L 628 0 
L 628 4666 
z
" transform="scale(0.015625)"/>
       <path id="DejaVuSans-73" d="M 2834 3397 
L 2834 2853 
Q 2591 2978 2328 3040 
Q 2066 3103 1784 3103 
Q 1356 3103 1142 2972 
Q 928 2841 928 2578 
Q 928 2378 1081 2264 
Q 1234 2150 1697 2047 
L 1894 2003 
Q 2506 1872 2764 1633 
Q 3022 1394 3022 966 
Q 3022 478 2636 193 
Q 2250 -91 1575 -91 
Q 1294 -91 989 -36 
Q 684 19 347 128 
L 347 722 
Q 666 556 975 473 
Q 1284 391 1588 391 
Q 1994 391 2212 530 
Q 2431 669 2431 922 
Q 2431 1156 2273 1281 
Q 2116 1406 1581 1522 
L 1381 1569 
Q 847 1681 609 1914 
Q 372 2147 372 2553 
Q 372 3047 722 3315 
Q 1072 3584 1716 3584 
Q 2034 3584 2315 3537 
Q 2597 3491 2834 3397 
z
" transform="scale(0.015625)"/>
       <path id="DejaVuSans-74" d="M 1172 4494 
L 1172 3500 
L 2356 3500 
L 2356 3053 
L 1172 3053 
L 1172 1153 
Q 1172 725 1289 603 
Q 1406 481 1766 481 
L 2356 481 
L 2356 0 
L 1766 0 
Q 1100 0 847 248 
Q 594 497 594 1153 
L 594 3053 
L 172 3053 
L 172 3500 
L 594 3500 
L 594 4494 
L 1172 4494 
z
" transform="scale(0.015625)"/>
       <path id="DejaVuSans-6f" d="M 1959 3097 
Q 1497 3097 1228 2736 
Q 959 2375 959 1747 
Q 959 1119 1226 758 
Q 1494 397 1959 397 
Q 2419 397 2687 759 
Q 2956 1122 2956 1747 
Q 2956 2369 2687 2733 
Q 2419 3097 1959 3097 
z
M 1959 3584 
Q 2709 3584 3137 3096 
Q 3566 2609 3566 1747 
Q 3566 888 3137 398 
Q 2709 -91 1959 -91 
Q 1206 -91 779 398 
Q 353 888 353 1747 
Q 353 2609 779 3096 
Q 1206 3584 1959 3584 
z
" transform="scale(0.015625)"/>
       <path id="DejaVuSans-72" d="M 2631 2963 
Q 2534 3019 2420 3045 
Q 2306 3072 2169 3072 
Q 1681 3072 1420 2755 
Q 1159 2438 1159 1844 
L 1159 0 
L 581 0 
L 581 3500 
L 1159 3500 
L 1159 2956 
Q 1341 3275 1631 3429 
Q 1922 3584 2338 3584 
Q 2397 3584 2469 3576 
Q 2541 3569 2628 3553 
L 2631 2963 
z
" transform="scale(0.015625)"/>
       <path id="DejaVuSans-79" d="M 2059 -325 
Q 1816 -950 1584 -1140 
Q 1353 -1331 966 -1331 
L 506 -1331 
L 506 -850 
L 844 -850 
Q 1081 -850 1212 -737 
Q 1344 -625 1503 -206 
L 1606 56 
L 191 3500 
L 800 3500 
L 1894 763 
L 2988 3500 
L 3597 3500 
L 2059 -325 
z
" transform="scale(0.015625)"/>
       <path id="DejaVuSans-41" d="M 2188 4044 
L 1331 1722 
L 3047 1722 
L 2188 4044 
z
M 1831 4666 
L 2547 4666 
L 4325 0 
L 3669 0 
L 3244 1197 
L 1141 1197 
L 716 0 
L 50 0 
L 1831 4666 
z
" transform="scale(0.015625)"/>
       <path id="DejaVuSans-6e" d="M 3513 2113 
L 3513 0 
L 2938 0 
L 2938 2094 
Q 2938 2591 2744 2837 
Q 2550 3084 2163 3084 
Q 1697 3084 1428 2787 
Q 1159 2491 1159 1978 
L 1159 0 
L 581 0 
L 581 3500 
L 1159 3500 
L 1159 2956 
Q 1366 3272 1645 3428 
Q 1925 3584 2291 3584 
Q 2894 3584 3203 3211 
Q 3513 2838 3513 2113 
z
" transform="scale(0.015625)"/>
       <path id="DejaVuSans-61" d="M 2194 1759 
Q 1497 1759 1228 1600 
Q 959 1441 959 1056 
Q 959 750 1161 570 
Q 1363 391 1709 391 
Q 2188 391 2477 730 
Q 2766 1069 2766 1631 
L 2766 1759 
L 2194 1759 
z
M 3341 1997 
L 3341 0 
L 2766 0 
L 2766 531 
Q 2569 213 2275 61 
Q 1981 -91 1556 -91 
Q 1019 -91 701 211 
Q 384 513 384 1019 
Q 384 1609 779 1909 
Q 1175 2209 1959 2209 
L 2766 2209 
L 2766 2266 
Q 2766 2663 2505 2880 
Q 2244 3097 1772 3097 
Q 1472 3097 1187 3025 
Q 903 2953 641 2809 
L 641 3341 
Q 956 3463 1253 3523 
Q 1550 3584 1831 3584 
Q 2591 3584 2966 3190 
Q 3341 2797 3341 1997 
z
" transform="scale(0.015625)"/>
       <path id="DejaVuSans-6c" d="M 603 4863 
L 1178 4863 
L 1178 0 
L 603 0 
L 603 4863 
z
" transform="scale(0.015625)"/>
      </defs>
      <use xlink:href="#DejaVuSans-54"/>
      <use xlink:href="#DejaVuSans-69" x="57.958984"/>
      <use xlink:href="#DejaVuSans-6d" x="85.742188"/>
      <use xlink:href="#DejaVuSans-65" x="183.154297"/>
      <use xlink:href="#DejaVuSans-20" x="244.677734"/>
      <use xlink:href="#DejaVuSans-48" x="276.464844"/>
      <use xlink:href="#DejaVuSans-69" x="351.660156"/>
      <use xlink:href="#DejaVuSans-73" x="379.443359"/>
      <use xlink:href="#DejaVuSans-74" x="431.542969"/>
      <use xlink:href="#DejaVuSans-6f" x="470.751953"/>
      <use xlink:href="#DejaVuSans-72" x="531.933594"/>
      <use xlink:href="#DejaVuSans-79" x="573.046875"/>
      <use xlink:href="#DejaVuSans-20" x="632.226562"/>
      <use xlink:href="#DejaVuSans-41" x="664.013672"/>
      <use xlink:href="#DejaVuSans-6e" x="732.421875"/>
      <use xlink:href="#DejaVuSans-61" x="795.800781"/>
      <use xlink:href="#DejaVuSans-6c" x="857.080078"/>
      <use xlink:href="#DejaVuSans-79" x="884.863281"/>
      <use xlink:href="#DejaVuSans-73" x="944.042969"/>
      <use xlink:href="#DejaVuSans-69" x="996.142578"/>
      <use xlink:href="#DejaVuSans-73" x="1023.925781"/>
     </g>
    </g>
    <g id="line2d_18">
     <defs>
      <path id="mee75567207" d="M -3 3 
L 3 3 
L 3 -3 
L -3 -3 
z
" style="stroke: #d55e00; stroke-opacity: 0.627451; stroke-linejoin: miter"/>
     </defs>
     <g>
      <use xlink:href="#mee75567207" x="17.6" y="28.787813" style="fill: #d55e00; fill-opacity: 0.627451; stroke: #d55e00; stroke-opacity: 0.627451; stroke-linejoin: miter"/>
     </g>
    </g>
    <g id="text_12">
     <!-- Orientation independent IM with CQC combination -->
     <g transform="translate(35.6 32.287813) scale(0.1 -0.1)">
      <defs>
       <path id="DejaVuSans-4f" d="M 2522 4238 
Q 1834 4238 1429 3725 
Q 1025 3213 1025 2328 
Q 1025 1447 1429 934 
Q 1834 422 2522 422 
Q 3209 422 3611 934 
Q 4013 1447 4013 2328 
Q 4013 3213 3611 3725 
Q 3209 4238 2522 4238 
z
M 2522 4750 
Q 3503 4750 4090 4092 
Q 4678 3434 4678 2328 
Q 4678 1225 4090 567 
Q 3503 -91 2522 -91 
Q 1538 -91 948 565 
Q 359 1222 359 2328 
Q 359 3434 948 4092 
Q 1538 4750 2522 4750 
z
" transform="scale(0.015625)"/>
       <path id="DejaVuSans-64" d="M 2906 2969 
L 2906 4863 
L 3481 4863 
L 3481 0 
L 2906 0 
L 2906 525 
Q 2725 213 2448 61 
Q 2172 -91 1784 -91 
Q 1150 -91 751 415 
Q 353 922 353 1747 
Q 353 2572 751 3078 
Q 1150 3584 1784 3584 
Q 2172 3584 2448 3432 
Q 2725 3281 2906 2969 
z
M 947 1747 
Q 947 1113 1208 752 
Q 1469 391 1925 391 
Q 2381 391 2643 752 
Q 2906 1113 2906 1747 
Q 2906 2381 2643 2742 
Q 2381 3103 1925 3103 
Q 1469 3103 1208 2742 
Q 947 2381 947 1747 
z
" transform="scale(0.015625)"/>
       <path id="DejaVuSans-70" d="M 1159 525 
L 1159 -1331 
L 581 -1331 
L 581 3500 
L 1159 3500 
L 1159 2969 
Q 1341 3281 1617 3432 
Q 1894 3584 2278 3584 
Q 2916 3584 3314 3078 
Q 3713 2572 3713 1747 
Q 3713 922 3314 415 
Q 2916 -91 2278 -91 
Q 1894 -91 1617 61 
Q 1341 213 1159 525 
z
M 3116 1747 
Q 3116 2381 2855 2742 
Q 2594 3103 2138 3103 
Q 1681 3103 1420 2742 
Q 1159 2381 1159 1747 
Q 1159 1113 1420 752 
Q 1681 391 2138 391 
Q 2594 391 2855 752 
Q 3116 1113 3116 1747 
z
" transform="scale(0.015625)"/>
       <path id="DejaVuSans-49" d="M 628 4666 
L 1259 4666 
L 1259 0 
L 628 0 
L 628 4666 
z
" transform="scale(0.015625)"/>
       <path id="DejaVuSans-4d" d="M 628 4666 
L 1569 4666 
L 2759 1491 
L 3956 4666 
L 4897 4666 
L 4897 0 
L 4281 0 
L 4281 4097 
L 3078 897 
L 2444 897 
L 1241 4097 
L 1241 0 
L 628 0 
L 628 4666 
z
" transform="scale(0.015625)"/>
       <path id="DejaVuSans-77" d="M 269 3500 
L 844 3500 
L 1563 769 
L 2278 3500 
L 2956 3500 
L 3675 769 
L 4391 3500 
L 4966 3500 
L 4050 0 
L 3372 0 
L 2619 2869 
L 1863 0 
L 1184 0 
L 269 3500 
z
" transform="scale(0.015625)"/>
       <path id="DejaVuSans-68" d="M 3513 2113 
L 3513 0 
L 2938 0 
L 2938 2094 
Q 2938 2591 2744 2837 
Q 2550 3084 2163 3084 
Q 1697 3084 1428 2787 
Q 1159 2491 1159 1978 
L 1159 0 
L 581 0 
L 581 4863 
L 1159 4863 
L 1159 2956 
Q 1366 3272 1645 3428 
Q 1925 3584 2291 3584 
Q 2894 3584 3203 3211 
Q 3513 2838 3513 2113 
z
" transform="scale(0.015625)"/>
       <path id="DejaVuSans-43" d="M 4122 4306 
L 4122 3641 
Q 3803 3938 3442 4084 
Q 3081 4231 2675 4231 
Q 1875 4231 1450 3742 
Q 1025 3253 1025 2328 
Q 1025 1406 1450 917 
Q 1875 428 2675 428 
Q 3081 428 3442 575 
Q 3803 722 4122 1019 
L 4122 359 
Q 3791 134 3420 21 
Q 3050 -91 2638 -91 
Q 1578 -91 968 557 
Q 359 1206 359 2328 
Q 359 3453 968 4101 
Q 1578 4750 2638 4750 
Q 3056 4750 3426 4639 
Q 3797 4528 4122 4306 
z
" transform="scale(0.015625)"/>
       <path id="DejaVuSans-51" d="M 2522 4238 
Q 1834 4238 1429 3725 
Q 1025 3213 1025 2328 
Q 1025 1447 1429 934 
Q 1834 422 2522 422 
Q 3209 422 3611 934 
Q 4013 1447 4013 2328 
Q 4013 3213 3611 3725 
Q 3209 4238 2522 4238 
z
M 3406 84 
L 4238 -825 
L 3475 -825 
L 2784 -78 
Q 2681 -84 2626 -87 
Q 2572 -91 2522 -91 
Q 1538 -91 948 567 
Q 359 1225 359 2328 
Q 359 3434 948 4092 
Q 1538 4750 2522 4750 
Q 3503 4750 4090 4092 
Q 4678 3434 4678 2328 
Q 4678 1516 4351 937 
Q 4025 359 3406 84 
z
" transform="scale(0.015625)"/>
       <path id="DejaVuSans-63" d="M 3122 3366 
L 3122 2828 
Q 2878 2963 2633 3030 
Q 2388 3097 2138 3097 
Q 1578 3097 1268 2742 
Q 959 2388 959 1747 
Q 959 1106 1268 751 
Q 1578 397 2138 397 
Q 2388 397 2633 464 
Q 2878 531 3122 666 
L 3122 134 
Q 2881 22 2623 -34 
Q 2366 -91 2075 -91 
Q 1284 -91 818 406 
Q 353 903 353 1747 
Q 353 2603 823 3093 
Q 1294 3584 2113 3584 
Q 2378 3584 2631 3529 
Q 2884 3475 3122 3366 
z
" transform="scale(0.015625)"/>
       <path id="DejaVuSans-62" d="M 3116 1747 
Q 3116 2381 2855 2742 
Q 2594 3103 2138 3103 
Q 1681 3103 1420 2742 
Q 1159 2381 1159 1747 
Q 1159 1113 1420 752 
Q 1681 391 2138 391 
Q 2594 391 2855 752 
Q 3116 1113 3116 1747 
z
M 1159 2969 
Q 1341 3281 1617 3432 
Q 1894 3584 2278 3584 
Q 2916 3584 3314 3078 
Q 3713 2572 3713 1747 
Q 3713 922 3314 415 
Q 2916 -91 2278 -91 
Q 1894 -91 1617 61 
Q 1341 213 1159 525 
L 1159 0 
L 581 0 
L 581 4863 
L 1159 4863 
L 1159 2969 
z
" transform="scale(0.015625)"/>
      </defs>
      <use xlink:href="#DejaVuSans-4f"/>
      <use xlink:href="#DejaVuSans-72" x="78.710938"/>
      <use xlink:href="#DejaVuSans-69" x="119.824219"/>
      <use xlink:href="#DejaVuSans-65" x="147.607422"/>
      <use xlink:href="#DejaVuSans-6e" x="209.130859"/>
      <use xlink:href="#DejaVuSans-74" x="272.509766"/>
      <use xlink:href="#DejaVuSans-61" x="311.71875"/>
      <use xlink:href="#DejaVuSans-74" x="372.998047"/>
      <use xlink:href="#DejaVuSans-69" x="412.207031"/>
      <use xlink:href="#DejaVuSans-6f" x="439.990234"/>
      <use xlink:href="#DejaVuSans-6e" x="501.171875"/>
      <use xlink:href="#DejaVuSans-20" x="564.550781"/>
      <use xlink:href="#DejaVuSans-69" x="596.337891"/>
      <use xlink:href="#DejaVuSans-6e" x="624.121094"/>
      <use xlink:href="#DejaVuSans-64" x="687.5"/>
      <use xlink:href="#DejaVuSans-65" x="750.976562"/>
      <use xlink:href="#DejaVuSans-70" x="812.5"/>
      <use xlink:href="#DejaVuSans-65" x="875.976562"/>
      <use xlink:href="#DejaVuSans-6e" x="937.5"/>
      <use xlink:href="#DejaVuSans-64" x="1000.878906"/>
      <use xlink:href="#DejaVuSans-65" x="1064.355469"/>
      <use xlink:href="#DejaVuSans-6e" x="1125.878906"/>
      <use xlink:href="#DejaVuSans-74" x="1189.257812"/>
      <use xlink:href="#DejaVuSans-20" x="1228.466797"/>
      <use xlink:href="#DejaVuSans-49" x="1260.253906"/>
      <use xlink:href="#DejaVuSans-4d" x="1289.746094"/>
      <use xlink:href="#DejaVuSans-20" x="1376.025391"/>
      <use xlink:href="#DejaVuSans-77" x="1407.8125"/>
      <use xlink:href="#DejaVuSans-69" x="1489.599609"/>
      <use xlink:href="#DejaVuSans-74" x="1517.382812"/>
      <use xlink:href="#DejaVuSans-68" x="1556.591797"/>
      <use xlink:href="#DejaVuSans-20" x="1619.970703"/>
      <use xlink:href="#DejaVuSans-43" x="1651.757812"/>
      <use xlink:href="#DejaVuSans-51" x="1721.582031"/>
      <use xlink:href="#DejaVuSans-43" x="1800.292969"/>
      <use xlink:href="#DejaVuSans-20" x="1870.117188"/>
      <use xlink:href="#DejaVuSans-63" x="1901.904297"/>
      <use xlink:href="#DejaVuSans-6f" x="1956.884766"/>
      <use xlink:href="#DejaVuSans-6d" x="2018.066406"/>
      <use xlink:href="#DejaVuSans-62" x="2115.478516"/>
      <use xlink:href="#DejaVuSans-69" x="2178.955078"/>
      <use xlink:href="#DejaVuSans-6e" x="2206.738281"/>
      <use xlink:href="#DejaVuSans-61" x="2270.117188"/>
      <use xlink:href="#DejaVuSans-74" x="2331.396484"/>
      <use xlink:href="#DejaVuSans-69" x="2370.605469"/>
      <use xlink:href="#DejaVuSans-6f" x="2398.388672"/>
      <use xlink:href="#DejaVuSans-6e" x="2459.570312"/>
     </g>
    </g>
    <g id="line2d_19">
     <defs>
      <path id="me9169a8da4" d="M -3 3 
L 3 3 
L 3 -3 
L -3 -3 
z
" style="stroke: #cc79a7; stroke-linejoin: miter"/>
     </defs>
     <g>
      <use xlink:href="#me9169a8da4" x="17.6" y="43.465938" style="fill: #cc79a7; stroke: #cc79a7; stroke-linejoin: miter"/>
     </g>
    </g>
    <g id="text_13">
     <!-- Time History Analysis -->
     <g transform="translate(35.6 46.965938) scale(0.1 -0.1)">
      <use xlink:href="#DejaVuSans-54"/>
      <use xlink:href="#DejaVuSans-69" x="57.958984"/>
      <use xlink:href="#DejaVuSans-6d" x="85.742188"/>
      <use xlink:href="#DejaVuSans-65" x="183.154297"/>
      <use xlink:href="#DejaVuSans-20" x="244.677734"/>
      <use xlink:href="#DejaVuSans-48" x="276.464844"/>
      <use xlink:href="#DejaVuSans-69" x="351.660156"/>
      <use xlink:href="#DejaVuSans-73" x="379.443359"/>
      <use xlink:href="#DejaVuSans-74" x="431.542969"/>
      <use xlink:href="#DejaVuSans-6f" x="470.751953"/>
      <use xlink:href="#DejaVuSans-72" x="531.933594"/>
      <use xlink:href="#DejaVuSans-79" x="573.046875"/>
      <use xlink:href="#DejaVuSans-20" x="632.226562"/>
      <use xlink:href="#DejaVuSans-41" x="664.013672"/>
      <use xlink:href="#DejaVuSans-6e" x="732.421875"/>
      <use xlink:href="#DejaVuSans-61" x="795.800781"/>
      <use xlink:href="#DejaVuSans-6c" x="857.080078"/>
      <use xlink:href="#DejaVuSans-79" x="884.863281"/>
      <use xlink:href="#DejaVuSans-73" x="944.042969"/>
      <use xlink:href="#DejaVuSans-69" x="996.142578"/>
      <use xlink:href="#DejaVuSans-73" x="1023.925781"/>
     </g>
    </g>
    <g id="line2d_20">
     <defs>
      <path id="m52a61e6e99" d="M -3 3 
L 3 3 
L 3 -3 
L -3 -3 
z
" style="stroke: #cc79a7; stroke-opacity: 0.627451; stroke-linejoin: miter"/>
     </defs>
     <g>
      <use xlink:href="#m52a61e6e99" x="17.6" y="58.144063" style="fill: #cc79a7; fill-opacity: 0.627451; stroke: #cc79a7; stroke-opacity: 0.627451; stroke-linejoin: miter"/>
     </g>
    </g>
    <g id="text_14">
     <!-- Orientation dependent IM with CQC combination -->
     <g transform="translate(35.6 61.644063) scale(0.1 -0.1)">
      <use xlink:href="#DejaVuSans-4f"/>
      <use xlink:href="#DejaVuSans-72" x="78.710938"/>
      <use xlink:href="#DejaVuSans-69" x="119.824219"/>
      <use xlink:href="#DejaVuSans-65" x="147.607422"/>
      <use xlink:href="#DejaVuSans-6e" x="209.130859"/>
      <use xlink:href="#DejaVuSans-74" x="272.509766"/>
      <use xlink:href="#DejaVuSans-61" x="311.71875"/>
      <use xlink:href="#DejaVuSans-74" x="372.998047"/>
      <use xlink:href="#DejaVuSans-69" x="412.207031"/>
      <use xlink:href="#DejaVuSans-6f" x="439.990234"/>
      <use xlink:href="#DejaVuSans-6e" x="501.171875"/>
      <use xlink:href="#DejaVuSans-20" x="564.550781"/>
      <use xlink:href="#DejaVuSans-64" x="596.337891"/>
      <use xlink:href="#DejaVuSans-65" x="659.814453"/>
      <use xlink:href="#DejaVuSans-70" x="721.337891"/>
      <use xlink:href="#DejaVuSans-65" x="784.814453"/>
      <use xlink:href="#DejaVuSans-6e" x="846.337891"/>
      <use xlink:href="#DejaVuSans-64" x="909.716797"/>
      <use xlink:href="#DejaVuSans-65" x="973.193359"/>
      <use xlink:href="#DejaVuSans-6e" x="1034.716797"/>
      <use xlink:href="#DejaVuSans-74" x="1098.095703"/>
      <use xlink:href="#DejaVuSans-20" x="1137.304688"/>
      <use xlink:href="#DejaVuSans-49" x="1169.091797"/>
      <use xlink:href="#DejaVuSans-4d" x="1198.583984"/>
      <use xlink:href="#DejaVuSans-20" x="1284.863281"/>
      <use xlink:href="#DejaVuSans-77" x="1316.650391"/>
      <use xlink:href="#DejaVuSans-69" x="1398.4375"/>
      <use xlink:href="#DejaVuSans-74" x="1426.220703"/>
      <use xlink:href="#DejaVuSans-68" x="1465.429688"/>
      <use xlink:href="#DejaVuSans-20" x="1528.808594"/>
      <use xlink:href="#DejaVuSans-43" x="1560.595703"/>
      <use xlink:href="#DejaVuSans-51" x="1630.419922"/>
      <use xlink:href="#DejaVuSans-43" x="1709.130859"/>
      <use xlink:href="#DejaVuSans-20" x="1778.955078"/>
      <use xlink:href="#DejaVuSans-63" x="1810.742188"/>
      <use xlink:href="#DejaVuSans-6f" x="1865.722656"/>
      <use xlink:href="#DejaVuSans-6d" x="1926.904297"/>
      <use xlink:href="#DejaVuSans-62" x="2024.316406"/>
      <use xlink:href="#DejaVuSans-69" x="2087.792969"/>
      <use xlink:href="#DejaVuSans-6e" x="2115.576172"/>
      <use xlink:href="#DejaVuSans-61" x="2178.955078"/>
      <use xlink:href="#DejaVuSans-74" x="2240.234375"/>
      <use xlink:href="#DejaVuSans-69" x="2279.443359"/>
      <use xlink:href="#DejaVuSans-6f" x="2307.226562"/>
      <use xlink:href="#DejaVuSans-6e" x="2368.408203"/>
     </g>
    </g>
    <g id="line2d_21">
     <defs>
      <path id="m4a424c00de" d="M -3 3 
L 3 3 
L 3 -3 
L -3 -3 
z
" style="stroke: #0072b2; stroke-linejoin: miter"/>
     </defs>
     <g>
      <use xlink:href="#m4a424c00de" x="17.6" y="72.822188" style="fill: #0072b2; stroke: #0072b2; stroke-linejoin: miter"/>
     </g>
    </g>
    <g id="text_15">
     <!-- Time History Analysis -->
     <g transform="translate(35.6 76.322188) scale(0.1 -0.1)">
      <use xlink:href="#DejaVuSans-54"/>
      <use xlink:href="#DejaVuSans-69" x="57.958984"/>
      <use xlink:href="#DejaVuSans-6d" x="85.742188"/>
      <use xlink:href="#DejaVuSans-65" x="183.154297"/>
      <use xlink:href="#DejaVuSans-20" x="244.677734"/>
      <use xlink:href="#DejaVuSans-48" x="276.464844"/>
      <use xlink:href="#DejaVuSans-69" x="351.660156"/>
      <use xlink:href="#DejaVuSans-73" x="379.443359"/>
      <use xlink:href="#DejaVuSans-74" x="431.542969"/>
      <use xlink:href="#DejaVuSans-6f" x="470.751953"/>
      <use xlink:href="#DejaVuSans-72" x="531.933594"/>
      <use xlink:href="#DejaVuSans-79" x="573.046875"/>
      <use xlink:href="#DejaVuSans-20" x="632.226562"/>
      <use xlink:href="#DejaVuSans-41" x="664.013672"/>
      <use xlink:href="#DejaVuSans-6e" x="732.421875"/>
      <use xlink:href="#DejaVuSans-61" x="795.800781"/>
      <use xlink:href="#DejaVuSans-6c" x="857.080078"/>
      <use xlink:href="#DejaVuSans-79" x="884.863281"/>
      <use xlink:href="#DejaVuSans-73" x="944.042969"/>
      <use xlink:href="#DejaVuSans-69" x="996.142578"/>
      <use xlink:href="#DejaVuSans-73" x="1023.925781"/>
     </g>
    </g>
    <g id="line2d_22">
     <defs>
      <path id="m22ff70ca4e" d="M -3 3 
L 3 3 
L 3 -3 
L -3 -3 
z
" style="stroke: #0072b2; stroke-opacity: 0.627451; stroke-linejoin: miter"/>
     </defs>
     <g>
      <use xlink:href="#m22ff70ca4e" x="17.6" y="87.500313" style="fill: #0072b2; fill-opacity: 0.627451; stroke: #0072b2; stroke-opacity: 0.627451; stroke-linejoin: miter"/>
     </g>
    </g>
    <g id="text_16">
     <!-- Codes with CQC combination -->
     <g transform="translate(35.6 91.000313) scale(0.1 -0.1)">
      <use xlink:href="#DejaVuSans-43"/>
      <use xlink:href="#DejaVuSans-6f" x="69.824219"/>
      <use xlink:href="#DejaVuSans-64" x="131.005859"/>
      <use xlink:href="#DejaVuSans-65" x="194.482422"/>
      <use xlink:href="#DejaVuSans-73" x="256.005859"/>
      <use xlink:href="#DejaVuSans-20" x="308.105469"/>
      <use xlink:href="#DejaVuSans-77" x="339.892578"/>
      <use xlink:href="#DejaVuSans-69" x="421.679688"/>
      <use xlink:href="#DejaVuSans-74" x="449.462891"/>
      <use xlink:href="#DejaVuSans-68" x="488.671875"/>
      <use xlink:href="#DejaVuSans-20" x="552.050781"/>
      <use xlink:href="#DejaVuSans-43" x="583.837891"/>
      <use xlink:href="#DejaVuSans-51" x="653.662109"/>
      <use xlink:href="#DejaVuSans-43" x="732.373047"/>
      <use xlink:href="#DejaVuSans-20" x="802.197266"/>
      <use xlink:href="#DejaVuSans-63" x="833.984375"/>
      <use xlink:href="#DejaVuSans-6f" x="888.964844"/>
      <use xlink:href="#DejaVuSans-6d" x="950.146484"/>
      <use xlink:href="#DejaVuSans-62" x="1047.558594"/>
      <use xlink:href="#DejaVuSans-69" x="1111.035156"/>
      <use xlink:href="#DejaVuSans-6e" x="1138.818359"/>
      <use xlink:href="#DejaVuSans-61" x="1202.197266"/>
      <use xlink:href="#DejaVuSans-74" x="1263.476562"/>
      <use xlink:href="#DejaVuSans-69" x="1302.685547"/>
      <use xlink:href="#DejaVuSans-6f" x="1330.46875"/>
      <use xlink:href="#DejaVuSans-6e" x="1391.650391"/>
     </g>
    </g>
   </g>
  </g>
 </g>
</svg>
