<?xml version="1.0" encoding="utf-8" standalone="no"?>
<!DOCTYPE svg PUBLIC "-//W3C//DTD SVG 1.1//EN"
  "http://www.w3.org/Graphics/SVG/1.1/DTD/svg11.dtd">
<svg xmlns:xlink="http://www.w3.org/1999/xlink" width="864pt" height="180pt" viewBox="0 0 864 180" xmlns="http://www.w3.org/2000/svg" version="1.1">
 <metadata>
  <rdf:RDF xmlns:dc="http://purl.org/dc/elements/1.1/" xmlns:cc="http://creativecommons.org/ns#" xmlns:rdf="http://www.w3.org/1999/02/22-rdf-syntax-ns#">
   <cc:Work>
    <dc:type rdf:resource="http://purl.org/dc/dcmitype/StillImage"/>
    <dc:date>2023-06-20T05:19:51.258240</dc:date>
    <dc:format>image/svg+xml</dc:format>
    <dc:creator>
     <cc:Agent>
      <dc:title>Matplotlib v3.7.1, https://matplotlib.org/</dc:title>
     </cc:Agent>
    </dc:creator>
   </cc:Work>
  </rdf:RDF>
 </metadata>
 <defs>
  <style type="text/css">*{stroke-linejoin: round; stroke-linecap: butt}</style>
 </defs>
 <g id="figure_1">
  <g id="patch_1">
   <path d="M 0 180 
L 864 180 
L 864 0 
L 0 0 
z
" style="fill: #ffffff"/>
  </g>
  <g id="axes_1">
   <g id="patch_2">
    <path d="M 108 160.2 
L 777.6 160.2 
L 777.6 21.6 
L 108 21.6 
z
" style="fill: #ffffff"/>
   </g>
   <g id="matplotlib.axis_1">
    <g id="xtick_1">
     <g id="line2d_1">
      <path d="M 108 160.2 
L 108 21.6 
" clip-path="url(#p740b49e20d)" style="fill: none; stroke: #b0b0b0; stroke-width: 0.8; stroke-linecap: square"/>
     </g>
     <g id="line2d_2">
      <defs>
       <path id="m9b462c1094" d="M 0 0 
L 0 3.5 
" style="stroke: #000000; stroke-width: 0.8"/>
      </defs>
      <g>
       <use xlink:href="#m9b462c1094" x="108" y="160.2" style="stroke: #000000; stroke-width: 0.8"/>
      </g>
     </g>
     <g id="text_1">
      <!-- 0 -->
      <g transform="translate(104.81875 174.798438) scale(0.1 -0.1)">
       <defs>
        <path id="DejaVuSans-30" d="M 2034 4250 
Q 1547 4250 1301 3770 
Q 1056 3291 1056 2328 
Q 1056 1369 1301 889 
Q 1547 409 2034 409 
Q 2525 409 2770 889 
Q 3016 1369 3016 2328 
Q 3016 3291 2770 3770 
Q 2525 4250 2034 4250 
z
M 2034 4750 
Q 2819 4750 3233 4129 
Q 3647 3509 3647 2328 
Q 3647 1150 3233 529 
Q 2819 -91 2034 -91 
Q 1250 -91 836 529 
Q 422 1150 422 2328 
Q 422 3509 836 4129 
Q 1250 4750 2034 4750 
z
" transform="scale(0.015625)"/>
       </defs>
       <use xlink:href="#DejaVuSans-30"/>
      </g>
     </g>
    </g>
    <g id="xtick_2">
     <g id="line2d_3">
      <path d="M 209.454545 160.2 
L 209.454545 21.6 
" clip-path="url(#p740b49e20d)" style="fill: none; stroke: #b0b0b0; stroke-width: 0.8; stroke-linecap: square"/>
     </g>
     <g id="line2d_4">
      <g>
       <use xlink:href="#m9b462c1094" x="209.454545" y="160.2" style="stroke: #000000; stroke-width: 0.8"/>
      </g>
     </g>
     <g id="text_2">
      <!-- 5 -->
      <g transform="translate(206.273295 174.798438) scale(0.1 -0.1)">
       <defs>
        <path id="DejaVuSans-35" d="M 691 4666 
L 3169 4666 
L 3169 4134 
L 1269 4134 
L 1269 2991 
Q 1406 3038 1543 3061 
Q 1681 3084 1819 3084 
Q 2600 3084 3056 2656 
Q 3513 2228 3513 1497 
Q 3513 744 3044 326 
Q 2575 -91 1722 -91 
Q 1428 -91 1123 -41 
Q 819 9 494 109 
L 494 744 
Q 775 591 1075 516 
Q 1375 441 1709 441 
Q 2250 441 2565 725 
Q 2881 1009 2881 1497 
Q 2881 1984 2565 2268 
Q 2250 2553 1709 2553 
Q 1456 2553 1204 2497 
Q 953 2441 691 2322 
L 691 4666 
z
" transform="scale(0.015625)"/>
       </defs>
       <use xlink:href="#DejaVuSans-35"/>
      </g>
     </g>
    </g>
    <g id="xtick_3">
     <g id="line2d_5">
      <path d="M 310.909091 160.2 
L 310.909091 21.6 
" clip-path="url(#p740b49e20d)" style="fill: none; stroke: #b0b0b0; stroke-width: 0.8; stroke-linecap: square"/>
     </g>
     <g id="line2d_6">
      <g>
       <use xlink:href="#m9b462c1094" x="310.909091" y="160.2" style="stroke: #000000; stroke-width: 0.8"/>
      </g>
     </g>
     <g id="text_3">
      <!-- 10 -->
      <g transform="translate(304.546591 174.798438) scale(0.1 -0.1)">
       <defs>
        <path id="DejaVuSans-31" d="M 794 531 
L 1825 531 
L 1825 4091 
L 703 3866 
L 703 4441 
L 1819 4666 
L 2450 4666 
L 2450 531 
L 3481 531 
L 3481 0 
L 794 0 
L 794 531 
z
" transform="scale(0.015625)"/>
       </defs>
       <use xlink:href="#DejaVuSans-31"/>
       <use xlink:href="#DejaVuSans-30" x="63.623047"/>
      </g>
     </g>
    </g>
    <g id="xtick_4">
     <g id="line2d_7">
      <path d="M 412.363636 160.2 
L 412.363636 21.6 
" clip-path="url(#p740b49e20d)" style="fill: none; stroke: #b0b0b0; stroke-width: 0.8; stroke-linecap: square"/>
     </g>
     <g id="line2d_8">
      <g>
       <use xlink:href="#m9b462c1094" x="412.363636" y="160.2" style="stroke: #000000; stroke-width: 0.8"/>
      </g>
     </g>
     <g id="text_4">
      <!-- 15 -->
      <g transform="translate(406.001136 174.798438) scale(0.1 -0.1)">
       <use xlink:href="#DejaVuSans-31"/>
       <use xlink:href="#DejaVuSans-35" x="63.623047"/>
      </g>
     </g>
    </g>
    <g id="xtick_5">
     <g id="line2d_9">
      <path d="M 513.818182 160.2 
L 513.818182 21.6 
" clip-path="url(#p740b49e20d)" style="fill: none; stroke: #b0b0b0; stroke-width: 0.8; stroke-linecap: square"/>
     </g>
     <g id="line2d_10">
      <g>
       <use xlink:href="#m9b462c1094" x="513.818182" y="160.2" style="stroke: #000000; stroke-width: 0.8"/>
      </g>
     </g>
     <g id="text_5">
      <!-- 20 -->
      <g transform="translate(507.455682 174.798438) scale(0.1 -0.1)">
       <defs>
        <path id="DejaVuSans-32" d="M 1228 531 
L 3431 531 
L 3431 0 
L 469 0 
L 469 531 
Q 828 903 1448 1529 
Q 2069 2156 2228 2338 
Q 2531 2678 2651 2914 
Q 2772 3150 2772 3378 
Q 2772 3750 2511 3984 
Q 2250 4219 1831 4219 
Q 1534 4219 1204 4116 
Q 875 4013 500 3803 
L 500 4441 
Q 881 4594 1212 4672 
Q 1544 4750 1819 4750 
Q 2544 4750 2975 4387 
Q 3406 4025 3406 3419 
Q 3406 3131 3298 2873 
Q 3191 2616 2906 2266 
Q 2828 2175 2409 1742 
Q 1991 1309 1228 531 
z
" transform="scale(0.015625)"/>
       </defs>
       <use xlink:href="#DejaVuSans-32"/>
       <use xlink:href="#DejaVuSans-30" x="63.623047"/>
      </g>
     </g>
    </g>
    <g id="xtick_6">
     <g id="line2d_11">
      <path d="M 615.272727 160.2 
L 615.272727 21.6 
" clip-path="url(#p740b49e20d)" style="fill: none; stroke: #b0b0b0; stroke-width: 0.8; stroke-linecap: square"/>
     </g>
     <g id="line2d_12">
      <g>
       <use xlink:href="#m9b462c1094" x="615.272727" y="160.2" style="stroke: #000000; stroke-width: 0.8"/>
      </g>
     </g>
     <g id="text_6">
      <!-- 25 -->
      <g transform="translate(608.910227 174.798438) scale(0.1 -0.1)">
       <use xlink:href="#DejaVuSans-32"/>
       <use xlink:href="#DejaVuSans-35" x="63.623047"/>
      </g>
     </g>
    </g>
    <g id="xtick_7">
     <g id="line2d_13">
      <path d="M 716.727273 160.2 
L 716.727273 21.6 
" clip-path="url(#p740b49e20d)" style="fill: none; stroke: #b0b0b0; stroke-width: 0.8; stroke-linecap: square"/>
     </g>
     <g id="line2d_14">
      <g>
       <use xlink:href="#m9b462c1094" x="716.727273" y="160.2" style="stroke: #000000; stroke-width: 0.8"/>
      </g>
     </g>
     <g id="text_7">
      <!-- 30 -->
      <g transform="translate(710.364773 174.798438) scale(0.1 -0.1)">
       <defs>
        <path id="DejaVuSans-33" d="M 2597 2516 
Q 3050 2419 3304 2112 
Q 3559 1806 3559 1356 
Q 3559 666 3084 287 
Q 2609 -91 1734 -91 
Q 1441 -91 1130 -33 
Q 819 25 488 141 
L 488 750 
Q 750 597 1062 519 
Q 1375 441 1716 441 
Q 2309 441 2620 675 
Q 2931 909 2931 1356 
Q 2931 1769 2642 2001 
Q 2353 2234 1838 2234 
L 1294 2234 
L 1294 2753 
L 1863 2753 
Q 2328 2753 2575 2939 
Q 2822 3125 2822 3475 
Q 2822 3834 2567 4026 
Q 2313 4219 1838 4219 
Q 1578 4219 1281 4162 
Q 984 4106 628 3988 
L 628 4550 
Q 988 4650 1302 4700 
Q 1616 4750 1894 4750 
Q 2613 4750 3031 4423 
Q 3450 4097 3450 3541 
Q 3450 3153 3228 2886 
Q 3006 2619 2597 2516 
z
" transform="scale(0.015625)"/>
       </defs>
       <use xlink:href="#DejaVuSans-33"/>
       <use xlink:href="#DejaVuSans-30" x="63.623047"/>
      </g>
     </g>
    </g>
    <g id="text_8">
     <!-- t (sec) -->
     <g transform="translate(426.91875 188.476562) scale(0.1 -0.1)">
      <defs>
       <path id="DejaVuSans-74" d="M 1172 4494 
L 1172 3500 
L 2356 3500 
L 2356 3053 
L 1172 3053 
L 1172 1153 
Q 1172 725 1289 603 
Q 1406 481 1766 481 
L 2356 481 
L 2356 0 
L 1766 0 
Q 1100 0 847 248 
Q 594 497 594 1153 
L 594 3053 
L 172 3053 
L 172 3500 
L 594 3500 
L 594 4494 
L 1172 4494 
z
" transform="scale(0.015625)"/>
       <path id="DejaVuSans-20" transform="scale(0.015625)"/>
       <path id="DejaVuSans-28" d="M 1984 4856 
Q 1566 4138 1362 3434 
Q 1159 2731 1159 2009 
Q 1159 1288 1364 580 
Q 1569 -128 1984 -844 
L 1484 -844 
Q 1016 -109 783 600 
Q 550 1309 550 2009 
Q 550 2706 781 3412 
Q 1013 4119 1484 4856 
L 1984 4856 
z
" transform="scale(0.015625)"/>
       <path id="DejaVuSans-73" d="M 2834 3397 
L 2834 2853 
Q 2591 2978 2328 3040 
Q 2066 3103 1784 3103 
Q 1356 3103 1142 2972 
Q 928 2841 928 2578 
Q 928 2378 1081 2264 
Q 1234 2150 1697 2047 
L 1894 2003 
Q 2506 1872 2764 1633 
Q 3022 1394 3022 966 
Q 3022 478 2636 193 
Q 2250 -91 1575 -91 
Q 1294 -91 989 -36 
Q 684 19 347 128 
L 347 722 
Q 666 556 975 473 
Q 1284 391 1588 391 
Q 1994 391 2212 530 
Q 2431 669 2431 922 
Q 2431 1156 2273 1281 
Q 2116 1406 1581 1522 
L 1381 1569 
Q 847 1681 609 1914 
Q 372 2147 372 2553 
Q 372 3047 722 3315 
Q 1072 3584 1716 3584 
Q 2034 3584 2315 3537 
Q 2597 3491 2834 3397 
z
" transform="scale(0.015625)"/>
       <path id="DejaVuSans-65" d="M 3597 1894 
L 3597 1613 
L 953 1613 
Q 991 1019 1311 708 
Q 1631 397 2203 397 
Q 2534 397 2845 478 
Q 3156 559 3463 722 
L 3463 178 
Q 3153 47 2828 -22 
Q 2503 -91 2169 -91 
Q 1331 -91 842 396 
Q 353 884 353 1716 
Q 353 2575 817 3079 
Q 1281 3584 2069 3584 
Q 2775 3584 3186 3129 
Q 3597 2675 3597 1894 
z
M 3022 2063 
Q 3016 2534 2758 2815 
Q 2500 3097 2075 3097 
Q 1594 3097 1305 2825 
Q 1016 2553 972 2059 
L 3022 2063 
z
" transform="scale(0.015625)"/>
       <path id="DejaVuSans-63" d="M 3122 3366 
L 3122 2828 
Q 2878 2963 2633 3030 
Q 2388 3097 2138 3097 
Q 1578 3097 1268 2742 
Q 959 2388 959 1747 
Q 959 1106 1268 751 
Q 1578 397 2138 397 
Q 2388 397 2633 464 
Q 2878 531 3122 666 
L 3122 134 
Q 2881 22 2623 -34 
Q 2366 -91 2075 -91 
Q 1284 -91 818 406 
Q 353 903 353 1747 
Q 353 2603 823 3093 
Q 1294 3584 2113 3584 
Q 2378 3584 2631 3529 
Q 2884 3475 3122 3366 
z
" transform="scale(0.015625)"/>
       <path id="DejaVuSans-29" d="M 513 4856 
L 1013 4856 
Q 1481 4119 1714 3412 
Q 1947 2706 1947 2009 
Q 1947 1309 1714 600 
Q 1481 -109 1013 -844 
L 513 -844 
Q 928 -128 1133 580 
Q 1338 1288 1338 2009 
Q 1338 2731 1133 3434 
Q 928 4138 513 4856 
z
" transform="scale(0.015625)"/>
      </defs>
      <use xlink:href="#DejaVuSans-74"/>
      <use xlink:href="#DejaVuSans-20" x="39.208984"/>
      <use xlink:href="#DejaVuSans-28" x="70.996094"/>
      <use xlink:href="#DejaVuSans-73" x="110.009766"/>
      <use xlink:href="#DejaVuSans-65" x="162.109375"/>
      <use xlink:href="#DejaVuSans-63" x="223.632812"/>
      <use xlink:href="#DejaVuSans-29" x="278.613281"/>
     </g>
    </g>
   </g>
   <g id="matplotlib.axis_2">
    <g id="ytick_1">
     <g id="line2d_15">
      <path d="M 108 127.904404 
L 777.6 127.904404 
" clip-path="url(#p740b49e20d)" style="fill: none; stroke: #b0b0b0; stroke-width: 0.8; stroke-linecap: square"/>
     </g>
     <g id="line2d_16">
      <defs>
       <path id="mb9efcede29" d="M 0 0 
L -3.5 0 
" style="stroke: #000000; stroke-width: 0.8"/>
      </defs>
      <g>
       <use xlink:href="#mb9efcede29" x="108" y="127.904404" style="stroke: #000000; stroke-width: 0.8"/>
      </g>
     </g>
     <g id="text_9">
      <!-- −0.5 -->
      <g transform="translate(76.717187 131.703623) scale(0.1 -0.1)">
       <defs>
        <path id="DejaVuSans-2212" d="M 678 2272 
L 4684 2272 
L 4684 1741 
L 678 1741 
L 678 2272 
z
" transform="scale(0.015625)"/>
        <path id="DejaVuSans-2e" d="M 684 794 
L 1344 794 
L 1344 0 
L 684 0 
L 684 794 
z
" transform="scale(0.015625)"/>
       </defs>
       <use xlink:href="#DejaVuSans-2212"/>
       <use xlink:href="#DejaVuSans-30" x="83.789062"/>
       <use xlink:href="#DejaVuSans-2e" x="147.412109"/>
       <use xlink:href="#DejaVuSans-35" x="179.199219"/>
      </g>
     </g>
    </g>
    <g id="ytick_2">
     <g id="line2d_17">
      <path d="M 108 91.185573 
L 777.6 91.185573 
" clip-path="url(#p740b49e20d)" style="fill: none; stroke: #b0b0b0; stroke-width: 0.8; stroke-linecap: square"/>
     </g>
     <g id="line2d_18">
      <g>
       <use xlink:href="#mb9efcede29" x="108" y="91.185573" style="stroke: #000000; stroke-width: 0.8"/>
      </g>
     </g>
     <g id="text_10">
      <!-- 0.0 -->
      <g transform="translate(85.096875 94.984792) scale(0.1 -0.1)">
       <use xlink:href="#DejaVuSans-30"/>
       <use xlink:href="#DejaVuSans-2e" x="63.623047"/>
       <use xlink:href="#DejaVuSans-30" x="95.410156"/>
      </g>
     </g>
    </g>
    <g id="ytick_3">
     <g id="line2d_19">
      <path d="M 108 54.466742 
L 777.6 54.466742 
" clip-path="url(#p740b49e20d)" style="fill: none; stroke: #b0b0b0; stroke-width: 0.8; stroke-linecap: square"/>
     </g>
     <g id="line2d_20">
      <g>
       <use xlink:href="#mb9efcede29" x="108" y="54.466742" style="stroke: #000000; stroke-width: 0.8"/>
      </g>
     </g>
     <g id="text_11">
      <!-- 0.5 -->
      <g transform="translate(85.096875 58.265961) scale(0.1 -0.1)">
       <use xlink:href="#DejaVuSans-30"/>
       <use xlink:href="#DejaVuSans-2e" x="63.623047"/>
       <use xlink:href="#DejaVuSans-35" x="95.410156"/>
      </g>
     </g>
    </g>
    <g id="text_12">
     <!-- $\ddot{u_g} (t)$ -->
     <g transform="translate(69.617188 102.3) rotate(-90) scale(0.1 -0.1)">
      <defs>
       <path id="DejaVuSans-308" d="M -1306 4850 
L -672 4850 
L -672 4219 
L -1306 4219 
L -1306 4850 
z
M -2528 4850 
L -1894 4850 
L -1894 4219 
L -2528 4219 
L -2528 4850 
z
M -1600 3584 
L -1600 3584 
z
" transform="scale(0.015625)"/>
       <path id="DejaVuSans-Oblique-75" d="M 428 1388 
L 838 3500 
L 1416 3500 
L 1006 1409 
Q 975 1256 961 1147 
Q 947 1038 947 966 
Q 947 700 1109 554 
Q 1272 409 1569 409 
Q 2031 409 2368 721 
Q 2706 1034 2809 1563 
L 3194 3500 
L 3769 3500 
L 3091 0 
L 2516 0 
L 2631 550 
Q 2388 244 2052 76 
Q 1716 -91 1338 -91 
Q 878 -91 622 161 
Q 366 413 366 863 
Q 366 956 381 1097 
Q 397 1238 428 1388 
z
" transform="scale(0.015625)"/>
       <path id="DejaVuSans-Oblique-67" d="M 3816 3500 
L 3219 434 
Q 3047 -456 2561 -893 
Q 2075 -1331 1253 -1331 
Q 950 -1331 690 -1286 
Q 431 -1241 206 -1147 
L 313 -588 
Q 525 -725 762 -790 
Q 1000 -856 1269 -856 
Q 1816 -856 2167 -557 
Q 2519 -259 2631 300 
L 2681 563 
Q 2441 288 2122 144 
Q 1803 0 1434 0 
Q 903 0 598 351 
Q 294 703 294 1319 
Q 294 1803 478 2267 
Q 663 2731 997 3091 
Q 1219 3328 1514 3456 
Q 1809 3584 2131 3584 
Q 2484 3584 2746 3420 
Q 3009 3256 3138 2956 
L 3238 3500 
L 3816 3500 
z
M 2950 2216 
Q 2950 2641 2750 2872 
Q 2550 3103 2181 3103 
Q 1953 3103 1747 3012 
Q 1541 2922 1394 2759 
Q 1156 2491 1023 2127 
Q 891 1763 891 1375 
Q 891 944 1092 712 
Q 1294 481 1672 481 
Q 2219 481 2584 976 
Q 2950 1472 2950 2216 
z
" transform="scale(0.015625)"/>
       <path id="DejaVuSans-Oblique-74" d="M 2706 3500 
L 2619 3053 
L 1472 3053 
L 1100 1153 
Q 1081 1047 1072 975 
Q 1063 903 1063 863 
Q 1063 663 1183 572 
Q 1303 481 1569 481 
L 2150 481 
L 2053 0 
L 1503 0 
Q 991 0 739 200 
Q 488 400 488 806 
Q 488 878 497 964 
Q 506 1050 525 1153 
L 897 3053 
L 409 3053 
L 500 3500 
L 978 3500 
L 1172 4494 
L 1747 4494 
L 1556 3500 
L 2706 3500 
z
" transform="scale(0.015625)"/>
      </defs>
      <use xlink:href="#DejaVuSans-308" transform="translate(94.136719 11.21875)"/>
      <use xlink:href="#DejaVuSans-Oblique-75" transform="translate(0 0.03125)"/>
      <use xlink:href="#DejaVuSans-Oblique-67" transform="translate(63.378906 -16.375) scale(0.7)"/>
      <use xlink:href="#DejaVuSans-28" transform="translate(110.546875 0.03125)"/>
      <use xlink:href="#DejaVuSans-Oblique-74" transform="translate(149.560547 0.03125)"/>
      <use xlink:href="#DejaVuSans-29" transform="translate(188.769531 0.03125)"/>
     </g>
    </g>
   </g>
   <g id="line2d_21">
    <path d="M 108 91.454618 
L 118.963736 91.450695 
L 119.775864 91.206507 
L 120.587993 91.310861 
L 121.400121 91.153651 
L 121.806186 91.285854 
L 122.21225 91.635066 
L 122.618314 91.628671 
L 123.024378 91.195756 
L 123.430443 91.016947 
L 124.242571 91.570483 
L 125.460764 91.26302 
L 125.866828 91.367231 
L 126.272893 91.352054 
L 126.678957 91.524178 
L 127.085021 92.022202 
L 127.491086 91.793022 
L 127.89715 90.600124 
L 128.303214 90.06807 
L 128.709278 91.035407 
L 129.115343 91.584442 
L 129.521407 90.900263 
L 129.927471 90.566129 
L 130.333535 91.20116 
L 130.7396 91.567161 
L 131.145664 91.445786 
L 131.551728 91.467204 
L 132.769921 90.887413 
L 133.175985 90.635982 
L 133.58205 90.812341 
L 133.988114 91.430409 
L 134.394178 91.479317 
L 134.800243 91.03823 
L 135.206307 90.966641 
L 135.612371 91.390248 
L 136.018435 91.606488 
L 136.4245 91.49273 
L 137.236628 91.73298 
L 138.048757 90.775892 
L 138.860885 92.275125 
L 139.673014 90.889346 
L 140.079078 91.042505 
L 140.485143 91.426962 
L 140.891207 91.273023 
L 141.297271 91.390581 
L 141.703335 92.073079 
L 142.1094 91.623296 
L 142.515464 90.26945 
L 142.921528 90.225399 
L 143.327592 91.752565 
L 143.733657 92.298585 
L 144.139721 91.035235 
L 144.545785 90.471942 
L 144.95185 91.078501 
L 145.357914 90.621023 
L 145.763978 89.93896 
L 146.170042 90.405535 
L 146.576107 91.334587 
L 146.982171 91.303687 
L 147.388235 90.771087 
L 147.7943 91.442085 
L 148.200364 92.47122 
L 148.606428 91.964544 
L 149.012492 90.966657 
L 149.418557 91.394507 
L 149.824621 91.335823 
L 150.230685 90.355365 
L 150.63675 91.075773 
L 151.042814 92.14991 
L 151.854942 90.339044 
L 152.261007 90.930871 
L 152.667071 91.846762 
L 153.073135 91.517491 
L 153.4792 90.632157 
L 154.291328 92.745199 
L 155.103457 89.538649 
L 155.915585 92.284834 
L 156.321649 92.764837 
L 157.133778 92.00276 
L 157.539842 92.994473 
L 158.351971 91.880059 
L 158.758035 92.596298 
L 159.164099 92.229433 
L 159.976228 89.630781 
L 160.382292 89.037818 
L 160.788357 90.186729 
L 161.600485 94.060863 
L 162.006549 93.019782 
L 162.412614 89.237608 
L 162.818678 86.610878 
L 163.224742 86.881345 
L 163.630807 89.43036 
L 164.036871 93.310603 
L 164.442935 95.68066 
L 164.848999 93.348574 
L 165.255064 89.492479 
L 165.661128 88.97446 
L 166.473257 92.231542 
L 166.879321 91.792184 
L 167.691449 87.005222 
L 168.097514 87.915757 
L 168.909642 92.317837 
L 169.315706 92.926938 
L 169.721771 91.552527 
L 170.127835 89.513367 
L 170.533899 89.200568 
L 171.346028 93.794405 
L 171.752092 94.436714 
L 172.158156 93.26962 
L 172.970285 89.224795 
L 173.376349 89.231805 
L 174.188478 94.474445 
L 174.594542 93.391611 
L 175.000606 91.015247 
L 175.406671 89.839113 
L 176.218799 91.943279 
L 176.624864 91.383451 
L 177.030928 91.213105 
L 177.436992 92.455304 
L 177.843056 92.725146 
L 178.249121 91.090704 
L 178.655185 90.122619 
L 179.061249 90.659342 
L 179.467314 90.48553 
L 179.873378 90.092116 
L 180.279442 91.946166 
L 180.685506 93.139676 
L 181.497635 88.310296 
L 181.903699 89.093745 
L 183.121892 93.671523 
L 183.527956 93.799755 
L 183.934021 91.711327 
L 184.340085 90.543093 
L 184.746149 91.140989 
L 185.558278 93.393473 
L 185.964342 93.308793 
L 186.370406 93.009288 
L 186.776471 93.603671 
L 187.182535 93.301415 
L 187.588599 91.304665 
L 187.994663 91.397954 
L 188.400728 94.217554 
L 188.806792 95.498436 
L 189.212856 95.575915 
L 189.618921 95.391909 
L 190.431049 91.400793 
L 190.837113 91.486641 
L 191.243178 92.570804 
L 191.649242 93.173289 
L 192.461371 91.729516 
L 192.867435 92.618145 
L 194.491692 97.514941 
L 194.897756 96.114764 
L 195.709885 88.727077 
L 196.115949 87.701398 
L 196.522013 87.61245 
L 196.928078 85.128812 
L 197.334142 81.170769 
L 197.740206 78.529951 
L 198.14627 77.678823 
L 198.552335 77.510886 
L 198.958399 78.054369 
L 199.770528 84.142493 
L 200.176592 82.48581 
L 200.582656 77.198181 
L 200.98872 74.144386 
L 201.394785 75.19005 
L 202.206913 79.565517 
L 202.612978 80.890685 
L 203.019042 80.668235 
L 203.425106 79.909272 
L 203.83117 80.89598 
L 204.237235 85.193231 
L 205.049363 97.668408 
L 205.861492 100.637573 
L 206.267556 103.932023 
L 206.67362 104.64066 
L 207.079685 102.798058 
L 207.485749 104.533728 
L 207.891813 108.927922 
L 208.297878 109.048014 
L 209.110006 99.835656 
L 209.51607 99.936794 
L 209.922135 101.862616 
L 210.328199 102.467118 
L 210.734263 100.978566 
L 211.140327 96.981162 
L 211.546392 90.964152 
L 211.952456 87.963262 
L 212.35852 87.961954 
L 212.764585 84.969548 
L 213.576713 72.644591 
L 213.982777 71.178246 
L 214.388842 71.860607 
L 214.794906 75.799355 
L 215.607035 89.884324 
L 216.013099 93.299105 
L 216.419163 92.973466 
L 216.825227 92.069345 
L 217.231292 92.621659 
L 217.637356 95.046117 
L 218.04342 96.689761 
L 218.449485 96.512274 
L 218.855549 98.713286 
L 219.667677 109.783412 
L 220.073742 110.507668 
L 220.88587 101.583568 
L 221.291935 99.765773 
L 221.697999 98.638718 
L 222.104063 97.853261 
L 222.510127 99.213595 
L 222.916192 102.452189 
L 223.322256 104.456075 
L 223.72832 99.572169 
L 224.134384 91.708197 
L 224.946513 87.778318 
L 225.352577 82.236306 
L 225.758642 80.600474 
L 226.57077 85.738564 
L 226.976834 83.046896 
L 227.382899 76.751864 
L 227.788963 75.426328 
L 228.195027 78.554824 
L 228.601092 80.681175 
L 229.007156 84.016349 
L 229.41322 89.161603 
L 229.819284 92.784991 
L 230.225349 91.322464 
L 230.631413 88.062747 
L 231.037477 90.492985 
L 231.443542 96.453392 
L 231.849606 100.630567 
L 232.25567 100.143345 
L 232.661734 96.017555 
L 233.067799 93.211821 
L 233.473863 91.83836 
L 233.879927 88.912235 
L 234.285992 88.650422 
L 234.692056 93.235491 
L 235.09812 94.725585 
L 235.504184 91.706641 
L 235.910249 90.413137 
L 236.722377 94.661861 
L 237.128441 95.072168 
L 237.534506 96.284318 
L 237.94057 98.21214 
L 238.346634 95.029562 
L 238.752699 88.963874 
L 239.158763 85.72845 
L 239.564827 85.15412 
L 239.970891 85.456845 
L 240.376956 88.391151 
L 240.78302 92.559705 
L 241.189084 93.569345 
L 242.813341 86.718253 
L 243.219406 87.683696 
L 243.62547 89.26322 
L 244.031534 88.776728 
L 244.437599 88.003659 
L 244.843663 89.349066 
L 245.655791 100.85088 
L 246.061856 103.254253 
L 246.46792 102.748399 
L 246.873984 99.27225 
L 247.686113 91.200844 
L 248.092177 88.433954 
L 248.498241 88.674226 
L 249.716434 99.290337 
L 250.122498 99.885829 
L 250.528563 95.386981 
L 250.934627 88.641012 
L 251.340691 84.797755 
L 251.746756 84.230996 
L 252.15282 85.254279 
L 252.558884 90.83884 
L 252.964948 98.464678 
L 253.371013 101.116982 
L 254.183141 93.093939 
L 254.589206 95.474653 
L 254.99527 99.033328 
L 255.401334 99.606046 
L 255.807398 98.281435 
L 256.619527 93.661523 
L 257.431656 89.430893 
L 258.243784 98.643902 
L 258.649848 96.439047 
L 259.055913 93.369712 
L 259.461977 91.499508 
L 260.274106 84.20035 
L 260.68017 83.423249 
L 261.086234 85.770398 
L 261.492298 89.419236 
L 261.898363 88.977108 
L 262.304427 89.393072 
L 262.710491 91.193327 
L 263.116555 86.984071 
L 263.52262 79.708537 
L 263.928684 74.820901 
L 264.334748 73.477623 
L 265.146877 79.033498 
L 265.552941 75.924317 
L 265.959005 76.009717 
L 266.36507 82.69029 
L 266.771134 83.870009 
L 267.177198 80.993197 
L 267.583263 84.023498 
L 267.989327 85.699931 
L 268.801455 71.008003 
L 269.20752 76.543602 
L 269.613584 88.294059 
L 270.019648 93.041734 
L 270.425713 88.902706 
L 270.831777 86.840063 
L 271.237841 85.924253 
L 271.643905 86.156736 
L 272.862098 118.945333 
L 273.268163 114.984443 
L 273.674227 96.718546 
L 274.080291 86.913694 
L 274.486355 92.764063 
L 274.89242 95.9751 
L 275.298484 95.73352 
L 275.704548 96.428298 
L 276.110612 90.843603 
L 276.922741 73.954102 
L 277.328805 71.234463 
L 278.140934 97.689271 
L 278.546998 90.826574 
L 278.953062 80.979949 
L 279.359127 85.392501 
L 279.765191 93.582961 
L 280.171255 95.51624 
L 280.57732 94.460751 
L 280.983384 92.371498 
L 281.389448 90.979309 
L 281.795512 85.873354 
L 282.201577 83.067201 
L 282.607641 86.168073 
L 283.013705 86.487406 
L 283.41977 85.135591 
L 283.825834 85.265202 
L 284.231898 82.400916 
L 284.637962 78.203851 
L 285.044027 88.610742 
L 285.450091 101.889671 
L 286.26222 98.165114 
L 286.668284 98.427245 
L 287.480412 76.223839 
L 288.292541 100.138072 
L 288.698605 97.262854 
L 289.104669 90.490645 
L 289.510734 86.109118 
L 289.916798 87.364257 
L 290.322862 86.771175 
L 290.728927 90.373633 
L 291.134991 106.224057 
L 291.541055 114.844618 
L 291.947119 114.753863 
L 292.353184 109.389543 
L 292.759248 89.233509 
L 293.165312 75.225073 
L 294.383505 81.914979 
L 294.789569 81.678231 
L 295.195634 79.6398 
L 296.007762 76.979109 
L 296.413827 76.514307 
L 297.225955 93.418702 
L 297.632019 95.407374 
L 298.038084 93.978931 
L 298.444148 87.823548 
L 298.850212 78.04657 
L 299.256277 73.923118 
L 300.474469 84.768345 
L 300.880534 92.8083 
L 301.286598 87.578017 
L 301.692662 75.050313 
L 302.098727 74.83235 
L 302.504791 76.907786 
L 302.910855 73.87169 
L 303.316919 81.982564 
L 303.722984 96.357532 
L 304.129048 100.084455 
L 304.535112 97.368169 
L 304.941176 99.614521 
L 305.347241 102.570665 
L 305.753305 101.476466 
L 306.159369 103.377569 
L 306.971498 119.726842 
L 307.377562 113.056624 
L 307.783626 102.15185 
L 308.189691 97.780167 
L 309.001819 77.267014 
L 309.407884 84.509821 
L 309.813948 106.806763 
L 310.220012 119.652655 
L 310.626076 98.769297 
L 311.032141 64.608674 
L 311.438205 51.475494 
L 311.844269 50.337761 
L 312.250334 43.796985 
L 312.656398 47.147695 
L 313.468526 121.110554 
L 313.874591 97.808329 
L 314.280655 60.940735 
L 314.686719 63.855703 
L 315.092784 80.055024 
L 315.904912 57.796252 
L 316.717041 117.92897 
L 317.123105 122.934393 
L 317.935233 135.19191 
L 318.341298 133.625374 
L 318.747362 135.000796 
L 319.153426 137.255053 
L 320.371619 112.10648 
L 321.183748 81.21846 
L 321.589812 77.462006 
L 321.995876 67.580484 
L 322.401941 53.493025 
L 323.214069 34.838699 
L 323.620133 46.856324 
L 324.026198 86.3125 
L 324.432262 108.786055 
L 324.838326 119.991885 
L 325.244391 134.543764 
L 325.650455 134.816445 
L 326.056519 116.496135 
L 326.868648 39.185224 
L 327.274712 49.115164 
L 327.680776 87.124195 
L 328.492905 133.502374 
L 328.898969 147.338587 
L 329.305033 142.247786 
L 329.711098 129.54014 
L 330.117162 122.532138 
L 330.523226 124.162087 
L 330.92929 115.68061 
L 331.741419 33.006605 
L 332.147483 27.9 
L 332.553548 58.651903 
L 333.365676 142.349255 
L 333.77174 145.37352 
L 334.177805 133.217369 
L 334.989933 116.096825 
L 335.395998 104.549884 
L 335.802062 104.781235 
L 336.61419 130.384468 
L 337.020255 127.034249 
L 337.832383 84.411751 
L 338.238448 80.026052 
L 338.644512 91.854078 
L 339.050576 99.774541 
L 339.862705 80.367618 
L 340.674833 101.022732 
L 341.080898 101.772339 
L 341.893026 98.125661 
L 342.29909 92.584669 
L 342.705155 92.303222 
L 343.111219 100.902793 
L 343.517283 103.489811 
L 343.923347 99.3673 
L 344.329412 100.869636 
L 344.735476 98.678851 
L 345.14154 81.010293 
L 345.547605 72.969596 
L 345.953669 85.692136 
L 346.359733 92.654022 
L 346.765797 90.47569 
L 347.171862 99.072764 
L 347.577926 111.946378 
L 347.98399 115.559592 
L 348.390055 114.346226 
L 348.796119 115.84384 
L 349.202183 114.61511 
L 350.014312 81.338824 
L 350.420376 74.391562 
L 350.82644 72.851185 
L 351.232505 81.5878 
L 351.638569 101.179455 
L 352.044633 111.412229 
L 352.450697 110.57656 
L 352.856762 110.30255 
L 353.262826 106.609862 
L 355.699212 60.045008 
L 356.105276 56.012671 
L 356.51134 58.029886 
L 358.135597 91.277997 
L 358.541662 89.339884 
L 358.947726 78.076797 
L 359.35379 72.212961 
L 360.165919 67.438551 
L 360.571983 75.11358 
L 361.790176 121.667542 
L 362.19624 119.427179 
L 362.602304 105.963522 
L 363.008369 98.038288 
L 363.414433 101.713523 
L 363.820497 107.991841 
L 364.632626 116.7455 
L 365.03869 113.782254 
L 365.444754 91.532358 
L 365.850819 61.650422 
L 366.256883 58.350302 
L 367.069012 104.371937 
L 367.475076 115.808494 
L 367.88114 120.046824 
L 368.287204 117.29123 
L 368.693269 101.969688 
L 369.099333 76.29456 
L 369.505397 59.891098 
L 369.911461 63.600265 
L 370.72359 72.550223 
L 371.129654 85.162443 
L 371.535719 88.189206 
L 371.941783 72.789689 
L 372.347847 64.824618 
L 373.972104 84.433284 
L 374.378169 85.502337 
L 374.784233 82.594454 
L 375.190297 82.68349 
L 375.596361 87.143681 
L 376.002426 80.482724 
L 376.40849 63.832225 
L 376.814554 67.250587 
L 377.626683 97.179876 
L 378.032747 103.077841 
L 378.844876 107.146008 
L 379.25094 104.746175 
L 379.657004 97.850263 
L 380.063069 96.688191 
L 380.469133 98.560411 
L 380.875197 104.178789 
L 381.687326 134.271361 
L 382.09339 133.645349 
L 382.499454 110.302777 
L 382.905518 80.435959 
L 383.311583 64.485277 
L 383.717647 68.217834 
L 384.123711 77.031441 
L 384.93584 81.366231 
L 385.341904 69.055641 
L 385.747968 44.566464 
L 386.154033 44.769997 
L 386.560097 64.442485 
L 386.966161 71.508745 
L 387.372226 66.561859 
L 387.77829 68.474213 
L 388.184354 78.61331 
L 388.590418 80.782027 
L 389.402547 61.556811 
L 389.808611 60.675199 
L 390.62074 82.67091 
L 391.838933 97.513526 
L 392.244997 92.205242 
L 392.651061 74.843189 
L 393.057126 66.242156 
L 393.869254 61.11042 
L 394.681383 82.877688 
L 395.087447 78.229128 
L 395.493511 70.861179 
L 395.899576 74.452104 
L 396.30564 81.020898 
L 397.117768 87.164809 
L 397.929897 107.82281 
L 398.335961 98.299532 
L 398.742025 79.60264 
L 399.14809 73.450209 
L 399.554154 76.841494 
L 399.960218 83.858068 
L 400.366283 87.214058 
L 400.772347 85.221538 
L 401.178411 89.174228 
L 401.584475 97.724729 
L 402.396604 108.932056 
L 402.802668 118.11169 
L 403.208733 113.251402 
L 403.614797 88.844838 
L 404.020861 72.904501 
L 404.426925 80.280338 
L 404.83299 92.303732 
L 405.239054 96.717223 
L 405.645118 94.395957 
L 406.051183 87.097645 
L 406.457247 82.723587 
L 406.863311 84.540191 
L 407.269375 91.205691 
L 407.67544 104.709875 
L 408.081504 114.100988 
L 408.487568 107.527465 
L 408.893633 97.510208 
L 409.299697 93.668824 
L 410.111825 80.329739 
L 410.51789 87.792374 
L 410.923954 105.661054 
L 411.330018 116.809141 
L 411.736082 117.02294 
L 412.142147 108.480422 
L 412.954275 75.993612 
L 413.36034 68.405828 
L 413.766404 73.192913 
L 414.984597 105.143987 
L 415.390661 101.992102 
L 416.20279 81.854173 
L 416.608854 80.286697 
L 417.014918 88.916961 
L 417.420982 100.476635 
L 417.827047 106.030093 
L 418.233111 104.604338 
L 419.451304 93.971344 
L 419.857368 95.949619 
L 420.263432 96.693471 
L 420.669497 92.465142 
L 421.075561 91.556059 
L 421.481625 95.314795 
L 421.88769 95.468682 
L 422.293754 94.929617 
L 422.699818 100.523121 
L 423.105882 108.854264 
L 423.511947 111.610298 
L 423.918011 108.65408 
L 424.324075 109.32931 
L 425.136204 116.651786 
L 425.542268 118.659998 
L 425.948332 117.699345 
L 426.354397 111.549815 
L 427.166525 95.316592 
L 427.978654 79.057755 
L 428.384718 84.567743 
L 428.790782 98.496157 
L 429.196847 98.141296 
L 429.602911 83.18432 
L 430.008975 76.661535 
L 430.821104 90.955688 
L 431.227168 88.470431 
L 431.633232 83.523859 
L 432.445361 90.375799 
L 432.851425 82.952169 
L 433.257489 80.009735 
L 434.069618 101.804608 
L 434.475682 100.882951 
L 434.881747 91.761378 
L 435.287811 87.683046 
L 435.693875 86.447918 
L 436.099939 83.859984 
L 436.506004 86.362141 
L 436.912068 94.235653 
L 437.318132 96.555755 
L 437.724196 89.386229 
L 438.130261 84.643011 
L 438.536325 85.050415 
L 438.942389 86.797039 
L 439.348454 90.378037 
L 439.754518 90.740489 
L 440.160582 89.877958 
L 440.972711 101.244983 
L 441.378775 97.710463 
L 441.784839 92.741752 
L 442.190904 96.729219 
L 442.596968 102.112774 
L 443.409096 97.98794 
L 444.221225 108.275824 
L 444.627289 105.602525 
L 445.439418 91.121723 
L 445.845482 89.716184 
L 446.251546 88.747453 
L 446.657611 85.916438 
L 447.063675 85.645665 
L 447.875804 97.954319 
L 448.281868 92.310239 
L 448.687932 82.822331 
L 449.093996 79.738639 
L 449.500061 82.404786 
L 449.906125 88.868338 
L 450.718253 98.072371 
L 451.124318 103.358292 
L 451.530382 101.069122 
L 451.936446 93.774911 
L 452.342511 91.480268 
L 453.154639 88.795578 
L 453.966768 97.7685 
L 454.372832 97.537352 
L 454.778896 98.97247 
L 455.184961 98.34963 
L 455.997089 80.233925 
L 456.403153 80.477863 
L 457.215282 89.925011 
L 457.621346 91.550898 
L 458.027411 89.386603 
L 458.433475 87.838861 
L 458.839539 85.618923 
L 459.245603 82.300006 
L 459.651668 80.30654 
L 460.057732 78.872405 
L 460.463796 79.834409 
L 461.275925 90.609867 
L 461.681989 94.293523 
L 462.088053 96.632693 
L 462.494118 95.93161 
L 462.900182 94.440028 
L 463.71231 100.697807 
L 464.118375 97.564372 
L 464.524439 90.950732 
L 464.930503 86.869165 
L 465.336568 89.052175 
L 466.148696 98.416218 
L 466.55476 101.973764 
L 466.960825 107.754894 
L 467.366889 108.724066 
L 468.179018 88.406321 
L 468.585082 88.870378 
L 468.991146 92.250673 
L 469.803275 88.981597 
L 470.209339 89.831618 
L 470.615403 92.826146 
L 471.021468 97.460223 
L 471.427532 98.011717 
L 471.833596 96.598721 
L 472.23966 94.747718 
L 473.457853 87.184105 
L 473.863918 88.338187 
L 474.269982 91.87785 
L 474.676046 93.626109 
L 475.08211 96.218344 
L 475.488175 102.48641 
L 475.894239 101.678501 
L 476.300303 90.459342 
L 476.706367 88.156111 
L 477.112432 98.453011 
L 477.518496 101.264246 
L 477.92456 97.665904 
L 478.330625 100.334283 
L 478.736689 107.70951 
L 479.142753 104.49164 
L 479.548817 90.086249 
L 479.954882 83.246404 
L 480.360946 85.267469 
L 480.76701 86.648189 
L 481.173075 86.333655 
L 481.579139 88.019826 
L 481.985203 87.73938 
L 482.797332 76.349763 
L 483.203396 72.360622 
L 483.60946 69.544493 
L 484.421589 77.372808 
L 484.827653 78.753664 
L 485.639782 77.297256 
L 486.045846 77.080233 
L 486.857975 69.275028 
L 487.264039 74.833723 
L 487.670103 86.868528 
L 488.076167 89.991712 
L 488.482232 82.965299 
L 488.888296 79.887806 
L 489.29436 83.391957 
L 490.106489 100.931684 
L 490.512553 101.245299 
L 490.918617 95.435103 
L 491.730746 86.643801 
L 492.13681 79.828343 
L 492.542874 78.632206 
L 493.355003 90.035163 
L 494.167132 103.497743 
L 494.573196 99.701603 
L 494.97926 89.749329 
L 495.385324 90.00354 
L 495.791389 93.096324 
L 496.197453 90.655281 
L 496.603517 94.44218 
L 497.009582 102.482841 
L 497.415646 100.517804 
L 497.82171 95.231991 
L 498.227774 96.74009 
L 498.633839 99.638013 
L 499.039903 94.647635 
L 499.445967 81.004521 
L 499.852032 72.197186 
L 500.258096 76.56133 
L 500.66416 82.228955 
L 501.070224 78.992219 
L 501.476289 82.174354 
L 501.882353 96.42341 
L 502.288417 95.557448 
L 502.694482 88.695249 
L 503.100546 96.188601 
L 503.50661 100.36191 
L 504.318739 75.524214 
L 504.724803 69.229431 
L 505.130867 72.558228 
L 505.536931 81.073611 
L 505.942996 85.147211 
L 506.34906 91.762166 
L 506.755124 102.416145 
L 507.161189 106.389512 
L 507.973317 94.40762 
L 508.379381 92.637876 
L 508.785446 89.406064 
L 509.19151 85.042685 
L 509.597574 86.3627 
L 510.003639 91.798141 
L 510.409703 93.2014 
L 511.221831 89.887959 
L 511.627896 95.041705 
L 512.03396 101.657072 
L 512.440024 101.167698 
L 512.846089 99.979528 
L 513.252153 101.062462 
L 513.658217 100.156454 
L 514.064281 99.793987 
L 514.470346 97.046058 
L 515.282474 74.643145 
L 515.688539 70.230041 
L 516.094603 74.26276 
L 516.906731 92.5358 
L 517.312796 96.362046 
L 517.71886 96.732272 
L 518.124924 95.180818 
L 519.343117 87.689657 
L 519.749181 89.178277 
L 520.56131 108.808042 
L 520.967374 104.617439 
L 521.373438 94.497972 
L 521.779503 91.507426 
L 522.185567 92.360717 
L 522.591631 86.205232 
L 522.997696 87.728535 
L 523.40376 107.519475 
L 523.809824 120.652435 
L 524.215888 112.72163 
L 524.621953 100.310497 
L 525.028017 96.14827 
L 525.434081 95.284542 
L 525.840146 91.695018 
L 526.24621 91.032944 
L 527.058338 104.972106 
L 527.464403 106.832745 
L 527.870467 103.223306 
L 528.276531 101.938477 
L 528.682596 97.431035 
L 529.08866 89.886411 
L 529.494724 90.417921 
L 529.900788 94.515484 
L 530.712917 91.040388 
L 531.118981 98.20671 
L 531.525045 102.79324 
L 531.93111 97.195015 
L 532.337174 93.477448 
L 532.743238 94.1642 
L 533.149303 89.521609 
L 533.555367 81.94384 
L 533.961431 79.575233 
L 534.367495 85.195834 
L 534.77356 94.774559 
L 535.179624 101.463204 
L 535.585688 98.594706 
L 535.991753 91.530536 
L 536.397817 89.03375 
L 536.803881 90.358111 
L 537.209945 93.455671 
L 537.61601 93.431356 
L 538.428138 83.889028 
L 538.834203 83.503943 
L 539.646331 88.015239 
L 540.052395 88.823458 
L 540.45846 87.815084 
L 540.864524 87.760342 
L 541.270588 90.346669 
L 541.676653 92.200648 
L 542.488781 91.306193 
L 542.894845 89.940521 
L 543.30091 86.76249 
L 543.706974 82.302554 
L 544.113038 81.699858 
L 544.519102 84.61822 
L 544.925167 85.774016 
L 545.331231 85.892867 
L 545.737295 87.945949 
L 546.14336 91.58459 
L 546.955488 101.916527 
L 547.361552 102.156896 
L 547.767617 98.912589 
L 548.98581 83.184827 
L 549.391874 82.220487 
L 549.797938 83.318153 
L 550.204002 90.332747 
L 550.610067 100.082531 
L 551.016131 103.001546 
L 551.422195 94.803311 
L 551.82826 90.864126 
L 552.234324 95.691278 
L 552.640388 95.570444 
L 553.046452 92.735026 
L 553.858581 97.385552 
L 554.264645 93.383375 
L 554.67071 88.008274 
L 555.076774 90.891053 
L 555.482838 97.68261 
L 555.888902 96.925194 
L 556.294967 95.063382 
L 556.701031 97.08196 
L 557.107095 96.57635 
L 557.513159 95.0769 
L 557.919224 96.438945 
L 558.731352 101.435532 
L 559.137417 102.341099 
L 559.543481 98.297773 
L 560.355609 76.514344 
L 560.761674 74.773255 
L 561.167738 80.218055 
L 561.979867 92.409879 
L 562.385931 92.585474 
L 563.198059 80.202545 
L 563.604124 76.400457 
L 564.010188 74.32646 
L 564.416252 75.072117 
L 566.446574 94.310113 
L 566.852638 92.086443 
L 567.258702 86.78328 
L 567.664767 85.005478 
L 568.070831 82.318012 
L 568.476895 77.696272 
L 568.882959 77.766566 
L 569.289024 82.989306 
L 569.695088 85.350194 
L 570.101152 85.548233 
L 570.507216 90.298541 
L 570.913281 98.297523 
L 571.319345 101.311511 
L 571.725409 97.165491 
L 572.131474 95.035306 
L 572.537538 97.370527 
L 572.943602 97.31901 
L 573.349666 96.472264 
L 573.755731 100.197623 
L 574.161795 105.166246 
L 574.567859 106.2225 
L 574.973924 103.33767 
L 575.379988 96.644994 
L 575.786052 87.862097 
L 576.192116 82.298845 
L 576.598181 85.808615 
L 577.004245 90.715333 
L 577.410309 88.859001 
L 577.816374 84.379548 
L 578.222438 82.520003 
L 578.628502 83.122118 
L 579.034566 84.863676 
L 579.440631 89.087083 
L 579.846695 94.638612 
L 580.252759 94.299996 
L 581.064888 80.148539 
L 581.470952 76.838579 
L 581.877016 74.764053 
L 582.283081 75.610554 
L 583.095209 83.706836 
L 583.501273 83.116485 
L 583.907338 83.472856 
L 585.125531 91.877382 
L 585.531595 96.566197 
L 585.937659 97.605763 
L 586.343723 95.666469 
L 586.749788 97.999662 
L 587.155852 96.450209 
L 587.561916 86.182746 
L 587.967981 82.569793 
L 588.780109 94.755608 
L 589.186173 95.032914 
L 589.592238 95.719669 
L 589.998302 95.035311 
L 590.810431 84.055049 
L 591.216495 87.188644 
L 591.622559 93.304795 
L 592.028623 94.536814 
L 592.840752 89.47759 
L 593.246816 88.200685 
L 594.058945 84.206689 
L 594.465009 87.209436 
L 594.871073 93.620442 
L 595.277138 95.442874 
L 595.683202 91.223082 
L 596.089266 88.353016 
L 596.495331 89.332821 
L 596.901395 89.743543 
L 597.307459 87.310581 
L 597.713523 86.437916 
L 598.119588 85.930126 
L 598.525652 82.54409 
L 598.931716 82.386398 
L 599.743845 94.145329 
L 600.149909 97.447197 
L 600.555973 98.385511 
L 600.962038 97.140682 
L 601.368102 93.618575 
L 601.774166 87.978217 
L 602.18023 84.544866 
L 602.586295 85.83336 
L 602.992359 88.505644 
L 603.804488 91.056602 
L 604.616616 98.530676 
L 605.02268 100.625199 
L 605.428745 101.648288 
L 606.240873 104.998779 
L 606.646938 103.372972 
L 607.86513 88.405888 
L 608.271195 87.277614 
L 608.677259 90.038133 
L 609.895452 103.652373 
L 610.301516 104.276028 
L 611.113645 99.669378 
L 611.519709 96.983562 
L 611.925773 95.921006 
L 612.331837 98.633621 
L 612.737902 100.023076 
L 613.55003 94.924226 
L 613.956095 94.799438 
L 614.768223 93.395128 
L 615.174287 95.730955 
L 615.580352 99.358076 
L 615.986416 99.327585 
L 616.39248 95.184979 
L 616.798545 92.405192 
L 617.204609 91.789269 
L 617.610673 91.402428 
L 618.016737 91.3682 
L 618.422802 91.993371 
L 618.828866 92.255957 
L 619.23493 90.440327 
L 620.047059 84.582635 
L 620.453123 84.709762 
L 621.265252 90.824619 
L 621.671316 92.047532 
L 622.07738 92.635046 
L 622.483445 92.89011 
L 622.889509 92.49624 
L 623.295573 92.898453 
L 623.701637 94.418614 
L 624.107702 93.283929 
L 624.513766 88.598572 
L 624.91983 86.700937 
L 625.325894 88.161287 
L 625.731959 88.32761 
L 626.138023 87.333197 
L 626.544087 87.895787 
L 627.356216 90.465048 
L 627.76228 90.927857 
L 628.168344 91.044419 
L 628.574409 91.352018 
L 628.980473 90.845824 
L 629.386537 90.099297 
L 629.792602 91.106741 
L 630.198666 93.871161 
L 630.60473 95.605087 
L 631.416859 93.14326 
L 631.822923 94.515922 
L 632.228987 94.761833 
L 632.635052 91.699112 
L 633.041116 90.543282 
L 633.44718 93.692756 
L 633.853244 95.843834 
L 634.665373 95.756353 
L 635.071437 94.799087 
L 635.883566 88.305248 
L 636.28963 88.730813 
L 636.695694 90.160073 
L 637.507823 91.983786 
L 637.913887 92.276212 
L 638.726016 88.935267 
L 639.13208 87.315939 
L 639.538144 86.369752 
L 640.350273 86.504672 
L 640.756337 87.546178 
L 641.568466 93.71407 
L 641.97453 92.390868 
L 642.380594 87.759537 
L 642.786659 87.331288 
L 643.192723 87.518528 
L 643.598787 84.225996 
L 644.004851 84.709245 
L 644.410916 90.082261 
L 644.81698 91.04787 
L 645.223044 87.453571 
L 645.629109 85.905594 
L 646.035173 85.648858 
L 646.441237 84.219475 
L 646.847301 84.721062 
L 647.253366 87.794451 
L 647.65943 88.211232 
L 648.065494 87.053205 
L 648.877623 91.944566 
L 649.283687 91.659144 
L 649.689751 91.678104 
L 650.095816 91.189908 
L 650.50188 86.131658 
L 650.907944 83.351001 
L 652.126137 95.603935 
L 652.532201 96.266686 
L 652.938266 94.048001 
L 654.156458 83.197957 
L 654.562523 83.926259 
L 655.374651 89.257769 
L 655.780716 89.711864 
L 656.18678 89.008586 
L 656.592844 87.676036 
L 656.998908 85.621545 
L 657.404973 85.24323 
L 657.811037 89.081078 
L 658.217101 94.446122 
L 658.623166 95.051825 
L 659.02923 90.10942 
L 659.435294 86.79827 
L 659.841358 85.820132 
L 660.653487 82.225415 
L 661.059551 83.435322 
L 661.465616 85.071087 
L 662.277744 83.956907 
L 662.683808 86.149697 
L 663.089873 89.961773 
L 663.495937 92.033698 
L 664.308065 89.633089 
L 665.120194 92.283118 
L 665.932323 90.06964 
L 666.338387 90.612406 
L 667.150515 90.790097 
L 667.55658 91.332954 
L 667.962644 92.242153 
L 668.774773 99.213213 
L 669.180837 96.567529 
L 669.586901 89.193302 
L 669.992965 85.504286 
L 670.39903 86.072649 
L 671.617223 90.761538 
L 672.429351 95.755944 
L 672.835415 95.982371 
L 673.24148 95.638067 
L 673.647544 95.940796 
L 674.053608 95.071119 
L 674.865737 90.116963 
L 675.271801 89.652006 
L 675.677865 90.524203 
L 676.08393 89.434256 
L 676.489994 89.205191 
L 677.302122 96.918828 
L 677.708187 97.985647 
L 679.332444 91.381738 
L 679.738508 93.498368 
L 680.144572 98.127217 
L 680.550637 98.765067 
L 682.580958 86.741653 
L 682.987022 87.544386 
L 683.799151 92.46776 
L 684.205215 93.385208 
L 685.017344 88.791252 
L 685.423408 88.640535 
L 685.829472 88.284417 
L 686.235537 85.414434 
L 686.641601 84.950483 
L 687.45373 95.626627 
L 687.859794 95.860984 
L 688.265858 95.397075 
L 688.671922 97.385323 
L 689.077987 97.629199 
L 689.484051 94.667992 
L 689.890115 93.438498 
L 690.29618 93.833745 
L 690.702244 92.404608 
L 691.108308 89.877524 
L 691.514372 89.886585 
L 692.732565 99.715086 
L 693.138629 100.34029 
L 693.544694 99.38867 
L 694.762887 91.736934 
L 695.168951 90.929345 
L 695.575015 90.978155 
L 695.981079 92.396823 
L 696.793208 96.905052 
L 697.605337 97.76611 
L 698.011401 96.487644 
L 698.823529 88.084509 
L 699.229594 87.831075 
L 699.635658 89.923683 
L 700.041722 90.611432 
L 700.853851 89.577808 
L 701.259915 88.563761 
L 701.665979 88.375815 
L 702.072044 89.826027 
L 702.884172 93.685482 
L 703.696301 96.489714 
L 704.102365 96.65357 
L 704.508429 96.555155 
L 704.914494 97.077343 
L 705.320558 96.351979 
L 705.726622 93.585897 
L 706.132686 93.094473 
L 706.538751 95.322708 
L 706.944815 95.475389 
L 707.350879 93.923984 
L 707.756944 93.719478 
L 708.163008 94.786382 
L 708.569072 95.325307 
L 709.381201 93.587091 
L 709.787265 93.597071 
L 710.193329 92.904939 
L 710.599394 91.896427 
L 711.411522 93.802718 
L 711.817586 93.546892 
L 712.629715 87.40315 
L 713.035779 87.706275 
L 713.441844 91.551236 
L 713.847908 91.777917 
L 714.253972 88.782235 
L 714.660036 87.644128 
L 715.066101 87.701091 
L 715.472165 85.708346 
L 715.878229 82.745163 
L 716.284294 83.253924 
L 716.690358 86.498899 
L 717.096422 87.021602 
L 717.502486 86.661724 
L 717.908551 89.106276 
L 718.314615 92.76034 
L 718.720679 95.379738 
L 719.126743 95.046179 
L 719.532808 91.803057 
L 719.938872 89.495503 
L 720.344936 89.342388 
L 720.751001 89.738884 
L 721.157065 90.819911 
L 721.969193 94.485536 
L 722.375258 93.825323 
L 722.781322 91.976005 
L 723.187386 91.003233 
L 723.593451 91.233195 
L 723.999515 92.310362 
L 724.405579 94.179965 
L 724.811643 95.51455 
L 725.217708 94.3644 
L 726.029836 88.653048 
L 726.435901 87.271055 
L 726.841965 86.841003 
L 727.654093 86.258967 
L 728.060158 86.4771 
L 728.466222 87.406757 
L 728.872286 88.012993 
L 729.684415 88.453852 
L 730.090479 88.29491 
L 730.496543 87.801252 
L 730.902608 88.204515 
L 731.308672 90.2291 
L 731.714736 91.517174 
L 732.1208 90.720334 
L 732.526865 90.74552 
L 732.932929 91.633785 
L 733.338993 90.584157 
L 733.745058 88.962591 
L 734.151122 89.204395 
L 734.96325 90.149367 
L 735.775379 92.724274 
L 736.181443 92.869411 
L 736.587508 92.774941 
L 737.399636 93.816178 
L 737.8057 92.608125 
L 738.211765 90.578406 
L 738.617829 89.690301 
L 739.023893 90.106454 
L 739.429958 90.178598 
L 739.836022 90.061712 
L 740.242086 90.710463 
L 740.64815 90.810351 
L 741.054215 90.243323 
L 741.460279 90.143733 
L 741.866343 90.720667 
L 742.678472 93.028225 
L 743.084536 93.187682 
L 743.896665 91.197866 
L 744.708793 89.493592 
L 745.114857 89.126931 
L 745.520922 89.314598 
L 745.926986 89.873276 
L 746.739115 90.244633 
L 747.551243 92.251965 
L 748.363372 90.945202 
L 748.769436 91.629497 
L 749.1755 91.992303 
L 749.581565 91.242085 
L 749.987629 90.961353 
L 750.393693 91.75072 
L 750.799757 92.029335 
L 751.205822 91.488666 
L 752.01795 91.403936 
L 752.424015 90.75126 
L 752.830079 90.341449 
L 753.236143 90.431162 
L 754.048272 90.155705 
L 754.8604 90.876841 
L 755.672529 90.720962 
L 756.078593 90.616702 
L 756.484657 90.350649 
L 756.890722 90.2299 
L 758.108914 90.885727 
L 758.514979 90.889773 
L 758.921043 90.730018 
L 759.733172 90.256142 
L 760.951364 90.871192 
L 761.763493 91.008924 
L 762.575622 91.059761 
L 763.793814 90.949932 
L 765.824136 91.224924 
L 767.448393 91.167943 
L 777.6 91.671801 
L 777.6 91.671801 
" clip-path="url(#p740b49e20d)" style="fill: none; stroke: #008000; stroke-width: 1.5; stroke-linecap: square"/>
   </g>
   <g id="line2d_22">
    <path d="M 108 91.878704 
L 112.872771 91.79744 
L 113.6849 91.770567 
L 116.121286 91.71229 
L 116.933414 91.645413 
L 117.745543 91.850792 
L 118.963736 91.602096 
L 120.181928 91.620394 
L 120.587993 91.483002 
L 121.400121 91.635857 
L 121.806186 91.226734 
L 122.21225 91.271307 
L 122.618314 91.573563 
L 123.430443 90.81527 
L 124.242571 91.687248 
L 124.648636 91.713558 
L 125.460764 91.451956 
L 126.272893 91.906153 
L 127.491086 91.437466 
L 128.303214 89.890642 
L 128.709278 90.439761 
L 129.115343 91.283187 
L 129.521407 90.832667 
L 129.927471 90.567743 
L 130.333535 91.795403 
L 130.7396 92.458283 
L 131.145664 90.955946 
L 131.551728 90.041626 
L 131.957793 91.295885 
L 132.363857 91.419458 
L 132.769921 89.801239 
L 133.175985 89.427937 
L 133.58205 90.559353 
L 133.988114 90.713047 
L 134.394178 90.126431 
L 135.206307 91.301699 
L 135.612371 90.697027 
L 136.018435 90.72103 
L 136.4245 91.183394 
L 137.236628 91.659524 
L 137.642693 90.853572 
L 138.048757 89.728397 
L 138.454821 89.659347 
L 138.860885 90.502564 
L 139.673014 91.420778 
L 140.079078 91.696311 
L 140.485143 91.163755 
L 140.891207 90.834693 
L 141.297271 91.523219 
L 141.703335 91.498185 
L 142.1094 90.590769 
L 142.515464 90.776824 
L 142.921528 91.088687 
L 143.327592 90.892783 
L 143.733657 91.206771 
L 144.139721 90.673329 
L 144.545785 89.297247 
L 144.95185 90.33588 
L 145.357914 91.764825 
L 146.170042 89.807367 
L 146.576107 89.681824 
L 146.982171 90.343555 
L 147.388235 91.292513 
L 147.7943 91.148742 
L 148.200364 90.634239 
L 148.606428 90.650237 
L 149.012492 90.546614 
L 149.418557 90.133963 
L 149.824621 90.700374 
L 150.230685 91.832313 
L 150.63675 91.114212 
L 151.042814 89.736529 
L 151.448878 89.820753 
L 151.854942 90.55986 
L 152.667071 91.013491 
L 153.073135 90.952677 
L 153.4792 91.287344 
L 153.885264 91.201412 
L 154.291328 90.049012 
L 154.697392 89.2523 
L 155.103457 90.027263 
L 155.509521 91.666615 
L 155.915585 91.953017 
L 156.727714 90.628601 
L 157.133778 90.458233 
L 157.945907 89.761562 
L 158.758035 91.528873 
L 159.570164 89.383413 
L 159.976228 89.446899 
L 160.382292 88.887459 
L 160.788357 89.126882 
L 161.194421 91.809938 
L 161.600485 93.594224 
L 162.412614 88.016856 
L 162.818678 89.663257 
L 163.224742 92.790202 
L 163.630807 94.027844 
L 164.036871 93.130037 
L 164.442935 90.220777 
L 164.848999 88.750949 
L 165.661128 93.435273 
L 166.473257 91.379432 
L 166.879321 91.271557 
L 167.285385 89.446537 
L 167.691449 88.197568 
L 168.503578 91.626233 
L 168.909642 91.685599 
L 169.315706 92.197381 
L 169.721771 93.046544 
L 170.127835 92.375017 
L 170.533899 90.46891 
L 170.939964 90.8489 
L 171.346028 92.903198 
L 171.752092 92.568846 
L 172.158156 91.0271 
L 172.970285 89.251103 
L 173.376349 89.420488 
L 174.188478 90.98665 
L 174.594542 93.165149 
L 175.000606 94.292439 
L 175.406671 90.618975 
L 175.812735 88.42866 
L 176.218799 91.701083 
L 176.624864 93.82929 
L 177.030928 93.439794 
L 177.436992 92.875985 
L 177.843056 91.799755 
L 178.249121 90.092161 
L 178.655185 89.492814 
L 179.467314 92.051188 
L 179.873378 93.783285 
L 180.279442 93.501879 
L 180.685506 90.51827 
L 181.091571 88.447736 
L 181.903699 92.022248 
L 182.309763 92.568623 
L 182.715828 93.540804 
L 183.121892 92.206656 
L 183.527956 89.367078 
L 183.934021 89.701605 
L 184.340085 92.761112 
L 184.746149 93.509701 
L 185.152213 91.419451 
L 185.558278 90.222046 
L 186.370406 90.4252 
L 186.776471 91.988229 
L 187.182535 92.694609 
L 187.588599 89.898238 
L 187.994663 88.1286 
L 188.400728 90.001574 
L 188.806792 91.278908 
L 189.212856 90.974523 
L 189.618921 90.895417 
L 190.024985 91.263033 
L 190.431049 91.985159 
L 190.837113 92.12367 
L 191.243178 91.632501 
L 191.649242 92.253609 
L 192.055306 92.22973 
L 192.461371 90.855411 
L 192.867435 90.006239 
L 193.679563 87.119351 
L 194.085628 88.692819 
L 194.491692 91.798972 
L 194.897756 92.636658 
L 195.30382 92.524163 
L 195.709885 93.404707 
L 196.115949 94.729305 
L 196.522013 96.875231 
L 197.334142 102.583972 
L 197.740206 101.695751 
L 198.14627 99.499539 
L 198.552335 100.308506 
L 198.958399 101.518869 
L 199.364463 101.153517 
L 199.770528 101.230413 
L 200.176592 101.586527 
L 200.582656 101.10377 
L 201.394785 101.545101 
L 201.800849 101.254339 
L 202.206913 100.551387 
L 202.612978 98.403388 
L 203.425106 90.770491 
L 205.049363 73.222053 
L 205.861492 66.224751 
L 206.267556 65.631602 
L 206.67362 68.258423 
L 207.079685 71.945134 
L 207.485749 73.887303 
L 207.891813 72.57423 
L 208.297878 70.292419 
L 208.703942 71.385568 
L 209.51607 80.652703 
L 209.922135 83.63472 
L 210.328199 84.797963 
L 210.734263 84.877888 
L 211.140327 83.360702 
L 211.546392 84.490595 
L 212.35852 113.955486 
L 212.764585 106.26209 
L 213.170649 91.957964 
L 213.576713 107.402599 
L 213.982777 117.658947 
L 214.388842 110.222767 
L 214.794906 108.954175 
L 215.20097 112.315909 
L 215.607035 112.461022 
L 216.013099 110.702704 
L 216.419163 107.41678 
L 217.231292 96.054837 
L 217.637356 92.810869 
L 218.04342 91.833288 
L 218.449485 90.239127 
L 219.261613 85.655991 
L 219.667677 85.002846 
L 220.073742 86.021812 
L 220.479806 91.045092 
L 220.88587 94.390352 
L 221.291935 88.208343 
L 221.697999 87.498964 
L 222.104063 91.833042 
L 222.510127 85.304873 
L 222.916192 82.074148 
L 223.322256 89.046876 
L 223.72832 90.946422 
L 224.540449 81.262765 
L 224.946513 79.452974 
L 225.352577 80.679772 
L 225.758642 84.660059 
L 226.164706 87.508831 
L 226.57077 85.191364 
L 226.976834 83.702621 
L 227.382899 85.311298 
L 227.788963 85.591425 
L 228.195027 84.783691 
L 228.601092 83.084812 
L 229.007156 78.964188 
L 229.41322 79.921543 
L 230.225349 97.893601 
L 230.631413 97.633486 
L 231.037477 92.698399 
L 231.443542 93.543437 
L 231.849606 99.262438 
L 232.25567 101.878391 
L 233.067799 94.192816 
L 233.473863 93.236375 
L 234.285992 92.567137 
L 234.692056 93.197306 
L 235.09812 93.027578 
L 235.504184 92.652656 
L 235.910249 94.993492 
L 236.316313 98.072394 
L 236.722377 98.96636 
L 237.128441 96.018907 
L 237.534506 90.921355 
L 237.94057 90.16759 
L 238.752699 103.168331 
L 239.158763 101.92155 
L 239.564827 96.079569 
L 239.970891 94.584926 
L 240.376956 94.163053 
L 241.189084 81.620869 
L 242.001213 82.611065 
L 242.407277 80.800489 
L 242.813341 83.085899 
L 243.219406 88.097321 
L 243.62547 89.294153 
L 244.031534 86.124876 
L 244.437599 85.495503 
L 245.249727 94.349254 
L 245.655791 95.538265 
L 246.46792 88.802864 
L 246.873984 89.307454 
L 247.280049 90.838091 
L 247.686113 91.636005 
L 248.092177 94.351959 
L 248.498241 98.227116 
L 248.904306 96.04415 
L 249.31037 92.560922 
L 249.716434 93.632131 
L 250.122498 95.806455 
L 250.528563 94.825446 
L 250.934627 92.430102 
L 251.340691 92.409434 
L 251.746756 93.629275 
L 252.15282 92.766669 
L 252.558884 93.829729 
L 252.964948 94.458636 
L 253.371013 91.979691 
L 253.777077 91.713005 
L 254.183141 92.938282 
L 254.589206 92.894513 
L 254.99527 93.503908 
L 255.401334 90.859753 
L 255.807398 85.282153 
L 256.213463 83.17116 
L 256.619527 83.66939 
L 257.025591 83.403987 
L 257.83772 88.38294 
L 258.649848 78.212326 
L 259.055913 78.258716 
L 259.461977 76.552958 
L 259.868041 76.141802 
L 260.68017 84.945185 
L 261.492298 99.947891 
L 261.898363 101.485918 
L 263.116555 92.346989 
L 263.52262 93.856305 
L 263.928684 97.322772 
L 264.334748 96.881714 
L 264.740813 93.866528 
L 265.146877 94.560853 
L 265.552941 93.207021 
L 265.959005 87.21752 
L 266.36507 86.438177 
L 266.771134 88.196751 
L 267.583263 92.964157 
L 267.989327 92.15886 
L 268.395391 88.56717 
L 268.801455 89.415954 
L 269.20752 95.38813 
L 269.613584 96.486786 
L 270.019648 91.771919 
L 270.425713 91.891439 
L 271.237841 104.943664 
L 271.643905 105.41625 
L 272.04997 103.455185 
L 272.456034 105.864183 
L 272.862098 113.26526 
L 273.268163 112.621035 
L 273.674227 98.840921 
L 274.080291 89.861138 
L 274.486355 96.654028 
L 274.89242 107.125159 
L 275.298484 110.139239 
L 276.110612 102.032705 
L 276.516677 94.854735 
L 277.328805 66.316152 
L 277.73487 66.461573 
L 278.140934 71.285693 
L 278.546998 67.690413 
L 278.953062 69.742731 
L 279.359127 79.252585 
L 279.765191 84.369021 
L 280.171255 83.443401 
L 280.57732 81.733331 
L 280.983384 82.332516 
L 281.389448 79.362382 
L 281.795512 74.388419 
L 282.201577 82.03118 
L 282.607641 80.682027 
L 283.013705 73.169523 
L 283.41977 78.50485 
L 283.825834 81.325253 
L 284.231898 76.583735 
L 284.637962 79.626023 
L 285.450091 95.711667 
L 285.856155 98.887862 
L 286.26222 97.355834 
L 286.668284 98.143831 
L 287.074348 98.040576 
L 287.480412 97.079631 
L 287.886477 101.17792 
L 288.292541 107.594323 
L 288.698605 115.893968 
L 289.104669 117.083203 
L 289.916798 102.900342 
L 290.728927 107.324418 
L 291.134991 106.407343 
L 291.541055 108.604076 
L 291.947119 113.347518 
L 292.353184 112.525934 
L 292.759248 101.707722 
L 293.165312 96.635935 
L 293.571377 100.089809 
L 293.977441 94.120122 
L 294.383505 84.992564 
L 294.789569 85.430547 
L 295.195634 90.033813 
L 295.601698 88.886329 
L 296.007762 86.002209 
L 296.413827 86.628269 
L 296.819891 86.474395 
L 297.632019 80.319906 
L 298.038084 82.66806 
L 298.444148 81.186955 
L 298.850212 74.494015 
L 299.256277 70.552212 
L 299.662341 78.065972 
L 300.068405 93.43369 
L 300.474469 97.581273 
L 300.880534 87.344801 
L 301.286598 66.790001 
L 301.692662 62.430102 
L 302.504791 113.372501 
L 302.910855 110.826483 
L 303.316919 86.420673 
L 303.722984 71.827685 
L 304.129048 85.64309 
L 304.535112 104.902385 
L 304.941176 111.373932 
L 305.347241 114.229989 
L 305.753305 123.408 
L 306.159369 128.675287 
L 306.565434 116.462097 
L 306.971498 98.226909 
L 307.377562 95.553519 
L 308.189691 108.238144 
L 308.595755 112.293437 
L 309.001819 90.000867 
L 309.407884 52.431117 
L 309.813948 42.98414 
L 310.220012 71.188072 
L 310.626076 110.142434 
L 311.032141 135.154413 
L 311.438205 128.895769 
L 311.844269 103.892139 
L 312.250334 87.795812 
L 312.656398 78.09614 
L 313.062462 61.395226 
L 313.468526 53.715057 
L 313.874591 70.509824 
L 314.280655 93.108857 
L 314.686719 109.391497 
L 315.092784 118.232591 
L 315.498848 113.626052 
L 315.904912 95.481244 
L 316.717041 48.043716 
L 317.123105 44.677091 
L 317.935233 82.616544 
L 318.341298 94.159924 
L 318.747362 99.011267 
L 319.559491 76.157951 
L 319.965555 94.410898 
L 320.371619 127.78827 
L 320.777683 149.587337 
L 321.183748 153.9 
L 321.589812 146.143771 
L 321.995876 135.589193 
L 322.808005 105.168941 
L 323.214069 100.536692 
L 323.620133 87.061625 
L 324.026198 63.206257 
L 324.432262 55.868388 
L 325.244391 93.218096 
L 325.650455 91.061523 
L 326.056519 87.790784 
L 326.462583 90.65822 
L 326.868648 85.588493 
L 327.680776 38.272776 
L 328.086841 31.030934 
L 328.492905 50.429 
L 328.898969 86.719878 
L 329.305033 85.01425 
L 329.711098 67.1205 
L 330.117162 78.431853 
L 330.523226 94.421212 
L 330.92929 87.131596 
L 331.335355 72.07127 
L 331.741419 74.113586 
L 332.147483 83.289005 
L 332.959612 54.30139 
L 333.77174 74.89967 
L 334.177805 66.999526 
L 334.583869 49.33381 
L 334.989933 45.900952 
L 335.802062 107.332944 
L 336.208126 110.317604 
L 337.020255 68.496215 
L 337.426319 66.005018 
L 337.832383 65.967066 
L 338.238448 67.914427 
L 338.644512 78.419758 
L 339.050576 82.12822 
L 339.45664 88.975609 
L 339.862705 109.053456 
L 340.268769 119.884666 
L 340.674833 119.757098 
L 341.080898 127.301312 
L 341.486962 137.92396 
L 341.893026 137.51334 
L 342.29909 118.325857 
L 342.705155 91.410541 
L 343.111219 76.598166 
L 343.517283 66.318303 
L 343.923347 60.713093 
L 344.329412 63.208901 
L 344.735476 62.647625 
L 345.14154 73.781582 
L 345.547605 107.155364 
L 345.953669 127.237267 
L 346.359733 127.758116 
L 346.765797 126.351558 
L 347.171862 106.062927 
L 347.577926 72.890842 
L 347.98399 54.532535 
L 348.390055 57.403808 
L 348.796119 57.091933 
L 349.202183 67.979059 
L 349.608247 100.762087 
L 350.014312 121.463965 
L 350.420376 135.534497 
L 350.82644 131.5697 
L 351.232505 110.722929 
L 351.638569 106.059057 
L 352.044633 111.6921 
L 352.450697 109.57432 
L 353.262826 95.890116 
L 353.66889 93.047463 
L 354.074955 98.567175 
L 354.887083 115.502237 
L 355.293147 116.039669 
L 355.699212 107.063449 
L 356.105276 94.916119 
L 356.51134 95.698437 
L 356.917404 107.964295 
L 357.323469 115.31705 
L 357.729533 117.288271 
L 358.135597 116.596194 
L 359.35379 88.318648 
L 359.759854 70.351243 
L 360.165919 47.20118 
L 360.571983 34.139969 
L 360.978047 42.560904 
L 361.790176 105.96925 
L 362.19624 107.157046 
L 363.008369 81.958961 
L 363.820497 66.40214 
L 364.226562 63.216774 
L 364.632626 76.14095 
L 365.03869 94.844711 
L 365.444754 106.051809 
L 365.850819 112.666714 
L 366.256883 116.67688 
L 366.662947 112.401494 
L 367.475076 95.904624 
L 367.88114 95.666009 
L 368.287204 104.804735 
L 368.693269 107.120077 
L 369.099333 95.549497 
L 369.505397 88.597503 
L 369.911461 98.165281 
L 370.317526 113.005518 
L 370.72359 119.588272 
L 371.129654 121.676369 
L 371.535719 120.568004 
L 371.941783 109.53152 
L 373.159976 59.463654 
L 373.56604 51.882427 
L 373.972104 55.607912 
L 374.378169 70.128264 
L 375.190297 111.941157 
L 375.596361 110.554485 
L 376.002426 89.478911 
L 376.40849 77.983156 
L 376.814554 76.869246 
L 377.626683 61.964941 
L 378.032747 65.141751 
L 378.438811 64.513147 
L 378.844876 82.508488 
L 379.25094 125.775446 
L 379.657004 130.137563 
L 380.063069 95.30848 
L 380.469133 74.118808 
L 380.875197 76.066771 
L 381.281261 78.946034 
L 381.687326 78.158224 
L 382.09339 86.633096 
L 382.499454 104.467061 
L 382.905518 110.750564 
L 383.311583 102.982056 
L 384.123711 70.936482 
L 384.529776 65.35613 
L 384.93584 70.19521 
L 385.341904 84.753719 
L 385.747968 105.28874 
L 386.154033 117.934059 
L 386.560097 119.754557 
L 386.966161 117.689115 
L 387.372226 116.63292 
L 387.77829 118.243122 
L 388.184354 107.05615 
L 388.590418 82.733464 
L 388.996483 76.897314 
L 389.808611 111.323289 
L 390.214676 107.122332 
L 390.62074 89.676617 
L 391.026804 78.358246 
L 391.432868 74.636976 
L 391.838933 69.533132 
L 392.244997 76.748684 
L 392.651061 102.349471 
L 393.057126 112.659957 
L 393.46319 100.984691 
L 393.869254 97.960958 
L 394.275318 105.224534 
L 394.681383 100.786218 
L 395.087447 87.326148 
L 395.493511 83.53027 
L 395.899576 90.159686 
L 396.30564 89.746625 
L 396.711704 78.765172 
L 397.117768 70.992368 
L 397.523833 72.793816 
L 397.929897 80.685537 
L 398.335961 91.407327 
L 399.14809 121.102278 
L 399.554154 124.780006 
L 399.960218 118.57719 
L 400.772347 89.160985 
L 401.178411 88.358007 
L 401.584475 92.381745 
L 401.99054 94.234223 
L 402.396604 93.003041 
L 402.802668 87.157638 
L 403.208733 85.011063 
L 403.614797 87.444667 
L 404.020861 83.688132 
L 404.426925 77.423356 
L 404.83299 82.010235 
L 405.239054 97.926214 
L 405.645118 108.668892 
L 406.051183 105.150303 
L 406.457247 89.561372 
L 406.863311 82.77984 
L 407.269375 94.367989 
L 407.67544 99.7331 
L 408.081504 92.156684 
L 408.487568 91.287417 
L 408.893633 94.699905 
L 409.705761 75.40805 
L 410.51789 74.274855 
L 410.923954 69.188188 
L 411.330018 69.174536 
L 411.736082 77.030949 
L 412.142147 79.578758 
L 412.548211 78.831941 
L 412.954275 89.912423 
L 413.36034 106.688425 
L 413.766404 111.747054 
L 414.984597 82.191024 
L 415.390661 77.897308 
L 416.20279 103.854084 
L 416.608854 104.910441 
L 417.014918 105.425511 
L 417.420982 104.546792 
L 418.233111 92.676792 
L 418.639175 95.735056 
L 419.04524 100.331896 
L 419.451304 99.788487 
L 419.857368 93.613639 
L 420.669497 79.750595 
L 421.075561 78.637133 
L 421.88769 89.161529 
L 422.293754 87.169606 
L 422.699818 90.151756 
L 423.105882 98.097515 
L 423.511947 103.180125 
L 423.918011 105.786185 
L 424.324075 105.697156 
L 424.730139 103.040351 
L 425.136204 99.106031 
L 426.354397 75.744762 
L 426.760461 82.826789 
L 427.166525 98.367495 
L 427.572589 101.94906 
L 427.978654 88.662359 
L 428.384718 80.887976 
L 429.196847 95.650616 
L 429.602911 93.47358 
L 430.008975 96.706119 
L 430.415039 104.545625 
L 430.821104 105.118321 
L 431.227168 101.919648 
L 431.633232 101.568689 
L 432.039297 99.858106 
L 433.663554 68.077201 
L 434.069618 67.43869 
L 434.475682 68.33449 
L 434.881747 75.630852 
L 435.287811 86.428037 
L 435.693875 83.391399 
L 436.099939 79.075204 
L 436.912068 90.735024 
L 437.318132 90.569429 
L 437.724196 92.158584 
L 438.130261 90.418972 
L 438.536325 83.907209 
L 438.942389 84.766207 
L 439.348454 89.530987 
L 439.754518 86.325747 
L 440.160582 89.607821 
L 440.566646 95.299722 
L 441.378775 74.126276 
L 441.784839 79.189502 
L 442.190904 88.177227 
L 442.596968 94.217789 
L 443.003032 91.480123 
L 443.409096 85.536657 
L 443.815161 88.361878 
L 444.221225 89.128128 
L 444.627289 87.12754 
L 445.033354 90.741049 
L 445.845482 103.099262 
L 446.251546 109.66528 
L 446.657611 106.723044 
L 447.063675 98.759031 
L 447.469739 94.671326 
L 447.875804 91.938809 
L 449.093996 76.751886 
L 449.500061 79.198961 
L 449.906125 85.028885 
L 450.312189 86.197049 
L 450.718253 84.645028 
L 451.124318 84.824197 
L 451.530382 85.504467 
L 452.342511 77.202602 
L 453.154639 80.548664 
L 453.560703 77.869739 
L 453.966768 78.908551 
L 454.372832 83.205088 
L 454.778896 84.917269 
L 455.184961 83.703752 
L 455.591025 83.321105 
L 455.997089 83.832326 
L 456.403153 82.796731 
L 457.215282 93.011849 
L 457.621346 94.171837 
L 458.433475 103.231281 
L 458.839539 101.890787 
L 459.651668 90.970657 
L 460.057732 92.011798 
L 460.463796 97.5538 
L 460.869861 95.643496 
L 461.275925 89.962908 
L 461.681989 86.479374 
L 462.088053 86.290138 
L 462.900182 98.215911 
L 463.306246 98.673498 
L 463.71231 97.078214 
L 464.118375 98.543535 
L 464.524439 95.20558 
L 464.930503 86.132364 
L 465.336568 80.73709 
L 465.742632 82.619254 
L 466.148696 86.479759 
L 466.55476 81.025385 
L 466.960825 77.944594 
L 467.772953 102.031919 
L 468.585082 91.626183 
L 469.39721 103.209955 
L 469.803275 100.725243 
L 470.209339 91.75956 
L 470.615403 86.157512 
L 471.021468 85.200112 
L 471.833596 71.441873 
L 472.23966 76.270744 
L 472.645725 87.525493 
L 473.051789 95.159405 
L 473.457853 92.873538 
L 473.863918 86.768693 
L 474.269982 89.434498 
L 474.676046 98.702741 
L 475.08211 100.272647 
L 475.488175 93.652706 
L 475.894239 90.367184 
L 476.300303 90.6514 
L 477.112432 96.012431 
L 477.518496 91.107545 
L 477.92456 90.436072 
L 478.330625 97.132571 
L 478.736689 98.154188 
L 479.548817 88.048863 
L 479.954882 87.328624 
L 480.360946 85.536046 
L 481.173075 72.86262 
L 481.579139 77.782994 
L 481.985203 87.217466 
L 482.391267 90.370762 
L 483.203396 99.606442 
L 483.60946 97.643241 
L 484.015525 96.409741 
L 484.827653 105.160555 
L 485.233717 106.916449 
L 485.639782 106.432429 
L 486.045846 106.408878 
L 486.45191 107.820959 
L 486.857975 107.897789 
L 487.264039 102.851131 
L 487.670103 99.684984 
L 488.076167 101.696368 
L 488.482232 99.363393 
L 488.888296 92.158339 
L 489.29436 90.583988 
L 489.700424 95.514728 
L 490.106489 97.726479 
L 490.512553 98.163422 
L 491.324682 105.18852 
L 491.730746 105.365181 
L 492.13681 102.996553 
L 492.542874 99.591975 
L 492.948939 98.07567 
L 493.355003 97.616069 
L 493.761067 94.986411 
L 494.167132 93.19996 
L 494.573196 90.436724 
L 494.97926 82.443738 
L 495.385324 77.90869 
L 495.791389 80.2902 
L 496.197453 80.983709 
L 496.603517 80.89963 
L 497.009582 85.022335 
L 497.415646 84.161261 
L 497.82171 78.927542 
L 498.227774 84.186684 
L 498.633839 92.874213 
L 499.039903 89.489166 
L 499.445967 82.439067 
L 499.852032 86.353548 
L 500.258096 95.911011 
L 500.66416 99.033548 
L 501.070224 91.844266 
L 501.476289 87.664936 
L 501.882353 95.868716 
L 502.288417 100.323356 
L 502.694482 91.070177 
L 503.100546 85.84442 
L 503.50661 95.93805 
L 503.912674 101.119728 
L 504.318739 94.325954 
L 504.724803 95.397635 
L 505.130867 104.256163 
L 505.536931 103.559063 
L 505.942996 93.158265 
L 506.34906 88.942694 
L 506.755124 88.382001 
L 507.161189 83.367841 
L 507.567253 81.603031 
L 507.973317 90.716351 
L 508.379381 96.91968 
L 508.785446 89.547676 
L 509.19151 85.678711 
L 509.597574 94.255792 
L 510.003639 95.491312 
L 510.409703 86.393828 
L 510.815767 87.123852 
L 511.221831 95.094181 
L 511.627896 100.117018 
L 512.03396 102.044925 
L 512.440024 99.721688 
L 512.846089 94.110862 
L 513.252153 91.39717 
L 514.064281 84.600857 
L 514.87641 99.018912 
L 515.282474 97.372287 
L 515.688539 100.543353 
L 516.094603 108.110883 
L 516.500667 103.649443 
L 516.906731 96.946456 
L 517.71886 106.621538 
L 518.124924 105.02518 
L 518.937053 98.628311 
L 519.343117 99.633012 
L 519.749181 98.23895 
L 520.56131 63.26644 
L 520.967374 70.073391 
L 521.373438 85.089617 
L 522.185567 94.699695 
L 522.591631 97.489574 
L 522.997696 92.640691 
L 523.40376 94.097285 
L 523.809824 101.538536 
L 524.215888 97.76328 
L 524.621953 89.627686 
L 525.028017 90.387742 
L 525.434081 91.999937 
L 525.840146 87.497983 
L 526.24621 87.852135 
L 526.652274 89.675514 
L 527.464403 80.754216 
L 527.870467 80.697809 
L 528.276531 78.344653 
L 528.682596 79.26576 
L 529.08866 90.571533 
L 529.494724 97.534681 
L 530.306853 82.532274 
L 531.118981 86.192302 
L 531.525045 89.391039 
L 531.93111 94.327375 
L 532.337174 93.601272 
L 532.743238 87.11105 
L 533.149303 83.291194 
L 533.961431 97.201694 
L 534.367495 90.148138 
L 534.77356 80.031964 
L 535.179624 81.672297 
L 535.585688 84.317895 
L 535.991753 83.093529 
L 536.397817 86.131071 
L 537.209945 97.206829 
L 537.61601 96.070394 
L 538.022074 89.527464 
L 538.428138 91.327963 
L 538.834203 95.704572 
L 539.240267 94.410013 
L 539.646331 96.082188 
L 540.052395 102.020081 
L 540.45846 103.950067 
L 540.864524 98.34471 
L 541.676653 82.750839 
L 542.082717 77.804805 
L 542.894845 87.132693 
L 543.30091 85.816271 
L 543.706974 87.299528 
L 544.113038 91.128923 
L 544.519102 87.661915 
L 544.925167 80.038654 
L 545.331231 81.398544 
L 545.737295 84.741823 
L 546.14336 81.316646 
L 546.549424 79.542282 
L 546.955488 83.468421 
L 547.361552 89.132583 
L 548.173681 103.482306 
L 548.579745 104.983166 
L 549.391874 92.048008 
L 549.797938 92.857721 
L 550.204002 89.932741 
L 550.610067 80.353952 
L 551.016131 86.346811 
L 551.422195 103.583811 
L 551.82826 103.008001 
L 552.234324 97.645287 
L 552.640388 100.547252 
L 553.046452 99.303982 
L 553.858581 83.26563 
L 554.264645 84.161697 
L 554.67071 89.476465 
L 555.076774 91.725611 
L 555.888902 97.613354 
L 556.294967 99.614308 
L 556.701031 102.329327 
L 557.107095 99.022576 
L 557.513159 91.047126 
L 557.919224 89.537202 
L 558.325288 90.262272 
L 558.731352 91.529821 
L 559.137417 94.818995 
L 559.543481 94.440141 
L 559.949545 91.041837 
L 560.355609 92.55099 
L 560.761674 94.674745 
L 561.573802 89.971467 
L 561.979867 91.41189 
L 562.385931 93.430078 
L 562.791995 93.703784 
L 563.198059 92.13427 
L 563.604124 89.323896 
L 564.416252 82.178048 
L 565.228381 85.05035 
L 565.634445 80.398558 
L 566.040509 80.53325 
L 566.446574 88.982368 
L 566.852638 89.586024 
L 567.258702 79.621653 
L 567.664767 75.963319 
L 568.476895 81.482072 
L 568.882959 83.499668 
L 569.289024 84.276507 
L 569.695088 86.180902 
L 570.101152 91.685037 
L 570.507216 94.448443 
L 570.913281 94.078791 
L 571.725409 97.755188 
L 572.537538 93.097267 
L 572.943602 92.294559 
L 573.349666 92.708484 
L 573.755731 88.908361 
L 574.161795 79.754869 
L 574.567859 77.16578 
L 575.379988 92.267995 
L 575.786052 93.224201 
L 576.192116 90.961088 
L 576.598181 89.503648 
L 577.004245 87.218478 
L 577.410309 87.197244 
L 577.816374 88.619298 
L 578.222438 89.50665 
L 578.628502 89.050318 
L 579.034566 85.641205 
L 579.440631 84.657947 
L 580.252759 94.063424 
L 580.658824 94.834595 
L 581.064888 93.144922 
L 581.470952 92.561889 
L 581.877016 93.600506 
L 582.283081 93.98521 
L 582.689145 95.767047 
L 583.095209 99.118897 
L 583.501273 99.424398 
L 584.313402 89.347291 
L 584.719466 87.974131 
L 585.125531 87.121086 
L 585.937659 79.236502 
L 586.343723 79.797265 
L 587.155852 90.913439 
L 587.561916 92.454403 
L 587.967981 89.992405 
L 588.374045 86.34157 
L 589.186173 82.66618 
L 589.592238 81.777071 
L 590.404366 89.410796 
L 590.810431 91.413713 
L 591.216495 94.977553 
L 591.622559 97.341267 
L 592.028623 94.7672 
L 592.434688 93.591769 
L 592.840752 98.085645 
L 593.246816 100.142882 
L 593.652881 99.012376 
L 594.058945 99.924222 
L 594.465009 99.843551 
L 594.871073 97.30538 
L 595.277138 96.982377 
L 595.683202 100.352407 
L 596.089266 100.509762 
L 596.495331 95.992077 
L 596.901395 94.787719 
L 597.307459 99.137514 
L 597.713523 100.394414 
L 598.119588 94.421039 
L 598.525652 92.097903 
L 598.931716 97.89899 
L 599.33778 100.498357 
L 599.743845 96.608156 
L 600.149909 94.461523 
L 600.555973 96.699512 
L 600.962038 98.176749 
L 601.774166 96.550138 
L 602.18023 96.492243 
L 602.586295 95.270116 
L 602.992359 93.149678 
L 603.398423 92.829366 
L 603.804488 94.361287 
L 604.210552 93.667778 
L 604.616616 90.693006 
L 605.02268 89.906994 
L 605.428745 89.631589 
L 606.240873 82.944928 
L 606.646938 82.049598 
L 607.053002 84.663421 
L 607.459066 88.528093 
L 607.86513 88.500041 
L 608.271195 84.201063 
L 608.677259 83.058771 
L 609.083323 83.985799 
L 609.895452 77.891117 
L 610.301516 81.541233 
L 611.113645 94.076072 
L 611.519709 93.806369 
L 611.925773 89.814077 
L 612.331837 89.505655 
L 613.143966 93.430818 
L 613.55003 95.141185 
L 613.956095 95.754495 
L 614.362159 93.955792 
L 614.768223 90.219465 
L 615.174287 87.921862 
L 615.580352 88.191912 
L 615.986416 87.771409 
L 616.39248 87.737174 
L 616.798545 91.242108 
L 617.204609 95.773988 
L 617.610673 96.709773 
L 618.016737 93.98204 
L 618.422802 92.563159 
L 618.828866 93.43414 
L 619.23493 94.793585 
L 619.640995 95.363543 
L 620.047059 95.47685 
L 620.859187 98.698459 
L 621.265252 97.967702 
L 621.671316 95.991836 
L 622.483445 94.536211 
L 623.295573 89.15171 
L 623.701637 89.839372 
L 624.107702 93.66672 
L 624.513766 96.0841 
L 624.91983 96.563889 
L 625.325894 95.128085 
L 625.731959 91.589763 
L 626.138023 91.569069 
L 626.544087 94.866543 
L 626.950152 94.679387 
L 627.356216 92.358441 
L 627.76228 93.131329 
L 628.168344 95.003579 
L 628.574409 94.256238 
L 628.980473 94.701462 
L 629.386537 97.114817 
L 629.792602 98.350096 
L 630.198666 96.898515 
L 630.60473 94.521133 
L 631.010794 95.212724 
L 631.416859 99.00197 
L 631.822923 100.150689 
L 632.228987 96.80849 
L 633.44718 80.140094 
L 633.853244 79.368212 
L 634.259309 82.510654 
L 635.071437 90.636976 
L 635.477502 92.33395 
L 635.883566 90.273279 
L 636.28963 87.455587 
L 636.695694 87.013983 
L 637.101759 86.851625 
L 637.507823 86.243203 
L 637.913887 87.588394 
L 638.319951 89.753499 
L 638.726016 90.712427 
L 639.13208 89.343949 
L 640.350273 80.900188 
L 640.756337 78.678699 
L 641.162401 79.793505 
L 641.568466 83.634383 
L 642.380594 88.452632 
L 642.786659 90.217558 
L 643.192723 91.184683 
L 644.410916 97.898623 
L 644.81698 98.337067 
L 645.223044 97.661317 
L 645.629109 95.613247 
L 646.441237 86.720307 
L 646.847301 85.826542 
L 647.253366 89.349093 
L 648.065494 93.047045 
L 648.471559 97.323008 
L 648.877623 97.379745 
L 649.283687 93.73546 
L 649.689751 91.742439 
L 650.095816 90.702536 
L 650.907944 83.594278 
L 651.314008 84.170416 
L 651.720073 87.897452 
L 652.126137 88.224051 
L 652.532201 89.229072 
L 652.938266 94.175671 
L 653.34433 97.67779 
L 653.750394 97.107415 
L 654.156458 96.302093 
L 654.968587 95.775137 
L 655.374651 94.741528 
L 655.780716 92.337626 
L 656.18678 91.28355 
L 656.592844 91.032354 
L 657.404973 86.496201 
L 657.811037 86.467086 
L 658.623166 89.816302 
L 659.02923 90.829745 
L 659.841358 97.356006 
L 660.247423 95.405097 
L 660.653487 90.765484 
L 661.059551 88.123571 
L 661.465616 88.130144 
L 663.495937 96.033246 
L 663.902001 95.810258 
L 664.308065 94.238751 
L 664.71413 91.446784 
L 665.526258 83.301233 
L 665.932323 82.765123 
L 666.744451 86.782729 
L 667.150515 87.42673 
L 667.55658 90.04378 
L 667.962644 94.046465 
L 668.368708 94.168469 
L 669.180837 85.029365 
L 669.586901 84.23902 
L 669.992965 87.228679 
L 670.805094 95.053351 
L 671.211158 96.396578 
L 671.617223 94.829938 
L 672.023287 91.987556 
L 672.429351 90.5284 
L 672.835415 89.487676 
L 673.24148 89.497969 
L 673.647544 91.572546 
L 674.053608 92.208904 
L 674.459673 89.969496 
L 674.865737 89.53082 
L 675.271801 91.532135 
L 675.677865 90.51523 
L 676.08393 87.307556 
L 676.489994 86.577068 
L 676.896058 87.2772 
L 677.302122 87.647455 
L 678.114251 92.730425 
L 678.92638 88.739332 
L 679.332444 89.375368 
L 679.738508 90.394812 
L 680.550637 94.887313 
L 680.956701 94.126645 
L 681.362765 92.71341 
L 681.76883 92.186164 
L 682.174894 92.06373 
L 682.580958 91.272059 
L 682.987022 91.155321 
L 683.393087 93.726392 
L 683.799151 95.096223 
L 684.205215 93.171654 
L 684.61128 92.249239 
L 685.017344 92.598035 
L 685.423408 93.31351 
L 686.235537 99.047677 
L 686.641601 99.010863 
L 687.45373 89.664112 
L 687.859794 87.378445 
L 688.265858 88.814942 
L 688.671922 90.788174 
L 689.077987 91.963225 
L 689.484051 93.636768 
L 689.890115 94.421919 
L 690.29618 93.693779 
L 691.108308 94.688574 
L 691.514372 92.393192 
L 691.920437 88.875525 
L 692.326501 87.931281 
L 692.732565 89.020522 
L 693.544694 88.417689 
L 693.950758 88.441036 
L 694.356822 87.973819 
L 694.762887 89.972385 
L 695.168951 93.485929 
L 695.575015 95.2419 
L 695.981079 95.170931 
L 696.387144 93.354905 
L 696.793208 90.319953 
L 697.199272 88.952701 
L 697.605337 89.952949 
L 698.011401 91.534735 
L 698.823529 95.982629 
L 699.229594 95.480928 
L 700.041722 86.621779 
L 700.447787 86.340286 
L 700.853851 88.045028 
L 701.259915 87.869549 
L 701.665979 85.231611 
L 702.072044 84.508172 
L 702.478108 85.955118 
L 702.884172 86.067505 
L 703.290237 86.493035 
L 704.508429 92.042136 
L 705.726622 90.86562 
L 706.538751 85.834723 
L 706.944815 85.544955 
L 707.350879 87.249628 
L 707.756944 89.780957 
L 708.163008 93.312806 
L 708.569072 95.457386 
L 709.381201 89.839397 
L 709.787265 90.709026 
L 710.193329 90.384091 
L 710.599394 86.99462 
L 711.005458 86.318421 
L 711.411522 90.872408 
L 711.817586 92.720719 
L 712.223651 90.544125 
L 712.629715 92.395783 
L 713.035779 96.648025 
L 713.441844 95.846902 
L 713.847908 91.359626 
L 714.253972 89.85343 
L 714.660036 90.668534 
L 715.066101 90.065388 
L 715.472165 88.806514 
L 715.878229 89.372123 
L 716.284294 90.14854 
L 716.690358 89.456281 
L 717.096422 89.306853 
L 717.908551 92.890876 
L 718.314615 94.19907 
L 718.720679 95.949505 
L 719.126743 95.77987 
L 719.532808 94.157199 
L 719.938872 94.036249 
L 720.344936 93.293983 
L 720.751001 92.024565 
L 721.157065 91.847377 
L 721.969193 90.487951 
L 722.781322 93.93604 
L 723.187386 92.89041 
L 724.405579 86.843821 
L 724.811643 85.529524 
L 725.217708 87.302188 
L 726.029836 93.108507 
L 726.435901 93.766702 
L 726.841965 93.32406 
L 727.248029 92.637973 
L 728.060158 92.234412 
L 728.872286 89.951138 
L 729.278351 90.461145 
L 729.684415 91.469123 
L 730.496543 89.937286 
L 731.308672 94.873138 
L 731.714736 94.599568 
L 732.1208 93.332143 
L 732.526865 93.612069 
L 732.932929 94.495446 
L 733.745058 92.775262 
L 734.151122 93.609338 
L 734.557186 94.11709 
L 735.369315 92.331599 
L 735.775379 93.134538 
L 736.181443 94.551426 
L 736.587508 94.841262 
L 736.993572 93.545483 
L 737.399636 92.849636 
L 737.8057 93.59773 
L 738.617829 93.849884 
L 739.429958 96.314032 
L 740.242086 95.649154 
L 740.64815 95.158615 
L 741.460279 91.783931 
L 741.866343 91.804202 
L 742.272408 92.98986 
L 742.678472 92.815737 
L 743.084536 91.500253 
L 743.4906 91.162717 
L 743.896665 91.203935 
L 745.114857 89.138027 
L 745.926986 87.216042 
L 746.33305 87.263892 
L 746.739115 87.835593 
L 747.551243 88.041489 
L 747.957307 88.670009 
L 748.363372 88.985087 
L 748.769436 89.007406 
L 749.1755 89.343483 
L 749.987629 90.550464 
L 750.393693 90.605393 
L 750.799757 90.783683 
L 751.611886 92.377148 
L 752.01795 92.32715 
L 752.424015 91.409011 
L 752.830079 91.149004 
L 753.236143 91.716507 
L 753.642207 91.670662 
L 754.454336 90.024531 
L 754.8604 90.251229 
L 755.266465 90.646807 
L 755.672529 90.266374 
L 756.078593 90.075949 
L 756.484657 90.44899 
L 756.890722 90.297082 
L 757.296786 89.770239 
L 757.70285 89.75923 
L 758.108914 90.32919 
L 758.514979 90.625286 
L 759.327107 90.215791 
L 760.139236 90.454727 
L 760.5453 90.317593 
L 760.951364 90.304357 
L 761.763493 90.657715 
L 762.981686 90.606328 
L 763.793814 90.77711 
L 764.605943 90.963391 
L 765.824136 90.938183 
L 767.448393 90.963199 
L 770.696907 91.196968 
L 777.193936 91.374141 
L 777.6 91.377993 
L 777.6 91.377993 
" clip-path="url(#p740b49e20d)" style="fill: none; stroke: #0000ff; stroke-width: 1.5; stroke-linecap: square"/>
   </g>
   <g id="patch_3">
    <path d="M 108 160.2 
L 108 21.6 
" style="fill: none; stroke: #000000; stroke-width: 0.8; stroke-linejoin: miter; stroke-linecap: square"/>
   </g>
   <g id="patch_4">
    <path d="M 777.6 160.2 
L 777.6 21.6 
" style="fill: none; stroke: #000000; stroke-width: 0.8; stroke-linejoin: miter; stroke-linecap: square"/>
   </g>
   <g id="patch_5">
    <path d="M 108 160.2 
L 777.6 160.2 
" style="fill: none; stroke: #000000; stroke-width: 0.8; stroke-linejoin: miter; stroke-linecap: square"/>
   </g>
   <g id="patch_6">
    <path d="M 108 21.6 
L 777.6 21.6 
" style="fill: none; stroke: #000000; stroke-width: 0.8; stroke-linejoin: miter; stroke-linecap: square"/>
   </g>
   <g id="text_13">
    <!-- aROT Tabas -->
    <g transform="translate(407.69625 15.6) scale(0.12 -0.12)">
     <defs>
      <path id="DejaVuSans-61" d="M 2194 1759 
Q 1497 1759 1228 1600 
Q 959 1441 959 1056 
Q 959 750 1161 570 
Q 1363 391 1709 391 
Q 2188 391 2477 730 
Q 2766 1069 2766 1631 
L 2766 1759 
L 2194 1759 
z
M 3341 1997 
L 3341 0 
L 2766 0 
L 2766 531 
Q 2569 213 2275 61 
Q 1981 -91 1556 -91 
Q 1019 -91 701 211 
Q 384 513 384 1019 
Q 384 1609 779 1909 
Q 1175 2209 1959 2209 
L 2766 2209 
L 2766 2266 
Q 2766 2663 2505 2880 
Q 2244 3097 1772 3097 
Q 1472 3097 1187 3025 
Q 903 2953 641 2809 
L 641 3341 
Q 956 3463 1253 3523 
Q 1550 3584 1831 3584 
Q 2591 3584 2966 3190 
Q 3341 2797 3341 1997 
z
" transform="scale(0.015625)"/>
      <path id="DejaVuSans-52" d="M 2841 2188 
Q 3044 2119 3236 1894 
Q 3428 1669 3622 1275 
L 4263 0 
L 3584 0 
L 2988 1197 
Q 2756 1666 2539 1819 
Q 2322 1972 1947 1972 
L 1259 1972 
L 1259 0 
L 628 0 
L 628 4666 
L 2053 4666 
Q 2853 4666 3247 4331 
Q 3641 3997 3641 3322 
Q 3641 2881 3436 2590 
Q 3231 2300 2841 2188 
z
M 1259 4147 
L 1259 2491 
L 2053 2491 
Q 2509 2491 2742 2702 
Q 2975 2913 2975 3322 
Q 2975 3731 2742 3939 
Q 2509 4147 2053 4147 
L 1259 4147 
z
" transform="scale(0.015625)"/>
      <path id="DejaVuSans-4f" d="M 2522 4238 
Q 1834 4238 1429 3725 
Q 1025 3213 1025 2328 
Q 1025 1447 1429 934 
Q 1834 422 2522 422 
Q 3209 422 3611 934 
Q 4013 1447 4013 2328 
Q 4013 3213 3611 3725 
Q 3209 4238 2522 4238 
z
M 2522 4750 
Q 3503 4750 4090 4092 
Q 4678 3434 4678 2328 
Q 4678 1225 4090 567 
Q 3503 -91 2522 -91 
Q 1538 -91 948 565 
Q 359 1222 359 2328 
Q 359 3434 948 4092 
Q 1538 4750 2522 4750 
z
" transform="scale(0.015625)"/>
      <path id="DejaVuSans-54" d="M -19 4666 
L 3928 4666 
L 3928 4134 
L 2272 4134 
L 2272 0 
L 1638 0 
L 1638 4134 
L -19 4134 
L -19 4666 
z
" transform="scale(0.015625)"/>
      <path id="DejaVuSans-62" d="M 3116 1747 
Q 3116 2381 2855 2742 
Q 2594 3103 2138 3103 
Q 1681 3103 1420 2742 
Q 1159 2381 1159 1747 
Q 1159 1113 1420 752 
Q 1681 391 2138 391 
Q 2594 391 2855 752 
Q 3116 1113 3116 1747 
z
M 1159 2969 
Q 1341 3281 1617 3432 
Q 1894 3584 2278 3584 
Q 2916 3584 3314 3078 
Q 3713 2572 3713 1747 
Q 3713 922 3314 415 
Q 2916 -91 2278 -91 
Q 1894 -91 1617 61 
Q 1341 213 1159 525 
L 1159 0 
L 581 0 
L 581 4863 
L 1159 4863 
L 1159 2969 
z
" transform="scale(0.015625)"/>
     </defs>
     <use xlink:href="#DejaVuSans-61"/>
     <use xlink:href="#DejaVuSans-52" x="61.279297"/>
     <use xlink:href="#DejaVuSans-4f" x="130.761719"/>
     <use xlink:href="#DejaVuSans-54" x="209.472656"/>
     <use xlink:href="#DejaVuSans-20" x="270.556641"/>
     <use xlink:href="#DejaVuSans-54" x="302.34375"/>
     <use xlink:href="#DejaVuSans-61" x="346.927734"/>
     <use xlink:href="#DejaVuSans-62" x="408.207031"/>
     <use xlink:href="#DejaVuSans-61" x="471.683594"/>
     <use xlink:href="#DejaVuSans-73" x="532.962891"/>
    </g>
   </g>
   <g id="legend_1">
    <g id="patch_7">
     <path d="M 719.5125 58.95625 
L 770.6 58.95625 
Q 772.6 58.95625 772.6 56.95625 
L 772.6 28.6 
Q 772.6 26.6 770.6 26.6 
L 719.5125 26.6 
Q 717.5125 26.6 717.5125 28.6 
L 717.5125 56.95625 
Q 717.5125 58.95625 719.5125 58.95625 
z
" style="fill: #ffffff; opacity: 0.8; stroke: #cccccc; stroke-linejoin: miter"/>
    </g>
    <g id="line2d_23">
     <path d="M 721.5125 34.698437 
L 731.5125 34.698437 
L 741.5125 34.698437 
" style="fill: none; stroke: #008000; stroke-width: 1.5; stroke-linecap: square"/>
    </g>
    <g id="text_14">
     <!-- 90 -->
     <g transform="translate(749.5125 38.198437) scale(0.1 -0.1)">
      <defs>
       <path id="DejaVuSans-39" d="M 703 97 
L 703 672 
Q 941 559 1184 500 
Q 1428 441 1663 441 
Q 2288 441 2617 861 
Q 2947 1281 2994 2138 
Q 2813 1869 2534 1725 
Q 2256 1581 1919 1581 
Q 1219 1581 811 2004 
Q 403 2428 403 3163 
Q 403 3881 828 4315 
Q 1253 4750 1959 4750 
Q 2769 4750 3195 4129 
Q 3622 3509 3622 2328 
Q 3622 1225 3098 567 
Q 2575 -91 1691 -91 
Q 1453 -91 1209 -44 
Q 966 3 703 97 
z
M 1959 2075 
Q 2384 2075 2632 2365 
Q 2881 2656 2881 3163 
Q 2881 3666 2632 3958 
Q 2384 4250 1959 4250 
Q 1534 4250 1286 3958 
Q 1038 3666 1038 3163 
Q 1038 2656 1286 2365 
Q 1534 2075 1959 2075 
z
" transform="scale(0.015625)"/>
      </defs>
      <use xlink:href="#DejaVuSans-39"/>
      <use xlink:href="#DejaVuSans-30" x="63.623047"/>
     </g>
    </g>
    <g id="line2d_24">
     <path d="M 721.5125 49.376562 
L 731.5125 49.376562 
L 741.5125 49.376562 
" style="fill: none; stroke: #0000ff; stroke-width: 1.5; stroke-linecap: square"/>
    </g>
    <g id="text_15">
     <!-- 180 -->
     <g transform="translate(749.5125 52.876562) scale(0.1 -0.1)">
      <defs>
       <path id="DejaVuSans-38" d="M 2034 2216 
Q 1584 2216 1326 1975 
Q 1069 1734 1069 1313 
Q 1069 891 1326 650 
Q 1584 409 2034 409 
Q 2484 409 2743 651 
Q 3003 894 3003 1313 
Q 3003 1734 2745 1975 
Q 2488 2216 2034 2216 
z
M 1403 2484 
Q 997 2584 770 2862 
Q 544 3141 544 3541 
Q 544 4100 942 4425 
Q 1341 4750 2034 4750 
Q 2731 4750 3128 4425 
Q 3525 4100 3525 3541 
Q 3525 3141 3298 2862 
Q 3072 2584 2669 2484 
Q 3125 2378 3379 2068 
Q 3634 1759 3634 1313 
Q 3634 634 3220 271 
Q 2806 -91 2034 -91 
Q 1263 -91 848 271 
Q 434 634 434 1313 
Q 434 1759 690 2068 
Q 947 2378 1403 2484 
z
M 1172 3481 
Q 1172 3119 1398 2916 
Q 1625 2713 2034 2713 
Q 2441 2713 2670 2916 
Q 2900 3119 2900 3481 
Q 2900 3844 2670 4047 
Q 2441 4250 2034 4250 
Q 1625 4250 1398 4047 
Q 1172 3844 1172 3481 
z
" transform="scale(0.015625)"/>
      </defs>
      <use xlink:href="#DejaVuSans-31"/>
      <use xlink:href="#DejaVuSans-38" x="63.623047"/>
      <use xlink:href="#DejaVuSans-30" x="127.246094"/>
     </g>
    </g>
   </g>
  </g>
 </g>
 <defs>
  <clipPath id="p740b49e20d">
   <rect x="108" y="21.6" width="669.6" height="138.6"/>
  </clipPath>
 </defs>
</svg>
