<?xml version="1.0" encoding="utf-8" standalone="no"?>
<!DOCTYPE svg PUBLIC "-//W3C//DTD SVG 1.1//EN"
  "http://www.w3.org/Graphics/SVG/1.1/DTD/svg11.dtd">
<svg xmlns:xlink="http://www.w3.org/1999/xlink" width="864pt" height="180pt" viewBox="0 0 864 180" xmlns="http://www.w3.org/2000/svg" version="1.1">
 <metadata>
  <rdf:RDF xmlns:dc="http://purl.org/dc/elements/1.1/" xmlns:cc="http://creativecommons.org/ns#" xmlns:rdf="http://www.w3.org/1999/02/22-rdf-syntax-ns#">
   <cc:Work>
    <dc:type rdf:resource="http://purl.org/dc/dcmitype/StillImage"/>
    <dc:date>2023-06-20T05:19:54.138562</dc:date>
    <dc:format>image/svg+xml</dc:format>
    <dc:creator>
     <cc:Agent>
      <dc:title>Matplotlib v3.7.1, https://matplotlib.org/</dc:title>
     </cc:Agent>
    </dc:creator>
   </cc:Work>
  </rdf:RDF>
 </metadata>
 <defs>
  <style type="text/css">*{stroke-linejoin: round; stroke-linecap: butt}</style>
 </defs>
 <g id="figure_1">
  <g id="patch_1">
   <path d="M 0 180 
L 864 180 
L 864 0 
L 0 0 
z
" style="fill: #ffffff"/>
  </g>
  <g id="axes_1">
   <g id="patch_2">
    <path d="M 108 160.2 
L 777.6 160.2 
L 777.6 21.6 
L 108 21.6 
z
" style="fill: #ffffff"/>
   </g>
   <g id="matplotlib.axis_1">
    <g id="xtick_1">
     <g id="line2d_1">
      <path d="M 108 160.2 
L 108 21.6 
" clip-path="url(#p7998b8d29d)" style="fill: none; stroke: #b0b0b0; stroke-width: 0.8; stroke-linecap: square"/>
     </g>
     <g id="line2d_2">
      <defs>
       <path id="meb62eba6eb" d="M 0 0 
L 0 3.5 
" style="stroke: #000000; stroke-width: 0.8"/>
      </defs>
      <g>
       <use xlink:href="#meb62eba6eb" x="108" y="160.2" style="stroke: #000000; stroke-width: 0.8"/>
      </g>
     </g>
     <g id="text_1">
      <!-- 0 -->
      <g transform="translate(104.81875 174.798438) scale(0.1 -0.1)">
       <defs>
        <path id="DejaVuSans-30" d="M 2034 4250 
Q 1547 4250 1301 3770 
Q 1056 3291 1056 2328 
Q 1056 1369 1301 889 
Q 1547 409 2034 409 
Q 2525 409 2770 889 
Q 3016 1369 3016 2328 
Q 3016 3291 2770 3770 
Q 2525 4250 2034 4250 
z
M 2034 4750 
Q 2819 4750 3233 4129 
Q 3647 3509 3647 2328 
Q 3647 1150 3233 529 
Q 2819 -91 2034 -91 
Q 1250 -91 836 529 
Q 422 1150 422 2328 
Q 422 3509 836 4129 
Q 1250 4750 2034 4750 
z
" transform="scale(0.015625)"/>
       </defs>
       <use xlink:href="#DejaVuSans-30"/>
      </g>
     </g>
    </g>
    <g id="xtick_2">
     <g id="line2d_3">
      <path d="M 222.456843 160.2 
L 222.456843 21.6 
" clip-path="url(#p7998b8d29d)" style="fill: none; stroke: #b0b0b0; stroke-width: 0.8; stroke-linecap: square"/>
     </g>
     <g id="line2d_4">
      <g>
       <use xlink:href="#meb62eba6eb" x="222.456843" y="160.2" style="stroke: #000000; stroke-width: 0.8"/>
      </g>
     </g>
     <g id="text_2">
      <!-- 5 -->
      <g transform="translate(219.275593 174.798438) scale(0.1 -0.1)">
       <defs>
        <path id="DejaVuSans-35" d="M 691 4666 
L 3169 4666 
L 3169 4134 
L 1269 4134 
L 1269 2991 
Q 1406 3038 1543 3061 
Q 1681 3084 1819 3084 
Q 2600 3084 3056 2656 
Q 3513 2228 3513 1497 
Q 3513 744 3044 326 
Q 2575 -91 1722 -91 
Q 1428 -91 1123 -41 
Q 819 9 494 109 
L 494 744 
Q 775 591 1075 516 
Q 1375 441 1709 441 
Q 2250 441 2565 725 
Q 2881 1009 2881 1497 
Q 2881 1984 2565 2268 
Q 2250 2553 1709 2553 
Q 1456 2553 1204 2497 
Q 953 2441 691 2322 
L 691 4666 
z
" transform="scale(0.015625)"/>
       </defs>
       <use xlink:href="#DejaVuSans-35"/>
      </g>
     </g>
    </g>
    <g id="xtick_3">
     <g id="line2d_5">
      <path d="M 336.913686 160.2 
L 336.913686 21.6 
" clip-path="url(#p7998b8d29d)" style="fill: none; stroke: #b0b0b0; stroke-width: 0.8; stroke-linecap: square"/>
     </g>
     <g id="line2d_6">
      <g>
       <use xlink:href="#meb62eba6eb" x="336.913686" y="160.2" style="stroke: #000000; stroke-width: 0.8"/>
      </g>
     </g>
     <g id="text_3">
      <!-- 10 -->
      <g transform="translate(330.551186 174.798438) scale(0.1 -0.1)">
       <defs>
        <path id="DejaVuSans-31" d="M 794 531 
L 1825 531 
L 1825 4091 
L 703 3866 
L 703 4441 
L 1819 4666 
L 2450 4666 
L 2450 531 
L 3481 531 
L 3481 0 
L 794 0 
L 794 531 
z
" transform="scale(0.015625)"/>
       </defs>
       <use xlink:href="#DejaVuSans-31"/>
       <use xlink:href="#DejaVuSans-30" x="63.623047"/>
      </g>
     </g>
    </g>
    <g id="xtick_4">
     <g id="line2d_7">
      <path d="M 451.370528 160.2 
L 451.370528 21.6 
" clip-path="url(#p7998b8d29d)" style="fill: none; stroke: #b0b0b0; stroke-width: 0.8; stroke-linecap: square"/>
     </g>
     <g id="line2d_8">
      <g>
       <use xlink:href="#meb62eba6eb" x="451.370528" y="160.2" style="stroke: #000000; stroke-width: 0.8"/>
      </g>
     </g>
     <g id="text_4">
      <!-- 15 -->
      <g transform="translate(445.008028 174.798438) scale(0.1 -0.1)">
       <use xlink:href="#DejaVuSans-31"/>
       <use xlink:href="#DejaVuSans-35" x="63.623047"/>
      </g>
     </g>
    </g>
    <g id="xtick_5">
     <g id="line2d_9">
      <path d="M 565.827371 160.2 
L 565.827371 21.6 
" clip-path="url(#p7998b8d29d)" style="fill: none; stroke: #b0b0b0; stroke-width: 0.8; stroke-linecap: square"/>
     </g>
     <g id="line2d_10">
      <g>
       <use xlink:href="#meb62eba6eb" x="565.827371" y="160.2" style="stroke: #000000; stroke-width: 0.8"/>
      </g>
     </g>
     <g id="text_5">
      <!-- 20 -->
      <g transform="translate(559.464871 174.798438) scale(0.1 -0.1)">
       <defs>
        <path id="DejaVuSans-32" d="M 1228 531 
L 3431 531 
L 3431 0 
L 469 0 
L 469 531 
Q 828 903 1448 1529 
Q 2069 2156 2228 2338 
Q 2531 2678 2651 2914 
Q 2772 3150 2772 3378 
Q 2772 3750 2511 3984 
Q 2250 4219 1831 4219 
Q 1534 4219 1204 4116 
Q 875 4013 500 3803 
L 500 4441 
Q 881 4594 1212 4672 
Q 1544 4750 1819 4750 
Q 2544 4750 2975 4387 
Q 3406 4025 3406 3419 
Q 3406 3131 3298 2873 
Q 3191 2616 2906 2266 
Q 2828 2175 2409 1742 
Q 1991 1309 1228 531 
z
" transform="scale(0.015625)"/>
       </defs>
       <use xlink:href="#DejaVuSans-32"/>
       <use xlink:href="#DejaVuSans-30" x="63.623047"/>
      </g>
     </g>
    </g>
    <g id="xtick_6">
     <g id="line2d_11">
      <path d="M 680.284214 160.2 
L 680.284214 21.6 
" clip-path="url(#p7998b8d29d)" style="fill: none; stroke: #b0b0b0; stroke-width: 0.8; stroke-linecap: square"/>
     </g>
     <g id="line2d_12">
      <g>
       <use xlink:href="#meb62eba6eb" x="680.284214" y="160.2" style="stroke: #000000; stroke-width: 0.8"/>
      </g>
     </g>
     <g id="text_6">
      <!-- 25 -->
      <g transform="translate(673.921714 174.798438) scale(0.1 -0.1)">
       <use xlink:href="#DejaVuSans-32"/>
       <use xlink:href="#DejaVuSans-35" x="63.623047"/>
      </g>
     </g>
    </g>
    <g id="text_7">
     <!-- t (sec) -->
     <g transform="translate(426.91875 188.476562) scale(0.1 -0.1)">
      <defs>
       <path id="DejaVuSans-74" d="M 1172 4494 
L 1172 3500 
L 2356 3500 
L 2356 3053 
L 1172 3053 
L 1172 1153 
Q 1172 725 1289 603 
Q 1406 481 1766 481 
L 2356 481 
L 2356 0 
L 1766 0 
Q 1100 0 847 248 
Q 594 497 594 1153 
L 594 3053 
L 172 3053 
L 172 3500 
L 594 3500 
L 594 4494 
L 1172 4494 
z
" transform="scale(0.015625)"/>
       <path id="DejaVuSans-20" transform="scale(0.015625)"/>
       <path id="DejaVuSans-28" d="M 1984 4856 
Q 1566 4138 1362 3434 
Q 1159 2731 1159 2009 
Q 1159 1288 1364 580 
Q 1569 -128 1984 -844 
L 1484 -844 
Q 1016 -109 783 600 
Q 550 1309 550 2009 
Q 550 2706 781 3412 
Q 1013 4119 1484 4856 
L 1984 4856 
z
" transform="scale(0.015625)"/>
       <path id="DejaVuSans-73" d="M 2834 3397 
L 2834 2853 
Q 2591 2978 2328 3040 
Q 2066 3103 1784 3103 
Q 1356 3103 1142 2972 
Q 928 2841 928 2578 
Q 928 2378 1081 2264 
Q 1234 2150 1697 2047 
L 1894 2003 
Q 2506 1872 2764 1633 
Q 3022 1394 3022 966 
Q 3022 478 2636 193 
Q 2250 -91 1575 -91 
Q 1294 -91 989 -36 
Q 684 19 347 128 
L 347 722 
Q 666 556 975 473 
Q 1284 391 1588 391 
Q 1994 391 2212 530 
Q 2431 669 2431 922 
Q 2431 1156 2273 1281 
Q 2116 1406 1581 1522 
L 1381 1569 
Q 847 1681 609 1914 
Q 372 2147 372 2553 
Q 372 3047 722 3315 
Q 1072 3584 1716 3584 
Q 2034 3584 2315 3537 
Q 2597 3491 2834 3397 
z
" transform="scale(0.015625)"/>
       <path id="DejaVuSans-65" d="M 3597 1894 
L 3597 1613 
L 953 1613 
Q 991 1019 1311 708 
Q 1631 397 2203 397 
Q 2534 397 2845 478 
Q 3156 559 3463 722 
L 3463 178 
Q 3153 47 2828 -22 
Q 2503 -91 2169 -91 
Q 1331 -91 842 396 
Q 353 884 353 1716 
Q 353 2575 817 3079 
Q 1281 3584 2069 3584 
Q 2775 3584 3186 3129 
Q 3597 2675 3597 1894 
z
M 3022 2063 
Q 3016 2534 2758 2815 
Q 2500 3097 2075 3097 
Q 1594 3097 1305 2825 
Q 1016 2553 972 2059 
L 3022 2063 
z
" transform="scale(0.015625)"/>
       <path id="DejaVuSans-63" d="M 3122 3366 
L 3122 2828 
Q 2878 2963 2633 3030 
Q 2388 3097 2138 3097 
Q 1578 3097 1268 2742 
Q 959 2388 959 1747 
Q 959 1106 1268 751 
Q 1578 397 2138 397 
Q 2388 397 2633 464 
Q 2878 531 3122 666 
L 3122 134 
Q 2881 22 2623 -34 
Q 2366 -91 2075 -91 
Q 1284 -91 818 406 
Q 353 903 353 1747 
Q 353 2603 823 3093 
Q 1294 3584 2113 3584 
Q 2378 3584 2631 3529 
Q 2884 3475 3122 3366 
z
" transform="scale(0.015625)"/>
       <path id="DejaVuSans-29" d="M 513 4856 
L 1013 4856 
Q 1481 4119 1714 3412 
Q 1947 2706 1947 2009 
Q 1947 1309 1714 600 
Q 1481 -109 1013 -844 
L 513 -844 
Q 928 -128 1133 580 
Q 1338 1288 1338 2009 
Q 1338 2731 1133 3434 
Q 928 4138 513 4856 
z
" transform="scale(0.015625)"/>
      </defs>
      <use xlink:href="#DejaVuSans-74"/>
      <use xlink:href="#DejaVuSans-20" x="39.208984"/>
      <use xlink:href="#DejaVuSans-28" x="70.996094"/>
      <use xlink:href="#DejaVuSans-73" x="110.009766"/>
      <use xlink:href="#DejaVuSans-65" x="162.109375"/>
      <use xlink:href="#DejaVuSans-63" x="223.632812"/>
      <use xlink:href="#DejaVuSans-29" x="278.613281"/>
     </g>
    </g>
   </g>
   <g id="matplotlib.axis_2">
    <g id="ytick_1">
     <g id="line2d_13">
      <path d="M 108 136.005999 
L 777.6 136.005999 
" clip-path="url(#p7998b8d29d)" style="fill: none; stroke: #b0b0b0; stroke-width: 0.8; stroke-linecap: square"/>
     </g>
     <g id="line2d_14">
      <defs>
       <path id="m372e995962" d="M 0 0 
L -3.5 0 
" style="stroke: #000000; stroke-width: 0.8"/>
      </defs>
      <g>
       <use xlink:href="#m372e995962" x="108" y="136.005999" style="stroke: #000000; stroke-width: 0.8"/>
      </g>
     </g>
     <g id="text_8">
      <!-- −0.2 -->
      <g transform="translate(76.717187 139.805218) scale(0.1 -0.1)">
       <defs>
        <path id="DejaVuSans-2212" d="M 678 2272 
L 4684 2272 
L 4684 1741 
L 678 1741 
L 678 2272 
z
" transform="scale(0.015625)"/>
        <path id="DejaVuSans-2e" d="M 684 794 
L 1344 794 
L 1344 0 
L 684 0 
L 684 794 
z
" transform="scale(0.015625)"/>
       </defs>
       <use xlink:href="#DejaVuSans-2212"/>
       <use xlink:href="#DejaVuSans-30" x="83.789062"/>
       <use xlink:href="#DejaVuSans-2e" x="147.412109"/>
       <use xlink:href="#DejaVuSans-32" x="179.199219"/>
      </g>
     </g>
    </g>
    <g id="ytick_2">
     <g id="line2d_15">
      <path d="M 108 111.281137 
L 777.6 111.281137 
" clip-path="url(#p7998b8d29d)" style="fill: none; stroke: #b0b0b0; stroke-width: 0.8; stroke-linecap: square"/>
     </g>
     <g id="line2d_16">
      <g>
       <use xlink:href="#m372e995962" x="108" y="111.281137" style="stroke: #000000; stroke-width: 0.8"/>
      </g>
     </g>
     <g id="text_9">
      <!-- −0.1 -->
      <g transform="translate(76.717187 115.080355) scale(0.1 -0.1)">
       <use xlink:href="#DejaVuSans-2212"/>
       <use xlink:href="#DejaVuSans-30" x="83.789062"/>
       <use xlink:href="#DejaVuSans-2e" x="147.412109"/>
       <use xlink:href="#DejaVuSans-31" x="179.199219"/>
      </g>
     </g>
    </g>
    <g id="ytick_3">
     <g id="line2d_17">
      <path d="M 108 86.556274 
L 777.6 86.556274 
" clip-path="url(#p7998b8d29d)" style="fill: none; stroke: #b0b0b0; stroke-width: 0.8; stroke-linecap: square"/>
     </g>
     <g id="line2d_18">
      <g>
       <use xlink:href="#m372e995962" x="108" y="86.556274" style="stroke: #000000; stroke-width: 0.8"/>
      </g>
     </g>
     <g id="text_10">
      <!-- 0.0 -->
      <g transform="translate(85.096875 90.355493) scale(0.1 -0.1)">
       <use xlink:href="#DejaVuSans-30"/>
       <use xlink:href="#DejaVuSans-2e" x="63.623047"/>
       <use xlink:href="#DejaVuSans-30" x="95.410156"/>
      </g>
     </g>
    </g>
    <g id="ytick_4">
     <g id="line2d_19">
      <path d="M 108 61.831412 
L 777.6 61.831412 
" clip-path="url(#p7998b8d29d)" style="fill: none; stroke: #b0b0b0; stroke-width: 0.8; stroke-linecap: square"/>
     </g>
     <g id="line2d_20">
      <g>
       <use xlink:href="#m372e995962" x="108" y="61.831412" style="stroke: #000000; stroke-width: 0.8"/>
      </g>
     </g>
     <g id="text_11">
      <!-- 0.1 -->
      <g transform="translate(85.096875 65.630631) scale(0.1 -0.1)">
       <use xlink:href="#DejaVuSans-30"/>
       <use xlink:href="#DejaVuSans-2e" x="63.623047"/>
       <use xlink:href="#DejaVuSans-31" x="95.410156"/>
      </g>
     </g>
    </g>
    <g id="ytick_5">
     <g id="line2d_21">
      <path d="M 108 37.10655 
L 777.6 37.10655 
" clip-path="url(#p7998b8d29d)" style="fill: none; stroke: #b0b0b0; stroke-width: 0.8; stroke-linecap: square"/>
     </g>
     <g id="line2d_22">
      <g>
       <use xlink:href="#m372e995962" x="108" y="37.10655" style="stroke: #000000; stroke-width: 0.8"/>
      </g>
     </g>
     <g id="text_12">
      <!-- 0.2 -->
      <g transform="translate(85.096875 40.905768) scale(0.1 -0.1)">
       <use xlink:href="#DejaVuSans-30"/>
       <use xlink:href="#DejaVuSans-2e" x="63.623047"/>
       <use xlink:href="#DejaVuSans-32" x="95.410156"/>
      </g>
     </g>
    </g>
    <g id="text_13">
     <!-- $\ddot{u_g} (t)$ -->
     <g transform="translate(69.617188 102.3) rotate(-90) scale(0.1 -0.1)">
      <defs>
       <path id="DejaVuSans-308" d="M -1306 4850 
L -672 4850 
L -672 4219 
L -1306 4219 
L -1306 4850 
z
M -2528 4850 
L -1894 4850 
L -1894 4219 
L -2528 4219 
L -2528 4850 
z
M -1600 3584 
L -1600 3584 
z
" transform="scale(0.015625)"/>
       <path id="DejaVuSans-Oblique-75" d="M 428 1388 
L 838 3500 
L 1416 3500 
L 1006 1409 
Q 975 1256 961 1147 
Q 947 1038 947 966 
Q 947 700 1109 554 
Q 1272 409 1569 409 
Q 2031 409 2368 721 
Q 2706 1034 2809 1563 
L 3194 3500 
L 3769 3500 
L 3091 0 
L 2516 0 
L 2631 550 
Q 2388 244 2052 76 
Q 1716 -91 1338 -91 
Q 878 -91 622 161 
Q 366 413 366 863 
Q 366 956 381 1097 
Q 397 1238 428 1388 
z
" transform="scale(0.015625)"/>
       <path id="DejaVuSans-Oblique-67" d="M 3816 3500 
L 3219 434 
Q 3047 -456 2561 -893 
Q 2075 -1331 1253 -1331 
Q 950 -1331 690 -1286 
Q 431 -1241 206 -1147 
L 313 -588 
Q 525 -725 762 -790 
Q 1000 -856 1269 -856 
Q 1816 -856 2167 -557 
Q 2519 -259 2631 300 
L 2681 563 
Q 2441 288 2122 144 
Q 1803 0 1434 0 
Q 903 0 598 351 
Q 294 703 294 1319 
Q 294 1803 478 2267 
Q 663 2731 997 3091 
Q 1219 3328 1514 3456 
Q 1809 3584 2131 3584 
Q 2484 3584 2746 3420 
Q 3009 3256 3138 2956 
L 3238 3500 
L 3816 3500 
z
M 2950 2216 
Q 2950 2641 2750 2872 
Q 2550 3103 2181 3103 
Q 1953 3103 1747 3012 
Q 1541 2922 1394 2759 
Q 1156 2491 1023 2127 
Q 891 1763 891 1375 
Q 891 944 1092 712 
Q 1294 481 1672 481 
Q 2219 481 2584 976 
Q 2950 1472 2950 2216 
z
" transform="scale(0.015625)"/>
       <path id="DejaVuSans-Oblique-74" d="M 2706 3500 
L 2619 3053 
L 1472 3053 
L 1100 1153 
Q 1081 1047 1072 975 
Q 1063 903 1063 863 
Q 1063 663 1183 572 
Q 1303 481 1569 481 
L 2150 481 
L 2053 0 
L 1503 0 
Q 991 0 739 200 
Q 488 400 488 806 
Q 488 878 497 964 
Q 506 1050 525 1153 
L 897 3053 
L 409 3053 
L 500 3500 
L 978 3500 
L 1172 4494 
L 1747 4494 
L 1556 3500 
L 2706 3500 
z
" transform="scale(0.015625)"/>
      </defs>
      <use xlink:href="#DejaVuSans-308" transform="translate(94.136719 11.21875)"/>
      <use xlink:href="#DejaVuSans-Oblique-75" transform="translate(0 0.03125)"/>
      <use xlink:href="#DejaVuSans-Oblique-67" transform="translate(63.378906 -16.375) scale(0.7)"/>
      <use xlink:href="#DejaVuSans-28" transform="translate(110.546875 0.03125)"/>
      <use xlink:href="#DejaVuSans-Oblique-74" transform="translate(149.560547 0.03125)"/>
      <use xlink:href="#DejaVuSans-29" transform="translate(188.769531 0.03125)"/>
     </g>
    </g>
   </g>
   <g id="line2d_23">
    <path d="M 108 86.519854 
L 115.911906 86.603478 
L 116.351456 86.618669 
L 117.395389 86.42757 
L 118.054714 86.471312 
L 118.604152 86.255855 
L 119.483253 86.305264 
L 120.087634 86.876215 
L 120.30741 86.677077 
L 120.637072 86.343844 
L 121.571117 86.397858 
L 121.790892 86.897835 
L 122.065611 87.324369 
L 122.230442 87.196472 
L 122.615049 86.429124 
L 123.054599 85.676457 
L 123.329318 85.512014 
L 123.439206 85.712339 
L 123.658981 86.852993 
L 123.878756 87.718365 
L 124.098531 87.924441 
L 124.263363 87.861187 
L 124.483138 87.416798 
L 124.977632 86.241919 
L 125.252351 85.719179 
L 125.52707 85.0369 
L 125.636957 85.134772 
L 126.845721 88.040621 
L 126.955608 87.894948 
L 127.669878 86.210221 
L 127.944597 86.275097 
L 128.219316 86.43978 
L 128.439091 86.646051 
L 128.71381 87.42725 
L 128.823697 87.610544 
L 128.878641 87.568076 
L 129.043473 87.026981 
L 129.318192 86.127121 
L 129.537967 86.573876 
L 129.922573 87.473723 
L 130.142348 87.438366 
L 130.30718 87.268763 
L 131.076393 85.708915 
L 131.406056 84.655008 
L 131.515943 84.744582 
L 131.680775 85.596021 
L 132.120325 88.863333 
L 132.230213 88.340707 
L 132.669763 85.347474 
L 132.944482 85.252059 
L 133.054369 85.298495 
L 133.384032 85.582086 
L 133.603807 85.527533 
L 133.768639 86.041481 
L 133.93347 86.53378 
L 134.043358 86.176199 
L 134.37302 84.395019 
L 134.482908 84.678631 
L 135.032346 87.78804 
L 135.307065 88.447532 
L 135.581784 89.262487 
L 135.636728 89.238709 
L 135.746615 88.917807 
L 136.241109 85.946573 
L 136.296053 86.023449 
L 136.460885 87.158537 
L 136.845491 90.101508 
L 136.955379 89.881056 
L 137.175154 88.444313 
L 137.449873 87.285327 
L 137.724592 86.59259 
L 138.164142 84.22305 
L 138.219086 84.29436 
L 138.328973 85.174092 
L 138.878411 92.806245 
L 138.933355 92.748985 
L 139.098187 91.827865 
L 139.427849 87.729309 
L 139.702568 85.401191 
L 139.922343 84.006192 
L 140.252006 81.708127 
L 140.361894 82.191453 
L 141.240995 89.254783 
L 141.625601 90.394933 
L 141.735489 90.410332 
L 141.90032 89.966622 
L 142.394814 87.95217 
L 142.449758 87.980047 
L 142.669533 88.533543 
L 142.724477 88.462945 
L 142.889308 87.362419 
L 143.218971 84.98807 
L 143.273915 85.001076 
L 143.383802 85.496637 
L 143.878297 89.497631 
L 143.93324 89.422304 
L 144.043128 88.708792 
L 144.262903 85.144402 
L 144.537622 81.090945 
L 144.64751 80.718294 
L 144.702453 80.748021 
L 144.922229 81.600092 
L 145.251891 83.325655 
L 145.306835 83.21602 
L 145.471667 82.243507 
L 145.746385 80.595105 
L 145.801329 80.52882 
L 145.856273 80.583188 
L 146.021104 81.639807 
L 146.460655 86.726168 
L 146.955149 94.470779 
L 147.010093 94.464363 
L 147.11998 93.862076 
L 147.394699 90.017706 
L 147.724362 86.288915 
L 147.83425 85.979354 
L 147.889193 86.031264 
L 148.054025 86.645794 
L 148.2738 88.326531 
L 148.658406 91.912085 
L 148.71335 91.910285 
L 148.823238 91.547856 
L 149.097957 89.503938 
L 149.42762 87.149626 
L 149.482563 87.094379 
L 149.537507 87.154055 
L 149.757282 87.814321 
L 149.812226 87.791364 
L 149.922114 87.36622 
L 150.196833 84.727257 
L 150.636383 80.659419 
L 150.746271 80.446158 
L 150.801214 80.511508 
L 150.966046 81.438475 
L 151.46054 86.225988 
L 151.515484 86.194647 
L 151.625371 85.518233 
L 151.90009 81.141881 
L 152.229753 76.124014 
L 152.284697 76.127711 
L 152.394584 77.395362 
L 152.61436 85.019033 
L 152.998966 97.151068 
L 153.218741 99.584319 
L 153.328629 99.700449 
L 153.49346 98.734018 
L 153.823123 94.799558 
L 154.042898 93.075971 
L 154.097842 93.039586 
L 154.20773 93.417518 
L 154.592336 95.441626 
L 154.702224 95.544002 
L 154.812111 94.976477 
L 154.976943 92.253736 
L 155.416493 83.856416 
L 155.746156 78.695689 
L 156.625256 63.951957 
L 156.845032 62.913414 
L 157.284582 60.020687 
L 157.39447 60.57482 
L 157.559301 63.105262 
L 157.83402 73.138992 
L 158.383458 92.576516 
L 158.768064 101.416312 
L 159.042783 102.906274 
L 159.647165 105.319203 
L 159.702109 105.297151 
L 159.811996 105.069213 
L 159.976828 104.078849 
L 160.196603 100.784686 
L 160.471322 91.783924 
L 161.185591 66.750404 
L 161.625142 56.286219 
L 162.394355 48.985016 
L 162.504242 48.847299 
L 162.559186 48.897416 
L 162.778961 49.078847 
L 163.05368 49.188057 
L 163.218512 50.070858 
L 163.603118 52.269962 
L 163.822893 53.04155 
L 163.987725 55.046143 
L 164.152556 60.483759 
L 164.482219 81.521741 
L 165.361319 140.155919 
L 165.745926 147.69354 
L 166.185476 152.385454 
L 166.515139 153.360504 
L 166.625027 153.317927 
L 166.899746 152.664004 
L 167.174465 152.147576 
L 167.284352 152.303812 
L 167.888734 153.9 
L 167.943678 153.866893 
L 168.053565 153.391459 
L 168.163453 151.752225 
L 168.328284 145.465311 
L 168.712891 115.491435 
L 169.207385 87.519837 
L 169.701879 71.322889 
L 170.416148 51.727399 
L 171.679856 36.288008 
L 172.119406 30.291092 
L 172.284237 29.748282 
L 172.394125 29.758444 
L 172.504012 30.395678 
L 172.668844 34.018761 
L 172.888619 46.228689 
L 173.383113 76.816961 
L 173.712776 86.144621 
L 174.317158 95.928327 
L 174.64682 98.824835 
L 174.811652 99.245892 
L 174.921539 99.020169 
L 175.086371 97.715717 
L 175.36109 92.434099 
L 175.690752 79.870877 
L 176.130303 65.392413 
L 176.514909 58.747727 
L 177.174235 50.928514 
L 177.229179 51.118376 
L 177.339066 53.507144 
L 177.558841 66.812176 
L 178.053336 96.530079 
L 178.437942 109.867688 
L 178.712661 113.470573 
L 179.042324 115.542714 
L 179.646706 123.655189 
L 180.415919 133.503126 
L 180.525806 132.804179 
L 180.690638 128.438139 
L 181.514794 96.638576 
L 183.657602 50.090267 
L 183.987265 48.203958 
L 184.866366 38.97842 
L 185.250972 37.117874 
L 185.36086 37.386188 
L 185.525691 38.676578 
L 185.745466 42.500155 
L 186.130073 55.004704 
L 186.569623 77.948531 
L 187.009174 101.604599 
L 187.283893 106.94581 
L 187.503668 108.236396 
L 187.888274 109.915835 
L 188.437712 113.781142 
L 188.492656 113.745835 
L 188.602544 112.994718 
L 188.822319 108.639743 
L 189.371757 96.279171 
L 189.70142 89.58258 
L 190.800295 60.607012 
L 191.514565 51.257404 
L 191.73434 49.876274 
L 191.844227 50.075457 
L 192.064003 51.701117 
L 192.338722 55.163586 
L 192.558497 62.179194 
L 193.547485 104.979689 
L 194.041979 116.40895 
L 194.811192 130.358445 
L 195.250743 135.543941 
L 195.635349 139.659394 
L 196.459506 151.040174 
L 196.569394 151.441632 
L 196.679281 151.017353 
L 196.844113 148.724864 
L 197.063888 141.764246 
L 197.888045 110.710329 
L 198.10782 108.506614 
L 198.327595 108.032203 
L 198.492426 108.170892 
L 198.877033 108.981695 
L 198.931977 108.896889 
L 199.041864 108.366634 
L 199.206696 106.079451 
L 200.745122 73.999731 
L 201.184672 67.2369 
L 201.514335 62.666821 
L 201.679166 62.139395 
L 201.789054 62.442227 
L 202.008829 64.663665 
L 202.448379 72.469761 
L 202.88793 80.51737 
L 203.217593 83.096401 
L 203.712087 85.658475 
L 204.041749 86.950549 
L 204.206581 86.894152 
L 204.371412 86.419579 
L 204.646131 84.557536 
L 205.085681 79.288735 
L 206.184557 63.016121 
L 206.459276 60.650355 
L 206.51422 60.606814 
L 206.624108 61.048747 
L 206.788939 63.410797 
L 207.66804 81.467257 
L 207.722984 81.572704 
L 207.777927 81.534217 
L 207.887815 80.894471 
L 208.10759 77.322147 
L 208.602084 69.456834 
L 208.931747 66.403393 
L 209.206466 65.679286 
L 209.481185 65.363997 
L 209.536129 65.411219 
L 209.646016 66.00938 
L 209.810848 69.030125 
L 210.030623 78.560909 
L 210.580061 103.641916 
L 210.964667 111.90853 
L 211.239386 113.929021 
L 212.118487 118.302726 
L 212.173431 118.251248 
L 212.283318 117.629146 
L 212.44815 114.411181 
L 212.722869 102.273647 
L 213.107475 89.195203 
L 213.547026 81.914505 
L 213.931632 75.126794 
L 214.48107 63.066639 
L 214.590958 62.556788 
L 214.645901 62.597443 
L 214.755789 63.25729 
L 214.975564 66.61485 
L 215.689833 78.031713 
L 215.964552 80.035139 
L 216.07444 80.151793 
L 216.184328 79.861692 
L 216.459047 77.682872 
L 217.118372 72.00483 
L 217.283203 71.921245 
L 217.393091 72.172744 
L 217.612866 73.741198 
L 218.10736 79.646499 
L 218.766686 87.056768 
L 219.041405 88.160242 
L 219.26118 88.29869 
L 219.480955 87.984611 
L 219.70073 87.484133 
L 220.469943 84.285528 
L 220.744662 80.539516 
L 221.513875 69.95751 
L 221.733651 69.007811 
L 221.843538 69.015374 
L 222.00837 69.576661 
L 222.228145 71.939072 
L 222.557807 78.816344 
L 223.491852 99.746017 
L 223.821515 102.976664 
L 224.04129 103.764232 
L 224.151177 103.641327 
L 224.316009 102.488595 
L 224.590728 98.237254 
L 225.085222 90.158254 
L 226.513761 81.68919 
L 226.733536 81.491745 
L 227.008255 81.218743 
L 227.173086 80.845249 
L 227.392861 79.249895 
L 228.217018 71.449626 
L 228.656568 69.733082 
L 228.8214 69.652227 
L 229.370838 70.185755 
L 229.535669 70.610308 
L 229.700501 71.521894 
L 229.920276 74.282719 
L 230.799376 88.365196 
L 231.403758 90.675778 
L 231.513646 90.796403 
L 231.568589 90.755186 
L 231.733421 90.389778 
L 232.118027 89.240964 
L 232.227915 89.391778 
L 232.392746 90.589468 
L 232.887241 97.696573 
L 233.436678 105.237436 
L 233.766341 107.327203 
L 234.096004 108.177276 
L 234.920161 109.374669 
L 235.084992 109.402692 
L 235.304767 109.004325 
L 235.579486 107.577891 
L 235.964093 104.238457 
L 236.403643 101.647502 
L 237.337688 97.521046 
L 237.777238 94.194007 
L 238.106901 90.313722 
L 238.601395 81.358265 
L 239.205777 72.700207 
L 239.810158 67.864254 
L 239.920046 67.768484 
L 240.029934 67.916267 
L 240.304652 69.180581 
L 240.963978 72.603483 
L 241.128809 72.691014 
L 241.458472 71.99291 
L 241.733191 70.742468 
L 242.062854 69.184292 
L 242.227685 69.137317 
L 242.502404 69.116877 
L 242.777123 68.864426 
L 242.941955 68.772025 
L 243.051842 68.89129 
L 243.436449 70.009897 
L 243.766111 71.888351 
L 244.205662 75.838986 
L 244.919931 84.813713 
L 245.579257 91.123283 
L 246.073751 93.521243 
L 246.842964 96.195376 
L 247.172627 97.227896 
L 247.282514 97.245357 
L 247.392402 97.093801 
L 247.557233 96.335984 
L 247.831952 93.391393 
L 248.326446 87.849853 
L 248.546221 87.19244 
L 248.656109 87.185637 
L 248.875884 87.780161 
L 249.370378 90.067024 
L 250.139591 93.660145 
L 250.249479 93.695198 
L 250.524198 93.234138 
L 251.073636 91.330603 
L 251.348355 90.791994 
L 251.513186 90.896432 
L 251.678018 91.277677 
L 251.952737 92.545511 
L 252.886781 97.919527 
L 253.216444 100.022384 
L 253.60105 101.754121 
L 253.820825 102.135536 
L 254.095544 102.12216 
L 254.260376 101.705655 
L 255.139476 97.83257 
L 255.524083 95.172926 
L 256.128465 91.269684 
L 256.458128 90.798952 
L 256.842734 90.436607 
L 257.062509 89.731313 
L 257.392172 87.815329 
L 257.831722 85.263009 
L 258.051497 85.013391 
L 258.271273 85.482614 
L 259.370149 89.289017 
L 259.480036 89.206045 
L 259.699811 88.544892 
L 260.029474 86.325834 
L 260.743743 81.137064 
L 261.12835 79.64214 
L 261.348125 78.721255 
L 261.677788 75.393367 
L 262.117338 71.905629 
L 262.392057 70.920531 
L 262.501945 70.926774 
L 262.611832 71.187886 
L 262.776664 72.30809 
L 263.216214 77.49838 
L 263.710708 82.864093 
L 263.985427 83.584551 
L 264.260146 84.212503 
L 264.589809 85.018222 
L 264.75464 84.969736 
L 265.084303 84.85127 
L 265.304078 85.169446 
L 265.578797 86.020977 
L 266.073291 88.370889 
L 266.512842 89.859518 
L 266.787561 90.363426 
L 267.336998 90.687304 
L 267.666661 91.737409 
L 268.106212 92.94483 
L 268.271043 92.996456 
L 268.435874 92.604641 
L 268.655649 91.306158 
L 270.029244 81.393266 
L 270.468795 80.585912 
L 270.68857 80.516094 
L 270.908345 80.809005 
L 271.622614 81.896258 
L 272.062165 81.756551 
L 272.556659 82.24527 
L 272.72149 82.360309 
L 272.941265 82.902049 
L 273.325872 83.881981 
L 273.545647 84.001887 
L 273.765422 83.989849 
L 274.259916 83.520232 
L 274.31486 83.582385 
L 274.534635 84.061956 
L 274.75441 85.258824 
L 275.90823 92.59547 
L 276.128005 92.911049 
L 276.292837 92.762338 
L 276.512612 91.944964 
L 276.897218 89.143699 
L 277.336769 86.562435 
L 277.611488 86.190335 
L 277.776319 86.252603 
L 278.600476 87.475476 
L 279.09497 88.778783 
L 279.314745 88.753547 
L 279.479577 88.328065 
L 279.809239 86.15515 
L 280.029015 85.177263 
L 280.193846 85.104929 
L 280.413621 85.707784 
L 280.68834 87.044275 
L 281.512497 91.964282 
L 281.787216 92.195155 
L 282.72126 92.170203 
L 283.215754 91.424353 
L 283.380586 90.575392 
L 283.984968 86.680961 
L 284.259687 86.129613 
L 284.809124 85.258036 
L 285.688225 83.535096 
L 286.072832 83.584519 
L 286.457438 84.275337 
L 286.512382 84.222527 
L 286.677213 83.541639 
L 287.50137 78.546922 
L 287.885977 77.261217 
L 288.160696 76.888646 
L 288.65519 76.962845 
L 288.874965 77.479676 
L 289.204628 79.234709 
L 289.754066 81.928561 
L 289.918897 82.052062 
L 290.083729 81.711682 
L 290.358448 80.371718 
L 290.852942 77.96162 
L 291.127661 77.576543 
L 291.292492 77.760407 
L 292.116649 79.869969 
L 292.721031 81.73926 
L 292.99575 82.09003 
L 293.4353 82.096132 
L 293.600131 82.551514 
L 293.984738 84.888696 
L 294.644063 89.611639 
L 295.02867 89.926454 
L 295.578108 90.902238 
L 295.962714 90.943192 
L 296.402265 90.612675 
L 296.841815 89.886063 
L 297.226422 89.45546 
L 297.391253 89.886402 
L 298.050578 92.411342 
L 298.380241 92.938466 
L 299.259342 92.722484 
L 299.534061 92.108084 
L 300.028555 90.368925 
L 300.24833 90.210651 
L 300.468105 90.34484 
L 300.797768 90.963597 
L 301.182375 92.25339 
L 301.786756 94.038564 
L 302.061475 94.367316 
L 302.336194 94.26632 
L 302.610913 93.657641 
L 303.43507 90.950745 
L 303.490014 90.998222 
L 303.929564 91.619617 
L 304.149339 91.529713 
L 304.314171 91.1503 
L 305.413047 87.504332 
L 305.577878 87.041628 
L 305.852597 84.804849 
L 306.18226 82.907513 
L 306.676754 81.461118 
L 306.786642 81.43692 
L 307.006417 81.707365 
L 307.336079 82.660751 
L 307.555855 83.803974 
L 307.940461 85.812737 
L 308.050349 85.821154 
L 308.325068 85.536453 
L 308.489899 85.500384 
L 309.533831 84.368304 
L 310.742595 81.112928 
L 311.182145 81.054528 
L 311.511808 81.09831 
L 312.335965 81.74738 
L 312.665627 81.683323 
L 313.43484 81.183119 
L 314.258997 81.108942 
L 314.808435 81.91141 
L 315.193042 82.424547 
L 315.467761 82.624532 
L 315.797423 83.234947 
L 316.072142 84.652554 
L 316.511693 86.857271 
L 316.676524 86.852523 
L 316.786412 87.029123 
L 317.061131 88.254475 
L 317.720456 90.839078 
L 317.995175 91.198402 
L 318.269894 91.042529 
L 319.094051 90.172807 
L 319.313826 90.863251 
L 319.588545 91.52114 
L 319.698433 91.521811 
L 320.083039 91.203456 
L 320.412702 91.22306 
L 320.687421 91.254668 
L 321.841241 92.447566 
L 322.225847 92.969639 
L 322.775285 92.956001 
L 323.050004 93.058258 
L 323.70933 93.667948 
L 323.929105 93.542373 
L 324.258768 93.32341 
L 325.082924 93.345333 
L 325.687306 93.111899 
L 325.907081 92.999094 
L 326.071913 93.161919 
L 326.291688 93.315861 
L 326.511463 93.308788 
L 327.225732 93.902585 
L 327.33562 94.02457 
L 327.390564 93.981712 
L 327.555395 93.319909 
L 328.324608 89.05131 
L 328.764159 87.645694 
L 329.972922 85.427532 
L 330.906966 80.799602 
L 331.401461 77.937479 
L 331.895955 76.824329 
L 332.829999 73.951307 
L 333.214606 73.61184 
L 333.379437 73.623339 
L 333.654156 73.882594 
L 334.093706 74.467871 
L 334.313482 74.519326 
L 334.807976 74.361891 
L 334.972807 74.489365 
L 335.30247 75.23209 
L 336.181571 78.222008 
L 337.280446 81.937601 
L 337.665053 82.438986 
L 338.104603 82.422594 
L 338.269435 82.771321 
L 338.818873 84.304565 
L 339.093592 84.864727 
L 340.632018 90.353346 
L 340.96168 91.316797 
L 341.181456 91.440075 
L 341.346287 91.657995 
L 342.1155 93.527526 
L 342.335275 93.623607 
L 342.55505 93.587377 
L 342.774826 93.18031 
L 343.26932 91.757846 
L 343.544039 91.311812 
L 344.423139 90.490403 
L 344.752802 90.454999 
L 344.972577 90.448591 
L 345.522015 90.85908 
L 345.851678 90.474132 
L 346.181341 90.140259 
L 346.620891 90.28402 
L 346.89561 91.00309 
L 347.445048 92.509428 
L 347.664823 92.547395 
L 347.829655 92.347616 
L 348.104374 91.410922 
L 348.48898 88.857283 
L 348.983474 86.557262 
L 349.148306 86.47157 
L 349.368081 86.677101 
L 349.862575 86.196501 
L 350.08235 86.232969 
L 350.357069 86.272734 
L 350.796619 86.300467 
L 351.840551 87.245361 
L 352.005383 87.25441 
L 352.170214 87.590198 
L 352.499877 88.445954 
L 352.664708 88.44279 
L 353.049315 87.871961 
L 353.378978 87.331715 
L 353.488865 87.372246 
L 354.038303 87.989639 
L 354.148191 87.907357 
L 354.477853 87.184433 
L 354.917404 86.042033 
L 355.137179 85.954377 
L 355.576729 85.996126 
L 355.961336 86.246602 
L 356.510774 86.143482 
L 357.005268 85.352771 
L 357.499762 83.879971 
L 357.829425 83.197822 
L 358.48875 82.745839 
L 359.20302 82.66263 
L 359.477739 82.284209 
L 359.807401 81.285794 
L 360.192008 80.228557 
L 360.466727 80.25991 
L 360.79639 79.965229 
L 360.961221 80.283841 
L 361.345828 81.055452 
L 361.565603 81.131076 
L 362.444703 81.176013 
L 362.994141 81.467292 
L 363.213916 81.485625 
L 363.378748 81.852832 
L 364.917174 87.296143 
L 365.466612 88.246366 
L 365.796275 88.75075 
L 366.180881 89.554283 
L 366.510544 89.6181 
L 366.950094 89.416093 
L 367.389645 89.730974 
L 367.719307 90.110355 
L 367.994026 90.089358 
L 368.433577 89.414179 
L 368.653352 89.176729 
L 369.037958 89.183044 
L 370.081891 89.658478 
L 370.521441 90.0683 
L 370.741216 90.088073 
L 371.015935 90.407691 
L 371.290654 91.095598 
L 371.675261 92.376114 
L 372.114811 92.843926 
L 372.444474 93.247514 
L 372.664249 93.114781 
L 372.993912 92.469589 
L 373.543349 91.476188 
L 373.9829 91.489512 
L 374.147731 91.407713 
L 374.367506 91.371758 
L 374.532338 91.828033 
L 374.752113 92.223205 
L 375.026832 91.97856 
L 375.521326 90.836427 
L 376.400427 88.610548 
L 377.004808 87.365051 
L 377.554246 86.535327 
L 377.828965 86.680025 
L 378.323459 87.658664 
L 378.543235 87.920502 
L 378.653122 87.794907 
L 378.927841 87.043978 
L 379.367391 85.004768 
L 379.916829 82.246652 
L 380.35638 81.160897 
L 380.576155 80.976827 
L 381.015705 80.964331 
L 381.23548 80.769195 
L 382.114581 79.688692 
L 382.224469 79.771522 
L 382.499188 80.101622 
L 382.609075 79.945309 
L 382.993682 78.898492 
L 383.158513 78.89328 
L 383.488176 78.867705 
L 383.98267 78.855098 
L 384.42222 78.934514 
L 384.916715 78.525748 
L 385.246377 77.823033 
L 385.356265 77.948274 
L 385.905703 79.180722 
L 386.235366 79.789369 
L 387.828736 84.057674 
L 388.707836 87.27503 
L 389.312218 88.809915 
L 389.806712 90.049262 
L 390.411094 91.028888 
L 391.070419 92.598776 
L 392.059408 95.55563 
L 392.334127 95.986708 
L 392.718733 95.929467 
L 392.938508 95.512767 
L 393.268171 94.947631 
L 393.597834 94.450532 
L 393.872553 93.19627 
L 394.202215 92.275944 
L 394.971429 91.024559 
L 395.740642 89.160448 
L 396.454911 87.918118 
L 396.564799 87.969785 
L 397.224124 88.666252 
L 397.608731 88.842182 
L 398.103225 88.377333 
L 399.147157 86.635968 
L 399.696595 87.269125 
L 399.971314 87.577237 
L 400.410864 87.423361 
L 400.795471 86.485882 
L 401.564684 84.589607 
L 402.004234 84.017132 
L 402.333897 83.725802 
L 402.718503 83.78729 
L 403.10311 84.06161 
L 403.322885 84.070521 
L 403.872323 84.398446 
L 404.092098 84.416192 
L 404.25693 84.654675 
L 404.69648 85.472933 
L 405.245918 84.821618 
L 405.410749 84.730528 
L 406.399737 83.497166 
L 406.784344 83.952981 
L 407.168951 84.687866 
L 407.443669 84.885129 
L 407.828276 85.826864 
L 407.993107 85.706456 
L 408.32277 85.44728 
L 408.762321 85.645797 
L 408.982096 85.796183 
L 409.146927 85.832036 
L 409.586477 86.16042 
L 409.806253 86.181332 
L 410.245803 86.664049 
L 410.520522 86.842868 
L 410.740297 86.909837 
L 411.124904 87.221056 
L 411.674342 87.069359 
L 412.113892 86.557604 
L 412.608386 86.464828 
L 413.267711 86.761234 
L 413.54243 86.554043 
L 413.817149 86.351858 
L 414.2567 85.902837 
L 414.861081 85.494673 
L 415.245688 85.424252 
L 415.520407 85.379317 
L 415.685238 85.382501 
L 415.905014 84.900242 
L 416.179733 84.422566 
L 416.399508 84.513887 
L 416.784114 85.02113 
L 417.333552 85.874558 
L 417.88299 86.192406 
L 418.157709 86.160041 
L 418.32254 86.173463 
L 418.487372 86.496465 
L 418.981866 87.784006 
L 419.860967 88.654674 
L 420.135686 88.452559 
L 420.685123 87.914587 
L 421.674112 87.229592 
L 422.168606 87.188356 
L 422.608156 86.894191 
L 422.882875 86.882783 
L 423.487257 86.333654 
L 423.707032 86.172338 
L 424.036695 86.344419 
L 424.970739 87.208393 
L 425.630065 87.248759 
L 426.069615 87.518912 
L 426.28939 87.540436 
L 426.454222 87.914606 
L 426.783884 88.700806 
L 426.948716 88.61911 
L 427.278379 88.272297 
L 427.44321 88.200824 
L 428.047592 87.577115 
L 428.487142 87.561473 
L 429.03658 87.499801 
L 429.256355 86.903093 
L 429.695905 85.534222 
L 429.970624 85.552368 
L 430.520062 85.125601 
L 430.739838 85.340407 
L 431.179388 85.823136 
L 431.509051 85.811778 
L 431.728826 86.052352 
L 431.948601 86.187544 
L 432.498039 86.172811 
L 432.827702 86.307199 
L 433.322196 86.516624 
L 433.81669 86.427323 
L 434.146353 85.561459 
L 434.805678 83.465956 
L 435.300172 82.723928 
L 435.574891 82.564015 
L 435.84961 82.314855 
L 436.234217 82.437149 
L 436.618823 82.696479 
L 437.113317 82.990321 
L 437.333093 83.021655 
L 437.497924 83.283926 
L 437.772643 84.201145 
L 437.992418 84.72424 
L 438.431968 84.883289 
L 438.706687 85.118582 
L 438.871519 85.20854 
L 439.201182 85.478647 
L 439.420957 85.50794 
L 439.695676 85.859184 
L 440.300057 86.82517 
L 440.355001 86.775887 
L 440.739608 86.534388 
L 440.904439 86.783762 
L 441.179158 87.227308 
L 441.78354 87.335815 
L 442.278034 87.607565 
L 442.827472 87.928592 
L 443.541741 88.01952 
L 444.146123 88.64999 
L 444.420842 88.529187 
L 444.750505 88.268415 
L 445.135111 88.325052 
L 445.84938 88.727047 
L 446.014212 88.691885 
L 446.233987 88.663408 
L 446.453762 88.543088 
L 446.728481 88.284783 
L 447.058144 88.315266 
L 447.277919 88.135361 
L 448.431739 86.571258 
L 448.486683 86.62148 
L 448.871289 87.311692 
L 448.926233 87.248769 
L 449.146008 86.72929 
L 449.530615 85.907136 
L 449.970165 85.50416 
L 450.244884 85.553623 
L 450.574547 86.00396 
L 451.178928 86.902587 
L 451.453647 86.768128 
L 451.673422 86.661343 
L 451.948141 87.345677 
L 452.22286 87.867068 
L 452.442636 87.903095 
L 453.37668 88.148224 
L 453.81623 88.391228 
L 454.145893 88.635339 
L 454.97005 88.402847 
L 455.4096 88.307509 
L 456.013982 88.210667 
L 456.618364 87.641268 
L 456.783195 87.754338 
L 457.387577 88.54287 
L 457.991959 89.357794 
L 458.541397 89.363842 
L 459.475441 89.491867 
L 459.860048 90.114073 
L 460.079823 90.4891 
L 460.244654 90.168621 
L 460.849036 88.716693 
L 461.123755 87.979633 
L 461.728137 86.385467 
L 462.057799 86.094403 
L 462.222631 86.11204 
L 462.442406 86.237973 
L 462.881956 85.883541 
L 463.37645 86.526694 
L 463.761057 86.188592 
L 464.145663 86.209567 
L 464.859933 86.052953 
L 465.793977 84.840724 
L 466.343415 84.642027 
L 466.56319 84.464878 
L 466.728022 84.426271 
L 467.167572 84.118544 
L 467.552179 84.089705 
L 468.596111 83.397302 
L 468.815886 83.499723 
L 469.694986 84.466883 
L 470.024649 84.402702 
L 470.738919 83.721314 
L 470.90375 83.830964 
L 471.288356 84.36888 
L 471.727907 83.936304 
L 472.002626 84.350242 
L 472.716895 85.624405 
L 472.991614 85.864163 
L 473.266333 85.647235 
L 473.486108 85.518202 
L 473.65094 85.347159 
L 474.09049 84.528345 
L 474.145434 84.599667 
L 474.475096 85.148882 
L 474.584984 85.118884 
L 474.859703 84.7911 
L 475.024534 84.956986 
L 475.24431 85.173527 
L 476.288242 84.907599 
L 476.617904 85.298855 
L 477.497005 86.611689 
L 477.71678 86.454039 
L 477.991499 86.198971 
L 478.376106 86.225208 
L 479.859588 86.191129 
L 480.024419 86.305649 
L 480.793633 87.255062 
L 481.782621 87.319577 
L 482.002396 87.942576 
L 482.277115 88.588636 
L 482.387003 88.51649 
L 482.606778 88.272255 
L 482.826553 88.251327 
L 483.595766 87.65544 
L 483.925429 87.525604 
L 484.200148 87.294011 
L 484.419923 87.29454 
L 484.584754 87.028332 
L 484.969361 86.224987 
L 485.134192 86.498987 
L 485.408911 86.901566 
L 485.903405 87.187069 
L 486.507787 87.959872 
L 486.672618 87.912385 
L 487.002281 87.53564 
L 487.167112 87.139478 
L 487.661607 85.494992 
L 488.046213 84.857406 
L 488.43082 85.279528 
L 488.760482 85.760027 
L 489.145089 86.230009 
L 489.584639 86.238271 
L 490.958234 86.434122 
L 491.61756 86.684567 
L 492.276885 87.271281 
L 492.49666 87.339405 
L 493.046098 87.975873 
L 493.320817 88.570871 
L 493.430705 88.528338 
L 493.65048 88.296566 
L 494.199918 88.748764 
L 494.529581 88.71466 
L 494.969131 88.467684 
L 495.738344 87.445803 
L 496.122951 86.527902 
L 496.562501 86.508655 
L 496.83722 86.23026 
L 497.166883 86.250333 
L 497.441602 86.263197 
L 497.661377 86.598481 
L 498.320702 87.635467 
L 498.925084 87.960717 
L 499.969016 87.904859 
L 500.46351 87.076125 
L 500.793173 86.590272 
L 501.232723 86.491607 
L 501.892049 86.876446 
L 502.441487 86.094501 
L 502.77115 85.757586 
L 502.935981 85.827653 
L 503.2107 86.114473 
L 503.815082 87.452852 
L 504.254632 88.050104 
L 504.36452 87.864249 
L 504.584295 86.778188 
L 505.023845 84.742645 
L 505.24362 84.277718 
L 505.463395 84.181276 
L 505.683171 84.221607 
L 506.507327 84.865517 
L 506.672159 84.711427 
L 507.111709 83.818429 
L 507.166653 83.856621 
L 507.496316 84.180579 
L 507.825979 84.10473 
L 507.99081 84.24242 
L 509.034742 85.909493 
L 509.089686 85.873932 
L 509.58418 85.549509 
L 509.913843 85.53295 
L 511.232494 84.336856 
L 512.331369 82.763589 
L 512.496201 82.691148 
L 512.880807 82.382579 
L 513.100583 82.546033 
L 513.430245 83.197498 
L 513.869796 84.7598 
L 514.693953 87.482715 
L 515.133503 88.226993 
L 515.24339 88.05308 
L 515.792828 86.462164 
L 517.001592 84.848356 
L 517.276311 84.864096 
L 517.496086 84.61175 
L 517.715861 84.406775 
L 517.880693 84.655027 
L 518.924625 87.910819 
L 519.089456 87.968662 
L 519.58395 87.893631 
L 520.133388 87.282321 
L 520.572938 87.290825 
L 520.957545 87.301293 
L 521.452039 87.833702 
L 522.056421 88.73296 
L 522.660802 89.338027 
L 522.880578 89.502425 
L 523.155297 89.752052 
L 523.320128 89.88767 
L 523.92451 91.134884 
L 524.309116 91.823244 
L 524.693723 92.189177 
L 525.188217 92.221999 
L 525.462936 92.181935 
L 526.122261 91.564115 
L 526.616756 89.889663 
L 527.11125 89.388675 
L 527.495856 89.497517 
L 527.770575 89.526195 
L 528.265069 89.221127 
L 528.594732 88.334685 
L 528.924395 87.346852 
L 529.034282 87.336742 
L 529.638664 87.866137 
L 530.29799 88.248312 
L 530.517765 88.342826 
L 531.122147 88.3468 
L 531.726528 88.335695 
L 531.946303 88.06659 
L 532.660573 86.719391 
L 533.045179 85.983196 
L 533.539673 85.568903 
L 533.92428 85.529252 
L 534.528662 84.89783 
L 535.0781 84.065366 
L 536.067088 83.078334 
L 536.286863 82.827681 
L 536.891245 82.107688 
L 537.001132 82.175454 
L 537.275851 82.584816 
L 537.385739 82.487756 
L 537.660458 82.014997 
L 537.770345 82.0738 
L 538.319783 82.726974 
L 538.649446 82.717529 
L 538.979109 82.701708 
L 539.363715 82.427146 
L 539.803266 82.694256 
L 540.023041 82.527635 
L 540.132929 82.685011 
L 540.517535 83.452404 
L 540.792254 83.401842 
L 541.231804 83.420338 
L 541.616411 83.221575 
L 541.946074 83.609395 
L 542.385624 84.91089 
L 542.990006 86.509664 
L 543.429556 87.116593 
L 543.704275 87.307307 
L 544.528432 87.829582 
L 544.858095 87.720337 
L 545.902027 86.937986 
L 546.451465 86.203964 
L 547.055846 85.559136 
L 547.715172 85.944052 
L 547.989891 86.522272 
L 548.319554 87.418759 
L 548.484385 87.29039 
L 548.649216 87.249113 
L 549.803036 87.727173 
L 550.517305 88.426972 
L 550.682137 88.377327 
L 551.011799 87.950018 
L 551.231575 88.309149 
L 551.506294 88.644707 
L 551.671125 88.592441 
L 552.000788 88.437756 
L 552.934832 88.847271 
L 553.209551 88.985837 
L 553.429326 89.044496 
L 553.868877 88.995588 
L 554.473258 88.121879 
L 555.022696 87.296435 
L 555.462247 87.294351 
L 556.616066 86.953173 
L 557.11056 86.990744 
L 557.714942 87.269329 
L 557.934717 87.250724 
L 558.26438 87.049901 
L 558.594043 86.759082 
L 558.978649 86.250734 
L 559.4182 86.264028 
L 559.802806 85.667466 
L 559.912694 85.742282 
L 560.462132 86.439628 
L 560.901682 86.904617 
L 561.561008 87.628464 
L 561.835727 87.695862 
L 562.165389 87.637843 
L 562.659883 87.97203 
L 562.879659 87.641918 
L 563.154378 87.291242 
L 563.319209 87.190968 
L 563.593928 86.962338 
L 563.868647 86.838882 
L 564.308197 86.637765 
L 564.63786 86.401309 
L 565.626848 84.938393 
L 565.956511 84.692567 
L 566.176286 84.671563 
L 567.165274 84.959623 
L 567.769656 85.296527 
L 568.923476 86.399806 
L 569.143251 86.538378 
L 569.472914 86.765634 
L 569.747633 86.838568 
L 570.461902 87.244353 
L 570.626733 86.772808 
L 570.846509 86.226278 
L 571.176171 86.155514 
L 572.60471 86.469785 
L 572.879429 86.519921 
L 573.154148 86.180861 
L 573.813473 86.5819 
L 574.802462 86.503505 
L 575.3519 86.916458 
L 575.626619 86.949712 
L 575.846394 86.822227 
L 576.670551 85.884306 
L 576.94527 85.73124 
L 577.274932 85.702743 
L 577.604595 85.806014 
L 578.758415 86.593787 
L 579.088077 86.513186 
L 579.472684 86.368053 
L 579.857291 86.261978 
L 580.736391 86.577828 
L 581.120998 86.346833 
L 581.395717 86.687932 
L 581.615492 86.394019 
L 581.835267 86.2128 
L 582.714368 86.558649 
L 583.208862 86.092063 
L 583.648412 85.500899 
L 583.813244 85.162201 
L 584.142906 84.512436 
L 584.307738 84.820781 
L 584.747288 85.719344 
L 584.967063 85.834529 
L 585.296726 85.890186 
L 586.065939 86.204319 
L 586.285714 86.329319 
L 586.780208 86.802566 
L 587.38459 87.279642 
L 587.659309 87.275386 
L 587.879084 87.556566 
L 589.032904 89.337359 
L 589.197735 89.323736 
L 590.13178 88.386044 
L 590.406499 88.182913 
L 590.626274 87.997796 
L 590.846049 87.9334 
L 591.560318 87.278265 
L 591.944925 87.391791 
L 592.494363 87.916602 
L 592.549307 87.847139 
L 593.208632 86.514384 
L 593.813014 85.926742 
L 594.032789 85.897322 
L 594.472339 85.618107 
L 594.692115 85.60429 
L 594.966834 85.556568 
L 595.296496 85.204689 
L 595.35144 85.258533 
L 595.626159 86.018647 
L 595.845934 86.370325 
L 596.450316 86.589314 
L 597.549192 86.674374 
L 597.878855 86.786316 
L 599.197506 87.237384 
L 599.856831 86.499709 
L 600.406269 85.921715 
L 600.680988 85.911892 
L 601.010651 85.594266 
L 601.505145 85.203699 
L 602.219414 85.35061 
L 602.494133 85.354518 
L 603.153459 85.293564 
L 603.373234 85.582829 
L 603.647953 86.160095 
L 603.812784 85.973658 
L 604.087503 85.595098 
L 604.252334 85.587201 
L 604.47211 85.593716 
L 604.691885 85.327262 
L 604.91166 85.16805 
L 605.790761 85.246339 
L 606.120423 85.103472 
L 606.450086 84.490976 
L 606.50503 84.536156 
L 606.999524 85.182467 
L 607.603906 85.137856 
L 608.043456 85.443713 
L 608.702782 85.894744 
L 609.69177 85.910653 
L 610.021433 86.16107 
L 611.449971 87.290961 
L 611.944465 87.302235 
L 612.219184 87.239346 
L 612.548847 87.137808 
L 613.208173 87.298071 
L 613.427948 87.140697 
L 614.142217 86.230832 
L 614.636711 86.375603 
L 615.021318 85.881173 
L 615.350981 86.291122 
L 615.955362 87.3137 
L 616.889407 89.022447 
L 617.054238 89.003277 
L 617.383901 88.764478 
L 617.878395 89.655217 
L 618.043226 89.635981 
L 619.032215 88.364681 
L 619.636596 87.699544 
L 619.856372 87.553411 
L 620.131091 87.420998 
L 620.625585 87.483634 
L 620.900304 87.672564 
L 621.669517 88.17068 
L 622.054123 88.348924 
L 622.768393 88.217335 
L 623.867268 86.608897 
L 624.0321 86.431534 
L 624.416706 85.925809 
L 624.581538 85.845904 
L 624.9112 85.565545 
L 625.240863 85.597852 
L 625.460638 86.115672 
L 625.680414 86.429385 
L 625.900189 86.357402 
L 626.06502 86.524299 
L 626.559514 87.333825 
L 626.779289 87.394541 
L 627.603446 86.856501 
L 628.042997 86.249268 
L 628.372659 85.456653 
L 628.537491 85.506488 
L 628.81221 85.781818 
L 629.25176 85.560183 
L 629.801198 85.558786 
L 630.130861 85.61059 
L 630.625355 85.901247 
L 631.009961 86.031766 
L 631.229737 86.07897 
L 631.559399 86.185972 
L 631.779175 86.161919 
L 631.99895 86.047136 
L 633.097826 84.597679 
L 633.317601 84.520623 
L 634.086814 84.290582 
L 634.416477 84.408952 
L 634.801083 84.617484 
L 635.735128 85.42691 
L 636.504341 85.899046 
L 636.77906 86.22174 
L 636.888947 86.109215 
L 637.328498 85.251684 
L 637.768048 85.191109 
L 638.042767 85.139254 
L 638.37243 85.225597 
L 638.647149 85.243623 
L 638.976811 85.604139 
L 639.196587 85.720872 
L 639.471305 85.527728 
L 639.636137 85.79583 
L 639.9658 86.391652 
L 640.625125 86.689907 
L 641.064675 86.979705 
L 641.669057 86.840106 
L 641.943776 86.612932 
L 642.493214 86.621117 
L 643.811865 86.494199 
L 644.03164 86.459274 
L 645.130516 87.097467 
L 645.679954 87.522464 
L 646.174448 87.654822 
L 646.613999 87.359126 
L 646.943661 87.353848 
L 647.328268 86.975338 
L 647.383212 87.035831 
L 647.767818 87.494124 
L 647.93265 87.241886 
L 648.207369 86.88297 
L 648.427144 86.899927 
L 648.701863 87.01208 
L 649.031525 86.987675 
L 649.745795 87.15906 
L 650.185345 86.983838 
L 650.624895 86.686429 
L 651.009502 86.872617 
L 651.339165 86.657192 
L 652.328153 87.425224 
L 652.822647 87.693238 
L 653.701748 87.97421 
L 654.196242 87.860575 
L 654.470961 87.95307 
L 655.18523 88.386891 
L 655.899499 88.249205 
L 656.833544 87.101687 
L 657.437926 86.002609 
L 658.097251 85.359938 
L 658.262083 85.482862 
L 658.536802 85.885937 
L 658.701633 85.596795 
L 658.976352 85.205942 
L 659.306015 85.48019 
L 660.185115 86.382924 
L 660.844441 86.720026 
L 661.009272 86.63676 
L 661.393879 85.959264 
L 661.503766 86.070349 
L 661.723541 86.260142 
L 661.888373 86.111852 
L 662.327923 85.592374 
L 662.71253 85.611644 
L 663.042193 85.630148 
L 663.536687 86.150899 
L 663.921293 86.4077 
L 664.690506 86.828457 
L 665.020169 86.962876 
L 665.349832 87.180642 
L 665.624551 87.262223 
L 665.89927 87.357149 
L 666.558595 87.243194 
L 666.833314 87.195564 
L 668.976122 86.381881 
L 669.140953 86.306023 
L 669.470616 86.429105 
L 669.800279 86.731078 
L 670.020054 86.388786 
L 670.239829 86.187404 
L 670.404661 86.208749 
L 671.11893 86.963144 
L 672.217806 88.038496 
L 672.382637 87.838531 
L 672.547469 87.659407 
L 672.767244 88.093394 
L 672.987019 88.46411 
L 673.206794 88.389902 
L 673.701288 88.110467 
L 673.86612 88.035556 
L 674.250726 87.721498 
L 674.580389 87.728683 
L 674.855108 87.409307 
L 675.404546 87.050175 
L 675.624321 86.865072 
L 675.844096 86.69698 
L 676.063871 86.659122 
L 676.833084 86.011628 
L 677.05286 85.944061 
L 678.261623 84.625434 
L 678.481398 84.513274 
L 678.811061 84.26865 
L 679.08578 84.350671 
L 679.360499 84.597706 
L 679.745105 84.564679 
L 680.019824 84.799081 
L 680.2396 84.890742 
L 680.404431 84.947291 
L 680.953869 85.59504 
L 681.338475 85.624545 
L 681.558251 85.931328 
L 681.887913 86.321294 
L 682.437351 86.343779 
L 682.657126 86.189058 
L 683.151621 85.439746 
L 683.536227 84.591831 
L 683.975777 84.976594 
L 684.250496 84.698065 
L 684.470272 84.582425 
L 684.909822 84.598326 
L 685.45926 84.486386 
L 685.624091 84.533126 
L 685.843866 84.57407 
L 686.063642 84.693365 
L 686.338361 84.927182 
L 686.558136 84.956697 
L 687.382293 85.74181 
L 687.821843 86.24298 
L 689.360269 87.030995 
L 689.744876 87.053599 
L 691.338246 88.210968 
L 691.722852 88.770538 
L 691.887684 88.471902 
L 692.107459 88.058875 
L 692.27229 87.977476 
L 692.821728 87.403543 
L 692.986559 87.30022 
L 693.481054 86.713947 
L 693.700829 86.684943 
L 694.250267 86.14033 
L 694.415098 85.978724 
L 694.634873 86.163516 
L 695.074424 86.672483 
L 695.89858 86.947808 
L 696.832625 87.699075 
L 697.0524 87.759745 
L 697.821613 87.813569 
L 698.20622 87.951521 
L 698.975433 87.938398 
L 700.67869 87.979848 
L 701.557791 88.661866 
L 701.777566 88.804439 
L 702.436892 88.805242 
L 702.821498 88.805701 
L 702.98633 88.430132 
L 703.370936 87.436133 
L 703.810487 87.069189 
L 704.5797 86.714661 
L 705.129138 86.632602 
L 705.678576 86.028959 
L 706.17307 86.456305 
L 707.436777 85.352814 
L 707.601608 85.322218 
L 708.096102 84.969766 
L 709.194978 85.065468 
L 709.469697 85.33718 
L 709.964191 85.322106 
L 711.997112 85.326283 
L 712.216887 85.052987 
L 712.381718 84.945283 
L 712.821269 84.970717 
L 713.480594 85.00061 
L 714.030032 85.908214 
L 714.084976 85.847535 
L 714.414639 85.409581 
L 714.57947 85.441883 
L 714.799245 85.503034 
L 715.568458 85.484416 
L 715.898121 85.581119 
L 716.282727 85.710052 
L 716.502503 85.595554 
L 716.777222 85.342214 
L 717.051941 85.918212 
L 717.32666 86.359503 
L 717.601379 86.443623 
L 717.985985 86.762473 
L 720.183737 87.612764 
L 720.678231 87.783968 
L 721.557332 87.817096 
L 721.941938 87.916929 
L 722.875983 88.065441 
L 723.150702 87.958085 
L 723.755083 87.401154 
L 723.974858 87.31092 
L 724.469353 86.913134 
L 724.689128 86.842627 
L 725.018791 87.139002 
L 725.073734 87.05768 
L 725.568228 86.398087 
L 725.678116 86.455815 
L 726.007779 86.663304 
L 726.17261 86.606383 
L 726.667104 86.343397 
L 727.051711 86.297578 
L 727.601149 85.924675 
L 727.820924 85.705788 
L 727.875868 85.751714 
L 728.425306 86.308574 
L 728.645081 86.074261 
L 728.809912 86.042567 
L 729.249463 86.07659 
L 730.403282 86.052512 
L 730.95272 86.260092 
L 731.886765 86.386457 
L 732.491146 86.151425 
L 732.875753 86.226759 
L 733.205416 86.310277 
L 733.590022 86.213154 
L 733.864741 86.192102 
L 734.688898 86.133653 
L 734.908673 86.12592 
L 735.238336 86.242753 
L 735.677886 86.275618 
L 735.952605 86.582256 
L 736.227324 86.953788 
L 736.556987 86.639214 
L 736.776762 86.570514 
L 737.106425 86.756134 
L 738.260245 87.067786 
L 738.699795 87.217949 
L 739.084401 86.97739 
L 739.633839 87.224523 
L 740.348109 86.947495 
L 740.622828 86.86882 
L 740.95249 86.693502 
L 741.337097 86.681149 
L 747.490802 86.508843 
L 747.820464 86.236532 
L 749.358891 86.597229 
L 749.853385 86.519865 
L 750.128104 86.461197 
L 750.622598 86.710597 
L 751.172036 86.735365 
L 752.051136 86.786877 
L 753.150012 86.48213 
L 754.084057 86.207713 
L 758.47956 86.535612 
L 759.028998 86.475951 
L 760.897087 86.432893 
L 761.391581 86.488005 
L 766.556298 86.638326 
L 777.6 86.554377 
L 777.6 86.554377 
" clip-path="url(#p7998b8d29d)" style="fill: none; stroke: #008000; stroke-width: 1.5; stroke-linecap: square"/>
   </g>
   <g id="line2d_24">
    <path d="M 108 86.378688 
L 117.12067 86.311923 
L 117.615164 86.188583 
L 117.834939 86.199823 
L 118.109658 86.136083 
L 118.329433 86.475784 
L 118.71404 86.953676 
L 118.933815 87.031851 
L 120.197522 86.348695 
L 120.417297 86.439621 
L 120.801904 86.758068 
L 121.021679 86.60883 
L 121.735948 85.721706 
L 121.90078 85.95419 
L 122.285386 86.604257 
L 122.505161 86.4775 
L 122.724936 86.385237 
L 123.164487 86.425154 
L 123.658981 86.17313 
L 123.988644 86.407467 
L 124.208419 86.494918 
L 124.538082 86.745375 
L 124.867744 86.791216 
L 125.362238 86.966949 
L 125.801789 86.873083 
L 126.406171 86.679144 
L 126.790777 87.080406 
L 127.010552 87.885498 
L 127.285271 88.757921 
L 127.395159 88.560677 
L 127.614934 87.365135 
L 128.219316 83.223637 
L 128.329203 83.265949 
L 128.494035 83.825433 
L 128.768754 86.129385 
L 129.043473 87.938761 
L 129.15336 87.6683 
L 129.373135 85.538575 
L 129.59291 83.791004 
L 129.757742 83.48831 
L 129.867629 83.762723 
L 130.032461 84.962872 
L 130.362124 87.305334 
L 130.636843 87.810012 
L 131.131337 89.640481 
L 131.18628 89.614784 
L 131.460999 89.346334 
L 131.735718 88.595862 
L 132.065381 87.834021 
L 132.504931 87.367123 
L 133.109313 85.030942 
L 133.329088 84.257712 
L 133.438976 84.335334 
L 133.603807 85.03919 
L 134.098301 88.053127 
L 134.153245 87.930813 
L 134.318077 86.418538 
L 134.757627 80.939854 
L 134.812571 80.998083 
L 134.922458 81.675604 
L 135.197177 85.77625 
L 135.581784 90.155156 
L 135.96639 92.529324 
L 136.021334 92.625086 
L 136.076278 92.588278 
L 136.186166 92.003255 
L 136.405941 88.284892 
L 136.790547 81.443131 
L 136.845491 81.372015 
L 136.900435 81.439902 
L 137.065266 82.1909 
L 137.449873 85.99808 
L 137.779536 88.349279 
L 137.889423 88.662135 
L 137.944367 88.636796 
L 138.054255 88.146638 
L 138.27403 85.482502 
L 138.548749 82.350326 
L 138.603692 82.451023 
L 138.71358 83.36626 
L 139.208074 90.535172 
L 139.263018 90.351004 
L 139.427849 88.823368 
L 139.757512 82.254282 
L 140.032231 77.813064 
L 140.087175 77.653361 
L 140.142119 77.8037 
L 140.30695 80.071072 
L 140.801444 89.509664 
L 140.911332 88.956369 
L 141.405826 84.690316 
L 141.515713 85.012289 
L 141.735489 86.899124 
L 142.33987 92.715851 
L 142.394814 92.809096 
L 142.449758 92.713482 
L 142.614589 91.363013 
L 143.109083 86.569764 
L 143.164027 86.573766 
L 143.328859 87.581719 
L 143.658521 89.719976 
L 143.878297 89.652228 
L 143.988184 89.492446 
L 144.153016 88.72737 
L 144.372791 86.638922 
L 144.812341 81.989889 
L 144.922229 82.553223 
L 145.361779 86.102881 
L 145.52661 85.813556 
L 145.801329 85.32349 
L 146.076048 85.088559 
L 146.405711 84.631611 
L 146.570542 84.678369 
L 146.68043 84.926493 
L 146.900205 86.610836 
L 147.010093 87.319664 
L 147.065037 87.308782 
L 147.174924 86.472871 
L 147.559531 81.199334 
L 147.614474 81.258528 
L 147.779306 82.752564 
L 148.163912 89.720248 
L 148.328744 91.399353 
L 148.438631 90.617402 
L 148.988069 84.193698 
L 149.482563 78.382099 
L 149.537507 78.533863 
L 149.702339 79.820643 
L 150.141889 84.017526 
L 150.251776 83.51768 
L 150.691327 80.297188 
L 150.801214 80.516539 
L 151.46054 83.517228 
L 151.790203 85.692798 
L 152.119865 89.445164 
L 152.669303 95.565497 
L 152.834135 95.878047 
L 153.163797 95.829566 
L 153.438516 96.337954 
L 153.49346 96.245691 
L 153.658292 94.948817 
L 153.878067 91.127021 
L 154.482449 78.372122 
L 154.537392 78.307499 
L 154.592336 78.381478 
L 154.757167 79.120611 
L 154.976943 80.186673 
L 155.031886 80.148629 
L 155.141774 79.521554 
L 155.8011 73.36292 
L 156.185706 71.755314 
L 156.625256 69.997171 
L 156.735144 70.25178 
L 156.899975 71.53058 
L 157.174694 76.674808 
L 157.449413 86.68754 
L 157.998851 109.798486 
L 158.218626 111.542726 
L 158.713121 112.53894 
L 158.932896 114.179064 
L 159.317502 119.284451 
L 159.921884 128.638386 
L 160.196603 130.002283 
L 160.471322 131.054227 
L 160.581209 131.55948 
L 160.636153 131.515494 
L 160.746041 129.827923 
L 160.910872 120.514884 
L 161.735029 53.385523 
L 162.229523 34.109328 
L 162.504242 30.167171 
L 162.61413 29.742571 
L 162.669074 29.792342 
L 162.778961 30.640924 
L 163.108624 37.603 
L 163.383343 40.585956 
L 163.658062 44.386513 
L 164.811882 65.414003 
L 165.361319 85.813597 
L 166.075589 94.876035 
L 166.67997 106.457076 
L 167.119521 110.736141 
L 167.504127 117.418837 
L 168.328284 129.393631 
L 168.493116 130.074702 
L 168.548059 130.063354 
L 168.657947 129.673319 
L 168.822778 127.991163 
L 169.207385 120.434627 
L 169.811767 101.908545 
L 170.855699 68.526588 
L 171.075474 66.431881 
L 171.130418 66.442453 
L 171.240305 66.8729 
L 171.46008 69.124416 
L 172.394125 80.349273 
L 172.723788 80.583878 
L 173.108394 82.00646 
L 173.163338 81.943248 
L 173.493001 81.096105 
L 173.602888 81.482166 
L 173.76772 83.168788 
L 174.152326 87.871029 
L 174.20727 87.827225 
L 174.317158 87.067238 
L 174.591877 82.339934 
L 175.525921 66.677616 
L 176.075359 63.651859 
L 176.185247 63.561287 
L 176.295134 63.821991 
L 176.459966 65.09278 
L 176.679741 69.460723 
L 177.39401 86.626228 
L 177.558841 87.226609 
L 177.668729 86.942415 
L 177.83356 85.47154 
L 178.328054 80.19612 
L 178.492886 79.755471 
L 178.602773 79.857763 
L 178.767605 80.571706 
L 179.207155 83.081729 
L 179.481874 83.831051 
L 179.701649 85.384088 
L 180.415919 92.160859 
L 180.855469 96.4167 
L 181.185132 102.560312 
L 181.789513 119.077405 
L 182.393895 142.112447 
L 182.61367 145.546532 
L 182.668614 145.516467 
L 182.778502 144.263065 
L 182.943333 138.527317 
L 183.76749 98.968833 
L 184.042209 93.617374 
L 184.20704 92.723389 
L 184.261984 92.745607 
L 184.371872 93.23349 
L 184.536703 95.259191 
L 184.756478 101.807541 
L 185.196029 115.46446 
L 185.525691 119.038958 
L 185.745466 120.10052 
L 185.855354 119.858018 
L 186.020185 118.408944 
L 186.404792 111.455645 
L 186.789399 106.170683 
L 187.119061 104.589306 
L 187.228949 104.382994 
L 187.338836 104.62151 
L 187.558612 105.981179 
L 188.437712 115.106073 
L 188.822319 119.694884 
L 188.932206 118.749529 
L 189.097038 114.324372 
L 190.195914 73.678233 
L 190.965127 59.725101 
L 191.954115 38.350359 
L 192.833216 28.438755 
L 192.998047 27.9 
L 193.107935 28.325886 
L 193.272766 30.98235 
L 193.547485 40.962936 
L 194.206811 67.516575 
L 194.536473 72.634679 
L 195.470518 82.686247 
L 196.899056 114.744818 
L 197.063888 115.49675 
L 197.118832 115.498333 
L 197.228719 115.1823 
L 197.448494 113.632051 
L 197.668269 111.059377 
L 197.942988 104.29933 
L 198.437483 92.38366 
L 198.877033 87.799023 
L 199.646246 81.334566 
L 200.360515 65.576225 
L 201.019841 51.344065 
L 201.29456 49.07588 
L 201.349504 49.043664 
L 201.459391 49.355593 
L 201.789054 51.585429 
L 202.17366 53.551525 
L 202.338492 53.801568 
L 202.393436 53.771453 
L 202.503323 53.426343 
L 202.723098 51.45058 
L 203.547255 43.268134 
L 203.602199 43.110735 
L 203.657143 43.13504 
L 203.821974 43.784883 
L 204.206581 46.073466 
L 204.316468 48.66122 
L 204.536244 63.423968 
L 204.810963 81.422073 
L 205.3604 99.167131 
L 205.745007 111.441082 
L 206.07467 114.737499 
L 206.129614 114.651828 
L 206.239501 113.178003 
L 206.404332 106.569599 
L 206.843883 85.983897 
L 207.558152 73.691501 
L 208.327365 66.492271 
L 208.382309 66.483652 
L 208.492197 67.093266 
L 208.657028 70.961592 
L 209.041635 91.386044 
L 209.426241 104.776147 
L 210.030623 118.206546 
L 210.195454 119.453866 
L 210.305342 118.656613 
L 210.470173 114.281375 
L 210.909723 89.891475 
L 211.459161 63.57072 
L 211.73388 58.718255 
L 211.953656 57.993743 
L 212.063543 58.143625 
L 212.173431 58.697585 
L 212.338262 61.087688 
L 212.558037 68.37119 
L 213.217363 93.099081 
L 213.711857 105.688887 
L 213.931632 107.970735 
L 214.04152 108.138619 
L 214.151407 107.732943 
L 214.371182 105.371284 
L 214.865677 99.86431 
L 214.975564 99.666027 
L 215.030508 99.688667 
L 215.140396 100.008165 
L 215.360171 101.821649 
L 216.459047 114.277024 
L 216.568934 114.461446 
L 216.678822 113.867184 
L 216.898597 110.827188 
L 217.722754 97.773227 
L 217.997473 92.761884 
L 219.096349 67.495858 
L 219.316124 66.805572 
L 219.590843 66.666559 
L 219.810618 66.90059 
L 220.305112 67.363232 
L 220.469943 68.478664 
L 220.689719 72.600289 
L 221.349044 88.008792 
L 221.788594 92.722405 
L 222.283089 95.207239 
L 222.44792 95.518567 
L 222.502864 95.489911 
L 222.667695 95.036645 
L 223.052302 92.593559 
L 223.491852 89.993997 
L 223.656683 89.855486 
L 224.04129 90.202017 
L 224.48084 90.165236 
L 224.645672 89.826048 
L 225.030278 88.235843 
L 226.403873 80.681036 
L 226.568704 80.55784 
L 226.678592 80.809082 
L 226.898367 82.553828 
L 227.392861 86.947957 
L 227.66758 87.423005 
L 227.832412 87.218683 
L 228.107131 86.153307 
L 228.38185 85.288716 
L 228.491737 85.484671 
L 228.656568 86.381623 
L 229.041175 88.8176 
L 229.315894 89.028904 
L 229.700501 88.854335 
L 229.920276 88.73308 
L 230.194995 88.422309 
L 230.41477 87.786277 
L 230.744433 86.243909 
L 231.623533 80.972436 
L 231.788365 80.904836 
L 231.953196 81.249483 
L 232.282859 83.178997 
L 233.107016 88.555898 
L 233.381735 89.971136 
L 234.205892 95.566986 
L 234.48061 96.234958 
L 234.700386 96.559326 
L 234.865217 96.389456 
L 235.19488 95.323775 
L 235.524543 94.643463 
L 235.744318 94.750037 
L 235.909149 94.834989 
L 236.07398 94.834806 
L 236.238812 95.46217 
L 237.008025 101.404353 
L 237.337688 103.454049 
L 237.557463 103.845525 
L 237.66735 103.745164 
L 237.832182 103.08883 
L 238.271732 99.501065 
L 238.656339 96.919693 
L 238.766226 96.843179 
L 238.82117 96.904665 
L 239.040945 97.561474 
L 239.26072 98.849733 
L 239.920046 104.015701 
L 240.139821 104.672426 
L 240.249709 104.587399 
L 240.524428 103.847983 
L 240.744203 102.283262 
L 241.018922 98.007535 
L 241.458472 91.834246 
L 241.843079 89.262265 
L 242.392517 87.355416 
L 242.722179 86.804751 
L 243.051842 86.523533 
L 243.326561 86.652881 
L 243.491392 86.742537 
L 243.711168 86.462223 
L 243.875999 85.872198 
L 244.150718 83.522754 
L 244.7551 79.416681 
L 244.919931 79.287916 
L 245.139706 79.491904 
L 245.304538 79.570727 
L 245.908919 79.194585 
L 246.128695 79.395425 
L 246.293526 79.578921 
L 246.34847 79.53139 
L 246.513301 79.169289 
L 246.733076 77.93967 
L 247.282514 74.398597 
L 248.106671 70.290554 
L 248.711053 66.767429 
L 249.205547 64.826841 
L 249.315434 64.690254 
L 249.370378 64.728669 
L 249.590153 65.391018 
L 250.524198 69.137414 
L 250.853861 72.913993 
L 252.502174 90.257257 
L 252.72195 90.614831 
L 252.831837 90.443119 
L 253.546107 88.447154 
L 253.820825 88.514136 
L 254.040601 88.765308 
L 254.370263 89.529896 
L 254.699926 90.16671 
L 254.919701 90.065798 
L 255.139476 89.765806 
L 255.524083 88.2452 
L 256.018577 85.179843 
L 256.293296 83.843411 
L 256.513071 83.606307 
L 256.677903 83.683337 
L 256.842734 84.052348 
L 257.007565 84.8834 
L 257.996554 91.263184 
L 258.271273 91.482127 
L 258.491048 91.288185 
L 258.655879 91.154382 
L 259.09543 91.483012 
L 259.53498 91.727984 
L 260.029474 91.066032 
L 260.249249 90.415815 
L 260.523968 89.636238 
L 260.6888 89.607231 
L 260.853631 89.655956 
L 260.963519 89.496525 
L 261.12835 88.712056 
L 261.787675 83.40494 
L 262.227226 80.440822 
L 263.216214 75.540728 
L 263.655764 72.858693 
L 263.87554 72.581889 
L 263.985427 72.763426 
L 264.150258 73.577383 
L 264.370034 75.760504 
L 265.523853 90.049638 
L 265.963404 92.631121 
L 266.677673 95.149494 
L 267.117223 95.205219 
L 267.666661 95.830672 
L 268.051268 95.794032 
L 268.271043 95.344007 
L 269.424863 92.340409 
L 269.919357 91.584055 
L 270.194076 91.421289 
L 270.523738 90.659939 
L 271.018233 89.223419 
L 271.292952 89.227603 
L 271.512727 89.040676 
L 271.732502 88.90597 
L 272.007221 89.211334 
L 272.28194 89.169858 
L 272.446771 89.344099 
L 272.776434 90.174973 
L 273.16104 92.202273 
L 273.710478 94.400155 
L 274.31486 94.827999 
L 274.534635 94.865047 
L 274.809354 95.383903 
L 275.084073 95.704936 
L 275.193961 95.598297 
L 275.578567 94.584568 
L 275.853286 92.610263 
L 276.237893 87.478672 
L 276.622499 82.967003 
L 277.06205 80.257037 
L 277.336769 79.57384 
L 277.5016 79.59491 
L 277.666431 79.952481 
L 277.94115 81.521914 
L 279.369689 93.107362 
L 279.644408 93.94707 
L 279.754296 93.935882 
L 279.919127 93.264367 
L 280.193846 90.238983 
L 281.018003 80.541645 
L 281.567441 77.109441 
L 281.84216 75.153188 
L 282.336654 71.19985 
L 282.666317 69.621531 
L 282.831148 69.6318 
L 282.995979 70.000299 
L 283.655305 72.935145 
L 285.193731 81.349975 
L 285.358562 81.270153 
L 285.578338 81.126534 
L 285.853057 81.209164 
L 286.62227 82.194084 
L 286.787101 81.960232 
L 287.226651 81.002774 
L 287.336539 81.052164 
L 287.776089 82.227997 
L 288.984853 87.125546 
L 289.699122 90.616586 
L 290.028785 91.089222 
L 290.358448 91.151462 
L 290.578223 91.292905 
L 291.237548 92.30769 
L 291.512267 92.366555 
L 291.786986 92.432412 
L 291.951818 92.287418 
L 292.116649 91.679768 
L 292.611143 89.531827 
L 292.99575 89.036742 
L 293.215525 89.235663 
L 293.710019 90.118971 
L 294.039682 91.263725 
L 294.204513 91.306798 
L 294.479232 91.359593 
L 294.863839 91.369725 
L 295.083614 91.103795 
L 295.907771 89.582229 
L 296.402265 88.039538 
L 296.567096 88.14519 
L 297.116534 88.987585 
L 297.336309 88.492146 
L 297.720916 87.675908 
L 297.885747 87.737764 
L 298.105522 88.093479 
L 298.600016 88.918253 
L 298.819792 88.997534 
L 299.149454 89.001519 
L 299.314286 88.869973 
L 299.589005 88.292101 
L 300.577993 85.364691 
L 300.742824 85.488934 
L 301.017543 85.717769 
L 301.347206 85.687783 
L 301.621925 85.622893 
L 301.951588 85.49464 
L 302.720801 86.099281 
L 303.050464 86.695472 
L 303.43507 86.657916 
L 303.764733 86.728474 
L 304.039452 87.129767 
L 304.314171 87.791193 
L 304.863609 89.629103 
L 305.632822 92.619495 
L 305.797653 92.584436 
L 305.962485 92.353345 
L 306.237204 91.470012 
L 307.77563 85.101894 
L 308.105293 84.728215 
L 308.434955 84.714323 
L 308.764618 84.584345 
L 308.984393 84.506182 
L 309.259112 84.771275 
L 309.478887 85.166552 
L 310.028325 86.337278 
L 310.138213 86.287624 
L 310.303044 85.934191 
L 310.577763 84.573106 
L 310.907426 83.287821 
L 311.40192 81.997843 
L 311.896414 80.744891 
L 312.061246 80.699424 
L 312.226077 80.863041 
L 312.500796 81.617404 
L 312.830459 83.274909 
L 313.215065 85.173703 
L 313.654616 85.599472 
L 313.874391 85.569941 
L 314.094166 85.994217 
L 314.58866 87.252806 
L 315.138098 88.13025 
L 315.632592 88.978449 
L 315.687536 88.946004 
L 316.017199 88.638666 
L 316.346861 88.72023 
L 316.731468 88.668119 
L 317.445737 88.800173 
L 317.720456 89.01788 
L 318.434726 88.940385 
L 318.764388 89.510391 
L 319.148995 90.615115 
L 319.36877 90.996654 
L 319.643489 90.965353 
L 320.137983 90.985674 
L 320.577533 90.698698 
L 320.852252 90.726236 
L 321.181915 90.254038 
L 321.841241 89.081078 
L 322.99506 85.796346 
L 323.544498 84.97498 
L 323.599442 85.013033 
L 323.764273 85.348732 
L 324.038992 86.709825 
L 324.368655 88.314865 
L 324.478543 88.289917 
L 324.698318 87.968008 
L 325.137868 87.102775 
L 325.357643 87.034122 
L 325.632362 87.065211 
L 326.566407 87.922373 
L 326.89607 87.429574 
L 327.33562 86.36096 
L 327.830114 86.293412 
L 328.104833 85.583847 
L 328.544383 84.521581 
L 328.92899 84.113327 
L 329.093821 84.140697 
L 329.423484 84.37399 
L 329.643259 84.264534 
L 330.08281 83.827419 
L 330.302585 83.829649 
L 330.687191 83.560355 
L 330.852023 83.76821 
L 331.126742 84.409895 
L 331.511348 85.478493 
L 331.786067 85.625961 
L 332.280561 85.699183 
L 332.665168 86.209427 
L 332.884943 86.32671 
L 333.324493 86.298514 
L 333.764044 86.523584 
L 334.643144 86.026148 
L 335.247526 85.028895 
L 335.687076 85.021217 
L 335.851908 84.840723 
L 336.291458 84.203596 
L 336.840896 84.324555 
L 337.225503 84.359837 
L 337.500222 84.852542 
L 337.829884 85.322952 
L 338.214491 85.265723 
L 338.379322 85.442289 
L 338.599097 85.69223 
L 339.203479 85.429809 
L 339.752917 84.509734 
L 340.851793 80.799948 
L 341.346287 80.348888 
L 341.67595 80.311521 
L 341.895725 80.27269 
L 342.060556 80.557991 
L 342.664938 83.17939 
L 343.104488 84.963949 
L 343.544039 85.786378 
L 343.818758 85.949549 
L 343.983589 86.10285 
L 344.423139 87.141407 
L 344.86269 88.088487 
L 345.137409 88.911771 
L 345.357184 89.295779 
L 345.906622 89.712613 
L 346.45606 90.326255 
L 346.675835 90.19162 
L 347.225273 89.113263 
L 347.664823 88.378725 
L 348.104374 88.147975 
L 348.324149 88.133238 
L 348.598868 88.309975 
L 348.818643 88.350087 
L 349.368081 88.743787 
L 349.532912 88.72229 
L 349.807631 88.029172 
L 350.631788 85.596218 
L 350.796619 85.647937 
L 351.181226 86.179892 
L 351.620776 86.941634 
L 352.005383 86.96827 
L 352.170214 86.780042 
L 352.884483 85.540553 
L 353.104259 85.414479 
L 353.488865 85.667187 
L 353.763584 85.663459 
L 353.983359 86.036251 
L 354.752572 87.808533 
L 355.247067 88.739255 
L 355.631673 89.198467 
L 355.961336 89.636297 
L 357.279987 91.337388 
L 357.444818 91.129081 
L 357.994256 90.135176 
L 358.214031 89.986055 
L 358.378863 90.191722 
L 358.818413 90.955663 
L 359.367851 91.105555 
L 360.301895 92.007617 
L 360.576614 92.613052 
L 360.686502 92.61815 
L 361.455715 91.662824 
L 361.730434 91.319957 
L 361.895265 91.256191 
L 362.444703 90.467392 
L 362.939198 88.941102 
L 363.378748 87.696686 
L 363.818298 87.321013 
L 364.038073 87.400936 
L 364.807286 88.105922 
L 365.136949 87.922314 
L 365.411668 87.37872 
L 366.345713 85.420733 
L 367.059982 84.958508 
L 367.334701 85.026913 
L 367.774251 85.316761 
L 368.213802 85.538264 
L 368.433577 85.680563 
L 368.653352 85.543039 
L 369.587396 84.089204 
L 370.521441 82.936325 
L 370.960991 82.283242 
L 371.455485 81.359412 
L 371.620317 81.443044 
L 371.895036 81.679669 
L 372.224698 81.636319 
L 373.158743 81.804171 
L 373.488406 82.48851 
L 373.927956 83.642852 
L 374.367506 84.120158 
L 374.587282 84.266709 
L 374.862 84.27177 
L 375.026832 84.405072 
L 375.521326 85.056584 
L 375.741101 85.022373 
L 375.960876 84.934557 
L 376.180652 85.178896 
L 376.510314 85.553228 
L 376.949865 85.811885 
L 377.114696 85.723947 
L 378.04874 84.697084 
L 378.268516 84.45124 
L 378.708066 83.667629 
L 379.312448 83.361286 
L 379.697054 83.471779 
L 379.971773 83.602185 
L 380.246492 83.911782 
L 381.125593 85.289 
L 381.455256 85.314181 
L 381.675031 85.180337 
L 381.94975 84.983259 
L 382.114581 84.89248 
L 382.3893 84.727966 
L 382.609075 84.901903 
L 382.82885 84.409643 
L 383.378288 83.276108 
L 383.817839 82.991073 
L 384.037614 83.195844 
L 384.696939 83.948583 
L 384.916715 83.963519 
L 385.356265 84.442678 
L 385.630984 84.671347 
L 385.850759 84.467832 
L 386.235366 83.980908 
L 386.510085 83.967539 
L 386.839747 83.931443 
L 387.444129 84.207257 
L 388.268286 85.626261 
L 388.433117 85.782336 
L 388.817724 86.208678 
L 389.367162 86.568539 
L 389.861656 87.797937 
L 390.850644 91.047506 
L 391.180307 91.788987 
L 391.674801 92.687368 
L 392.608845 93.603004 
L 393.048396 93.580492 
L 393.707721 92.993212 
L 393.98244 92.93767 
L 394.367047 92.395515 
L 395.410979 90.965083 
L 396.070304 90.965444 
L 396.29008 90.836193 
L 397.608731 89.100149 
L 397.938393 88.310517 
L 398.432888 87.049103 
L 398.872438 86.844558 
L 399.147157 86.890083 
L 399.366932 86.498301 
L 399.806482 85.787562 
L 400.026257 85.651582 
L 400.685583 85.658363 
L 400.960302 86.142174 
L 401.344909 86.60379 
L 401.50974 86.788313 
L 401.894346 87.331173 
L 402.114122 87.246226 
L 402.66356 86.773899 
L 402.828391 86.774249 
L 403.158054 87.171276 
L 403.322885 87.064326 
L 404.037154 85.984702 
L 404.311873 85.93544 
L 404.476705 85.931699 
L 404.641536 86.237277 
L 405.081086 87.390436 
L 405.300862 87.240716 
L 405.685468 87.027821 
L 406.070075 87.366231 
L 406.399737 87.907234 
L 406.7294 88.277232 
L 407.223894 88.307401 
L 407.553557 88.410816 
L 407.773332 88.287824 
L 407.938164 88.243581 
L 408.707377 87.534493 
L 408.982096 87.500205 
L 409.311758 87.626585 
L 409.586477 87.45946 
L 410.245803 86.532467 
L 410.685353 85.672724 
L 411.179847 84.971251 
L 411.619398 84.63054 
L 411.94906 84.620093 
L 412.168836 84.350575 
L 412.553442 83.958181 
L 412.718274 84.10785 
L 412.938049 84.321284 
L 413.267711 84.295278 
L 413.487487 84.257701 
L 413.927037 83.774102 
L 414.806138 82.33266 
L 415.080857 82.324347 
L 415.300632 82.06369 
L 415.520407 81.909575 
L 415.740182 82.146993 
L 416.509395 83.568119 
L 416.784114 83.635791 
L 417.058833 83.745782 
L 417.388496 83.618427 
L 418.487372 83.626361 
L 418.926922 83.677361 
L 419.256585 84.195926 
L 419.586248 84.80761 
L 420.190629 85.263362 
L 420.410405 85.28266 
L 420.63018 85.641234 
L 420.959842 86.0012 
L 421.50928 86.589821 
L 421.783999 86.592768 
L 422.003775 86.81712 
L 422.22355 86.940285 
L 422.6631 86.942397 
L 422.937819 86.822333 
L 423.267482 86.414103 
L 423.926807 84.973083 
L 424.091639 85.076324 
L 424.476245 85.717289 
L 425.300402 87.89439 
L 425.739952 88.663638 
L 426.014671 88.933043 
L 426.673997 88.83553 
L 426.948716 88.591599 
L 427.223435 88.638848 
L 427.388266 88.398609 
L 428.102535 86.791525 
L 429.03658 85.620362 
L 429.915681 85.657136 
L 430.080512 85.604034 
L 430.245343 85.570148 
L 430.904669 84.986735 
L 431.344219 85.55238 
L 431.673882 85.906015 
L 432.278264 86.041213 
L 432.772758 85.750525 
L 433.432083 84.685641 
L 433.81669 84.252066 
L 434.036465 84.363644 
L 434.366128 84.962191 
L 435.135341 86.479843 
L 435.300172 86.602082 
L 435.519947 86.471682 
L 435.794666 86.256182 
L 436.124329 86.297331 
L 436.344104 86.09241 
L 436.56388 85.899119 
L 436.948486 86.035587 
L 437.333093 86.770435 
L 438.047362 88.156101 
L 438.651744 88.91197 
L 439.311069 88.970672 
L 439.640732 89.3233 
L 439.860507 89.833807 
L 440.245114 90.583346 
L 440.739608 90.37067 
L 441.838484 87.909063 
L 442.113203 88.039758 
L 442.552753 88.57068 
L 442.717584 88.663066 
L 443.102191 89.353692 
L 443.431854 89.915001 
L 443.651629 89.889223 
L 443.81646 89.724409 
L 444.256011 88.722972 
L 444.640617 88.003299 
L 445.025224 87.663836 
L 445.739493 86.283509 
L 445.959268 86.324572 
L 447.662526 87.425382 
L 447.882301 87.34512 
L 448.102076 87.01493 
L 448.706458 85.498879 
L 449.03612 85.2059 
L 449.200952 85.454452 
L 449.75039 86.625702 
L 450.299828 86.910095 
L 451.453647 86.219136 
L 451.838254 85.945337 
L 452.058029 85.851959 
L 452.387692 85.625838 
L 452.607467 85.556094 
L 452.93713 85.242488 
L 453.431624 85.581319 
L 454.036006 85.446895 
L 454.310725 85.282117 
L 454.585444 85.261497 
L 455.189825 85.338361 
L 455.464544 85.455967 
L 455.684319 85.309374 
L 455.904095 85.189478 
L 456.12387 85.258692 
L 457.167802 87.178803 
L 457.442521 87.631675 
L 457.772183 87.894705 
L 458.321621 88.598164 
L 458.541397 88.510956 
L 458.761172 88.068223 
L 459.860048 85.475636 
L 460.18971 84.604922 
L 460.464429 84.468848 
L 460.739148 84.41564 
L 461.068811 83.943633 
L 461.453418 83.472765 
L 461.673193 83.297468 
L 462.167687 83.792942 
L 462.717125 84.753227 
L 463.101731 84.543173 
L 463.321507 84.320144 
L 463.486338 84.249684 
L 463.761057 84.326893 
L 464.09072 84.869624 
L 464.475326 85.598358 
L 464.96982 85.911084 
L 465.299483 85.839084 
L 465.68409 85.273872 
L 466.233528 84.162852 
L 466.892853 83.595509 
L 467.387347 83.577423 
L 467.662066 83.633091 
L 468.046673 84.140454 
L 468.596111 85.214479 
L 468.760942 85.273993 
L 469.090605 85.543917 
L 469.31038 85.648384 
L 469.74993 86.073264 
L 470.024649 86.048473 
L 470.299368 86.05716 
L 470.848806 86.381933 
L 471.233413 86.311983 
L 471.563075 86.674452 
L 471.727907 86.498978 
L 472.05757 85.681022 
L 472.332289 85.284787 
L 472.661951 85.299021 
L 472.93667 85.572298 
L 473.321277 85.928613 
L 473.65094 85.991426 
L 473.925658 86.445155 
L 474.749815 87.978489 
L 475.68386 88.102698 
L 476.562961 88.657898 
L 476.837679 88.903512 
L 477.112398 88.902041 
L 477.71678 89.236395 
L 477.991499 89.135589 
L 478.211274 88.970106 
L 478.650825 89.23484 
L 478.980487 89.179367 
L 479.914532 88.261377 
L 480.134307 88.534775 
L 480.793633 89.38625 
L 481.013408 89.32584 
L 481.34307 89.228582 
L 481.947452 89.212657 
L 482.222171 89.238751 
L 482.441946 89.604464 
L 482.881497 90.30779 
L 483.211159 90.415766 
L 483.430935 90.175742 
L 484.52981 87.848697 
L 485.848461 86.853129 
L 486.233068 86.527597 
L 486.947337 85.971126 
L 487.771494 86.877287 
L 487.936326 86.815205 
L 488.540707 86.41808 
L 488.760482 86.44378 
L 489.200033 86.550775 
L 489.914302 86.419788 
L 490.408796 86.601736 
L 490.628571 86.199703 
L 491.178009 85.045261 
L 491.507672 84.597719 
L 491.672503 84.665015 
L 493.65048 86.377199 
L 493.980143 85.920183 
L 494.8043 84.498167 
L 495.133962 84.330541 
L 495.298794 84.434786 
L 496.562501 85.878652 
L 496.782276 85.858584 
L 497.002051 85.536073 
L 497.221827 85.339689 
L 497.331714 85.401923 
L 498.320702 86.876251 
L 498.595421 86.918017 
L 499.694297 86.79218 
L 499.969016 86.904992 
L 500.188791 86.588712 
L 500.573398 86.11858 
L 501.122836 85.677393 
L 501.287667 85.852622 
L 501.507442 86.400558 
L 501.892049 87.429946 
L 502.386543 87.877588 
L 502.661262 87.593076 
L 503.100812 87.268857 
L 503.595306 87.770226 
L 503.979913 88.526198 
L 504.144744 88.517546 
L 504.474407 88.550063 
L 504.694182 88.847832 
L 504.968901 89.162888 
L 505.133733 89.147037 
L 505.683171 88.161122 
L 506.782046 85.926871 
L 507.166653 85.879724 
L 507.441372 85.890633 
L 507.99081 86.219918 
L 508.320473 85.974919 
L 508.540248 85.89601 
L 508.869911 85.89314 
L 509.089686 85.586965 
L 509.419348 85.215579 
L 509.58418 85.058008 
L 509.968786 84.569781 
L 510.298449 84.553229 
L 510.463281 84.716739 
L 510.847887 85.211235 
L 511.122606 85.224247 
L 511.342381 85.213783 
L 511.507213 84.904177 
L 511.836875 84.185622 
L 512.166538 83.871379 
L 512.386313 83.989025 
L 512.825864 84.519773 
L 513.045639 84.518512 
L 513.650021 85.000589 
L 514.034627 86.027752 
L 514.748896 87.614953 
L 515.023615 87.908674 
L 515.24339 87.770958 
L 515.627997 87.26184 
L 515.792828 87.243268 
L 515.95766 86.888672 
L 516.232379 86.30951 
L 516.507098 86.054262 
L 516.616985 86.029641 
L 516.891704 86.188165 
L 517.166423 86.378882 
L 517.496086 86.571578 
L 517.770805 86.447293 
L 518.100468 86.205372 
L 518.594962 86.096819 
L 518.924625 86.318342 
L 519.364175 86.646361 
L 519.748781 87.483725 
L 520.078444 88.017679 
L 520.353163 87.952231 
L 520.682826 87.564338 
L 521.17732 87.10031 
L 521.342151 87.121735 
L 521.781702 87.747882 
L 522.056421 87.998571 
L 522.276196 88.045082 
L 522.77069 88.543228 
L 523.155297 88.563331 
L 523.430016 88.527136 
L 523.814622 88.051561 
L 524.144285 87.705911 
L 524.473948 87.503672 
L 525.023386 87.237209 
L 525.572824 87.301431 
L 525.902486 87.561243 
L 526.506868 87.232389 
L 527.331025 87.299693 
L 527.880463 86.709663 
L 528.649676 85.917899 
L 528.814507 85.903424 
L 529.034282 85.526344 
L 529.418889 84.908408 
L 529.58372 84.903977 
L 530.682596 84.879929 
L 530.902371 84.656024 
L 531.122147 84.530442 
L 531.341922 84.756591 
L 531.781472 85.272662 
L 532.056191 85.420128 
L 532.33091 85.03261 
L 532.825404 84.394417 
L 533.155067 84.206921 
L 533.429786 84.408545 
L 534.36383 85.356418 
L 534.748437 86.01198 
L 535.572594 86.095576 
L 536.946189 87.243487 
L 537.165964 87.114971 
L 537.440683 86.885457 
L 537.660458 87.044152 
L 537.825289 87.028136 
L 538.594502 86.230059 
L 538.814278 86.18483 
L 539.308772 85.916933 
L 539.473603 85.869584 
L 539.693378 85.447324 
L 540.077985 84.899562 
L 540.29776 84.855044 
L 540.73731 84.570495 
L 540.957085 84.546172 
L 541.616411 84.07507 
L 542.33068 84.683844 
L 543.099893 86.032364 
L 543.869106 88.107231 
L 544.253713 88.77527 
L 544.63832 89.05911 
L 544.858095 89.209245 
L 545.352589 89.182 
L 545.572364 89.425877 
L 545.792139 89.572408 
L 546.066858 89.347973 
L 546.286633 89.183956 
L 546.836071 89.223219 
L 547.055846 89.099179 
L 547.385509 88.847331 
L 547.605284 88.934185 
L 547.989891 89.319476 
L 548.429441 88.846268 
L 548.814048 89.01824 
L 549.088767 89.192953 
L 549.473373 89.216393 
L 549.693148 89.125027 
L 550.022811 88.877092 
L 550.407418 89.079963 
L 550.956856 89.567229 
L 551.176631 89.414157 
L 552.440338 87.560353 
L 552.934832 87.56009 
L 553.209551 87.353787 
L 553.649102 87.505445 
L 554.143596 87.039842 
L 555.242471 84.855604 
L 555.682022 84.634472 
L 556.286404 84.857015 
L 557.000673 84.709099 
L 557.440223 84.117779 
L 557.769886 83.877014 
L 558.374268 84.024758 
L 558.758874 83.964693 
L 559.088537 83.891411 
L 559.308312 83.79535 
L 559.583031 83.569583 
L 560.022581 84.300899 
L 560.242357 84.043487 
L 560.572019 83.886219 
L 560.956626 83.857566 
L 561.231345 83.984617 
L 561.725839 84.528776 
L 562.055502 84.820813 
L 562.385165 85.035144 
L 562.879659 85.613897 
L 563.209321 85.747286 
L 563.593928 85.682563 
L 564.033478 85.944426 
L 564.308197 86.019749 
L 564.967523 85.908026 
L 565.297186 85.867219 
L 566.396061 85.79478 
L 566.67078 85.55919 
L 566.835612 85.782826 
L 567.165274 86.147666 
L 567.934488 86.477057 
L 568.319094 86.293195 
L 568.483925 86.421354 
L 569.033363 87.313809 
L 569.41797 87.558545 
L 569.967408 87.520203 
L 570.406958 87.476458 
L 570.791565 87.261561 
L 571.341003 87.634811 
L 571.615722 87.677815 
L 572.055272 87.621047 
L 572.549766 87.126757 
L 572.879429 86.839557 
L 574.033249 86.935743 
L 574.307968 87.019322 
L 574.857405 86.902191 
L 575.296956 86.833542 
L 575.516731 86.948983 
L 576.285944 87.850945 
L 576.450775 87.765837 
L 576.890326 87.525051 
L 577.165045 87.47215 
L 577.879314 86.755494 
L 578.53864 86.186063 
L 579.033134 86.413362 
L 579.307853 86.157737 
L 579.912234 86.435709 
L 580.626504 88.112116 
L 581.01111 88.816299 
L 581.175942 88.847943 
L 581.395717 88.73466 
L 581.670436 88.519186 
L 582.000098 88.57889 
L 582.16493 88.369778 
L 582.769312 87.166357 
L 583.263806 86.526826 
L 583.7583 86.419673 
L 584.19785 86.217216 
L 584.362682 86.391439 
L 585.022007 87.259144 
L 585.241782 87.319513 
L 585.736276 87.218772 
L 586.010995 87.116045 
L 586.285714 86.984863 
L 586.835152 87.025349 
L 587.714253 87.188819 
L 588.208747 87.156353 
L 588.53841 86.661631 
L 589.307623 85.277901 
L 589.527398 85.154562 
L 589.747173 85.317279 
L 590.021892 85.50056 
L 590.186724 85.5202 
L 590.461443 85.886131 
L 591.175712 86.847341 
L 592.109756 87.20737 
L 592.274588 86.997361 
L 592.824026 85.926021 
L 592.988857 85.876561 
L 593.208632 86.059171 
L 593.648182 86.525401 
L 594.142677 86.485938 
L 595.076721 85.195367 
L 595.736047 85.365115 
L 596.670091 86.446648 
L 596.94481 86.49177 
L 597.164585 86.335945 
L 597.439304 85.779602 
L 597.768967 85.230217 
L 598.09863 85.0476 
L 598.373349 84.951233 
L 598.703011 85.088239 
L 599.032674 85.469676 
L 599.966719 87.022102 
L 600.735932 87.055726 
L 601.175482 87.471836 
L 602.109527 86.482054 
L 602.329302 86.714882 
L 603.043571 87.749625 
L 603.263346 87.621439 
L 603.593009 87.18527 
L 603.867728 86.730638 
L 604.142447 86.757804 
L 604.362222 86.659856 
L 604.91166 86.282781 
L 605.131435 86.186751 
L 605.790761 86.181168 
L 606.559974 86.266819 
L 607.329187 87.178472 
L 607.603906 86.93223 
L 608.153344 86.470256 
L 608.483006 86.257132 
L 608.977501 85.847935 
L 609.25222 85.842113 
L 609.966489 85.532905 
L 610.955477 86.279074 
L 611.230196 86.987784 
L 611.779634 88.325312 
L 612.054353 88.501167 
L 612.274128 88.32653 
L 612.658735 87.851066 
L 612.823566 87.756148 
L 613.812554 86.519011 
L 614.03233 86.407295 
L 614.801543 85.590896 
L 615.076262 85.764686 
L 615.515812 86.05645 
L 615.900418 86.528975 
L 617.383901 86.511642 
L 617.713564 86.458077 
L 618.263002 86.197089 
L 618.537721 86.196113 
L 618.867383 86.161069 
L 619.471765 85.784506 
L 619.636596 85.87642 
L 619.911315 86.288907 
L 620.186034 86.582437 
L 620.405809 86.586298 
L 621.010191 86.210045 
L 621.394798 86.181091 
L 621.669517 86.324293 
L 622.109067 86.491471 
L 622.933224 86.386547 
L 623.427718 85.699854 
L 623.867268 85.530461 
L 624.141987 85.847756 
L 625.076032 86.499849 
L 625.405695 86.488398 
L 625.735357 86.1327 
L 625.790301 86.204794 
L 626.174908 86.696601 
L 627.108952 86.22256 
L 627.603446 86.495002 
L 628.537491 86.491371 
L 628.922097 86.950616 
L 629.361648 87.315413 
L 629.746254 87.164162 
L 630.460524 87.160472 
L 630.735242 86.86317 
L 632.87805 85.176453 
L 633.097826 85.401657 
L 633.427488 85.685579 
L 633.812095 86.217945 
L 634.141758 86.873645 
L 634.965914 87.013962 
L 635.954903 86.151365 
L 636.394453 86.049893 
L 636.834003 85.263414 
L 637.053779 85.4897 
L 637.493329 85.965861 
L 638.152654 86.860955 
L 638.592205 87.151218 
L 639.471305 87.233754 
L 640.075687 87.485986 
L 640.460294 87.516825 
L 640.789957 87.596672 
L 641.394338 87.181714 
L 641.669057 87.181117 
L 641.888832 87.37829 
L 642.767933 88.46549 
L 643.042652 88.314901 
L 643.317371 88.160665 
L 643.482202 88.021856 
L 643.976696 87.416396 
L 644.636022 87.166061 
L 645.130516 87.28104 
L 646.009617 86.753461 
L 646.613999 87.294019 
L 647.053549 87.158161 
L 647.328268 87.147981 
L 647.657931 86.782625 
L 647.712874 86.85144 
L 648.152425 87.479742 
L 648.646919 87.080825 
L 649.141413 86.619711 
L 649.52602 86.250776 
L 649.690851 86.22222 
L 650.460064 86.283478 
L 650.734783 86.468834 
L 651.284221 86.363142 
L 651.723771 85.835366 
L 652.108378 85.843002 
L 653.317141 85.832792 
L 654.251186 85.766888 
L 654.635792 85.47059 
L 654.965455 85.718968 
L 655.514893 86.282053 
L 655.789612 86.451101 
L 657.053319 85.191294 
L 657.273094 85.08009 
L 657.547813 84.80621 
L 658.37197 84.902034 
L 658.591745 84.781691 
L 658.866464 85.055453 
L 659.086239 85.174148 
L 659.580734 85.52828 
L 660.020284 85.792246 
L 660.459834 85.819482 
L 662.877361 87.480885 
L 663.646574 87.504747 
L 663.921293 87.440633 
L 664.360844 87.166504 
L 664.580619 87.052414 
L 664.910281 86.816749 
L 665.404776 86.95628 
L 665.679495 87.137077 
L 666.009157 87.151302 
L 666.558595 87.4554 
L 666.723427 87.609706 
L 667.108033 88.1865 
L 667.382752 87.922059 
L 668.206909 86.828357 
L 668.591516 86.828785 
L 669.470616 86.6068 
L 669.690391 86.38632 
L 669.855223 86.400337 
L 670.404661 86.898924 
L 670.67938 86.796177 
L 671.228818 86.821667 
L 671.888143 86.895717 
L 672.162862 87.00766 
L 672.492525 86.800617 
L 672.987019 87.034716 
L 673.261738 87.130333 
L 673.536457 86.751572 
L 673.811176 86.602442 
L 674.030951 86.691895 
L 674.195782 86.826393 
L 674.415558 86.827774 
L 675.184771 87.614013 
L 675.404546 87.834107 
L 675.679265 87.648864 
L 675.953984 87.452415 
L 676.393534 87.480636 
L 676.723197 87.321274 
L 676.888028 87.314699 
L 677.107803 87.491686 
L 677.602298 87.453096 
L 677.986904 87.814443 
L 678.041848 87.750252 
L 678.811061 86.805249 
L 679.030836 86.795562 
L 679.635218 86.476021 
L 680.294543 86.409264 
L 680.789037 85.769959 
L 681.1187 85.89899 
L 681.503307 86.451858 
L 681.723082 86.442368 
L 682.327464 86.74208 
L 682.821958 86.932478 
L 683.42634 87.791099 
L 683.86589 87.794929 
L 685.074653 87.786236 
L 685.788923 87.180954 
L 686.008698 87.091858 
L 687.05263 86.151384 
L 687.876787 86.220527 
L 688.261393 86.533021 
L 688.975663 87.116506 
L 689.030606 87.038576 
L 689.525101 86.372343 
L 690.074538 85.809249 
L 690.623976 85.777482 
L 691.118471 85.496141 
L 691.283302 85.41797 
L 691.667908 85.059454 
L 691.83274 85.256135 
L 692.162403 85.84849 
L 692.492065 85.807474 
L 693.041503 86.341909 
L 693.920604 86.666302 
L 694.524986 86.480121 
L 695.129367 86.527631 
L 695.404086 86.612473 
L 695.678805 86.439485 
L 696.173299 86.605536 
L 696.722737 86.774731 
L 697.327119 86.684985 
L 698.041388 86.452892 
L 698.535882 86.438367 
L 698.975433 86.131514 
L 699.360039 86.091711 
L 699.579815 86.125278 
L 699.964421 86.42515 
L 700.513859 85.80292 
L 702.27206 86.113498 
L 703.151161 86.235886 
L 703.480824 86.52744 
L 703.86543 86.752754 
L 704.085206 86.833264 
L 704.304981 86.942286 
L 704.964306 86.457154 
L 706.17307 86.574559 
L 706.392845 86.669051 
L 707.546664 86.348675 
L 707.876327 86.071985 
L 708.535653 86.057025 
L 708.975203 85.768166 
L 709.579585 85.733705 
L 709.79936 85.812681 
L 710.183967 86.104762 
L 710.513629 86.096369 
L 710.678461 86.265852 
L 711.063067 87.071722 
L 711.282842 87.243494 
L 711.502618 87.134344 
L 711.722393 87.163202 
L 712.106999 87.147087 
L 712.436662 87.128884 
L 712.711381 87.44252 
L 713.205875 87.960149 
L 713.700369 87.628774 
L 714.030032 87.158372 
L 714.57947 87.080958 
L 715.293739 86.471968 
L 716.008009 86.484149 
L 716.227784 86.359607 
L 716.667334 85.955257 
L 716.777222 86.029437 
L 716.942053 86.181219 
L 717.216772 86.164285 
L 717.656322 86.450215 
L 718.040929 86.330526 
L 718.370592 86.470831 
L 718.645311 86.47006 
L 719.469467 86.924308 
L 720.073849 86.854512 
L 720.348568 86.810157 
L 720.568343 86.755751 
L 720.95295 86.487595 
L 721.117781 86.702389 
L 721.3925 86.976274 
L 722.216657 87.483591 
L 722.98587 86.740336 
L 723.590252 86.546713 
L 724.359465 86.968738 
L 724.634184 87.127251 
L 725.073734 86.689516 
L 726.062723 87.099389 
L 726.722048 86.739522 
L 727.271486 86.412647 
L 727.546205 86.374641 
L 727.76598 86.338825 
L 728.480249 85.822405 
L 729.029687 85.859794 
L 729.524182 86.215664 
L 730.183507 86.530085 
L 730.51317 86.771146 
L 730.732945 86.745407 
L 731.39227 86.386508 
L 731.996652 86.288013 
L 732.271371 86.332677 
L 732.655978 86.115885 
L 733.095528 86.233191 
L 733.370247 86.393435 
L 734.194404 86.212133 
L 734.524067 86.300394 
L 734.963617 86.670012 
L 735.348224 86.65781 
L 735.952605 86.453276 
L 736.227324 86.229526 
L 736.776762 86.5544 
L 737.161369 86.349055 
L 738.150357 86.454187 
L 738.425076 86.503424 
L 738.974514 86.415715 
L 740.128333 86.835321 
L 741.66676 86.785417 
L 742.216198 86.521335 
L 743.315073 86.23041 
L 743.589792 86.327515 
L 743.809568 86.453789 
L 744.304062 86.802535 
L 744.798556 86.750797 
L 745.402938 86.889643 
L 746.117207 86.845795 
L 746.501813 86.713603 
L 747.380914 86.340017 
L 747.765521 86.338438 
L 748.369902 86.33467 
L 756.00709 86.237387 
L 757.051022 86.258708 
L 757.765291 86.233765 
L 758.644392 86.301487 
L 760.07293 86.4071 
L 765.072815 86.575089 
L 768.589218 86.635256 
L 777.6 86.726824 
L 777.6 86.726824 
" clip-path="url(#p7998b8d29d)" style="fill: none; stroke: #0000ff; stroke-width: 1.5; stroke-linecap: square"/>
   </g>
   <g id="patch_3">
    <path d="M 108 160.2 
L 108 21.6 
" style="fill: none; stroke: #000000; stroke-width: 0.8; stroke-linejoin: miter; stroke-linecap: square"/>
   </g>
   <g id="patch_4">
    <path d="M 777.6 160.2 
L 777.6 21.6 
" style="fill: none; stroke: #000000; stroke-width: 0.8; stroke-linejoin: miter; stroke-linecap: square"/>
   </g>
   <g id="patch_5">
    <path d="M 108 160.2 
L 777.6 160.2 
" style="fill: none; stroke: #000000; stroke-width: 0.8; stroke-linejoin: miter; stroke-linecap: square"/>
   </g>
   <g id="patch_6">
    <path d="M 108 21.6 
L 777.6 21.6 
" style="fill: none; stroke: #000000; stroke-width: 0.8; stroke-linejoin: miter; stroke-linecap: square"/>
   </g>
   <g id="text_14">
    <!-- aROT Greece -->
    <g transform="translate(403.304062 15.6) scale(0.12 -0.12)">
     <defs>
      <path id="DejaVuSans-61" d="M 2194 1759 
Q 1497 1759 1228 1600 
Q 959 1441 959 1056 
Q 959 750 1161 570 
Q 1363 391 1709 391 
Q 2188 391 2477 730 
Q 2766 1069 2766 1631 
L 2766 1759 
L 2194 1759 
z
M 3341 1997 
L 3341 0 
L 2766 0 
L 2766 531 
Q 2569 213 2275 61 
Q 1981 -91 1556 -91 
Q 1019 -91 701 211 
Q 384 513 384 1019 
Q 384 1609 779 1909 
Q 1175 2209 1959 2209 
L 2766 2209 
L 2766 2266 
Q 2766 2663 2505 2880 
Q 2244 3097 1772 3097 
Q 1472 3097 1187 3025 
Q 903 2953 641 2809 
L 641 3341 
Q 956 3463 1253 3523 
Q 1550 3584 1831 3584 
Q 2591 3584 2966 3190 
Q 3341 2797 3341 1997 
z
" transform="scale(0.015625)"/>
      <path id="DejaVuSans-52" d="M 2841 2188 
Q 3044 2119 3236 1894 
Q 3428 1669 3622 1275 
L 4263 0 
L 3584 0 
L 2988 1197 
Q 2756 1666 2539 1819 
Q 2322 1972 1947 1972 
L 1259 1972 
L 1259 0 
L 628 0 
L 628 4666 
L 2053 4666 
Q 2853 4666 3247 4331 
Q 3641 3997 3641 3322 
Q 3641 2881 3436 2590 
Q 3231 2300 2841 2188 
z
M 1259 4147 
L 1259 2491 
L 2053 2491 
Q 2509 2491 2742 2702 
Q 2975 2913 2975 3322 
Q 2975 3731 2742 3939 
Q 2509 4147 2053 4147 
L 1259 4147 
z
" transform="scale(0.015625)"/>
      <path id="DejaVuSans-4f" d="M 2522 4238 
Q 1834 4238 1429 3725 
Q 1025 3213 1025 2328 
Q 1025 1447 1429 934 
Q 1834 422 2522 422 
Q 3209 422 3611 934 
Q 4013 1447 4013 2328 
Q 4013 3213 3611 3725 
Q 3209 4238 2522 4238 
z
M 2522 4750 
Q 3503 4750 4090 4092 
Q 4678 3434 4678 2328 
Q 4678 1225 4090 567 
Q 3503 -91 2522 -91 
Q 1538 -91 948 565 
Q 359 1222 359 2328 
Q 359 3434 948 4092 
Q 1538 4750 2522 4750 
z
" transform="scale(0.015625)"/>
      <path id="DejaVuSans-54" d="M -19 4666 
L 3928 4666 
L 3928 4134 
L 2272 4134 
L 2272 0 
L 1638 0 
L 1638 4134 
L -19 4134 
L -19 4666 
z
" transform="scale(0.015625)"/>
      <path id="DejaVuSans-47" d="M 3809 666 
L 3809 1919 
L 2778 1919 
L 2778 2438 
L 4434 2438 
L 4434 434 
Q 4069 175 3628 42 
Q 3188 -91 2688 -91 
Q 1594 -91 976 548 
Q 359 1188 359 2328 
Q 359 3472 976 4111 
Q 1594 4750 2688 4750 
Q 3144 4750 3555 4637 
Q 3966 4525 4313 4306 
L 4313 3634 
Q 3963 3931 3569 4081 
Q 3175 4231 2741 4231 
Q 1884 4231 1454 3753 
Q 1025 3275 1025 2328 
Q 1025 1384 1454 906 
Q 1884 428 2741 428 
Q 3075 428 3337 486 
Q 3600 544 3809 666 
z
" transform="scale(0.015625)"/>
      <path id="DejaVuSans-72" d="M 2631 2963 
Q 2534 3019 2420 3045 
Q 2306 3072 2169 3072 
Q 1681 3072 1420 2755 
Q 1159 2438 1159 1844 
L 1159 0 
L 581 0 
L 581 3500 
L 1159 3500 
L 1159 2956 
Q 1341 3275 1631 3429 
Q 1922 3584 2338 3584 
Q 2397 3584 2469 3576 
Q 2541 3569 2628 3553 
L 2631 2963 
z
" transform="scale(0.015625)"/>
     </defs>
     <use xlink:href="#DejaVuSans-61"/>
     <use xlink:href="#DejaVuSans-52" x="61.279297"/>
     <use xlink:href="#DejaVuSans-4f" x="130.761719"/>
     <use xlink:href="#DejaVuSans-54" x="209.472656"/>
     <use xlink:href="#DejaVuSans-20" x="270.556641"/>
     <use xlink:href="#DejaVuSans-47" x="302.34375"/>
     <use xlink:href="#DejaVuSans-72" x="379.833984"/>
     <use xlink:href="#DejaVuSans-65" x="418.697266"/>
     <use xlink:href="#DejaVuSans-65" x="480.220703"/>
     <use xlink:href="#DejaVuSans-63" x="541.744141"/>
     <use xlink:href="#DejaVuSans-65" x="596.724609"/>
    </g>
   </g>
   <g id="legend_1">
    <g id="patch_7">
     <path d="M 719.5125 58.95625 
L 770.6 58.95625 
Q 772.6 58.95625 772.6 56.95625 
L 772.6 28.6 
Q 772.6 26.6 770.6 26.6 
L 719.5125 26.6 
Q 717.5125 26.6 717.5125 28.6 
L 717.5125 56.95625 
Q 717.5125 58.95625 719.5125 58.95625 
z
" style="fill: #ffffff; opacity: 0.8; stroke: #cccccc; stroke-linejoin: miter"/>
    </g>
    <g id="line2d_25">
     <path d="M 721.5125 34.698437 
L 731.5125 34.698437 
L 741.5125 34.698437 
" style="fill: none; stroke: #008000; stroke-width: 1.5; stroke-linecap: square"/>
    </g>
    <g id="text_15">
     <!-- 90 -->
     <g transform="translate(749.5125 38.198437) scale(0.1 -0.1)">
      <defs>
       <path id="DejaVuSans-39" d="M 703 97 
L 703 672 
Q 941 559 1184 500 
Q 1428 441 1663 441 
Q 2288 441 2617 861 
Q 2947 1281 2994 2138 
Q 2813 1869 2534 1725 
Q 2256 1581 1919 1581 
Q 1219 1581 811 2004 
Q 403 2428 403 3163 
Q 403 3881 828 4315 
Q 1253 4750 1959 4750 
Q 2769 4750 3195 4129 
Q 3622 3509 3622 2328 
Q 3622 1225 3098 567 
Q 2575 -91 1691 -91 
Q 1453 -91 1209 -44 
Q 966 3 703 97 
z
M 1959 2075 
Q 2384 2075 2632 2365 
Q 2881 2656 2881 3163 
Q 2881 3666 2632 3958 
Q 2384 4250 1959 4250 
Q 1534 4250 1286 3958 
Q 1038 3666 1038 3163 
Q 1038 2656 1286 2365 
Q 1534 2075 1959 2075 
z
" transform="scale(0.015625)"/>
      </defs>
      <use xlink:href="#DejaVuSans-39"/>
      <use xlink:href="#DejaVuSans-30" x="63.623047"/>
     </g>
    </g>
    <g id="line2d_26">
     <path d="M 721.5125 49.376562 
L 731.5125 49.376562 
L 741.5125 49.376562 
" style="fill: none; stroke: #0000ff; stroke-width: 1.5; stroke-linecap: square"/>
    </g>
    <g id="text_16">
     <!-- 180 -->
     <g transform="translate(749.5125 52.876562) scale(0.1 -0.1)">
      <defs>
       <path id="DejaVuSans-38" d="M 2034 2216 
Q 1584 2216 1326 1975 
Q 1069 1734 1069 1313 
Q 1069 891 1326 650 
Q 1584 409 2034 409 
Q 2484 409 2743 651 
Q 3003 894 3003 1313 
Q 3003 1734 2745 1975 
Q 2488 2216 2034 2216 
z
M 1403 2484 
Q 997 2584 770 2862 
Q 544 3141 544 3541 
Q 544 4100 942 4425 
Q 1341 4750 2034 4750 
Q 2731 4750 3128 4425 
Q 3525 4100 3525 3541 
Q 3525 3141 3298 2862 
Q 3072 2584 2669 2484 
Q 3125 2378 3379 2068 
Q 3634 1759 3634 1313 
Q 3634 634 3220 271 
Q 2806 -91 2034 -91 
Q 1263 -91 848 271 
Q 434 634 434 1313 
Q 434 1759 690 2068 
Q 947 2378 1403 2484 
z
M 1172 3481 
Q 1172 3119 1398 2916 
Q 1625 2713 2034 2713 
Q 2441 2713 2670 2916 
Q 2900 3119 2900 3481 
Q 2900 3844 2670 4047 
Q 2441 4250 2034 4250 
Q 1625 4250 1398 4047 
Q 1172 3844 1172 3481 
z
" transform="scale(0.015625)"/>
      </defs>
      <use xlink:href="#DejaVuSans-31"/>
      <use xlink:href="#DejaVuSans-38" x="63.623047"/>
      <use xlink:href="#DejaVuSans-30" x="127.246094"/>
     </g>
    </g>
   </g>
  </g>
 </g>
 <defs>
  <clipPath id="p7998b8d29d">
   <rect x="108" y="21.6" width="669.6" height="138.6"/>
  </clipPath>
 </defs>
</svg>
