<?xml version="1.0" encoding="utf-8" standalone="no"?>
<!DOCTYPE svg PUBLIC "-//W3C//DTD SVG 1.1//EN"
  "http://www.w3.org/Graphics/SVG/1.1/DTD/svg11.dtd">
<svg xmlns:xlink="http://www.w3.org/1999/xlink" width="864pt" height="252pt" viewBox="0 0 864 252" xmlns="http://www.w3.org/2000/svg" version="1.1">
 <metadata>
  <rdf:RDF xmlns:dc="http://purl.org/dc/elements/1.1/" xmlns:cc="http://creativecommons.org/ns#" xmlns:rdf="http://www.w3.org/1999/02/22-rdf-syntax-ns#">
   <cc:Work>
    <dc:type rdf:resource="http://purl.org/dc/dcmitype/StillImage"/>
    <dc:date>2023-06-21T18:59:37.976364</dc:date>
    <dc:format>image/svg+xml</dc:format>
    <dc:creator>
     <cc:Agent>
      <dc:title>Matplotlib v3.7.1, https://matplotlib.org/</dc:title>
     </cc:Agent>
    </dc:creator>
   </cc:Work>
  </rdf:RDF>
 </metadata>
 <defs>
  <style type="text/css">*{stroke-linejoin: round; stroke-linecap: butt}</style>
 </defs>
 <g id="figure_1">
  <g id="patch_1">
   <path d="M 0 252 
L 864 252 
L 864 0 
L 0 0 
z
" style="fill: #ffffff"/>
  </g>
  <g id="axes_1">
   <g id="patch_2">
    <path d="M 61.03225 97.88 
L 853.2 97.88 
L 853.2 26.88 
L 61.03225 26.88 
z
" style="fill: #ffffff"/>
   </g>
   <g id="matplotlib.axis_1">
    <g id="xtick_1">
     <g id="line2d_1">
      <path d="M 61.03225 97.88 
L 61.03225 26.88 
" clip-path="url(#p53b0bea532)" style="fill: none; stroke: #b0b0b0; stroke-width: 0.8; stroke-linecap: square"/>
     </g>
     <g id="line2d_2">
      <defs>
       <path id="m723191ed24" d="M 0 0 
L 0 3.5 
" style="stroke: #000000; stroke-width: 0.8"/>
      </defs>
      <g>
       <use xlink:href="#m723191ed24" x="61.03225" y="97.88" style="stroke: #000000; stroke-width: 0.8"/>
      </g>
     </g>
     <g id="text_1">
      <!-- 0 -->
      <g transform="translate(57.851 112.478437) scale(0.1 -0.1)">
       <defs>
        <path id="DejaVuSans-30" d="M 2034 4250 
Q 1547 4250 1301 3770 
Q 1056 3291 1056 2328 
Q 1056 1369 1301 889 
Q 1547 409 2034 409 
Q 2525 409 2770 889 
Q 3016 1369 3016 2328 
Q 3016 3291 2770 3770 
Q 2525 4250 2034 4250 
z
M 2034 4750 
Q 2819 4750 3233 4129 
Q 3647 3509 3647 2328 
Q 3647 1150 3233 529 
Q 2819 -91 2034 -91 
Q 1250 -91 836 529 
Q 422 1150 422 2328 
Q 422 3509 836 4129 
Q 1250 4750 2034 4750 
z
" transform="scale(0.015625)"/>
       </defs>
       <use xlink:href="#DejaVuSans-30"/>
      </g>
     </g>
    </g>
    <g id="xtick_2">
     <g id="line2d_3">
      <path d="M 189.991998 97.88 
L 189.991998 26.88 
" clip-path="url(#p53b0bea532)" style="fill: none; stroke: #b0b0b0; stroke-width: 0.8; stroke-linecap: square"/>
     </g>
     <g id="line2d_4">
      <g>
       <use xlink:href="#m723191ed24" x="189.991998" y="97.88" style="stroke: #000000; stroke-width: 0.8"/>
      </g>
     </g>
     <g id="text_2">
      <!-- 5 -->
      <g transform="translate(186.810748 112.478437) scale(0.1 -0.1)">
       <defs>
        <path id="DejaVuSans-35" d="M 691 4666 
L 3169 4666 
L 3169 4134 
L 1269 4134 
L 1269 2991 
Q 1406 3038 1543 3061 
Q 1681 3084 1819 3084 
Q 2600 3084 3056 2656 
Q 3513 2228 3513 1497 
Q 3513 744 3044 326 
Q 2575 -91 1722 -91 
Q 1428 -91 1123 -41 
Q 819 9 494 109 
L 494 744 
Q 775 591 1075 516 
Q 1375 441 1709 441 
Q 2250 441 2565 725 
Q 2881 1009 2881 1497 
Q 2881 1984 2565 2268 
Q 2250 2553 1709 2553 
Q 1456 2553 1204 2497 
Q 953 2441 691 2322 
L 691 4666 
z
" transform="scale(0.015625)"/>
       </defs>
       <use xlink:href="#DejaVuSans-35"/>
      </g>
     </g>
    </g>
    <g id="xtick_3">
     <g id="line2d_5">
      <path d="M 318.951746 97.88 
L 318.951746 26.88 
" clip-path="url(#p53b0bea532)" style="fill: none; stroke: #b0b0b0; stroke-width: 0.8; stroke-linecap: square"/>
     </g>
     <g id="line2d_6">
      <g>
       <use xlink:href="#m723191ed24" x="318.951746" y="97.88" style="stroke: #000000; stroke-width: 0.8"/>
      </g>
     </g>
     <g id="text_3">
      <!-- 10 -->
      <g transform="translate(312.589246 112.478437) scale(0.1 -0.1)">
       <defs>
        <path id="DejaVuSans-31" d="M 794 531 
L 1825 531 
L 1825 4091 
L 703 3866 
L 703 4441 
L 1819 4666 
L 2450 4666 
L 2450 531 
L 3481 531 
L 3481 0 
L 794 0 
L 794 531 
z
" transform="scale(0.015625)"/>
       </defs>
       <use xlink:href="#DejaVuSans-31"/>
       <use xlink:href="#DejaVuSans-30" x="63.623047"/>
      </g>
     </g>
    </g>
    <g id="xtick_4">
     <g id="line2d_7">
      <path d="M 447.911494 97.88 
L 447.911494 26.88 
" clip-path="url(#p53b0bea532)" style="fill: none; stroke: #b0b0b0; stroke-width: 0.8; stroke-linecap: square"/>
     </g>
     <g id="line2d_8">
      <g>
       <use xlink:href="#m723191ed24" x="447.911494" y="97.88" style="stroke: #000000; stroke-width: 0.8"/>
      </g>
     </g>
     <g id="text_4">
      <!-- 15 -->
      <g transform="translate(441.548994 112.478437) scale(0.1 -0.1)">
       <use xlink:href="#DejaVuSans-31"/>
       <use xlink:href="#DejaVuSans-35" x="63.623047"/>
      </g>
     </g>
    </g>
    <g id="xtick_5">
     <g id="line2d_9">
      <path d="M 576.871242 97.88 
L 576.871242 26.88 
" clip-path="url(#p53b0bea532)" style="fill: none; stroke: #b0b0b0; stroke-width: 0.8; stroke-linecap: square"/>
     </g>
     <g id="line2d_10">
      <g>
       <use xlink:href="#m723191ed24" x="576.871242" y="97.88" style="stroke: #000000; stroke-width: 0.8"/>
      </g>
     </g>
     <g id="text_5">
      <!-- 20 -->
      <g transform="translate(570.508742 112.478437) scale(0.1 -0.1)">
       <defs>
        <path id="DejaVuSans-32" d="M 1228 531 
L 3431 531 
L 3431 0 
L 469 0 
L 469 531 
Q 828 903 1448 1529 
Q 2069 2156 2228 2338 
Q 2531 2678 2651 2914 
Q 2772 3150 2772 3378 
Q 2772 3750 2511 3984 
Q 2250 4219 1831 4219 
Q 1534 4219 1204 4116 
Q 875 4013 500 3803 
L 500 4441 
Q 881 4594 1212 4672 
Q 1544 4750 1819 4750 
Q 2544 4750 2975 4387 
Q 3406 4025 3406 3419 
Q 3406 3131 3298 2873 
Q 3191 2616 2906 2266 
Q 2828 2175 2409 1742 
Q 1991 1309 1228 531 
z
" transform="scale(0.015625)"/>
       </defs>
       <use xlink:href="#DejaVuSans-32"/>
       <use xlink:href="#DejaVuSans-30" x="63.623047"/>
      </g>
     </g>
    </g>
    <g id="xtick_6">
     <g id="line2d_11">
      <path d="M 705.83099 97.88 
L 705.83099 26.88 
" clip-path="url(#p53b0bea532)" style="fill: none; stroke: #b0b0b0; stroke-width: 0.8; stroke-linecap: square"/>
     </g>
     <g id="line2d_12">
      <g>
       <use xlink:href="#m723191ed24" x="705.83099" y="97.88" style="stroke: #000000; stroke-width: 0.8"/>
      </g>
     </g>
     <g id="text_6">
      <!-- 25 -->
      <g transform="translate(699.46849 112.478437) scale(0.1 -0.1)">
       <use xlink:href="#DejaVuSans-32"/>
       <use xlink:href="#DejaVuSans-35" x="63.623047"/>
      </g>
     </g>
    </g>
    <g id="xtick_7">
     <g id="line2d_13">
      <path d="M 834.790738 97.88 
L 834.790738 26.88 
" clip-path="url(#p53b0bea532)" style="fill: none; stroke: #b0b0b0; stroke-width: 0.8; stroke-linecap: square"/>
     </g>
     <g id="line2d_14">
      <g>
       <use xlink:href="#m723191ed24" x="834.790738" y="97.88" style="stroke: #000000; stroke-width: 0.8"/>
      </g>
     </g>
     <g id="text_7">
      <!-- 30 -->
      <g transform="translate(828.428238 112.478437) scale(0.1 -0.1)">
       <defs>
        <path id="DejaVuSans-33" d="M 2597 2516 
Q 3050 2419 3304 2112 
Q 3559 1806 3559 1356 
Q 3559 666 3084 287 
Q 2609 -91 1734 -91 
Q 1441 -91 1130 -33 
Q 819 25 488 141 
L 488 750 
Q 750 597 1062 519 
Q 1375 441 1716 441 
Q 2309 441 2620 675 
Q 2931 909 2931 1356 
Q 2931 1769 2642 2001 
Q 2353 2234 1838 2234 
L 1294 2234 
L 1294 2753 
L 1863 2753 
Q 2328 2753 2575 2939 
Q 2822 3125 2822 3475 
Q 2822 3834 2567 4026 
Q 2313 4219 1838 4219 
Q 1578 4219 1281 4162 
Q 984 4106 628 3988 
L 628 4550 
Q 988 4650 1302 4700 
Q 1616 4750 1894 4750 
Q 2613 4750 3031 4423 
Q 3450 4097 3450 3541 
Q 3450 3153 3228 2886 
Q 3006 2619 2597 2516 
z
" transform="scale(0.015625)"/>
       </defs>
       <use xlink:href="#DejaVuSans-33"/>
       <use xlink:href="#DejaVuSans-30" x="63.623047"/>
      </g>
     </g>
    </g>
    <g id="text_8">
     <!-- time (s) -->
     <g transform="translate(437.724719 126.156562) scale(0.1 -0.1)">
      <defs>
       <path id="DejaVuSans-74" d="M 1172 4494 
L 1172 3500 
L 2356 3500 
L 2356 3053 
L 1172 3053 
L 1172 1153 
Q 1172 725 1289 603 
Q 1406 481 1766 481 
L 2356 481 
L 2356 0 
L 1766 0 
Q 1100 0 847 248 
Q 594 497 594 1153 
L 594 3053 
L 172 3053 
L 172 3500 
L 594 3500 
L 594 4494 
L 1172 4494 
z
" transform="scale(0.015625)"/>
       <path id="DejaVuSans-69" d="M 603 3500 
L 1178 3500 
L 1178 0 
L 603 0 
L 603 3500 
z
M 603 4863 
L 1178 4863 
L 1178 4134 
L 603 4134 
L 603 4863 
z
" transform="scale(0.015625)"/>
       <path id="DejaVuSans-6d" d="M 3328 2828 
Q 3544 3216 3844 3400 
Q 4144 3584 4550 3584 
Q 5097 3584 5394 3201 
Q 5691 2819 5691 2113 
L 5691 0 
L 5113 0 
L 5113 2094 
Q 5113 2597 4934 2840 
Q 4756 3084 4391 3084 
Q 3944 3084 3684 2787 
Q 3425 2491 3425 1978 
L 3425 0 
L 2847 0 
L 2847 2094 
Q 2847 2600 2669 2842 
Q 2491 3084 2119 3084 
Q 1678 3084 1418 2786 
Q 1159 2488 1159 1978 
L 1159 0 
L 581 0 
L 581 3500 
L 1159 3500 
L 1159 2956 
Q 1356 3278 1631 3431 
Q 1906 3584 2284 3584 
Q 2666 3584 2933 3390 
Q 3200 3197 3328 2828 
z
" transform="scale(0.015625)"/>
       <path id="DejaVuSans-65" d="M 3597 1894 
L 3597 1613 
L 953 1613 
Q 991 1019 1311 708 
Q 1631 397 2203 397 
Q 2534 397 2845 478 
Q 3156 559 3463 722 
L 3463 178 
Q 3153 47 2828 -22 
Q 2503 -91 2169 -91 
Q 1331 -91 842 396 
Q 353 884 353 1716 
Q 353 2575 817 3079 
Q 1281 3584 2069 3584 
Q 2775 3584 3186 3129 
Q 3597 2675 3597 1894 
z
M 3022 2063 
Q 3016 2534 2758 2815 
Q 2500 3097 2075 3097 
Q 1594 3097 1305 2825 
Q 1016 2553 972 2059 
L 3022 2063 
z
" transform="scale(0.015625)"/>
       <path id="DejaVuSans-20" transform="scale(0.015625)"/>
       <path id="DejaVuSans-28" d="M 1984 4856 
Q 1566 4138 1362 3434 
Q 1159 2731 1159 2009 
Q 1159 1288 1364 580 
Q 1569 -128 1984 -844 
L 1484 -844 
Q 1016 -109 783 600 
Q 550 1309 550 2009 
Q 550 2706 781 3412 
Q 1013 4119 1484 4856 
L 1984 4856 
z
" transform="scale(0.015625)"/>
       <path id="DejaVuSans-73" d="M 2834 3397 
L 2834 2853 
Q 2591 2978 2328 3040 
Q 2066 3103 1784 3103 
Q 1356 3103 1142 2972 
Q 928 2841 928 2578 
Q 928 2378 1081 2264 
Q 1234 2150 1697 2047 
L 1894 2003 
Q 2506 1872 2764 1633 
Q 3022 1394 3022 966 
Q 3022 478 2636 193 
Q 2250 -91 1575 -91 
Q 1294 -91 989 -36 
Q 684 19 347 128 
L 347 722 
Q 666 556 975 473 
Q 1284 391 1588 391 
Q 1994 391 2212 530 
Q 2431 669 2431 922 
Q 2431 1156 2273 1281 
Q 2116 1406 1581 1522 
L 1381 1569 
Q 847 1681 609 1914 
Q 372 2147 372 2553 
Q 372 3047 722 3315 
Q 1072 3584 1716 3584 
Q 2034 3584 2315 3537 
Q 2597 3491 2834 3397 
z
" transform="scale(0.015625)"/>
       <path id="DejaVuSans-29" d="M 513 4856 
L 1013 4856 
Q 1481 4119 1714 3412 
Q 1947 2706 1947 2009 
Q 1947 1309 1714 600 
Q 1481 -109 1013 -844 
L 513 -844 
Q 928 -128 1133 580 
Q 1338 1288 1338 2009 
Q 1338 2731 1133 3434 
Q 928 4138 513 4856 
z
" transform="scale(0.015625)"/>
      </defs>
      <use xlink:href="#DejaVuSans-74"/>
      <use xlink:href="#DejaVuSans-69" x="39.208984"/>
      <use xlink:href="#DejaVuSans-6d" x="66.992188"/>
      <use xlink:href="#DejaVuSans-65" x="164.404297"/>
      <use xlink:href="#DejaVuSans-20" x="225.927734"/>
      <use xlink:href="#DejaVuSans-28" x="257.714844"/>
      <use xlink:href="#DejaVuSans-73" x="296.728516"/>
      <use xlink:href="#DejaVuSans-29" x="348.828125"/>
     </g>
    </g>
   </g>
   <g id="matplotlib.axis_2">
    <g id="ytick_1">
     <g id="line2d_15">
      <path d="M 61.03225 89.601657 
L 853.2 89.601657 
" clip-path="url(#p53b0bea532)" style="fill: none; stroke: #b0b0b0; stroke-width: 0.8; stroke-linecap: square"/>
     </g>
     <g id="line2d_16">
      <defs>
       <path id="m0798c32155" d="M 0 0 
L -3.5 0 
" style="stroke: #000000; stroke-width: 0.8"/>
      </defs>
      <g>
       <use xlink:href="#m0798c32155" x="61.03225" y="89.601657" style="stroke: #000000; stroke-width: 0.8"/>
      </g>
     </g>
     <g id="text_9">
      <!-- −0.2 -->
      <g transform="translate(29.749438 93.400875) scale(0.1 -0.1)">
       <defs>
        <path id="DejaVuSans-2212" d="M 678 2272 
L 4684 2272 
L 4684 1741 
L 678 1741 
L 678 2272 
z
" transform="scale(0.015625)"/>
        <path id="DejaVuSans-2e" d="M 684 794 
L 1344 794 
L 1344 0 
L 684 0 
L 684 794 
z
" transform="scale(0.015625)"/>
       </defs>
       <use xlink:href="#DejaVuSans-2212"/>
       <use xlink:href="#DejaVuSans-30" x="83.789062"/>
       <use xlink:href="#DejaVuSans-2e" x="147.412109"/>
       <use xlink:href="#DejaVuSans-32" x="179.199219"/>
      </g>
     </g>
    </g>
    <g id="ytick_2">
     <g id="line2d_17">
      <path d="M 61.03225 62.471618 
L 853.2 62.471618 
" clip-path="url(#p53b0bea532)" style="fill: none; stroke: #b0b0b0; stroke-width: 0.8; stroke-linecap: square"/>
     </g>
     <g id="line2d_18">
      <g>
       <use xlink:href="#m0798c32155" x="61.03225" y="62.471618" style="stroke: #000000; stroke-width: 0.8"/>
      </g>
     </g>
     <g id="text_10">
      <!-- 0.0 -->
      <g transform="translate(38.129125 66.270837) scale(0.1 -0.1)">
       <use xlink:href="#DejaVuSans-30"/>
       <use xlink:href="#DejaVuSans-2e" x="63.623047"/>
       <use xlink:href="#DejaVuSans-30" x="95.410156"/>
      </g>
     </g>
    </g>
    <g id="ytick_3">
     <g id="line2d_19">
      <path d="M 61.03225 35.34158 
L 853.2 35.34158 
" clip-path="url(#p53b0bea532)" style="fill: none; stroke: #b0b0b0; stroke-width: 0.8; stroke-linecap: square"/>
     </g>
     <g id="line2d_20">
      <g>
       <use xlink:href="#m0798c32155" x="61.03225" y="35.34158" style="stroke: #000000; stroke-width: 0.8"/>
      </g>
     </g>
     <g id="text_11">
      <!-- 0.2 -->
      <g transform="translate(38.129125 39.140798) scale(0.1 -0.1)">
       <use xlink:href="#DejaVuSans-30"/>
       <use xlink:href="#DejaVuSans-2e" x="63.623047"/>
       <use xlink:href="#DejaVuSans-32" x="95.410156"/>
      </g>
     </g>
    </g>
    <g id="text_12">
     <!-- $\ddot{u_g}/g$ -->
     <g transform="translate(22.649438 72.78) rotate(-90) scale(0.1 -0.1)">
      <defs>
       <path id="DejaVuSans-308" d="M -1306 4850 
L -672 4850 
L -672 4219 
L -1306 4219 
L -1306 4850 
z
M -2528 4850 
L -1894 4850 
L -1894 4219 
L -2528 4219 
L -2528 4850 
z
M -1600 3584 
L -1600 3584 
z
" transform="scale(0.015625)"/>
       <path id="DejaVuSans-Oblique-75" d="M 428 1388 
L 838 3500 
L 1416 3500 
L 1006 1409 
Q 975 1256 961 1147 
Q 947 1038 947 966 
Q 947 700 1109 554 
Q 1272 409 1569 409 
Q 2031 409 2368 721 
Q 2706 1034 2809 1563 
L 3194 3500 
L 3769 3500 
L 3091 0 
L 2516 0 
L 2631 550 
Q 2388 244 2052 76 
Q 1716 -91 1338 -91 
Q 878 -91 622 161 
Q 366 413 366 863 
Q 366 956 381 1097 
Q 397 1238 428 1388 
z
" transform="scale(0.015625)"/>
       <path id="DejaVuSans-Oblique-67" d="M 3816 3500 
L 3219 434 
Q 3047 -456 2561 -893 
Q 2075 -1331 1253 -1331 
Q 950 -1331 690 -1286 
Q 431 -1241 206 -1147 
L 313 -588 
Q 525 -725 762 -790 
Q 1000 -856 1269 -856 
Q 1816 -856 2167 -557 
Q 2519 -259 2631 300 
L 2681 563 
Q 2441 288 2122 144 
Q 1803 0 1434 0 
Q 903 0 598 351 
Q 294 703 294 1319 
Q 294 1803 478 2267 
Q 663 2731 997 3091 
Q 1219 3328 1514 3456 
Q 1809 3584 2131 3584 
Q 2484 3584 2746 3420 
Q 3009 3256 3138 2956 
L 3238 3500 
L 3816 3500 
z
M 2950 2216 
Q 2950 2641 2750 2872 
Q 2550 3103 2181 3103 
Q 1953 3103 1747 3012 
Q 1541 2922 1394 2759 
Q 1156 2491 1023 2127 
Q 891 1763 891 1375 
Q 891 944 1092 712 
Q 1294 481 1672 481 
Q 2219 481 2584 976 
Q 2950 1472 2950 2216 
z
" transform="scale(0.015625)"/>
       <path id="DejaVuSans-2f" d="M 1625 4666 
L 2156 4666 
L 531 -594 
L 0 -594 
L 1625 4666 
z
" transform="scale(0.015625)"/>
      </defs>
      <use xlink:href="#DejaVuSans-308" transform="translate(94.136719 11.21875)"/>
      <use xlink:href="#DejaVuSans-Oblique-75" transform="translate(0 0.03125)"/>
      <use xlink:href="#DejaVuSans-Oblique-67" transform="translate(63.378906 -16.375) scale(0.7)"/>
      <use xlink:href="#DejaVuSans-2f" transform="translate(110.546875 0.03125)"/>
      <use xlink:href="#DejaVuSans-Oblique-67" transform="translate(144.238281 0.03125)"/>
     </g>
    </g>
   </g>
   <g id="line2d_21">
    <path d="M 61.03225 62.569049 
L 71.494323 62.660143 
L 71.865758 62.673348 
L 72.237192 62.704121 
L 72.484815 62.673132 
L 73.28959 62.205118 
L 73.599119 62.334388 
L 73.970553 62.43357 
L 75.208669 62.422101 
L 75.518197 62.371393 
L 75.889632 62.568326 
L 76.570595 62.903664 
L 77.313464 62.48843 
L 77.684899 62.555178 
L 78.180145 62.562482 
L 78.675391 62.681826 
L 79.108731 62.556448 
L 79.41826 62.429666 
L 79.727789 62.372614 
L 80.223035 62.289427 
L 80.965904 62.26678 
L 81.832585 62.382409 
L 82.265925 62.1096 
L 82.823077 61.295777 
L 83.008794 61.631727 
L 83.380229 63.05475 
L 83.751663 64.243102 
L 83.937381 64.276818 
L 84.123098 63.969864 
L 84.370721 63.011142 
L 84.742155 61.713132 
L 84.865967 61.861518 
L 85.051684 62.666127 
L 85.361213 63.988753 
L 85.54693 64.154823 
L 85.670742 64.004269 
L 85.856459 63.34582 
L 86.227894 62.060655 
L 86.599328 61.659263 
L 87.032668 60.788873 
L 87.280292 60.837368 
L 87.527915 61.003682 
L 88.394595 61.837514 
L 88.642218 62.026755 
L 89.323182 63.308474 
L 89.570805 63.732699 
L 89.694616 63.690112 
L 89.880333 63.303949 
L 90.437485 61.650387 
L 90.561297 61.884699 
L 90.747014 63.018598 
L 91.118449 65.46786 
L 91.24226 65.521058 
L 91.366072 65.149343 
L 91.613695 63.403709 
L 92.047035 60.764154 
L 92.480375 59.30965 
L 92.666092 59.162227 
L 92.789904 59.483193 
L 92.975621 60.855388 
L 93.470867 65.276887 
L 93.594679 65.278659 
L 93.780396 64.866632 
L 94.213736 62.777865 
L 94.585171 61.487906 
L 94.770888 61.330163 
L 94.8947 61.599083 
L 95.142323 63.060731 
L 95.451852 64.779165 
L 95.575663 64.538496 
L 95.76138 63.182925 
L 96.132815 60.313314 
L 96.194721 60.28864 
L 96.318532 60.590282 
L 96.504249 61.684218 
L 97.185213 67.356102 
L 97.247119 67.27362 
L 97.37093 66.606381 
L 97.680459 62.78126 
L 97.928082 60.883001 
L 98.051893 60.944368 
L 98.237611 61.814599 
L 98.609045 63.481015 
L 98.732857 63.43979 
L 98.918574 62.897188 
L 99.785255 59.041078 
L 99.909066 59.260767 
L 100.218595 60.923293 
L 100.59003 62.464217 
L 100.651935 62.462021 
L 100.837653 61.909019 
L 101.209087 60.735888 
L 101.518616 60.803608 
L 101.704333 61.09969 
L 101.951956 62.066823 
L 102.509108 64.976914 
L 102.63292 64.667848 
L 103.128166 62.720367 
L 103.313883 62.879102 
L 103.685317 63.163788 
L 103.994846 63.338791 
L 104.304375 63.527563 
L 104.551998 63.460452 
L 104.737715 62.985869 
L 105.047244 62.058763 
L 105.171056 62.517376 
L 105.604396 65.410644 
L 105.666302 65.378168 
L 105.852019 64.558481 
L 106.223454 61.294781 
L 106.471077 59.814517 
L 106.594888 60.243526 
L 107.15204 63.48286 
L 107.399663 65.123753 
L 107.709192 66.91181 
L 107.833003 66.873025 
L 108.018721 66.167047 
L 108.513967 63.864474 
L 108.637778 64.138709 
L 109.133024 65.905596 
L 109.318741 65.667623 
L 110.309234 63.185411 
L 110.618762 61.665185 
L 111.361631 57.528809 
L 111.609255 57.362668 
L 111.856878 57.421577 
L 112.290218 57.155628 
L 112.414029 57.540415 
L 112.661652 59.317411 
L 113.466427 66.997216 
L 113.590239 66.861657 
L 114.023579 65.987101 
L 114.147391 66.331139 
L 114.828354 69.633933 
L 115.137883 70.171828 
L 115.818846 71.556585 
L 115.942658 71.416896 
L 116.128375 70.715297 
L 116.375998 68.625089 
L 116.685527 63.764824 
L 117.428396 49.333814 
L 117.614113 48.763081 
L 118.171265 48.216519 
L 118.418888 47.316684 
L 118.790322 45.012828 
L 119.657003 38.942563 
L 120.276061 37.781113 
L 120.337966 37.805245 
L 120.461778 38.731112 
L 120.647495 43.840607 
L 121.514176 79.211924 
L 122.133233 91.246049 
L 122.442762 93.408869 
L 122.566574 93.641821 
L 122.628479 93.614515 
L 122.752291 93.14895 
L 122.999914 90.520266 
L 123.309443 88.139429 
L 123.557066 87.02121 
L 124.857087 77.076993 
L 125.10471 72.70956 
L 125.599956 63.294444 
L 125.97139 61.518211 
L 126.219013 60.242557 
L 126.590448 56.471929 
L 127.023788 52.158302 
L 127.952375 46.626048 
L 128.75715 40.232081 
L 129.066678 38.795247 
L 129.252396 38.601946 
L 129.376207 38.815934 
L 129.561924 39.73883 
L 129.933359 43.177847 
L 130.428605 50.054651 
L 131.914343 72.910185 
L 132.100061 73.512642 
L 132.223872 73.423771 
L 132.409589 72.7631 
L 132.966741 69.072496 
L 133.523893 65.938929 
L 133.70961 65.861757 
L 133.895327 65.828849 
L 134.081045 65.466504 
L 134.390574 64.967823 
L 134.514385 65.086003 
L 134.823914 65.467279 
L 134.947725 65.255471 
L 135.133443 64.330125 
L 135.566783 61.750293 
L 135.628689 61.774326 
L 135.7525 62.191284 
L 136.000123 64.185353 
L 136.990615 72.979218 
L 137.733485 75.037869 
L 137.919202 75.044307 
L 138.104919 74.566838 
L 138.290636 73.262842 
L 138.662071 68.230486 
L 139.095411 63.151416 
L 139.343034 62.142023 
L 139.466846 62.140103 
L 139.652563 62.726349 
L 140.333526 66.085772 
L 140.519244 66.193288 
L 140.704961 65.934111 
L 141.385924 64.255783 
L 141.633547 63.823981 
L 141.88117 62.778391 
L 142.500228 59.838336 
L 142.995474 57.807825 
L 143.305003 55.626537 
L 143.92406 48.749177 
L 144.171683 44.629263 
L 144.790741 32.733935 
L 145.10027 30.107273 
L 145.162176 30.123768 
L 145.285987 30.811433 
L 145.471704 33.958287 
L 146.400291 55.661607 
L 146.709819 58.597625 
L 146.895537 59.088099 
L 147.019348 58.985003 
L 147.205066 58.171732 
L 147.390783 56.218215 
L 148.133652 45.791053 
L 148.566992 44.114485 
L 148.690804 44.098573 
L 148.814615 44.380115 
L 149.062238 45.900197 
L 149.867013 51.927733 
L 150.300353 52.691188 
L 150.486071 52.433957 
L 150.733694 51.535852 
L 151.724186 46.315056 
L 152.033715 44.332895 
L 152.09562 44.290491 
L 152.219432 44.809149 
L 152.405149 47.236962 
L 152.900395 58.970173 
L 153.27183 65.469813 
L 153.70517 70.021714 
L 154.386133 75.673449 
L 155.500437 87.965322 
L 155.933777 90.769252 
L 156.800458 94.652727 
L 156.92427 94.41907 
L 157.109987 92.961631 
L 157.419516 87.485894 
L 158.100479 73.690573 
L 158.471914 70.402107 
L 159.152877 67.668599 
L 159.4005 66.363145 
L 159.710029 63.124509 
L 161.01005 48.09324 
L 161.319578 46.654331 
L 161.44339 46.592881 
L 161.629107 46.920531 
L 161.938636 48.208516 
L 162.186259 50.219265 
L 163.176751 60.690124 
L 163.733903 62.909608 
L 164.167243 64.380711 
L 164.476772 67.138712 
L 166.024416 82.700548 
L 166.210133 83.052493 
L 166.395851 82.728736 
L 167.200625 80.52164 
L 167.386343 80.458644 
L 167.510154 80.647984 
L 167.757777 81.731965 
L 168.686364 86.221173 
L 168.810175 86.294193 
L 169.057798 85.763841 
L 169.491139 84.149943 
L 169.676856 80.079908 
L 170.172102 64.458246 
L 170.605442 58.183968 
L 171.100688 49.285924 
L 171.472123 47.142929 
L 171.534029 47.010304 
L 171.595934 47.057307 
L 171.719746 47.865904 
L 171.905463 51.491531 
L 172.400709 62.785647 
L 173.143578 69.177534 
L 173.948353 73.241039 
L 174.13407 73.484238 
L 174.257882 73.14978 
L 174.443599 71.027466 
L 174.815034 61.433339 
L 175.186468 54.145401 
L 175.867432 46.086065 
L 176.17696 44.422722 
L 176.300772 44.860126 
L 176.486489 47.260552 
L 176.91983 58.917191 
L 177.600793 75.082386 
L 177.910322 77.744636 
L 178.157945 78.142132 
L 178.281756 78.059901 
L 178.405568 77.755976 
L 178.591285 76.444673 
L 178.838908 72.448661 
L 179.519871 59.871996 
L 180.077023 52.536947 
L 180.386552 50.722814 
L 180.510363 50.630706 
L 180.634175 50.853275 
L 180.881798 52.148974 
L 181.377044 54.960959 
L 181.562761 55.279099 
L 181.686573 55.206929 
L 181.87229 54.695613 
L 182.181819 52.942004 
L 182.924688 48.740143 
L 183.296123 47.16561 
L 183.358028 47.161758 
L 183.48184 47.487793 
L 183.729463 49.155653 
L 184.596144 55.931798 
L 184.905672 58.349723 
L 186.267599 73.085972 
L 186.515222 73.333939 
L 186.886657 73.338088 
L 187.443808 73.097954 
L 187.56762 73.001666 
L 187.753337 72.389697 
L 188.00096 70.128414 
L 188.743829 61.674711 
L 189.239075 59.088639 
L 189.796227 57.725363 
L 190.04385 57.570278 
L 190.229568 57.818958 
L 190.601002 58.948594 
L 191.158154 60.58555 
L 191.343871 60.661543 
L 191.839117 60.469656 
L 192.396269 60.593267 
L 192.767704 61.243728 
L 193.26295 62.660061 
L 194.253442 65.453116 
L 194.562971 65.769316 
L 194.686782 65.715621 
L 194.810594 65.4607 
L 195.120122 63.966824 
L 195.491557 62.35919 
L 195.801086 62.004393 
L 195.986803 62.048791 
L 196.234426 62.406388 
L 196.667766 63.16705 
L 196.791578 63.059541 
L 196.977295 62.567439 
L 197.410635 61.230967 
L 197.720164 61.115038 
L 198.896374 61.691992 
L 199.329714 62.642994 
L 200.320206 65.535129 
L 200.505923 65.572217 
L 200.691641 65.38313 
L 201.001169 64.524829 
L 201.372604 62.971689 
L 201.744039 61.796092 
L 202.363096 60.369381 
L 203.167871 57.567853 
L 203.4774 57.253226 
L 203.786929 56.983556 
L 204.034552 57.149196 
L 204.715515 58.034673 
L 205.334573 57.929694 
L 205.52029 57.585498 
L 206.38697 54.325386 
L 206.758405 53.200843 
L 207.006028 52.986064 
L 207.191745 53.115081 
L 207.439368 53.820678 
L 208.306049 56.817874 
L 208.42986 56.794089 
L 208.677484 56.433739 
L 208.925107 55.726949 
L 209.667976 52.892699 
L 209.915599 52.532394 
L 210.101316 52.642846 
L 210.410845 53.139233 
L 210.658468 54.189821 
L 211.710866 60.716183 
L 212.329923 61.885198 
L 212.763264 62.309946 
L 213.382321 62.462867 
L 213.815661 62.437512 
L 214.063284 62.698134 
L 214.310908 63.572048 
L 214.868059 65.81479 
L 215.177588 66.429603 
L 215.425211 66.409109 
L 215.796646 66.328937 
L 216.415703 66.510527 
L 216.725232 66.354259 
L 216.910949 66.325743 
L 217.096667 66.524405 
L 217.34429 67.199022 
L 217.901441 69.004712 
L 218.891934 71.395624 
L 219.572897 73.328547 
L 220.130049 74.393229 
L 220.315766 74.44709 
L 220.625295 73.971039 
L 221.615787 72.028281 
L 221.987222 69.956303 
L 223.101525 63.258508 
L 223.534865 61.132147 
L 223.9063 60.352188 
L 224.092017 60.244937 
L 224.277735 60.432046 
L 224.834886 61.287458 
L 225.144415 61.434669 
L 225.453944 61.348534 
L 225.887284 60.920234 
L 226.320625 60.490793 
L 226.630153 60.573818 
L 226.877776 60.803874 
L 227.373023 61.883454 
L 228.177797 64.030525 
L 228.42542 64.085082 
L 228.673043 63.934243 
L 228.920666 63.389422 
L 230.03497 59.889225 
L 230.344499 59.769104 
L 231.149274 59.826578 
L 231.830237 59.667006 
L 232.573106 60.354124 
L 232.882635 60.78183 
L 233.130258 60.777989 
L 233.315975 60.798697 
L 233.501693 61.103613 
L 233.935033 62.712297 
L 234.925525 66.083305 
L 235.7303 67.85479 
L 236.473169 70.064582 
L 236.658886 70.138509 
L 236.844604 69.934975 
L 237.092227 69.103506 
L 237.463661 66.609786 
L 238.082719 62.370143 
L 238.949399 59.266309 
L 239.754174 57.779139 
L 240.063703 57.783503 
L 240.373232 57.683118 
L 240.868478 57.37804 
L 241.487535 57.505087 
L 242.601839 58.928516 
L 243.097085 59.48477 
L 243.46852 59.713182 
L 243.839954 59.853347 
L 244.211389 60.324291 
L 244.706635 61.008319 
L 245.635221 61.090072 
L 245.882844 61.027833 
L 246.254279 60.986817 
L 246.625713 60.602219 
L 246.997148 59.694507 
L 247.616205 58.294075 
L 247.863828 58.128799 
L 248.235263 57.983438 
L 248.482886 57.940926 
L 248.730509 57.875213 
L 249.349567 57.464976 
L 249.721001 57.842302 
L 249.906719 58.233562 
L 250.216247 59.465541 
L 251.268645 65.304808 
L 251.701986 66.212479 
L 251.949609 66.30875 
L 252.135326 66.19044 
L 252.382949 65.657741 
L 252.878195 63.768267 
L 253.311535 61.905255 
L 254.054404 59.020535 
L 254.425839 58.416741 
L 254.54965 58.422879 
L 254.735368 58.791298 
L 255.044896 60.451141 
L 255.973483 65.771477 
L 256.530635 67.487748 
L 256.902069 68.727794 
L 257.459221 70.896749 
L 257.76875 71.701811 
L 257.954467 71.781892 
L 258.140184 71.649036 
L 258.449713 71.023591 
L 259.440205 68.485048 
L 260.492603 65.484587 
L 260.740226 65.323851 
L 261.42119 65.40525 
L 262.28787 64.864885 
L 262.535493 65.073561 
L 262.968834 65.518484 
L 263.154551 65.426969 
L 263.649797 64.732636 
L 264.578383 63.029777 
L 264.949818 62.159294 
L 265.692687 60.309628 
L 266.126027 59.984667 
L 266.930802 59.691116 
L 267.302237 59.345276 
L 268.230823 59.283746 
L 268.41654 59.517546 
L 269.097504 60.886669 
L 269.468938 61.110737 
L 269.778467 60.955172 
L 270.273713 60.516984 
L 270.645148 59.888928 
L 271.016582 59.858466 
L 271.63564 59.850569 
L 272.316603 60.301659 
L 272.749943 60.811462 
L 273.307095 61.657842 
L 273.554718 61.551429 
L 274.049964 61.120549 
L 274.235682 61.243265 
L 274.854739 61.859057 
L 275.164268 61.694614 
L 275.783325 61.175745 
L 276.15476 61.113874 
L 276.526195 61.165839 
L 276.835723 61.439582 
L 277.145252 62.000734 
L 277.516687 62.621346 
L 278.073839 63.12023 
L 278.692896 62.952881 
L 279.373859 63.054737 
L 279.621482 63.033477 
L 280.054823 62.950226 
L 280.364352 62.782132 
L 280.859598 62.407466 
L 281.478655 62.407524 
L 281.788184 62.254896 
L 282.28343 61.707583 
L 282.778676 60.903701 
L 283.273922 59.733713 
L 283.583451 59.218009 
L 283.831074 59.148433 
L 284.078697 59.29112 
L 284.388226 59.775751 
L 286.121587 63.269547 
L 286.554927 63.486715 
L 287.235891 63.553495 
L 287.54542 63.578953 
L 287.97876 63.300158 
L 288.721629 62.592882 
L 288.969252 62.812917 
L 289.278781 63.559662 
L 289.650215 64.264819 
L 290.269273 65.063992 
L 290.826425 65.691332 
L 291.074048 65.637999 
L 291.321671 65.38309 
L 291.693105 64.640304 
L 292.312163 63.190577 
L 293.240749 62.779985 
L 293.797901 62.089474 
L 294.850299 61.18684 
L 295.036016 61.16052 
L 295.469357 61.314083 
L 295.902697 61.315034 
L 297.017001 61.240528 
L 297.326529 61.121086 
L 298.255116 61.086056 
L 298.564645 60.783754 
L 299.183702 60.035453 
L 299.617042 60.035809 
L 300.112288 60.070394 
L 300.545629 60.198924 
L 300.917063 60.213886 
L 301.226592 60.442881 
L 301.969461 61.086413 
L 303.269482 62.888545 
L 303.950446 63.3183 
L 304.136163 63.134123 
L 304.445692 62.387374 
L 304.817126 61.506787 
L 305.002843 61.549961 
L 305.250466 61.775137 
L 305.683807 62.171787 
L 306.055241 62.219108 
L 306.36477 62.120339 
L 307.045733 61.710831 
L 307.231451 61.697646 
L 307.602885 61.928377 
L 308.345754 62.554599 
L 308.717189 62.615835 
L 309.026718 63.00513 
L 309.521964 63.58793 
L 310.01721 63.816708 
L 310.326739 63.700211 
L 310.636267 63.685033 
L 310.945796 63.867838 
L 311.255325 63.968774 
L 311.564854 63.996573 
L 311.936288 64.115296 
L 312.183911 63.952745 
L 312.555346 63.430412 
L 312.988686 62.993853 
L 313.360121 62.97886 
L 313.855367 62.87531 
L 314.350613 62.587932 
L 315.031576 62.584031 
L 315.650634 62.572222 
L 316.641126 63.042542 
L 317.01256 63.31943 
L 317.569712 63.31381 
L 317.817335 63.471208 
L 318.250676 63.762389 
L 319.117356 63.711809 
L 319.426885 63.591459 
L 319.984037 63.148267 
L 320.479283 63.161004 
L 321.098341 62.9587 
L 321.469775 63.045805 
L 322.212644 63.707002 
L 322.893608 65.057128 
L 323.203136 65.556499 
L 324.131723 65.87309 
L 324.688875 65.842847 
L 324.998403 65.269029 
L 325.431744 64.324308 
L 325.92699 63.34523 
L 326.422236 62.894013 
L 327.350822 62.236641 
L 328.341314 61.029669 
L 329.765147 60.409368 
L 330.01277 60.525783 
L 331.127073 61.497329 
L 331.560414 61.598349 
L 331.869942 61.568594 
L 332.179471 61.515129 
L 332.489 61.421311 
L 332.860435 61.302279 
L 333.169963 61.283258 
L 333.479492 61.66353 
L 334.408079 62.998342 
L 334.655702 62.937987 
L 335.089042 62.610214 
L 335.460476 62.287547 
L 335.831911 62.239336 
L 336.079534 62.299184 
L 337.193838 63.098052 
L 337.627178 62.959406 
L 337.998613 62.929764 
L 338.679576 62.297965 
L 339.608162 61.27395 
L 340.103408 60.994227 
L 341.155806 60.262662 
L 341.527241 60.043953 
L 342.022487 59.909075 
L 342.951073 60.589907 
L 343.198696 60.405245 
L 343.570131 60.082936 
L 343.87966 60.070037 
L 344.313 59.949775 
L 345.303492 59.4808 
L 345.613021 59.148635 
L 345.798738 59.178735 
L 347.346382 60.044846 
L 347.594005 60.190727 
L 348.151157 60.970392 
L 348.894026 61.904183 
L 349.389272 62.044634 
L 349.698801 61.885418 
L 350.255953 61.610348 
L 350.813105 61.762897 
L 351.741691 62.768087 
L 352.113125 63.09462 
L 353.041712 63.346292 
L 353.351241 63.242905 
L 353.660769 63.153852 
L 354.217921 63.030138 
L 354.52745 62.956724 
L 354.775073 63.081416 
L 355.394131 63.617167 
L 356.756057 64.431925 
L 357.251303 64.743516 
L 357.870361 65.322818 
L 358.117984 65.233955 
L 358.365607 65.147113 
L 358.922759 65.161161 
L 359.851345 65.031737 
L 360.22278 64.604342 
L 360.841837 63.952945 
L 361.398989 63.727762 
L 361.832329 63.689011 
L 362.637104 63.285831 
L 363.008539 63.340747 
L 364.184748 62.895981 
L 365.670487 63.77098 
L 366.103827 64.076299 
L 366.846696 64.183449 
L 367.156225 64.163892 
L 367.589565 64.051031 
L 368.022905 63.718025 
L 368.518151 63.31512 
L 369.075303 63.152518 
L 369.446738 63.264614 
L 369.756267 63.340229 
L 370.313418 63.398385 
L 370.499136 63.423749 
L 371.365816 64.301541 
L 371.737251 64.43665 
L 372.108685 64.276139 
L 373.780141 63.514624 
L 374.027764 63.57239 
L 374.584916 63.875864 
L 375.946842 63.699914 
L 376.99924 62.896231 
L 377.494486 62.645325 
L 378.113544 62.403915 
L 378.546884 61.891608 
L 379.970717 59.759105 
L 380.589774 59.142998 
L 381.704078 58.605509 
L 382.323135 58.692605 
L 382.818382 58.96069 
L 383.251722 58.970537 
L 383.994591 59.461847 
L 384.799366 60.058275 
L 385.727952 60.072528 
L 386.408916 60.418325 
L 387.647031 61.415228 
L 388.266088 62.201233 
L 388.82324 62.293984 
L 389.070863 62.288478 
L 389.380392 62.569554 
L 389.875638 62.930823 
L 390.185167 62.975134 
L 390.804224 62.964247 
L 391.237565 62.59409 
L 392.104245 62.059549 
L 392.413774 62.093084 
L 393.094737 62.377247 
L 393.280455 62.303567 
L 393.651889 62.13345 
L 394.023324 62.379828 
L 394.580476 62.785205 
L 395.261439 62.646632 
L 395.756685 62.013965 
L 396.190025 62.150698 
L 396.499554 62.19438 
L 397.923387 61.527787 
L 398.294821 61.464949 
L 398.542444 61.454144 
L 398.851973 61.51881 
L 399.099596 61.627856 
L 399.532936 61.889466 
L 400.709146 61.92042 
L 401.390109 62.299737 
L 401.761544 62.695684 
L 402.504413 63.252471 
L 403.061565 63.53569 
L 403.556811 63.556851 
L 404.29968 63.85499 
L 404.671114 63.709344 
L 405.599701 63.930128 
L 405.909229 64.163451 
L 406.77591 64.780903 
L 407.147345 64.845746 
L 407.580685 65.004493 
L 407.828308 64.824829 
L 408.571177 64.103304 
L 409.004517 64.055247 
L 409.314046 64.035598 
L 409.685481 64.0804 
L 411.542653 63.916325 
L 412.409334 63.350166 
L 412.90458 63.193763 
L 413.152203 63.093119 
L 413.647449 62.776153 
L 414.328413 62.460971 
L 414.699847 62.4058 
L 415.133187 62.26823 
L 416.061774 62.408971 
L 416.371303 62.712229 
L 416.928454 63.331494 
L 417.176077 63.283576 
L 417.609418 62.931918 
L 418.538004 61.737476 
L 419.095156 61.268327 
L 419.46659 61.164182 
L 420.023742 61.1882 
L 420.518988 61.327136 
L 420.828517 61.397473 
L 422.376161 62.840401 
L 422.871407 62.977577 
L 424.171428 63.042729 
L 424.790486 63.355698 
L 425.285732 63.068343 
L 425.780978 62.817344 
L 426.895281 62.864478 
L 428.133397 63.735796 
L 428.504831 63.584274 
L 429.866758 62.455404 
L 431.662025 62.757287 
L 432.157271 62.284179 
L 432.652517 61.742046 
L 433.704915 61.197523 
L 434.014444 61.185022 
L 434.757313 60.908206 
L 435.500182 60.270062 
L 435.871616 60.322659 
L 436.490674 61.02652 
L 437.109732 61.702129 
L 437.357355 61.710604 
L 437.604978 61.548901 
L 437.914506 61.359981 
L 438.162129 61.31575 
L 438.657376 60.86098 
L 439.02881 60.620397 
L 439.400245 60.733456 
L 439.957396 61.363411 
L 440.328831 61.677724 
L 440.824077 61.931001 
L 441.628852 62.630935 
L 442.062192 62.47771 
L 443.54793 61.993922 
L 444.105082 62.107609 
L 444.352705 62.416672 
L 444.786046 62.956961 
L 445.219386 63.220872 
L 445.467009 63.076121 
L 446.086067 62.433527 
L 446.76703 62.292613 
L 449.057543 62.982092 
L 449.367072 63.057479 
L 449.6766 63.192412 
L 450.295658 63.008967 
L 450.914716 63.080267 
L 451.28615 63.162067 
L 452.771888 63.155716 
L 453.019511 63.221496 
L 453.32904 63.133886 
L 455.681459 61.347227 
L 456.052894 61.440092 
L 456.486234 61.970025 
L 456.857668 62.355603 
L 457.291009 62.748393 
L 457.971972 63.600127 
L 458.838653 63.905015 
L 459.333899 64.202645 
L 459.581522 64.233927 
L 460.200579 63.851527 
L 460.695825 63.46084 
L 461.252977 63.619879 
L 461.624412 63.735883 
L 461.933941 63.659472 
L 463.172056 62.827753 
L 463.667302 62.901166 
L 464.286359 63.478182 
L 464.7197 63.817948 
L 465.338757 64.102884 
L 466.638778 63.849878 
L 467.753082 63.026614 
L 468.248328 62.884645 
L 468.681668 62.726881 
L 469.424537 62.689787 
L 469.919783 62.57349 
L 470.229312 62.64601 
L 470.724558 62.419953 
L 470.972181 62.629538 
L 471.467427 63.142961 
L 471.776956 63.174287 
L 472.086485 63.079927 
L 472.705543 62.816347 
L 473.138883 62.707371 
L 474.253187 61.691336 
L 475.491302 61.564571 
L 477.781815 61.014614 
L 478.277061 61.071842 
L 478.524684 60.995442 
L 479.143741 61.11029 
L 479.638988 61.396785 
L 480.072328 61.536133 
L 480.505668 61.267329 
L 481.124726 60.912136 
L 482.424747 61.019572 
L 482.734275 60.969865 
L 483.724768 60.344924 
L 484.034296 60.485838 
L 485.272412 61.762545 
L 487.996265 62.792653 
L 488.986757 62.290447 
L 490.162966 62.503587 
L 490.596307 62.484974 
L 491.339176 62.5465 
L 491.958233 62.481311 
L 493.258254 63.531181 
L 495.177333 62.736347 
L 495.486862 62.546687 
L 495.920202 62.820602 
L 496.910694 63.629479 
L 497.220223 63.692742 
L 497.467846 63.597975 
L 498.272621 63.089529 
L 498.58215 62.870756 
L 499.077396 62.854398 
L 499.758359 63.053828 
L 501.05838 62.274015 
L 501.739343 62.368206 
L 502.172684 62.355672 
L 502.853647 62.396643 
L 503.348893 62.711755 
L 504.029856 62.94113 
L 504.277479 62.736818 
L 505.082254 61.868934 
L 505.453689 61.765179 
L 506.258464 62.053931 
L 506.877521 61.648971 
L 507.248956 61.375174 
L 507.744202 61.377749 
L 508.548977 61.094549 
L 509.539469 62.079231 
L 510.096621 62.755057 
L 510.406149 62.81329 
L 511.27283 62.741722 
L 511.582359 62.640552 
L 512.077605 62.790572 
L 512.325228 62.833865 
L 512.758568 62.861412 
L 514.120495 63.574509 
L 514.491929 63.480859 
L 514.92527 63.209559 
L 515.668139 63.378023 
L 516.039573 63.77225 
L 516.472914 63.941964 
L 516.720537 63.829949 
L 517.091971 63.573748 
L 517.463406 63.568889 
L 518.268181 63.101038 
L 519.44439 61.802638 
L 519.692013 61.734917 
L 519.939636 61.855205 
L 520.311071 62.084517 
L 520.558694 62.137861 
L 521.239657 62.723142 
L 521.48728 62.728256 
L 522.415866 62.463222 
L 522.787301 62.568618 
L 523.09683 62.664137 
L 523.715887 62.690519 
L 524.087322 62.585839 
L 524.520662 62.422193 
L 525.13972 61.778903 
L 525.387343 61.664852 
L 525.820683 61.796224 
L 526.687364 62.185913 
L 527.120704 61.916514 
L 527.554044 61.680318 
L 527.863573 61.617348 
L 528.296914 61.372919 
L 529.535029 61.651246 
L 529.968369 61.849709 
L 531.392201 62.103364 
L 532.073165 62.009721 
L 532.382694 62.115776 
L 533.558903 62.088566 
L 535.539887 63.144889 
L 535.973228 63.385351 
L 536.778002 63.400933 
L 537.458966 63.472395 
L 537.768495 63.583069 
L 538.139929 63.36488 
L 538.820892 63.094952 
L 539.192327 63.358438 
L 539.625667 63.628689 
L 540.120913 63.74909 
L 540.801877 63.472501 
L 541.854275 62.770239 
L 542.906672 62.665189 
L 544.454316 62.11436 
L 545.073374 62.229359 
L 545.320997 62.212737 
L 546.249583 62.647056 
L 546.621018 62.756101 
L 547.487699 63.142726 
L 547.859133 63.380555 
L 548.168662 63.433201 
L 548.602002 63.561094 
L 548.911531 63.60055 
L 549.468683 63.821952 
L 549.716306 63.790107 
L 550.459175 63.452844 
L 551.69729 62.234467 
L 552.378253 61.349062 
L 552.811594 61.207577 
L 553.430651 61.031501 
L 553.925897 60.983586 
L 554.359238 60.830103 
L 555.34973 61.007561 
L 555.78307 61.113559 
L 556.092599 61.214656 
L 556.464034 61.083302 
L 556.773562 60.955619 
L 557.330714 61.207901 
L 557.764054 61.084212 
L 558.011677 61.025034 
L 559.497416 61.087024 
L 560.178379 60.829041 
L 560.487908 61.008495 
L 561.602211 61.908911 
L 561.91174 61.911763 
L 562.406986 61.962108 
L 562.716515 62.014697 
L 563.149855 61.950866 
L 563.768913 62.273451 
L 564.573688 63.195259 
L 564.883217 63.393244 
L 565.749897 63.459133 
L 566.307049 63.40562 
L 566.864201 63.439287 
L 567.730882 63.953259 
L 568.721374 63.861338 
L 569.64996 64.064949 
L 569.835677 64.110233 
L 570.330923 63.709005 
L 571.445227 63.949256 
L 571.878567 63.796454 
L 573.983363 62.927553 
L 574.292892 62.957804 
L 574.91195 62.787956 
L 575.34529 62.761807 
L 575.964347 62.839965 
L 577.202463 62.844126 
L 577.573897 62.923698 
L 577.883426 62.995326 
L 578.502483 62.667098 
L 578.935824 62.510082 
L 579.183447 62.497606 
L 579.802504 62.587018 
L 580.978714 61.917712 
L 582.897792 61.936007 
L 583.393038 61.856298 
L 584.012096 61.937567 
L 585.250211 62.29951 
L 586.054986 62.282314 
L 586.612138 62.216703 
L 587.974065 62.124825 
L 588.778839 61.783133 
L 589.397897 61.935058 
L 589.769331 62.021893 
L 590.883635 62.598813 
L 591.131258 62.687615 
L 591.874127 62.639567 
L 592.12175 62.679362 
L 592.802714 62.476983 
L 593.483677 61.693542 
L 593.978923 61.231681 
L 594.226546 61.21968 
L 594.597981 61.390224 
L 594.845604 61.369521 
L 595.217038 61.420478 
L 596.517059 62.487775 
L 597.136117 62.567098 
L 597.507551 62.665902 
L 597.81708 62.513048 
L 598.683761 62.042322 
L 600.355216 62.230882 
L 601.345708 62.12702 
L 602.212389 62.218527 
L 603.574316 63.240652 
L 603.94575 63.085001 
L 604.193373 63.057781 
L 604.502902 62.92942 
L 605.493394 62.297923 
L 606.483886 62.114402 
L 606.731509 62.300962 
L 607.16485 62.747222 
L 607.536284 62.831122 
L 608.03153 62.57144 
L 608.402965 62.463821 
L 608.712494 62.467977 
L 609.950609 63.209923 
L 610.569666 63.125135 
L 611.68397 62.514892 
L 612.055404 62.530151 
L 612.364933 62.751073 
L 612.860179 63.199145 
L 614.036389 63.224432 
L 614.531635 62.858016 
L 615.398315 62.217179 
L 616.326902 62.119933 
L 616.636431 61.954516 
L 617.193582 62.200932 
L 617.874546 62.466541 
L 618.493603 61.979687 
L 618.803132 61.8169 
L 619.236472 61.963759 
L 619.484095 62.212014 
L 619.731719 62.375955 
L 620.907928 62.621667 
L 621.217457 62.669758 
L 622.888912 62.54277 
L 623.569876 62.135367 
L 623.817499 62.194722 
L 624.684179 62.545122 
L 625.179425 62.750923 
L 625.488954 62.86024 
L 625.922294 62.901082 
L 626.541352 63.047051 
L 627.59375 62.710211 
L 627.903279 62.410681 
L 628.708053 61.461765 
L 628.955676 61.404575 
L 629.265205 61.554234 
L 629.63664 61.761245 
L 629.884263 61.855845 
L 630.750943 62.409303 
L 631.122378 62.523356 
L 632.236682 62.943026 
L 633.598608 62.503329 
L 634.093854 62.498224 
L 635.517687 62.595366 
L 636.19865 62.672702 
L 636.755802 62.750024 
L 637.127237 62.876315 
L 637.560577 62.815639 
L 638.303446 62.43397 
L 639.355844 62.677531 
L 639.85109 62.57858 
L 640.841582 62.488447 
L 641.213017 62.564737 
L 641.770168 62.941484 
L 642.32732 63.013745 
L 643.565435 62.503697 
L 644.122587 62.572934 
L 644.432116 62.664454 
L 644.865456 62.39463 
L 645.97976 62.630939 
L 646.475006 62.505235 
L 647.58931 62.454908 
L 648.146462 62.151807 
L 648.45599 62.055125 
L 649.013142 62.132543 
L 649.879823 62.224684 
L 650.49888 62.509882 
L 651.241749 62.856295 
L 652.417959 63.228642 
L 653.160828 62.898451 
L 653.408451 62.738427 
L 653.841791 62.297496 
L 654.894189 62.273429 
L 655.946587 62.694105 
L 656.379927 62.749439 
L 656.875173 63.180932 
L 657.37042 62.95445 
L 658.67044 62.145263 
L 659.475215 62.139734 
L 660.156179 62.037905 
L 661.270482 61.876942 
L 662.199069 62.138338 
L 662.570503 62.020628 
L 663.622901 61.429409 
L 664.303864 61.630017 
L 665.170545 62.048109 
L 665.97532 62.046599 
L 666.284849 62.09659 
L 667.089624 62.37254 
L 667.337247 62.294887 
L 667.956304 62.083729 
L 668.45155 62.130812 
L 668.761079 62.175015 
L 669.132514 62.309679 
L 669.62776 61.964968 
L 670.370629 62.261982 
L 671.856367 62.704318 
L 672.227802 62.621285 
L 672.53733 62.519591 
L 673.218294 62.62348 
L 673.651634 62.867136 
L 674.456409 62.870961 
L 676.561205 62.934763 
L 676.932639 63.067267 
L 677.675508 62.833962 
L 678.170754 62.51811 
L 678.418377 62.659961 
L 678.851718 62.926172 
L 680.646985 63.415843 
L 681.142231 63.379198 
L 681.389854 63.445223 
L 682.504157 63.035616 
L 683.061309 62.89441 
L 683.618461 62.823472 
L 684.051801 62.692005 
L 684.856576 62.366436 
L 685.228011 62.296329 
L 686.280409 61.967572 
L 687.58043 62.081138 
L 687.951864 62.137642 
L 688.323299 62.309538 
L 688.818545 62.327842 
L 689.870943 62.090972 
L 690.242377 61.990562 
L 690.613812 61.836693 
L 690.985246 61.577213 
L 691.418587 61.807321 
L 691.790021 62.016525 
L 692.161456 62.319829 
L 693.647194 62.443898 
L 693.956723 62.570027 
L 694.204346 62.462524 
L 694.513875 62.257284 
L 695.999613 62.338249 
L 696.432953 62.260534 
L 696.742482 62.257321 
L 696.990105 62.345103 
L 698.104408 62.267012 
L 698.475843 62.44615 
L 698.847278 62.35501 
L 699.094901 62.34089 
L 699.404429 62.212961 
L 699.83777 61.995332 
L 700.642545 61.872181 
L 700.952073 61.979961 
L 701.633037 61.991617 
L 702.066377 62.0129 
L 702.314 61.966616 
L 702.871152 61.952818 
L 703.242586 61.781338 
L 704.480702 62.362288 
L 705.037853 62.515232 
L 705.904534 62.603918 
L 706.275969 62.91134 
L 706.83312 62.780114 
L 707.204555 62.528905 
L 707.514084 62.512888 
L 708.00933 62.359968 
L 708.566482 62.33221 
L 708.937916 62.06317 
L 709.371256 61.794146 
L 710.176031 61.787545 
L 711.290335 61.827168 
L 711.909393 62.139158 
L 712.280827 62.177776 
L 713.580848 62.69516 
L 714.385623 62.655822 
L 715.00468 62.4079 
L 715.438021 62.190365 
L 715.623738 62.164253 
L 716.799947 62.88766 
L 717.542817 62.922404 
L 717.976157 63.059817 
L 718.285686 63.13502 
L 718.65712 63.292832 
L 718.842838 63.184925 
L 719.214272 62.859936 
L 719.647612 62.843751 
L 720.080953 62.643548 
L 720.514293 62.537557 
L 720.885728 62.458056 
L 721.195256 62.411253 
L 722.123843 62.527262 
L 722.619089 62.463854 
L 722.866712 62.440785 
L 723.238146 62.531389 
L 724.042921 62.379293 
L 724.723885 62.346338 
L 725.714377 62.521891 
L 727.509644 62.724506 
L 728.128701 62.641608 
L 728.500136 62.878436 
L 728.933476 62.885449 
L 729.428722 62.799454 
L 730.976366 62.713626 
L 731.595424 62.647396 
L 732.152576 62.403302 
L 732.95735 62.286606 
L 733.576408 62.529238 
L 735.928827 62.494151 
L 736.300261 62.519775 
L 736.60979 62.626852 
L 736.919319 62.737318 
L 737.786 62.807237 
L 738.157434 62.904005 
L 739.333644 62.730475 
L 739.705078 62.738912 
L 740.014607 62.67277 
L 740.447947 62.257017 
L 740.69557 62.096959 
L 741.747968 62.15886 
L 742.119403 62.135239 
L 743.047989 61.735057 
L 743.605141 61.997806 
L 743.976575 62.12738 
L 744.34801 62.144911 
L 745.090879 62.456408 
L 745.400408 62.509775 
L 746.328994 62.579518 
L 746.886146 62.795616 
L 747.257581 62.701587 
L 747.567109 62.624108 
L 747.876638 62.515553 
L 748.495696 62.54435 
L 748.805225 62.527064 
L 749.176659 62.468555 
L 749.671905 62.288663 
L 750.229057 62.260277 
L 751.157643 62.343643 
L 751.776701 62.443887 
L 752.210041 62.220766 
L 752.705287 62.064478 
L 753.014816 61.949662 
L 753.262439 62.094165 
L 753.695779 62.329589 
L 754.376743 62.496756 
L 754.871989 62.420385 
L 755.924387 62.240447 
L 756.295821 62.398517 
L 757.472031 62.185592 
L 759.576826 62.757961 
L 759.948261 62.887878 
L 761.929245 62.553945 
L 762.486397 62.342104 
L 763.105455 62.471383 
L 763.972135 62.649574 
L 764.467381 62.620715 
L 764.900722 62.711124 
L 765.395968 62.616889 
L 765.705497 62.571312 
L 766.572177 62.660427 
L 767.067423 62.547086 
L 767.624575 62.395894 
L 769.172219 62.494835 
L 769.481748 62.472646 
L 769.976994 62.585294 
L 772.391318 62.439055 
L 773.443716 62.298374 
L 774.805643 62.295908 
L 776.910439 62.627255 
L 778.21046 62.37771 
L 778.705706 62.341053 
L 780.129538 62.320085 
L 780.810502 62.497451 
L 781.181936 62.580078 
L 786.010585 62.573732 
L 789.105873 62.636966 
L 815.477726 62.378048 
L 815.477726 62.378048 
" clip-path="url(#p53b0bea532)" style="fill: none; stroke: #e69f00; stroke-width: 1.5; stroke-linecap: square"/>
   </g>
   <g id="patch_3">
    <path d="M 61.03225 97.88 
L 61.03225 26.88 
" style="fill: none; stroke: #000000; stroke-width: 0.8; stroke-linejoin: miter; stroke-linecap: square"/>
   </g>
   <g id="patch_4">
    <path d="M 853.2 97.88 
L 853.2 26.88 
" style="fill: none; stroke: #000000; stroke-width: 0.8; stroke-linejoin: miter; stroke-linecap: square"/>
   </g>
   <g id="patch_5">
    <path d="M 61.03225 97.88 
L 853.2 97.88 
" style="fill: none; stroke: #000000; stroke-width: 0.8; stroke-linejoin: miter; stroke-linecap: square"/>
   </g>
   <g id="patch_6">
    <path d="M 61.03225 26.88 
L 853.2 26.88 
" style="fill: none; stroke: #000000; stroke-width: 0.8; stroke-linejoin: miter; stroke-linecap: square"/>
   </g>
   <g id="text_13">
    <!-- Ground motion -->
    <g transform="translate(412.134875 20.88) scale(0.12 -0.12)">
     <defs>
      <path id="DejaVuSans-47" d="M 3809 666 
L 3809 1919 
L 2778 1919 
L 2778 2438 
L 4434 2438 
L 4434 434 
Q 4069 175 3628 42 
Q 3188 -91 2688 -91 
Q 1594 -91 976 548 
Q 359 1188 359 2328 
Q 359 3472 976 4111 
Q 1594 4750 2688 4750 
Q 3144 4750 3555 4637 
Q 3966 4525 4313 4306 
L 4313 3634 
Q 3963 3931 3569 4081 
Q 3175 4231 2741 4231 
Q 1884 4231 1454 3753 
Q 1025 3275 1025 2328 
Q 1025 1384 1454 906 
Q 1884 428 2741 428 
Q 3075 428 3337 486 
Q 3600 544 3809 666 
z
" transform="scale(0.015625)"/>
      <path id="DejaVuSans-72" d="M 2631 2963 
Q 2534 3019 2420 3045 
Q 2306 3072 2169 3072 
Q 1681 3072 1420 2755 
Q 1159 2438 1159 1844 
L 1159 0 
L 581 0 
L 581 3500 
L 1159 3500 
L 1159 2956 
Q 1341 3275 1631 3429 
Q 1922 3584 2338 3584 
Q 2397 3584 2469 3576 
Q 2541 3569 2628 3553 
L 2631 2963 
z
" transform="scale(0.015625)"/>
      <path id="DejaVuSans-6f" d="M 1959 3097 
Q 1497 3097 1228 2736 
Q 959 2375 959 1747 
Q 959 1119 1226 758 
Q 1494 397 1959 397 
Q 2419 397 2687 759 
Q 2956 1122 2956 1747 
Q 2956 2369 2687 2733 
Q 2419 3097 1959 3097 
z
M 1959 3584 
Q 2709 3584 3137 3096 
Q 3566 2609 3566 1747 
Q 3566 888 3137 398 
Q 2709 -91 1959 -91 
Q 1206 -91 779 398 
Q 353 888 353 1747 
Q 353 2609 779 3096 
Q 1206 3584 1959 3584 
z
" transform="scale(0.015625)"/>
      <path id="DejaVuSans-75" d="M 544 1381 
L 544 3500 
L 1119 3500 
L 1119 1403 
Q 1119 906 1312 657 
Q 1506 409 1894 409 
Q 2359 409 2629 706 
Q 2900 1003 2900 1516 
L 2900 3500 
L 3475 3500 
L 3475 0 
L 2900 0 
L 2900 538 
Q 2691 219 2414 64 
Q 2138 -91 1772 -91 
Q 1169 -91 856 284 
Q 544 659 544 1381 
z
M 1991 3584 
L 1991 3584 
z
" transform="scale(0.015625)"/>
      <path id="DejaVuSans-6e" d="M 3513 2113 
L 3513 0 
L 2938 0 
L 2938 2094 
Q 2938 2591 2744 2837 
Q 2550 3084 2163 3084 
Q 1697 3084 1428 2787 
Q 1159 2491 1159 1978 
L 1159 0 
L 581 0 
L 581 3500 
L 1159 3500 
L 1159 2956 
Q 1366 3272 1645 3428 
Q 1925 3584 2291 3584 
Q 2894 3584 3203 3211 
Q 3513 2838 3513 2113 
z
" transform="scale(0.015625)"/>
      <path id="DejaVuSans-64" d="M 2906 2969 
L 2906 4863 
L 3481 4863 
L 3481 0 
L 2906 0 
L 2906 525 
Q 2725 213 2448 61 
Q 2172 -91 1784 -91 
Q 1150 -91 751 415 
Q 353 922 353 1747 
Q 353 2572 751 3078 
Q 1150 3584 1784 3584 
Q 2172 3584 2448 3432 
Q 2725 3281 2906 2969 
z
M 947 1747 
Q 947 1113 1208 752 
Q 1469 391 1925 391 
Q 2381 391 2643 752 
Q 2906 1113 2906 1747 
Q 2906 2381 2643 2742 
Q 2381 3103 1925 3103 
Q 1469 3103 1208 2742 
Q 947 2381 947 1747 
z
" transform="scale(0.015625)"/>
     </defs>
     <use xlink:href="#DejaVuSans-47"/>
     <use xlink:href="#DejaVuSans-72" x="77.490234"/>
     <use xlink:href="#DejaVuSans-6f" x="116.353516"/>
     <use xlink:href="#DejaVuSans-75" x="177.535156"/>
     <use xlink:href="#DejaVuSans-6e" x="240.914062"/>
     <use xlink:href="#DejaVuSans-64" x="304.292969"/>
     <use xlink:href="#DejaVuSans-20" x="367.769531"/>
     <use xlink:href="#DejaVuSans-6d" x="399.556641"/>
     <use xlink:href="#DejaVuSans-6f" x="496.96875"/>
     <use xlink:href="#DejaVuSans-74" x="558.150391"/>
     <use xlink:href="#DejaVuSans-69" x="597.359375"/>
     <use xlink:href="#DejaVuSans-6f" x="625.142578"/>
     <use xlink:href="#DejaVuSans-6e" x="686.324219"/>
    </g>
   </g>
   <g id="legend_1">
    <g id="patch_7">
     <path d="M 695.459375 49.558125 
L 846.2 49.558125 
Q 848.2 49.558125 848.2 47.558125 
L 848.2 33.88 
Q 848.2 31.88 846.2 31.88 
L 695.459375 31.88 
Q 693.459375 31.88 693.459375 33.88 
L 693.459375 47.558125 
Q 693.459375 49.558125 695.459375 49.558125 
z
" style="fill: #ffffff; opacity: 0.8; stroke: #cccccc; stroke-linejoin: miter"/>
    </g>
    <g id="line2d_22">
     <path d="M 697.459375 39.978437 
L 707.459375 39.978437 
L 717.459375 39.978437 
" style="fill: none; stroke: #e69f00; stroke-width: 1.5; stroke-linecap: square"/>
    </g>
    <g id="text_14">
     <!-- longitudinal component -->
     <g transform="translate(725.459375 43.478437) scale(0.1 -0.1)">
      <defs>
       <path id="DejaVuSans-6c" d="M 603 4863 
L 1178 4863 
L 1178 0 
L 603 0 
L 603 4863 
z
" transform="scale(0.015625)"/>
       <path id="DejaVuSans-67" d="M 2906 1791 
Q 2906 2416 2648 2759 
Q 2391 3103 1925 3103 
Q 1463 3103 1205 2759 
Q 947 2416 947 1791 
Q 947 1169 1205 825 
Q 1463 481 1925 481 
Q 2391 481 2648 825 
Q 2906 1169 2906 1791 
z
M 3481 434 
Q 3481 -459 3084 -895 
Q 2688 -1331 1869 -1331 
Q 1566 -1331 1297 -1286 
Q 1028 -1241 775 -1147 
L 775 -588 
Q 1028 -725 1275 -790 
Q 1522 -856 1778 -856 
Q 2344 -856 2625 -561 
Q 2906 -266 2906 331 
L 2906 616 
Q 2728 306 2450 153 
Q 2172 0 1784 0 
Q 1141 0 747 490 
Q 353 981 353 1791 
Q 353 2603 747 3093 
Q 1141 3584 1784 3584 
Q 2172 3584 2450 3431 
Q 2728 3278 2906 2969 
L 2906 3500 
L 3481 3500 
L 3481 434 
z
" transform="scale(0.015625)"/>
       <path id="DejaVuSans-61" d="M 2194 1759 
Q 1497 1759 1228 1600 
Q 959 1441 959 1056 
Q 959 750 1161 570 
Q 1363 391 1709 391 
Q 2188 391 2477 730 
Q 2766 1069 2766 1631 
L 2766 1759 
L 2194 1759 
z
M 3341 1997 
L 3341 0 
L 2766 0 
L 2766 531 
Q 2569 213 2275 61 
Q 1981 -91 1556 -91 
Q 1019 -91 701 211 
Q 384 513 384 1019 
Q 384 1609 779 1909 
Q 1175 2209 1959 2209 
L 2766 2209 
L 2766 2266 
Q 2766 2663 2505 2880 
Q 2244 3097 1772 3097 
Q 1472 3097 1187 3025 
Q 903 2953 641 2809 
L 641 3341 
Q 956 3463 1253 3523 
Q 1550 3584 1831 3584 
Q 2591 3584 2966 3190 
Q 3341 2797 3341 1997 
z
" transform="scale(0.015625)"/>
       <path id="DejaVuSans-63" d="M 3122 3366 
L 3122 2828 
Q 2878 2963 2633 3030 
Q 2388 3097 2138 3097 
Q 1578 3097 1268 2742 
Q 959 2388 959 1747 
Q 959 1106 1268 751 
Q 1578 397 2138 397 
Q 2388 397 2633 464 
Q 2878 531 3122 666 
L 3122 134 
Q 2881 22 2623 -34 
Q 2366 -91 2075 -91 
Q 1284 -91 818 406 
Q 353 903 353 1747 
Q 353 2603 823 3093 
Q 1294 3584 2113 3584 
Q 2378 3584 2631 3529 
Q 2884 3475 3122 3366 
z
" transform="scale(0.015625)"/>
       <path id="DejaVuSans-70" d="M 1159 525 
L 1159 -1331 
L 581 -1331 
L 581 3500 
L 1159 3500 
L 1159 2969 
Q 1341 3281 1617 3432 
Q 1894 3584 2278 3584 
Q 2916 3584 3314 3078 
Q 3713 2572 3713 1747 
Q 3713 922 3314 415 
Q 2916 -91 2278 -91 
Q 1894 -91 1617 61 
Q 1341 213 1159 525 
z
M 3116 1747 
Q 3116 2381 2855 2742 
Q 2594 3103 2138 3103 
Q 1681 3103 1420 2742 
Q 1159 2381 1159 1747 
Q 1159 1113 1420 752 
Q 1681 391 2138 391 
Q 2594 391 2855 752 
Q 3116 1113 3116 1747 
z
" transform="scale(0.015625)"/>
      </defs>
      <use xlink:href="#DejaVuSans-6c"/>
      <use xlink:href="#DejaVuSans-6f" x="27.783203"/>
      <use xlink:href="#DejaVuSans-6e" x="88.964844"/>
      <use xlink:href="#DejaVuSans-67" x="152.34375"/>
      <use xlink:href="#DejaVuSans-69" x="215.820312"/>
      <use xlink:href="#DejaVuSans-74" x="243.603516"/>
      <use xlink:href="#DejaVuSans-75" x="282.8125"/>
      <use xlink:href="#DejaVuSans-64" x="346.191406"/>
      <use xlink:href="#DejaVuSans-69" x="409.667969"/>
      <use xlink:href="#DejaVuSans-6e" x="437.451172"/>
      <use xlink:href="#DejaVuSans-61" x="500.830078"/>
      <use xlink:href="#DejaVuSans-6c" x="562.109375"/>
      <use xlink:href="#DejaVuSans-20" x="589.892578"/>
      <use xlink:href="#DejaVuSans-63" x="621.679688"/>
      <use xlink:href="#DejaVuSans-6f" x="676.660156"/>
      <use xlink:href="#DejaVuSans-6d" x="737.841797"/>
      <use xlink:href="#DejaVuSans-70" x="835.253906"/>
      <use xlink:href="#DejaVuSans-6f" x="898.730469"/>
      <use xlink:href="#DejaVuSans-6e" x="959.912109"/>
      <use xlink:href="#DejaVuSans-65" x="1023.291016"/>
      <use xlink:href="#DejaVuSans-6e" x="1084.814453"/>
      <use xlink:href="#DejaVuSans-74" x="1148.193359"/>
     </g>
    </g>
   </g>
  </g>
  <g id="axes_2">
   <g id="patch_8">
    <path d="M 61.03225 210.04 
L 853.2 210.04 
L 853.2 139.04 
L 61.03225 139.04 
z
" style="fill: #ffffff"/>
   </g>
   <g id="matplotlib.axis_3">
    <g id="xtick_8">
     <g id="line2d_23">
      <path d="M 61.03225 210.04 
L 61.03225 139.04 
" clip-path="url(#pc337a2bc08)" style="fill: none; stroke: #b0b0b0; stroke-width: 0.8; stroke-linecap: square"/>
     </g>
     <g id="line2d_24">
      <g>
       <use xlink:href="#m723191ed24" x="61.03225" y="210.04" style="stroke: #000000; stroke-width: 0.8"/>
      </g>
     </g>
     <g id="text_15">
      <!-- 0 -->
      <g transform="translate(57.851 224.638438) scale(0.1 -0.1)">
       <use xlink:href="#DejaVuSans-30"/>
      </g>
     </g>
    </g>
    <g id="xtick_9">
     <g id="line2d_25">
      <path d="M 189.991998 210.04 
L 189.991998 139.04 
" clip-path="url(#pc337a2bc08)" style="fill: none; stroke: #b0b0b0; stroke-width: 0.8; stroke-linecap: square"/>
     </g>
     <g id="line2d_26">
      <g>
       <use xlink:href="#m723191ed24" x="189.991998" y="210.04" style="stroke: #000000; stroke-width: 0.8"/>
      </g>
     </g>
     <g id="text_16">
      <!-- 5 -->
      <g transform="translate(186.810748 224.638438) scale(0.1 -0.1)">
       <use xlink:href="#DejaVuSans-35"/>
      </g>
     </g>
    </g>
    <g id="xtick_10">
     <g id="line2d_27">
      <path d="M 318.951746 210.04 
L 318.951746 139.04 
" clip-path="url(#pc337a2bc08)" style="fill: none; stroke: #b0b0b0; stroke-width: 0.8; stroke-linecap: square"/>
     </g>
     <g id="line2d_28">
      <g>
       <use xlink:href="#m723191ed24" x="318.951746" y="210.04" style="stroke: #000000; stroke-width: 0.8"/>
      </g>
     </g>
     <g id="text_17">
      <!-- 10 -->
      <g transform="translate(312.589246 224.638438) scale(0.1 -0.1)">
       <use xlink:href="#DejaVuSans-31"/>
       <use xlink:href="#DejaVuSans-30" x="63.623047"/>
      </g>
     </g>
    </g>
    <g id="xtick_11">
     <g id="line2d_29">
      <path d="M 447.911494 210.04 
L 447.911494 139.04 
" clip-path="url(#pc337a2bc08)" style="fill: none; stroke: #b0b0b0; stroke-width: 0.8; stroke-linecap: square"/>
     </g>
     <g id="line2d_30">
      <g>
       <use xlink:href="#m723191ed24" x="447.911494" y="210.04" style="stroke: #000000; stroke-width: 0.8"/>
      </g>
     </g>
     <g id="text_18">
      <!-- 15 -->
      <g transform="translate(441.548994 224.638438) scale(0.1 -0.1)">
       <use xlink:href="#DejaVuSans-31"/>
       <use xlink:href="#DejaVuSans-35" x="63.623047"/>
      </g>
     </g>
    </g>
    <g id="xtick_12">
     <g id="line2d_31">
      <path d="M 576.871242 210.04 
L 576.871242 139.04 
" clip-path="url(#pc337a2bc08)" style="fill: none; stroke: #b0b0b0; stroke-width: 0.8; stroke-linecap: square"/>
     </g>
     <g id="line2d_32">
      <g>
       <use xlink:href="#m723191ed24" x="576.871242" y="210.04" style="stroke: #000000; stroke-width: 0.8"/>
      </g>
     </g>
     <g id="text_19">
      <!-- 20 -->
      <g transform="translate(570.508742 224.638438) scale(0.1 -0.1)">
       <use xlink:href="#DejaVuSans-32"/>
       <use xlink:href="#DejaVuSans-30" x="63.623047"/>
      </g>
     </g>
    </g>
    <g id="xtick_13">
     <g id="line2d_33">
      <path d="M 705.83099 210.04 
L 705.83099 139.04 
" clip-path="url(#pc337a2bc08)" style="fill: none; stroke: #b0b0b0; stroke-width: 0.8; stroke-linecap: square"/>
     </g>
     <g id="line2d_34">
      <g>
       <use xlink:href="#m723191ed24" x="705.83099" y="210.04" style="stroke: #000000; stroke-width: 0.8"/>
      </g>
     </g>
     <g id="text_20">
      <!-- 25 -->
      <g transform="translate(699.46849 224.638438) scale(0.1 -0.1)">
       <use xlink:href="#DejaVuSans-32"/>
       <use xlink:href="#DejaVuSans-35" x="63.623047"/>
      </g>
     </g>
    </g>
    <g id="xtick_14">
     <g id="line2d_35">
      <path d="M 834.790738 210.04 
L 834.790738 139.04 
" clip-path="url(#pc337a2bc08)" style="fill: none; stroke: #b0b0b0; stroke-width: 0.8; stroke-linecap: square"/>
     </g>
     <g id="line2d_36">
      <g>
       <use xlink:href="#m723191ed24" x="834.790738" y="210.04" style="stroke: #000000; stroke-width: 0.8"/>
      </g>
     </g>
     <g id="text_21">
      <!-- 30 -->
      <g transform="translate(828.428238 224.638438) scale(0.1 -0.1)">
       <use xlink:href="#DejaVuSans-33"/>
       <use xlink:href="#DejaVuSans-30" x="63.623047"/>
      </g>
     </g>
    </g>
    <g id="text_22">
     <!-- time (s) -->
     <g transform="translate(437.724719 238.316563) scale(0.1 -0.1)">
      <use xlink:href="#DejaVuSans-74"/>
      <use xlink:href="#DejaVuSans-69" x="39.208984"/>
      <use xlink:href="#DejaVuSans-6d" x="66.992188"/>
      <use xlink:href="#DejaVuSans-65" x="164.404297"/>
      <use xlink:href="#DejaVuSans-20" x="225.927734"/>
      <use xlink:href="#DejaVuSans-28" x="257.714844"/>
      <use xlink:href="#DejaVuSans-73" x="296.728516"/>
      <use xlink:href="#DejaVuSans-29" x="348.828125"/>
     </g>
    </g>
   </g>
   <g id="matplotlib.axis_4">
    <g id="ytick_4">
     <g id="line2d_37">
      <path d="M 61.03225 197.511814 
L 853.2 197.511814 
" clip-path="url(#pc337a2bc08)" style="fill: none; stroke: #b0b0b0; stroke-width: 0.8; stroke-linecap: square"/>
     </g>
     <g id="line2d_38">
      <g>
       <use xlink:href="#m0798c32155" x="61.03225" y="197.511814" style="stroke: #000000; stroke-width: 0.8"/>
      </g>
     </g>
     <g id="text_23">
      <!-- −0.2 -->
      <g transform="translate(29.749438 201.311033) scale(0.1 -0.1)">
       <use xlink:href="#DejaVuSans-2212"/>
       <use xlink:href="#DejaVuSans-30" x="83.789062"/>
       <use xlink:href="#DejaVuSans-2e" x="147.412109"/>
       <use xlink:href="#DejaVuSans-32" x="179.199219"/>
      </g>
     </g>
    </g>
    <g id="ytick_5">
     <g id="line2d_39">
      <path d="M 61.03225 171.80892 
L 853.2 171.80892 
" clip-path="url(#pc337a2bc08)" style="fill: none; stroke: #b0b0b0; stroke-width: 0.8; stroke-linecap: square"/>
     </g>
     <g id="line2d_40">
      <g>
       <use xlink:href="#m0798c32155" x="61.03225" y="171.80892" style="stroke: #000000; stroke-width: 0.8"/>
      </g>
     </g>
     <g id="text_24">
      <!-- 0.0 -->
      <g transform="translate(38.129125 175.608138) scale(0.1 -0.1)">
       <use xlink:href="#DejaVuSans-30"/>
       <use xlink:href="#DejaVuSans-2e" x="63.623047"/>
       <use xlink:href="#DejaVuSans-30" x="95.410156"/>
      </g>
     </g>
    </g>
    <g id="ytick_6">
     <g id="line2d_41">
      <path d="M 61.03225 146.106026 
L 853.2 146.106026 
" clip-path="url(#pc337a2bc08)" style="fill: none; stroke: #b0b0b0; stroke-width: 0.8; stroke-linecap: square"/>
     </g>
     <g id="line2d_42">
      <g>
       <use xlink:href="#m0798c32155" x="61.03225" y="146.106026" style="stroke: #000000; stroke-width: 0.8"/>
      </g>
     </g>
     <g id="text_25">
      <!-- 0.2 -->
      <g transform="translate(38.129125 149.905244) scale(0.1 -0.1)">
       <use xlink:href="#DejaVuSans-30"/>
       <use xlink:href="#DejaVuSans-2e" x="63.623047"/>
       <use xlink:href="#DejaVuSans-32" x="95.410156"/>
      </g>
     </g>
    </g>
    <g id="text_26">
     <!-- $\ddot{u_g}/g$ -->
     <g transform="translate(22.649438 184.94) rotate(-90) scale(0.1 -0.1)">
      <use xlink:href="#DejaVuSans-308" transform="translate(94.136719 11.21875)"/>
      <use xlink:href="#DejaVuSans-Oblique-75" transform="translate(0 0.03125)"/>
      <use xlink:href="#DejaVuSans-Oblique-67" transform="translate(63.378906 -16.375) scale(0.7)"/>
      <use xlink:href="#DejaVuSans-2f" transform="translate(110.546875 0.03125)"/>
      <use xlink:href="#DejaVuSans-Oblique-67" transform="translate(144.238281 0.03125)"/>
     </g>
    </g>
   </g>
   <g id="line2d_43">
    <path d="M 61.03225 171.789989 
L 72.794344 171.679972 
L 73.72293 171.606498 
L 74.094365 171.747633 
L 74.651517 171.975218 
L 75.022951 171.790011 
L 75.33248 171.697604 
L 76.446784 171.834781 
L 76.880124 172.208159 
L 77.127747 172.09902 
L 78.365862 171.301293 
L 78.55158 171.621359 
L 78.923014 172.412949 
L 79.232543 172.525952 
L 79.480166 172.403357 
L 80.842093 171.024446 
L 81.089716 171.326006 
L 81.708773 172.087331 
L 82.018302 172.392321 
L 82.265925 172.580451 
L 82.451642 172.428154 
L 83.0707 171.639294 
L 83.627852 171.682427 
L 84.185004 171.975657 
L 84.556438 172.334832 
L 84.804061 171.91791 
L 85.051684 171.585855 
L 85.299307 171.818069 
L 85.732648 172.285789 
L 86.042176 172.250068 
L 86.413611 171.966127 
L 87.15648 171.130441 
L 87.404103 170.820683 
L 87.527915 170.867242 
L 87.713632 171.309801 
L 88.208878 173.008079 
L 88.332689 172.736429 
L 88.827935 171.180611 
L 89.261276 171.155153 
L 89.694616 171.282341 
L 89.880333 171.274202 
L 90.066051 171.541341 
L 90.251768 171.797228 
L 90.375579 171.611365 
L 90.747014 170.685546 
L 90.870825 170.832961 
L 91.489883 172.449165 
L 91.861318 172.880404 
L 92.170846 173.203191 
L 92.294658 173.036393 
L 92.85181 171.49201 
L 92.913716 171.531969 
L 93.099433 172.121963 
L 93.470867 173.612059 
L 93.594679 173.622123 
L 93.780396 173.213379 
L 94.151831 172.246249 
L 94.523265 171.827796 
L 95.018511 170.59616 
L 95.080417 170.633226 
L 95.204229 171.090491 
L 95.823286 175.057519 
L 95.885192 175.027756 
L 96.070909 174.548978 
L 96.380438 172.81476 
L 96.689967 171.352675 
L 96.999496 170.483442 
L 97.309024 169.312999 
L 97.432836 169.363323 
L 97.680459 170.379234 
L 98.361422 172.974891 
L 98.918574 173.804171 
L 99.104291 173.758317 
L 99.41382 173.224627 
L 99.785255 172.534476 
L 99.909066 172.626825 
L 100.094783 172.836661 
L 100.218595 172.679871 
L 100.775747 171.000561 
L 100.899558 171.258143 
L 101.45671 173.337773 
L 101.518616 173.29862 
L 101.642427 172.927752 
L 101.89005 171.075059 
L 102.199579 168.96816 
L 102.385297 168.789916 
L 102.63292 169.232803 
L 103.004354 170.129714 
L 103.06626 170.072728 
L 103.251977 169.567237 
L 103.561506 168.710433 
L 103.685317 168.704239 
L 103.871035 169.253447 
L 104.366281 171.897227 
L 104.985338 175.919373 
L 105.10915 175.606317 
L 105.418679 173.608097 
L 105.790113 171.669952 
L 105.975831 171.536031 
L 106.161548 171.85545 
L 106.409171 172.72906 
L 106.842511 174.592754 
L 106.966323 174.526586 
L 107.213946 173.825167 
L 107.771098 172.088615 
L 107.894909 172.201337 
L 108.142532 172.450892 
L 108.266344 172.229912 
L 108.575872 170.858236 
L 109.071118 168.743862 
L 109.256836 168.666981 
L 109.442553 169.148799 
L 109.999705 171.637244 
L 110.061611 171.620953 
L 110.185422 171.269369 
L 110.433045 169.513637 
L 110.866385 166.386457 
L 110.928291 166.388379 
L 111.052103 167.047276 
L 111.299726 171.009895 
L 111.733066 177.315864 
L 111.980689 178.580614 
L 112.104501 178.640976 
L 112.290218 178.138647 
L 112.599747 176.46535 
L 112.909275 175.197716 
L 113.033087 175.237167 
L 113.652145 176.480545 
L 113.775956 176.185558 
L 113.961673 174.770336 
L 114.456919 170.405592 
L 114.828354 167.723158 
L 115.75694 160.159819 
L 116.066469 159.519874 
L 116.561715 158.016297 
L 116.685527 158.304324 
L 116.871244 159.619592 
L 117.118867 163.565261 
L 117.737925 174.039006 
L 118.171265 179.16881 
L 118.418888 180.09638 
L 118.97604 181.202265 
L 119.223663 181.561483 
L 119.40938 181.431543 
L 119.595097 180.916774 
L 119.780815 179.79118 
L 120.028438 176.750242 
L 121.142741 159.008445 
L 121.514176 155.758362 
L 122.442762 152.208612 
L 123.123726 152.493285 
L 124.052312 154.933543 
L 124.238029 157.062822 
L 124.547558 165.070238 
L 125.723767 200.443987 
L 126.157108 203.99375 
L 126.528542 205.866424 
L 126.838071 206.427942 
L 127.023788 206.541587 
L 127.271411 206.322663 
L 127.704752 205.901855 
L 127.890469 206.061072 
L 128.509527 206.812727 
L 128.633338 206.720544 
L 128.75715 206.227601 
L 128.942867 203.838221 
L 129.19049 196.370785 
L 129.747642 177.925063 
L 130.304794 167.065451 
L 131.481003 153.016107 
L 133.400081 142.323099 
L 133.585799 142.28664 
L 133.70961 142.61786 
L 133.895327 144.50106 
L 134.142951 150.847516 
L 134.700102 166.746636 
L 135.071537 171.594951 
L 135.690594 176.324462 
L 136.123935 178.185851 
L 136.309652 178.404708 
L 136.433464 178.287382 
L 136.619181 177.609356 
L 136.866804 175.593224 
L 137.176333 170.747272 
L 137.79539 160.808404 
L 138.228731 157.35464 
L 138.9716 153.290383 
L 139.033505 153.389069 
L 139.157317 154.630699 
L 139.40494 161.546366 
L 139.962092 176.993087 
L 140.395432 183.925687 
L 140.704961 185.798388 
L 141.076395 186.875442 
L 141.695453 190.675962 
L 142.624039 196.210875 
L 142.747851 195.847577 
L 142.933568 193.578204 
L 143.800249 177.688895 
L 145.347893 160.666901 
L 145.843139 155.514133 
L 146.214573 153.039407 
L 146.771725 151.133537 
L 147.328877 147.816965 
L 148.071746 146.111912 
L 148.195558 146.251376 
L 148.381275 146.922093 
L 148.628898 148.909505 
L 149.000333 154.339241 
L 149.371767 162.234787 
L 150.238448 181.673248 
L 150.547976 182.993573 
L 150.981317 183.764509 
L 151.724186 185.941463 
L 151.847997 185.551049 
L 152.09562 183.287427 
L 152.652772 177.2788 
L 153.024207 174.132213 
L 153.457547 167.615865 
L 153.952793 161.197569 
L 154.571851 156.685067 
L 155.252814 152.953958 
L 155.438531 152.766507 
L 155.562343 152.991882 
L 155.871872 154.269895 
L 156.119495 156.108808 
L 156.367118 160.521874 
L 157.419516 181.385011 
L 157.914762 186.74419 
L 158.905254 195.013454 
L 159.276688 197.027031 
L 159.771934 199.410769 
L 160.700521 205.326252 
L 160.824332 205.534921 
L 160.948144 205.31439 
L 161.133861 204.122804 
L 161.381484 200.504826 
L 162.248165 184.895445 
L 162.495788 183.378444 
L 162.743411 182.978337 
L 162.991034 183.043729 
L 163.48628 183.421086 
L 163.610091 183.145472 
L 163.795809 181.956643 
L 165.52917 165.282301 
L 165.96251 162.326378 
L 166.395851 159.3917 
L 166.581568 159.117555 
L 166.705379 159.274961 
L 166.891097 160.053555 
L 167.324437 163.351062 
L 168.129212 169.490668 
L 168.500646 170.393292 
L 169.305421 172.021127 
L 169.491139 171.932102 
L 169.738762 171.438027 
L 170.110196 169.906846 
L 170.481631 167.563089 
L 171.348311 161.505748 
L 172.029275 158.320953 
L 172.153086 158.55066 
L 172.338803 159.778403 
L 173.26739 169.028895 
L 173.453107 169.198563 
L 173.576919 168.866037 
L 173.824542 167.00922 
L 174.319788 163.27917 
L 174.753128 161.333889 
L 175.062657 160.957514 
L 175.434091 160.818178 
L 175.557903 161.12909 
L 175.74362 162.699207 
L 175.991243 167.653102 
L 176.610301 180.689665 
L 177.043641 184.986472 
L 177.35317 186.03668 
L 178.343662 188.310036 
L 178.405568 188.28328 
L 178.529379 187.959924 
L 178.715096 186.287296 
L 179.024625 179.978469 
L 179.39606 173.856919 
L 179.8294 170.196062 
L 180.324646 166.526936 
L 181.067515 159.419821 
L 181.191327 159.355639 
L 181.315138 159.698613 
L 181.562761 161.4438 
L 182.367536 167.378038 
L 182.677065 168.419375 
L 182.800877 168.480009 
L 182.924688 168.329221 
L 183.172311 167.476633 
L 183.977086 164.245395 
L 184.162803 164.201949 
L 184.286615 164.332673 
L 184.534238 165.147921 
L 185.09139 168.217368 
L 185.772353 171.893686 
L 186.143787 172.642627 
L 186.391411 172.71459 
L 186.762845 172.450172 
L 187.010468 172.046126 
L 187.319997 171.541084 
L 187.56762 171.213963 
L 187.815243 170.33252 
L 188.248583 167.309935 
L 188.867641 163.421996 
L 189.115264 162.745489 
L 189.300981 162.69154 
L 189.486698 162.983285 
L 189.672416 163.809561 
L 189.981945 166.477781 
L 191.343871 179.634727 
L 191.6534 180.627989 
L 191.839117 180.746701 
L 191.962929 180.559931 
L 192.148646 179.762355 
L 192.520081 176.732917 
L 192.891515 173.904474 
L 193.324855 172.721573 
L 193.758196 171.583824 
L 194.501065 169.341442 
L 194.810594 169.176487 
L 195.182028 168.993803 
L 195.367745 168.698591 
L 195.677274 167.388478 
L 196.358238 164.268717 
L 196.853484 163.186298 
L 197.101107 163.016947 
L 197.596353 163.15523 
L 198.029693 163.632238 
L 198.21541 164.249587 
L 198.524939 166.46011 
L 199.267808 172.337 
L 199.577337 173.100544 
L 200.196395 174.012846 
L 200.382112 173.890672 
L 200.939264 173.218382 
L 201.063075 173.41797 
L 201.310698 174.630936 
L 202.486908 181.989534 
L 202.858342 182.786356 
L 203.539306 183.388595 
L 204.096457 183.683716 
L 204.34408 183.612543 
L 204.529798 183.361483 
L 204.839326 182.542226 
L 205.767913 179.539363 
L 206.572688 177.98855 
L 207.12984 176.265925 
L 207.501274 174.544655 
L 207.934614 171.25525 
L 208.677484 165.539579 
L 209.296541 162.734185 
L 209.544164 162.093213 
L 209.729881 162.067253 
L 209.915599 162.336576 
L 210.287033 163.366357 
L 210.658468 164.363402 
L 210.906091 164.594656 
L 211.091808 164.553836 
L 211.463243 164.144324 
L 211.772771 163.414302 
L 212.0823 162.77934 
L 212.329923 162.763547 
L 212.763264 162.681289 
L 213.134698 162.584737 
L 213.444227 162.913788 
L 213.815661 163.641145 
L 214.249002 165.146771 
L 214.682342 167.22517 
L 215.672834 172.789008 
L 216.044269 174.182752 
L 216.601421 175.429159 
L 217.468101 176.819115 
L 217.77763 177.31763 
L 217.963347 177.364873 
L 218.149065 177.198183 
L 218.334782 176.662267 
L 218.644311 174.957432 
L 219.077651 172.656697 
L 219.325274 172.190984 
L 219.510991 172.136049 
L 219.82052 172.553272 
L 220.501483 174.053956 
L 221.244352 175.531556 
L 221.491975 175.399759 
L 221.86341 174.929201 
L 222.544373 174.010555 
L 222.791996 174.110081 
L 223.039619 174.489169 
L 223.47296 175.649486 
L 224.896792 179.43654 
L 225.268227 179.875528 
L 225.577756 179.922081 
L 225.763473 179.781293 
L 226.568248 178.310729 
L 227.125399 176.728307 
L 227.868269 174.330753 
L 228.239703 174.032138 
L 228.796855 173.760186 
L 229.044478 173.333714 
L 229.415913 172.244251 
L 229.787347 171.217469 
L 230.03497 171.000333 
L 230.220687 171.103376 
L 230.46831 171.474092 
L 231.396897 173.146489 
L 231.64452 173.218797 
L 231.830237 173.043755 
L 232.07786 172.521165 
L 233.563598 168.215103 
L 233.811221 167.736447 
L 234.182656 166.006683 
L 234.615996 164.362452 
L 234.925525 163.724234 
L 235.111242 163.685045 
L 235.29696 163.954673 
L 235.606488 165.309207 
L 236.535075 170.003321 
L 236.906509 170.373232 
L 237.587473 171.00407 
L 238.082719 170.949941 
L 238.392247 171.232288 
L 238.887494 172.180863 
L 239.506551 173.370232 
L 239.939891 173.787795 
L 240.620855 174.023757 
L 241.611347 175.156386 
L 241.85897 174.827834 
L 242.230404 173.591782 
L 243.344708 169.492697 
L 243.654237 169.056952 
L 244.211389 168.662689 
L 244.459012 168.726076 
L 245.51141 169.357756 
L 245.882844 169.314127 
L 246.563808 169.596417 
L 246.811431 169.83202 
L 247.430488 170.476888 
L 247.98764 170.396687 
L 248.42098 170.263157 
L 248.668603 170.512427 
L 248.916226 171.134533 
L 250.216247 174.947963 
L 250.525776 175.102089 
L 250.711493 174.965562 
L 250.959116 174.445379 
L 251.887703 171.750869 
L 252.197232 171.609614 
L 252.630572 171.801303 
L 253.373441 172.469167 
L 253.744876 172.934233 
L 253.992499 172.972863 
L 254.178216 172.833918 
L 254.425839 172.228294 
L 254.859179 171.09214 
L 255.044896 171.054542 
L 255.292519 171.367893 
L 255.602048 172.062572 
L 256.530635 174.619885 
L 256.902069 174.742489 
L 257.892561 174.726918 
L 258.511619 174.233337 
L 258.821148 173.216962 
L 259.254488 171.985424 
L 259.564017 171.626969 
L 260.430697 170.940586 
L 260.987849 170.333194 
L 261.359284 170.228193 
L 261.668813 170.264266 
L 262.164059 170.595888 
L 262.349776 170.241977 
L 263.216457 167.77826 
L 263.711703 166.977551 
L 264.083137 166.786336 
L 264.640289 166.866979 
L 264.887912 167.205029 
L 265.259347 168.175753 
L 265.816498 169.403535 
L 266.002216 169.467728 
L 266.187933 169.290806 
L 266.497462 168.594322 
L 267.054614 167.341605 
L 267.364142 167.14145 
L 267.611765 167.302016 
L 269.468938 169.487463 
L 270.02609 169.539835 
L 270.273713 170.011167 
L 270.707053 171.434284 
L 271.264205 173.369285 
L 272.007074 173.813165 
L 272.440415 174.079619 
L 272.811849 174.089144 
L 273.369001 173.854312 
L 274.049964 173.36243 
L 274.235682 173.315853 
L 274.421399 173.539848 
L 275.102362 174.776612 
L 275.473797 175.102516 
L 275.845231 175.127053 
L 276.402383 175.092013 
L 276.773818 174.799008 
L 277.516687 173.712494 
L 277.826216 173.747054 
L 278.19765 174.028658 
L 278.63099 174.662762 
L 279.311954 175.640744 
L 279.683388 175.86893 
L 280.054823 175.772417 
L 280.426257 175.295026 
L 281.169126 174.10275 
L 281.354844 174.167865 
L 281.788184 174.440735 
L 282.097713 174.351019 
L 282.407242 173.883758 
L 283.45964 172.3017 
L 283.645357 172.061196 
L 283.954886 170.898567 
L 284.264414 170.02142 
L 284.821566 169.201558 
L 285.069189 169.166715 
L 285.378718 169.417737 
L 285.750153 170.028943 
L 286.36921 171.440989 
L 287.173985 171.143926 
L 287.669231 170.967961 
L 287.97876 170.780554 
L 288.288289 170.388612 
L 289.216875 169.047019 
L 289.464498 168.979586 
L 290.764519 169.151291 
L 291.445482 169.309665 
L 291.878823 169.177447 
L 292.49788 169.01607 
L 293.488372 169.010534 
L 294.602676 169.683031 
L 294.974111 169.883436 
L 295.159828 170.082566 
L 295.469357 170.819407 
L 295.902697 171.955547 
L 296.274131 172.054696 
L 296.58366 172.691608 
L 297.326529 174.035028 
L 297.636058 174.221797 
L 298.069398 174.075008 
L 298.688456 173.730733 
L 298.874173 173.688715 
L 299.121796 174.047593 
L 299.431325 174.389549 
L 299.617042 174.360149 
L 300.050383 174.235462 
L 301.226592 174.487159 
L 302.526613 175.132238 
L 303.393294 175.22195 
L 304.012351 175.510382 
L 304.445692 175.369553 
L 304.75522 175.330904 
L 306.179053 175.281383 
L 306.612393 175.169648 
L 307.045733 175.312439 
L 307.355262 175.368078 
L 307.726697 175.477233 
L 307.97432 175.578139 
L 308.221943 175.668501 
L 308.40766 175.32451 
L 309.274341 173.105785 
L 309.769587 172.375176 
L 311.131513 171.222224 
L 312.183911 168.816726 
L 312.741063 167.329057 
L 313.360121 166.65211 
L 314.412519 165.221124 
L 314.783953 165.080683 
L 315.093482 165.120803 
L 316.083974 165.536199 
L 316.57922 165.470544 
L 316.826843 165.586356 
L 317.445901 166.361988 
L 318.62211 168.397812 
L 319.179262 169.242098 
L 319.736414 169.659216 
L 320.479283 169.841583 
L 321.098341 170.63853 
L 321.469775 171.024477 
L 323.079325 173.654544 
L 323.450759 174.238013 
L 323.760288 174.347413 
L 323.946005 174.460683 
L 324.812686 175.432425 
L 325.122215 175.486253 
L 325.431744 175.384023 
L 325.988895 174.674236 
L 326.422236 174.280745 
L 327.474634 173.860278 
L 328.341314 174.013206 
L 328.588937 174.059195 
L 328.960372 173.89701 
L 329.393712 173.671797 
L 329.950864 173.802916 
L 330.44611 174.498298 
L 330.817545 174.90324 
L 331.127073 174.905394 
L 331.374696 174.656646 
L 331.684225 174.008169 
L 332.365189 172.102134 
L 332.612812 171.768068 
L 332.860435 171.839547 
L 333.046152 171.833783 
L 333.479492 171.628853 
L 334.346173 171.64336 
L 334.717607 171.74118 
L 335.336665 172.040496 
L 335.831911 172.157185 
L 336.079534 172.264069 
L 336.57478 172.805494 
L 336.822403 172.72047 
L 337.689084 172.274719 
L 338.18433 172.547239 
L 338.431953 172.465023 
L 338.927199 171.865849 
L 339.298633 171.508763 
L 339.731974 171.474683 
L 340.103408 171.581853 
L 340.474843 171.645527 
L 341.0939 171.556465 
L 341.712958 171.031876 
L 342.579639 170.039302 
L 342.889167 169.896455 
L 343.198696 169.827592 
L 344.127283 169.758721 
L 344.498717 169.45424 
L 345.303492 168.558119 
L 345.489209 168.536206 
L 345.860644 168.383038 
L 346.046361 168.548645 
L 346.479701 168.949712 
L 346.851136 168.990798 
L 348.027345 169.178542 
L 348.336874 169.163777 
L 348.646403 169.212185 
L 348.894026 169.594157 
L 349.760707 171.181062 
L 350.379764 172.065292 
L 351.060728 172.650293 
L 351.617879 173.101571 
L 351.989314 173.378728 
L 352.546466 173.296907 
L 352.855995 173.308545 
L 353.413146 173.551395 
L 353.784581 173.664876 
L 354.09411 173.581074 
L 354.898885 173.140214 
L 355.332225 173.185505 
L 356.384623 173.460066 
L 357.560832 173.986998 
L 357.808455 174.430434 
L 358.056078 174.800924 
L 359.108476 175.265834 
L 359.418005 175.065019 
L 360.284686 174.360054 
L 361.151366 174.311904 
L 361.770424 174.699068 
L 362.079953 174.455279 
L 364.618089 171.844571 
L 364.865712 171.809211 
L 365.17524 171.974951 
L 365.856204 172.518016 
L 366.041921 172.392526 
L 366.413356 171.830634 
L 366.908602 170.63965 
L 367.280036 169.76468 
L 367.837188 169.052459 
L 368.146717 168.908844 
L 368.765774 168.86623 
L 369.446738 168.431403 
L 369.880078 168.239299 
L 370.065795 168.335413 
L 370.375324 168.432256 
L 371.118193 167.831696 
L 372.91346 167.76053 
L 373.532518 167.334668 
L 374.213481 168.013272 
L 374.646821 168.432549 
L 375.142068 168.999081 
L 376.070654 170.169542 
L 376.442088 170.766657 
L 377.061146 171.903283 
L 378.546884 173.624499 
L 379.351659 174.245117 
L 379.908811 174.861168 
L 381.270738 176.648669 
L 381.580266 176.71439 
L 381.889795 176.642556 
L 383.004099 175.559473 
L 383.375533 174.904039 
L 383.746968 174.625104 
L 384.366026 174.131437 
L 385.232706 173.162513 
L 386.037481 172.516777 
L 386.285104 172.632074 
L 386.656539 172.895265 
L 386.966067 172.928544 
L 387.337502 172.997085 
L 387.956559 172.702927 
L 388.885146 171.893502 
L 389.132769 171.876754 
L 389.751826 172.233509 
L 390.123261 172.336719 
L 390.494696 172.259613 
L 390.989942 171.689449 
L 391.918528 170.682397 
L 392.599491 170.335221 
L 393.218549 170.439716 
L 393.528078 170.512247 
L 393.837607 170.53988 
L 394.332853 170.695524 
L 394.704287 170.722692 
L 395.075722 171.085311 
L 395.323345 171.245822 
L 396.004308 170.904544 
L 396.313837 170.72321 
L 397.242423 170.218862 
L 397.737669 170.526693 
L 398.109104 170.837762 
L 398.418633 170.940295 
L 398.913879 171.42323 
L 399.594842 171.244499 
L 399.966277 171.372611 
L 400.275805 171.415819 
L 401.575826 171.864938 
L 401.947261 171.954188 
L 402.25679 172.062188 
L 402.566318 172.154459 
L 403.247282 172.032044 
L 403.742528 171.798219 
L 404.609208 171.839759 
L 404.918737 171.950946 
L 405.413983 171.787149 
L 406.033041 171.504832 
L 406.652098 171.247631 
L 407.271156 171.208212 
L 407.890214 171.025221 
L 408.261648 170.699865 
L 408.571177 170.77628 
L 410.118821 171.614058 
L 410.86169 171.777832 
L 411.418842 172.447068 
L 412.47124 172.888813 
L 413.090297 172.635455 
L 413.771261 172.353693 
L 414.080789 172.25258 
L 414.390318 172.154305 
L 415.071282 172.111317 
L 415.504622 171.984561 
L 415.937962 171.929899 
L 416.680831 171.604762 
L 417.176077 171.728953 
L 418.228475 172.147065 
L 419.03325 172.232338 
L 419.342779 172.324975 
L 419.652308 172.320465 
L 419.899931 172.616799 
L 420.20946 172.923601 
L 420.457083 172.834215 
L 420.828517 172.701234 
L 421.138046 172.541681 
L 421.880915 172.345355 
L 422.809501 172.24585 
L 423.180936 171.65036 
L 423.490465 171.277679 
L 423.861899 171.259076 
L 424.357145 171.055967 
L 424.72858 171.220316 
L 425.223826 171.419018 
L 425.657166 171.468451 
L 426.090507 171.610864 
L 426.957187 171.658733 
L 427.700056 171.792689 
L 428.133397 171.741893 
L 428.504831 171.291836 
L 429.2477 170.202639 
L 429.804852 169.816949 
L 430.238192 169.646404 
L 430.485815 169.606401 
L 430.919156 169.699312 
L 431.538213 169.928017 
L 431.971554 169.94935 
L 432.219177 170.047031 
L 432.528705 170.455963 
L 432.838234 170.856668 
L 433.395386 170.982716 
L 433.704915 171.06685 
L 434.757313 171.446587 
L 435.500182 171.92307 
L 435.995428 171.817627 
L 436.55258 172.145681 
L 436.98592 172.181336 
L 438.657376 172.525547 
L 439.152622 172.605509 
L 439.709773 172.900068 
L 440.143114 172.798277 
L 440.452643 172.698854 
L 441.009794 172.780972 
L 441.381229 172.88443 
L 442.371721 172.841622 
L 442.743156 172.717382 
L 443.176496 172.690406 
L 443.981271 172.2271 
L 444.600328 171.816708 
L 444.847951 172.038636 
L 445.095574 172.20157 
L 445.343197 171.983553 
L 445.838443 171.471512 
L 446.395595 171.259546 
L 446.76703 171.355635 
L 447.757522 171.983342 
L 448.37658 171.984014 
L 448.933731 172.512196 
L 450.543281 172.716058 
L 451.533773 172.901121 
L 451.905208 172.79372 
L 452.338548 172.717381 
L 453.205229 172.636004 
L 453.824286 172.372876 
L 454.195721 172.508995 
L 454.629061 172.797466 
L 455.433836 173.259621 
L 456.919574 173.282653 
L 457.352915 173.513916 
L 457.786255 173.82136 
L 458.095784 173.417887 
L 458.467218 173.034077 
L 458.900558 172.548751 
L 459.581522 171.720138 
L 460.014862 171.555479 
L 460.63392 171.491346 
L 460.819637 171.426229 
L 461.562506 171.718469 
L 461.872035 171.617806 
L 462.67681 171.632082 
L 463.11015 171.547304 
L 464.224454 170.912571 
L 464.657794 170.882883 
L 465.58638 170.528427 
L 466.205438 170.504551 
L 466.700684 170.37233 
L 467.010213 170.228414 
L 467.257836 170.165036 
L 467.62927 170.256554 
L 468.434045 170.726357 
L 469.053103 170.61982 
L 469.67216 170.333556 
L 469.981689 170.438475 
L 470.353124 170.67196 
L 470.84837 170.447116 
L 471.219804 170.723506 
L 471.900768 171.29308 
L 472.396014 171.422351 
L 473.138883 171.06218 
L 473.510317 170.754846 
L 474.129375 171.01736 
L 474.438904 170.903576 
L 474.996056 171.080099 
L 476.048454 170.974485 
L 476.481794 171.260345 
L 477.038946 171.659548 
L 477.472286 171.811086 
L 478.215155 171.641857 
L 480.196139 171.67865 
L 481.124726 172.172586 
L 482.300935 172.335819 
L 482.734275 172.865297 
L 482.919993 172.777077 
L 483.167616 172.711355 
L 483.477145 172.629279 
L 484.158108 172.39367 
L 485.334317 172.054285 
L 485.767658 171.636724 
L 486.015281 171.845127 
L 486.324809 171.999246 
L 486.881961 172.180452 
L 487.439113 172.521981 
L 487.748642 172.490556 
L 488.181982 172.201123 
L 489.172474 170.939358 
L 489.358192 170.976636 
L 490.720118 171.632548 
L 493.134443 171.832032 
L 494.743993 172.398263 
L 495.301144 172.833956 
L 495.548767 172.713486 
L 496.229731 172.953687 
L 496.910694 172.872602 
L 497.901186 172.271277 
L 498.334527 171.794172 
L 498.891678 171.738952 
L 499.139301 171.639464 
L 500.129793 171.885827 
L 500.748851 172.345775 
L 501.553626 172.53998 
L 502.729835 172.471742 
L 503.782233 171.775747 
L 504.091762 171.775307 
L 504.896537 171.942773 
L 505.887029 171.39175 
L 506.320369 171.579281 
L 507.063238 172.319624 
L 507.558484 172.551721 
L 507.744202 172.257324 
L 508.425165 170.766422 
L 508.734694 170.579841 
L 509.22994 170.655221 
L 509.848998 170.926904 
L 510.220432 170.850008 
L 510.777584 170.405698 
L 511.210924 170.558778 
L 511.644265 170.571241 
L 512.139511 170.964339 
L 512.88238 171.472737 
L 514.491929 171.107661 
L 515.110987 170.865552 
L 516.658631 169.835781 
L 516.96816 169.674586 
L 517.215783 169.639523 
L 517.525312 169.768823 
L 517.958652 170.237503 
L 519.196767 172.225897 
L 519.753919 172.677323 
L 519.87773 172.586927 
L 520.496788 171.760003 
L 521.92062 170.930972 
L 522.292055 170.881737 
L 522.725395 170.711304 
L 522.911113 170.919682 
L 523.53017 171.957182 
L 524.087322 172.54121 
L 524.768285 172.504049 
L 525.449249 172.193639 
L 526.74927 172.404121 
L 527.18261 172.706098 
L 528.04929 173.258348 
L 528.544537 173.381685 
L 528.915971 173.504005 
L 529.349311 173.880117 
L 530.401709 174.734358 
L 531.330296 174.748199 
L 532.073165 174.504648 
L 532.87794 173.4668 
L 533.373186 173.284725 
L 534.425584 173.262779 
L 534.673207 173.072152 
L 534.982735 172.619299 
L 535.35417 172.203161 
L 535.663699 172.373182 
L 536.097039 172.489758 
L 537.954212 172.752085 
L 538.511364 172.71389 
L 539.130421 172.285485 
L 539.625667 171.736881 
L 539.935196 171.511046 
L 540.554254 171.299598 
L 541.0495 171.220643 
L 543.278107 170.008494 
L 543.587636 169.870878 
L 544.330505 169.495655 
L 544.825751 169.694192 
L 545.197186 169.445338 
L 546.063866 169.801047 
L 546.806735 169.71189 
L 547.054358 169.662688 
L 547.61151 169.771081 
L 547.859133 169.737639 
L 548.416285 170.181213 
L 548.911531 170.200044 
L 549.282966 170.122284 
L 549.530589 170.049483 
L 550.025835 170.345059 
L 551.26395 171.884505 
L 551.883007 172.185898 
L 553.30684 172.394709 
L 554.421144 172.007325 
L 555.164013 171.554296 
L 555.78307 171.304316 
L 556.649751 171.623326 
L 557.268808 172.22032 
L 557.578337 172.178285 
L 558.816452 172.417527 
L 559.683133 172.786188 
L 559.930756 172.659268 
L 560.240285 172.563894 
L 560.859342 172.891125 
L 561.354588 172.80282 
L 562.159363 172.947234 
L 563.026044 173.106586 
L 563.459384 173.042812 
L 564.759405 172.200745 
L 565.316557 172.166486 
L 566.245143 172.018056 
L 567.483259 172.130926 
L 568.102316 172.155998 
L 568.597562 171.99128 
L 569.340431 171.713001 
L 569.588054 171.706208 
L 570.145206 171.352731 
L 572.311908 172.403272 
L 572.930965 172.468141 
L 573.240494 172.563496 
L 573.550023 172.373214 
L 573.921457 172.185432 
L 575.77863 171.584231 
L 577.202463 170.826787 
L 578.378672 170.979015 
L 579.183447 171.216731 
L 580.731091 171.856357 
L 582.154923 172.114769 
L 582.588264 171.621682 
L 583.764473 171.631369 
L 584.321625 171.728448 
L 584.816871 171.790024 
L 585.188305 171.636795 
L 585.807363 171.825959 
L 587.107384 171.84333 
L 587.726441 172.010889 
L 588.159782 171.947156 
L 589.150274 171.454133 
L 590.016955 171.383495 
L 590.574106 171.626667 
L 591.131258 171.823068 
L 592.307468 171.6963 
L 592.802714 171.689199 
L 593.483677 171.83708 
L 593.855112 171.737911 
L 594.102735 171.700057 
L 594.412263 171.877353 
L 595.155132 171.69875 
L 595.712284 171.830612 
L 596.083719 171.728712 
L 597.321834 170.863631 
L 597.507551 170.746577 
L 597.755174 170.982917 
L 598.25042 171.40743 
L 598.559949 171.431838 
L 599.179007 171.571034 
L 599.42663 171.646694 
L 599.85997 171.661979 
L 601.159991 172.18491 
L 601.531426 172.204463 
L 602.026672 172.571319 
L 602.707635 173.147553 
L 603.202881 173.247386 
L 604.37909 172.739694 
L 605.617206 172.286294 
L 605.926734 172.186851 
L 606.42198 172.301007 
L 606.979132 172.479883 
L 607.783907 171.75191 
L 608.341059 171.474052 
L 608.712494 171.441615 
L 609.145834 171.321281 
L 609.579174 171.313884 
L 609.888703 171.187571 
L 610.136326 171.134382 
L 610.941101 171.740525 
L 611.560158 171.826113 
L 613.045897 171.9404 
L 614.407823 172.180102 
L 614.964975 171.917728 
L 615.76975 171.470715 
L 616.264996 171.432903 
L 617.131677 171.107619 
L 618.988849 171.174517 
L 619.174567 171.302944 
L 619.484095 171.602994 
L 619.793624 171.395772 
L 620.226965 171.316169 
L 620.536493 171.257748 
L 620.969834 171.092754 
L 622.207949 171.093998 
L 622.765101 170.808725 
L 623.198441 171.092022 
L 624.498462 171.254447 
L 625.179425 171.465071 
L 626.41754 171.505807 
L 628.336619 172.185035 
L 629.822357 172.164895 
L 630.255697 172.19449 
L 630.565226 172.07231 
L 631.370001 171.648693 
L 631.927153 171.666716 
L 632.298587 171.458017 
L 632.917645 171.812972 
L 633.660514 172.501753 
L 634.341477 173.059306 
L 634.5891 173.080819 
L 634.960535 172.956696 
L 635.517687 173.419683 
L 635.827216 173.346735 
L 636.570085 172.913445 
L 637.8082 172.299239 
L 638.179634 172.264363 
L 640.28443 172.737523 
L 641.089205 172.62603 
L 642.141603 171.89195 
L 643.379718 171.29466 
L 643.874964 171.35451 
L 644.37021 171.724411 
L 644.679739 171.748583 
L 645.54642 172.244633 
L 646.784535 171.832658 
L 647.032158 171.556314 
L 647.341687 171.237361 
L 647.58931 171.303534 
L 647.836933 171.406374 
L 648.394085 171.296507 
L 650.189352 171.517943 
L 651.241749 171.59913 
L 651.798901 171.354285 
L 652.479865 170.89799 
L 653.222734 170.651159 
L 653.903697 170.669263 
L 654.58466 170.801178 
L 655.822776 171.271226 
L 656.689456 171.617621 
L 656.875173 171.617776 
L 657.184702 171.291126 
L 657.494231 171.131953 
L 657.927571 171.099336 
L 658.299006 171.087347 
L 660.094273 171.487425 
L 660.403802 171.723353 
L 661.394294 171.981353 
L 661.88954 172.035532 
L 662.32288 171.956449 
L 662.694315 171.844097 
L 664.118147 171.844841 
L 665.913414 171.938862 
L 667.151529 172.411751 
L 667.522964 172.319111 
L 667.832493 172.215317 
L 668.327739 172.197206 
L 668.761079 172.058183 
L 669.256325 172.270691 
L 669.813477 171.963906 
L 671.980178 172.005569 
L 672.413519 171.876571 
L 672.846859 171.973348 
L 673.218294 171.861375 
L 675.880241 172.545932 
L 676.561205 172.494001 
L 677.427885 172.729166 
L 677.861226 172.762219 
L 678.356472 172.688868 
L 679.470775 172.027658 
L 680.151739 171.488832 
L 680.646985 171.260598 
L 680.956513 171.215357 
L 681.45176 171.381327 
L 681.823194 171.107046 
L 682.380346 171.349497 
L 683.185121 171.718816 
L 684.051801 171.877429 
L 684.299424 171.672109 
L 684.547047 171.498607 
L 685.104199 171.577919 
L 685.661351 171.31755 
L 686.961372 171.598215 
L 687.518524 171.768388 
L 687.951864 171.932503 
L 689.499508 172.230486 
L 690.985246 172.055962 
L 693.647194 171.74282 
L 694.080534 171.873916 
L 694.637686 171.608901 
L 695.318649 171.924935 
L 696.061518 172.323942 
L 696.804388 172.563869 
L 697.175822 172.41703 
L 697.732974 172.792069 
L 698.785372 172.462161 
L 699.032995 172.414578 
L 699.466335 172.398731 
L 700.828262 171.882055 
L 701.137791 171.834636 
L 701.818754 171.545687 
L 702.623529 171.25333 
L 703.428304 170.795707 
L 703.799738 170.747012 
L 704.294984 170.618488 
L 706.090251 171.072985 
L 706.39978 171.324188 
L 707.204555 171.432004 
L 707.637895 171.686782 
L 708.380764 171.672482 
L 708.937916 171.388368 
L 709.495068 170.787844 
L 710.05222 170.970696 
L 710.795089 170.796502 
L 712.342733 170.84062 
L 712.714167 170.9567 
L 713.023696 171.030539 
L 714.447529 171.679405 
L 715.809455 172.034351 
L 716.18089 172.048867 
L 716.676136 172.142137 
L 717.171382 172.273773 
L 718.842838 172.875311 
L 719.214272 172.589006 
L 719.709518 172.369645 
L 720.70001 171.890874 
L 721.071445 171.824072 
L 721.814314 171.521949 
L 722.185748 171.734715 
L 722.557183 171.87584 
L 723.114335 171.919902 
L 724.847696 172.433168 
L 727.385832 172.558127 
L 728.066795 172.525284 
L 729.304911 172.702351 
L 730.419214 172.972739 
L 731.347801 172.87006 
L 731.904953 172.232178 
L 733.514502 171.895639 
L 733.885937 171.814508 
L 734.443089 171.534833 
L 735.062146 171.729863 
L 737.290753 170.985342 
L 738.466963 171.072723 
L 738.776492 171.168241 
L 739.890795 171.169468 
L 741.747968 171.073616 
L 742.057497 170.979988 
L 742.986083 170.958289 
L 743.171801 170.966209 
L 743.481329 171.257061 
L 743.790858 171.485202 
L 744.038481 171.329953 
L 744.34801 171.203726 
L 745.462314 171.253018 
L 746.143277 171.34494 
L 746.514711 171.357344 
L 747.071863 171.273192 
L 747.629015 171.70784 
L 747.938544 171.784662 
L 748.371884 171.925635 
L 749.424282 172.086717 
L 751.900512 172.440653 
L 752.767193 172.516158 
L 754.005308 172.579142 
L 754.376743 172.381594 
L 754.810083 172.24807 
L 755.119612 172.16845 
L 755.552952 172.018768 
L 755.924387 171.98389 
L 756.295821 172.069539 
L 756.852973 171.726697 
L 757.224408 171.835025 
L 757.533936 171.834965 
L 758.2149 171.70494 
L 758.957769 171.588983 
L 759.514921 171.424723 
L 760.072073 171.68017 
L 761.000659 171.55959 
L 762.610209 171.590926 
L 763.724512 171.738898 
L 764.219758 171.63902 
L 764.962627 171.61034 
L 765.767402 171.659804 
L 766.38646 171.622858 
L 768.42935 171.741529 
L 768.986502 171.976164 
L 769.481748 171.816321 
L 769.976994 171.918177 
L 773.072282 172.099389 
L 773.629434 172.010548 
L 775.610418 171.871668 
L 778.024742 171.848592 
L 778.581894 171.889873 
L 779.139046 171.847751 
L 779.881915 171.831194 
L 781.677182 171.707391 
L 781.924805 171.642725 
L 784.029601 171.828194 
L 784.710564 171.833387 
L 785.081999 171.889133 
L 786.258208 171.907661 
L 787.124889 171.863963 
L 789.167779 171.634548 
L 801.610836 171.85123 
L 809.720491 171.817487 
L 815.477726 171.807934 
L 815.477726 171.807934 
" clip-path="url(#pc337a2bc08)" style="fill: none; stroke: #56b4e9; stroke-width: 1.5; stroke-linecap: square"/>
   </g>
   <g id="patch_9">
    <path d="M 61.03225 210.04 
L 61.03225 139.04 
" style="fill: none; stroke: #000000; stroke-width: 0.8; stroke-linejoin: miter; stroke-linecap: square"/>
   </g>
   <g id="patch_10">
    <path d="M 853.2 210.04 
L 853.2 139.04 
" style="fill: none; stroke: #000000; stroke-width: 0.8; stroke-linejoin: miter; stroke-linecap: square"/>
   </g>
   <g id="patch_11">
    <path d="M 61.03225 210.04 
L 853.2 210.04 
" style="fill: none; stroke: #000000; stroke-width: 0.8; stroke-linejoin: miter; stroke-linecap: square"/>
   </g>
   <g id="patch_12">
    <path d="M 61.03225 139.04 
L 853.2 139.04 
" style="fill: none; stroke: #000000; stroke-width: 0.8; stroke-linejoin: miter; stroke-linecap: square"/>
   </g>
   <g id="legend_2">
    <g id="patch_13">
     <path d="M 701.196875 161.718125 
L 846.2 161.718125 
Q 848.2 161.718125 848.2 159.718125 
L 848.2 146.04 
Q 848.2 144.04 846.2 144.04 
L 701.196875 144.04 
Q 699.196875 144.04 699.196875 146.04 
L 699.196875 159.718125 
Q 699.196875 161.718125 701.196875 161.718125 
z
" style="fill: #ffffff; opacity: 0.8; stroke: #cccccc; stroke-linejoin: miter"/>
    </g>
    <g id="line2d_44">
     <path d="M 703.196875 152.138438 
L 713.196875 152.138438 
L 723.196875 152.138438 
" style="fill: none; stroke: #56b4e9; stroke-width: 1.5; stroke-linecap: square"/>
    </g>
    <g id="text_27">
     <!-- transverse component -->
     <g transform="translate(731.196875 155.638438) scale(0.1 -0.1)">
      <defs>
       <path id="DejaVuSans-76" d="M 191 3500 
L 800 3500 
L 1894 563 
L 2988 3500 
L 3597 3500 
L 2284 0 
L 1503 0 
L 191 3500 
z
" transform="scale(0.015625)"/>
      </defs>
      <use xlink:href="#DejaVuSans-74"/>
      <use xlink:href="#DejaVuSans-72" x="39.208984"/>
      <use xlink:href="#DejaVuSans-61" x="80.322266"/>
      <use xlink:href="#DejaVuSans-6e" x="141.601562"/>
      <use xlink:href="#DejaVuSans-73" x="204.980469"/>
      <use xlink:href="#DejaVuSans-76" x="257.080078"/>
      <use xlink:href="#DejaVuSans-65" x="316.259766"/>
      <use xlink:href="#DejaVuSans-72" x="377.783203"/>
      <use xlink:href="#DejaVuSans-73" x="418.896484"/>
      <use xlink:href="#DejaVuSans-65" x="470.996094"/>
      <use xlink:href="#DejaVuSans-20" x="532.519531"/>
      <use xlink:href="#DejaVuSans-63" x="564.306641"/>
      <use xlink:href="#DejaVuSans-6f" x="619.287109"/>
      <use xlink:href="#DejaVuSans-6d" x="680.46875"/>
      <use xlink:href="#DejaVuSans-70" x="777.880859"/>
      <use xlink:href="#DejaVuSans-6f" x="841.357422"/>
      <use xlink:href="#DejaVuSans-6e" x="902.539062"/>
      <use xlink:href="#DejaVuSans-65" x="965.917969"/>
      <use xlink:href="#DejaVuSans-6e" x="1027.441406"/>
      <use xlink:href="#DejaVuSans-74" x="1090.820312"/>
     </g>
    </g>
   </g>
  </g>
 </g>
 <defs>
  <clipPath id="p53b0bea532">
   <rect x="61.03225" y="26.88" width="792.16775" height="71"/>
  </clipPath>
  <clipPath id="pc337a2bc08">
   <rect x="61.03225" y="139.04" width="792.16775" height="71"/>
  </clipPath>
 </defs>
</svg>
